<?xml version="1.0" encoding="utf-8" standalone="no"?>
<!DOCTYPE svg PUBLIC "-//W3C//DTD SVG 1.1//EN"
  "http://www.w3.org/Graphics/SVG/1.1/DTD/svg11.dtd">
<!-- Created with matplotlib (https://matplotlib.org/) -->
<svg height="288pt" version="1.1" viewBox="0 0 432 288" width="432pt" xmlns="http://www.w3.org/2000/svg" xmlns:xlink="http://www.w3.org/1999/xlink">
 <metadata>
  <rdf:RDF xmlns:cc="http://creativecommons.org/ns#" xmlns:dc="http://purl.org/dc/elements/1.1/" xmlns:rdf="http://www.w3.org/1999/02/22-rdf-syntax-ns#">
   <cc:Work>
    <dc:type rdf:resource="http://purl.org/dc/dcmitype/StillImage"/>
    <dc:date>2022-03-03T01:42:48.403315</dc:date>
    <dc:format>image/svg+xml</dc:format>
    <dc:creator>
     <cc:Agent>
      <dc:title>Matplotlib v3.3.4, https://matplotlib.org/</dc:title>
     </cc:Agent>
    </dc:creator>
   </cc:Work>
  </rdf:RDF>
 </metadata>
 <defs>
  <style type="text/css">*{stroke-linecap:butt;stroke-linejoin:round;}</style>
 </defs>
 <g id="figure_1">
  <g id="patch_1">
   <path d="M 0 288 
L 432 288 
L 432 0 
L 0 0 
z
" style="fill:#ffffff;"/>
  </g>
  <g id="axes_1">
   <g id="patch_2">
    <path d="M 54 252 
L 388.8 252 
L 388.8 34.56 
L 54 34.56 
z
" style="fill:#ffffff;"/>
   </g>
   <g id="PolyCollection_1">
    <defs>
     <path d="M 69.218182 -243.556364 
L 69.218182 -243.556364 
L 72.292562 -243.556364 
L 72.292562 -243.556364 
L 75.366942 -243.556364 
L 75.366942 -243.556364 
L 78.441322 -243.556364 
L 78.441322 -243.556364 
L 81.515702 -243.556364 
L 81.515702 -243.556364 
L 84.590083 -243.556364 
L 84.590083 -243.556364 
L 87.664463 -243.556364 
L 87.664463 -243.556364 
L 90.738843 -243.556364 
L 90.738843 -213.452877 
L 93.813223 -213.452877 
L 93.813223 -213.452877 
L 96.887603 -213.452877 
L 96.887603 -213.452877 
L 99.961983 -213.452877 
L 99.961983 -213.452877 
L 103.036364 -213.452877 
L 103.036364 -213.452877 
L 106.110744 -213.452877 
L 106.110744 -213.452877 
L 109.185124 -213.452877 
L 109.185124 -213.452877 
L 112.259504 -213.452877 
L 112.259504 -213.452877 
L 115.333884 -213.452877 
L 115.333884 -213.452877 
L 118.408264 -213.452877 
L 118.408264 -213.452877 
L 121.482645 -213.452877 
L 121.482645 -213.452877 
L 124.557025 -213.452877 
L 124.557025 -213.452877 
L 127.631405 -213.452877 
L 127.631405 -213.452877 
L 130.705785 -213.452877 
L 130.705785 -213.452877 
L 133.780165 -213.452877 
L 133.780165 -213.452877 
L 136.854545 -213.452877 
L 136.854545 -213.452877 
L 139.928926 -213.452877 
L 139.928926 -213.452877 
L 143.003306 -213.452877 
L 143.003306 -213.452877 
L 146.077686 -213.452877 
L 146.077686 -213.452877 
L 149.152066 -213.452877 
L 149.152066 -213.452877 
L 152.226446 -213.452877 
L 152.226446 -210.463139 
L 155.300826 -210.463139 
L 155.300826 -210.463139 
L 158.375207 -210.463139 
L 158.375207 -210.463139 
L 161.449587 -210.463139 
L 161.449587 -210.463139 
L 164.523967 -210.463139 
L 164.523967 -210.463139 
L 167.598347 -210.463139 
L 167.598347 -210.463139 
L 170.672727 -210.463139 
L 170.672727 -205.854645 
L 173.747107 -205.854645 
L 173.747107 -205.854645 
L 176.821488 -205.854645 
L 176.821488 -173.470638 
L 179.895868 -173.470638 
L 179.895868 -173.470638 
L 182.970248 -173.470638 
L 182.970248 -173.470638 
L 186.044628 -173.470638 
L 186.044628 -173.470638 
L 189.119008 -173.470638 
L 189.119008 -173.470638 
L 192.193388 -173.470638 
L 192.193388 -173.470638 
L 195.267769 -173.470638 
L 195.267769 -173.470638 
L 198.342149 -173.470638 
L 198.342149 -173.470638 
L 201.416529 -173.470638 
L 201.416529 -173.470638 
L 204.490909 -173.470638 
L 204.490909 -173.470638 
L 207.565289 -173.470638 
L 207.565289 -173.470638 
L 210.639669 -173.470638 
L 210.639669 -173.470638 
L 213.71405 -173.470638 
L 213.71405 -173.470638 
L 216.78843 -173.470638 
L 216.78843 -173.470638 
L 219.86281 -173.470638 
L 219.86281 -173.470638 
L 222.93719 -173.470638 
L 222.93719 -173.470638 
L 226.01157 -173.470638 
L 226.01157 -173.470638 
L 229.08595 -173.470638 
L 229.08595 -173.470638 
L 232.160331 -173.470638 
L 232.160331 -173.470638 
L 235.234711 -173.470638 
L 235.234711 -173.470638 
L 238.309091 -173.470638 
L 238.309091 -173.470638 
L 241.383471 -173.470638 
L 241.383471 -173.470638 
L 244.457851 -173.470638 
L 244.457851 -173.470638 
L 247.532231 -173.470638 
L 247.532231 -173.470638 
L 250.606612 -173.470638 
L 250.606612 -173.470638 
L 253.680992 -173.470638 
L 253.680992 -173.470638 
L 256.755372 -173.470638 
L 256.755372 -173.470638 
L 259.829752 -173.470638 
L 259.829752 -173.470638 
L 262.904132 -173.470638 
L 262.904132 -173.470638 
L 265.978512 -173.470638 
L 265.978512 -173.470638 
L 269.052893 -173.470638 
L 269.052893 -173.470638 
L 272.127273 -173.470638 
L 272.127273 -173.470638 
L 275.201653 -173.470638 
L 275.201653 -173.470638 
L 278.276033 -173.470638 
L 278.276033 -173.470638 
L 281.350413 -173.470638 
L 281.350413 -173.470638 
L 284.424793 -173.470638 
L 284.424793 -173.470638 
L 287.499174 -173.470638 
L 287.499174 -173.470638 
L 290.573554 -173.470638 
L 290.573554 -173.470638 
L 293.647934 -173.470638 
L 293.647934 -173.470638 
L 296.722314 -173.470638 
L 296.722314 -173.470638 
L 299.796694 -173.470638 
L 299.796694 -173.470638 
L 302.871074 -173.470638 
L 302.871074 -173.470638 
L 305.945455 -173.470638 
L 305.945455 -173.470638 
L 309.019835 -173.470638 
L 309.019835 -173.470638 
L 312.094215 -173.470638 
L 312.094215 -173.470638 
L 315.168595 -173.470638 
L 315.168595 -173.470638 
L 318.242975 -173.470638 
L 318.242975 -173.470638 
L 321.317355 -173.470638 
L 321.317355 -173.470638 
L 324.391736 -173.470638 
L 324.391736 -173.470638 
L 327.466116 -173.470638 
L 327.466116 -173.470638 
L 330.540496 -173.470638 
L 330.540496 -173.470638 
L 333.614876 -173.470638 
L 333.614876 -173.470638 
L 336.689256 -173.470638 
L 336.689256 -173.470638 
L 339.763636 -173.470638 
L 339.763636 -173.470638 
L 342.838017 -173.470638 
L 342.838017 -173.470638 
L 345.912397 -173.470638 
L 345.912397 -173.470638 
L 348.986777 -173.470638 
L 348.986777 -173.470638 
L 352.061157 -173.470638 
L 352.061157 -173.470638 
L 355.135537 -173.470638 
L 355.135537 -173.470638 
L 358.209917 -173.470638 
L 358.209917 -173.470638 
L 361.284298 -173.470638 
L 361.284298 -173.470638 
L 364.358678 -173.470638 
L 364.358678 -173.470638 
L 367.433058 -173.470638 
L 367.433058 -173.470638 
L 370.507438 -173.470638 
L 370.507438 -173.470638 
L 373.581818 -173.470638 
L 373.581818 -173.470638 
L 373.581818 -173.470638 
L 373.581818 -173.470638 
L 373.581818 -173.470638 
L 370.507438 -173.470638 
L 370.507438 -173.470638 
L 367.433058 -173.470638 
L 367.433058 -173.470638 
L 364.358678 -173.470638 
L 364.358678 -173.470638 
L 361.284298 -173.470638 
L 361.284298 -173.470638 
L 358.209917 -173.470638 
L 358.209917 -173.470638 
L 355.135537 -173.470638 
L 355.135537 -173.470638 
L 352.061157 -173.470638 
L 352.061157 -173.470638 
L 348.986777 -173.470638 
L 348.986777 -173.470638 
L 345.912397 -173.470638 
L 345.912397 -173.470638 
L 342.838017 -173.470638 
L 342.838017 -173.470638 
L 339.763636 -173.470638 
L 339.763636 -173.470638 
L 336.689256 -173.470638 
L 336.689256 -173.470638 
L 333.614876 -173.470638 
L 333.614876 -173.470638 
L 330.540496 -173.470638 
L 330.540496 -173.470638 
L 327.466116 -173.470638 
L 327.466116 -173.470638 
L 324.391736 -173.470638 
L 324.391736 -173.470638 
L 321.317355 -173.470638 
L 321.317355 -173.470638 
L 318.242975 -173.470638 
L 318.242975 -173.470638 
L 315.168595 -173.470638 
L 315.168595 -173.470638 
L 312.094215 -173.470638 
L 312.094215 -173.470638 
L 309.019835 -173.470638 
L 309.019835 -173.470638 
L 305.945455 -173.470638 
L 305.945455 -173.470638 
L 302.871074 -173.470638 
L 302.871074 -173.470638 
L 299.796694 -173.470638 
L 299.796694 -173.470638 
L 296.722314 -173.470638 
L 296.722314 -173.470638 
L 293.647934 -173.470638 
L 293.647934 -173.470638 
L 290.573554 -173.470638 
L 290.573554 -173.470638 
L 287.499174 -173.470638 
L 287.499174 -173.470638 
L 284.424793 -173.470638 
L 284.424793 -173.470638 
L 281.350413 -173.470638 
L 281.350413 -173.470638 
L 278.276033 -173.470638 
L 278.276033 -173.470638 
L 275.201653 -173.470638 
L 275.201653 -173.470638 
L 272.127273 -173.470638 
L 272.127273 -173.470638 
L 269.052893 -173.470638 
L 269.052893 -173.470638 
L 265.978512 -173.470638 
L 265.978512 -173.470638 
L 262.904132 -173.470638 
L 262.904132 -173.470638 
L 259.829752 -173.470638 
L 259.829752 -173.470638 
L 256.755372 -173.470638 
L 256.755372 -173.470638 
L 253.680992 -173.470638 
L 253.680992 -173.470638 
L 250.606612 -173.470638 
L 250.606612 -173.470638 
L 247.532231 -173.470638 
L 247.532231 -173.470638 
L 244.457851 -173.470638 
L 244.457851 -173.470638 
L 241.383471 -173.470638 
L 241.383471 -173.470638 
L 238.309091 -173.470638 
L 238.309091 -173.470638 
L 235.234711 -173.470638 
L 235.234711 -173.470638 
L 232.160331 -173.470638 
L 232.160331 -173.470638 
L 229.08595 -173.470638 
L 229.08595 -173.470638 
L 226.01157 -173.470638 
L 226.01157 -173.470638 
L 222.93719 -173.470638 
L 222.93719 -173.470638 
L 219.86281 -173.470638 
L 219.86281 -173.470638 
L 216.78843 -173.470638 
L 216.78843 -173.470638 
L 213.71405 -173.470638 
L 213.71405 -173.470638 
L 210.639669 -173.470638 
L 210.639669 -173.470638 
L 207.565289 -173.470638 
L 207.565289 -173.470638 
L 204.490909 -173.470638 
L 204.490909 -173.470638 
L 201.416529 -173.470638 
L 201.416529 -173.470638 
L 198.342149 -173.470638 
L 198.342149 -173.470638 
L 195.267769 -173.470638 
L 195.267769 -173.470638 
L 192.193388 -173.470638 
L 192.193388 -173.470638 
L 189.119008 -173.470638 
L 189.119008 -173.470638 
L 186.044628 -173.470638 
L 186.044628 -173.470638 
L 182.970248 -173.470638 
L 182.970248 -173.470638 
L 179.895868 -173.470638 
L 179.895868 -173.470638 
L 176.821488 -173.470638 
L 176.821488 -205.854645 
L 173.747107 -205.854645 
L 173.747107 -205.854645 
L 170.672727 -205.854645 
L 170.672727 -210.463139 
L 167.598347 -210.463139 
L 167.598347 -210.463139 
L 164.523967 -210.463139 
L 164.523967 -210.463139 
L 161.449587 -210.463139 
L 161.449587 -210.463139 
L 158.375207 -210.463139 
L 158.375207 -210.463139 
L 155.300826 -210.463139 
L 155.300826 -210.463139 
L 152.226446 -210.463139 
L 152.226446 -213.452877 
L 149.152066 -213.452877 
L 149.152066 -213.452877 
L 146.077686 -213.452877 
L 146.077686 -213.452877 
L 143.003306 -213.452877 
L 143.003306 -213.452877 
L 139.928926 -213.452877 
L 139.928926 -213.452877 
L 136.854545 -213.452877 
L 136.854545 -213.452877 
L 133.780165 -213.452877 
L 133.780165 -213.452877 
L 130.705785 -213.452877 
L 130.705785 -213.452877 
L 127.631405 -213.452877 
L 127.631405 -213.452877 
L 124.557025 -213.452877 
L 124.557025 -213.452877 
L 121.482645 -213.452877 
L 121.482645 -213.452877 
L 118.408264 -213.452877 
L 118.408264 -213.452877 
L 115.333884 -213.452877 
L 115.333884 -213.452877 
L 112.259504 -213.452877 
L 112.259504 -213.452877 
L 109.185124 -213.452877 
L 109.185124 -213.452877 
L 106.110744 -213.452877 
L 106.110744 -213.452877 
L 103.036364 -213.452877 
L 103.036364 -213.452877 
L 99.961983 -213.452877 
L 99.961983 -213.452877 
L 96.887603 -213.452877 
L 96.887603 -213.452877 
L 93.813223 -213.452877 
L 93.813223 -213.452877 
L 90.738843 -213.452877 
L 90.738843 -243.556364 
L 87.664463 -243.556364 
L 87.664463 -243.556364 
L 84.590083 -243.556364 
L 84.590083 -243.556364 
L 81.515702 -243.556364 
L 81.515702 -243.556364 
L 78.441322 -243.556364 
L 78.441322 -243.556364 
L 75.366942 -243.556364 
L 75.366942 -243.556364 
L 72.292562 -243.556364 
L 72.292562 -243.556364 
L 69.218182 -243.556364 
z
" id="md90dd58b12" style="stroke:#ff8c00;stroke-opacity:0.5;"/>
    </defs>
    <g clip-path="url(#p87b88e8bcf)">
     <use style="fill:#ff8c00;fill-opacity:0.5;stroke:#ff8c00;stroke-opacity:0.5;" x="0" xlink:href="#md90dd58b12" y="288"/>
    </g>
   </g>
   <g id="PolyCollection_2">
    <defs>
     <path d="M 69.218182 -243.556364 
L 69.218182 -243.556364 
L 72.292562 -243.556364 
L 72.292562 -235.808322 
L 75.366942 -235.808322 
L 75.366942 -235.808322 
L 78.441322 -235.808322 
L 78.441322 -228.255715 
L 81.515702 -228.255715 
L 81.515702 -228.255715 
L 84.590083 -228.255715 
L 84.590083 -140.069195 
L 87.664463 -140.069195 
L 87.664463 -140.069195 
L 90.738843 -140.069195 
L 90.738843 -140.069195 
L 93.813223 -140.069195 
L 93.813223 -140.069195 
L 96.887603 -140.069195 
L 96.887603 -140.037456 
L 99.961983 -140.037456 
L 99.961983 -140.037456 
L 103.036364 -140.037456 
L 103.036364 -140.037456 
L 106.110744 -140.037456 
L 106.110744 -140.037456 
L 109.185124 -140.037456 
L 109.185124 -140.037456 
L 112.259504 -140.037456 
L 112.259504 -140.037456 
L 115.333884 -140.037456 
L 115.333884 -140.037456 
L 118.408264 -140.037456 
L 118.408264 -140.037456 
L 121.482645 -140.037456 
L 121.482645 -140.037456 
L 124.557025 -140.037456 
L 124.557025 -140.037456 
L 127.631405 -140.037456 
L 127.631405 -140.037456 
L 130.705785 -140.037456 
L 130.705785 -140.037456 
L 133.780165 -140.037456 
L 133.780165 -140.015863 
L 136.854545 -140.015863 
L 136.854545 -61.611488 
L 139.928926 -61.611488 
L 139.928926 -61.611488 
L 143.003306 -61.611488 
L 143.003306 -61.611488 
L 146.077686 -61.611488 
L 146.077686 -61.611488 
L 149.152066 -61.611488 
L 149.152066 -54.148004 
L 152.226446 -54.148004 
L 152.226446 -54.148004 
L 155.300826 -54.148004 
L 155.300826 -54.148004 
L 158.375207 -54.148004 
L 158.375207 -54.148004 
L 161.449587 -54.148004 
L 161.449587 -54.148004 
L 164.523967 -54.148004 
L 164.523967 -54.148004 
L 167.598347 -54.148004 
L 167.598347 -54.148004 
L 170.672727 -54.148004 
L 170.672727 -54.148004 
L 173.747107 -54.148004 
L 173.747107 -54.148004 
L 176.821488 -54.148004 
L 176.821488 -54.148004 
L 179.895868 -54.148004 
L 179.895868 -54.148004 
L 182.970248 -54.148004 
L 182.970248 -49.888094 
L 186.044628 -49.888094 
L 186.044628 -49.888094 
L 189.119008 -49.888094 
L 189.119008 -49.888094 
L 192.193388 -49.888094 
L 192.193388 -49.888094 
L 195.267769 -49.888094 
L 195.267769 -49.888094 
L 198.342149 -49.888094 
L 198.342149 -49.888094 
L 201.416529 -49.888094 
L 201.416529 -49.888094 
L 204.490909 -49.888094 
L 204.490909 -49.888094 
L 207.565289 -49.888094 
L 207.565289 -49.888094 
L 210.639669 -49.888094 
L 210.639669 -49.888094 
L 213.71405 -49.888094 
L 213.71405 -49.888094 
L 216.78843 -49.888094 
L 216.78843 -49.888094 
L 219.86281 -49.888094 
L 219.86281 -49.888094 
L 222.93719 -49.888094 
L 222.93719 -49.888094 
L 226.01157 -49.888094 
L 226.01157 -49.888094 
L 229.08595 -49.888094 
L 229.08595 -49.888094 
L 232.160331 -49.888094 
L 232.160331 -49.888094 
L 235.234711 -49.888094 
L 235.234711 -49.888094 
L 238.309091 -49.888094 
L 238.309091 -49.888094 
L 241.383471 -49.888094 
L 241.383471 -49.888094 
L 244.457851 -49.888094 
L 244.457851 -49.888094 
L 247.532231 -49.888094 
L 247.532231 -49.888094 
L 250.606612 -49.888094 
L 250.606612 -49.888094 
L 253.680992 -49.888094 
L 253.680992 -49.888094 
L 256.755372 -49.888094 
L 256.755372 -49.888094 
L 259.829752 -49.888094 
L 259.829752 -49.888094 
L 262.904132 -49.888094 
L 262.904132 -49.888094 
L 265.978512 -49.888094 
L 265.978512 -49.888094 
L 269.052893 -49.888094 
L 269.052893 -49.888094 
L 272.127273 -49.888094 
L 272.127273 -49.888094 
L 275.201653 -49.888094 
L 275.201653 -49.888094 
L 278.276033 -49.888094 
L 278.276033 -49.888094 
L 281.350413 -49.888094 
L 281.350413 -49.888094 
L 284.424793 -49.888094 
L 284.424793 -49.888094 
L 287.499174 -49.888094 
L 287.499174 -49.888094 
L 290.573554 -49.888094 
L 290.573554 -49.888094 
L 293.647934 -49.888094 
L 293.647934 -49.888094 
L 296.722314 -49.888094 
L 296.722314 -49.888094 
L 299.796694 -49.888094 
L 299.796694 -49.888094 
L 302.871074 -49.888094 
L 302.871074 -49.888094 
L 305.945455 -49.888094 
L 305.945455 -49.888094 
L 309.019835 -49.888094 
L 309.019835 -49.888094 
L 312.094215 -49.888094 
L 312.094215 -49.888094 
L 315.168595 -49.888094 
L 315.168595 -49.888094 
L 318.242975 -49.888094 
L 318.242975 -49.888094 
L 321.317355 -49.888094 
L 321.317355 -49.888094 
L 324.391736 -49.888094 
L 324.391736 -49.888094 
L 327.466116 -49.888094 
L 327.466116 -49.888094 
L 330.540496 -49.888094 
L 330.540496 -49.888094 
L 333.614876 -49.888094 
L 333.614876 -49.888094 
L 336.689256 -49.888094 
L 336.689256 -49.888094 
L 339.763636 -49.888094 
L 339.763636 -49.888094 
L 342.838017 -49.888094 
L 342.838017 -49.888094 
L 345.912397 -49.888094 
L 345.912397 -49.888094 
L 348.986777 -49.888094 
L 348.986777 -45.883636 
L 352.061157 -45.883636 
L 352.061157 -45.883636 
L 355.135537 -45.883636 
L 355.135537 -45.883636 
L 358.209917 -45.883636 
L 358.209917 -45.883636 
L 361.284298 -45.883636 
L 361.284298 -45.883636 
L 364.358678 -45.883636 
L 364.358678 -45.883636 
L 367.433058 -45.883636 
L 367.433058 -45.883636 
L 370.507438 -45.883636 
L 370.507438 -45.883636 
L 373.581818 -45.883636 
L 373.581818 -45.883636 
L 373.581818 -202.692994 
L 373.581818 -202.692994 
L 373.581818 -202.692994 
L 370.507438 -202.692994 
L 370.507438 -202.692994 
L 367.433058 -202.692994 
L 367.433058 -210.054225 
L 364.358678 -210.054225 
L 364.358678 -210.054225 
L 361.284298 -210.054225 
L 361.284298 -210.054225 
L 358.209917 -210.054225 
L 358.209917 -210.054225 
L 355.135537 -210.054225 
L 355.135537 -210.054225 
L 352.061157 -210.054225 
L 352.061157 -210.054225 
L 348.986777 -210.054225 
L 348.986777 -214.199242 
L 345.912397 -214.199242 
L 345.912397 -214.199242 
L 342.838017 -214.199242 
L 342.838017 -214.199242 
L 339.763636 -214.199242 
L 339.763636 -214.199242 
L 336.689256 -214.199242 
L 336.689256 -214.199242 
L 333.614876 -214.199242 
L 333.614876 -214.199242 
L 330.540496 -214.199242 
L 330.540496 -214.199242 
L 327.466116 -214.199242 
L 327.466116 -214.199242 
L 324.391736 -214.199242 
L 324.391736 -214.199242 
L 321.317355 -214.199242 
L 321.317355 -214.199242 
L 318.242975 -214.199242 
L 318.242975 -214.199242 
L 315.168595 -214.199242 
L 315.168595 -214.199242 
L 312.094215 -214.199242 
L 312.094215 -214.199242 
L 309.019835 -214.199242 
L 309.019835 -214.199242 
L 305.945455 -214.199242 
L 305.945455 -214.199242 
L 302.871074 -214.199242 
L 302.871074 -214.199242 
L 299.796694 -214.199242 
L 299.796694 -214.199244 
L 296.722314 -214.199244 
L 296.722314 -214.199244 
L 293.647934 -214.199244 
L 293.647934 -214.199244 
L 290.573554 -214.199244 
L 290.573554 -214.199244 
L 287.499174 -214.199244 
L 287.499174 -214.199244 
L 284.424793 -214.199244 
L 284.424793 -214.199244 
L 281.350413 -214.199244 
L 281.350413 -214.199244 
L 278.276033 -214.199244 
L 278.276033 -214.199244 
L 275.201653 -214.199244 
L 275.201653 -214.199244 
L 272.127273 -214.199244 
L 272.127273 -214.199244 
L 269.052893 -214.199244 
L 269.052893 -214.199244 
L 265.978512 -214.199244 
L 265.978512 -214.199244 
L 262.904132 -214.199244 
L 262.904132 -214.199244 
L 259.829752 -214.199244 
L 259.829752 -214.199244 
L 256.755372 -214.199244 
L 256.755372 -214.199244 
L 253.680992 -214.199244 
L 253.680992 -214.199244 
L 250.606612 -214.199244 
L 250.606612 -214.199244 
L 247.532231 -214.199244 
L 247.532231 -214.199244 
L 244.457851 -214.199244 
L 244.457851 -214.199244 
L 241.383471 -214.199244 
L 241.383471 -214.199244 
L 238.309091 -214.199244 
L 238.309091 -214.199244 
L 235.234711 -214.199244 
L 235.234711 -214.199244 
L 232.160331 -214.199244 
L 232.160331 -218.268603 
L 229.08595 -218.268603 
L 229.08595 -218.268603 
L 226.01157 -218.268603 
L 226.01157 -218.268603 
L 222.93719 -218.268603 
L 222.93719 -218.268603 
L 219.86281 -218.268603 
L 219.86281 -218.268603 
L 216.78843 -218.268603 
L 216.78843 -218.268603 
L 213.71405 -218.268603 
L 213.71405 -218.268603 
L 210.639669 -218.268603 
L 210.639669 -218.268603 
L 207.565289 -218.268603 
L 207.565289 -228.570227 
L 204.490909 -228.570227 
L 204.490909 -228.570227 
L 201.416529 -228.570227 
L 201.416529 -228.570227 
L 198.342149 -228.570227 
L 198.342149 -228.570227 
L 195.267769 -228.570227 
L 195.267769 -228.570227 
L 192.193388 -228.570227 
L 192.193388 -228.570227 
L 189.119008 -228.570227 
L 189.119008 -228.570227 
L 186.044628 -228.570227 
L 186.044628 -228.570227 
L 182.970248 -228.570227 
L 182.970248 -228.979689 
L 179.895868 -228.979689 
L 179.895868 -228.979689 
L 176.821488 -228.979689 
L 176.821488 -228.979689 
L 173.747107 -228.979689 
L 173.747107 -228.979689 
L 170.672727 -228.979689 
L 170.672727 -232.498886 
L 167.598347 -232.498886 
L 167.598347 -232.498886 
L 164.523967 -232.498886 
L 164.523967 -232.498886 
L 161.449587 -232.498886 
L 161.449587 -232.498886 
L 158.375207 -232.498886 
L 158.375207 -232.498886 
L 155.300826 -232.498886 
L 155.300826 -232.498886 
L 152.226446 -232.498886 
L 152.226446 -232.498886 
L 149.152066 -232.498886 
L 149.152066 -232.498886 
L 146.077686 -232.498886 
L 146.077686 -233.024582 
L 143.003306 -233.024582 
L 143.003306 -233.024582 
L 139.928926 -233.024582 
L 139.928926 -233.024582 
L 136.854545 -233.024582 
L 136.854545 -235.983018 
L 133.780165 -235.983018 
L 133.780165 -235.983095 
L 130.705785 -235.983095 
L 130.705785 -235.983095 
L 127.631405 -235.983095 
L 127.631405 -235.983095 
L 124.557025 -235.983095 
L 124.557025 -235.983095 
L 121.482645 -235.983095 
L 121.482645 -235.983095 
L 118.408264 -235.983095 
L 118.408264 -239.20563 
L 115.333884 -239.20563 
L 115.333884 -239.20563 
L 112.259504 -239.20563 
L 112.259504 -239.20563 
L 109.185124 -239.20563 
L 109.185124 -242.301773 
L 106.110744 -242.301773 
L 106.110744 -242.301773 
L 103.036364 -242.301773 
L 103.036364 -243.556364 
L 99.961983 -243.556364 
L 99.961983 -243.556364 
L 96.887603 -243.556364 
L 96.887603 -243.556364 
L 93.813223 -243.556364 
L 93.813223 -243.556364 
L 90.738843 -243.556364 
L 90.738843 -243.556364 
L 87.664463 -243.556364 
L 87.664463 -243.556364 
L 84.590083 -243.556364 
L 84.590083 -243.556364 
L 81.515702 -243.556364 
L 81.515702 -243.556364 
L 78.441322 -243.556364 
L 78.441322 -243.556364 
L 75.366942 -243.556364 
L 75.366942 -243.556364 
L 72.292562 -243.556364 
L 72.292562 -243.556364 
L 69.218182 -243.556364 
z
" id="m9c8979ad35" style="stroke:#ff0000;stroke-opacity:0.5;"/>
    </defs>
    <g clip-path="url(#p87b88e8bcf)">
     <use style="fill:#ff0000;fill-opacity:0.5;stroke:#ff0000;stroke-opacity:0.5;" x="0" xlink:href="#m9c8979ad35" y="288"/>
    </g>
   </g>
   <g id="PolyCollection_3">
    <defs>
     <path d="M 69.218182 -243.556364 
L 69.218182 -243.556364 
L 72.292562 -243.556364 
L 72.292562 -243.556364 
L 75.366942 -243.556364 
L 75.366942 -243.556364 
L 78.441322 -243.556364 
L 78.441322 -243.556364 
L 81.515702 -243.556364 
L 81.515702 -243.556364 
L 84.590083 -243.556364 
L 84.590083 -243.556364 
L 87.664463 -243.556364 
L 87.664463 -243.556364 
L 90.738843 -243.556364 
L 90.738843 -243.556364 
L 93.813223 -243.556364 
L 93.813223 -243.556364 
L 96.887603 -243.556364 
L 96.887603 -243.556364 
L 99.961983 -243.556364 
L 99.961983 -243.556364 
L 103.036364 -243.556364 
L 103.036364 -243.556364 
L 106.110744 -243.556364 
L 106.110744 -243.556364 
L 109.185124 -243.556364 
L 109.185124 -243.556364 
L 112.259504 -243.556364 
L 112.259504 -243.556364 
L 115.333884 -243.556364 
L 115.333884 -243.556364 
L 118.408264 -243.556364 
L 118.408264 -243.556364 
L 121.482645 -243.556364 
L 121.482645 -243.556364 
L 124.557025 -243.556364 
L 124.557025 -243.556364 
L 127.631405 -243.556364 
L 127.631405 -243.556364 
L 130.705785 -243.556364 
L 130.705785 -243.556364 
L 133.780165 -243.556364 
L 133.780165 -243.556364 
L 136.854545 -243.556364 
L 136.854545 -243.556364 
L 139.928926 -243.556364 
L 139.928926 -243.556364 
L 143.003306 -243.556364 
L 143.003306 -243.556364 
L 146.077686 -243.556364 
L 146.077686 -243.556364 
L 149.152066 -243.556364 
L 149.152066 -243.556364 
L 152.226446 -243.556364 
L 152.226446 -243.556364 
L 155.300826 -243.556364 
L 155.300826 -243.556364 
L 158.375207 -243.556364 
L 158.375207 -243.556364 
L 161.449587 -243.556364 
L 161.449587 -243.556364 
L 164.523967 -243.556364 
L 164.523967 -243.556364 
L 167.598347 -243.556364 
L 167.598347 -243.556364 
L 170.672727 -243.556364 
L 170.672727 -243.556364 
L 173.747107 -243.556364 
L 173.747107 -243.556364 
L 176.821488 -243.556364 
L 176.821488 -243.556364 
L 179.895868 -243.556364 
L 179.895868 -243.556364 
L 182.970248 -243.556364 
L 182.970248 -243.556364 
L 186.044628 -243.556364 
L 186.044628 -243.556364 
L 189.119008 -243.556364 
L 189.119008 -243.556364 
L 192.193388 -243.556364 
L 192.193388 -243.556364 
L 195.267769 -243.556364 
L 195.267769 -243.556364 
L 198.342149 -243.556364 
L 198.342149 -243.556364 
L 201.416529 -243.556364 
L 201.416529 -243.556364 
L 204.490909 -243.556364 
L 204.490909 -243.556364 
L 207.565289 -243.556364 
L 207.565289 -243.556364 
L 210.639669 -243.556364 
L 210.639669 -243.556364 
L 213.71405 -243.556364 
L 213.71405 -243.556364 
L 216.78843 -243.556364 
L 216.78843 -243.556364 
L 219.86281 -243.556364 
L 219.86281 -243.556364 
L 222.93719 -243.556364 
L 222.93719 -243.556364 
L 226.01157 -243.556364 
L 226.01157 -243.556364 
L 229.08595 -243.556364 
L 229.08595 -243.556364 
L 232.160331 -243.556364 
L 232.160331 -243.556364 
L 235.234711 -243.556364 
L 235.234711 -243.556364 
L 238.309091 -243.556364 
L 238.309091 -243.556364 
L 241.383471 -243.556364 
L 241.383471 -243.556364 
L 244.457851 -243.556364 
L 244.457851 -243.556364 
L 247.532231 -243.556364 
L 247.532231 -243.556364 
L 250.606612 -243.556364 
L 250.606612 -243.556364 
L 253.680992 -243.556364 
L 253.680992 -243.556364 
L 256.755372 -243.556364 
L 256.755372 -243.556364 
L 259.829752 -243.556364 
L 259.829752 -243.556364 
L 262.904132 -243.556364 
L 262.904132 -243.556364 
L 265.978512 -243.556364 
L 265.978512 -243.556364 
L 269.052893 -243.556364 
L 269.052893 -243.556364 
L 272.127273 -243.556364 
L 272.127273 -243.556364 
L 275.201653 -243.556364 
L 275.201653 -243.556364 
L 278.276033 -243.556364 
L 278.276033 -243.556364 
L 281.350413 -243.556364 
L 281.350413 -243.556364 
L 284.424793 -243.556364 
L 284.424793 -243.556364 
L 287.499174 -243.556364 
L 287.499174 -243.556364 
L 290.573554 -243.556364 
L 290.573554 -243.556364 
L 293.647934 -243.556364 
L 293.647934 -243.556364 
L 296.722314 -243.556364 
L 296.722314 -243.556364 
L 299.796694 -243.556364 
L 299.796694 -243.556364 
L 302.871074 -243.556364 
L 302.871074 -243.556364 
L 305.945455 -243.556364 
L 305.945455 -243.556364 
L 309.019835 -243.556364 
L 309.019835 -243.556364 
L 312.094215 -243.556364 
L 312.094215 -243.556364 
L 315.168595 -243.556364 
L 315.168595 -243.556364 
L 318.242975 -243.556364 
L 318.242975 -243.556364 
L 321.317355 -243.556364 
L 321.317355 -243.556364 
L 324.391736 -243.556364 
L 324.391736 -243.556364 
L 327.466116 -243.556364 
L 327.466116 -243.556364 
L 330.540496 -243.556364 
L 330.540496 -243.556364 
L 333.614876 -243.556364 
L 333.614876 -243.556364 
L 336.689256 -243.556364 
L 336.689256 -243.556364 
L 339.763636 -243.556364 
L 339.763636 -243.556364 
L 342.838017 -243.556364 
L 342.838017 -243.556364 
L 345.912397 -243.556364 
L 345.912397 -243.556364 
L 348.986777 -243.556364 
L 348.986777 -243.556364 
L 352.061157 -243.556364 
L 352.061157 -243.556364 
L 355.135537 -243.556364 
L 355.135537 -243.556364 
L 358.209917 -243.556364 
L 358.209917 -243.556364 
L 361.284298 -243.556364 
L 361.284298 -243.556364 
L 364.358678 -243.556364 
L 364.358678 -243.556364 
L 367.433058 -243.556364 
L 367.433058 -243.556364 
L 370.507438 -243.556364 
L 370.507438 -243.556364 
L 373.581818 -243.556364 
L 373.581818 -243.556364 
L 373.581818 -243.556364 
L 373.581818 -243.556364 
L 373.581818 -243.556364 
L 370.507438 -243.556364 
L 370.507438 -243.556364 
L 367.433058 -243.556364 
L 367.433058 -243.556364 
L 364.358678 -243.556364 
L 364.358678 -243.556364 
L 361.284298 -243.556364 
L 361.284298 -243.556364 
L 358.209917 -243.556364 
L 358.209917 -243.556364 
L 355.135537 -243.556364 
L 355.135537 -243.556364 
L 352.061157 -243.556364 
L 352.061157 -243.556364 
L 348.986777 -243.556364 
L 348.986777 -243.556364 
L 345.912397 -243.556364 
L 345.912397 -243.556364 
L 342.838017 -243.556364 
L 342.838017 -243.556364 
L 339.763636 -243.556364 
L 339.763636 -243.556364 
L 336.689256 -243.556364 
L 336.689256 -243.556364 
L 333.614876 -243.556364 
L 333.614876 -243.556364 
L 330.540496 -243.556364 
L 330.540496 -243.556364 
L 327.466116 -243.556364 
L 327.466116 -243.556364 
L 324.391736 -243.556364 
L 324.391736 -243.556364 
L 321.317355 -243.556364 
L 321.317355 -243.556364 
L 318.242975 -243.556364 
L 318.242975 -243.556364 
L 315.168595 -243.556364 
L 315.168595 -243.556364 
L 312.094215 -243.556364 
L 312.094215 -243.556364 
L 309.019835 -243.556364 
L 309.019835 -243.556364 
L 305.945455 -243.556364 
L 305.945455 -243.556364 
L 302.871074 -243.556364 
L 302.871074 -243.556364 
L 299.796694 -243.556364 
L 299.796694 -243.556364 
L 296.722314 -243.556364 
L 296.722314 -243.556364 
L 293.647934 -243.556364 
L 293.647934 -243.556364 
L 290.573554 -243.556364 
L 290.573554 -243.556364 
L 287.499174 -243.556364 
L 287.499174 -243.556364 
L 284.424793 -243.556364 
L 284.424793 -243.556364 
L 281.350413 -243.556364 
L 281.350413 -243.556364 
L 278.276033 -243.556364 
L 278.276033 -243.556364 
L 275.201653 -243.556364 
L 275.201653 -243.556364 
L 272.127273 -243.556364 
L 272.127273 -243.556364 
L 269.052893 -243.556364 
L 269.052893 -243.556364 
L 265.978512 -243.556364 
L 265.978512 -243.556364 
L 262.904132 -243.556364 
L 262.904132 -243.556364 
L 259.829752 -243.556364 
L 259.829752 -243.556364 
L 256.755372 -243.556364 
L 256.755372 -243.556364 
L 253.680992 -243.556364 
L 253.680992 -243.556364 
L 250.606612 -243.556364 
L 250.606612 -243.556364 
L 247.532231 -243.556364 
L 247.532231 -243.556364 
L 244.457851 -243.556364 
L 244.457851 -243.556364 
L 241.383471 -243.556364 
L 241.383471 -243.556364 
L 238.309091 -243.556364 
L 238.309091 -243.556364 
L 235.234711 -243.556364 
L 235.234711 -243.556364 
L 232.160331 -243.556364 
L 232.160331 -243.556364 
L 229.08595 -243.556364 
L 229.08595 -243.556364 
L 226.01157 -243.556364 
L 226.01157 -243.556364 
L 222.93719 -243.556364 
L 222.93719 -243.556364 
L 219.86281 -243.556364 
L 219.86281 -243.556364 
L 216.78843 -243.556364 
L 216.78843 -243.556364 
L 213.71405 -243.556364 
L 213.71405 -243.556364 
L 210.639669 -243.556364 
L 210.639669 -243.556364 
L 207.565289 -243.556364 
L 207.565289 -243.556364 
L 204.490909 -243.556364 
L 204.490909 -243.556364 
L 201.416529 -243.556364 
L 201.416529 -243.556364 
L 198.342149 -243.556364 
L 198.342149 -243.556364 
L 195.267769 -243.556364 
L 195.267769 -243.556364 
L 192.193388 -243.556364 
L 192.193388 -243.556364 
L 189.119008 -243.556364 
L 189.119008 -243.556364 
L 186.044628 -243.556364 
L 186.044628 -243.556364 
L 182.970248 -243.556364 
L 182.970248 -243.556364 
L 179.895868 -243.556364 
L 179.895868 -243.556364 
L 176.821488 -243.556364 
L 176.821488 -243.556364 
L 173.747107 -243.556364 
L 173.747107 -243.556364 
L 170.672727 -243.556364 
L 170.672727 -243.556364 
L 167.598347 -243.556364 
L 167.598347 -243.556364 
L 164.523967 -243.556364 
L 164.523967 -243.556364 
L 161.449587 -243.556364 
L 161.449587 -243.556364 
L 158.375207 -243.556364 
L 158.375207 -243.556364 
L 155.300826 -243.556364 
L 155.300826 -243.556364 
L 152.226446 -243.556364 
L 152.226446 -243.556364 
L 149.152066 -243.556364 
L 149.152066 -243.556364 
L 146.077686 -243.556364 
L 146.077686 -243.556364 
L 143.003306 -243.556364 
L 143.003306 -243.556364 
L 139.928926 -243.556364 
L 139.928926 -243.556364 
L 136.854545 -243.556364 
L 136.854545 -243.556364 
L 133.780165 -243.556364 
L 133.780165 -243.556364 
L 130.705785 -243.556364 
L 130.705785 -243.556364 
L 127.631405 -243.556364 
L 127.631405 -243.556364 
L 124.557025 -243.556364 
L 124.557025 -243.556364 
L 121.482645 -243.556364 
L 121.482645 -243.556364 
L 118.408264 -243.556364 
L 118.408264 -243.556364 
L 115.333884 -243.556364 
L 115.333884 -243.556364 
L 112.259504 -243.556364 
L 112.259504 -243.556364 
L 109.185124 -243.556364 
L 109.185124 -243.556364 
L 106.110744 -243.556364 
L 106.110744 -243.556364 
L 103.036364 -243.556364 
L 103.036364 -243.556364 
L 99.961983 -243.556364 
L 99.961983 -243.556364 
L 96.887603 -243.556364 
L 96.887603 -243.556364 
L 93.813223 -243.556364 
L 93.813223 -243.556364 
L 90.738843 -243.556364 
L 90.738843 -243.556364 
L 87.664463 -243.556364 
L 87.664463 -243.556364 
L 84.590083 -243.556364 
L 84.590083 -243.556364 
L 81.515702 -243.556364 
L 81.515702 -243.556364 
L 78.441322 -243.556364 
L 78.441322 -243.556364 
L 75.366942 -243.556364 
L 75.366942 -243.556364 
L 72.292562 -243.556364 
L 72.292562 -243.556364 
L 69.218182 -243.556364 
z
" id="m0f02a46a03" style="stroke:#9400d3;stroke-opacity:0.5;"/>
    </defs>
    <g clip-path="url(#p87b88e8bcf)">
     <use style="fill:#9400d3;fill-opacity:0.5;stroke:#9400d3;stroke-opacity:0.5;" x="0" xlink:href="#m0f02a46a03" y="288"/>
    </g>
   </g>
   <g id="PolyCollection_4">
    <defs>
     <path d="M 69.218182 -243.556364 
L 69.218182 -243.556364 
L 72.292562 -243.556364 
L 72.292562 -243.556364 
L 75.366942 -243.556364 
L 75.366942 -243.556364 
L 78.441322 -243.556364 
L 78.441322 -235.328906 
L 81.515702 -235.328906 
L 81.515702 -235.328906 
L 84.590083 -235.328906 
L 84.590083 -235.328906 
L 87.664463 -235.328906 
L 87.664463 -235.328906 
L 90.738843 -235.328906 
L 90.738843 -235.328906 
L 93.813223 -235.328906 
L 93.813223 -235.328906 
L 96.887603 -235.328906 
L 96.887603 -235.328906 
L 99.961983 -235.328906 
L 99.961983 -225.301074 
L 103.036364 -225.301074 
L 103.036364 -225.301074 
L 106.110744 -225.301074 
L 106.110744 -221.782509 
L 109.185124 -221.782509 
L 109.185124 -221.782509 
L 112.259504 -221.782509 
L 112.259504 -221.782509 
L 115.333884 -221.782509 
L 115.333884 -212.787711 
L 118.408264 -212.787711 
L 118.408264 -212.787711 
L 121.482645 -212.787711 
L 121.482645 -212.787711 
L 124.557025 -212.787711 
L 124.557025 -212.787711 
L 127.631405 -212.787711 
L 127.631405 -212.787711 
L 130.705785 -212.787711 
L 130.705785 -212.787711 
L 133.780165 -212.787711 
L 133.780165 -212.787711 
L 136.854545 -212.787711 
L 136.854545 -212.787711 
L 139.928926 -212.787711 
L 139.928926 -212.787711 
L 143.003306 -212.787711 
L 143.003306 -212.787711 
L 146.077686 -212.787711 
L 146.077686 -212.787711 
L 149.152066 -212.787711 
L 149.152066 -212.787711 
L 152.226446 -212.787711 
L 152.226446 -212.787711 
L 155.300826 -212.787711 
L 155.300826 -212.787711 
L 158.375207 -212.787711 
L 158.375207 -212.787711 
L 161.449587 -212.787711 
L 161.449587 -212.787711 
L 164.523967 -212.787711 
L 164.523967 -212.787711 
L 167.598347 -212.787711 
L 167.598347 -212.787711 
L 170.672727 -212.787711 
L 170.672727 -212.787711 
L 173.747107 -212.787711 
L 173.747107 -212.787711 
L 176.821488 -212.787711 
L 176.821488 -212.787711 
L 179.895868 -212.787711 
L 179.895868 -212.787711 
L 182.970248 -212.787711 
L 182.970248 -212.787711 
L 186.044628 -212.787711 
L 186.044628 -212.787711 
L 189.119008 -212.787711 
L 189.119008 -212.787711 
L 192.193388 -212.787711 
L 192.193388 -212.787711 
L 195.267769 -212.787711 
L 195.267769 -212.787711 
L 198.342149 -212.787711 
L 198.342149 -199.709372 
L 201.416529 -199.709372 
L 201.416529 -199.709372 
L 204.490909 -199.709372 
L 204.490909 -199.709372 
L 207.565289 -199.709372 
L 207.565289 -199.709372 
L 210.639669 -199.709372 
L 210.639669 -199.709372 
L 213.71405 -199.709372 
L 213.71405 -199.709372 
L 216.78843 -199.709372 
L 216.78843 -199.709372 
L 219.86281 -199.709372 
L 219.86281 -199.709372 
L 222.93719 -199.709372 
L 222.93719 -199.709372 
L 226.01157 -199.709372 
L 226.01157 -199.709372 
L 229.08595 -199.709372 
L 229.08595 -199.709372 
L 232.160331 -199.709372 
L 232.160331 -199.709372 
L 235.234711 -199.709372 
L 235.234711 -199.709372 
L 238.309091 -199.709372 
L 238.309091 -194.94314 
L 241.383471 -194.94314 
L 241.383471 -194.94314 
L 244.457851 -194.94314 
L 244.457851 -194.94314 
L 247.532231 -194.94314 
L 247.532231 -194.94314 
L 250.606612 -194.94314 
L 250.606612 -194.94314 
L 253.680992 -194.94314 
L 253.680992 -194.94314 
L 256.755372 -194.94314 
L 256.755372 -194.94314 
L 259.829752 -194.94314 
L 259.829752 -194.94314 
L 262.904132 -194.94314 
L 262.904132 -194.94314 
L 265.978512 -194.94314 
L 265.978512 -178.404442 
L 269.052893 -178.404442 
L 269.052893 -178.404442 
L 272.127273 -178.404442 
L 272.127273 -178.404442 
L 275.201653 -178.404442 
L 275.201653 -178.404442 
L 278.276033 -178.404442 
L 278.276033 -178.404442 
L 281.350413 -178.404442 
L 281.350413 -178.404442 
L 284.424793 -178.404442 
L 284.424793 -178.404442 
L 287.499174 -178.404442 
L 287.499174 -178.404442 
L 290.573554 -178.404442 
L 290.573554 -178.404442 
L 293.647934 -178.404442 
L 293.647934 -178.404442 
L 296.722314 -178.404442 
L 296.722314 -178.404442 
L 299.796694 -178.404442 
L 299.796694 -178.404442 
L 302.871074 -178.404442 
L 302.871074 -166.104722 
L 305.945455 -166.104722 
L 305.945455 -166.104722 
L 309.019835 -166.104722 
L 309.019835 -166.104722 
L 312.094215 -166.104722 
L 312.094215 -166.104722 
L 315.168595 -166.104722 
L 315.168595 -166.104722 
L 318.242975 -166.104722 
L 318.242975 -166.104722 
L 321.317355 -166.104722 
L 321.317355 -166.104722 
L 324.391736 -166.104722 
L 324.391736 -166.104722 
L 327.466116 -166.104722 
L 327.466116 -166.104722 
L 330.540496 -166.104722 
L 330.540496 -166.104722 
L 333.614876 -166.104722 
L 333.614876 -166.104722 
L 336.689256 -166.104722 
L 336.689256 -166.104722 
L 339.763636 -166.104722 
L 339.763636 -153.414996 
L 342.838017 -153.414996 
L 342.838017 -153.414996 
L 345.912397 -153.414996 
L 345.912397 -153.414996 
L 348.986777 -153.414996 
L 348.986777 -153.414996 
L 352.061157 -153.414996 
L 352.061157 -153.414996 
L 355.135537 -153.414996 
L 355.135537 -153.414996 
L 358.209917 -153.414996 
L 358.209917 -153.414996 
L 361.284298 -153.414996 
L 361.284298 -153.414996 
L 364.358678 -153.414996 
L 364.358678 -153.414996 
L 367.433058 -153.414996 
L 367.433058 -153.414996 
L 370.507438 -153.414996 
L 370.507438 -153.414996 
L 373.581818 -153.414996 
L 373.581818 -153.414996 
L 373.581818 -243.556364 
L 373.581818 -243.556364 
L 373.581818 -243.556364 
L 370.507438 -243.556364 
L 370.507438 -243.556364 
L 367.433058 -243.556364 
L 367.433058 -243.556364 
L 364.358678 -243.556364 
L 364.358678 -243.556364 
L 361.284298 -243.556364 
L 361.284298 -243.556364 
L 358.209917 -243.556364 
L 358.209917 -243.556364 
L 355.135537 -243.556364 
L 355.135537 -243.556364 
L 352.061157 -243.556364 
L 352.061157 -243.556364 
L 348.986777 -243.556364 
L 348.986777 -243.556364 
L 345.912397 -243.556364 
L 345.912397 -243.556364 
L 342.838017 -243.556364 
L 342.838017 -243.556364 
L 339.763636 -243.556364 
L 339.763636 -243.556364 
L 336.689256 -243.556364 
L 336.689256 -243.556364 
L 333.614876 -243.556364 
L 333.614876 -243.556364 
L 330.540496 -243.556364 
L 330.540496 -243.556364 
L 327.466116 -243.556364 
L 327.466116 -243.556364 
L 324.391736 -243.556364 
L 324.391736 -243.556364 
L 321.317355 -243.556364 
L 321.317355 -243.556364 
L 318.242975 -243.556364 
L 318.242975 -243.556364 
L 315.168595 -243.556364 
L 315.168595 -243.556364 
L 312.094215 -243.556364 
L 312.094215 -243.556364 
L 309.019835 -243.556364 
L 309.019835 -243.556364 
L 305.945455 -243.556364 
L 305.945455 -243.556364 
L 302.871074 -243.556364 
L 302.871074 -243.556364 
L 299.796694 -243.556364 
L 299.796694 -243.556364 
L 296.722314 -243.556364 
L 296.722314 -243.556364 
L 293.647934 -243.556364 
L 293.647934 -243.556364 
L 290.573554 -243.556364 
L 290.573554 -243.556364 
L 287.499174 -243.556364 
L 287.499174 -243.556364 
L 284.424793 -243.556364 
L 284.424793 -243.556364 
L 281.350413 -243.556364 
L 281.350413 -243.556364 
L 278.276033 -243.556364 
L 278.276033 -243.556364 
L 275.201653 -243.556364 
L 275.201653 -243.556364 
L 272.127273 -243.556364 
L 272.127273 -243.556364 
L 269.052893 -243.556364 
L 269.052893 -243.556364 
L 265.978512 -243.556364 
L 265.978512 -243.556364 
L 262.904132 -243.556364 
L 262.904132 -243.556364 
L 259.829752 -243.556364 
L 259.829752 -243.556364 
L 256.755372 -243.556364 
L 256.755372 -243.556364 
L 253.680992 -243.556364 
L 253.680992 -243.556364 
L 250.606612 -243.556364 
L 250.606612 -243.556364 
L 247.532231 -243.556364 
L 247.532231 -243.556364 
L 244.457851 -243.556364 
L 244.457851 -243.556364 
L 241.383471 -243.556364 
L 241.383471 -243.556364 
L 238.309091 -243.556364 
L 238.309091 -243.556364 
L 235.234711 -243.556364 
L 235.234711 -243.556364 
L 232.160331 -243.556364 
L 232.160331 -243.556364 
L 229.08595 -243.556364 
L 229.08595 -243.556364 
L 226.01157 -243.556364 
L 226.01157 -243.556364 
L 222.93719 -243.556364 
L 222.93719 -243.556364 
L 219.86281 -243.556364 
L 219.86281 -243.556364 
L 216.78843 -243.556364 
L 216.78843 -243.556364 
L 213.71405 -243.556364 
L 213.71405 -243.556364 
L 210.639669 -243.556364 
L 210.639669 -243.556364 
L 207.565289 -243.556364 
L 207.565289 -243.556364 
L 204.490909 -243.556364 
L 204.490909 -243.556364 
L 201.416529 -243.556364 
L 201.416529 -243.556364 
L 198.342149 -243.556364 
L 198.342149 -243.556364 
L 195.267769 -243.556364 
L 195.267769 -243.556364 
L 192.193388 -243.556364 
L 192.193388 -243.556364 
L 189.119008 -243.556364 
L 189.119008 -243.556364 
L 186.044628 -243.556364 
L 186.044628 -243.556364 
L 182.970248 -243.556364 
L 182.970248 -243.556364 
L 179.895868 -243.556364 
L 179.895868 -243.556364 
L 176.821488 -243.556364 
L 176.821488 -243.556364 
L 173.747107 -243.556364 
L 173.747107 -243.556364 
L 170.672727 -243.556364 
L 170.672727 -243.556364 
L 167.598347 -243.556364 
L 167.598347 -243.556364 
L 164.523967 -243.556364 
L 164.523967 -243.556364 
L 161.449587 -243.556364 
L 161.449587 -243.556364 
L 158.375207 -243.556364 
L 158.375207 -243.556364 
L 155.300826 -243.556364 
L 155.300826 -243.556364 
L 152.226446 -243.556364 
L 152.226446 -243.556364 
L 149.152066 -243.556364 
L 149.152066 -243.556364 
L 146.077686 -243.556364 
L 146.077686 -243.556364 
L 143.003306 -243.556364 
L 143.003306 -243.556364 
L 139.928926 -243.556364 
L 139.928926 -243.556364 
L 136.854545 -243.556364 
L 136.854545 -243.556364 
L 133.780165 -243.556364 
L 133.780165 -243.556364 
L 130.705785 -243.556364 
L 130.705785 -243.556364 
L 127.631405 -243.556364 
L 127.631405 -243.556364 
L 124.557025 -243.556364 
L 124.557025 -243.556364 
L 121.482645 -243.556364 
L 121.482645 -243.556364 
L 118.408264 -243.556364 
L 118.408264 -243.556364 
L 115.333884 -243.556364 
L 115.333884 -243.556364 
L 112.259504 -243.556364 
L 112.259504 -243.556364 
L 109.185124 -243.556364 
L 109.185124 -243.556364 
L 106.110744 -243.556364 
L 106.110744 -243.556364 
L 103.036364 -243.556364 
L 103.036364 -243.556364 
L 99.961983 -243.556364 
L 99.961983 -243.556364 
L 96.887603 -243.556364 
L 96.887603 -243.556364 
L 93.813223 -243.556364 
L 93.813223 -243.556364 
L 90.738843 -243.556364 
L 90.738843 -243.556364 
L 87.664463 -243.556364 
L 87.664463 -243.556364 
L 84.590083 -243.556364 
L 84.590083 -243.556364 
L 81.515702 -243.556364 
L 81.515702 -243.556364 
L 78.441322 -243.556364 
L 78.441322 -243.556364 
L 75.366942 -243.556364 
L 75.366942 -243.556364 
L 72.292562 -243.556364 
L 72.292562 -243.556364 
L 69.218182 -243.556364 
z
" id="ma543e6dd90" style="stroke:#8b4513;stroke-opacity:0.5;"/>
    </defs>
    <g clip-path="url(#p87b88e8bcf)">
     <use style="fill:#8b4513;fill-opacity:0.5;stroke:#8b4513;stroke-opacity:0.5;" x="0" xlink:href="#ma543e6dd90" y="288"/>
    </g>
   </g>
   <g id="matplotlib.axis_1">
    <g id="xtick_1">
     <g id="line2d_1">
      <defs>
       <path d="M 0 0 
L 0 3.5 
" id="m793a9559b9" style="stroke:#000000;stroke-width:0.8;"/>
      </defs>
      <g>
       <use style="stroke:#000000;stroke-width:0.8;" x="66.143802" xlink:href="#m793a9559b9" y="252"/>
      </g>
     </g>
     <g id="text_1">
      <!-- 0 -->
      <g transform="translate(62.962552 266.598437)scale(0.1 -0.1)">
       <defs>
        <path d="M 31.78125 66.40625 
Q 24.171875 66.40625 20.328125 58.90625 
Q 16.5 51.421875 16.5 36.375 
Q 16.5 21.390625 20.328125 13.890625 
Q 24.171875 6.390625 31.78125 6.390625 
Q 39.453125 6.390625 43.28125 13.890625 
Q 47.125 21.390625 47.125 36.375 
Q 47.125 51.421875 43.28125 58.90625 
Q 39.453125 66.40625 31.78125 66.40625 
z
M 31.78125 74.21875 
Q 44.046875 74.21875 50.515625 64.515625 
Q 56.984375 54.828125 56.984375 36.375 
Q 56.984375 17.96875 50.515625 8.265625 
Q 44.046875 -1.421875 31.78125 -1.421875 
Q 19.53125 -1.421875 13.0625 8.265625 
Q 6.59375 17.96875 6.59375 36.375 
Q 6.59375 54.828125 13.0625 64.515625 
Q 19.53125 74.21875 31.78125 74.21875 
z
" id="DejaVuSans-48"/>
       </defs>
       <use xlink:href="#DejaVuSans-48"/>
      </g>
     </g>
    </g>
    <g id="xtick_2">
     <g id="line2d_2">
      <g>
       <use style="stroke:#000000;stroke-width:0.8;" x="127.631405" xlink:href="#m793a9559b9" y="252"/>
      </g>
     </g>
     <g id="text_2">
      <!-- 20 -->
      <g transform="translate(121.268905 266.598437)scale(0.1 -0.1)">
       <defs>
        <path d="M 19.1875 8.296875 
L 53.609375 8.296875 
L 53.609375 0 
L 7.328125 0 
L 7.328125 8.296875 
Q 12.9375 14.109375 22.625 23.890625 
Q 32.328125 33.6875 34.8125 36.53125 
Q 39.546875 41.84375 41.421875 45.53125 
Q 43.3125 49.21875 43.3125 52.78125 
Q 43.3125 58.59375 39.234375 62.25 
Q 35.15625 65.921875 28.609375 65.921875 
Q 23.96875 65.921875 18.8125 64.3125 
Q 13.671875 62.703125 7.8125 59.421875 
L 7.8125 69.390625 
Q 13.765625 71.78125 18.9375 73 
Q 24.125 74.21875 28.421875 74.21875 
Q 39.75 74.21875 46.484375 68.546875 
Q 53.21875 62.890625 53.21875 53.421875 
Q 53.21875 48.921875 51.53125 44.890625 
Q 49.859375 40.875 45.40625 35.40625 
Q 44.1875 33.984375 37.640625 27.21875 
Q 31.109375 20.453125 19.1875 8.296875 
z
" id="DejaVuSans-50"/>
       </defs>
       <use xlink:href="#DejaVuSans-50"/>
       <use x="63.623047" xlink:href="#DejaVuSans-48"/>
      </g>
     </g>
    </g>
    <g id="xtick_3">
     <g id="line2d_3">
      <g>
       <use style="stroke:#000000;stroke-width:0.8;" x="189.119008" xlink:href="#m793a9559b9" y="252"/>
      </g>
     </g>
     <g id="text_3">
      <!-- 40 -->
      <g transform="translate(182.756508 266.598437)scale(0.1 -0.1)">
       <defs>
        <path d="M 37.796875 64.3125 
L 12.890625 25.390625 
L 37.796875 25.390625 
z
M 35.203125 72.90625 
L 47.609375 72.90625 
L 47.609375 25.390625 
L 58.015625 25.390625 
L 58.015625 17.1875 
L 47.609375 17.1875 
L 47.609375 0 
L 37.796875 0 
L 37.796875 17.1875 
L 4.890625 17.1875 
L 4.890625 26.703125 
z
" id="DejaVuSans-52"/>
       </defs>
       <use xlink:href="#DejaVuSans-52"/>
       <use x="63.623047" xlink:href="#DejaVuSans-48"/>
      </g>
     </g>
    </g>
    <g id="xtick_4">
     <g id="line2d_4">
      <g>
       <use style="stroke:#000000;stroke-width:0.8;" x="250.606612" xlink:href="#m793a9559b9" y="252"/>
      </g>
     </g>
     <g id="text_4">
      <!-- 60 -->
      <g transform="translate(244.244112 266.598437)scale(0.1 -0.1)">
       <defs>
        <path d="M 33.015625 40.375 
Q 26.375 40.375 22.484375 35.828125 
Q 18.609375 31.296875 18.609375 23.390625 
Q 18.609375 15.53125 22.484375 10.953125 
Q 26.375 6.390625 33.015625 6.390625 
Q 39.65625 6.390625 43.53125 10.953125 
Q 47.40625 15.53125 47.40625 23.390625 
Q 47.40625 31.296875 43.53125 35.828125 
Q 39.65625 40.375 33.015625 40.375 
z
M 52.59375 71.296875 
L 52.59375 62.3125 
Q 48.875 64.0625 45.09375 64.984375 
Q 41.3125 65.921875 37.59375 65.921875 
Q 27.828125 65.921875 22.671875 59.328125 
Q 17.53125 52.734375 16.796875 39.40625 
Q 19.671875 43.65625 24.015625 45.921875 
Q 28.375 48.1875 33.59375 48.1875 
Q 44.578125 48.1875 50.953125 41.515625 
Q 57.328125 34.859375 57.328125 23.390625 
Q 57.328125 12.15625 50.6875 5.359375 
Q 44.046875 -1.421875 33.015625 -1.421875 
Q 20.359375 -1.421875 13.671875 8.265625 
Q 6.984375 17.96875 6.984375 36.375 
Q 6.984375 53.65625 15.1875 63.9375 
Q 23.390625 74.21875 37.203125 74.21875 
Q 40.921875 74.21875 44.703125 73.484375 
Q 48.484375 72.75 52.59375 71.296875 
z
" id="DejaVuSans-54"/>
       </defs>
       <use xlink:href="#DejaVuSans-54"/>
       <use x="63.623047" xlink:href="#DejaVuSans-48"/>
      </g>
     </g>
    </g>
    <g id="xtick_5">
     <g id="line2d_5">
      <g>
       <use style="stroke:#000000;stroke-width:0.8;" x="312.094215" xlink:href="#m793a9559b9" y="252"/>
      </g>
     </g>
     <g id="text_5">
      <!-- 80 -->
      <g transform="translate(305.731715 266.598437)scale(0.1 -0.1)">
       <defs>
        <path d="M 31.78125 34.625 
Q 24.75 34.625 20.71875 30.859375 
Q 16.703125 27.09375 16.703125 20.515625 
Q 16.703125 13.921875 20.71875 10.15625 
Q 24.75 6.390625 31.78125 6.390625 
Q 38.8125 6.390625 42.859375 10.171875 
Q 46.921875 13.96875 46.921875 20.515625 
Q 46.921875 27.09375 42.890625 30.859375 
Q 38.875 34.625 31.78125 34.625 
z
M 21.921875 38.8125 
Q 15.578125 40.375 12.03125 44.71875 
Q 8.5 49.078125 8.5 55.328125 
Q 8.5 64.0625 14.71875 69.140625 
Q 20.953125 74.21875 31.78125 74.21875 
Q 42.671875 74.21875 48.875 69.140625 
Q 55.078125 64.0625 55.078125 55.328125 
Q 55.078125 49.078125 51.53125 44.71875 
Q 48 40.375 41.703125 38.8125 
Q 48.828125 37.15625 52.796875 32.3125 
Q 56.78125 27.484375 56.78125 20.515625 
Q 56.78125 9.90625 50.3125 4.234375 
Q 43.84375 -1.421875 31.78125 -1.421875 
Q 19.734375 -1.421875 13.25 4.234375 
Q 6.78125 9.90625 6.78125 20.515625 
Q 6.78125 27.484375 10.78125 32.3125 
Q 14.796875 37.15625 21.921875 38.8125 
z
M 18.3125 54.390625 
Q 18.3125 48.734375 21.84375 45.5625 
Q 25.390625 42.390625 31.78125 42.390625 
Q 38.140625 42.390625 41.71875 45.5625 
Q 45.3125 48.734375 45.3125 54.390625 
Q 45.3125 60.0625 41.71875 63.234375 
Q 38.140625 66.40625 31.78125 66.40625 
Q 25.390625 66.40625 21.84375 63.234375 
Q 18.3125 60.0625 18.3125 54.390625 
z
" id="DejaVuSans-56"/>
       </defs>
       <use xlink:href="#DejaVuSans-56"/>
       <use x="63.623047" xlink:href="#DejaVuSans-48"/>
      </g>
     </g>
    </g>
    <g id="xtick_6">
     <g id="line2d_6">
      <g>
       <use style="stroke:#000000;stroke-width:0.8;" x="373.581818" xlink:href="#m793a9559b9" y="252"/>
      </g>
     </g>
     <g id="text_6">
      <!-- 100 -->
      <g transform="translate(364.038068 266.598437)scale(0.1 -0.1)">
       <defs>
        <path d="M 12.40625 8.296875 
L 28.515625 8.296875 
L 28.515625 63.921875 
L 10.984375 60.40625 
L 10.984375 69.390625 
L 28.421875 72.90625 
L 38.28125 72.90625 
L 38.28125 8.296875 
L 54.390625 8.296875 
L 54.390625 0 
L 12.40625 0 
z
" id="DejaVuSans-49"/>
       </defs>
       <use xlink:href="#DejaVuSans-49"/>
       <use x="63.623047" xlink:href="#DejaVuSans-48"/>
       <use x="127.246094" xlink:href="#DejaVuSans-48"/>
      </g>
     </g>
    </g>
    <g id="text_7">
     <!-- Number of function evaluations -->
     <g transform="translate(142.399219 280.276563)scale(0.1 -0.1)">
      <defs>
       <path d="M 9.8125 72.90625 
L 23.09375 72.90625 
L 55.421875 11.921875 
L 55.421875 72.90625 
L 64.984375 72.90625 
L 64.984375 0 
L 51.703125 0 
L 19.390625 60.984375 
L 19.390625 0 
L 9.8125 0 
z
" id="DejaVuSans-78"/>
       <path d="M 8.5 21.578125 
L 8.5 54.6875 
L 17.484375 54.6875 
L 17.484375 21.921875 
Q 17.484375 14.15625 20.5 10.265625 
Q 23.53125 6.390625 29.59375 6.390625 
Q 36.859375 6.390625 41.078125 11.03125 
Q 45.3125 15.671875 45.3125 23.6875 
L 45.3125 54.6875 
L 54.296875 54.6875 
L 54.296875 0 
L 45.3125 0 
L 45.3125 8.40625 
Q 42.046875 3.421875 37.71875 1 
Q 33.40625 -1.421875 27.6875 -1.421875 
Q 18.265625 -1.421875 13.375 4.4375 
Q 8.5 10.296875 8.5 21.578125 
z
M 31.109375 56 
z
" id="DejaVuSans-117"/>
       <path d="M 52 44.1875 
Q 55.375 50.25 60.0625 53.125 
Q 64.75 56 71.09375 56 
Q 79.640625 56 84.28125 50.015625 
Q 88.921875 44.046875 88.921875 33.015625 
L 88.921875 0 
L 79.890625 0 
L 79.890625 32.71875 
Q 79.890625 40.578125 77.09375 44.375 
Q 74.3125 48.1875 68.609375 48.1875 
Q 61.625 48.1875 57.5625 43.546875 
Q 53.515625 38.921875 53.515625 30.90625 
L 53.515625 0 
L 44.484375 0 
L 44.484375 32.71875 
Q 44.484375 40.625 41.703125 44.40625 
Q 38.921875 48.1875 33.109375 48.1875 
Q 26.21875 48.1875 22.15625 43.53125 
Q 18.109375 38.875 18.109375 30.90625 
L 18.109375 0 
L 9.078125 0 
L 9.078125 54.6875 
L 18.109375 54.6875 
L 18.109375 46.1875 
Q 21.1875 51.21875 25.484375 53.609375 
Q 29.78125 56 35.6875 56 
Q 41.65625 56 45.828125 52.96875 
Q 50 49.953125 52 44.1875 
z
" id="DejaVuSans-109"/>
       <path d="M 48.6875 27.296875 
Q 48.6875 37.203125 44.609375 42.84375 
Q 40.53125 48.484375 33.40625 48.484375 
Q 26.265625 48.484375 22.1875 42.84375 
Q 18.109375 37.203125 18.109375 27.296875 
Q 18.109375 17.390625 22.1875 11.75 
Q 26.265625 6.109375 33.40625 6.109375 
Q 40.53125 6.109375 44.609375 11.75 
Q 48.6875 17.390625 48.6875 27.296875 
z
M 18.109375 46.390625 
Q 20.953125 51.265625 25.265625 53.625 
Q 29.59375 56 35.59375 56 
Q 45.5625 56 51.78125 48.09375 
Q 58.015625 40.1875 58.015625 27.296875 
Q 58.015625 14.40625 51.78125 6.484375 
Q 45.5625 -1.421875 35.59375 -1.421875 
Q 29.59375 -1.421875 25.265625 0.953125 
Q 20.953125 3.328125 18.109375 8.203125 
L 18.109375 0 
L 9.078125 0 
L 9.078125 75.984375 
L 18.109375 75.984375 
z
" id="DejaVuSans-98"/>
       <path d="M 56.203125 29.59375 
L 56.203125 25.203125 
L 14.890625 25.203125 
Q 15.484375 15.921875 20.484375 11.0625 
Q 25.484375 6.203125 34.421875 6.203125 
Q 39.59375 6.203125 44.453125 7.46875 
Q 49.3125 8.734375 54.109375 11.28125 
L 54.109375 2.78125 
Q 49.265625 0.734375 44.1875 -0.34375 
Q 39.109375 -1.421875 33.890625 -1.421875 
Q 20.796875 -1.421875 13.15625 6.1875 
Q 5.515625 13.8125 5.515625 26.8125 
Q 5.515625 40.234375 12.765625 48.109375 
Q 20.015625 56 32.328125 56 
Q 43.359375 56 49.78125 48.890625 
Q 56.203125 41.796875 56.203125 29.59375 
z
M 47.21875 32.234375 
Q 47.125 39.59375 43.09375 43.984375 
Q 39.0625 48.390625 32.421875 48.390625 
Q 24.90625 48.390625 20.390625 44.140625 
Q 15.875 39.890625 15.1875 32.171875 
z
" id="DejaVuSans-101"/>
       <path d="M 41.109375 46.296875 
Q 39.59375 47.171875 37.8125 47.578125 
Q 36.03125 48 33.890625 48 
Q 26.265625 48 22.1875 43.046875 
Q 18.109375 38.09375 18.109375 28.8125 
L 18.109375 0 
L 9.078125 0 
L 9.078125 54.6875 
L 18.109375 54.6875 
L 18.109375 46.1875 
Q 20.953125 51.171875 25.484375 53.578125 
Q 30.03125 56 36.53125 56 
Q 37.453125 56 38.578125 55.875 
Q 39.703125 55.765625 41.0625 55.515625 
z
" id="DejaVuSans-114"/>
       <path id="DejaVuSans-32"/>
       <path d="M 30.609375 48.390625 
Q 23.390625 48.390625 19.1875 42.75 
Q 14.984375 37.109375 14.984375 27.296875 
Q 14.984375 17.484375 19.15625 11.84375 
Q 23.34375 6.203125 30.609375 6.203125 
Q 37.796875 6.203125 41.984375 11.859375 
Q 46.1875 17.53125 46.1875 27.296875 
Q 46.1875 37.015625 41.984375 42.703125 
Q 37.796875 48.390625 30.609375 48.390625 
z
M 30.609375 56 
Q 42.328125 56 49.015625 48.375 
Q 55.71875 40.765625 55.71875 27.296875 
Q 55.71875 13.875 49.015625 6.21875 
Q 42.328125 -1.421875 30.609375 -1.421875 
Q 18.84375 -1.421875 12.171875 6.21875 
Q 5.515625 13.875 5.515625 27.296875 
Q 5.515625 40.765625 12.171875 48.375 
Q 18.84375 56 30.609375 56 
z
" id="DejaVuSans-111"/>
       <path d="M 37.109375 75.984375 
L 37.109375 68.5 
L 28.515625 68.5 
Q 23.6875 68.5 21.796875 66.546875 
Q 19.921875 64.59375 19.921875 59.515625 
L 19.921875 54.6875 
L 34.71875 54.6875 
L 34.71875 47.703125 
L 19.921875 47.703125 
L 19.921875 0 
L 10.890625 0 
L 10.890625 47.703125 
L 2.296875 47.703125 
L 2.296875 54.6875 
L 10.890625 54.6875 
L 10.890625 58.5 
Q 10.890625 67.625 15.140625 71.796875 
Q 19.390625 75.984375 28.609375 75.984375 
z
" id="DejaVuSans-102"/>
       <path d="M 54.890625 33.015625 
L 54.890625 0 
L 45.90625 0 
L 45.90625 32.71875 
Q 45.90625 40.484375 42.875 44.328125 
Q 39.84375 48.1875 33.796875 48.1875 
Q 26.515625 48.1875 22.3125 43.546875 
Q 18.109375 38.921875 18.109375 30.90625 
L 18.109375 0 
L 9.078125 0 
L 9.078125 54.6875 
L 18.109375 54.6875 
L 18.109375 46.1875 
Q 21.34375 51.125 25.703125 53.5625 
Q 30.078125 56 35.796875 56 
Q 45.21875 56 50.046875 50.171875 
Q 54.890625 44.34375 54.890625 33.015625 
z
" id="DejaVuSans-110"/>
       <path d="M 48.78125 52.59375 
L 48.78125 44.1875 
Q 44.96875 46.296875 41.140625 47.34375 
Q 37.3125 48.390625 33.40625 48.390625 
Q 24.65625 48.390625 19.8125 42.84375 
Q 14.984375 37.3125 14.984375 27.296875 
Q 14.984375 17.28125 19.8125 11.734375 
Q 24.65625 6.203125 33.40625 6.203125 
Q 37.3125 6.203125 41.140625 7.25 
Q 44.96875 8.296875 48.78125 10.40625 
L 48.78125 2.09375 
Q 45.015625 0.34375 40.984375 -0.53125 
Q 36.96875 -1.421875 32.421875 -1.421875 
Q 20.0625 -1.421875 12.78125 6.34375 
Q 5.515625 14.109375 5.515625 27.296875 
Q 5.515625 40.671875 12.859375 48.328125 
Q 20.21875 56 33.015625 56 
Q 37.15625 56 41.109375 55.140625 
Q 45.0625 54.296875 48.78125 52.59375 
z
" id="DejaVuSans-99"/>
       <path d="M 18.3125 70.21875 
L 18.3125 54.6875 
L 36.8125 54.6875 
L 36.8125 47.703125 
L 18.3125 47.703125 
L 18.3125 18.015625 
Q 18.3125 11.328125 20.140625 9.421875 
Q 21.96875 7.515625 27.59375 7.515625 
L 36.8125 7.515625 
L 36.8125 0 
L 27.59375 0 
Q 17.1875 0 13.234375 3.875 
Q 9.28125 7.765625 9.28125 18.015625 
L 9.28125 47.703125 
L 2.6875 47.703125 
L 2.6875 54.6875 
L 9.28125 54.6875 
L 9.28125 70.21875 
z
" id="DejaVuSans-116"/>
       <path d="M 9.421875 54.6875 
L 18.40625 54.6875 
L 18.40625 0 
L 9.421875 0 
z
M 9.421875 75.984375 
L 18.40625 75.984375 
L 18.40625 64.59375 
L 9.421875 64.59375 
z
" id="DejaVuSans-105"/>
       <path d="M 2.984375 54.6875 
L 12.5 54.6875 
L 29.59375 8.796875 
L 46.6875 54.6875 
L 56.203125 54.6875 
L 35.6875 0 
L 23.484375 0 
z
" id="DejaVuSans-118"/>
       <path d="M 34.28125 27.484375 
Q 23.390625 27.484375 19.1875 25 
Q 14.984375 22.515625 14.984375 16.5 
Q 14.984375 11.71875 18.140625 8.90625 
Q 21.296875 6.109375 26.703125 6.109375 
Q 34.1875 6.109375 38.703125 11.40625 
Q 43.21875 16.703125 43.21875 25.484375 
L 43.21875 27.484375 
z
M 52.203125 31.203125 
L 52.203125 0 
L 43.21875 0 
L 43.21875 8.296875 
Q 40.140625 3.328125 35.546875 0.953125 
Q 30.953125 -1.421875 24.3125 -1.421875 
Q 15.921875 -1.421875 10.953125 3.296875 
Q 6 8.015625 6 15.921875 
Q 6 25.140625 12.171875 29.828125 
Q 18.359375 34.515625 30.609375 34.515625 
L 43.21875 34.515625 
L 43.21875 35.40625 
Q 43.21875 41.609375 39.140625 45 
Q 35.0625 48.390625 27.6875 48.390625 
Q 23 48.390625 18.546875 47.265625 
Q 14.109375 46.140625 10.015625 43.890625 
L 10.015625 52.203125 
Q 14.9375 54.109375 19.578125 55.046875 
Q 24.21875 56 28.609375 56 
Q 40.484375 56 46.34375 49.84375 
Q 52.203125 43.703125 52.203125 31.203125 
z
" id="DejaVuSans-97"/>
       <path d="M 9.421875 75.984375 
L 18.40625 75.984375 
L 18.40625 0 
L 9.421875 0 
z
" id="DejaVuSans-108"/>
       <path d="M 44.28125 53.078125 
L 44.28125 44.578125 
Q 40.484375 46.53125 36.375 47.5 
Q 32.28125 48.484375 27.875 48.484375 
Q 21.1875 48.484375 17.84375 46.4375 
Q 14.5 44.390625 14.5 40.28125 
Q 14.5 37.15625 16.890625 35.375 
Q 19.28125 33.59375 26.515625 31.984375 
L 29.59375 31.296875 
Q 39.15625 29.25 43.1875 25.515625 
Q 47.21875 21.78125 47.21875 15.09375 
Q 47.21875 7.46875 41.1875 3.015625 
Q 35.15625 -1.421875 24.609375 -1.421875 
Q 20.21875 -1.421875 15.453125 -0.5625 
Q 10.6875 0.296875 5.421875 2 
L 5.421875 11.28125 
Q 10.40625 8.6875 15.234375 7.390625 
Q 20.0625 6.109375 24.8125 6.109375 
Q 31.15625 6.109375 34.5625 8.28125 
Q 37.984375 10.453125 37.984375 14.40625 
Q 37.984375 18.0625 35.515625 20.015625 
Q 33.0625 21.96875 24.703125 23.78125 
L 21.578125 24.515625 
Q 13.234375 26.265625 9.515625 29.90625 
Q 5.8125 33.546875 5.8125 39.890625 
Q 5.8125 47.609375 11.28125 51.796875 
Q 16.75 56 26.8125 56 
Q 31.78125 56 36.171875 55.265625 
Q 40.578125 54.546875 44.28125 53.078125 
z
" id="DejaVuSans-115"/>
      </defs>
      <use xlink:href="#DejaVuSans-78"/>
      <use x="74.804688" xlink:href="#DejaVuSans-117"/>
      <use x="138.183594" xlink:href="#DejaVuSans-109"/>
      <use x="235.595703" xlink:href="#DejaVuSans-98"/>
      <use x="299.072266" xlink:href="#DejaVuSans-101"/>
      <use x="360.595703" xlink:href="#DejaVuSans-114"/>
      <use x="401.708984" xlink:href="#DejaVuSans-32"/>
      <use x="433.496094" xlink:href="#DejaVuSans-111"/>
      <use x="494.677734" xlink:href="#DejaVuSans-102"/>
      <use x="529.882812" xlink:href="#DejaVuSans-32"/>
      <use x="561.669922" xlink:href="#DejaVuSans-102"/>
      <use x="596.875" xlink:href="#DejaVuSans-117"/>
      <use x="660.253906" xlink:href="#DejaVuSans-110"/>
      <use x="723.632812" xlink:href="#DejaVuSans-99"/>
      <use x="778.613281" xlink:href="#DejaVuSans-116"/>
      <use x="817.822266" xlink:href="#DejaVuSans-105"/>
      <use x="845.605469" xlink:href="#DejaVuSans-111"/>
      <use x="906.787109" xlink:href="#DejaVuSans-110"/>
      <use x="970.166016" xlink:href="#DejaVuSans-32"/>
      <use x="1001.953125" xlink:href="#DejaVuSans-101"/>
      <use x="1063.476562" xlink:href="#DejaVuSans-118"/>
      <use x="1122.65625" xlink:href="#DejaVuSans-97"/>
      <use x="1183.935547" xlink:href="#DejaVuSans-108"/>
      <use x="1211.71875" xlink:href="#DejaVuSans-117"/>
      <use x="1275.097656" xlink:href="#DejaVuSans-97"/>
      <use x="1336.376953" xlink:href="#DejaVuSans-116"/>
      <use x="1375.585938" xlink:href="#DejaVuSans-105"/>
      <use x="1403.369141" xlink:href="#DejaVuSans-111"/>
      <use x="1464.550781" xlink:href="#DejaVuSans-110"/>
      <use x="1527.929688" xlink:href="#DejaVuSans-115"/>
     </g>
    </g>
   </g>
   <g id="matplotlib.axis_2">
    <g id="ytick_1">
     <g id="line2d_7">
      <defs>
       <path d="M 0 0 
L -3.5 0 
" id="m23255eb8e1" style="stroke:#000000;stroke-width:0.8;"/>
      </defs>
      <g>
       <use style="stroke:#000000;stroke-width:0.8;" x="54" xlink:href="#m23255eb8e1" y="229.566177"/>
      </g>
     </g>
     <g id="text_8">
      <!-- $\mathdefault{10^{5}}$ -->
      <g transform="translate(29.4 233.365396)scale(0.1 -0.1)">
       <defs>
        <path d="M 10.796875 72.90625 
L 49.515625 72.90625 
L 49.515625 64.59375 
L 19.828125 64.59375 
L 19.828125 46.734375 
Q 21.96875 47.46875 24.109375 47.828125 
Q 26.265625 48.1875 28.421875 48.1875 
Q 40.625 48.1875 47.75 41.5 
Q 54.890625 34.8125 54.890625 23.390625 
Q 54.890625 11.625 47.5625 5.09375 
Q 40.234375 -1.421875 26.90625 -1.421875 
Q 22.3125 -1.421875 17.546875 -0.640625 
Q 12.796875 0.140625 7.71875 1.703125 
L 7.71875 11.625 
Q 12.109375 9.234375 16.796875 8.0625 
Q 21.484375 6.890625 26.703125 6.890625 
Q 35.15625 6.890625 40.078125 11.328125 
Q 45.015625 15.765625 45.015625 23.390625 
Q 45.015625 31 40.078125 35.4375 
Q 35.15625 39.890625 26.703125 39.890625 
Q 22.75 39.890625 18.8125 39.015625 
Q 14.890625 38.140625 10.796875 36.28125 
z
" id="DejaVuSans-53"/>
       </defs>
       <use transform="translate(0 0.684375)" xlink:href="#DejaVuSans-49"/>
       <use transform="translate(63.623047 0.684375)" xlink:href="#DejaVuSans-48"/>
       <use transform="translate(128.203125 38.965625)scale(0.7)" xlink:href="#DejaVuSans-53"/>
      </g>
     </g>
    </g>
    <g id="ytick_2">
     <g id="line2d_8">
      <g>
       <use style="stroke:#000000;stroke-width:0.8;" x="54" xlink:href="#m23255eb8e1" y="197.499349"/>
      </g>
     </g>
     <g id="text_9">
      <!-- $\mathdefault{10^{7}}$ -->
      <g transform="translate(29.4 201.298568)scale(0.1 -0.1)">
       <defs>
        <path d="M 8.203125 72.90625 
L 55.078125 72.90625 
L 55.078125 68.703125 
L 28.609375 0 
L 18.3125 0 
L 43.21875 64.59375 
L 8.203125 64.59375 
z
" id="DejaVuSans-55"/>
       </defs>
       <use transform="translate(0 0.684375)" xlink:href="#DejaVuSans-49"/>
       <use transform="translate(63.623047 0.684375)" xlink:href="#DejaVuSans-48"/>
       <use transform="translate(128.203125 38.965625)scale(0.7)" xlink:href="#DejaVuSans-55"/>
      </g>
     </g>
    </g>
    <g id="ytick_3">
     <g id="line2d_9">
      <g>
       <use style="stroke:#000000;stroke-width:0.8;" x="54" xlink:href="#m23255eb8e1" y="165.432521"/>
      </g>
     </g>
     <g id="text_10">
      <!-- $\mathdefault{10^{9}}$ -->
      <g transform="translate(29.4 169.23174)scale(0.1 -0.1)">
       <defs>
        <path d="M 10.984375 1.515625 
L 10.984375 10.5 
Q 14.703125 8.734375 18.5 7.8125 
Q 22.3125 6.890625 25.984375 6.890625 
Q 35.75 6.890625 40.890625 13.453125 
Q 46.046875 20.015625 46.78125 33.40625 
Q 43.953125 29.203125 39.59375 26.953125 
Q 35.25 24.703125 29.984375 24.703125 
Q 19.046875 24.703125 12.671875 31.3125 
Q 6.296875 37.9375 6.296875 49.421875 
Q 6.296875 60.640625 12.9375 67.421875 
Q 19.578125 74.21875 30.609375 74.21875 
Q 43.265625 74.21875 49.921875 64.515625 
Q 56.59375 54.828125 56.59375 36.375 
Q 56.59375 19.140625 48.40625 8.859375 
Q 40.234375 -1.421875 26.421875 -1.421875 
Q 22.703125 -1.421875 18.890625 -0.6875 
Q 15.09375 0.046875 10.984375 1.515625 
z
M 30.609375 32.421875 
Q 37.25 32.421875 41.125 36.953125 
Q 45.015625 41.5 45.015625 49.421875 
Q 45.015625 57.28125 41.125 61.84375 
Q 37.25 66.40625 30.609375 66.40625 
Q 23.96875 66.40625 20.09375 61.84375 
Q 16.21875 57.28125 16.21875 49.421875 
Q 16.21875 41.5 20.09375 36.953125 
Q 23.96875 32.421875 30.609375 32.421875 
z
" id="DejaVuSans-57"/>
       </defs>
       <use transform="translate(0 0.765625)" xlink:href="#DejaVuSans-49"/>
       <use transform="translate(63.623047 0.765625)" xlink:href="#DejaVuSans-48"/>
       <use transform="translate(128.203125 39.046875)scale(0.7)" xlink:href="#DejaVuSans-57"/>
      </g>
     </g>
    </g>
    <g id="ytick_4">
     <g id="line2d_10">
      <g>
       <use style="stroke:#000000;stroke-width:0.8;" x="54" xlink:href="#m23255eb8e1" y="133.365693"/>
      </g>
     </g>
     <g id="text_11">
      <!-- $\mathdefault{10^{11}}$ -->
      <g transform="translate(24.9 137.164912)scale(0.1 -0.1)">
       <use transform="translate(0 0.684375)" xlink:href="#DejaVuSans-49"/>
       <use transform="translate(63.623047 0.684375)" xlink:href="#DejaVuSans-48"/>
       <use transform="translate(128.203125 38.965625)scale(0.7)" xlink:href="#DejaVuSans-49"/>
       <use transform="translate(172.739258 38.965625)scale(0.7)" xlink:href="#DejaVuSans-49"/>
      </g>
     </g>
    </g>
    <g id="ytick_5">
     <g id="line2d_11">
      <g>
       <use style="stroke:#000000;stroke-width:0.8;" x="54" xlink:href="#m23255eb8e1" y="101.298865"/>
      </g>
     </g>
     <g id="text_12">
      <!-- $\mathdefault{10^{13}}$ -->
      <g transform="translate(24.9 105.098084)scale(0.1 -0.1)">
       <defs>
        <path d="M 40.578125 39.3125 
Q 47.65625 37.796875 51.625 33 
Q 55.609375 28.21875 55.609375 21.1875 
Q 55.609375 10.40625 48.1875 4.484375 
Q 40.765625 -1.421875 27.09375 -1.421875 
Q 22.515625 -1.421875 17.65625 -0.515625 
Q 12.796875 0.390625 7.625 2.203125 
L 7.625 11.71875 
Q 11.71875 9.328125 16.59375 8.109375 
Q 21.484375 6.890625 26.8125 6.890625 
Q 36.078125 6.890625 40.9375 10.546875 
Q 45.796875 14.203125 45.796875 21.1875 
Q 45.796875 27.640625 41.28125 31.265625 
Q 36.765625 34.90625 28.71875 34.90625 
L 20.21875 34.90625 
L 20.21875 43.015625 
L 29.109375 43.015625 
Q 36.375 43.015625 40.234375 45.921875 
Q 44.09375 48.828125 44.09375 54.296875 
Q 44.09375 59.90625 40.109375 62.90625 
Q 36.140625 65.921875 28.71875 65.921875 
Q 24.65625 65.921875 20.015625 65.03125 
Q 15.375 64.15625 9.8125 62.3125 
L 9.8125 71.09375 
Q 15.4375 72.65625 20.34375 73.4375 
Q 25.25 74.21875 29.59375 74.21875 
Q 40.828125 74.21875 47.359375 69.109375 
Q 53.90625 64.015625 53.90625 55.328125 
Q 53.90625 49.265625 50.4375 45.09375 
Q 46.96875 40.921875 40.578125 39.3125 
z
" id="DejaVuSans-51"/>
       </defs>
       <use transform="translate(0 0.765625)" xlink:href="#DejaVuSans-49"/>
       <use transform="translate(63.623047 0.765625)" xlink:href="#DejaVuSans-48"/>
       <use transform="translate(128.203125 39.046875)scale(0.7)" xlink:href="#DejaVuSans-49"/>
       <use transform="translate(172.739258 39.046875)scale(0.7)" xlink:href="#DejaVuSans-51"/>
      </g>
     </g>
    </g>
    <g id="ytick_6">
     <g id="line2d_12">
      <g>
       <use style="stroke:#000000;stroke-width:0.8;" x="54" xlink:href="#m23255eb8e1" y="69.232037"/>
      </g>
     </g>
     <g id="text_13">
      <!-- $\mathdefault{10^{15}}$ -->
      <g transform="translate(24.9 73.031256)scale(0.1 -0.1)">
       <use transform="translate(0 0.684375)" xlink:href="#DejaVuSans-49"/>
       <use transform="translate(63.623047 0.684375)" xlink:href="#DejaVuSans-48"/>
       <use transform="translate(128.203125 38.965625)scale(0.7)" xlink:href="#DejaVuSans-49"/>
       <use transform="translate(172.739258 38.965625)scale(0.7)" xlink:href="#DejaVuSans-53"/>
      </g>
     </g>
    </g>
    <g id="ytick_7">
     <g id="line2d_13">
      <g>
       <use style="stroke:#000000;stroke-width:0.8;" x="54" xlink:href="#m23255eb8e1" y="37.165209"/>
      </g>
     </g>
     <g id="text_14">
      <!-- $\mathdefault{10^{17}}$ -->
      <g transform="translate(24.9 40.964428)scale(0.1 -0.1)">
       <use transform="translate(0 0.684375)" xlink:href="#DejaVuSans-49"/>
       <use transform="translate(63.623047 0.684375)" xlink:href="#DejaVuSans-48"/>
       <use transform="translate(128.203125 38.965625)scale(0.7)" xlink:href="#DejaVuSans-49"/>
       <use transform="translate(172.739258 38.965625)scale(0.7)" xlink:href="#DejaVuSans-55"/>
      </g>
     </g>
    </g>
    <g id="text_15">
     <!-- Convergence -->
     <g transform="translate(18.820312 176.24875)rotate(-90)scale(0.1 -0.1)">
      <defs>
       <path d="M 64.40625 67.28125 
L 64.40625 56.890625 
Q 59.421875 61.53125 53.78125 63.8125 
Q 48.140625 66.109375 41.796875 66.109375 
Q 29.296875 66.109375 22.65625 58.46875 
Q 16.015625 50.828125 16.015625 36.375 
Q 16.015625 21.96875 22.65625 14.328125 
Q 29.296875 6.6875 41.796875 6.6875 
Q 48.140625 6.6875 53.78125 8.984375 
Q 59.421875 11.28125 64.40625 15.921875 
L 64.40625 5.609375 
Q 59.234375 2.09375 53.4375 0.328125 
Q 47.65625 -1.421875 41.21875 -1.421875 
Q 24.65625 -1.421875 15.125 8.703125 
Q 5.609375 18.84375 5.609375 36.375 
Q 5.609375 53.953125 15.125 64.078125 
Q 24.65625 74.21875 41.21875 74.21875 
Q 47.75 74.21875 53.53125 72.484375 
Q 59.328125 70.75 64.40625 67.28125 
z
" id="DejaVuSans-67"/>
       <path d="M 45.40625 27.984375 
Q 45.40625 37.75 41.375 43.109375 
Q 37.359375 48.484375 30.078125 48.484375 
Q 22.859375 48.484375 18.828125 43.109375 
Q 14.796875 37.75 14.796875 27.984375 
Q 14.796875 18.265625 18.828125 12.890625 
Q 22.859375 7.515625 30.078125 7.515625 
Q 37.359375 7.515625 41.375 12.890625 
Q 45.40625 18.265625 45.40625 27.984375 
z
M 54.390625 6.78125 
Q 54.390625 -7.171875 48.1875 -13.984375 
Q 42 -20.796875 29.203125 -20.796875 
Q 24.46875 -20.796875 20.265625 -20.09375 
Q 16.0625 -19.390625 12.109375 -17.921875 
L 12.109375 -9.1875 
Q 16.0625 -11.328125 19.921875 -12.34375 
Q 23.78125 -13.375 27.78125 -13.375 
Q 36.625 -13.375 41.015625 -8.765625 
Q 45.40625 -4.15625 45.40625 5.171875 
L 45.40625 9.625 
Q 42.625 4.78125 38.28125 2.390625 
Q 33.9375 0 27.875 0 
Q 17.828125 0 11.671875 7.65625 
Q 5.515625 15.328125 5.515625 27.984375 
Q 5.515625 40.671875 11.671875 48.328125 
Q 17.828125 56 27.875 56 
Q 33.9375 56 38.28125 53.609375 
Q 42.625 51.21875 45.40625 46.390625 
L 45.40625 54.6875 
L 54.390625 54.6875 
z
" id="DejaVuSans-103"/>
      </defs>
      <use xlink:href="#DejaVuSans-67"/>
      <use x="69.824219" xlink:href="#DejaVuSans-111"/>
      <use x="131.005859" xlink:href="#DejaVuSans-110"/>
      <use x="194.384766" xlink:href="#DejaVuSans-118"/>
      <use x="253.564453" xlink:href="#DejaVuSans-101"/>
      <use x="315.087891" xlink:href="#DejaVuSans-114"/>
      <use x="354.451172" xlink:href="#DejaVuSans-103"/>
      <use x="417.927734" xlink:href="#DejaVuSans-101"/>
      <use x="479.451172" xlink:href="#DejaVuSans-110"/>
      <use x="542.830078" xlink:href="#DejaVuSans-99"/>
      <use x="597.810547" xlink:href="#DejaVuSans-101"/>
     </g>
    </g>
   </g>
   <g id="line2d_14">
    <path clip-path="url(#p87b88e8bcf)" d="M 69.218182 44.443636 
L 72.292562 44.443636 
L 72.292562 46.809973 
L 75.366942 46.809973 
L 75.366942 49.02426 
L 78.441322 49.02426 
L 78.441322 51.179351 
L 81.515702 51.179351 
L 81.515702 53.311568 
L 84.590083 53.311568 
L 84.590083 55.435016 
L 87.664463 55.435016 
L 87.664463 57.555102 
L 90.738843 57.555102 
L 90.738843 59.673743 
L 93.813223 59.673743 
L 93.813223 61.785676 
L 96.887603 61.785676 
L 96.887603 63.90376 
L 99.961983 63.90376 
L 99.961983 66.021752 
L 103.036364 66.021752 
L 103.036364 68.07732 
L 106.110744 68.07732 
L 106.110744 69.746961 
L 109.185124 69.746961 
L 109.185124 71.092195 
L 112.259504 71.092195 
L 112.259504 72.239194 
L 115.333884 72.239194 
L 115.333884 73.264127 
L 118.408264 73.264127 
L 118.408264 74.21552 
L 121.482645 74.21552 
L 121.482645 75.122447 
L 124.557025 75.122447 
L 124.557025 76.00256 
L 127.631405 76.00256 
L 127.631405 76.866629 
L 130.705785 76.866629 
L 130.705785 77.720695 
L 133.780165 77.720695 
L 133.780165 78.568982 
L 136.854545 78.568982 
L 136.854545 79.413672 
L 139.928926 79.413672 
L 139.928926 80.256332 
L 143.003306 80.256332 
L 143.003306 81.097559 
L 146.077686 81.097559 
L 146.077686 81.937817 
L 149.152066 81.937817 
L 149.152066 82.777445 
L 152.226446 82.777445 
L 152.226446 83.618665 
L 155.300826 83.618665 
L 155.300826 84.459698 
L 158.375207 84.459698 
L 158.375207 85.300591 
L 161.449587 85.300591 
L 161.449587 86.141387 
L 164.523967 86.141387 
L 164.523967 86.982107 
L 167.598347 86.982107 
L 167.598347 87.822764 
L 170.672727 87.822764 
L 170.672727 88.663363 
L 173.747107 88.663363 
L 173.747107 89.504153 
L 176.821488 89.504153 
L 176.821488 90.34493 
L 179.895868 90.34493 
L 179.895868 91.185683 
L 182.970248 91.185683 
L 182.970248 92.026428 
L 186.044628 92.026428 
L 186.044628 92.867176 
L 189.119008 92.867176 
L 189.119008 93.707915 
L 192.193388 93.707915 
L 192.193388 94.548847 
L 195.267769 94.548847 
L 195.267769 95.389552 
L 198.342149 95.389552 
L 198.342149 96.230232 
L 201.416529 96.230232 
L 201.416529 97.071049 
L 204.490909 97.071049 
L 204.490909 97.911699 
L 207.565289 97.911699 
L 207.565289 98.752334 
L 210.639669 98.752334 
L 210.639669 99.593023 
L 213.71405 99.593023 
L 213.71405 100.433666 
L 216.78843 100.433666 
L 216.78843 101.274168 
L 219.86281 101.274168 
L 219.86281 102.114814 
L 222.93719 102.114814 
L 222.93719 102.95541 
L 226.01157 102.95541 
L 226.01157 103.795956 
L 229.08595 103.795956 
L 229.08595 104.636447 
L 232.160331 104.636447 
L 232.160331 105.476865 
L 235.234711 105.476865 
L 235.234711 106.317224 
L 238.309091 106.317224 
L 238.309091 107.157521 
L 241.383471 107.157521 
L 241.383471 107.997755 
L 244.457851 107.997755 
L 244.457851 108.837922 
L 247.532231 108.837922 
L 247.532231 109.678019 
L 250.606612 109.678019 
L 250.606612 110.518044 
L 253.680992 110.518044 
L 253.680992 111.357995 
L 256.755372 111.357995 
L 256.755372 112.198407 
L 259.829752 112.198407 
L 259.829752 113.038785 
L 262.904132 113.038785 
L 262.904132 113.879129 
L 265.978512 113.879129 
L 265.978512 114.719437 
L 269.052893 114.719437 
L 269.052893 115.559699 
L 272.127273 115.559699 
L 272.127273 116.399863 
L 275.201653 116.399863 
L 275.201653 117.239983 
L 278.276033 117.239983 
L 278.276033 118.080056 
L 281.350413 118.080056 
L 281.350413 118.920078 
L 284.424793 118.920078 
L 284.424793 119.760778 
L 287.499174 119.760778 
L 287.499174 120.601404 
L 290.573554 120.601404 
L 290.573554 121.441952 
L 293.647934 121.441952 
L 293.647934 122.282419 
L 296.722314 122.282419 
L 296.722314 123.1228 
L 299.796694 123.1228 
L 299.796694 123.963091 
L 302.871074 123.963091 
L 302.871074 124.803285 
L 305.945455 124.803285 
L 305.945455 125.643379 
L 309.019835 125.643379 
L 309.019835 126.483367 
L 312.094215 126.483367 
L 312.094215 127.323242 
L 315.168595 127.323242 
L 315.168595 128.162999 
L 318.242975 128.162999 
L 318.242975 129.002631 
L 321.317355 129.002631 
L 321.317355 129.842131 
L 324.391736 129.842131 
L 324.391736 130.681493 
L 327.466116 130.681493 
L 327.466116 131.520708 
L 330.540496 131.520708 
L 330.540496 132.359769 
L 333.614876 132.359769 
L 333.614876 133.198667 
L 336.689256 133.198667 
L 336.689256 134.037393 
L 339.763636 134.037393 
L 339.763636 134.875937 
L 342.838017 134.875937 
L 342.838017 135.714283 
L 345.912397 135.714283 
L 345.912397 136.552463 
L 348.986777 136.552463 
L 348.986777 137.39045 
L 352.061157 137.39045 
L 352.061157 138.228155 
L 355.135537 138.228155 
L 355.135537 139.065629 
L 358.209917 139.065629 
L 358.209917 139.902861 
L 361.284298 139.902861 
L 361.284298 140.739813 
L 364.358678 140.739813 
L 364.358678 141.576253 
L 367.433058 141.576253 
L 367.433058 142.418209 
L 370.507438 142.418209 
L 370.507438 143.254286 
L 373.581818 143.254286 
L 373.581818 144.090033 
L 373.581818 144.090033 
" style="fill:none;stroke:#1e90ff;stroke-dasharray:5.55,2.4;stroke-dashoffset:0;stroke-width:1.5;"/>
   </g>
   <g id="line2d_15">
    <path clip-path="url(#p87b88e8bcf)" d="M 69.218182 44.443636 
L 90.738843 44.443636 
L 90.738843 74.547123 
L 152.226446 74.547123 
L 152.226446 77.536861 
L 170.672727 77.536861 
L 170.672727 82.145355 
L 176.821488 82.145355 
L 176.821488 114.529362 
L 373.581818 114.529362 
L 373.581818 114.529362 
" style="fill:none;stroke:#ff8c00;stroke-dasharray:5.55,2.4;stroke-dashoffset:0;stroke-width:1.5;"/>
   </g>
   <g id="line2d_16">
    <path clip-path="url(#p87b88e8bcf)" d="M 72.292562 44.443636 
L 87.664463 44.444464 
L 87.664463 47.038287 
L 136.854545 47.038287 
L 136.854545 54.251461 
L 143.003306 54.251461 
L 143.003306 68.274946 
L 155.300826 68.274946 
L 155.300826 68.654007 
L 161.449587 68.654007 
L 161.449587 69.810408 
L 167.598347 69.810408 
L 167.598347 69.949682 
L 179.895868 69.949682 
L 179.895868 70.111102 
L 182.970248 70.111102 
L 182.970248 71.070544 
L 186.044628 71.070544 
L 186.044628 73.202116 
L 189.119008 73.202116 
L 189.119008 76.833236 
L 192.193388 76.833236 
L 192.193388 79.834341 
L 195.267769 79.834341 
L 195.267769 82.026763 
L 198.342149 82.026763 
L 198.342149 82.17286 
L 204.490909 82.17286 
L 204.490909 83.114148 
L 207.565289 83.114148 
L 207.565289 85.385647 
L 213.71405 85.385647 
L 213.71405 91.752926 
L 216.78843 91.752926 
L 216.78843 97.846693 
L 219.86281 97.846693 
L 219.86281 102.820455 
L 222.93719 102.820455 
L 222.93719 104.517688 
L 226.01157 104.517688 
L 226.01157 105.003931 
L 229.08595 105.003931 
L 229.08595 105.857349 
L 235.234711 105.857349 
L 235.234711 107.555803 
L 238.309091 107.555803 
L 238.309091 109.103173 
L 241.383471 109.103173 
L 241.383471 111.211449 
L 244.457851 111.211449 
L 244.457851 112.07299 
L 256.755372 112.07299 
L 256.755372 112.729769 
L 259.829752 112.729769 
L 259.829752 119.870138 
L 269.052893 119.870138 
L 269.052893 122.362769 
L 278.276033 122.362769 
L 278.276033 125.143444 
L 287.499174 125.143444 
L 287.499174 127.054353 
L 299.796694 127.054353 
L 299.796694 127.989795 
L 302.871074 127.989795 
L 302.871074 128.451266 
L 312.094215 128.451266 
L 312.094215 128.570701 
L 315.168595 128.570701 
L 315.168595 130.604463 
L 318.242975 130.604463 
L 318.242975 134.434927 
L 330.540496 134.434927 
L 330.540496 136.039525 
L 333.614876 136.039525 
L 333.614876 137.159347 
L 342.838017 137.159347 
L 342.838017 137.971213 
L 345.912397 137.971213 
L 345.912397 138.735638 
L 348.986777 138.735638 
L 348.986777 142.275428 
L 352.061157 142.275428 
L 352.061157 146.591506 
L 355.135537 146.591506 
L 355.135537 162.474493 
L 358.209917 162.474493 
L 358.209917 164.142358 
L 361.284298 164.142358 
L 361.284298 164.714497 
L 364.358678 164.714497 
L 364.358678 168.392361 
L 370.507438 168.392361 
L 370.507438 169.985214 
L 373.581818 169.985214 
L 373.581818 169.985214 
" style="fill:none;stroke:#008000;stroke-dasharray:5.55,2.4;stroke-dashoffset:0;stroke-width:1.5;"/>
   </g>
   <g id="line2d_17">
    <path clip-path="url(#p87b88e8bcf)" d="M 69.218182 44.443636 
L 84.590083 44.443636 
L 84.590083 52.103798 
L 90.738843 52.103798 
L 90.738843 54.990578 
L 96.887603 54.990578 
L 96.887603 59.744298 
L 99.961983 59.744298 
L 99.961983 61.662556 
L 106.110744 61.662556 
L 106.110744 147.930026 
L 149.152066 147.961854 
L 149.152066 152.791986 
L 173.747107 152.798565 
L 173.747107 221.043128 
L 186.044628 221.101614 
L 186.044628 222.471512 
L 195.267769 222.471512 
L 195.267769 224.478068 
L 210.639669 224.478068 
L 210.639669 226.861431 
L 256.755372 226.861431 
L 256.755372 227.663438 
L 293.647934 227.663438 
L 293.647934 228.801906 
L 352.061157 228.801906 
L 352.061157 229.071802 
L 367.433058 229.071802 
L 367.433058 230.513063 
L 370.507438 230.513063 
L 370.507438 231.259991 
L 373.581818 231.259991 
L 373.581818 231.259991 
" style="fill:none;stroke:#ff0000;stroke-dasharray:5.55,2.4;stroke-dashoffset:0;stroke-width:1.5;"/>
   </g>
   <g id="line2d_18">
    <path clip-path="url(#p87b88e8bcf)" d="M 69.218182 44.443636 
L 373.581818 44.443636 
L 373.581818 44.443636 
" style="fill:none;stroke:#9400d3;stroke-dasharray:5.55,2.4;stroke-dashoffset:0;stroke-width:1.5;"/>
   </g>
   <g id="line2d_19">
    <path clip-path="url(#p87b88e8bcf)" d="M 69.218182 44.443636 
L 78.441322 44.443636 
L 78.441322 52.671094 
L 99.961983 52.671094 
L 99.961983 62.698926 
L 106.110744 62.698926 
L 106.110744 66.217491 
L 115.333884 66.217491 
L 115.333884 75.212289 
L 198.342149 75.212289 
L 198.342149 88.289527 
L 238.309091 88.289527 
L 238.309091 93.054138 
L 265.978512 93.054138 
L 265.978512 109.585046 
L 302.871074 109.585046 
L 302.871074 121.854695 
L 373.581818 121.854695 
L 373.581818 121.854695 
" style="fill:none;stroke:#8b4513;stroke-dasharray:5.55,2.4;stroke-dashoffset:0;stroke-width:1.5;"/>
   </g>
   <g id="patch_3">
    <path d="M 54 252 
L 54 34.56 
" style="fill:none;stroke:#000000;stroke-linecap:square;stroke-linejoin:miter;stroke-width:0.8;"/>
   </g>
   <g id="patch_4">
    <path d="M 388.8 252 
L 388.8 34.56 
" style="fill:none;stroke:#000000;stroke-linecap:square;stroke-linejoin:miter;stroke-width:0.8;"/>
   </g>
   <g id="patch_5">
    <path d="M 54 252 
L 388.8 252 
" style="fill:none;stroke:#000000;stroke-linecap:square;stroke-linejoin:miter;stroke-width:0.8;"/>
   </g>
   <g id="patch_6">
    <path d="M 54 34.56 
L 388.8 34.56 
" style="fill:none;stroke:#000000;stroke-linecap:square;stroke-linejoin:miter;stroke-width:0.8;"/>
   </g>
   <g id="legend_1">
    <g id="patch_7">
     <path d="M 61 247 
L 176.904688 247 
Q 178.904688 247 178.904688 245 
L 178.904688 157.375 
Q 178.904688 155.375 176.904688 155.375 
L 61 155.375 
Q 59 155.375 59 157.375 
L 59 245 
Q 59 247 61 247 
z
" style="fill:#ffffff;opacity:0.8;stroke:#cccccc;stroke-linejoin:miter;"/>
    </g>
    <g id="line2d_20">
     <path d="M 63 163.473437 
L 83 163.473437 
" style="fill:none;stroke:#1e90ff;stroke-dasharray:5.55,2.4;stroke-dashoffset:0;stroke-width:1.5;"/>
    </g>
    <g id="line2d_21"/>
    <g id="text_16">
     <!-- ADMM -->
     <g transform="translate(91 166.973437)scale(0.1 -0.1)">
      <defs>
       <path d="M 34.1875 63.1875 
L 20.796875 26.90625 
L 47.609375 26.90625 
z
M 28.609375 72.90625 
L 39.796875 72.90625 
L 67.578125 0 
L 57.328125 0 
L 50.6875 18.703125 
L 17.828125 18.703125 
L 11.1875 0 
L 0.78125 0 
z
" id="DejaVuSans-65"/>
       <path d="M 19.671875 64.796875 
L 19.671875 8.109375 
L 31.59375 8.109375 
Q 46.6875 8.109375 53.6875 14.9375 
Q 60.6875 21.78125 60.6875 36.53125 
Q 60.6875 51.171875 53.6875 57.984375 
Q 46.6875 64.796875 31.59375 64.796875 
z
M 9.8125 72.90625 
L 30.078125 72.90625 
Q 51.265625 72.90625 61.171875 64.09375 
Q 71.09375 55.28125 71.09375 36.53125 
Q 71.09375 17.671875 61.125 8.828125 
Q 51.171875 0 30.078125 0 
L 9.8125 0 
z
" id="DejaVuSans-68"/>
       <path d="M 9.8125 72.90625 
L 24.515625 72.90625 
L 43.109375 23.296875 
L 61.8125 72.90625 
L 76.515625 72.90625 
L 76.515625 0 
L 66.890625 0 
L 66.890625 64.015625 
L 48.09375 14.015625 
L 38.1875 14.015625 
L 19.390625 64.015625 
L 19.390625 0 
L 9.8125 0 
z
" id="DejaVuSans-77"/>
      </defs>
      <use xlink:href="#DejaVuSans-65"/>
      <use x="68.408203" xlink:href="#DejaVuSans-68"/>
      <use x="145.410156" xlink:href="#DejaVuSans-77"/>
      <use x="231.689453" xlink:href="#DejaVuSans-77"/>
     </g>
    </g>
    <g id="line2d_22">
     <path d="M 63 178.151563 
L 83 178.151563 
" style="fill:none;stroke:#ff8c00;stroke-dasharray:5.55,2.4;stroke-dashoffset:0;stroke-width:1.5;"/>
    </g>
    <g id="line2d_23"/>
    <g id="text_17">
     <!-- ADMM_CUATRO -->
     <g transform="translate(91 181.651563)scale(0.1 -0.1)">
      <defs>
       <path d="M 50.984375 -16.609375 
L 50.984375 -23.578125 
L -0.984375 -23.578125 
L -0.984375 -16.609375 
z
" id="DejaVuSans-95"/>
       <path d="M 8.6875 72.90625 
L 18.609375 72.90625 
L 18.609375 28.609375 
Q 18.609375 16.890625 22.84375 11.734375 
Q 27.09375 6.59375 36.625 6.59375 
Q 46.09375 6.59375 50.34375 11.734375 
Q 54.59375 16.890625 54.59375 28.609375 
L 54.59375 72.90625 
L 64.5 72.90625 
L 64.5 27.390625 
Q 64.5 13.140625 57.4375 5.859375 
Q 50.390625 -1.421875 36.625 -1.421875 
Q 22.796875 -1.421875 15.734375 5.859375 
Q 8.6875 13.140625 8.6875 27.390625 
z
" id="DejaVuSans-85"/>
       <path d="M -0.296875 72.90625 
L 61.375 72.90625 
L 61.375 64.59375 
L 35.5 64.59375 
L 35.5 0 
L 25.59375 0 
L 25.59375 64.59375 
L -0.296875 64.59375 
z
" id="DejaVuSans-84"/>
       <path d="M 44.390625 34.1875 
Q 47.5625 33.109375 50.5625 29.59375 
Q 53.5625 26.078125 56.59375 19.921875 
L 66.609375 0 
L 56 0 
L 46.6875 18.703125 
Q 43.0625 26.03125 39.671875 28.421875 
Q 36.28125 30.8125 30.421875 30.8125 
L 19.671875 30.8125 
L 19.671875 0 
L 9.8125 0 
L 9.8125 72.90625 
L 32.078125 72.90625 
Q 44.578125 72.90625 50.734375 67.671875 
Q 56.890625 62.453125 56.890625 51.90625 
Q 56.890625 45.015625 53.6875 40.46875 
Q 50.484375 35.9375 44.390625 34.1875 
z
M 19.671875 64.796875 
L 19.671875 38.921875 
L 32.078125 38.921875 
Q 39.203125 38.921875 42.84375 42.21875 
Q 46.484375 45.515625 46.484375 51.90625 
Q 46.484375 58.296875 42.84375 61.546875 
Q 39.203125 64.796875 32.078125 64.796875 
z
" id="DejaVuSans-82"/>
       <path d="M 39.40625 66.21875 
Q 28.65625 66.21875 22.328125 58.203125 
Q 16.015625 50.203125 16.015625 36.375 
Q 16.015625 22.609375 22.328125 14.59375 
Q 28.65625 6.59375 39.40625 6.59375 
Q 50.140625 6.59375 56.421875 14.59375 
Q 62.703125 22.609375 62.703125 36.375 
Q 62.703125 50.203125 56.421875 58.203125 
Q 50.140625 66.21875 39.40625 66.21875 
z
M 39.40625 74.21875 
Q 54.734375 74.21875 63.90625 63.9375 
Q 73.09375 53.65625 73.09375 36.375 
Q 73.09375 19.140625 63.90625 8.859375 
Q 54.734375 -1.421875 39.40625 -1.421875 
Q 24.03125 -1.421875 14.8125 8.828125 
Q 5.609375 19.09375 5.609375 36.375 
Q 5.609375 53.65625 14.8125 63.9375 
Q 24.03125 74.21875 39.40625 74.21875 
z
" id="DejaVuSans-79"/>
      </defs>
      <use xlink:href="#DejaVuSans-65"/>
      <use x="68.408203" xlink:href="#DejaVuSans-68"/>
      <use x="145.410156" xlink:href="#DejaVuSans-77"/>
      <use x="231.689453" xlink:href="#DejaVuSans-77"/>
      <use x="317.96875" xlink:href="#DejaVuSans-95"/>
      <use x="367.96875" xlink:href="#DejaVuSans-67"/>
      <use x="437.792969" xlink:href="#DejaVuSans-85"/>
      <use x="510.986328" xlink:href="#DejaVuSans-65"/>
      <use x="571.644531" xlink:href="#DejaVuSans-84"/>
      <use x="632.728516" xlink:href="#DejaVuSans-82"/>
      <use x="702.210938" xlink:href="#DejaVuSans-79"/>
     </g>
    </g>
    <g id="line2d_24">
     <path d="M 63 193.107812 
L 83 193.107812 
" style="fill:none;stroke:#008000;stroke-dasharray:5.55,2.4;stroke-dashoffset:0;stroke-width:1.5;"/>
    </g>
    <g id="line2d_25"/>
    <g id="text_18">
     <!-- Py-BOBYQA -->
     <g transform="translate(91 196.607812)scale(0.1 -0.1)">
      <defs>
       <path d="M 19.671875 64.796875 
L 19.671875 37.40625 
L 32.078125 37.40625 
Q 38.96875 37.40625 42.71875 40.96875 
Q 46.484375 44.53125 46.484375 51.125 
Q 46.484375 57.671875 42.71875 61.234375 
Q 38.96875 64.796875 32.078125 64.796875 
z
M 9.8125 72.90625 
L 32.078125 72.90625 
Q 44.34375 72.90625 50.609375 67.359375 
Q 56.890625 61.8125 56.890625 51.125 
Q 56.890625 40.328125 50.609375 34.8125 
Q 44.34375 29.296875 32.078125 29.296875 
L 19.671875 29.296875 
L 19.671875 0 
L 9.8125 0 
z
" id="DejaVuSans-80"/>
       <path d="M 32.171875 -5.078125 
Q 28.375 -14.84375 24.75 -17.8125 
Q 21.140625 -20.796875 15.09375 -20.796875 
L 7.90625 -20.796875 
L 7.90625 -13.28125 
L 13.1875 -13.28125 
Q 16.890625 -13.28125 18.9375 -11.515625 
Q 21 -9.765625 23.484375 -3.21875 
L 25.09375 0.875 
L 2.984375 54.6875 
L 12.5 54.6875 
L 29.59375 11.921875 
L 46.6875 54.6875 
L 56.203125 54.6875 
z
" id="DejaVuSans-121"/>
       <path d="M 4.890625 31.390625 
L 31.203125 31.390625 
L 31.203125 23.390625 
L 4.890625 23.390625 
z
" id="DejaVuSans-45"/>
       <path d="M 19.671875 34.8125 
L 19.671875 8.109375 
L 35.5 8.109375 
Q 43.453125 8.109375 47.28125 11.40625 
Q 51.125 14.703125 51.125 21.484375 
Q 51.125 28.328125 47.28125 31.5625 
Q 43.453125 34.8125 35.5 34.8125 
z
M 19.671875 64.796875 
L 19.671875 42.828125 
L 34.28125 42.828125 
Q 41.5 42.828125 45.03125 45.53125 
Q 48.578125 48.25 48.578125 53.8125 
Q 48.578125 59.328125 45.03125 62.0625 
Q 41.5 64.796875 34.28125 64.796875 
z
M 9.8125 72.90625 
L 35.015625 72.90625 
Q 46.296875 72.90625 52.390625 68.21875 
Q 58.5 63.53125 58.5 54.890625 
Q 58.5 48.1875 55.375 44.234375 
Q 52.25 40.28125 46.1875 39.3125 
Q 53.46875 37.75 57.5 32.78125 
Q 61.53125 27.828125 61.53125 20.40625 
Q 61.53125 10.640625 54.890625 5.3125 
Q 48.25 0 35.984375 0 
L 9.8125 0 
z
" id="DejaVuSans-66"/>
       <path d="M -0.203125 72.90625 
L 10.40625 72.90625 
L 30.609375 42.921875 
L 50.6875 72.90625 
L 61.28125 72.90625 
L 35.5 34.71875 
L 35.5 0 
L 25.59375 0 
L 25.59375 34.71875 
z
" id="DejaVuSans-89"/>
       <path d="M 39.40625 66.21875 
Q 28.65625 66.21875 22.328125 58.203125 
Q 16.015625 50.203125 16.015625 36.375 
Q 16.015625 22.609375 22.328125 14.59375 
Q 28.65625 6.59375 39.40625 6.59375 
Q 50.140625 6.59375 56.421875 14.59375 
Q 62.703125 22.609375 62.703125 36.375 
Q 62.703125 50.203125 56.421875 58.203125 
Q 50.140625 66.21875 39.40625 66.21875 
z
M 53.21875 1.3125 
L 66.21875 -12.890625 
L 54.296875 -12.890625 
L 43.5 -1.21875 
Q 41.890625 -1.3125 41.03125 -1.359375 
Q 40.1875 -1.421875 39.40625 -1.421875 
Q 24.03125 -1.421875 14.8125 8.859375 
Q 5.609375 19.140625 5.609375 36.375 
Q 5.609375 53.65625 14.8125 63.9375 
Q 24.03125 74.21875 39.40625 74.21875 
Q 54.734375 74.21875 63.90625 63.9375 
Q 73.09375 53.65625 73.09375 36.375 
Q 73.09375 23.6875 67.984375 14.640625 
Q 62.890625 5.609375 53.21875 1.3125 
z
" id="DejaVuSans-81"/>
      </defs>
      <use xlink:href="#DejaVuSans-80"/>
      <use x="60.302734" xlink:href="#DejaVuSans-121"/>
      <use x="117.732422" xlink:href="#DejaVuSans-45"/>
      <use x="150.191406" xlink:href="#DejaVuSans-66"/>
      <use x="217.044922" xlink:href="#DejaVuSans-79"/>
      <use x="295.755859" xlink:href="#DejaVuSans-66"/>
      <use x="358.859375" xlink:href="#DejaVuSans-89"/>
      <use x="419.943359" xlink:href="#DejaVuSans-81"/>
      <use x="498.654297" xlink:href="#DejaVuSans-65"/>
     </g>
    </g>
    <g id="line2d_26">
     <path d="M 63 207.785937 
L 83 207.785937 
" style="fill:none;stroke:#ff0000;stroke-dasharray:5.55,2.4;stroke-dashoffset:0;stroke-width:1.5;"/>
    </g>
    <g id="line2d_27"/>
    <g id="text_19">
     <!-- DIRECT-L -->
     <g transform="translate(91 211.285937)scale(0.1 -0.1)">
      <defs>
       <path d="M 9.8125 72.90625 
L 19.671875 72.90625 
L 19.671875 0 
L 9.8125 0 
z
" id="DejaVuSans-73"/>
       <path d="M 9.8125 72.90625 
L 55.90625 72.90625 
L 55.90625 64.59375 
L 19.671875 64.59375 
L 19.671875 43.015625 
L 54.390625 43.015625 
L 54.390625 34.71875 
L 19.671875 34.71875 
L 19.671875 8.296875 
L 56.78125 8.296875 
L 56.78125 0 
L 9.8125 0 
z
" id="DejaVuSans-69"/>
       <path d="M 9.8125 72.90625 
L 19.671875 72.90625 
L 19.671875 8.296875 
L 55.171875 8.296875 
L 55.171875 0 
L 9.8125 0 
z
" id="DejaVuSans-76"/>
      </defs>
      <use xlink:href="#DejaVuSans-68"/>
      <use x="77.001953" xlink:href="#DejaVuSans-73"/>
      <use x="106.494141" xlink:href="#DejaVuSans-82"/>
      <use x="175.976562" xlink:href="#DejaVuSans-69"/>
      <use x="239.160156" xlink:href="#DejaVuSans-67"/>
      <use x="308.984375" xlink:href="#DejaVuSans-84"/>
      <use x="360.943359" xlink:href="#DejaVuSans-45"/>
      <use x="397.027344" xlink:href="#DejaVuSans-76"/>
     </g>
    </g>
    <g id="line2d_28">
     <path d="M 63 222.464063 
L 83 222.464063 
" style="fill:none;stroke:#9400d3;stroke-dasharray:5.55,2.4;stroke-dashoffset:0;stroke-width:1.5;"/>
    </g>
    <g id="line2d_29"/>
    <g id="text_20">
     <!-- ALADIN_CUATRO -->
     <g transform="translate(91 225.964063)scale(0.1 -0.1)">
      <use xlink:href="#DejaVuSans-65"/>
      <use x="68.408203" xlink:href="#DejaVuSans-76"/>
      <use x="126.371094" xlink:href="#DejaVuSans-65"/>
      <use x="194.779297" xlink:href="#DejaVuSans-68"/>
      <use x="271.78125" xlink:href="#DejaVuSans-73"/>
      <use x="301.273438" xlink:href="#DejaVuSans-78"/>
      <use x="376.078125" xlink:href="#DejaVuSans-95"/>
      <use x="426.078125" xlink:href="#DejaVuSans-67"/>
      <use x="495.902344" xlink:href="#DejaVuSans-85"/>
      <use x="569.095703" xlink:href="#DejaVuSans-65"/>
      <use x="629.753906" xlink:href="#DejaVuSans-84"/>
      <use x="690.837891" xlink:href="#DejaVuSans-82"/>
      <use x="760.320312" xlink:href="#DejaVuSans-79"/>
     </g>
    </g>
    <g id="line2d_30">
     <path d="M 63 237.420313 
L 83 237.420313 
" style="fill:none;stroke:#8b4513;stroke-dasharray:5.55,2.4;stroke-dashoffset:0;stroke-width:1.5;"/>
    </g>
    <g id="line2d_31"/>
    <g id="text_21">
     <!-- GPyOpt -->
     <g transform="translate(91 240.920313)scale(0.1 -0.1)">
      <defs>
       <path d="M 59.515625 10.40625 
L 59.515625 29.984375 
L 43.40625 29.984375 
L 43.40625 38.09375 
L 69.28125 38.09375 
L 69.28125 6.78125 
Q 63.578125 2.734375 56.6875 0.65625 
Q 49.8125 -1.421875 42 -1.421875 
Q 24.90625 -1.421875 15.25 8.5625 
Q 5.609375 18.5625 5.609375 36.375 
Q 5.609375 54.25 15.25 64.234375 
Q 24.90625 74.21875 42 74.21875 
Q 49.125 74.21875 55.546875 72.453125 
Q 61.96875 70.703125 67.390625 67.28125 
L 67.390625 56.78125 
Q 61.921875 61.421875 55.765625 63.765625 
Q 49.609375 66.109375 42.828125 66.109375 
Q 29.4375 66.109375 22.71875 58.640625 
Q 16.015625 51.171875 16.015625 36.375 
Q 16.015625 21.625 22.71875 14.15625 
Q 29.4375 6.6875 42.828125 6.6875 
Q 48.046875 6.6875 52.140625 7.59375 
Q 56.25 8.5 59.515625 10.40625 
z
" id="DejaVuSans-71"/>
       <path d="M 18.109375 8.203125 
L 18.109375 -20.796875 
L 9.078125 -20.796875 
L 9.078125 54.6875 
L 18.109375 54.6875 
L 18.109375 46.390625 
Q 20.953125 51.265625 25.265625 53.625 
Q 29.59375 56 35.59375 56 
Q 45.5625 56 51.78125 48.09375 
Q 58.015625 40.1875 58.015625 27.296875 
Q 58.015625 14.40625 51.78125 6.484375 
Q 45.5625 -1.421875 35.59375 -1.421875 
Q 29.59375 -1.421875 25.265625 0.953125 
Q 20.953125 3.328125 18.109375 8.203125 
z
M 48.6875 27.296875 
Q 48.6875 37.203125 44.609375 42.84375 
Q 40.53125 48.484375 33.40625 48.484375 
Q 26.265625 48.484375 22.1875 42.84375 
Q 18.109375 37.203125 18.109375 27.296875 
Q 18.109375 17.390625 22.1875 11.75 
Q 26.265625 6.109375 33.40625 6.109375 
Q 40.53125 6.109375 44.609375 11.75 
Q 48.6875 17.390625 48.6875 27.296875 
z
" id="DejaVuSans-112"/>
      </defs>
      <use xlink:href="#DejaVuSans-71"/>
      <use x="77.490234" xlink:href="#DejaVuSans-80"/>
      <use x="137.792969" xlink:href="#DejaVuSans-121"/>
      <use x="196.972656" xlink:href="#DejaVuSans-79"/>
      <use x="275.683594" xlink:href="#DejaVuSans-112"/>
      <use x="339.160156" xlink:href="#DejaVuSans-116"/>
     </g>
    </g>
   </g>
  </g>
 </g>
 <defs>
  <clipPath id="p87b88e8bcf">
   <rect height="217.44" width="334.8" x="54" y="34.56"/>
  </clipPath>
 </defs>
</svg>
