<?xml version="1.0" encoding="utf-8" standalone="no"?>
<!DOCTYPE svg PUBLIC "-//W3C//DTD SVG 1.1//EN"
  "http://www.w3.org/Graphics/SVG/1.1/DTD/svg11.dtd">
<!-- Created with matplotlib (https://matplotlib.org/) -->
<svg height="288pt" version="1.1" viewBox="0 0 432 288" width="432pt" xmlns="http://www.w3.org/2000/svg" xmlns:xlink="http://www.w3.org/1999/xlink">
 <metadata>
  <rdf:RDF xmlns:cc="http://creativecommons.org/ns#" xmlns:dc="http://purl.org/dc/elements/1.1/" xmlns:rdf="http://www.w3.org/1999/02/22-rdf-syntax-ns#">
   <cc:Work>
    <dc:type rdf:resource="http://purl.org/dc/dcmitype/StillImage"/>
    <dc:date>2022-03-03T02:06:16.910585</dc:date>
    <dc:format>image/svg+xml</dc:format>
    <dc:creator>
     <cc:Agent>
      <dc:title>Matplotlib v3.3.4, https://matplotlib.org/</dc:title>
     </cc:Agent>
    </dc:creator>
   </cc:Work>
  </rdf:RDF>
 </metadata>
 <defs>
  <style type="text/css">*{stroke-linecap:butt;stroke-linejoin:round;}</style>
 </defs>
 <g id="figure_1">
  <g id="patch_1">
   <path d="M 0 288 
L 432 288 
L 432 0 
L 0 0 
z
" style="fill:#ffffff;"/>
  </g>
  <g id="axes_1">
   <g id="patch_2">
    <path d="M 54 252 
L 388.8 252 
L 388.8 34.56 
L 54 34.56 
z
" style="fill:#ffffff;"/>
   </g>
   <g id="PolyCollection_1">
    <defs>
     <path d="M 69.218182 -243.556364 
L 69.218182 -243.556364 
L 72.292562 -243.556364 
L 72.292562 -243.556364 
L 75.366942 -243.556364 
L 75.366942 -243.556364 
L 78.441322 -243.556364 
L 78.441322 -243.556364 
L 81.515702 -243.556364 
L 81.515702 -243.556364 
L 84.590083 -243.556364 
L 84.590083 -243.556364 
L 87.664463 -243.556364 
L 87.664463 -243.556364 
L 90.738843 -243.556364 
L 90.738843 -241.702779 
L 93.813223 -241.702779 
L 93.813223 -241.702779 
L 96.887603 -241.702779 
L 96.887603 -241.702779 
L 99.961983 -241.702779 
L 99.961983 -241.702779 
L 103.036364 -241.702779 
L 103.036364 -203.575105 
L 106.110744 -203.575105 
L 106.110744 -203.575105 
L 109.185124 -203.575105 
L 109.185124 -203.575105 
L 112.259504 -203.575105 
L 112.259504 -203.575105 
L 115.333884 -203.575105 
L 115.333884 -203.575105 
L 118.408264 -203.575105 
L 118.408264 -203.575105 
L 121.482645 -203.575105 
L 121.482645 -203.575105 
L 124.557025 -203.575105 
L 124.557025 -203.575105 
L 127.631405 -203.575105 
L 127.631405 -203.575105 
L 130.705785 -203.575105 
L 130.705785 -203.575105 
L 133.780165 -203.575105 
L 133.780165 -203.575105 
L 136.854545 -203.575105 
L 136.854545 -203.575105 
L 139.928926 -203.575105 
L 139.928926 -203.575105 
L 143.003306 -203.575105 
L 143.003306 -203.575105 
L 146.077686 -203.575105 
L 146.077686 -203.575105 
L 149.152066 -203.575105 
L 149.152066 -203.575105 
L 152.226446 -203.575105 
L 152.226446 -203.575105 
L 155.300826 -203.575105 
L 155.300826 -203.575105 
L 158.375207 -203.575105 
L 158.375207 -203.575105 
L 161.449587 -203.575105 
L 161.449587 -203.575105 
L 164.523967 -203.575105 
L 164.523967 -203.575105 
L 167.598347 -203.575105 
L 167.598347 -203.575105 
L 170.672727 -203.575105 
L 170.672727 -203.575105 
L 173.747107 -203.575105 
L 173.747107 -203.575105 
L 176.821488 -203.575105 
L 176.821488 -203.575105 
L 179.895868 -203.575105 
L 179.895868 -203.575105 
L 182.970248 -203.575105 
L 182.970248 -203.575105 
L 186.044628 -203.575105 
L 186.044628 -203.575105 
L 189.119008 -203.575105 
L 189.119008 -203.575105 
L 192.193388 -203.575105 
L 192.193388 -203.575105 
L 195.267769 -203.575105 
L 195.267769 -203.575105 
L 198.342149 -203.575105 
L 198.342149 -203.575105 
L 201.416529 -203.575105 
L 201.416529 -203.575105 
L 204.490909 -203.575105 
L 204.490909 -203.575105 
L 207.565289 -203.575105 
L 207.565289 -203.575105 
L 210.639669 -203.575105 
L 210.639669 -203.575105 
L 213.71405 -203.575105 
L 213.71405 -203.575105 
L 216.78843 -203.575105 
L 216.78843 -203.575105 
L 219.86281 -203.575105 
L 219.86281 -203.575105 
L 222.93719 -203.575105 
L 222.93719 -203.575105 
L 226.01157 -203.575105 
L 226.01157 -203.575105 
L 229.08595 -203.575105 
L 229.08595 -203.575105 
L 232.160331 -203.575105 
L 232.160331 -203.575105 
L 235.234711 -203.575105 
L 235.234711 -203.575105 
L 238.309091 -203.575105 
L 238.309091 -203.575105 
L 241.383471 -203.575105 
L 241.383471 -203.575105 
L 244.457851 -203.575105 
L 244.457851 -184.588318 
L 247.532231 -184.588318 
L 247.532231 -184.588318 
L 250.606612 -184.588318 
L 250.606612 -184.588318 
L 253.680992 -184.588318 
L 253.680992 -184.588318 
L 256.755372 -184.588318 
L 256.755372 -184.588318 
L 259.829752 -184.588318 
L 259.829752 -184.588318 
L 262.904132 -184.588318 
L 262.904132 -184.588318 
L 265.978512 -184.588318 
L 265.978512 -184.588318 
L 269.052893 -184.588318 
L 269.052893 -184.588318 
L 272.127273 -184.588318 
L 272.127273 -184.588318 
L 275.201653 -184.588318 
L 275.201653 -184.588318 
L 278.276033 -184.588318 
L 278.276033 -184.588318 
L 281.350413 -184.588318 
L 281.350413 -184.588318 
L 284.424793 -184.588318 
L 284.424793 -184.588318 
L 287.499174 -184.588318 
L 287.499174 -184.588318 
L 290.573554 -184.588318 
L 290.573554 -184.588318 
L 293.647934 -184.588318 
L 293.647934 -184.588318 
L 296.722314 -184.588318 
L 296.722314 -184.588318 
L 299.796694 -184.588318 
L 299.796694 -184.588318 
L 302.871074 -184.588318 
L 302.871074 -184.588318 
L 305.945455 -184.588318 
L 305.945455 -184.588318 
L 309.019835 -184.588318 
L 309.019835 -184.588318 
L 312.094215 -184.588318 
L 312.094215 -184.588318 
L 315.168595 -184.588318 
L 315.168595 -184.588318 
L 318.242975 -184.588318 
L 318.242975 -184.588318 
L 321.317355 -184.588318 
L 321.317355 -184.588318 
L 324.391736 -184.588318 
L 324.391736 -184.588318 
L 327.466116 -184.588318 
L 327.466116 -184.588318 
L 330.540496 -184.588318 
L 330.540496 -184.588318 
L 333.614876 -184.588318 
L 333.614876 -184.588318 
L 336.689256 -184.588318 
L 336.689256 -184.588318 
L 339.763636 -184.588318 
L 339.763636 -184.588318 
L 342.838017 -184.588318 
L 342.838017 -184.588318 
L 345.912397 -184.588318 
L 345.912397 -184.588318 
L 348.986777 -184.588318 
L 348.986777 -184.588318 
L 352.061157 -184.588318 
L 352.061157 -184.588318 
L 355.135537 -184.588318 
L 355.135537 -184.588318 
L 358.209917 -184.588318 
L 358.209917 -184.588318 
L 361.284298 -184.588318 
L 361.284298 -184.588318 
L 364.358678 -184.588318 
L 364.358678 -184.588318 
L 367.433058 -184.588318 
L 367.433058 -184.588318 
L 370.507438 -184.588318 
L 370.507438 -184.588318 
L 373.581818 -184.588318 
L 373.581818 -172.115384 
L 373.581818 -172.115384 
L 373.581818 -172.115384 
L 373.581818 -184.588318 
L 370.507438 -184.588318 
L 370.507438 -184.588318 
L 367.433058 -184.588318 
L 367.433058 -184.588318 
L 364.358678 -184.588318 
L 364.358678 -184.588318 
L 361.284298 -184.588318 
L 361.284298 -184.588318 
L 358.209917 -184.588318 
L 358.209917 -184.588318 
L 355.135537 -184.588318 
L 355.135537 -184.588318 
L 352.061157 -184.588318 
L 352.061157 -184.588318 
L 348.986777 -184.588318 
L 348.986777 -184.588318 
L 345.912397 -184.588318 
L 345.912397 -184.588318 
L 342.838017 -184.588318 
L 342.838017 -184.588318 
L 339.763636 -184.588318 
L 339.763636 -184.588318 
L 336.689256 -184.588318 
L 336.689256 -184.588318 
L 333.614876 -184.588318 
L 333.614876 -184.588318 
L 330.540496 -184.588318 
L 330.540496 -184.588318 
L 327.466116 -184.588318 
L 327.466116 -184.588318 
L 324.391736 -184.588318 
L 324.391736 -184.588318 
L 321.317355 -184.588318 
L 321.317355 -184.588318 
L 318.242975 -184.588318 
L 318.242975 -184.588318 
L 315.168595 -184.588318 
L 315.168595 -184.588318 
L 312.094215 -184.588318 
L 312.094215 -184.588318 
L 309.019835 -184.588318 
L 309.019835 -184.588318 
L 305.945455 -184.588318 
L 305.945455 -184.588318 
L 302.871074 -184.588318 
L 302.871074 -184.588318 
L 299.796694 -184.588318 
L 299.796694 -184.588318 
L 296.722314 -184.588318 
L 296.722314 -184.588318 
L 293.647934 -184.588318 
L 293.647934 -184.588318 
L 290.573554 -184.588318 
L 290.573554 -184.588318 
L 287.499174 -184.588318 
L 287.499174 -184.588318 
L 284.424793 -184.588318 
L 284.424793 -184.588318 
L 281.350413 -184.588318 
L 281.350413 -184.588318 
L 278.276033 -184.588318 
L 278.276033 -184.588318 
L 275.201653 -184.588318 
L 275.201653 -184.588318 
L 272.127273 -184.588318 
L 272.127273 -184.588318 
L 269.052893 -184.588318 
L 269.052893 -184.588318 
L 265.978512 -184.588318 
L 265.978512 -184.588318 
L 262.904132 -184.588318 
L 262.904132 -184.588318 
L 259.829752 -184.588318 
L 259.829752 -184.588318 
L 256.755372 -184.588318 
L 256.755372 -184.588318 
L 253.680992 -184.588318 
L 253.680992 -184.588318 
L 250.606612 -184.588318 
L 250.606612 -184.588318 
L 247.532231 -184.588318 
L 247.532231 -184.588318 
L 244.457851 -184.588318 
L 244.457851 -203.575105 
L 241.383471 -203.575105 
L 241.383471 -203.575105 
L 238.309091 -203.575105 
L 238.309091 -203.575105 
L 235.234711 -203.575105 
L 235.234711 -203.575105 
L 232.160331 -203.575105 
L 232.160331 -203.575105 
L 229.08595 -203.575105 
L 229.08595 -203.575105 
L 226.01157 -203.575105 
L 226.01157 -203.575105 
L 222.93719 -203.575105 
L 222.93719 -203.575105 
L 219.86281 -203.575105 
L 219.86281 -203.575105 
L 216.78843 -203.575105 
L 216.78843 -203.575105 
L 213.71405 -203.575105 
L 213.71405 -203.575105 
L 210.639669 -203.575105 
L 210.639669 -203.575105 
L 207.565289 -203.575105 
L 207.565289 -203.575105 
L 204.490909 -203.575105 
L 204.490909 -203.575105 
L 201.416529 -203.575105 
L 201.416529 -203.575105 
L 198.342149 -203.575105 
L 198.342149 -203.575105 
L 195.267769 -203.575105 
L 195.267769 -203.575105 
L 192.193388 -203.575105 
L 192.193388 -203.575105 
L 189.119008 -203.575105 
L 189.119008 -203.575105 
L 186.044628 -203.575105 
L 186.044628 -203.575105 
L 182.970248 -203.575105 
L 182.970248 -203.575105 
L 179.895868 -203.575105 
L 179.895868 -203.575105 
L 176.821488 -203.575105 
L 176.821488 -203.575105 
L 173.747107 -203.575105 
L 173.747107 -203.575105 
L 170.672727 -203.575105 
L 170.672727 -203.575105 
L 167.598347 -203.575105 
L 167.598347 -203.575105 
L 164.523967 -203.575105 
L 164.523967 -203.575105 
L 161.449587 -203.575105 
L 161.449587 -203.575105 
L 158.375207 -203.575105 
L 158.375207 -203.575105 
L 155.300826 -203.575105 
L 155.300826 -203.575105 
L 152.226446 -203.575105 
L 152.226446 -203.575105 
L 149.152066 -203.575105 
L 149.152066 -203.575105 
L 146.077686 -203.575105 
L 146.077686 -203.575105 
L 143.003306 -203.575105 
L 143.003306 -203.575105 
L 139.928926 -203.575105 
L 139.928926 -203.575105 
L 136.854545 -203.575105 
L 136.854545 -203.575105 
L 133.780165 -203.575105 
L 133.780165 -203.575105 
L 130.705785 -203.575105 
L 130.705785 -203.575105 
L 127.631405 -203.575105 
L 127.631405 -203.575105 
L 124.557025 -203.575105 
L 124.557025 -203.575105 
L 121.482645 -203.575105 
L 121.482645 -203.575105 
L 118.408264 -203.575105 
L 118.408264 -203.575105 
L 115.333884 -203.575105 
L 115.333884 -203.575105 
L 112.259504 -203.575105 
L 112.259504 -203.575105 
L 109.185124 -203.575105 
L 109.185124 -203.575105 
L 106.110744 -203.575105 
L 106.110744 -203.575105 
L 103.036364 -203.575105 
L 103.036364 -241.702779 
L 99.961983 -241.702779 
L 99.961983 -241.702779 
L 96.887603 -241.702779 
L 96.887603 -241.702779 
L 93.813223 -241.702779 
L 93.813223 -241.702779 
L 90.738843 -241.702779 
L 90.738843 -243.556364 
L 87.664463 -243.556364 
L 87.664463 -243.556364 
L 84.590083 -243.556364 
L 84.590083 -243.556364 
L 81.515702 -243.556364 
L 81.515702 -243.556364 
L 78.441322 -243.556364 
L 78.441322 -243.556364 
L 75.366942 -243.556364 
L 75.366942 -243.556364 
L 72.292562 -243.556364 
L 72.292562 -243.556364 
L 69.218182 -243.556364 
z
" id="m45215649ea" style="stroke:#ff8c00;stroke-opacity:0.5;"/>
    </defs>
    <g clip-path="url(#pea343ca01b)">
     <use style="fill:#ff8c00;fill-opacity:0.5;stroke:#ff8c00;stroke-opacity:0.5;" x="0" xlink:href="#m45215649ea" y="288"/>
    </g>
   </g>
   <g id="PolyCollection_2">
    <defs>
     <path d="M 69.218182 -243.556364 
L 69.218182 -243.556364 
L 72.292562 -243.556364 
L 72.292562 -243.556364 
L 75.366942 -243.556364 
L 75.366942 -243.556364 
L 78.441322 -243.556364 
L 78.441322 -235.120293 
L 81.515702 -235.120293 
L 81.515702 -235.120293 
L 84.590083 -235.120293 
L 84.590083 -235.120293 
L 87.664463 -235.120293 
L 87.664463 -235.120293 
L 90.738843 -235.120293 
L 90.738843 -235.120293 
L 93.813223 -235.120293 
L 93.813223 -235.120293 
L 96.887603 -235.120293 
L 96.887603 -235.120293 
L 99.961983 -235.120293 
L 99.961983 -235.120293 
L 103.036364 -235.120293 
L 103.036364 -235.120279 
L 106.110744 -235.120279 
L 106.110744 -212.720768 
L 109.185124 -212.720768 
L 109.185124 -212.720768 
L 112.259504 -212.720768 
L 112.259504 -212.720768 
L 115.333884 -212.720768 
L 115.333884 -212.720695 
L 118.408264 -212.720695 
L 118.408264 -207.712422 
L 121.482645 -207.712422 
L 121.482645 -207.712422 
L 124.557025 -207.712422 
L 124.557025 -207.712422 
L 127.631405 -207.712422 
L 127.631405 -207.712422 
L 130.705785 -207.712422 
L 130.705785 -207.712323 
L 133.780165 -207.712323 
L 133.780165 -207.712323 
L 136.854545 -207.712323 
L 136.854545 -207.712323 
L 139.928926 -207.712323 
L 139.928926 -207.712323 
L 143.003306 -207.712323 
L 143.003306 -207.712323 
L 146.077686 -207.712323 
L 146.077686 -207.712323 
L 149.152066 -207.712323 
L 149.152066 -207.712323 
L 152.226446 -207.712323 
L 152.226446 -207.712323 
L 155.300826 -207.712323 
L 155.300826 -207.712323 
L 158.375207 -207.712323 
L 158.375207 -207.712323 
L 161.449587 -207.712323 
L 161.449587 -207.712323 
L 164.523967 -207.712323 
L 164.523967 -207.712323 
L 167.598347 -207.712323 
L 167.598347 -186.174943 
L 170.672727 -186.174943 
L 170.672727 -186.174943 
L 173.747107 -186.174943 
L 173.747107 -186.174943 
L 176.821488 -186.174943 
L 176.821488 -186.174943 
L 179.895868 -186.174943 
L 179.895868 -186.174943 
L 182.970248 -186.174943 
L 182.970248 -186.174943 
L 186.044628 -186.174943 
L 186.044628 -186.174913 
L 189.119008 -186.174913 
L 189.119008 -186.174913 
L 192.193388 -186.174913 
L 192.193388 -186.174913 
L 195.267769 -186.174913 
L 195.267769 -186.174913 
L 198.342149 -186.174913 
L 198.342149 -186.174764 
L 201.416529 -186.174764 
L 201.416529 -186.174764 
L 204.490909 -186.174764 
L 204.490909 -186.174603 
L 207.565289 -186.174603 
L 207.565289 -186.174603 
L 210.639669 -186.174603 
L 210.639669 -186.174603 
L 213.71405 -186.174603 
L 213.71405 -186.174603 
L 216.78843 -186.174603 
L 216.78843 -186.174603 
L 219.86281 -186.174603 
L 219.86281 -186.174603 
L 222.93719 -186.174603 
L 222.93719 -186.174603 
L 226.01157 -186.174603 
L 226.01157 -186.174603 
L 229.08595 -186.174603 
L 229.08595 -186.174603 
L 232.160331 -186.174603 
L 232.160331 -186.174603 
L 235.234711 -186.174603 
L 235.234711 -186.174603 
L 238.309091 -186.174603 
L 238.309091 -186.174603 
L 241.383471 -186.174603 
L 241.383471 -186.17445 
L 244.457851 -186.17445 
L 244.457851 -186.17445 
L 247.532231 -186.17445 
L 247.532231 -186.17445 
L 250.606612 -186.17445 
L 250.606612 -186.17445 
L 253.680992 -186.17445 
L 253.680992 -186.17445 
L 256.755372 -186.17445 
L 256.755372 -186.17445 
L 259.829752 -186.17445 
L 259.829752 -173.750016 
L 262.904132 -173.750016 
L 262.904132 -173.750016 
L 265.978512 -173.750016 
L 265.978512 -173.750016 
L 269.052893 -173.750016 
L 269.052893 -173.750016 
L 272.127273 -173.750016 
L 272.127273 -173.749756 
L 275.201653 -173.749756 
L 275.201653 -173.749756 
L 278.276033 -173.749756 
L 278.276033 -173.749756 
L 281.350413 -173.749756 
L 281.350413 -173.749756 
L 284.424793 -173.749756 
L 284.424793 -173.749756 
L 287.499174 -173.749756 
L 287.499174 -173.749756 
L 290.573554 -173.749756 
L 290.573554 -173.749614 
L 293.647934 -173.749614 
L 293.647934 -173.749614 
L 296.722314 -173.749614 
L 296.722314 -173.749614 
L 299.796694 -173.749614 
L 299.796694 -173.749614 
L 302.871074 -173.749614 
L 302.871074 -173.749577 
L 305.945455 -173.749577 
L 305.945455 -173.749577 
L 309.019835 -173.749577 
L 309.019835 -173.749577 
L 312.094215 -173.749577 
L 312.094215 -173.749577 
L 315.168595 -173.749577 
L 315.168595 -173.749577 
L 318.242975 -173.749577 
L 318.242975 -173.749577 
L 321.317355 -173.749577 
L 321.317355 -173.749577 
L 324.391736 -173.749577 
L 324.391736 -173.749577 
L 327.466116 -173.749577 
L 327.466116 -173.749317 
L 330.540496 -173.749317 
L 330.540496 -173.749317 
L 333.614876 -173.749317 
L 333.614876 -173.749317 
L 336.689256 -173.749317 
L 336.689256 -173.749317 
L 339.763636 -173.749317 
L 339.763636 -173.749317 
L 342.838017 -173.749317 
L 342.838017 -173.749317 
L 345.912397 -173.749317 
L 345.912397 -173.749317 
L 348.986777 -173.749317 
L 348.986777 -173.749317 
L 352.061157 -173.749317 
L 352.061157 -173.749182 
L 355.135537 -173.749182 
L 355.135537 -173.749182 
L 358.209917 -173.749182 
L 358.209917 -173.749182 
L 361.284298 -173.749182 
L 361.284298 -173.749182 
L 364.358678 -173.749182 
L 364.358678 -173.749182 
L 367.433058 -173.749182 
L 367.433058 -173.749182 
L 370.507438 -173.749182 
L 370.507438 -168.898104 
L 373.581818 -168.898104 
L 373.581818 -168.898104 
L 373.581818 -207.712323 
L 373.581818 -207.712323 
L 373.581818 -207.712323 
L 370.507438 -207.712323 
L 370.507438 -207.712323 
L 367.433058 -207.712323 
L 367.433058 -207.712323 
L 364.358678 -207.712323 
L 364.358678 -207.712323 
L 361.284298 -207.712323 
L 361.284298 -207.712323 
L 358.209917 -207.712323 
L 358.209917 -221.639375 
L 355.135537 -221.639375 
L 355.135537 -221.639375 
L 352.061157 -221.639375 
L 352.061157 -221.639375 
L 348.986777 -221.639375 
L 348.986777 -221.639375 
L 345.912397 -221.639375 
L 345.912397 -221.639375 
L 342.838017 -221.639375 
L 342.838017 -221.639375 
L 339.763636 -221.639375 
L 339.763636 -221.639375 
L 336.689256 -221.639375 
L 336.689256 -221.639375 
L 333.614876 -221.639375 
L 333.614876 -221.639375 
L 330.540496 -221.639375 
L 330.540496 -221.639375 
L 327.466116 -221.639375 
L 327.466116 -221.639375 
L 324.391736 -221.639375 
L 324.391736 -221.639375 
L 321.317355 -221.639375 
L 321.317355 -221.639379 
L 318.242975 -221.639379 
L 318.242975 -221.639379 
L 315.168595 -221.639379 
L 315.168595 -221.639379 
L 312.094215 -221.639379 
L 312.094215 -221.639379 
L 309.019835 -221.639379 
L 309.019835 -221.639379 
L 305.945455 -221.639379 
L 305.945455 -221.639379 
L 302.871074 -221.639379 
L 302.871074 -221.639379 
L 299.796694 -221.639379 
L 299.796694 -221.639379 
L 296.722314 -221.639379 
L 296.722314 -221.639379 
L 293.647934 -221.639379 
L 293.647934 -221.639385 
L 290.573554 -221.639385 
L 290.573554 -221.639385 
L 287.499174 -221.639385 
L 287.499174 -221.639385 
L 284.424793 -221.639385 
L 284.424793 -221.639385 
L 281.350413 -221.639385 
L 281.350413 -221.639385 
L 278.276033 -221.639385 
L 278.276033 -221.639385 
L 275.201653 -221.639385 
L 275.201653 -221.639385 
L 272.127273 -221.639385 
L 272.127273 -224.036608 
L 269.052893 -224.036608 
L 269.052893 -224.036608 
L 265.978512 -224.036608 
L 265.978512 -224.036608 
L 262.904132 -224.036608 
L 262.904132 -224.036608 
L 259.829752 -224.036608 
L 259.829752 -224.036608 
L 256.755372 -224.036608 
L 256.755372 -224.036608 
L 253.680992 -224.036608 
L 253.680992 -224.036608 
L 250.606612 -224.036608 
L 250.606612 -224.036608 
L 247.532231 -224.036608 
L 247.532231 -224.036608 
L 244.457851 -224.036608 
L 244.457851 -224.036608 
L 241.383471 -224.036608 
L 241.383471 -224.036608 
L 238.309091 -224.036608 
L 238.309091 -224.036608 
L 235.234711 -224.036608 
L 235.234711 -224.036608 
L 232.160331 -224.036608 
L 232.160331 -224.036608 
L 229.08595 -224.036608 
L 229.08595 -224.036618 
L 226.01157 -224.036618 
L 226.01157 -224.036618 
L 222.93719 -224.036618 
L 222.93719 -224.036618 
L 219.86281 -224.036618 
L 219.86281 -224.036618 
L 216.78843 -224.036618 
L 216.78843 -224.036618 
L 213.71405 -224.036618 
L 213.71405 -224.036618 
L 210.639669 -224.036618 
L 210.639669 -224.036618 
L 207.565289 -224.036618 
L 207.565289 -227.998312 
L 204.490909 -227.998312 
L 204.490909 -227.998312 
L 201.416529 -227.998312 
L 201.416529 -227.998312 
L 198.342149 -227.998312 
L 198.342149 -227.998312 
L 195.267769 -227.998312 
L 195.267769 -227.998312 
L 192.193388 -227.998312 
L 192.193388 -227.998312 
L 189.119008 -227.998312 
L 189.119008 -227.998312 
L 186.044628 -227.998312 
L 186.044628 -227.998312 
L 182.970248 -227.998312 
L 182.970248 -227.998312 
L 179.895868 -227.998312 
L 179.895868 -227.998312 
L 176.821488 -227.998312 
L 176.821488 -227.998312 
L 173.747107 -227.998312 
L 173.747107 -227.998312 
L 170.672727 -227.998312 
L 170.672727 -227.998312 
L 167.598347 -227.998312 
L 167.598347 -234.319177 
L 164.523967 -234.319177 
L 164.523967 -234.319177 
L 161.449587 -234.319177 
L 161.449587 -234.319177 
L 158.375207 -234.319177 
L 158.375207 -234.319177 
L 155.300826 -234.319177 
L 155.300826 -234.319177 
L 152.226446 -234.319177 
L 152.226446 -234.319177 
L 149.152066 -234.319177 
L 149.152066 -234.319177 
L 146.077686 -234.319177 
L 146.077686 -234.319177 
L 143.003306 -234.319177 
L 143.003306 -234.319258 
L 139.928926 -234.319258 
L 139.928926 -234.319258 
L 136.854545 -234.319258 
L 136.854545 -234.319258 
L 133.780165 -234.319258 
L 133.780165 -234.319258 
L 130.705785 -234.319258 
L 130.705785 -235.120279 
L 127.631405 -235.120279 
L 127.631405 -235.120279 
L 124.557025 -235.120279 
L 124.557025 -235.120279 
L 121.482645 -235.120279 
L 121.482645 -235.120279 
L 118.408264 -235.120279 
L 118.408264 -235.12028 
L 115.333884 -235.12028 
L 115.333884 -235.12028 
L 112.259504 -235.12028 
L 112.259504 -235.12028 
L 109.185124 -235.12028 
L 109.185124 -235.12028 
L 106.110744 -235.12028 
L 106.110744 -235.120293 
L 103.036364 -235.120293 
L 103.036364 -235.120293 
L 99.961983 -235.120293 
L 99.961983 -235.120293 
L 96.887603 -235.120293 
L 96.887603 -243.556364 
L 93.813223 -243.556364 
L 93.813223 -243.556364 
L 90.738843 -243.556364 
L 90.738843 -243.556364 
L 87.664463 -243.556364 
L 87.664463 -243.556364 
L 84.590083 -243.556364 
L 84.590083 -243.556364 
L 81.515702 -243.556364 
L 81.515702 -243.556364 
L 78.441322 -243.556364 
L 78.441322 -243.556364 
L 75.366942 -243.556364 
L 75.366942 -243.556364 
L 72.292562 -243.556364 
L 72.292562 -243.556364 
L 69.218182 -243.556364 
z
" id="m05b79a413f" style="stroke:#ff0000;stroke-opacity:0.5;"/>
    </defs>
    <g clip-path="url(#pea343ca01b)">
     <use style="fill:#ff0000;fill-opacity:0.5;stroke:#ff0000;stroke-opacity:0.5;" x="0" xlink:href="#m05b79a413f" y="288"/>
    </g>
   </g>
   <g id="PolyCollection_3">
    <defs>
     <path d="M 69.218182 -243.556364 
L 69.218182 -243.556364 
L 72.292562 -243.556364 
L 72.292562 -243.556364 
L 75.366942 -243.556364 
L 75.366942 -243.556364 
L 78.441322 -243.556364 
L 78.441322 -243.556364 
L 81.515702 -243.556364 
L 81.515702 -243.556364 
L 84.590083 -243.556364 
L 84.590083 -243.556364 
L 87.664463 -243.556364 
L 87.664463 -242.991213 
L 90.738843 -242.991213 
L 90.738843 -242.991213 
L 93.813223 -242.991213 
L 93.813223 -242.991213 
L 96.887603 -242.991213 
L 96.887603 -242.991213 
L 99.961983 -242.991213 
L 99.961983 -242.991213 
L 103.036364 -242.991213 
L 103.036364 -242.991213 
L 106.110744 -242.991213 
L 106.110744 -242.991213 
L 109.185124 -242.991213 
L 109.185124 -242.991213 
L 112.259504 -242.991213 
L 112.259504 -242.991213 
L 115.333884 -242.991213 
L 115.333884 -242.991213 
L 118.408264 -242.991213 
L 118.408264 -242.991213 
L 121.482645 -242.991213 
L 121.482645 -242.991213 
L 124.557025 -242.991213 
L 124.557025 -242.991213 
L 127.631405 -242.991213 
L 127.631405 -242.991213 
L 130.705785 -242.991213 
L 130.705785 -242.991213 
L 133.780165 -242.991213 
L 133.780165 -242.991213 
L 136.854545 -242.991213 
L 136.854545 -242.991213 
L 139.928926 -242.991213 
L 139.928926 -242.991213 
L 143.003306 -242.991213 
L 143.003306 -242.991213 
L 146.077686 -242.991213 
L 146.077686 -242.991213 
L 149.152066 -242.991213 
L 149.152066 -242.991213 
L 152.226446 -242.991213 
L 152.226446 -242.991213 
L 155.300826 -242.991213 
L 155.300826 -242.991213 
L 158.375207 -242.991213 
L 158.375207 -242.991213 
L 161.449587 -242.991213 
L 161.449587 -242.991213 
L 164.523967 -242.991213 
L 164.523967 -242.991213 
L 167.598347 -242.991213 
L 167.598347 -242.991213 
L 170.672727 -242.991213 
L 170.672727 -242.991213 
L 173.747107 -242.991213 
L 173.747107 -242.991213 
L 176.821488 -242.991213 
L 176.821488 -242.991213 
L 179.895868 -242.991213 
L 179.895868 -242.991213 
L 182.970248 -242.991213 
L 182.970248 -242.991213 
L 186.044628 -242.991213 
L 186.044628 -242.991213 
L 189.119008 -242.991213 
L 189.119008 -242.991213 
L 192.193388 -242.991213 
L 192.193388 -242.991213 
L 195.267769 -242.991213 
L 195.267769 -242.991213 
L 198.342149 -242.991213 
L 198.342149 -242.991213 
L 201.416529 -242.991213 
L 201.416529 -242.991213 
L 204.490909 -242.991213 
L 204.490909 -242.991213 
L 207.565289 -242.991213 
L 207.565289 -242.991213 
L 210.639669 -242.991213 
L 210.639669 -242.991213 
L 213.71405 -242.991213 
L 213.71405 -242.991213 
L 216.78843 -242.991213 
L 216.78843 -242.991213 
L 219.86281 -242.991213 
L 219.86281 -242.991213 
L 222.93719 -242.991213 
L 222.93719 -242.991213 
L 226.01157 -242.991213 
L 226.01157 -242.991213 
L 229.08595 -242.991213 
L 229.08595 -242.991213 
L 232.160331 -242.991213 
L 232.160331 -242.991213 
L 235.234711 -242.991213 
L 235.234711 -242.991213 
L 238.309091 -242.991213 
L 238.309091 -242.991213 
L 241.383471 -242.991213 
L 241.383471 -242.991213 
L 244.457851 -242.991213 
L 244.457851 -242.991213 
L 247.532231 -242.991213 
L 247.532231 -242.991213 
L 250.606612 -242.991213 
L 250.606612 -242.991213 
L 253.680992 -242.991213 
L 253.680992 -242.991213 
L 256.755372 -242.991213 
L 256.755372 -242.991213 
L 259.829752 -242.991213 
L 259.829752 -242.991213 
L 262.904132 -242.991213 
L 262.904132 -242.991213 
L 265.978512 -242.991213 
L 265.978512 -242.991213 
L 269.052893 -242.991213 
L 269.052893 -242.991213 
L 272.127273 -242.991213 
L 272.127273 -242.991213 
L 275.201653 -242.991213 
L 275.201653 -242.991213 
L 278.276033 -242.991213 
L 278.276033 -242.991213 
L 281.350413 -242.991213 
L 281.350413 -242.991213 
L 284.424793 -242.991213 
L 284.424793 -242.991213 
L 287.499174 -242.991213 
L 287.499174 -242.991213 
L 290.573554 -242.991213 
L 290.573554 -242.991213 
L 293.647934 -242.991213 
L 293.647934 -242.991213 
L 296.722314 -242.991213 
L 296.722314 -242.991213 
L 299.796694 -242.991213 
L 299.796694 -242.991213 
L 302.871074 -242.991213 
L 302.871074 -242.991213 
L 305.945455 -242.991213 
L 305.945455 -242.991213 
L 309.019835 -242.991213 
L 309.019835 -242.991213 
L 312.094215 -242.991213 
L 312.094215 -242.991213 
L 315.168595 -242.991213 
L 315.168595 -242.991213 
L 318.242975 -242.991213 
L 318.242975 -242.991213 
L 321.317355 -242.991213 
L 321.317355 -242.991213 
L 324.391736 -242.991213 
L 324.391736 -242.991213 
L 327.466116 -242.991213 
L 327.466116 -242.991213 
L 330.540496 -242.991213 
L 330.540496 -242.991213 
L 333.614876 -242.991213 
L 333.614876 -242.991213 
L 336.689256 -242.991213 
L 336.689256 -242.991213 
L 339.763636 -242.991213 
L 339.763636 -242.991213 
L 342.838017 -242.991213 
L 342.838017 -242.991213 
L 345.912397 -242.991213 
L 345.912397 -242.991213 
L 348.986777 -242.991213 
L 348.986777 -242.991213 
L 352.061157 -242.991213 
L 352.061157 -242.991213 
L 355.135537 -242.991213 
L 355.135537 -242.991213 
L 358.209917 -242.991213 
L 358.209917 -242.991213 
L 361.284298 -242.991213 
L 361.284298 -242.991213 
L 364.358678 -242.991213 
L 364.358678 -242.991213 
L 367.433058 -242.991213 
L 367.433058 -242.991213 
L 370.507438 -242.991213 
L 370.507438 -242.991213 
L 373.581818 -242.991213 
L 373.581818 -242.991213 
L 373.581818 -242.991213 
L 373.581818 -242.991213 
L 373.581818 -242.991213 
L 370.507438 -242.991213 
L 370.507438 -242.991213 
L 367.433058 -242.991213 
L 367.433058 -242.991213 
L 364.358678 -242.991213 
L 364.358678 -242.991213 
L 361.284298 -242.991213 
L 361.284298 -242.991213 
L 358.209917 -242.991213 
L 358.209917 -242.991213 
L 355.135537 -242.991213 
L 355.135537 -242.991213 
L 352.061157 -242.991213 
L 352.061157 -242.991213 
L 348.986777 -242.991213 
L 348.986777 -242.991213 
L 345.912397 -242.991213 
L 345.912397 -242.991213 
L 342.838017 -242.991213 
L 342.838017 -242.991213 
L 339.763636 -242.991213 
L 339.763636 -242.991213 
L 336.689256 -242.991213 
L 336.689256 -242.991213 
L 333.614876 -242.991213 
L 333.614876 -242.991213 
L 330.540496 -242.991213 
L 330.540496 -242.991213 
L 327.466116 -242.991213 
L 327.466116 -242.991213 
L 324.391736 -242.991213 
L 324.391736 -242.991213 
L 321.317355 -242.991213 
L 321.317355 -242.991213 
L 318.242975 -242.991213 
L 318.242975 -242.991213 
L 315.168595 -242.991213 
L 315.168595 -242.991213 
L 312.094215 -242.991213 
L 312.094215 -242.991213 
L 309.019835 -242.991213 
L 309.019835 -242.991213 
L 305.945455 -242.991213 
L 305.945455 -242.991213 
L 302.871074 -242.991213 
L 302.871074 -242.991213 
L 299.796694 -242.991213 
L 299.796694 -242.991213 
L 296.722314 -242.991213 
L 296.722314 -242.991213 
L 293.647934 -242.991213 
L 293.647934 -242.991213 
L 290.573554 -242.991213 
L 290.573554 -242.991213 
L 287.499174 -242.991213 
L 287.499174 -242.991213 
L 284.424793 -242.991213 
L 284.424793 -242.991213 
L 281.350413 -242.991213 
L 281.350413 -242.991213 
L 278.276033 -242.991213 
L 278.276033 -242.991213 
L 275.201653 -242.991213 
L 275.201653 -242.991213 
L 272.127273 -242.991213 
L 272.127273 -242.991213 
L 269.052893 -242.991213 
L 269.052893 -242.991213 
L 265.978512 -242.991213 
L 265.978512 -242.991213 
L 262.904132 -242.991213 
L 262.904132 -242.991213 
L 259.829752 -242.991213 
L 259.829752 -242.991213 
L 256.755372 -242.991213 
L 256.755372 -242.991213 
L 253.680992 -242.991213 
L 253.680992 -242.991213 
L 250.606612 -242.991213 
L 250.606612 -242.991213 
L 247.532231 -242.991213 
L 247.532231 -242.991213 
L 244.457851 -242.991213 
L 244.457851 -242.991213 
L 241.383471 -242.991213 
L 241.383471 -242.991213 
L 238.309091 -242.991213 
L 238.309091 -242.991213 
L 235.234711 -242.991213 
L 235.234711 -242.991213 
L 232.160331 -242.991213 
L 232.160331 -242.991213 
L 229.08595 -242.991213 
L 229.08595 -242.991213 
L 226.01157 -242.991213 
L 226.01157 -242.991213 
L 222.93719 -242.991213 
L 222.93719 -242.991213 
L 219.86281 -242.991213 
L 219.86281 -242.991213 
L 216.78843 -242.991213 
L 216.78843 -242.991213 
L 213.71405 -242.991213 
L 213.71405 -242.991213 
L 210.639669 -242.991213 
L 210.639669 -242.991213 
L 207.565289 -242.991213 
L 207.565289 -242.991213 
L 204.490909 -242.991213 
L 204.490909 -242.991213 
L 201.416529 -242.991213 
L 201.416529 -242.991213 
L 198.342149 -242.991213 
L 198.342149 -242.991213 
L 195.267769 -242.991213 
L 195.267769 -242.991213 
L 192.193388 -242.991213 
L 192.193388 -242.991213 
L 189.119008 -242.991213 
L 189.119008 -242.991213 
L 186.044628 -242.991213 
L 186.044628 -242.991213 
L 182.970248 -242.991213 
L 182.970248 -242.991213 
L 179.895868 -242.991213 
L 179.895868 -242.991213 
L 176.821488 -242.991213 
L 176.821488 -242.991213 
L 173.747107 -242.991213 
L 173.747107 -242.991213 
L 170.672727 -242.991213 
L 170.672727 -242.991213 
L 167.598347 -242.991213 
L 167.598347 -242.991213 
L 164.523967 -242.991213 
L 164.523967 -242.991213 
L 161.449587 -242.991213 
L 161.449587 -242.991213 
L 158.375207 -242.991213 
L 158.375207 -242.991213 
L 155.300826 -242.991213 
L 155.300826 -242.991213 
L 152.226446 -242.991213 
L 152.226446 -242.991213 
L 149.152066 -242.991213 
L 149.152066 -242.991213 
L 146.077686 -242.991213 
L 146.077686 -242.991213 
L 143.003306 -242.991213 
L 143.003306 -242.991213 
L 139.928926 -242.991213 
L 139.928926 -242.991213 
L 136.854545 -242.991213 
L 136.854545 -242.991213 
L 133.780165 -242.991213 
L 133.780165 -242.991213 
L 130.705785 -242.991213 
L 130.705785 -242.991213 
L 127.631405 -242.991213 
L 127.631405 -242.991213 
L 124.557025 -242.991213 
L 124.557025 -242.991213 
L 121.482645 -242.991213 
L 121.482645 -242.991213 
L 118.408264 -242.991213 
L 118.408264 -242.991213 
L 115.333884 -242.991213 
L 115.333884 -242.991213 
L 112.259504 -242.991213 
L 112.259504 -242.991213 
L 109.185124 -242.991213 
L 109.185124 -242.991213 
L 106.110744 -242.991213 
L 106.110744 -242.991213 
L 103.036364 -242.991213 
L 103.036364 -242.991213 
L 99.961983 -242.991213 
L 99.961983 -242.991213 
L 96.887603 -242.991213 
L 96.887603 -242.991213 
L 93.813223 -242.991213 
L 93.813223 -242.991213 
L 90.738843 -242.991213 
L 90.738843 -242.991213 
L 87.664463 -242.991213 
L 87.664463 -243.556364 
L 84.590083 -243.556364 
L 84.590083 -243.556364 
L 81.515702 -243.556364 
L 81.515702 -243.556364 
L 78.441322 -243.556364 
L 78.441322 -243.556364 
L 75.366942 -243.556364 
L 75.366942 -243.556364 
L 72.292562 -243.556364 
L 72.292562 -243.556364 
L 69.218182 -243.556364 
z
" id="m98c02c3a5d" style="stroke:#9400d3;stroke-opacity:0.5;"/>
    </defs>
    <g clip-path="url(#pea343ca01b)">
     <use style="fill:#9400d3;fill-opacity:0.5;stroke:#9400d3;stroke-opacity:0.5;" x="0" xlink:href="#m98c02c3a5d" y="288"/>
    </g>
   </g>
   <g id="PolyCollection_4">
    <defs>
     <path d="M 69.218182 -243.556364 
L 69.218182 -243.556364 
L 72.292562 -243.556364 
L 72.292562 -243.556364 
L 75.366942 -243.556364 
L 75.366942 -243.556364 
L 78.441322 -243.556364 
L 78.441322 -243.556364 
L 81.515702 -243.556364 
L 81.515702 -243.556364 
L 84.590083 -243.556364 
L 84.590083 -243.556364 
L 87.664463 -243.556364 
L 87.664463 -243.556364 
L 90.738843 -243.556364 
L 90.738843 -243.556364 
L 93.813223 -243.556364 
L 93.813223 -243.556364 
L 96.887603 -243.556364 
L 96.887603 -243.556364 
L 99.961983 -243.556364 
L 99.961983 -243.556364 
L 103.036364 -243.556364 
L 103.036364 -243.556364 
L 106.110744 -243.556364 
L 106.110744 -243.556364 
L 109.185124 -243.556364 
L 109.185124 -243.556364 
L 112.259504 -243.556364 
L 112.259504 -243.556364 
L 115.333884 -243.556364 
L 115.333884 -243.556364 
L 118.408264 -243.556364 
L 118.408264 -243.556364 
L 121.482645 -243.556364 
L 121.482645 -243.556364 
L 124.557025 -243.556364 
L 124.557025 -243.556364 
L 127.631405 -243.556364 
L 127.631405 -242.803116 
L 130.705785 -242.803116 
L 130.705785 -233.903559 
L 133.780165 -233.903559 
L 133.780165 -233.903559 
L 136.854545 -233.903559 
L 136.854545 -233.903559 
L 139.928926 -233.903559 
L 139.928926 -233.903559 
L 143.003306 -233.903559 
L 143.003306 -233.903559 
L 146.077686 -233.903559 
L 146.077686 -233.903559 
L 149.152066 -233.903559 
L 149.152066 -233.903559 
L 152.226446 -233.903559 
L 152.226446 -233.903559 
L 155.300826 -233.903559 
L 155.300826 -233.768404 
L 158.375207 -233.768404 
L 158.375207 -233.768404 
L 161.449587 -233.768404 
L 161.449587 -231.850103 
L 164.523967 -231.850103 
L 164.523967 -231.850103 
L 167.598347 -231.850103 
L 167.598347 -230.027652 
L 170.672727 -230.027652 
L 170.672727 -229.789094 
L 173.747107 -229.789094 
L 173.747107 -229.789094 
L 176.821488 -229.789094 
L 176.821488 -221.481121 
L 179.895868 -221.481121 
L 179.895868 -221.481121 
L 182.970248 -221.481121 
L 182.970248 -221.481121 
L 186.044628 -221.481121 
L 186.044628 -221.481121 
L 189.119008 -221.481121 
L 189.119008 -221.481121 
L 192.193388 -221.481121 
L 192.193388 -207.456999 
L 195.267769 -207.456999 
L 195.267769 -194.566563 
L 198.342149 -194.566563 
L 198.342149 -194.566563 
L 201.416529 -194.566563 
L 201.416529 -194.566563 
L 204.490909 -194.566563 
L 204.490909 -194.566563 
L 207.565289 -194.566563 
L 207.565289 -190.107288 
L 210.639669 -190.107288 
L 210.639669 -190.107288 
L 213.71405 -190.107288 
L 213.71405 -190.107288 
L 216.78843 -190.107288 
L 216.78843 -190.107288 
L 219.86281 -190.107288 
L 219.86281 -190.107288 
L 222.93719 -190.107288 
L 222.93719 -190.107288 
L 226.01157 -190.107288 
L 226.01157 -190.107288 
L 229.08595 -190.107288 
L 229.08595 -190.107288 
L 232.160331 -190.107288 
L 232.160331 -190.107288 
L 235.234711 -190.107288 
L 235.234711 -190.107288 
L 238.309091 -190.107288 
L 238.309091 -190.107288 
L 241.383471 -190.107288 
L 241.383471 -184.859866 
L 244.457851 -184.859866 
L 244.457851 -171.897637 
L 247.532231 -171.897637 
L 247.532231 -171.897637 
L 250.606612 -171.897637 
L 250.606612 -171.897637 
L 253.680992 -171.897637 
L 253.680992 -171.897637 
L 256.755372 -171.897637 
L 256.755372 -163.289651 
L 259.829752 -163.289651 
L 259.829752 -157.2547 
L 262.904132 -157.2547 
L 262.904132 -157.2547 
L 265.978512 -157.2547 
L 265.978512 -157.2547 
L 269.052893 -157.2547 
L 269.052893 -157.2547 
L 272.127273 -157.2547 
L 272.127273 -157.2547 
L 275.201653 -157.2547 
L 275.201653 -141.182044 
L 278.276033 -141.182044 
L 278.276033 -141.182044 
L 281.350413 -141.182044 
L 281.350413 -141.182044 
L 284.424793 -141.182044 
L 284.424793 -141.182044 
L 287.499174 -141.182044 
L 287.499174 -141.182044 
L 290.573554 -141.182044 
L 290.573554 -141.182044 
L 293.647934 -141.182044 
L 293.647934 -141.182044 
L 296.722314 -141.182044 
L 296.722314 -141.182044 
L 299.796694 -141.182044 
L 299.796694 -141.182044 
L 302.871074 -141.182044 
L 302.871074 -141.182044 
L 305.945455 -141.182044 
L 305.945455 -141.182044 
L 309.019835 -141.182044 
L 309.019835 -141.182044 
L 312.094215 -141.182044 
L 312.094215 -141.182044 
L 315.168595 -141.182044 
L 315.168595 -136.803581 
L 318.242975 -136.803581 
L 318.242975 -136.803581 
L 321.317355 -136.803581 
L 321.317355 -136.803581 
L 324.391736 -136.803581 
L 324.391736 -136.803581 
L 327.466116 -136.803581 
L 327.466116 -136.803581 
L 330.540496 -136.803581 
L 330.540496 -136.803581 
L 333.614876 -136.803581 
L 333.614876 -136.803581 
L 336.689256 -136.803581 
L 336.689256 -136.803581 
L 339.763636 -136.803581 
L 339.763636 -136.803581 
L 342.838017 -136.803581 
L 342.838017 -136.803581 
L 345.912397 -136.803581 
L 345.912397 -136.803581 
L 348.986777 -136.803581 
L 348.986777 -136.803581 
L 352.061157 -136.803581 
L 352.061157 -136.803581 
L 355.135537 -136.803581 
L 355.135537 -136.803581 
L 358.209917 -136.803581 
L 358.209917 -136.803581 
L 361.284298 -136.803581 
L 361.284298 -136.803581 
L 364.358678 -136.803581 
L 364.358678 -136.803581 
L 367.433058 -136.803581 
L 367.433058 -136.803581 
L 370.507438 -136.803581 
L 370.507438 -136.803581 
L 373.581818 -136.803581 
L 373.581818 -136.803581 
L 373.581818 -163.923639 
L 373.581818 -163.923639 
L 373.581818 -163.923639 
L 370.507438 -163.923639 
L 370.507438 -163.923639 
L 367.433058 -163.923639 
L 367.433058 -163.923639 
L 364.358678 -163.923639 
L 364.358678 -163.923639 
L 361.284298 -163.923639 
L 361.284298 -164.024234 
L 358.209917 -164.024234 
L 358.209917 -164.024234 
L 355.135537 -164.024234 
L 355.135537 -164.024234 
L 352.061157 -164.024234 
L 352.061157 -164.024234 
L 348.986777 -164.024234 
L 348.986777 -164.024234 
L 345.912397 -164.024234 
L 345.912397 -164.310179 
L 342.838017 -164.310179 
L 342.838017 -164.310179 
L 339.763636 -164.310179 
L 339.763636 -164.310179 
L 336.689256 -164.310179 
L 336.689256 -164.310179 
L 333.614876 -164.310179 
L 333.614876 -164.310179 
L 330.540496 -164.310179 
L 330.540496 -164.310179 
L 327.466116 -164.310179 
L 327.466116 -164.310179 
L 324.391736 -164.310179 
L 324.391736 -164.310179 
L 321.317355 -164.310179 
L 321.317355 -164.310179 
L 318.242975 -164.310179 
L 318.242975 -164.310179 
L 315.168595 -164.310179 
L 315.168595 -164.646061 
L 312.094215 -164.646061 
L 312.094215 -164.646061 
L 309.019835 -164.646061 
L 309.019835 -164.646061 
L 305.945455 -164.646061 
L 305.945455 -164.646061 
L 302.871074 -164.646061 
L 302.871074 -164.646061 
L 299.796694 -164.646061 
L 299.796694 -164.646061 
L 296.722314 -164.646061 
L 296.722314 -171.910453 
L 293.647934 -171.910453 
L 293.647934 -171.910453 
L 290.573554 -171.910453 
L 290.573554 -171.910453 
L 287.499174 -171.910453 
L 287.499174 -171.910453 
L 284.424793 -171.910453 
L 284.424793 -171.946651 
L 281.350413 -171.946651 
L 281.350413 -171.958787 
L 278.276033 -171.958787 
L 278.276033 -171.958787 
L 275.201653 -171.958787 
L 275.201653 -171.958787 
L 272.127273 -171.958787 
L 272.127273 -171.958787 
L 269.052893 -171.958787 
L 269.052893 -171.958787 
L 265.978512 -171.958787 
L 265.978512 -171.958787 
L 262.904132 -171.958787 
L 262.904132 -171.958787 
L 259.829752 -171.958787 
L 259.829752 -194.566563 
L 256.755372 -194.566563 
L 256.755372 -194.566563 
L 253.680992 -194.566563 
L 253.680992 -194.566563 
L 250.606612 -194.566563 
L 250.606612 -194.566563 
L 247.532231 -194.566563 
L 247.532231 -194.566563 
L 244.457851 -194.566563 
L 244.457851 -194.566563 
L 241.383471 -194.566563 
L 241.383471 -194.566563 
L 238.309091 -194.566563 
L 238.309091 -194.566563 
L 235.234711 -194.566563 
L 235.234711 -194.566563 
L 232.160331 -194.566563 
L 232.160331 -194.566563 
L 229.08595 -194.566563 
L 229.08595 -194.566563 
L 226.01157 -194.566563 
L 226.01157 -194.566563 
L 222.93719 -194.566563 
L 222.93719 -194.566563 
L 219.86281 -194.566563 
L 219.86281 -194.566563 
L 216.78843 -194.566563 
L 216.78843 -194.566563 
L 213.71405 -194.566563 
L 213.71405 -194.566563 
L 210.639669 -194.566563 
L 210.639669 -194.566563 
L 207.565289 -194.566563 
L 207.565289 -204.613415 
L 204.490909 -204.613415 
L 204.490909 -210.356303 
L 201.416529 -210.356303 
L 201.416529 -210.356303 
L 198.342149 -210.356303 
L 198.342149 -224.493977 
L 195.267769 -224.493977 
L 195.267769 -224.493977 
L 192.193388 -224.493977 
L 192.193388 -224.493977 
L 189.119008 -224.493977 
L 189.119008 -224.493977 
L 186.044628 -224.493977 
L 186.044628 -233.64698 
L 182.970248 -233.64698 
L 182.970248 -234.839075 
L 179.895868 -234.839075 
L 179.895868 -235.419071 
L 176.821488 -235.419071 
L 176.821488 -235.792614 
L 173.747107 -235.792614 
L 173.747107 -235.792614 
L 170.672727 -235.792614 
L 170.672727 -237.549781 
L 167.598347 -237.549781 
L 167.598347 -237.649031 
L 164.523967 -237.649031 
L 164.523967 -237.649031 
L 161.449587 -237.649031 
L 161.449587 -237.649031 
L 158.375207 -237.649031 
L 158.375207 -237.649031 
L 155.300826 -237.649031 
L 155.300826 -241.216165 
L 152.226446 -241.216165 
L 152.226446 -243.269774 
L 149.152066 -243.269774 
L 149.152066 -243.269774 
L 146.077686 -243.269774 
L 146.077686 -243.269774 
L 143.003306 -243.269774 
L 143.003306 -243.269774 
L 139.928926 -243.269774 
L 139.928926 -243.269774 
L 136.854545 -243.269774 
L 136.854545 -243.269774 
L 133.780165 -243.269774 
L 133.780165 -243.556364 
L 130.705785 -243.556364 
L 130.705785 -243.556364 
L 127.631405 -243.556364 
L 127.631405 -243.556364 
L 124.557025 -243.556364 
L 124.557025 -243.556364 
L 121.482645 -243.556364 
L 121.482645 -243.556364 
L 118.408264 -243.556364 
L 118.408264 -243.556364 
L 115.333884 -243.556364 
L 115.333884 -243.556364 
L 112.259504 -243.556364 
L 112.259504 -243.556364 
L 109.185124 -243.556364 
L 109.185124 -243.556364 
L 106.110744 -243.556364 
L 106.110744 -243.556364 
L 103.036364 -243.556364 
L 103.036364 -243.556364 
L 99.961983 -243.556364 
L 99.961983 -243.556364 
L 96.887603 -243.556364 
L 96.887603 -243.556364 
L 93.813223 -243.556364 
L 93.813223 -243.556364 
L 90.738843 -243.556364 
L 90.738843 -243.556364 
L 87.664463 -243.556364 
L 87.664463 -243.556364 
L 84.590083 -243.556364 
L 84.590083 -243.556364 
L 81.515702 -243.556364 
L 81.515702 -243.556364 
L 78.441322 -243.556364 
L 78.441322 -243.556364 
L 75.366942 -243.556364 
L 75.366942 -243.556364 
L 72.292562 -243.556364 
L 72.292562 -243.556364 
L 69.218182 -243.556364 
z
" id="m14f19dc720" style="stroke:#8b4513;stroke-opacity:0.5;"/>
    </defs>
    <g clip-path="url(#pea343ca01b)">
     <use style="fill:#8b4513;fill-opacity:0.5;stroke:#8b4513;stroke-opacity:0.5;" x="0" xlink:href="#m14f19dc720" y="288"/>
    </g>
   </g>
   <g id="matplotlib.axis_1">
    <g id="xtick_1">
     <g id="line2d_1">
      <defs>
       <path d="M 0 0 
L 0 3.5 
" id="meb3dc7e9b6" style="stroke:#000000;stroke-width:0.8;"/>
      </defs>
      <g>
       <use style="stroke:#000000;stroke-width:0.8;" x="66.143802" xlink:href="#meb3dc7e9b6" y="252"/>
      </g>
     </g>
     <g id="text_1">
      <!-- 0 -->
      <g transform="translate(62.962552 266.598437)scale(0.1 -0.1)">
       <defs>
        <path d="M 31.78125 66.40625 
Q 24.171875 66.40625 20.328125 58.90625 
Q 16.5 51.421875 16.5 36.375 
Q 16.5 21.390625 20.328125 13.890625 
Q 24.171875 6.390625 31.78125 6.390625 
Q 39.453125 6.390625 43.28125 13.890625 
Q 47.125 21.390625 47.125 36.375 
Q 47.125 51.421875 43.28125 58.90625 
Q 39.453125 66.40625 31.78125 66.40625 
z
M 31.78125 74.21875 
Q 44.046875 74.21875 50.515625 64.515625 
Q 56.984375 54.828125 56.984375 36.375 
Q 56.984375 17.96875 50.515625 8.265625 
Q 44.046875 -1.421875 31.78125 -1.421875 
Q 19.53125 -1.421875 13.0625 8.265625 
Q 6.59375 17.96875 6.59375 36.375 
Q 6.59375 54.828125 13.0625 64.515625 
Q 19.53125 74.21875 31.78125 74.21875 
z
" id="DejaVuSans-48"/>
       </defs>
       <use xlink:href="#DejaVuSans-48"/>
      </g>
     </g>
    </g>
    <g id="xtick_2">
     <g id="line2d_2">
      <g>
       <use style="stroke:#000000;stroke-width:0.8;" x="127.631405" xlink:href="#meb3dc7e9b6" y="252"/>
      </g>
     </g>
     <g id="text_2">
      <!-- 20 -->
      <g transform="translate(121.268905 266.598437)scale(0.1 -0.1)">
       <defs>
        <path d="M 19.1875 8.296875 
L 53.609375 8.296875 
L 53.609375 0 
L 7.328125 0 
L 7.328125 8.296875 
Q 12.9375 14.109375 22.625 23.890625 
Q 32.328125 33.6875 34.8125 36.53125 
Q 39.546875 41.84375 41.421875 45.53125 
Q 43.3125 49.21875 43.3125 52.78125 
Q 43.3125 58.59375 39.234375 62.25 
Q 35.15625 65.921875 28.609375 65.921875 
Q 23.96875 65.921875 18.8125 64.3125 
Q 13.671875 62.703125 7.8125 59.421875 
L 7.8125 69.390625 
Q 13.765625 71.78125 18.9375 73 
Q 24.125 74.21875 28.421875 74.21875 
Q 39.75 74.21875 46.484375 68.546875 
Q 53.21875 62.890625 53.21875 53.421875 
Q 53.21875 48.921875 51.53125 44.890625 
Q 49.859375 40.875 45.40625 35.40625 
Q 44.1875 33.984375 37.640625 27.21875 
Q 31.109375 20.453125 19.1875 8.296875 
z
" id="DejaVuSans-50"/>
       </defs>
       <use xlink:href="#DejaVuSans-50"/>
       <use x="63.623047" xlink:href="#DejaVuSans-48"/>
      </g>
     </g>
    </g>
    <g id="xtick_3">
     <g id="line2d_3">
      <g>
       <use style="stroke:#000000;stroke-width:0.8;" x="189.119008" xlink:href="#meb3dc7e9b6" y="252"/>
      </g>
     </g>
     <g id="text_3">
      <!-- 40 -->
      <g transform="translate(182.756508 266.598437)scale(0.1 -0.1)">
       <defs>
        <path d="M 37.796875 64.3125 
L 12.890625 25.390625 
L 37.796875 25.390625 
z
M 35.203125 72.90625 
L 47.609375 72.90625 
L 47.609375 25.390625 
L 58.015625 25.390625 
L 58.015625 17.1875 
L 47.609375 17.1875 
L 47.609375 0 
L 37.796875 0 
L 37.796875 17.1875 
L 4.890625 17.1875 
L 4.890625 26.703125 
z
" id="DejaVuSans-52"/>
       </defs>
       <use xlink:href="#DejaVuSans-52"/>
       <use x="63.623047" xlink:href="#DejaVuSans-48"/>
      </g>
     </g>
    </g>
    <g id="xtick_4">
     <g id="line2d_4">
      <g>
       <use style="stroke:#000000;stroke-width:0.8;" x="250.606612" xlink:href="#meb3dc7e9b6" y="252"/>
      </g>
     </g>
     <g id="text_4">
      <!-- 60 -->
      <g transform="translate(244.244112 266.598437)scale(0.1 -0.1)">
       <defs>
        <path d="M 33.015625 40.375 
Q 26.375 40.375 22.484375 35.828125 
Q 18.609375 31.296875 18.609375 23.390625 
Q 18.609375 15.53125 22.484375 10.953125 
Q 26.375 6.390625 33.015625 6.390625 
Q 39.65625 6.390625 43.53125 10.953125 
Q 47.40625 15.53125 47.40625 23.390625 
Q 47.40625 31.296875 43.53125 35.828125 
Q 39.65625 40.375 33.015625 40.375 
z
M 52.59375 71.296875 
L 52.59375 62.3125 
Q 48.875 64.0625 45.09375 64.984375 
Q 41.3125 65.921875 37.59375 65.921875 
Q 27.828125 65.921875 22.671875 59.328125 
Q 17.53125 52.734375 16.796875 39.40625 
Q 19.671875 43.65625 24.015625 45.921875 
Q 28.375 48.1875 33.59375 48.1875 
Q 44.578125 48.1875 50.953125 41.515625 
Q 57.328125 34.859375 57.328125 23.390625 
Q 57.328125 12.15625 50.6875 5.359375 
Q 44.046875 -1.421875 33.015625 -1.421875 
Q 20.359375 -1.421875 13.671875 8.265625 
Q 6.984375 17.96875 6.984375 36.375 
Q 6.984375 53.65625 15.1875 63.9375 
Q 23.390625 74.21875 37.203125 74.21875 
Q 40.921875 74.21875 44.703125 73.484375 
Q 48.484375 72.75 52.59375 71.296875 
z
" id="DejaVuSans-54"/>
       </defs>
       <use xlink:href="#DejaVuSans-54"/>
       <use x="63.623047" xlink:href="#DejaVuSans-48"/>
      </g>
     </g>
    </g>
    <g id="xtick_5">
     <g id="line2d_5">
      <g>
       <use style="stroke:#000000;stroke-width:0.8;" x="312.094215" xlink:href="#meb3dc7e9b6" y="252"/>
      </g>
     </g>
     <g id="text_5">
      <!-- 80 -->
      <g transform="translate(305.731715 266.598437)scale(0.1 -0.1)">
       <defs>
        <path d="M 31.78125 34.625 
Q 24.75 34.625 20.71875 30.859375 
Q 16.703125 27.09375 16.703125 20.515625 
Q 16.703125 13.921875 20.71875 10.15625 
Q 24.75 6.390625 31.78125 6.390625 
Q 38.8125 6.390625 42.859375 10.171875 
Q 46.921875 13.96875 46.921875 20.515625 
Q 46.921875 27.09375 42.890625 30.859375 
Q 38.875 34.625 31.78125 34.625 
z
M 21.921875 38.8125 
Q 15.578125 40.375 12.03125 44.71875 
Q 8.5 49.078125 8.5 55.328125 
Q 8.5 64.0625 14.71875 69.140625 
Q 20.953125 74.21875 31.78125 74.21875 
Q 42.671875 74.21875 48.875 69.140625 
Q 55.078125 64.0625 55.078125 55.328125 
Q 55.078125 49.078125 51.53125 44.71875 
Q 48 40.375 41.703125 38.8125 
Q 48.828125 37.15625 52.796875 32.3125 
Q 56.78125 27.484375 56.78125 20.515625 
Q 56.78125 9.90625 50.3125 4.234375 
Q 43.84375 -1.421875 31.78125 -1.421875 
Q 19.734375 -1.421875 13.25 4.234375 
Q 6.78125 9.90625 6.78125 20.515625 
Q 6.78125 27.484375 10.78125 32.3125 
Q 14.796875 37.15625 21.921875 38.8125 
z
M 18.3125 54.390625 
Q 18.3125 48.734375 21.84375 45.5625 
Q 25.390625 42.390625 31.78125 42.390625 
Q 38.140625 42.390625 41.71875 45.5625 
Q 45.3125 48.734375 45.3125 54.390625 
Q 45.3125 60.0625 41.71875 63.234375 
Q 38.140625 66.40625 31.78125 66.40625 
Q 25.390625 66.40625 21.84375 63.234375 
Q 18.3125 60.0625 18.3125 54.390625 
z
" id="DejaVuSans-56"/>
       </defs>
       <use xlink:href="#DejaVuSans-56"/>
       <use x="63.623047" xlink:href="#DejaVuSans-48"/>
      </g>
     </g>
    </g>
    <g id="xtick_6">
     <g id="line2d_6">
      <g>
       <use style="stroke:#000000;stroke-width:0.8;" x="373.581818" xlink:href="#meb3dc7e9b6" y="252"/>
      </g>
     </g>
     <g id="text_6">
      <!-- 100 -->
      <g transform="translate(364.038068 266.598437)scale(0.1 -0.1)">
       <defs>
        <path d="M 12.40625 8.296875 
L 28.515625 8.296875 
L 28.515625 63.921875 
L 10.984375 60.40625 
L 10.984375 69.390625 
L 28.421875 72.90625 
L 38.28125 72.90625 
L 38.28125 8.296875 
L 54.390625 8.296875 
L 54.390625 0 
L 12.40625 0 
z
" id="DejaVuSans-49"/>
       </defs>
       <use xlink:href="#DejaVuSans-49"/>
       <use x="63.623047" xlink:href="#DejaVuSans-48"/>
       <use x="127.246094" xlink:href="#DejaVuSans-48"/>
      </g>
     </g>
    </g>
    <g id="text_7">
     <!-- Number of function evaluations -->
     <g transform="translate(142.399219 280.276563)scale(0.1 -0.1)">
      <defs>
       <path d="M 9.8125 72.90625 
L 23.09375 72.90625 
L 55.421875 11.921875 
L 55.421875 72.90625 
L 64.984375 72.90625 
L 64.984375 0 
L 51.703125 0 
L 19.390625 60.984375 
L 19.390625 0 
L 9.8125 0 
z
" id="DejaVuSans-78"/>
       <path d="M 8.5 21.578125 
L 8.5 54.6875 
L 17.484375 54.6875 
L 17.484375 21.921875 
Q 17.484375 14.15625 20.5 10.265625 
Q 23.53125 6.390625 29.59375 6.390625 
Q 36.859375 6.390625 41.078125 11.03125 
Q 45.3125 15.671875 45.3125 23.6875 
L 45.3125 54.6875 
L 54.296875 54.6875 
L 54.296875 0 
L 45.3125 0 
L 45.3125 8.40625 
Q 42.046875 3.421875 37.71875 1 
Q 33.40625 -1.421875 27.6875 -1.421875 
Q 18.265625 -1.421875 13.375 4.4375 
Q 8.5 10.296875 8.5 21.578125 
z
M 31.109375 56 
z
" id="DejaVuSans-117"/>
       <path d="M 52 44.1875 
Q 55.375 50.25 60.0625 53.125 
Q 64.75 56 71.09375 56 
Q 79.640625 56 84.28125 50.015625 
Q 88.921875 44.046875 88.921875 33.015625 
L 88.921875 0 
L 79.890625 0 
L 79.890625 32.71875 
Q 79.890625 40.578125 77.09375 44.375 
Q 74.3125 48.1875 68.609375 48.1875 
Q 61.625 48.1875 57.5625 43.546875 
Q 53.515625 38.921875 53.515625 30.90625 
L 53.515625 0 
L 44.484375 0 
L 44.484375 32.71875 
Q 44.484375 40.625 41.703125 44.40625 
Q 38.921875 48.1875 33.109375 48.1875 
Q 26.21875 48.1875 22.15625 43.53125 
Q 18.109375 38.875 18.109375 30.90625 
L 18.109375 0 
L 9.078125 0 
L 9.078125 54.6875 
L 18.109375 54.6875 
L 18.109375 46.1875 
Q 21.1875 51.21875 25.484375 53.609375 
Q 29.78125 56 35.6875 56 
Q 41.65625 56 45.828125 52.96875 
Q 50 49.953125 52 44.1875 
z
" id="DejaVuSans-109"/>
       <path d="M 48.6875 27.296875 
Q 48.6875 37.203125 44.609375 42.84375 
Q 40.53125 48.484375 33.40625 48.484375 
Q 26.265625 48.484375 22.1875 42.84375 
Q 18.109375 37.203125 18.109375 27.296875 
Q 18.109375 17.390625 22.1875 11.75 
Q 26.265625 6.109375 33.40625 6.109375 
Q 40.53125 6.109375 44.609375 11.75 
Q 48.6875 17.390625 48.6875 27.296875 
z
M 18.109375 46.390625 
Q 20.953125 51.265625 25.265625 53.625 
Q 29.59375 56 35.59375 56 
Q 45.5625 56 51.78125 48.09375 
Q 58.015625 40.1875 58.015625 27.296875 
Q 58.015625 14.40625 51.78125 6.484375 
Q 45.5625 -1.421875 35.59375 -1.421875 
Q 29.59375 -1.421875 25.265625 0.953125 
Q 20.953125 3.328125 18.109375 8.203125 
L 18.109375 0 
L 9.078125 0 
L 9.078125 75.984375 
L 18.109375 75.984375 
z
" id="DejaVuSans-98"/>
       <path d="M 56.203125 29.59375 
L 56.203125 25.203125 
L 14.890625 25.203125 
Q 15.484375 15.921875 20.484375 11.0625 
Q 25.484375 6.203125 34.421875 6.203125 
Q 39.59375 6.203125 44.453125 7.46875 
Q 49.3125 8.734375 54.109375 11.28125 
L 54.109375 2.78125 
Q 49.265625 0.734375 44.1875 -0.34375 
Q 39.109375 -1.421875 33.890625 -1.421875 
Q 20.796875 -1.421875 13.15625 6.1875 
Q 5.515625 13.8125 5.515625 26.8125 
Q 5.515625 40.234375 12.765625 48.109375 
Q 20.015625 56 32.328125 56 
Q 43.359375 56 49.78125 48.890625 
Q 56.203125 41.796875 56.203125 29.59375 
z
M 47.21875 32.234375 
Q 47.125 39.59375 43.09375 43.984375 
Q 39.0625 48.390625 32.421875 48.390625 
Q 24.90625 48.390625 20.390625 44.140625 
Q 15.875 39.890625 15.1875 32.171875 
z
" id="DejaVuSans-101"/>
       <path d="M 41.109375 46.296875 
Q 39.59375 47.171875 37.8125 47.578125 
Q 36.03125 48 33.890625 48 
Q 26.265625 48 22.1875 43.046875 
Q 18.109375 38.09375 18.109375 28.8125 
L 18.109375 0 
L 9.078125 0 
L 9.078125 54.6875 
L 18.109375 54.6875 
L 18.109375 46.1875 
Q 20.953125 51.171875 25.484375 53.578125 
Q 30.03125 56 36.53125 56 
Q 37.453125 56 38.578125 55.875 
Q 39.703125 55.765625 41.0625 55.515625 
z
" id="DejaVuSans-114"/>
       <path id="DejaVuSans-32"/>
       <path d="M 30.609375 48.390625 
Q 23.390625 48.390625 19.1875 42.75 
Q 14.984375 37.109375 14.984375 27.296875 
Q 14.984375 17.484375 19.15625 11.84375 
Q 23.34375 6.203125 30.609375 6.203125 
Q 37.796875 6.203125 41.984375 11.859375 
Q 46.1875 17.53125 46.1875 27.296875 
Q 46.1875 37.015625 41.984375 42.703125 
Q 37.796875 48.390625 30.609375 48.390625 
z
M 30.609375 56 
Q 42.328125 56 49.015625 48.375 
Q 55.71875 40.765625 55.71875 27.296875 
Q 55.71875 13.875 49.015625 6.21875 
Q 42.328125 -1.421875 30.609375 -1.421875 
Q 18.84375 -1.421875 12.171875 6.21875 
Q 5.515625 13.875 5.515625 27.296875 
Q 5.515625 40.765625 12.171875 48.375 
Q 18.84375 56 30.609375 56 
z
" id="DejaVuSans-111"/>
       <path d="M 37.109375 75.984375 
L 37.109375 68.5 
L 28.515625 68.5 
Q 23.6875 68.5 21.796875 66.546875 
Q 19.921875 64.59375 19.921875 59.515625 
L 19.921875 54.6875 
L 34.71875 54.6875 
L 34.71875 47.703125 
L 19.921875 47.703125 
L 19.921875 0 
L 10.890625 0 
L 10.890625 47.703125 
L 2.296875 47.703125 
L 2.296875 54.6875 
L 10.890625 54.6875 
L 10.890625 58.5 
Q 10.890625 67.625 15.140625 71.796875 
Q 19.390625 75.984375 28.609375 75.984375 
z
" id="DejaVuSans-102"/>
       <path d="M 54.890625 33.015625 
L 54.890625 0 
L 45.90625 0 
L 45.90625 32.71875 
Q 45.90625 40.484375 42.875 44.328125 
Q 39.84375 48.1875 33.796875 48.1875 
Q 26.515625 48.1875 22.3125 43.546875 
Q 18.109375 38.921875 18.109375 30.90625 
L 18.109375 0 
L 9.078125 0 
L 9.078125 54.6875 
L 18.109375 54.6875 
L 18.109375 46.1875 
Q 21.34375 51.125 25.703125 53.5625 
Q 30.078125 56 35.796875 56 
Q 45.21875 56 50.046875 50.171875 
Q 54.890625 44.34375 54.890625 33.015625 
z
" id="DejaVuSans-110"/>
       <path d="M 48.78125 52.59375 
L 48.78125 44.1875 
Q 44.96875 46.296875 41.140625 47.34375 
Q 37.3125 48.390625 33.40625 48.390625 
Q 24.65625 48.390625 19.8125 42.84375 
Q 14.984375 37.3125 14.984375 27.296875 
Q 14.984375 17.28125 19.8125 11.734375 
Q 24.65625 6.203125 33.40625 6.203125 
Q 37.3125 6.203125 41.140625 7.25 
Q 44.96875 8.296875 48.78125 10.40625 
L 48.78125 2.09375 
Q 45.015625 0.34375 40.984375 -0.53125 
Q 36.96875 -1.421875 32.421875 -1.421875 
Q 20.0625 -1.421875 12.78125 6.34375 
Q 5.515625 14.109375 5.515625 27.296875 
Q 5.515625 40.671875 12.859375 48.328125 
Q 20.21875 56 33.015625 56 
Q 37.15625 56 41.109375 55.140625 
Q 45.0625 54.296875 48.78125 52.59375 
z
" id="DejaVuSans-99"/>
       <path d="M 18.3125 70.21875 
L 18.3125 54.6875 
L 36.8125 54.6875 
L 36.8125 47.703125 
L 18.3125 47.703125 
L 18.3125 18.015625 
Q 18.3125 11.328125 20.140625 9.421875 
Q 21.96875 7.515625 27.59375 7.515625 
L 36.8125 7.515625 
L 36.8125 0 
L 27.59375 0 
Q 17.1875 0 13.234375 3.875 
Q 9.28125 7.765625 9.28125 18.015625 
L 9.28125 47.703125 
L 2.6875 47.703125 
L 2.6875 54.6875 
L 9.28125 54.6875 
L 9.28125 70.21875 
z
" id="DejaVuSans-116"/>
       <path d="M 9.421875 54.6875 
L 18.40625 54.6875 
L 18.40625 0 
L 9.421875 0 
z
M 9.421875 75.984375 
L 18.40625 75.984375 
L 18.40625 64.59375 
L 9.421875 64.59375 
z
" id="DejaVuSans-105"/>
       <path d="M 2.984375 54.6875 
L 12.5 54.6875 
L 29.59375 8.796875 
L 46.6875 54.6875 
L 56.203125 54.6875 
L 35.6875 0 
L 23.484375 0 
z
" id="DejaVuSans-118"/>
       <path d="M 34.28125 27.484375 
Q 23.390625 27.484375 19.1875 25 
Q 14.984375 22.515625 14.984375 16.5 
Q 14.984375 11.71875 18.140625 8.90625 
Q 21.296875 6.109375 26.703125 6.109375 
Q 34.1875 6.109375 38.703125 11.40625 
Q 43.21875 16.703125 43.21875 25.484375 
L 43.21875 27.484375 
z
M 52.203125 31.203125 
L 52.203125 0 
L 43.21875 0 
L 43.21875 8.296875 
Q 40.140625 3.328125 35.546875 0.953125 
Q 30.953125 -1.421875 24.3125 -1.421875 
Q 15.921875 -1.421875 10.953125 3.296875 
Q 6 8.015625 6 15.921875 
Q 6 25.140625 12.171875 29.828125 
Q 18.359375 34.515625 30.609375 34.515625 
L 43.21875 34.515625 
L 43.21875 35.40625 
Q 43.21875 41.609375 39.140625 45 
Q 35.0625 48.390625 27.6875 48.390625 
Q 23 48.390625 18.546875 47.265625 
Q 14.109375 46.140625 10.015625 43.890625 
L 10.015625 52.203125 
Q 14.9375 54.109375 19.578125 55.046875 
Q 24.21875 56 28.609375 56 
Q 40.484375 56 46.34375 49.84375 
Q 52.203125 43.703125 52.203125 31.203125 
z
" id="DejaVuSans-97"/>
       <path d="M 9.421875 75.984375 
L 18.40625 75.984375 
L 18.40625 0 
L 9.421875 0 
z
" id="DejaVuSans-108"/>
       <path d="M 44.28125 53.078125 
L 44.28125 44.578125 
Q 40.484375 46.53125 36.375 47.5 
Q 32.28125 48.484375 27.875 48.484375 
Q 21.1875 48.484375 17.84375 46.4375 
Q 14.5 44.390625 14.5 40.28125 
Q 14.5 37.15625 16.890625 35.375 
Q 19.28125 33.59375 26.515625 31.984375 
L 29.59375 31.296875 
Q 39.15625 29.25 43.1875 25.515625 
Q 47.21875 21.78125 47.21875 15.09375 
Q 47.21875 7.46875 41.1875 3.015625 
Q 35.15625 -1.421875 24.609375 -1.421875 
Q 20.21875 -1.421875 15.453125 -0.5625 
Q 10.6875 0.296875 5.421875 2 
L 5.421875 11.28125 
Q 10.40625 8.6875 15.234375 7.390625 
Q 20.0625 6.109375 24.8125 6.109375 
Q 31.15625 6.109375 34.5625 8.28125 
Q 37.984375 10.453125 37.984375 14.40625 
Q 37.984375 18.0625 35.515625 20.015625 
Q 33.0625 21.96875 24.703125 23.78125 
L 21.578125 24.515625 
Q 13.234375 26.265625 9.515625 29.90625 
Q 5.8125 33.546875 5.8125 39.890625 
Q 5.8125 47.609375 11.28125 51.796875 
Q 16.75 56 26.8125 56 
Q 31.78125 56 36.171875 55.265625 
Q 40.578125 54.546875 44.28125 53.078125 
z
" id="DejaVuSans-115"/>
      </defs>
      <use xlink:href="#DejaVuSans-78"/>
      <use x="74.804688" xlink:href="#DejaVuSans-117"/>
      <use x="138.183594" xlink:href="#DejaVuSans-109"/>
      <use x="235.595703" xlink:href="#DejaVuSans-98"/>
      <use x="299.072266" xlink:href="#DejaVuSans-101"/>
      <use x="360.595703" xlink:href="#DejaVuSans-114"/>
      <use x="401.708984" xlink:href="#DejaVuSans-32"/>
      <use x="433.496094" xlink:href="#DejaVuSans-111"/>
      <use x="494.677734" xlink:href="#DejaVuSans-102"/>
      <use x="529.882812" xlink:href="#DejaVuSans-32"/>
      <use x="561.669922" xlink:href="#DejaVuSans-102"/>
      <use x="596.875" xlink:href="#DejaVuSans-117"/>
      <use x="660.253906" xlink:href="#DejaVuSans-110"/>
      <use x="723.632812" xlink:href="#DejaVuSans-99"/>
      <use x="778.613281" xlink:href="#DejaVuSans-116"/>
      <use x="817.822266" xlink:href="#DejaVuSans-105"/>
      <use x="845.605469" xlink:href="#DejaVuSans-111"/>
      <use x="906.787109" xlink:href="#DejaVuSans-110"/>
      <use x="970.166016" xlink:href="#DejaVuSans-32"/>
      <use x="1001.953125" xlink:href="#DejaVuSans-101"/>
      <use x="1063.476562" xlink:href="#DejaVuSans-118"/>
      <use x="1122.65625" xlink:href="#DejaVuSans-97"/>
      <use x="1183.935547" xlink:href="#DejaVuSans-108"/>
      <use x="1211.71875" xlink:href="#DejaVuSans-117"/>
      <use x="1275.097656" xlink:href="#DejaVuSans-97"/>
      <use x="1336.376953" xlink:href="#DejaVuSans-116"/>
      <use x="1375.585938" xlink:href="#DejaVuSans-105"/>
      <use x="1403.369141" xlink:href="#DejaVuSans-111"/>
      <use x="1464.550781" xlink:href="#DejaVuSans-110"/>
      <use x="1527.929688" xlink:href="#DejaVuSans-115"/>
     </g>
    </g>
   </g>
   <g id="matplotlib.axis_2">
    <g id="ytick_1">
     <g id="line2d_7">
      <defs>
       <path d="M 0 0 
L -3.5 0 
" id="m4fe3b9378e" style="stroke:#000000;stroke-width:0.8;"/>
      </defs>
      <g>
       <use style="stroke:#000000;stroke-width:0.8;" x="54" xlink:href="#m4fe3b9378e" y="230.82584"/>
      </g>
     </g>
     <g id="text_8">
      <!-- $\mathdefault{10^{5}}$ -->
      <g transform="translate(29.4 234.625058)scale(0.1 -0.1)">
       <defs>
        <path d="M 10.796875 72.90625 
L 49.515625 72.90625 
L 49.515625 64.59375 
L 19.828125 64.59375 
L 19.828125 46.734375 
Q 21.96875 47.46875 24.109375 47.828125 
Q 26.265625 48.1875 28.421875 48.1875 
Q 40.625 48.1875 47.75 41.5 
Q 54.890625 34.8125 54.890625 23.390625 
Q 54.890625 11.625 47.5625 5.09375 
Q 40.234375 -1.421875 26.90625 -1.421875 
Q 22.3125 -1.421875 17.546875 -0.640625 
Q 12.796875 0.140625 7.71875 1.703125 
L 7.71875 11.625 
Q 12.109375 9.234375 16.796875 8.0625 
Q 21.484375 6.890625 26.703125 6.890625 
Q 35.15625 6.890625 40.078125 11.328125 
Q 45.015625 15.765625 45.015625 23.390625 
Q 45.015625 31 40.078125 35.4375 
Q 35.15625 39.890625 26.703125 39.890625 
Q 22.75 39.890625 18.8125 39.015625 
Q 14.890625 38.140625 10.796875 36.28125 
z
" id="DejaVuSans-53"/>
       </defs>
       <use transform="translate(0 0.684375)" xlink:href="#DejaVuSans-49"/>
       <use transform="translate(63.623047 0.684375)" xlink:href="#DejaVuSans-48"/>
       <use transform="translate(128.203125 38.965625)scale(0.7)" xlink:href="#DejaVuSans-53"/>
      </g>
     </g>
    </g>
    <g id="ytick_2">
     <g id="line2d_8">
      <g>
       <use style="stroke:#000000;stroke-width:0.8;" x="54" xlink:href="#m4fe3b9378e" y="200.140741"/>
      </g>
     </g>
     <g id="text_9">
      <!-- $\mathdefault{10^{7}}$ -->
      <g transform="translate(29.4 203.93996)scale(0.1 -0.1)">
       <defs>
        <path d="M 8.203125 72.90625 
L 55.078125 72.90625 
L 55.078125 68.703125 
L 28.609375 0 
L 18.3125 0 
L 43.21875 64.59375 
L 8.203125 64.59375 
z
" id="DejaVuSans-55"/>
       </defs>
       <use transform="translate(0 0.684375)" xlink:href="#DejaVuSans-49"/>
       <use transform="translate(63.623047 0.684375)" xlink:href="#DejaVuSans-48"/>
       <use transform="translate(128.203125 38.965625)scale(0.7)" xlink:href="#DejaVuSans-55"/>
      </g>
     </g>
    </g>
    <g id="ytick_3">
     <g id="line2d_9">
      <g>
       <use style="stroke:#000000;stroke-width:0.8;" x="54" xlink:href="#m4fe3b9378e" y="169.455643"/>
      </g>
     </g>
     <g id="text_10">
      <!-- $\mathdefault{10^{9}}$ -->
      <g transform="translate(29.4 173.254861)scale(0.1 -0.1)">
       <defs>
        <path d="M 10.984375 1.515625 
L 10.984375 10.5 
Q 14.703125 8.734375 18.5 7.8125 
Q 22.3125 6.890625 25.984375 6.890625 
Q 35.75 6.890625 40.890625 13.453125 
Q 46.046875 20.015625 46.78125 33.40625 
Q 43.953125 29.203125 39.59375 26.953125 
Q 35.25 24.703125 29.984375 24.703125 
Q 19.046875 24.703125 12.671875 31.3125 
Q 6.296875 37.9375 6.296875 49.421875 
Q 6.296875 60.640625 12.9375 67.421875 
Q 19.578125 74.21875 30.609375 74.21875 
Q 43.265625 74.21875 49.921875 64.515625 
Q 56.59375 54.828125 56.59375 36.375 
Q 56.59375 19.140625 48.40625 8.859375 
Q 40.234375 -1.421875 26.421875 -1.421875 
Q 22.703125 -1.421875 18.890625 -0.6875 
Q 15.09375 0.046875 10.984375 1.515625 
z
M 30.609375 32.421875 
Q 37.25 32.421875 41.125 36.953125 
Q 45.015625 41.5 45.015625 49.421875 
Q 45.015625 57.28125 41.125 61.84375 
Q 37.25 66.40625 30.609375 66.40625 
Q 23.96875 66.40625 20.09375 61.84375 
Q 16.21875 57.28125 16.21875 49.421875 
Q 16.21875 41.5 20.09375 36.953125 
Q 23.96875 32.421875 30.609375 32.421875 
z
" id="DejaVuSans-57"/>
       </defs>
       <use transform="translate(0 0.765625)" xlink:href="#DejaVuSans-49"/>
       <use transform="translate(63.623047 0.765625)" xlink:href="#DejaVuSans-48"/>
       <use transform="translate(128.203125 39.046875)scale(0.7)" xlink:href="#DejaVuSans-57"/>
      </g>
     </g>
    </g>
    <g id="ytick_4">
     <g id="line2d_10">
      <g>
       <use style="stroke:#000000;stroke-width:0.8;" x="54" xlink:href="#m4fe3b9378e" y="138.770544"/>
      </g>
     </g>
     <g id="text_11">
      <!-- $\mathdefault{10^{11}}$ -->
      <g transform="translate(24.9 142.569763)scale(0.1 -0.1)">
       <use transform="translate(0 0.684375)" xlink:href="#DejaVuSans-49"/>
       <use transform="translate(63.623047 0.684375)" xlink:href="#DejaVuSans-48"/>
       <use transform="translate(128.203125 38.965625)scale(0.7)" xlink:href="#DejaVuSans-49"/>
       <use transform="translate(172.739258 38.965625)scale(0.7)" xlink:href="#DejaVuSans-49"/>
      </g>
     </g>
    </g>
    <g id="ytick_5">
     <g id="line2d_11">
      <g>
       <use style="stroke:#000000;stroke-width:0.8;" x="54" xlink:href="#m4fe3b9378e" y="108.085446"/>
      </g>
     </g>
     <g id="text_12">
      <!-- $\mathdefault{10^{13}}$ -->
      <g transform="translate(24.9 111.884664)scale(0.1 -0.1)">
       <defs>
        <path d="M 40.578125 39.3125 
Q 47.65625 37.796875 51.625 33 
Q 55.609375 28.21875 55.609375 21.1875 
Q 55.609375 10.40625 48.1875 4.484375 
Q 40.765625 -1.421875 27.09375 -1.421875 
Q 22.515625 -1.421875 17.65625 -0.515625 
Q 12.796875 0.390625 7.625 2.203125 
L 7.625 11.71875 
Q 11.71875 9.328125 16.59375 8.109375 
Q 21.484375 6.890625 26.8125 6.890625 
Q 36.078125 6.890625 40.9375 10.546875 
Q 45.796875 14.203125 45.796875 21.1875 
Q 45.796875 27.640625 41.28125 31.265625 
Q 36.765625 34.90625 28.71875 34.90625 
L 20.21875 34.90625 
L 20.21875 43.015625 
L 29.109375 43.015625 
Q 36.375 43.015625 40.234375 45.921875 
Q 44.09375 48.828125 44.09375 54.296875 
Q 44.09375 59.90625 40.109375 62.90625 
Q 36.140625 65.921875 28.71875 65.921875 
Q 24.65625 65.921875 20.015625 65.03125 
Q 15.375 64.15625 9.8125 62.3125 
L 9.8125 71.09375 
Q 15.4375 72.65625 20.34375 73.4375 
Q 25.25 74.21875 29.59375 74.21875 
Q 40.828125 74.21875 47.359375 69.109375 
Q 53.90625 64.015625 53.90625 55.328125 
Q 53.90625 49.265625 50.4375 45.09375 
Q 46.96875 40.921875 40.578125 39.3125 
z
" id="DejaVuSans-51"/>
       </defs>
       <use transform="translate(0 0.765625)" xlink:href="#DejaVuSans-49"/>
       <use transform="translate(63.623047 0.765625)" xlink:href="#DejaVuSans-48"/>
       <use transform="translate(128.203125 39.046875)scale(0.7)" xlink:href="#DejaVuSans-49"/>
       <use transform="translate(172.739258 39.046875)scale(0.7)" xlink:href="#DejaVuSans-51"/>
      </g>
     </g>
    </g>
    <g id="ytick_6">
     <g id="line2d_12">
      <g>
       <use style="stroke:#000000;stroke-width:0.8;" x="54" xlink:href="#m4fe3b9378e" y="77.400347"/>
      </g>
     </g>
     <g id="text_13">
      <!-- $\mathdefault{10^{15}}$ -->
      <g transform="translate(24.9 81.199566)scale(0.1 -0.1)">
       <use transform="translate(0 0.684375)" xlink:href="#DejaVuSans-49"/>
       <use transform="translate(63.623047 0.684375)" xlink:href="#DejaVuSans-48"/>
       <use transform="translate(128.203125 38.965625)scale(0.7)" xlink:href="#DejaVuSans-49"/>
       <use transform="translate(172.739258 38.965625)scale(0.7)" xlink:href="#DejaVuSans-53"/>
      </g>
     </g>
    </g>
    <g id="ytick_7">
     <g id="line2d_13">
      <g>
       <use style="stroke:#000000;stroke-width:0.8;" x="54" xlink:href="#m4fe3b9378e" y="46.715248"/>
      </g>
     </g>
     <g id="text_14">
      <!-- $\mathdefault{10^{17}}$ -->
      <g transform="translate(24.9 50.514467)scale(0.1 -0.1)">
       <use transform="translate(0 0.684375)" xlink:href="#DejaVuSans-49"/>
       <use transform="translate(63.623047 0.684375)" xlink:href="#DejaVuSans-48"/>
       <use transform="translate(128.203125 38.965625)scale(0.7)" xlink:href="#DejaVuSans-49"/>
       <use transform="translate(172.739258 38.965625)scale(0.7)" xlink:href="#DejaVuSans-55"/>
      </g>
     </g>
    </g>
    <g id="text_15">
     <!-- Convergence -->
     <g transform="translate(18.820312 176.24875)rotate(-90)scale(0.1 -0.1)">
      <defs>
       <path d="M 64.40625 67.28125 
L 64.40625 56.890625 
Q 59.421875 61.53125 53.78125 63.8125 
Q 48.140625 66.109375 41.796875 66.109375 
Q 29.296875 66.109375 22.65625 58.46875 
Q 16.015625 50.828125 16.015625 36.375 
Q 16.015625 21.96875 22.65625 14.328125 
Q 29.296875 6.6875 41.796875 6.6875 
Q 48.140625 6.6875 53.78125 8.984375 
Q 59.421875 11.28125 64.40625 15.921875 
L 64.40625 5.609375 
Q 59.234375 2.09375 53.4375 0.328125 
Q 47.65625 -1.421875 41.21875 -1.421875 
Q 24.65625 -1.421875 15.125 8.703125 
Q 5.609375 18.84375 5.609375 36.375 
Q 5.609375 53.953125 15.125 64.078125 
Q 24.65625 74.21875 41.21875 74.21875 
Q 47.75 74.21875 53.53125 72.484375 
Q 59.328125 70.75 64.40625 67.28125 
z
" id="DejaVuSans-67"/>
       <path d="M 45.40625 27.984375 
Q 45.40625 37.75 41.375 43.109375 
Q 37.359375 48.484375 30.078125 48.484375 
Q 22.859375 48.484375 18.828125 43.109375 
Q 14.796875 37.75 14.796875 27.984375 
Q 14.796875 18.265625 18.828125 12.890625 
Q 22.859375 7.515625 30.078125 7.515625 
Q 37.359375 7.515625 41.375 12.890625 
Q 45.40625 18.265625 45.40625 27.984375 
z
M 54.390625 6.78125 
Q 54.390625 -7.171875 48.1875 -13.984375 
Q 42 -20.796875 29.203125 -20.796875 
Q 24.46875 -20.796875 20.265625 -20.09375 
Q 16.0625 -19.390625 12.109375 -17.921875 
L 12.109375 -9.1875 
Q 16.0625 -11.328125 19.921875 -12.34375 
Q 23.78125 -13.375 27.78125 -13.375 
Q 36.625 -13.375 41.015625 -8.765625 
Q 45.40625 -4.15625 45.40625 5.171875 
L 45.40625 9.625 
Q 42.625 4.78125 38.28125 2.390625 
Q 33.9375 0 27.875 0 
Q 17.828125 0 11.671875 7.65625 
Q 5.515625 15.328125 5.515625 27.984375 
Q 5.515625 40.671875 11.671875 48.328125 
Q 17.828125 56 27.875 56 
Q 33.9375 56 38.28125 53.609375 
Q 42.625 51.21875 45.40625 46.390625 
L 45.40625 54.6875 
L 54.390625 54.6875 
z
" id="DejaVuSans-103"/>
      </defs>
      <use xlink:href="#DejaVuSans-67"/>
      <use x="69.824219" xlink:href="#DejaVuSans-111"/>
      <use x="131.005859" xlink:href="#DejaVuSans-110"/>
      <use x="194.384766" xlink:href="#DejaVuSans-118"/>
      <use x="253.564453" xlink:href="#DejaVuSans-101"/>
      <use x="315.087891" xlink:href="#DejaVuSans-114"/>
      <use x="354.451172" xlink:href="#DejaVuSans-103"/>
      <use x="417.927734" xlink:href="#DejaVuSans-101"/>
      <use x="479.451172" xlink:href="#DejaVuSans-110"/>
      <use x="542.830078" xlink:href="#DejaVuSans-99"/>
      <use x="597.810547" xlink:href="#DejaVuSans-101"/>
     </g>
    </g>
   </g>
   <g id="line2d_14">
    <path clip-path="url(#pea343ca01b)" d="M 69.218182 44.443636 
L 72.292562 44.443636 
L 72.292562 46.713657 
L 75.366942 46.713657 
L 75.366942 48.83484 
L 78.441322 48.83484 
L 78.441322 50.896682 
L 81.515702 50.896682 
L 81.515702 52.934073 
L 84.590083 52.934073 
L 84.590083 54.960364 
L 87.664463 54.960364 
L 87.664463 56.980539 
L 90.738843 56.980539 
L 90.738843 58.996576 
L 93.813223 58.996576 
L 93.813223 61.028235 
L 96.887603 61.028235 
L 96.887603 63.059192 
L 99.961983 63.059192 
L 99.961983 65.089604 
L 103.036364 65.089604 
L 103.036364 67.059777 
L 106.110744 67.059777 
L 106.110744 68.659461 
L 109.185124 68.659461 
L 109.185124 69.947484 
L 112.259504 69.947484 
L 112.259504 71.049547 
L 115.333884 71.049547 
L 115.333884 72.035262 
L 118.408264 72.035262 
L 118.408264 72.950407 
L 121.482645 72.950407 
L 121.482645 73.822898 
L 124.557025 73.822898 
L 124.557025 74.669546 
L 127.631405 74.669546 
L 127.631405 75.500682 
L 130.705785 75.500682 
L 130.705785 76.322416 
L 133.780165 76.322416 
L 133.780165 77.138276 
L 136.854545 77.138276 
L 136.854545 77.950607 
L 139.928926 77.950607 
L 139.928926 78.760821 
L 143.003306 78.760821 
L 143.003306 79.569457 
L 146.077686 79.569457 
L 146.077686 80.377139 
L 149.152066 80.377139 
L 149.152066 81.184173 
L 152.226446 81.184173 
L 152.226446 81.990521 
L 155.300826 81.990521 
L 155.300826 82.796278 
L 158.375207 82.796278 
L 158.375207 83.601752 
L 161.449587 83.601752 
L 161.449587 84.406791 
L 164.523967 84.406791 
L 164.523967 85.21161 
L 167.598347 85.21161 
L 167.598347 86.015957 
L 170.672727 86.015957 
L 170.672727 86.81983 
L 173.747107 86.81983 
L 173.747107 87.623223 
L 176.821488 87.623223 
L 176.821488 88.426337 
L 179.895868 88.426337 
L 179.895868 89.229031 
L 182.970248 89.229031 
L 182.970248 90.03127 
L 186.044628 90.03127 
L 186.044628 90.833271 
L 189.119008 90.833271 
L 189.119008 91.634761 
L 192.193388 91.634761 
L 192.193388 92.435724 
L 195.267769 92.435724 
L 195.267769 93.236402 
L 198.342149 93.236402 
L 198.342149 94.036345 
L 201.416529 94.036345 
L 201.416529 94.835717 
L 204.490909 94.835717 
L 204.490909 95.634502 
L 207.565289 95.634502 
L 207.565289 96.432683 
L 210.639669 96.432683 
L 210.639669 97.230242 
L 213.71405 97.230242 
L 213.71405 98.027527 
L 216.78843 98.027527 
L 216.78843 98.824221 
L 219.86281 98.824221 
L 219.86281 99.620272 
L 222.93719 99.620272 
L 222.93719 100.416049 
L 226.01157 100.416049 
L 226.01157 101.211128 
L 229.08595 101.211128 
L 229.08595 102.005487 
L 232.160331 102.005487 
L 232.160331 102.799106 
L 235.234711 102.799106 
L 235.234711 103.591961 
L 238.309091 103.591961 
L 238.309091 104.38403 
L 241.383471 104.38403 
L 241.383471 105.175289 
L 244.457851 105.175289 
L 244.457851 105.965714 
L 247.532231 105.965714 
L 247.532231 106.755279 
L 250.606612 106.755279 
L 250.606612 107.543959 
L 253.680992 107.543959 
L 253.680992 108.331981 
L 256.755372 108.331981 
L 256.755372 109.128847 
L 259.829752 109.128847 
L 259.829752 109.925857 
L 262.904132 109.925857 
L 262.904132 110.722484 
L 265.978512 110.722484 
L 265.978512 111.518762 
L 269.052893 111.518762 
L 269.052893 112.315433 
L 272.127273 112.315433 
L 272.127273 113.119641 
L 275.201653 113.119641 
L 275.201653 113.923664 
L 278.276033 113.923664 
L 278.276033 114.727934 
L 281.350413 114.727934 
L 281.350413 115.531684 
L 284.424793 115.531684 
L 284.424793 116.335649 
L 287.499174 116.335649 
L 287.499174 117.139546 
L 290.573554 117.139546 
L 290.573554 117.943398 
L 293.647934 117.943398 
L 293.647934 118.747163 
L 296.722314 118.747163 
L 296.722314 119.55086 
L 299.796694 119.55086 
L 299.796694 120.354487 
L 302.871074 120.354487 
L 302.871074 121.158042 
L 305.945455 121.158042 
L 305.945455 121.961523 
L 309.019835 121.961523 
L 309.019835 122.764997 
L 312.094215 122.764997 
L 312.094215 123.568418 
L 315.168595 123.568418 
L 315.168595 124.371783 
L 318.242975 124.371783 
L 318.242975 125.17509 
L 321.317355 125.17509 
L 321.317355 125.978336 
L 324.391736 125.978336 
L 324.391736 126.781617 
L 327.466116 126.781617 
L 327.466116 127.584828 
L 330.540496 127.584828 
L 330.540496 128.389013 
L 333.614876 128.389013 
L 333.614876 129.193103 
L 336.689256 129.193103 
L 336.689256 129.997093 
L 339.763636 129.997093 
L 339.763636 130.80098 
L 342.838017 130.80098 
L 342.838017 131.604759 
L 345.912397 131.604759 
L 345.912397 132.408425 
L 348.986777 132.408425 
L 348.986777 133.211973 
L 352.061157 133.211973 
L 352.061157 134.015398 
L 355.135537 134.015398 
L 355.135537 134.818694 
L 358.209917 134.818694 
L 358.209917 135.621857 
L 361.284298 135.621857 
L 361.284298 136.424879 
L 364.358678 136.424879 
L 364.358678 137.227755 
L 367.433058 137.227755 
L 367.433058 138.030478 
L 370.507438 138.030478 
L 370.507438 138.833042 
L 373.581818 138.833042 
L 373.581818 139.635438 
L 373.581818 139.635438 
" style="fill:none;stroke:#1e90ff;stroke-dasharray:5.55,2.4;stroke-dashoffset:0;stroke-width:1.5;"/>
   </g>
   <g id="line2d_15">
    <path clip-path="url(#pea343ca01b)" d="M 69.218182 44.443636 
L 90.738843 44.443636 
L 90.738843 46.297221 
L 103.036364 46.297221 
L 103.036364 84.424895 
L 244.457851 84.424895 
L 244.457851 103.411682 
L 373.581818 103.411682 
L 373.581818 115.884616 
L 373.581818 115.884616 
" style="fill:none;stroke:#ff8c00;stroke-dasharray:5.55,2.4;stroke-dashoffset:0;stroke-width:1.5;"/>
   </g>
   <g id="line2d_16">
    <path clip-path="url(#pea343ca01b)" d="M 72.292562 44.443636 
L 81.515702 44.443636 
L 81.515702 49.260427 
L 106.110744 49.260427 
L 106.110744 59.084241 
L 112.259504 59.084241 
L 112.259504 64.805252 
L 121.482645 64.805252 
L 121.482645 65.139243 
L 130.705785 65.152325 
L 130.705785 75.820903 
L 133.780165 75.820903 
L 133.780165 120.227588 
L 152.226446 120.227588 
L 152.226446 122.251339 
L 155.300826 122.251339 
L 155.300826 142.802397 
L 164.523967 142.802397 
L 164.523967 146.143481 
L 173.747107 146.143481 
L 173.747107 156.635186 
L 176.821488 156.635186 
L 176.821488 164.165529 
L 179.895868 164.165529 
L 179.895868 178.653103 
L 182.970248 178.653103 
L 182.970248 179.039877 
L 186.044628 179.039877 
L 186.044628 210.802738 
L 201.416529 210.802738 
L 201.416529 237.40754 
L 213.71405 237.40754 
L 213.71405 238.353005 
L 219.86281 238.353005 
L 219.86281 240.931035 
L 222.93719 240.931035 
L 222.93719 241.046041 
L 229.08595 241.046041 
L 229.08595 241.704391 
L 250.606612 241.797554 
L 250.606612 241.91298 
L 361.284298 241.993152 
L 361.284298 242.116364 
L 373.581818 242.116364 
L 373.581818 242.116364 
" style="fill:none;stroke:#008000;stroke-dasharray:5.55,2.4;stroke-dashoffset:0;stroke-width:1.5;"/>
   </g>
   <g id="line2d_17">
    <path clip-path="url(#pea343ca01b)" d="M 69.218182 44.443636 
L 84.590083 44.443636 
L 84.590083 47.407254 
L 90.738843 47.407254 
L 90.738843 52.879707 
L 118.408264 52.906953 
L 118.408264 58.043705 
L 130.705785 58.043705 
L 130.705785 77.323565 
L 143.003306 77.323595 
L 143.003306 80.287671 
L 204.490909 80.287722 
L 204.490909 101.825057 
L 278.276033 101.825517 
L 278.276033 105.484185 
L 284.424793 105.484185 
L 284.424793 114.249667 
L 373.581818 114.250429 
L 373.581818 114.250472 
" style="fill:none;stroke:#ff0000;stroke-dasharray:5.55,2.4;stroke-dashoffset:0;stroke-width:1.5;"/>
   </g>
   <g id="line2d_18">
    <path clip-path="url(#pea343ca01b)" d="M 69.218182 44.443636 
L 87.664463 44.443636 
L 87.664463 45.008787 
L 373.581818 45.008787 
L 373.581818 45.008787 
" style="fill:none;stroke:#9400d3;stroke-dasharray:5.55,2.4;stroke-dashoffset:0;stroke-width:1.5;"/>
   </g>
   <g id="line2d_19">
    <path clip-path="url(#pea343ca01b)" d="M 69.218182 44.443636 
L 133.780165 44.443636 
L 133.780165 44.730226 
L 152.226446 44.730226 
L 152.226446 46.783835 
L 155.300826 46.783835 
L 155.300826 50.350969 
L 170.672727 50.450219 
L 170.672727 52.207386 
L 176.821488 52.207386 
L 176.821488 52.580929 
L 179.895868 52.580929 
L 179.895868 53.160925 
L 182.970248 53.160925 
L 182.970248 54.353021 
L 186.044628 54.353021 
L 186.044628 63.506025 
L 198.342149 63.506025 
L 198.342149 77.646973 
L 204.490909 77.646973 
L 204.490909 83.402533 
L 207.565289 83.402533 
L 207.565289 97.891809 
L 241.383471 97.891809 
L 241.383471 103.110556 
L 244.457851 103.110556 
L 244.457851 116.071079 
L 284.424793 116.085357 
L 284.424793 124.354255 
L 315.168595 124.354255 
L 315.168595 127.472164 
L 324.391736 127.472164 
L 324.391736 128.120949 
L 345.912397 128.120949 
L 345.912397 138.978557 
L 373.581818 138.978557 
L 373.581818 138.978557 
" style="fill:none;stroke:#8b4513;stroke-dasharray:5.55,2.4;stroke-dashoffset:0;stroke-width:1.5;"/>
   </g>
   <g id="patch_3">
    <path d="M 54 252 
L 54 34.56 
" style="fill:none;stroke:#000000;stroke-linecap:square;stroke-linejoin:miter;stroke-width:0.8;"/>
   </g>
   <g id="patch_4">
    <path d="M 388.8 252 
L 388.8 34.56 
" style="fill:none;stroke:#000000;stroke-linecap:square;stroke-linejoin:miter;stroke-width:0.8;"/>
   </g>
   <g id="patch_5">
    <path d="M 54 252 
L 388.8 252 
" style="fill:none;stroke:#000000;stroke-linecap:square;stroke-linejoin:miter;stroke-width:0.8;"/>
   </g>
   <g id="patch_6">
    <path d="M 54 34.56 
L 388.8 34.56 
" style="fill:none;stroke:#000000;stroke-linecap:square;stroke-linejoin:miter;stroke-width:0.8;"/>
   </g>
   <g id="legend_1">
    <g id="patch_7">
     <path d="M 61 247 
L 176.904688 247 
Q 178.904688 247 178.904688 245 
L 178.904688 157.375 
Q 178.904688 155.375 176.904688 155.375 
L 61 155.375 
Q 59 155.375 59 157.375 
L 59 245 
Q 59 247 61 247 
z
" style="fill:#ffffff;opacity:0.8;stroke:#cccccc;stroke-linejoin:miter;"/>
    </g>
    <g id="line2d_20">
     <path d="M 63 163.473437 
L 83 163.473437 
" style="fill:none;stroke:#1e90ff;stroke-dasharray:5.55,2.4;stroke-dashoffset:0;stroke-width:1.5;"/>
    </g>
    <g id="line2d_21"/>
    <g id="text_16">
     <!-- ADMM -->
     <g transform="translate(91 166.973437)scale(0.1 -0.1)">
      <defs>
       <path d="M 34.1875 63.1875 
L 20.796875 26.90625 
L 47.609375 26.90625 
z
M 28.609375 72.90625 
L 39.796875 72.90625 
L 67.578125 0 
L 57.328125 0 
L 50.6875 18.703125 
L 17.828125 18.703125 
L 11.1875 0 
L 0.78125 0 
z
" id="DejaVuSans-65"/>
       <path d="M 19.671875 64.796875 
L 19.671875 8.109375 
L 31.59375 8.109375 
Q 46.6875 8.109375 53.6875 14.9375 
Q 60.6875 21.78125 60.6875 36.53125 
Q 60.6875 51.171875 53.6875 57.984375 
Q 46.6875 64.796875 31.59375 64.796875 
z
M 9.8125 72.90625 
L 30.078125 72.90625 
Q 51.265625 72.90625 61.171875 64.09375 
Q 71.09375 55.28125 71.09375 36.53125 
Q 71.09375 17.671875 61.125 8.828125 
Q 51.171875 0 30.078125 0 
L 9.8125 0 
z
" id="DejaVuSans-68"/>
       <path d="M 9.8125 72.90625 
L 24.515625 72.90625 
L 43.109375 23.296875 
L 61.8125 72.90625 
L 76.515625 72.90625 
L 76.515625 0 
L 66.890625 0 
L 66.890625 64.015625 
L 48.09375 14.015625 
L 38.1875 14.015625 
L 19.390625 64.015625 
L 19.390625 0 
L 9.8125 0 
z
" id="DejaVuSans-77"/>
      </defs>
      <use xlink:href="#DejaVuSans-65"/>
      <use x="68.408203" xlink:href="#DejaVuSans-68"/>
      <use x="145.410156" xlink:href="#DejaVuSans-77"/>
      <use x="231.689453" xlink:href="#DejaVuSans-77"/>
     </g>
    </g>
    <g id="line2d_22">
     <path d="M 63 178.151563 
L 83 178.151563 
" style="fill:none;stroke:#ff8c00;stroke-dasharray:5.55,2.4;stroke-dashoffset:0;stroke-width:1.5;"/>
    </g>
    <g id="line2d_23"/>
    <g id="text_17">
     <!-- ADMM_CUATRO -->
     <g transform="translate(91 181.651563)scale(0.1 -0.1)">
      <defs>
       <path d="M 50.984375 -16.609375 
L 50.984375 -23.578125 
L -0.984375 -23.578125 
L -0.984375 -16.609375 
z
" id="DejaVuSans-95"/>
       <path d="M 8.6875 72.90625 
L 18.609375 72.90625 
L 18.609375 28.609375 
Q 18.609375 16.890625 22.84375 11.734375 
Q 27.09375 6.59375 36.625 6.59375 
Q 46.09375 6.59375 50.34375 11.734375 
Q 54.59375 16.890625 54.59375 28.609375 
L 54.59375 72.90625 
L 64.5 72.90625 
L 64.5 27.390625 
Q 64.5 13.140625 57.4375 5.859375 
Q 50.390625 -1.421875 36.625 -1.421875 
Q 22.796875 -1.421875 15.734375 5.859375 
Q 8.6875 13.140625 8.6875 27.390625 
z
" id="DejaVuSans-85"/>
       <path d="M -0.296875 72.90625 
L 61.375 72.90625 
L 61.375 64.59375 
L 35.5 64.59375 
L 35.5 0 
L 25.59375 0 
L 25.59375 64.59375 
L -0.296875 64.59375 
z
" id="DejaVuSans-84"/>
       <path d="M 44.390625 34.1875 
Q 47.5625 33.109375 50.5625 29.59375 
Q 53.5625 26.078125 56.59375 19.921875 
L 66.609375 0 
L 56 0 
L 46.6875 18.703125 
Q 43.0625 26.03125 39.671875 28.421875 
Q 36.28125 30.8125 30.421875 30.8125 
L 19.671875 30.8125 
L 19.671875 0 
L 9.8125 0 
L 9.8125 72.90625 
L 32.078125 72.90625 
Q 44.578125 72.90625 50.734375 67.671875 
Q 56.890625 62.453125 56.890625 51.90625 
Q 56.890625 45.015625 53.6875 40.46875 
Q 50.484375 35.9375 44.390625 34.1875 
z
M 19.671875 64.796875 
L 19.671875 38.921875 
L 32.078125 38.921875 
Q 39.203125 38.921875 42.84375 42.21875 
Q 46.484375 45.515625 46.484375 51.90625 
Q 46.484375 58.296875 42.84375 61.546875 
Q 39.203125 64.796875 32.078125 64.796875 
z
" id="DejaVuSans-82"/>
       <path d="M 39.40625 66.21875 
Q 28.65625 66.21875 22.328125 58.203125 
Q 16.015625 50.203125 16.015625 36.375 
Q 16.015625 22.609375 22.328125 14.59375 
Q 28.65625 6.59375 39.40625 6.59375 
Q 50.140625 6.59375 56.421875 14.59375 
Q 62.703125 22.609375 62.703125 36.375 
Q 62.703125 50.203125 56.421875 58.203125 
Q 50.140625 66.21875 39.40625 66.21875 
z
M 39.40625 74.21875 
Q 54.734375 74.21875 63.90625 63.9375 
Q 73.09375 53.65625 73.09375 36.375 
Q 73.09375 19.140625 63.90625 8.859375 
Q 54.734375 -1.421875 39.40625 -1.421875 
Q 24.03125 -1.421875 14.8125 8.828125 
Q 5.609375 19.09375 5.609375 36.375 
Q 5.609375 53.65625 14.8125 63.9375 
Q 24.03125 74.21875 39.40625 74.21875 
z
" id="DejaVuSans-79"/>
      </defs>
      <use xlink:href="#DejaVuSans-65"/>
      <use x="68.408203" xlink:href="#DejaVuSans-68"/>
      <use x="145.410156" xlink:href="#DejaVuSans-77"/>
      <use x="231.689453" xlink:href="#DejaVuSans-77"/>
      <use x="317.96875" xlink:href="#DejaVuSans-95"/>
      <use x="367.96875" xlink:href="#DejaVuSans-67"/>
      <use x="437.792969" xlink:href="#DejaVuSans-85"/>
      <use x="510.986328" xlink:href="#DejaVuSans-65"/>
      <use x="571.644531" xlink:href="#DejaVuSans-84"/>
      <use x="632.728516" xlink:href="#DejaVuSans-82"/>
      <use x="702.210938" xlink:href="#DejaVuSans-79"/>
     </g>
    </g>
    <g id="line2d_24">
     <path d="M 63 193.107812 
L 83 193.107812 
" style="fill:none;stroke:#008000;stroke-dasharray:5.55,2.4;stroke-dashoffset:0;stroke-width:1.5;"/>
    </g>
    <g id="line2d_25"/>
    <g id="text_18">
     <!-- Py-BOBYQA -->
     <g transform="translate(91 196.607812)scale(0.1 -0.1)">
      <defs>
       <path d="M 19.671875 64.796875 
L 19.671875 37.40625 
L 32.078125 37.40625 
Q 38.96875 37.40625 42.71875 40.96875 
Q 46.484375 44.53125 46.484375 51.125 
Q 46.484375 57.671875 42.71875 61.234375 
Q 38.96875 64.796875 32.078125 64.796875 
z
M 9.8125 72.90625 
L 32.078125 72.90625 
Q 44.34375 72.90625 50.609375 67.359375 
Q 56.890625 61.8125 56.890625 51.125 
Q 56.890625 40.328125 50.609375 34.8125 
Q 44.34375 29.296875 32.078125 29.296875 
L 19.671875 29.296875 
L 19.671875 0 
L 9.8125 0 
z
" id="DejaVuSans-80"/>
       <path d="M 32.171875 -5.078125 
Q 28.375 -14.84375 24.75 -17.8125 
Q 21.140625 -20.796875 15.09375 -20.796875 
L 7.90625 -20.796875 
L 7.90625 -13.28125 
L 13.1875 -13.28125 
Q 16.890625 -13.28125 18.9375 -11.515625 
Q 21 -9.765625 23.484375 -3.21875 
L 25.09375 0.875 
L 2.984375 54.6875 
L 12.5 54.6875 
L 29.59375 11.921875 
L 46.6875 54.6875 
L 56.203125 54.6875 
z
" id="DejaVuSans-121"/>
       <path d="M 4.890625 31.390625 
L 31.203125 31.390625 
L 31.203125 23.390625 
L 4.890625 23.390625 
z
" id="DejaVuSans-45"/>
       <path d="M 19.671875 34.8125 
L 19.671875 8.109375 
L 35.5 8.109375 
Q 43.453125 8.109375 47.28125 11.40625 
Q 51.125 14.703125 51.125 21.484375 
Q 51.125 28.328125 47.28125 31.5625 
Q 43.453125 34.8125 35.5 34.8125 
z
M 19.671875 64.796875 
L 19.671875 42.828125 
L 34.28125 42.828125 
Q 41.5 42.828125 45.03125 45.53125 
Q 48.578125 48.25 48.578125 53.8125 
Q 48.578125 59.328125 45.03125 62.0625 
Q 41.5 64.796875 34.28125 64.796875 
z
M 9.8125 72.90625 
L 35.015625 72.90625 
Q 46.296875 72.90625 52.390625 68.21875 
Q 58.5 63.53125 58.5 54.890625 
Q 58.5 48.1875 55.375 44.234375 
Q 52.25 40.28125 46.1875 39.3125 
Q 53.46875 37.75 57.5 32.78125 
Q 61.53125 27.828125 61.53125 20.40625 
Q 61.53125 10.640625 54.890625 5.3125 
Q 48.25 0 35.984375 0 
L 9.8125 0 
z
" id="DejaVuSans-66"/>
       <path d="M -0.203125 72.90625 
L 10.40625 72.90625 
L 30.609375 42.921875 
L 50.6875 72.90625 
L 61.28125 72.90625 
L 35.5 34.71875 
L 35.5 0 
L 25.59375 0 
L 25.59375 34.71875 
z
" id="DejaVuSans-89"/>
       <path d="M 39.40625 66.21875 
Q 28.65625 66.21875 22.328125 58.203125 
Q 16.015625 50.203125 16.015625 36.375 
Q 16.015625 22.609375 22.328125 14.59375 
Q 28.65625 6.59375 39.40625 6.59375 
Q 50.140625 6.59375 56.421875 14.59375 
Q 62.703125 22.609375 62.703125 36.375 
Q 62.703125 50.203125 56.421875 58.203125 
Q 50.140625 66.21875 39.40625 66.21875 
z
M 53.21875 1.3125 
L 66.21875 -12.890625 
L 54.296875 -12.890625 
L 43.5 -1.21875 
Q 41.890625 -1.3125 41.03125 -1.359375 
Q 40.1875 -1.421875 39.40625 -1.421875 
Q 24.03125 -1.421875 14.8125 8.859375 
Q 5.609375 19.140625 5.609375 36.375 
Q 5.609375 53.65625 14.8125 63.9375 
Q 24.03125 74.21875 39.40625 74.21875 
Q 54.734375 74.21875 63.90625 63.9375 
Q 73.09375 53.65625 73.09375 36.375 
Q 73.09375 23.6875 67.984375 14.640625 
Q 62.890625 5.609375 53.21875 1.3125 
z
" id="DejaVuSans-81"/>
      </defs>
      <use xlink:href="#DejaVuSans-80"/>
      <use x="60.302734" xlink:href="#DejaVuSans-121"/>
      <use x="117.732422" xlink:href="#DejaVuSans-45"/>
      <use x="150.191406" xlink:href="#DejaVuSans-66"/>
      <use x="217.044922" xlink:href="#DejaVuSans-79"/>
      <use x="295.755859" xlink:href="#DejaVuSans-66"/>
      <use x="358.859375" xlink:href="#DejaVuSans-89"/>
      <use x="419.943359" xlink:href="#DejaVuSans-81"/>
      <use x="498.654297" xlink:href="#DejaVuSans-65"/>
     </g>
    </g>
    <g id="line2d_26">
     <path d="M 63 207.785937 
L 83 207.785937 
" style="fill:none;stroke:#ff0000;stroke-dasharray:5.55,2.4;stroke-dashoffset:0;stroke-width:1.5;"/>
    </g>
    <g id="line2d_27"/>
    <g id="text_19">
     <!-- DIRECT-L -->
     <g transform="translate(91 211.285937)scale(0.1 -0.1)">
      <defs>
       <path d="M 9.8125 72.90625 
L 19.671875 72.90625 
L 19.671875 0 
L 9.8125 0 
z
" id="DejaVuSans-73"/>
       <path d="M 9.8125 72.90625 
L 55.90625 72.90625 
L 55.90625 64.59375 
L 19.671875 64.59375 
L 19.671875 43.015625 
L 54.390625 43.015625 
L 54.390625 34.71875 
L 19.671875 34.71875 
L 19.671875 8.296875 
L 56.78125 8.296875 
L 56.78125 0 
L 9.8125 0 
z
" id="DejaVuSans-69"/>
       <path d="M 9.8125 72.90625 
L 19.671875 72.90625 
L 19.671875 8.296875 
L 55.171875 8.296875 
L 55.171875 0 
L 9.8125 0 
z
" id="DejaVuSans-76"/>
      </defs>
      <use xlink:href="#DejaVuSans-68"/>
      <use x="77.001953" xlink:href="#DejaVuSans-73"/>
      <use x="106.494141" xlink:href="#DejaVuSans-82"/>
      <use x="175.976562" xlink:href="#DejaVuSans-69"/>
      <use x="239.160156" xlink:href="#DejaVuSans-67"/>
      <use x="308.984375" xlink:href="#DejaVuSans-84"/>
      <use x="360.943359" xlink:href="#DejaVuSans-45"/>
      <use x="397.027344" xlink:href="#DejaVuSans-76"/>
     </g>
    </g>
    <g id="line2d_28">
     <path d="M 63 222.464063 
L 83 222.464063 
" style="fill:none;stroke:#9400d3;stroke-dasharray:5.55,2.4;stroke-dashoffset:0;stroke-width:1.5;"/>
    </g>
    <g id="line2d_29"/>
    <g id="text_20">
     <!-- ALADIN_CUATRO -->
     <g transform="translate(91 225.964063)scale(0.1 -0.1)">
      <use xlink:href="#DejaVuSans-65"/>
      <use x="68.408203" xlink:href="#DejaVuSans-76"/>
      <use x="126.371094" xlink:href="#DejaVuSans-65"/>
      <use x="194.779297" xlink:href="#DejaVuSans-68"/>
      <use x="271.78125" xlink:href="#DejaVuSans-73"/>
      <use x="301.273438" xlink:href="#DejaVuSans-78"/>
      <use x="376.078125" xlink:href="#DejaVuSans-95"/>
      <use x="426.078125" xlink:href="#DejaVuSans-67"/>
      <use x="495.902344" xlink:href="#DejaVuSans-85"/>
      <use x="569.095703" xlink:href="#DejaVuSans-65"/>
      <use x="629.753906" xlink:href="#DejaVuSans-84"/>
      <use x="690.837891" xlink:href="#DejaVuSans-82"/>
      <use x="760.320312" xlink:href="#DejaVuSans-79"/>
     </g>
    </g>
    <g id="line2d_30">
     <path d="M 63 237.420313 
L 83 237.420313 
" style="fill:none;stroke:#8b4513;stroke-dasharray:5.55,2.4;stroke-dashoffset:0;stroke-width:1.5;"/>
    </g>
    <g id="line2d_31"/>
    <g id="text_21">
     <!-- GPyOpt -->
     <g transform="translate(91 240.920313)scale(0.1 -0.1)">
      <defs>
       <path d="M 59.515625 10.40625 
L 59.515625 29.984375 
L 43.40625 29.984375 
L 43.40625 38.09375 
L 69.28125 38.09375 
L 69.28125 6.78125 
Q 63.578125 2.734375 56.6875 0.65625 
Q 49.8125 -1.421875 42 -1.421875 
Q 24.90625 -1.421875 15.25 8.5625 
Q 5.609375 18.5625 5.609375 36.375 
Q 5.609375 54.25 15.25 64.234375 
Q 24.90625 74.21875 42 74.21875 
Q 49.125 74.21875 55.546875 72.453125 
Q 61.96875 70.703125 67.390625 67.28125 
L 67.390625 56.78125 
Q 61.921875 61.421875 55.765625 63.765625 
Q 49.609375 66.109375 42.828125 66.109375 
Q 29.4375 66.109375 22.71875 58.640625 
Q 16.015625 51.171875 16.015625 36.375 
Q 16.015625 21.625 22.71875 14.15625 
Q 29.4375 6.6875 42.828125 6.6875 
Q 48.046875 6.6875 52.140625 7.59375 
Q 56.25 8.5 59.515625 10.40625 
z
" id="DejaVuSans-71"/>
       <path d="M 18.109375 8.203125 
L 18.109375 -20.796875 
L 9.078125 -20.796875 
L 9.078125 54.6875 
L 18.109375 54.6875 
L 18.109375 46.390625 
Q 20.953125 51.265625 25.265625 53.625 
Q 29.59375 56 35.59375 56 
Q 45.5625 56 51.78125 48.09375 
Q 58.015625 40.1875 58.015625 27.296875 
Q 58.015625 14.40625 51.78125 6.484375 
Q 45.5625 -1.421875 35.59375 -1.421875 
Q 29.59375 -1.421875 25.265625 0.953125 
Q 20.953125 3.328125 18.109375 8.203125 
z
M 48.6875 27.296875 
Q 48.6875 37.203125 44.609375 42.84375 
Q 40.53125 48.484375 33.40625 48.484375 
Q 26.265625 48.484375 22.1875 42.84375 
Q 18.109375 37.203125 18.109375 27.296875 
Q 18.109375 17.390625 22.1875 11.75 
Q 26.265625 6.109375 33.40625 6.109375 
Q 40.53125 6.109375 44.609375 11.75 
Q 48.6875 17.390625 48.6875 27.296875 
z
" id="DejaVuSans-112"/>
      </defs>
      <use xlink:href="#DejaVuSans-71"/>
      <use x="77.490234" xlink:href="#DejaVuSans-80"/>
      <use x="137.792969" xlink:href="#DejaVuSans-121"/>
      <use x="196.972656" xlink:href="#DejaVuSans-79"/>
      <use x="275.683594" xlink:href="#DejaVuSans-112"/>
      <use x="339.160156" xlink:href="#DejaVuSans-116"/>
     </g>
    </g>
   </g>
  </g>
 </g>
 <defs>
  <clipPath id="pea343ca01b">
   <rect height="217.44" width="334.8" x="54" y="34.56"/>
  </clipPath>
 </defs>
</svg>
