<?xml version="1.0" encoding="utf-8" standalone="no"?>
<!DOCTYPE svg PUBLIC "-//W3C//DTD SVG 1.1//EN"
  "http://www.w3.org/Graphics/SVG/1.1/DTD/svg11.dtd">
<!-- Created with matplotlib (https://matplotlib.org/) -->
<svg height="288pt" version="1.1" viewBox="0 0 432 288" width="432pt" xmlns="http://www.w3.org/2000/svg" xmlns:xlink="http://www.w3.org/1999/xlink">
 <metadata>
  <rdf:RDF xmlns:cc="http://creativecommons.org/ns#" xmlns:dc="http://purl.org/dc/elements/1.1/" xmlns:rdf="http://www.w3.org/1999/02/22-rdf-syntax-ns#">
   <cc:Work>
    <dc:type rdf:resource="http://purl.org/dc/dcmitype/StillImage"/>
    <dc:date>2022-03-03T01:44:59.472365</dc:date>
    <dc:format>image/svg+xml</dc:format>
    <dc:creator>
     <cc:Agent>
      <dc:title>Matplotlib v3.3.4, https://matplotlib.org/</dc:title>
     </cc:Agent>
    </dc:creator>
   </cc:Work>
  </rdf:RDF>
 </metadata>
 <defs>
  <style type="text/css">*{stroke-linecap:butt;stroke-linejoin:round;}</style>
 </defs>
 <g id="figure_1">
  <g id="patch_1">
   <path d="M 0 288 
L 432 288 
L 432 0 
L 0 0 
z
" style="fill:#ffffff;"/>
  </g>
  <g id="axes_1">
   <g id="patch_2">
    <path d="M 54 252 
L 388.8 252 
L 388.8 34.56 
L 54 34.56 
z
" style="fill:#ffffff;"/>
   </g>
   <g id="PolyCollection_1">
    <defs>
     <path d="M 69.218182 -243.556364 
L 69.218182 -243.556364 
L 72.292562 -243.556364 
L 72.292562 -243.556364 
L 75.366942 -243.556364 
L 75.366942 -243.556364 
L 78.441322 -243.556364 
L 78.441322 -243.556364 
L 81.515702 -243.556364 
L 81.515702 -243.556364 
L 84.590083 -243.556364 
L 84.590083 -243.556364 
L 87.664463 -243.556364 
L 87.664463 -243.556364 
L 90.738843 -243.556364 
L 90.738843 -200.054161 
L 93.813223 -200.054161 
L 93.813223 -200.054161 
L 96.887603 -200.054161 
L 96.887603 -200.054161 
L 99.961983 -200.054161 
L 99.961983 -200.054161 
L 103.036364 -200.054161 
L 103.036364 -126.616381 
L 106.110744 -126.616381 
L 106.110744 -126.616381 
L 109.185124 -126.616381 
L 109.185124 -126.616381 
L 112.259504 -126.616381 
L 112.259504 -126.616381 
L 115.333884 -126.616381 
L 115.333884 -126.616381 
L 118.408264 -126.616381 
L 118.408264 -126.616381 
L 121.482645 -126.616381 
L 121.482645 -126.616381 
L 124.557025 -126.616381 
L 124.557025 -126.616381 
L 127.631405 -126.616381 
L 127.631405 -126.616381 
L 130.705785 -126.616381 
L 130.705785 -126.616381 
L 133.780165 -126.616381 
L 133.780165 -126.616381 
L 136.854545 -126.616381 
L 136.854545 -126.616381 
L 139.928926 -126.616381 
L 139.928926 -126.616381 
L 143.003306 -126.616381 
L 143.003306 -126.616381 
L 146.077686 -126.616381 
L 146.077686 -126.616381 
L 149.152066 -126.616381 
L 149.152066 -126.616381 
L 152.226446 -126.616381 
L 152.226446 -126.616381 
L 155.300826 -126.616381 
L 155.300826 -126.616381 
L 158.375207 -126.616381 
L 158.375207 -126.616381 
L 161.449587 -126.616381 
L 161.449587 -126.616381 
L 164.523967 -126.616381 
L 164.523967 -126.616381 
L 167.598347 -126.616381 
L 167.598347 -126.616381 
L 170.672727 -126.616381 
L 170.672727 -126.616381 
L 173.747107 -126.616381 
L 173.747107 -126.616381 
L 176.821488 -126.616381 
L 176.821488 -126.616381 
L 179.895868 -126.616381 
L 179.895868 -126.616381 
L 182.970248 -126.616381 
L 182.970248 -126.616381 
L 186.044628 -126.616381 
L 186.044628 -126.616381 
L 189.119008 -126.616381 
L 189.119008 -126.616381 
L 192.193388 -126.616381 
L 192.193388 -126.616381 
L 195.267769 -126.616381 
L 195.267769 -126.616381 
L 198.342149 -126.616381 
L 198.342149 -126.616381 
L 201.416529 -126.616381 
L 201.416529 -126.616381 
L 204.490909 -126.616381 
L 204.490909 -126.616381 
L 207.565289 -126.616381 
L 207.565289 -126.616381 
L 210.639669 -126.616381 
L 210.639669 -126.616381 
L 213.71405 -126.616381 
L 213.71405 -126.616381 
L 216.78843 -126.616381 
L 216.78843 -126.616381 
L 219.86281 -126.616381 
L 219.86281 -126.616381 
L 222.93719 -126.616381 
L 222.93719 -126.616381 
L 226.01157 -126.616381 
L 226.01157 -126.616381 
L 229.08595 -126.616381 
L 229.08595 -126.616381 
L 232.160331 -126.616381 
L 232.160331 -126.616381 
L 235.234711 -126.616381 
L 235.234711 -126.616381 
L 238.309091 -126.616381 
L 238.309091 -126.616381 
L 241.383471 -126.616381 
L 241.383471 -126.616381 
L 244.457851 -126.616381 
L 244.457851 -126.616381 
L 247.532231 -126.616381 
L 247.532231 -126.616381 
L 250.606612 -126.616381 
L 250.606612 -126.616381 
L 253.680992 -126.616381 
L 253.680992 -126.616381 
L 256.755372 -126.616381 
L 256.755372 -126.616381 
L 259.829752 -126.616381 
L 259.829752 -126.616381 
L 262.904132 -126.616381 
L 262.904132 -126.616381 
L 265.978512 -126.616381 
L 265.978512 -126.616381 
L 269.052893 -126.616381 
L 269.052893 -126.616381 
L 272.127273 -126.616381 
L 272.127273 -126.616381 
L 275.201653 -126.616381 
L 275.201653 -126.616381 
L 278.276033 -126.616381 
L 278.276033 -126.616381 
L 281.350413 -126.616381 
L 281.350413 -126.616381 
L 284.424793 -126.616381 
L 284.424793 -126.616381 
L 287.499174 -126.616381 
L 287.499174 -126.616381 
L 290.573554 -126.616381 
L 290.573554 -126.616381 
L 293.647934 -126.616381 
L 293.647934 -126.616381 
L 296.722314 -126.616381 
L 296.722314 -126.616381 
L 299.796694 -126.616381 
L 299.796694 -126.616381 
L 302.871074 -126.616381 
L 302.871074 -126.616381 
L 305.945455 -126.616381 
L 305.945455 -126.616381 
L 309.019835 -126.616381 
L 309.019835 -126.616381 
L 312.094215 -126.616381 
L 312.094215 -126.616381 
L 315.168595 -126.616381 
L 315.168595 -126.616381 
L 318.242975 -126.616381 
L 318.242975 -126.616381 
L 321.317355 -126.616381 
L 321.317355 -126.616381 
L 324.391736 -126.616381 
L 324.391736 -126.616381 
L 327.466116 -126.616381 
L 327.466116 -126.616381 
L 330.540496 -126.616381 
L 330.540496 -126.616381 
L 333.614876 -126.616381 
L 333.614876 -126.616381 
L 336.689256 -126.616381 
L 336.689256 -126.616381 
L 339.763636 -126.616381 
L 339.763636 -126.616381 
L 342.838017 -126.616381 
L 342.838017 -126.616381 
L 345.912397 -126.616381 
L 345.912397 -126.616381 
L 348.986777 -126.616381 
L 348.986777 -126.616381 
L 352.061157 -126.616381 
L 352.061157 -126.616381 
L 355.135537 -126.616381 
L 355.135537 -126.616381 
L 358.209917 -126.616381 
L 358.209917 -126.616381 
L 361.284298 -126.616381 
L 361.284298 -126.616381 
L 364.358678 -126.616381 
L 364.358678 -126.616381 
L 367.433058 -126.616381 
L 367.433058 -126.616381 
L 370.507438 -126.616381 
L 370.507438 -126.616381 
L 373.581818 -126.616381 
L 373.581818 -126.616381 
L 373.581818 -126.616381 
L 373.581818 -126.616381 
L 373.581818 -126.616381 
L 370.507438 -126.616381 
L 370.507438 -126.616381 
L 367.433058 -126.616381 
L 367.433058 -126.616381 
L 364.358678 -126.616381 
L 364.358678 -126.616381 
L 361.284298 -126.616381 
L 361.284298 -126.616381 
L 358.209917 -126.616381 
L 358.209917 -126.616381 
L 355.135537 -126.616381 
L 355.135537 -126.616381 
L 352.061157 -126.616381 
L 352.061157 -126.616381 
L 348.986777 -126.616381 
L 348.986777 -126.616381 
L 345.912397 -126.616381 
L 345.912397 -126.616381 
L 342.838017 -126.616381 
L 342.838017 -126.616381 
L 339.763636 -126.616381 
L 339.763636 -126.616381 
L 336.689256 -126.616381 
L 336.689256 -126.616381 
L 333.614876 -126.616381 
L 333.614876 -126.616381 
L 330.540496 -126.616381 
L 330.540496 -126.616381 
L 327.466116 -126.616381 
L 327.466116 -126.616381 
L 324.391736 -126.616381 
L 324.391736 -126.616381 
L 321.317355 -126.616381 
L 321.317355 -126.616381 
L 318.242975 -126.616381 
L 318.242975 -126.616381 
L 315.168595 -126.616381 
L 315.168595 -126.616381 
L 312.094215 -126.616381 
L 312.094215 -126.616381 
L 309.019835 -126.616381 
L 309.019835 -126.616381 
L 305.945455 -126.616381 
L 305.945455 -126.616381 
L 302.871074 -126.616381 
L 302.871074 -126.616381 
L 299.796694 -126.616381 
L 299.796694 -126.616381 
L 296.722314 -126.616381 
L 296.722314 -126.616381 
L 293.647934 -126.616381 
L 293.647934 -126.616381 
L 290.573554 -126.616381 
L 290.573554 -126.616381 
L 287.499174 -126.616381 
L 287.499174 -126.616381 
L 284.424793 -126.616381 
L 284.424793 -126.616381 
L 281.350413 -126.616381 
L 281.350413 -126.616381 
L 278.276033 -126.616381 
L 278.276033 -126.616381 
L 275.201653 -126.616381 
L 275.201653 -126.616381 
L 272.127273 -126.616381 
L 272.127273 -126.616381 
L 269.052893 -126.616381 
L 269.052893 -126.616381 
L 265.978512 -126.616381 
L 265.978512 -126.616381 
L 262.904132 -126.616381 
L 262.904132 -126.616381 
L 259.829752 -126.616381 
L 259.829752 -126.616381 
L 256.755372 -126.616381 
L 256.755372 -126.616381 
L 253.680992 -126.616381 
L 253.680992 -126.616381 
L 250.606612 -126.616381 
L 250.606612 -126.616381 
L 247.532231 -126.616381 
L 247.532231 -126.616381 
L 244.457851 -126.616381 
L 244.457851 -126.616381 
L 241.383471 -126.616381 
L 241.383471 -126.616381 
L 238.309091 -126.616381 
L 238.309091 -126.616381 
L 235.234711 -126.616381 
L 235.234711 -126.616381 
L 232.160331 -126.616381 
L 232.160331 -126.616381 
L 229.08595 -126.616381 
L 229.08595 -126.616381 
L 226.01157 -126.616381 
L 226.01157 -126.616381 
L 222.93719 -126.616381 
L 222.93719 -126.616381 
L 219.86281 -126.616381 
L 219.86281 -126.616381 
L 216.78843 -126.616381 
L 216.78843 -126.616381 
L 213.71405 -126.616381 
L 213.71405 -126.616381 
L 210.639669 -126.616381 
L 210.639669 -126.616381 
L 207.565289 -126.616381 
L 207.565289 -126.616381 
L 204.490909 -126.616381 
L 204.490909 -126.616381 
L 201.416529 -126.616381 
L 201.416529 -126.616381 
L 198.342149 -126.616381 
L 198.342149 -126.616381 
L 195.267769 -126.616381 
L 195.267769 -126.616381 
L 192.193388 -126.616381 
L 192.193388 -126.616381 
L 189.119008 -126.616381 
L 189.119008 -126.616381 
L 186.044628 -126.616381 
L 186.044628 -126.616381 
L 182.970248 -126.616381 
L 182.970248 -126.616381 
L 179.895868 -126.616381 
L 179.895868 -126.616381 
L 176.821488 -126.616381 
L 176.821488 -126.616381 
L 173.747107 -126.616381 
L 173.747107 -126.616381 
L 170.672727 -126.616381 
L 170.672727 -126.616381 
L 167.598347 -126.616381 
L 167.598347 -126.616381 
L 164.523967 -126.616381 
L 164.523967 -126.616381 
L 161.449587 -126.616381 
L 161.449587 -126.616381 
L 158.375207 -126.616381 
L 158.375207 -126.616381 
L 155.300826 -126.616381 
L 155.300826 -126.616381 
L 152.226446 -126.616381 
L 152.226446 -126.616381 
L 149.152066 -126.616381 
L 149.152066 -126.616381 
L 146.077686 -126.616381 
L 146.077686 -126.616381 
L 143.003306 -126.616381 
L 143.003306 -126.616381 
L 139.928926 -126.616381 
L 139.928926 -126.616381 
L 136.854545 -126.616381 
L 136.854545 -126.616381 
L 133.780165 -126.616381 
L 133.780165 -126.616381 
L 130.705785 -126.616381 
L 130.705785 -126.616381 
L 127.631405 -126.616381 
L 127.631405 -126.616381 
L 124.557025 -126.616381 
L 124.557025 -126.616381 
L 121.482645 -126.616381 
L 121.482645 -126.616381 
L 118.408264 -126.616381 
L 118.408264 -126.616381 
L 115.333884 -126.616381 
L 115.333884 -126.616381 
L 112.259504 -126.616381 
L 112.259504 -126.616381 
L 109.185124 -126.616381 
L 109.185124 -126.616381 
L 106.110744 -126.616381 
L 106.110744 -126.616381 
L 103.036364 -126.616381 
L 103.036364 -200.054161 
L 99.961983 -200.054161 
L 99.961983 -200.054161 
L 96.887603 -200.054161 
L 96.887603 -200.054161 
L 93.813223 -200.054161 
L 93.813223 -200.054161 
L 90.738843 -200.054161 
L 90.738843 -243.556364 
L 87.664463 -243.556364 
L 87.664463 -243.556364 
L 84.590083 -243.556364 
L 84.590083 -243.556364 
L 81.515702 -243.556364 
L 81.515702 -243.556364 
L 78.441322 -243.556364 
L 78.441322 -243.556364 
L 75.366942 -243.556364 
L 75.366942 -243.556364 
L 72.292562 -243.556364 
L 72.292562 -243.556364 
L 69.218182 -243.556364 
z
" id="m3bf017e191" style="stroke:#ff8c00;stroke-opacity:0.5;"/>
    </defs>
    <g clip-path="url(#pbdbbe4b4e5)">
     <use style="fill:#ff8c00;fill-opacity:0.5;stroke:#ff8c00;stroke-opacity:0.5;" x="0" xlink:href="#m3bf017e191" y="288"/>
    </g>
   </g>
   <g id="PolyCollection_2">
    <defs>
     <path d="M 69.218182 -210.68478 
L 69.218182 -210.68478 
L 72.292562 -210.68478 
L 72.292562 -210.68478 
L 75.366942 -210.68478 
L 75.366942 -210.68478 
L 78.441322 -210.68478 
L 78.441322 -210.68478 
L 81.515702 -210.68478 
L 81.515702 -210.68478 
L 84.590083 -210.68478 
L 84.590083 -210.68478 
L 87.664463 -210.68478 
L 87.664463 -210.68478 
L 90.738843 -210.68478 
L 90.738843 -210.684766 
L 93.813223 -210.684766 
L 93.813223 -196.747795 
L 96.887603 -196.747795 
L 96.887603 -196.747795 
L 99.961983 -196.747795 
L 99.961983 -196.747795 
L 103.036364 -196.747795 
L 103.036364 -196.747727 
L 106.110744 -196.747727 
L 106.110744 -196.747727 
L 109.185124 -196.747727 
L 109.185124 -196.747727 
L 112.259504 -196.747727 
L 112.259504 -196.747727 
L 115.333884 -196.747727 
L 115.333884 -196.747727 
L 118.408264 -196.747727 
L 118.408264 -196.747727 
L 121.482645 -196.747727 
L 121.482645 -196.747727 
L 124.557025 -196.747727 
L 124.557025 -196.747727 
L 127.631405 -196.747727 
L 127.631405 -132.554025 
L 130.705785 -132.554025 
L 130.705785 -132.554025 
L 133.780165 -132.554025 
L 133.780165 -132.554025 
L 136.854545 -132.554025 
L 136.854545 -132.554025 
L 139.928926 -132.554025 
L 139.928926 -132.550564 
L 143.003306 -132.550564 
L 143.003306 -132.550564 
L 146.077686 -132.550564 
L 146.077686 -132.550564 
L 149.152066 -132.550564 
L 149.152066 -132.550564 
L 152.226446 -132.550564 
L 152.226446 -132.546104 
L 155.300826 -132.546104 
L 155.300826 -132.546104 
L 158.375207 -132.546104 
L 158.375207 -132.546104 
L 161.449587 -132.546104 
L 161.449587 -132.546104 
L 164.523967 -132.546104 
L 164.523967 -132.546104 
L 167.598347 -132.546104 
L 167.598347 -132.544853 
L 170.672727 -132.544853 
L 170.672727 -132.544853 
L 173.747107 -132.544853 
L 173.747107 -132.544853 
L 176.821488 -132.544853 
L 176.821488 -132.542211 
L 179.895868 -132.542211 
L 179.895868 -132.542211 
L 182.970248 -132.542211 
L 182.970248 -132.542211 
L 186.044628 -132.542211 
L 186.044628 -132.542211 
L 189.119008 -132.542211 
L 189.119008 -132.542211 
L 192.193388 -132.542211 
L 192.193388 -132.542211 
L 195.267769 -132.542211 
L 195.267769 -132.542211 
L 198.342149 -132.542211 
L 198.342149 -132.542211 
L 201.416529 -132.542211 
L 201.416529 -132.542211 
L 204.490909 -132.542211 
L 204.490909 -132.542211 
L 207.565289 -132.542211 
L 207.565289 -132.542211 
L 210.639669 -132.542211 
L 210.639669 -132.542211 
L 213.71405 -132.542211 
L 213.71405 -118.653222 
L 216.78843 -118.653222 
L 216.78843 -118.653222 
L 219.86281 -118.653222 
L 219.86281 -118.653222 
L 222.93719 -118.653222 
L 222.93719 -118.653222 
L 226.01157 -118.653222 
L 226.01157 -118.653222 
L 229.08595 -118.653222 
L 229.08595 -118.653222 
L 232.160331 -118.653222 
L 232.160331 -118.653222 
L 235.234711 -118.653222 
L 235.234711 -118.653222 
L 238.309091 -118.653222 
L 238.309091 -118.600293 
L 241.383471 -118.600293 
L 241.383471 -118.600293 
L 244.457851 -118.600293 
L 244.457851 -118.600293 
L 247.532231 -118.600293 
L 247.532231 -118.600293 
L 250.606612 -118.600293 
L 250.606612 -118.600293 
L 253.680992 -118.600293 
L 253.680992 -118.600293 
L 256.755372 -118.600293 
L 256.755372 -118.600293 
L 259.829752 -118.600293 
L 259.829752 -118.600293 
L 262.904132 -118.600293 
L 262.904132 -118.600293 
L 265.978512 -118.600293 
L 265.978512 -118.600293 
L 269.052893 -118.600293 
L 269.052893 -118.600293 
L 272.127273 -118.600293 
L 272.127273 -118.600293 
L 275.201653 -118.600293 
L 275.201653 -118.599271 
L 278.276033 -118.599271 
L 278.276033 -63.641078 
L 281.350413 -63.641078 
L 281.350413 -63.641078 
L 284.424793 -63.641078 
L 284.424793 -63.641078 
L 287.499174 -63.641078 
L 287.499174 -63.641078 
L 290.573554 -63.641078 
L 290.573554 -63.641078 
L 293.647934 -63.641078 
L 293.647934 -63.641078 
L 296.722314 -63.641078 
L 296.722314 -63.641078 
L 299.796694 -63.641078 
L 299.796694 -63.534892 
L 302.871074 -63.534892 
L 302.871074 -63.534892 
L 305.945455 -63.534892 
L 305.945455 -63.534892 
L 309.019835 -63.534892 
L 309.019835 -56.078638 
L 312.094215 -56.078638 
L 312.094215 -56.078638 
L 315.168595 -56.078638 
L 315.168595 -56.078638 
L 318.242975 -56.078638 
L 318.242975 -56.078638 
L 321.317355 -56.078638 
L 321.317355 -56.078638 
L 324.391736 -56.078638 
L 324.391736 -56.078638 
L 327.466116 -56.078638 
L 327.466116 -56.078638 
L 330.540496 -56.078638 
L 330.540496 -56.078638 
L 333.614876 -56.078638 
L 333.614876 -56.06261 
L 336.689256 -56.06261 
L 336.689256 -56.06261 
L 339.763636 -56.06261 
L 339.763636 -56.06261 
L 342.838017 -56.06261 
L 342.838017 -56.06261 
L 345.912397 -56.06261 
L 345.912397 -56.06261 
L 348.986777 -56.06261 
L 348.986777 -56.06261 
L 352.061157 -56.06261 
L 352.061157 -56.06261 
L 355.135537 -56.06261 
L 355.135537 -56.06261 
L 358.209917 -56.06261 
L 358.209917 -56.06261 
L 361.284298 -56.06261 
L 361.284298 -56.06261 
L 364.358678 -56.06261 
L 364.358678 -56.06261 
L 367.433058 -56.06261 
L 367.433058 -56.06261 
L 370.507438 -56.06261 
L 370.507438 -56.06261 
L 373.581818 -56.06261 
L 373.581818 -56.06261 
L 373.581818 -118.61604 
L 373.581818 -118.61604 
L 373.581818 -118.61604 
L 370.507438 -118.61604 
L 370.507438 -118.61604 
L 367.433058 -118.61604 
L 367.433058 -118.61604 
L 364.358678 -118.61604 
L 364.358678 -118.61604 
L 361.284298 -118.61604 
L 361.284298 -118.61604 
L 358.209917 -118.61604 
L 358.209917 -118.61604 
L 355.135537 -118.61604 
L 355.135537 -118.61604 
L 352.061157 -118.61604 
L 352.061157 -118.616125 
L 348.986777 -118.616125 
L 348.986777 -118.616125 
L 345.912397 -118.616125 
L 345.912397 -118.616125 
L 342.838017 -118.616125 
L 342.838017 -118.616125 
L 339.763636 -118.616125 
L 339.763636 -118.651796 
L 336.689256 -118.651796 
L 336.689256 -118.651796 
L 333.614876 -118.651796 
L 333.614876 -118.652204 
L 330.540496 -118.652204 
L 330.540496 -118.652204 
L 327.466116 -118.652204 
L 327.466116 -118.652204 
L 324.391736 -118.652204 
L 324.391736 -118.652204 
L 321.317355 -118.652204 
L 321.317355 -118.652204 
L 318.242975 -118.652204 
L 318.242975 -118.652204 
L 315.168595 -118.652204 
L 315.168595 -118.652204 
L 312.094215 -118.652204 
L 312.094215 -118.652204 
L 309.019835 -118.652204 
L 309.019835 -118.652204 
L 305.945455 -118.652204 
L 305.945455 -118.652813 
L 302.871074 -118.652813 
L 302.871074 -118.652813 
L 299.796694 -118.652813 
L 299.796694 -118.653222 
L 296.722314 -118.653222 
L 296.722314 -118.653222 
L 293.647934 -118.653222 
L 293.647934 -118.653222 
L 290.573554 -118.653222 
L 290.573554 -118.653222 
L 287.499174 -118.653222 
L 287.499174 -132.557516 
L 284.424793 -132.557516 
L 284.424793 -132.557516 
L 281.350413 -132.557516 
L 281.350413 -132.557516 
L 278.276033 -132.557516 
L 278.276033 -132.557516 
L 275.201653 -132.557516 
L 275.201653 -132.557516 
L 272.127273 -132.557516 
L 272.127273 -132.557516 
L 269.052893 -132.557516 
L 269.052893 -132.557516 
L 265.978512 -132.557516 
L 265.978512 -132.557516 
L 262.904132 -132.557516 
L 262.904132 -132.557516 
L 259.829752 -132.557516 
L 259.829752 -132.557516 
L 256.755372 -132.557516 
L 256.755372 -132.557516 
L 253.680992 -132.557516 
L 253.680992 -132.557516 
L 250.606612 -132.557516 
L 250.606612 -132.557516 
L 247.532231 -132.557516 
L 247.532231 -132.557516 
L 244.457851 -132.557516 
L 244.457851 -132.557516 
L 241.383471 -132.557516 
L 241.383471 -132.557516 
L 238.309091 -132.557516 
L 238.309091 -132.557765 
L 235.234711 -132.557765 
L 235.234711 -132.557765 
L 232.160331 -132.557765 
L 232.160331 -132.557765 
L 229.08595 -132.557765 
L 229.08595 -132.557765 
L 226.01157 -132.557765 
L 226.01157 -132.560369 
L 222.93719 -132.560369 
L 222.93719 -132.560369 
L 219.86281 -132.560369 
L 219.86281 -132.560369 
L 216.78843 -132.560369 
L 216.78843 -132.560369 
L 213.71405 -132.560369 
L 213.71405 -132.560618 
L 210.639669 -132.560618 
L 210.639669 -132.560618 
L 207.565289 -132.560618 
L 207.565289 -132.560618 
L 204.490909 -132.560618 
L 204.490909 -132.563138 
L 201.416529 -132.563138 
L 201.416529 -132.563138 
L 198.342149 -132.563138 
L 198.342149 -132.563138 
L 195.267769 -132.563138 
L 195.267769 -132.563138 
L 192.193388 -132.563138 
L 192.193388 -132.563138 
L 189.119008 -132.563138 
L 189.119008 -132.563138 
L 186.044628 -132.563138 
L 186.044628 -132.563138 
L 182.970248 -132.563138 
L 182.970248 -132.563138 
L 179.895868 -132.563138 
L 179.895868 -132.563387 
L 176.821488 -132.563387 
L 176.821488 -132.563387 
L 173.747107 -132.563387 
L 173.747107 -132.563387 
L 170.672727 -132.563387 
L 170.672727 -132.563387 
L 167.598347 -132.563387 
L 167.598347 -132.563387 
L 164.523967 -132.563387 
L 164.523967 -132.563387 
L 161.449587 -132.563387 
L 161.449587 -132.563387 
L 158.375207 -132.563387 
L 158.375207 -132.563387 
L 155.300826 -132.563387 
L 155.300826 -132.563387 
L 152.226446 -132.563387 
L 152.226446 -196.747769 
L 149.152066 -196.747769 
L 149.152066 -196.747769 
L 146.077686 -196.747769 
L 146.077686 -196.747769 
L 143.003306 -196.747769 
L 143.003306 -196.747769 
L 139.928926 -196.747769 
L 139.928926 -196.747769 
L 136.854545 -196.747769 
L 136.854545 -196.747769 
L 133.780165 -196.747769 
L 133.780165 -196.747769 
L 130.705785 -196.747769 
L 130.705785 -196.747769 
L 127.631405 -196.747769 
L 127.631405 -196.747769 
L 124.557025 -196.747769 
L 124.557025 -196.747769 
L 121.482645 -196.747769 
L 121.482645 -196.747769 
L 118.408264 -196.747769 
L 118.408264 -210.684779 
L 115.333884 -210.684779 
L 115.333884 -210.684779 
L 112.259504 -210.684779 
L 112.259504 -210.684779 
L 109.185124 -210.684779 
L 109.185124 -210.684779 
L 106.110744 -210.684779 
L 106.110744 -210.684779 
L 103.036364 -210.684779 
L 103.036364 -210.684779 
L 99.961983 -210.684779 
L 99.961983 -210.684779 
L 96.887603 -210.684779 
L 96.887603 -210.684779 
L 93.813223 -210.684779 
L 93.813223 -210.68478 
L 90.738843 -210.68478 
L 90.738843 -210.68478 
L 87.664463 -210.68478 
L 87.664463 -210.68478 
L 84.590083 -210.68478 
L 84.590083 -210.68478 
L 81.515702 -210.68478 
L 81.515702 -210.68478 
L 78.441322 -210.68478 
L 78.441322 -210.68478 
L 75.366942 -210.68478 
L 75.366942 -210.68478 
L 72.292562 -210.68478 
L 72.292562 -210.68478 
L 69.218182 -210.68478 
z
" id="m217af5fe27" style="stroke:#ff0000;stroke-opacity:0.5;"/>
    </defs>
    <g clip-path="url(#pbdbbe4b4e5)">
     <use style="fill:#ff0000;fill-opacity:0.5;stroke:#ff0000;stroke-opacity:0.5;" x="0" xlink:href="#m217af5fe27" y="288"/>
    </g>
   </g>
   <g id="PolyCollection_3">
    <defs>
     <path d="M 69.218182 -243.556364 
L 69.218182 -243.556364 
L 72.292562 -243.556364 
L 72.292562 -243.556364 
L 75.366942 -243.556364 
L 75.366942 -243.556364 
L 78.441322 -243.556364 
L 78.441322 -218.002841 
L 81.515702 -218.002841 
L 81.515702 -218.002841 
L 84.590083 -218.002841 
L 84.590083 -218.002841 
L 87.664463 -218.002841 
L 87.664463 -198.30693 
L 90.738843 -198.30693 
L 90.738843 -198.30693 
L 93.813223 -198.30693 
L 93.813223 -198.30693 
L 96.887603 -198.30693 
L 96.887603 -198.30693 
L 99.961983 -198.30693 
L 99.961983 -198.30693 
L 103.036364 -198.30693 
L 103.036364 -156.854287 
L 106.110744 -156.854287 
L 106.110744 -156.854287 
L 109.185124 -156.854287 
L 109.185124 -156.854287 
L 112.259504 -156.854287 
L 112.259504 -129.955565 
L 115.333884 -129.955565 
L 115.333884 -129.955565 
L 118.408264 -129.955565 
L 118.408264 -129.955565 
L 121.482645 -129.955565 
L 121.482645 -129.955565 
L 124.557025 -129.955565 
L 124.557025 -129.955565 
L 127.631405 -129.955565 
L 127.631405 -129.955565 
L 130.705785 -129.955565 
L 130.705785 -129.955565 
L 133.780165 -129.955565 
L 133.780165 -129.955565 
L 136.854545 -129.955565 
L 136.854545 -129.955565 
L 139.928926 -129.955565 
L 139.928926 -129.955565 
L 143.003306 -129.955565 
L 143.003306 -129.955565 
L 146.077686 -129.955565 
L 146.077686 -129.955565 
L 149.152066 -129.955565 
L 149.152066 -129.955565 
L 152.226446 -129.955565 
L 152.226446 -129.955565 
L 155.300826 -129.955565 
L 155.300826 -129.955565 
L 158.375207 -129.955565 
L 158.375207 -129.955565 
L 161.449587 -129.955565 
L 161.449587 -129.955565 
L 164.523967 -129.955565 
L 164.523967 -129.955565 
L 167.598347 -129.955565 
L 167.598347 -129.955565 
L 170.672727 -129.955565 
L 170.672727 -129.955565 
L 173.747107 -129.955565 
L 173.747107 -129.955565 
L 176.821488 -129.955565 
L 176.821488 -129.955565 
L 179.895868 -129.955565 
L 179.895868 -129.955565 
L 182.970248 -129.955565 
L 182.970248 -129.955565 
L 186.044628 -129.955565 
L 186.044628 -129.955565 
L 189.119008 -129.955565 
L 189.119008 -129.955565 
L 192.193388 -129.955565 
L 192.193388 -129.955565 
L 195.267769 -129.955565 
L 195.267769 -129.955565 
L 198.342149 -129.955565 
L 198.342149 -129.955565 
L 201.416529 -129.955565 
L 201.416529 -129.955565 
L 204.490909 -129.955565 
L 204.490909 -129.955565 
L 207.565289 -129.955565 
L 207.565289 -129.955565 
L 210.639669 -129.955565 
L 210.639669 -129.955565 
L 213.71405 -129.955565 
L 213.71405 -129.955565 
L 216.78843 -129.955565 
L 216.78843 -129.955565 
L 219.86281 -129.955565 
L 219.86281 -129.955565 
L 222.93719 -129.955565 
L 222.93719 -129.955565 
L 226.01157 -129.955565 
L 226.01157 -129.955565 
L 229.08595 -129.955565 
L 229.08595 -129.955565 
L 232.160331 -129.955565 
L 232.160331 -129.955565 
L 235.234711 -129.955565 
L 235.234711 -129.955565 
L 238.309091 -129.955565 
L 238.309091 -129.955565 
L 241.383471 -129.955565 
L 241.383471 -129.955565 
L 244.457851 -129.955565 
L 244.457851 -129.955565 
L 247.532231 -129.955565 
L 247.532231 -129.955565 
L 250.606612 -129.955565 
L 250.606612 -129.955565 
L 253.680992 -129.955565 
L 253.680992 -129.955565 
L 256.755372 -129.955565 
L 256.755372 -129.955565 
L 259.829752 -129.955565 
L 259.829752 -129.955565 
L 262.904132 -129.955565 
L 262.904132 -129.955565 
L 265.978512 -129.955565 
L 265.978512 -129.955565 
L 269.052893 -129.955565 
L 269.052893 -129.955565 
L 272.127273 -129.955565 
L 272.127273 -129.955565 
L 275.201653 -129.955565 
L 275.201653 -129.955565 
L 278.276033 -129.955565 
L 278.276033 -129.955565 
L 281.350413 -129.955565 
L 281.350413 -129.955565 
L 284.424793 -129.955565 
L 284.424793 -129.955565 
L 287.499174 -129.955565 
L 287.499174 -129.955565 
L 290.573554 -129.955565 
L 290.573554 -129.955565 
L 293.647934 -129.955565 
L 293.647934 -129.955565 
L 296.722314 -129.955565 
L 296.722314 -129.955565 
L 299.796694 -129.955565 
L 299.796694 -129.955565 
L 302.871074 -129.955565 
L 302.871074 -129.955565 
L 305.945455 -129.955565 
L 305.945455 -129.955565 
L 309.019835 -129.955565 
L 309.019835 -129.955565 
L 312.094215 -129.955565 
L 312.094215 -129.955565 
L 315.168595 -129.955565 
L 315.168595 -129.955565 
L 318.242975 -129.955565 
L 318.242975 -129.955565 
L 321.317355 -129.955565 
L 321.317355 -129.955565 
L 324.391736 -129.955565 
L 324.391736 -129.955565 
L 327.466116 -129.955565 
L 327.466116 -129.955565 
L 330.540496 -129.955565 
L 330.540496 -129.955565 
L 333.614876 -129.955565 
L 333.614876 -129.955565 
L 336.689256 -129.955565 
L 336.689256 -129.955565 
L 339.763636 -129.955565 
L 339.763636 -129.955565 
L 342.838017 -129.955565 
L 342.838017 -129.955565 
L 345.912397 -129.955565 
L 345.912397 -129.955565 
L 348.986777 -129.955565 
L 348.986777 -129.955565 
L 352.061157 -129.955565 
L 352.061157 -129.955565 
L 355.135537 -129.955565 
L 355.135537 -129.955565 
L 358.209917 -129.955565 
L 358.209917 -129.955565 
L 361.284298 -129.955565 
L 361.284298 -129.955565 
L 364.358678 -129.955565 
L 364.358678 -129.955565 
L 367.433058 -129.955565 
L 367.433058 -129.955565 
L 370.507438 -129.955565 
L 370.507438 -129.955565 
L 373.581818 -129.955565 
L 373.581818 -129.955565 
L 373.581818 -129.955565 
L 373.581818 -129.955565 
L 373.581818 -129.955565 
L 370.507438 -129.955565 
L 370.507438 -129.955565 
L 367.433058 -129.955565 
L 367.433058 -129.955565 
L 364.358678 -129.955565 
L 364.358678 -129.955565 
L 361.284298 -129.955565 
L 361.284298 -129.955565 
L 358.209917 -129.955565 
L 358.209917 -129.955565 
L 355.135537 -129.955565 
L 355.135537 -129.955565 
L 352.061157 -129.955565 
L 352.061157 -129.955565 
L 348.986777 -129.955565 
L 348.986777 -129.955565 
L 345.912397 -129.955565 
L 345.912397 -129.955565 
L 342.838017 -129.955565 
L 342.838017 -129.955565 
L 339.763636 -129.955565 
L 339.763636 -129.955565 
L 336.689256 -129.955565 
L 336.689256 -129.955565 
L 333.614876 -129.955565 
L 333.614876 -129.955565 
L 330.540496 -129.955565 
L 330.540496 -129.955565 
L 327.466116 -129.955565 
L 327.466116 -129.955565 
L 324.391736 -129.955565 
L 324.391736 -129.955565 
L 321.317355 -129.955565 
L 321.317355 -129.955565 
L 318.242975 -129.955565 
L 318.242975 -129.955565 
L 315.168595 -129.955565 
L 315.168595 -129.955565 
L 312.094215 -129.955565 
L 312.094215 -129.955565 
L 309.019835 -129.955565 
L 309.019835 -129.955565 
L 305.945455 -129.955565 
L 305.945455 -129.955565 
L 302.871074 -129.955565 
L 302.871074 -129.955565 
L 299.796694 -129.955565 
L 299.796694 -129.955565 
L 296.722314 -129.955565 
L 296.722314 -129.955565 
L 293.647934 -129.955565 
L 293.647934 -129.955565 
L 290.573554 -129.955565 
L 290.573554 -129.955565 
L 287.499174 -129.955565 
L 287.499174 -129.955565 
L 284.424793 -129.955565 
L 284.424793 -129.955565 
L 281.350413 -129.955565 
L 281.350413 -129.955565 
L 278.276033 -129.955565 
L 278.276033 -129.955565 
L 275.201653 -129.955565 
L 275.201653 -129.955565 
L 272.127273 -129.955565 
L 272.127273 -129.955565 
L 269.052893 -129.955565 
L 269.052893 -129.955565 
L 265.978512 -129.955565 
L 265.978512 -129.955565 
L 262.904132 -129.955565 
L 262.904132 -129.955565 
L 259.829752 -129.955565 
L 259.829752 -129.955565 
L 256.755372 -129.955565 
L 256.755372 -129.955565 
L 253.680992 -129.955565 
L 253.680992 -129.955565 
L 250.606612 -129.955565 
L 250.606612 -129.955565 
L 247.532231 -129.955565 
L 247.532231 -129.955565 
L 244.457851 -129.955565 
L 244.457851 -129.955565 
L 241.383471 -129.955565 
L 241.383471 -129.955565 
L 238.309091 -129.955565 
L 238.309091 -129.955565 
L 235.234711 -129.955565 
L 235.234711 -129.955565 
L 232.160331 -129.955565 
L 232.160331 -129.955565 
L 229.08595 -129.955565 
L 229.08595 -129.955565 
L 226.01157 -129.955565 
L 226.01157 -129.955565 
L 222.93719 -129.955565 
L 222.93719 -129.955565 
L 219.86281 -129.955565 
L 219.86281 -129.955565 
L 216.78843 -129.955565 
L 216.78843 -129.955565 
L 213.71405 -129.955565 
L 213.71405 -129.955565 
L 210.639669 -129.955565 
L 210.639669 -129.955565 
L 207.565289 -129.955565 
L 207.565289 -129.955565 
L 204.490909 -129.955565 
L 204.490909 -129.955565 
L 201.416529 -129.955565 
L 201.416529 -129.955565 
L 198.342149 -129.955565 
L 198.342149 -129.955565 
L 195.267769 -129.955565 
L 195.267769 -129.955565 
L 192.193388 -129.955565 
L 192.193388 -129.955565 
L 189.119008 -129.955565 
L 189.119008 -129.955565 
L 186.044628 -129.955565 
L 186.044628 -129.955565 
L 182.970248 -129.955565 
L 182.970248 -129.955565 
L 179.895868 -129.955565 
L 179.895868 -129.955565 
L 176.821488 -129.955565 
L 176.821488 -129.955565 
L 173.747107 -129.955565 
L 173.747107 -129.955565 
L 170.672727 -129.955565 
L 170.672727 -129.955565 
L 167.598347 -129.955565 
L 167.598347 -129.955565 
L 164.523967 -129.955565 
L 164.523967 -129.955565 
L 161.449587 -129.955565 
L 161.449587 -129.955565 
L 158.375207 -129.955565 
L 158.375207 -129.955565 
L 155.300826 -129.955565 
L 155.300826 -129.955565 
L 152.226446 -129.955565 
L 152.226446 -129.955565 
L 149.152066 -129.955565 
L 149.152066 -129.955565 
L 146.077686 -129.955565 
L 146.077686 -129.955565 
L 143.003306 -129.955565 
L 143.003306 -129.955565 
L 139.928926 -129.955565 
L 139.928926 -129.955565 
L 136.854545 -129.955565 
L 136.854545 -129.955565 
L 133.780165 -129.955565 
L 133.780165 -129.955565 
L 130.705785 -129.955565 
L 130.705785 -129.955565 
L 127.631405 -129.955565 
L 127.631405 -129.955565 
L 124.557025 -129.955565 
L 124.557025 -129.955565 
L 121.482645 -129.955565 
L 121.482645 -129.955565 
L 118.408264 -129.955565 
L 118.408264 -129.955565 
L 115.333884 -129.955565 
L 115.333884 -129.955565 
L 112.259504 -129.955565 
L 112.259504 -156.854287 
L 109.185124 -156.854287 
L 109.185124 -156.854287 
L 106.110744 -156.854287 
L 106.110744 -156.854287 
L 103.036364 -156.854287 
L 103.036364 -198.30693 
L 99.961983 -198.30693 
L 99.961983 -198.30693 
L 96.887603 -198.30693 
L 96.887603 -198.30693 
L 93.813223 -198.30693 
L 93.813223 -198.30693 
L 90.738843 -198.30693 
L 90.738843 -198.30693 
L 87.664463 -198.30693 
L 87.664463 -218.002841 
L 84.590083 -218.002841 
L 84.590083 -218.002841 
L 81.515702 -218.002841 
L 81.515702 -218.002841 
L 78.441322 -218.002841 
L 78.441322 -243.556364 
L 75.366942 -243.556364 
L 75.366942 -243.556364 
L 72.292562 -243.556364 
L 72.292562 -243.556364 
L 69.218182 -243.556364 
z
" id="me65033a6ce" style="stroke:#9400d3;stroke-opacity:0.5;"/>
    </defs>
    <g clip-path="url(#pbdbbe4b4e5)">
     <use style="fill:#9400d3;fill-opacity:0.5;stroke:#9400d3;stroke-opacity:0.5;" x="0" xlink:href="#me65033a6ce" y="288"/>
    </g>
   </g>
   <g id="PolyCollection_4">
    <defs>
     <path d="M 69.218182 -243.556364 
L 69.218182 -243.556364 
L 72.292562 -243.556364 
L 72.292562 -170.360416 
L 75.366942 -170.360416 
L 75.366942 -170.360416 
L 78.441322 -170.360416 
L 78.441322 -170.360416 
L 81.515702 -170.360416 
L 81.515702 -170.360416 
L 84.590083 -170.360416 
L 84.590083 -170.360416 
L 87.664463 -170.360416 
L 87.664463 -170.360416 
L 90.738843 -170.360416 
L 90.738843 -170.360416 
L 93.813223 -170.360416 
L 93.813223 -170.360416 
L 96.887603 -170.360416 
L 96.887603 -170.360416 
L 99.961983 -170.360416 
L 99.961983 -170.360416 
L 103.036364 -170.360416 
L 103.036364 -170.360416 
L 106.110744 -170.360416 
L 106.110744 -170.360416 
L 109.185124 -170.360416 
L 109.185124 -170.360416 
L 112.259504 -170.360416 
L 112.259504 -170.360416 
L 115.333884 -170.360416 
L 115.333884 -170.360416 
L 118.408264 -170.360416 
L 118.408264 -170.360416 
L 121.482645 -170.360416 
L 121.482645 -170.360416 
L 124.557025 -170.360416 
L 124.557025 -170.360416 
L 127.631405 -170.360416 
L 127.631405 -170.360416 
L 130.705785 -170.360416 
L 130.705785 -170.360416 
L 133.780165 -170.360416 
L 133.780165 -170.360416 
L 136.854545 -170.360416 
L 136.854545 -170.360416 
L 139.928926 -170.360416 
L 139.928926 -170.360416 
L 143.003306 -170.360416 
L 143.003306 -170.360416 
L 146.077686 -170.360416 
L 146.077686 -170.360416 
L 149.152066 -170.360416 
L 149.152066 -170.360416 
L 152.226446 -170.360416 
L 152.226446 -170.360416 
L 155.300826 -170.360416 
L 155.300826 -170.360416 
L 158.375207 -170.360416 
L 158.375207 -170.360416 
L 161.449587 -170.360416 
L 161.449587 -170.360416 
L 164.523967 -170.360416 
L 164.523967 -170.360416 
L 167.598347 -170.360416 
L 167.598347 -170.360416 
L 170.672727 -170.360416 
L 170.672727 -170.360416 
L 173.747107 -170.360416 
L 173.747107 -170.360416 
L 176.821488 -170.360416 
L 176.821488 -170.360416 
L 179.895868 -170.360416 
L 179.895868 -170.360416 
L 182.970248 -170.360416 
L 182.970248 -170.360416 
L 186.044628 -170.360416 
L 186.044628 -170.360416 
L 189.119008 -170.360416 
L 189.119008 -170.360416 
L 192.193388 -170.360416 
L 192.193388 -170.360416 
L 195.267769 -170.360416 
L 195.267769 -170.360416 
L 198.342149 -170.360416 
L 198.342149 -170.360416 
L 201.416529 -170.360416 
L 201.416529 -170.360416 
L 204.490909 -170.360416 
L 204.490909 -170.360416 
L 207.565289 -170.360416 
L 207.565289 -170.360416 
L 210.639669 -170.360416 
L 210.639669 -170.360416 
L 213.71405 -170.360416 
L 213.71405 -170.360416 
L 216.78843 -170.360416 
L 216.78843 -170.360416 
L 219.86281 -170.360416 
L 219.86281 -170.360416 
L 222.93719 -170.360416 
L 222.93719 -170.360416 
L 226.01157 -170.360416 
L 226.01157 -170.360416 
L 229.08595 -170.360416 
L 229.08595 -170.360416 
L 232.160331 -170.360416 
L 232.160331 -170.360416 
L 235.234711 -170.360416 
L 235.234711 -170.360416 
L 238.309091 -170.360416 
L 238.309091 -170.360416 
L 241.383471 -170.360416 
L 241.383471 -170.360416 
L 244.457851 -170.360416 
L 244.457851 -170.360416 
L 247.532231 -170.360416 
L 247.532231 -170.360416 
L 250.606612 -170.360416 
L 250.606612 -170.360416 
L 253.680992 -170.360416 
L 253.680992 -170.360416 
L 256.755372 -170.360416 
L 256.755372 -170.360416 
L 259.829752 -170.360416 
L 259.829752 -170.360416 
L 262.904132 -170.360416 
L 262.904132 -170.360416 
L 265.978512 -170.360416 
L 265.978512 -170.360416 
L 269.052893 -170.360416 
L 269.052893 -170.360416 
L 272.127273 -170.360416 
L 272.127273 -170.360416 
L 275.201653 -170.360416 
L 275.201653 -170.360416 
L 278.276033 -170.360416 
L 278.276033 -170.360416 
L 281.350413 -170.360416 
L 281.350413 -170.360416 
L 284.424793 -170.360416 
L 284.424793 -170.360416 
L 287.499174 -170.360416 
L 287.499174 -170.360416 
L 290.573554 -170.360416 
L 290.573554 -170.360416 
L 293.647934 -170.360416 
L 293.647934 -170.360416 
L 296.722314 -170.360416 
L 296.722314 -170.360416 
L 299.796694 -170.360416 
L 299.796694 -170.360416 
L 302.871074 -170.360416 
L 302.871074 -170.360416 
L 305.945455 -170.360416 
L 305.945455 -170.360416 
L 309.019835 -170.360416 
L 309.019835 -170.360416 
L 312.094215 -170.360416 
L 312.094215 -170.360416 
L 315.168595 -170.360416 
L 315.168595 -170.360416 
L 318.242975 -170.360416 
L 318.242975 -170.360416 
L 321.317355 -170.360416 
L 321.317355 -170.360416 
L 324.391736 -170.360416 
L 324.391736 -170.360416 
L 327.466116 -170.360416 
L 327.466116 -170.360416 
L 330.540496 -170.360416 
L 330.540496 -170.360416 
L 333.614876 -170.360416 
L 333.614876 -170.360416 
L 336.689256 -170.360416 
L 336.689256 -170.360416 
L 339.763636 -170.360416 
L 339.763636 -170.360416 
L 342.838017 -170.360416 
L 342.838017 -170.360416 
L 345.912397 -170.360416 
L 345.912397 -170.360416 
L 348.986777 -170.360416 
L 348.986777 -170.360416 
L 352.061157 -170.360416 
L 352.061157 -170.360416 
L 355.135537 -170.360416 
L 355.135537 -170.360416 
L 358.209917 -170.360416 
L 358.209917 -170.360416 
L 361.284298 -170.360416 
L 361.284298 -170.360416 
L 364.358678 -170.360416 
L 364.358678 -170.360416 
L 367.433058 -170.360416 
L 367.433058 -170.360416 
L 370.507438 -170.360416 
L 370.507438 -170.360416 
L 373.581818 -170.360416 
L 373.581818 -170.360416 
L 373.581818 -170.360416 
L 373.581818 -170.360416 
L 373.581818 -170.360416 
L 370.507438 -170.360416 
L 370.507438 -170.360416 
L 367.433058 -170.360416 
L 367.433058 -170.360416 
L 364.358678 -170.360416 
L 364.358678 -170.360416 
L 361.284298 -170.360416 
L 361.284298 -170.360416 
L 358.209917 -170.360416 
L 358.209917 -170.360416 
L 355.135537 -170.360416 
L 355.135537 -170.360416 
L 352.061157 -170.360416 
L 352.061157 -170.360416 
L 348.986777 -170.360416 
L 348.986777 -170.360416 
L 345.912397 -170.360416 
L 345.912397 -170.360416 
L 342.838017 -170.360416 
L 342.838017 -170.360416 
L 339.763636 -170.360416 
L 339.763636 -170.360416 
L 336.689256 -170.360416 
L 336.689256 -170.360416 
L 333.614876 -170.360416 
L 333.614876 -170.360416 
L 330.540496 -170.360416 
L 330.540496 -170.360416 
L 327.466116 -170.360416 
L 327.466116 -170.360416 
L 324.391736 -170.360416 
L 324.391736 -170.360416 
L 321.317355 -170.360416 
L 321.317355 -170.360416 
L 318.242975 -170.360416 
L 318.242975 -170.360416 
L 315.168595 -170.360416 
L 315.168595 -170.360416 
L 312.094215 -170.360416 
L 312.094215 -170.360416 
L 309.019835 -170.360416 
L 309.019835 -170.360416 
L 305.945455 -170.360416 
L 305.945455 -170.360416 
L 302.871074 -170.360416 
L 302.871074 -170.360416 
L 299.796694 -170.360416 
L 299.796694 -170.360416 
L 296.722314 -170.360416 
L 296.722314 -170.360416 
L 293.647934 -170.360416 
L 293.647934 -170.360416 
L 290.573554 -170.360416 
L 290.573554 -170.360416 
L 287.499174 -170.360416 
L 287.499174 -170.360416 
L 284.424793 -170.360416 
L 284.424793 -170.360416 
L 281.350413 -170.360416 
L 281.350413 -170.360416 
L 278.276033 -170.360416 
L 278.276033 -170.360416 
L 275.201653 -170.360416 
L 275.201653 -170.360416 
L 272.127273 -170.360416 
L 272.127273 -170.360416 
L 269.052893 -170.360416 
L 269.052893 -170.360416 
L 265.978512 -170.360416 
L 265.978512 -170.360416 
L 262.904132 -170.360416 
L 262.904132 -170.360416 
L 259.829752 -170.360416 
L 259.829752 -170.360416 
L 256.755372 -170.360416 
L 256.755372 -170.360416 
L 253.680992 -170.360416 
L 253.680992 -170.360416 
L 250.606612 -170.360416 
L 250.606612 -170.360416 
L 247.532231 -170.360416 
L 247.532231 -170.360416 
L 244.457851 -170.360416 
L 244.457851 -170.360416 
L 241.383471 -170.360416 
L 241.383471 -170.360416 
L 238.309091 -170.360416 
L 238.309091 -170.360416 
L 235.234711 -170.360416 
L 235.234711 -170.360416 
L 232.160331 -170.360416 
L 232.160331 -170.360416 
L 229.08595 -170.360416 
L 229.08595 -170.360416 
L 226.01157 -170.360416 
L 226.01157 -170.360416 
L 222.93719 -170.360416 
L 222.93719 -170.360416 
L 219.86281 -170.360416 
L 219.86281 -170.360416 
L 216.78843 -170.360416 
L 216.78843 -170.360416 
L 213.71405 -170.360416 
L 213.71405 -170.360416 
L 210.639669 -170.360416 
L 210.639669 -170.360416 
L 207.565289 -170.360416 
L 207.565289 -170.360416 
L 204.490909 -170.360416 
L 204.490909 -170.360416 
L 201.416529 -170.360416 
L 201.416529 -170.360416 
L 198.342149 -170.360416 
L 198.342149 -170.360416 
L 195.267769 -170.360416 
L 195.267769 -170.360416 
L 192.193388 -170.360416 
L 192.193388 -170.360416 
L 189.119008 -170.360416 
L 189.119008 -170.360416 
L 186.044628 -170.360416 
L 186.044628 -170.360416 
L 182.970248 -170.360416 
L 182.970248 -170.360416 
L 179.895868 -170.360416 
L 179.895868 -170.360416 
L 176.821488 -170.360416 
L 176.821488 -170.360416 
L 173.747107 -170.360416 
L 173.747107 -170.360416 
L 170.672727 -170.360416 
L 170.672727 -170.360416 
L 167.598347 -170.360416 
L 167.598347 -170.360416 
L 164.523967 -170.360416 
L 164.523967 -170.360416 
L 161.449587 -170.360416 
L 161.449587 -170.360416 
L 158.375207 -170.360416 
L 158.375207 -170.360416 
L 155.300826 -170.360416 
L 155.300826 -170.360416 
L 152.226446 -170.360416 
L 152.226446 -170.360416 
L 149.152066 -170.360416 
L 149.152066 -170.360416 
L 146.077686 -170.360416 
L 146.077686 -170.360416 
L 143.003306 -170.360416 
L 143.003306 -170.360416 
L 139.928926 -170.360416 
L 139.928926 -170.360416 
L 136.854545 -170.360416 
L 136.854545 -170.360416 
L 133.780165 -170.360416 
L 133.780165 -170.360416 
L 130.705785 -170.360416 
L 130.705785 -170.360416 
L 127.631405 -170.360416 
L 127.631405 -170.360416 
L 124.557025 -170.360416 
L 124.557025 -170.360416 
L 121.482645 -170.360416 
L 121.482645 -170.360416 
L 118.408264 -170.360416 
L 118.408264 -170.360416 
L 115.333884 -170.360416 
L 115.333884 -170.360416 
L 112.259504 -170.360416 
L 112.259504 -170.360416 
L 109.185124 -170.360416 
L 109.185124 -170.360416 
L 106.110744 -170.360416 
L 106.110744 -170.360416 
L 103.036364 -170.360416 
L 103.036364 -170.360416 
L 99.961983 -170.360416 
L 99.961983 -170.360416 
L 96.887603 -170.360416 
L 96.887603 -170.360416 
L 93.813223 -170.360416 
L 93.813223 -170.360416 
L 90.738843 -170.360416 
L 90.738843 -170.360416 
L 87.664463 -170.360416 
L 87.664463 -170.360416 
L 84.590083 -170.360416 
L 84.590083 -170.360416 
L 81.515702 -170.360416 
L 81.515702 -170.360416 
L 78.441322 -170.360416 
L 78.441322 -170.360416 
L 75.366942 -170.360416 
L 75.366942 -213.913293 
L 72.292562 -213.913293 
L 72.292562 -243.556364 
L 69.218182 -243.556364 
z
" id="mb3ee127abe" style="stroke:#8b4513;stroke-opacity:0.5;"/>
    </defs>
    <g clip-path="url(#pbdbbe4b4e5)">
     <use style="fill:#8b4513;fill-opacity:0.5;stroke:#8b4513;stroke-opacity:0.5;" x="0" xlink:href="#mb3ee127abe" y="288"/>
    </g>
   </g>
   <g id="matplotlib.axis_1">
    <g id="xtick_1">
     <g id="line2d_1">
      <defs>
       <path d="M 0 0 
L 0 3.5 
" id="m4258907a5a" style="stroke:#000000;stroke-width:0.8;"/>
      </defs>
      <g>
       <use style="stroke:#000000;stroke-width:0.8;" x="66.143802" xlink:href="#m4258907a5a" y="252"/>
      </g>
     </g>
     <g id="text_1">
      <!-- 0 -->
      <g transform="translate(62.962552 266.598437)scale(0.1 -0.1)">
       <defs>
        <path d="M 31.78125 66.40625 
Q 24.171875 66.40625 20.328125 58.90625 
Q 16.5 51.421875 16.5 36.375 
Q 16.5 21.390625 20.328125 13.890625 
Q 24.171875 6.390625 31.78125 6.390625 
Q 39.453125 6.390625 43.28125 13.890625 
Q 47.125 21.390625 47.125 36.375 
Q 47.125 51.421875 43.28125 58.90625 
Q 39.453125 66.40625 31.78125 66.40625 
z
M 31.78125 74.21875 
Q 44.046875 74.21875 50.515625 64.515625 
Q 56.984375 54.828125 56.984375 36.375 
Q 56.984375 17.96875 50.515625 8.265625 
Q 44.046875 -1.421875 31.78125 -1.421875 
Q 19.53125 -1.421875 13.0625 8.265625 
Q 6.59375 17.96875 6.59375 36.375 
Q 6.59375 54.828125 13.0625 64.515625 
Q 19.53125 74.21875 31.78125 74.21875 
z
" id="DejaVuSans-48"/>
       </defs>
       <use xlink:href="#DejaVuSans-48"/>
      </g>
     </g>
    </g>
    <g id="xtick_2">
     <g id="line2d_2">
      <g>
       <use style="stroke:#000000;stroke-width:0.8;" x="127.631405" xlink:href="#m4258907a5a" y="252"/>
      </g>
     </g>
     <g id="text_2">
      <!-- 20 -->
      <g transform="translate(121.268905 266.598437)scale(0.1 -0.1)">
       <defs>
        <path d="M 19.1875 8.296875 
L 53.609375 8.296875 
L 53.609375 0 
L 7.328125 0 
L 7.328125 8.296875 
Q 12.9375 14.109375 22.625 23.890625 
Q 32.328125 33.6875 34.8125 36.53125 
Q 39.546875 41.84375 41.421875 45.53125 
Q 43.3125 49.21875 43.3125 52.78125 
Q 43.3125 58.59375 39.234375 62.25 
Q 35.15625 65.921875 28.609375 65.921875 
Q 23.96875 65.921875 18.8125 64.3125 
Q 13.671875 62.703125 7.8125 59.421875 
L 7.8125 69.390625 
Q 13.765625 71.78125 18.9375 73 
Q 24.125 74.21875 28.421875 74.21875 
Q 39.75 74.21875 46.484375 68.546875 
Q 53.21875 62.890625 53.21875 53.421875 
Q 53.21875 48.921875 51.53125 44.890625 
Q 49.859375 40.875 45.40625 35.40625 
Q 44.1875 33.984375 37.640625 27.21875 
Q 31.109375 20.453125 19.1875 8.296875 
z
" id="DejaVuSans-50"/>
       </defs>
       <use xlink:href="#DejaVuSans-50"/>
       <use x="63.623047" xlink:href="#DejaVuSans-48"/>
      </g>
     </g>
    </g>
    <g id="xtick_3">
     <g id="line2d_3">
      <g>
       <use style="stroke:#000000;stroke-width:0.8;" x="189.119008" xlink:href="#m4258907a5a" y="252"/>
      </g>
     </g>
     <g id="text_3">
      <!-- 40 -->
      <g transform="translate(182.756508 266.598437)scale(0.1 -0.1)">
       <defs>
        <path d="M 37.796875 64.3125 
L 12.890625 25.390625 
L 37.796875 25.390625 
z
M 35.203125 72.90625 
L 47.609375 72.90625 
L 47.609375 25.390625 
L 58.015625 25.390625 
L 58.015625 17.1875 
L 47.609375 17.1875 
L 47.609375 0 
L 37.796875 0 
L 37.796875 17.1875 
L 4.890625 17.1875 
L 4.890625 26.703125 
z
" id="DejaVuSans-52"/>
       </defs>
       <use xlink:href="#DejaVuSans-52"/>
       <use x="63.623047" xlink:href="#DejaVuSans-48"/>
      </g>
     </g>
    </g>
    <g id="xtick_4">
     <g id="line2d_4">
      <g>
       <use style="stroke:#000000;stroke-width:0.8;" x="250.606612" xlink:href="#m4258907a5a" y="252"/>
      </g>
     </g>
     <g id="text_4">
      <!-- 60 -->
      <g transform="translate(244.244112 266.598437)scale(0.1 -0.1)">
       <defs>
        <path d="M 33.015625 40.375 
Q 26.375 40.375 22.484375 35.828125 
Q 18.609375 31.296875 18.609375 23.390625 
Q 18.609375 15.53125 22.484375 10.953125 
Q 26.375 6.390625 33.015625 6.390625 
Q 39.65625 6.390625 43.53125 10.953125 
Q 47.40625 15.53125 47.40625 23.390625 
Q 47.40625 31.296875 43.53125 35.828125 
Q 39.65625 40.375 33.015625 40.375 
z
M 52.59375 71.296875 
L 52.59375 62.3125 
Q 48.875 64.0625 45.09375 64.984375 
Q 41.3125 65.921875 37.59375 65.921875 
Q 27.828125 65.921875 22.671875 59.328125 
Q 17.53125 52.734375 16.796875 39.40625 
Q 19.671875 43.65625 24.015625 45.921875 
Q 28.375 48.1875 33.59375 48.1875 
Q 44.578125 48.1875 50.953125 41.515625 
Q 57.328125 34.859375 57.328125 23.390625 
Q 57.328125 12.15625 50.6875 5.359375 
Q 44.046875 -1.421875 33.015625 -1.421875 
Q 20.359375 -1.421875 13.671875 8.265625 
Q 6.984375 17.96875 6.984375 36.375 
Q 6.984375 53.65625 15.1875 63.9375 
Q 23.390625 74.21875 37.203125 74.21875 
Q 40.921875 74.21875 44.703125 73.484375 
Q 48.484375 72.75 52.59375 71.296875 
z
" id="DejaVuSans-54"/>
       </defs>
       <use xlink:href="#DejaVuSans-54"/>
       <use x="63.623047" xlink:href="#DejaVuSans-48"/>
      </g>
     </g>
    </g>
    <g id="xtick_5">
     <g id="line2d_5">
      <g>
       <use style="stroke:#000000;stroke-width:0.8;" x="312.094215" xlink:href="#m4258907a5a" y="252"/>
      </g>
     </g>
     <g id="text_5">
      <!-- 80 -->
      <g transform="translate(305.731715 266.598437)scale(0.1 -0.1)">
       <defs>
        <path d="M 31.78125 34.625 
Q 24.75 34.625 20.71875 30.859375 
Q 16.703125 27.09375 16.703125 20.515625 
Q 16.703125 13.921875 20.71875 10.15625 
Q 24.75 6.390625 31.78125 6.390625 
Q 38.8125 6.390625 42.859375 10.171875 
Q 46.921875 13.96875 46.921875 20.515625 
Q 46.921875 27.09375 42.890625 30.859375 
Q 38.875 34.625 31.78125 34.625 
z
M 21.921875 38.8125 
Q 15.578125 40.375 12.03125 44.71875 
Q 8.5 49.078125 8.5 55.328125 
Q 8.5 64.0625 14.71875 69.140625 
Q 20.953125 74.21875 31.78125 74.21875 
Q 42.671875 74.21875 48.875 69.140625 
Q 55.078125 64.0625 55.078125 55.328125 
Q 55.078125 49.078125 51.53125 44.71875 
Q 48 40.375 41.703125 38.8125 
Q 48.828125 37.15625 52.796875 32.3125 
Q 56.78125 27.484375 56.78125 20.515625 
Q 56.78125 9.90625 50.3125 4.234375 
Q 43.84375 -1.421875 31.78125 -1.421875 
Q 19.734375 -1.421875 13.25 4.234375 
Q 6.78125 9.90625 6.78125 20.515625 
Q 6.78125 27.484375 10.78125 32.3125 
Q 14.796875 37.15625 21.921875 38.8125 
z
M 18.3125 54.390625 
Q 18.3125 48.734375 21.84375 45.5625 
Q 25.390625 42.390625 31.78125 42.390625 
Q 38.140625 42.390625 41.71875 45.5625 
Q 45.3125 48.734375 45.3125 54.390625 
Q 45.3125 60.0625 41.71875 63.234375 
Q 38.140625 66.40625 31.78125 66.40625 
Q 25.390625 66.40625 21.84375 63.234375 
Q 18.3125 60.0625 18.3125 54.390625 
z
" id="DejaVuSans-56"/>
       </defs>
       <use xlink:href="#DejaVuSans-56"/>
       <use x="63.623047" xlink:href="#DejaVuSans-48"/>
      </g>
     </g>
    </g>
    <g id="xtick_6">
     <g id="line2d_6">
      <g>
       <use style="stroke:#000000;stroke-width:0.8;" x="373.581818" xlink:href="#m4258907a5a" y="252"/>
      </g>
     </g>
     <g id="text_6">
      <!-- 100 -->
      <g transform="translate(364.038068 266.598437)scale(0.1 -0.1)">
       <defs>
        <path d="M 12.40625 8.296875 
L 28.515625 8.296875 
L 28.515625 63.921875 
L 10.984375 60.40625 
L 10.984375 69.390625 
L 28.421875 72.90625 
L 38.28125 72.90625 
L 38.28125 8.296875 
L 54.390625 8.296875 
L 54.390625 0 
L 12.40625 0 
z
" id="DejaVuSans-49"/>
       </defs>
       <use xlink:href="#DejaVuSans-49"/>
       <use x="63.623047" xlink:href="#DejaVuSans-48"/>
       <use x="127.246094" xlink:href="#DejaVuSans-48"/>
      </g>
     </g>
    </g>
    <g id="text_7">
     <!-- Number of function evaluations -->
     <g transform="translate(142.399219 280.276563)scale(0.1 -0.1)">
      <defs>
       <path d="M 9.8125 72.90625 
L 23.09375 72.90625 
L 55.421875 11.921875 
L 55.421875 72.90625 
L 64.984375 72.90625 
L 64.984375 0 
L 51.703125 0 
L 19.390625 60.984375 
L 19.390625 0 
L 9.8125 0 
z
" id="DejaVuSans-78"/>
       <path d="M 8.5 21.578125 
L 8.5 54.6875 
L 17.484375 54.6875 
L 17.484375 21.921875 
Q 17.484375 14.15625 20.5 10.265625 
Q 23.53125 6.390625 29.59375 6.390625 
Q 36.859375 6.390625 41.078125 11.03125 
Q 45.3125 15.671875 45.3125 23.6875 
L 45.3125 54.6875 
L 54.296875 54.6875 
L 54.296875 0 
L 45.3125 0 
L 45.3125 8.40625 
Q 42.046875 3.421875 37.71875 1 
Q 33.40625 -1.421875 27.6875 -1.421875 
Q 18.265625 -1.421875 13.375 4.4375 
Q 8.5 10.296875 8.5 21.578125 
z
M 31.109375 56 
z
" id="DejaVuSans-117"/>
       <path d="M 52 44.1875 
Q 55.375 50.25 60.0625 53.125 
Q 64.75 56 71.09375 56 
Q 79.640625 56 84.28125 50.015625 
Q 88.921875 44.046875 88.921875 33.015625 
L 88.921875 0 
L 79.890625 0 
L 79.890625 32.71875 
Q 79.890625 40.578125 77.09375 44.375 
Q 74.3125 48.1875 68.609375 48.1875 
Q 61.625 48.1875 57.5625 43.546875 
Q 53.515625 38.921875 53.515625 30.90625 
L 53.515625 0 
L 44.484375 0 
L 44.484375 32.71875 
Q 44.484375 40.625 41.703125 44.40625 
Q 38.921875 48.1875 33.109375 48.1875 
Q 26.21875 48.1875 22.15625 43.53125 
Q 18.109375 38.875 18.109375 30.90625 
L 18.109375 0 
L 9.078125 0 
L 9.078125 54.6875 
L 18.109375 54.6875 
L 18.109375 46.1875 
Q 21.1875 51.21875 25.484375 53.609375 
Q 29.78125 56 35.6875 56 
Q 41.65625 56 45.828125 52.96875 
Q 50 49.953125 52 44.1875 
z
" id="DejaVuSans-109"/>
       <path d="M 48.6875 27.296875 
Q 48.6875 37.203125 44.609375 42.84375 
Q 40.53125 48.484375 33.40625 48.484375 
Q 26.265625 48.484375 22.1875 42.84375 
Q 18.109375 37.203125 18.109375 27.296875 
Q 18.109375 17.390625 22.1875 11.75 
Q 26.265625 6.109375 33.40625 6.109375 
Q 40.53125 6.109375 44.609375 11.75 
Q 48.6875 17.390625 48.6875 27.296875 
z
M 18.109375 46.390625 
Q 20.953125 51.265625 25.265625 53.625 
Q 29.59375 56 35.59375 56 
Q 45.5625 56 51.78125 48.09375 
Q 58.015625 40.1875 58.015625 27.296875 
Q 58.015625 14.40625 51.78125 6.484375 
Q 45.5625 -1.421875 35.59375 -1.421875 
Q 29.59375 -1.421875 25.265625 0.953125 
Q 20.953125 3.328125 18.109375 8.203125 
L 18.109375 0 
L 9.078125 0 
L 9.078125 75.984375 
L 18.109375 75.984375 
z
" id="DejaVuSans-98"/>
       <path d="M 56.203125 29.59375 
L 56.203125 25.203125 
L 14.890625 25.203125 
Q 15.484375 15.921875 20.484375 11.0625 
Q 25.484375 6.203125 34.421875 6.203125 
Q 39.59375 6.203125 44.453125 7.46875 
Q 49.3125 8.734375 54.109375 11.28125 
L 54.109375 2.78125 
Q 49.265625 0.734375 44.1875 -0.34375 
Q 39.109375 -1.421875 33.890625 -1.421875 
Q 20.796875 -1.421875 13.15625 6.1875 
Q 5.515625 13.8125 5.515625 26.8125 
Q 5.515625 40.234375 12.765625 48.109375 
Q 20.015625 56 32.328125 56 
Q 43.359375 56 49.78125 48.890625 
Q 56.203125 41.796875 56.203125 29.59375 
z
M 47.21875 32.234375 
Q 47.125 39.59375 43.09375 43.984375 
Q 39.0625 48.390625 32.421875 48.390625 
Q 24.90625 48.390625 20.390625 44.140625 
Q 15.875 39.890625 15.1875 32.171875 
z
" id="DejaVuSans-101"/>
       <path d="M 41.109375 46.296875 
Q 39.59375 47.171875 37.8125 47.578125 
Q 36.03125 48 33.890625 48 
Q 26.265625 48 22.1875 43.046875 
Q 18.109375 38.09375 18.109375 28.8125 
L 18.109375 0 
L 9.078125 0 
L 9.078125 54.6875 
L 18.109375 54.6875 
L 18.109375 46.1875 
Q 20.953125 51.171875 25.484375 53.578125 
Q 30.03125 56 36.53125 56 
Q 37.453125 56 38.578125 55.875 
Q 39.703125 55.765625 41.0625 55.515625 
z
" id="DejaVuSans-114"/>
       <path id="DejaVuSans-32"/>
       <path d="M 30.609375 48.390625 
Q 23.390625 48.390625 19.1875 42.75 
Q 14.984375 37.109375 14.984375 27.296875 
Q 14.984375 17.484375 19.15625 11.84375 
Q 23.34375 6.203125 30.609375 6.203125 
Q 37.796875 6.203125 41.984375 11.859375 
Q 46.1875 17.53125 46.1875 27.296875 
Q 46.1875 37.015625 41.984375 42.703125 
Q 37.796875 48.390625 30.609375 48.390625 
z
M 30.609375 56 
Q 42.328125 56 49.015625 48.375 
Q 55.71875 40.765625 55.71875 27.296875 
Q 55.71875 13.875 49.015625 6.21875 
Q 42.328125 -1.421875 30.609375 -1.421875 
Q 18.84375 -1.421875 12.171875 6.21875 
Q 5.515625 13.875 5.515625 27.296875 
Q 5.515625 40.765625 12.171875 48.375 
Q 18.84375 56 30.609375 56 
z
" id="DejaVuSans-111"/>
       <path d="M 37.109375 75.984375 
L 37.109375 68.5 
L 28.515625 68.5 
Q 23.6875 68.5 21.796875 66.546875 
Q 19.921875 64.59375 19.921875 59.515625 
L 19.921875 54.6875 
L 34.71875 54.6875 
L 34.71875 47.703125 
L 19.921875 47.703125 
L 19.921875 0 
L 10.890625 0 
L 10.890625 47.703125 
L 2.296875 47.703125 
L 2.296875 54.6875 
L 10.890625 54.6875 
L 10.890625 58.5 
Q 10.890625 67.625 15.140625 71.796875 
Q 19.390625 75.984375 28.609375 75.984375 
z
" id="DejaVuSans-102"/>
       <path d="M 54.890625 33.015625 
L 54.890625 0 
L 45.90625 0 
L 45.90625 32.71875 
Q 45.90625 40.484375 42.875 44.328125 
Q 39.84375 48.1875 33.796875 48.1875 
Q 26.515625 48.1875 22.3125 43.546875 
Q 18.109375 38.921875 18.109375 30.90625 
L 18.109375 0 
L 9.078125 0 
L 9.078125 54.6875 
L 18.109375 54.6875 
L 18.109375 46.1875 
Q 21.34375 51.125 25.703125 53.5625 
Q 30.078125 56 35.796875 56 
Q 45.21875 56 50.046875 50.171875 
Q 54.890625 44.34375 54.890625 33.015625 
z
" id="DejaVuSans-110"/>
       <path d="M 48.78125 52.59375 
L 48.78125 44.1875 
Q 44.96875 46.296875 41.140625 47.34375 
Q 37.3125 48.390625 33.40625 48.390625 
Q 24.65625 48.390625 19.8125 42.84375 
Q 14.984375 37.3125 14.984375 27.296875 
Q 14.984375 17.28125 19.8125 11.734375 
Q 24.65625 6.203125 33.40625 6.203125 
Q 37.3125 6.203125 41.140625 7.25 
Q 44.96875 8.296875 48.78125 10.40625 
L 48.78125 2.09375 
Q 45.015625 0.34375 40.984375 -0.53125 
Q 36.96875 -1.421875 32.421875 -1.421875 
Q 20.0625 -1.421875 12.78125 6.34375 
Q 5.515625 14.109375 5.515625 27.296875 
Q 5.515625 40.671875 12.859375 48.328125 
Q 20.21875 56 33.015625 56 
Q 37.15625 56 41.109375 55.140625 
Q 45.0625 54.296875 48.78125 52.59375 
z
" id="DejaVuSans-99"/>
       <path d="M 18.3125 70.21875 
L 18.3125 54.6875 
L 36.8125 54.6875 
L 36.8125 47.703125 
L 18.3125 47.703125 
L 18.3125 18.015625 
Q 18.3125 11.328125 20.140625 9.421875 
Q 21.96875 7.515625 27.59375 7.515625 
L 36.8125 7.515625 
L 36.8125 0 
L 27.59375 0 
Q 17.1875 0 13.234375 3.875 
Q 9.28125 7.765625 9.28125 18.015625 
L 9.28125 47.703125 
L 2.6875 47.703125 
L 2.6875 54.6875 
L 9.28125 54.6875 
L 9.28125 70.21875 
z
" id="DejaVuSans-116"/>
       <path d="M 9.421875 54.6875 
L 18.40625 54.6875 
L 18.40625 0 
L 9.421875 0 
z
M 9.421875 75.984375 
L 18.40625 75.984375 
L 18.40625 64.59375 
L 9.421875 64.59375 
z
" id="DejaVuSans-105"/>
       <path d="M 2.984375 54.6875 
L 12.5 54.6875 
L 29.59375 8.796875 
L 46.6875 54.6875 
L 56.203125 54.6875 
L 35.6875 0 
L 23.484375 0 
z
" id="DejaVuSans-118"/>
       <path d="M 34.28125 27.484375 
Q 23.390625 27.484375 19.1875 25 
Q 14.984375 22.515625 14.984375 16.5 
Q 14.984375 11.71875 18.140625 8.90625 
Q 21.296875 6.109375 26.703125 6.109375 
Q 34.1875 6.109375 38.703125 11.40625 
Q 43.21875 16.703125 43.21875 25.484375 
L 43.21875 27.484375 
z
M 52.203125 31.203125 
L 52.203125 0 
L 43.21875 0 
L 43.21875 8.296875 
Q 40.140625 3.328125 35.546875 0.953125 
Q 30.953125 -1.421875 24.3125 -1.421875 
Q 15.921875 -1.421875 10.953125 3.296875 
Q 6 8.015625 6 15.921875 
Q 6 25.140625 12.171875 29.828125 
Q 18.359375 34.515625 30.609375 34.515625 
L 43.21875 34.515625 
L 43.21875 35.40625 
Q 43.21875 41.609375 39.140625 45 
Q 35.0625 48.390625 27.6875 48.390625 
Q 23 48.390625 18.546875 47.265625 
Q 14.109375 46.140625 10.015625 43.890625 
L 10.015625 52.203125 
Q 14.9375 54.109375 19.578125 55.046875 
Q 24.21875 56 28.609375 56 
Q 40.484375 56 46.34375 49.84375 
Q 52.203125 43.703125 52.203125 31.203125 
z
" id="DejaVuSans-97"/>
       <path d="M 9.421875 75.984375 
L 18.40625 75.984375 
L 18.40625 0 
L 9.421875 0 
z
" id="DejaVuSans-108"/>
       <path d="M 44.28125 53.078125 
L 44.28125 44.578125 
Q 40.484375 46.53125 36.375 47.5 
Q 32.28125 48.484375 27.875 48.484375 
Q 21.1875 48.484375 17.84375 46.4375 
Q 14.5 44.390625 14.5 40.28125 
Q 14.5 37.15625 16.890625 35.375 
Q 19.28125 33.59375 26.515625 31.984375 
L 29.59375 31.296875 
Q 39.15625 29.25 43.1875 25.515625 
Q 47.21875 21.78125 47.21875 15.09375 
Q 47.21875 7.46875 41.1875 3.015625 
Q 35.15625 -1.421875 24.609375 -1.421875 
Q 20.21875 -1.421875 15.453125 -0.5625 
Q 10.6875 0.296875 5.421875 2 
L 5.421875 11.28125 
Q 10.40625 8.6875 15.234375 7.390625 
Q 20.0625 6.109375 24.8125 6.109375 
Q 31.15625 6.109375 34.5625 8.28125 
Q 37.984375 10.453125 37.984375 14.40625 
Q 37.984375 18.0625 35.515625 20.015625 
Q 33.0625 21.96875 24.703125 23.78125 
L 21.578125 24.515625 
Q 13.234375 26.265625 9.515625 29.90625 
Q 5.8125 33.546875 5.8125 39.890625 
Q 5.8125 47.609375 11.28125 51.796875 
Q 16.75 56 26.8125 56 
Q 31.78125 56 36.171875 55.265625 
Q 40.578125 54.546875 44.28125 53.078125 
z
" id="DejaVuSans-115"/>
      </defs>
      <use xlink:href="#DejaVuSans-78"/>
      <use x="74.804688" xlink:href="#DejaVuSans-117"/>
      <use x="138.183594" xlink:href="#DejaVuSans-109"/>
      <use x="235.595703" xlink:href="#DejaVuSans-98"/>
      <use x="299.072266" xlink:href="#DejaVuSans-101"/>
      <use x="360.595703" xlink:href="#DejaVuSans-114"/>
      <use x="401.708984" xlink:href="#DejaVuSans-32"/>
      <use x="433.496094" xlink:href="#DejaVuSans-111"/>
      <use x="494.677734" xlink:href="#DejaVuSans-102"/>
      <use x="529.882812" xlink:href="#DejaVuSans-32"/>
      <use x="561.669922" xlink:href="#DejaVuSans-102"/>
      <use x="596.875" xlink:href="#DejaVuSans-117"/>
      <use x="660.253906" xlink:href="#DejaVuSans-110"/>
      <use x="723.632812" xlink:href="#DejaVuSans-99"/>
      <use x="778.613281" xlink:href="#DejaVuSans-116"/>
      <use x="817.822266" xlink:href="#DejaVuSans-105"/>
      <use x="845.605469" xlink:href="#DejaVuSans-111"/>
      <use x="906.787109" xlink:href="#DejaVuSans-110"/>
      <use x="970.166016" xlink:href="#DejaVuSans-32"/>
      <use x="1001.953125" xlink:href="#DejaVuSans-101"/>
      <use x="1063.476562" xlink:href="#DejaVuSans-118"/>
      <use x="1122.65625" xlink:href="#DejaVuSans-97"/>
      <use x="1183.935547" xlink:href="#DejaVuSans-108"/>
      <use x="1211.71875" xlink:href="#DejaVuSans-117"/>
      <use x="1275.097656" xlink:href="#DejaVuSans-97"/>
      <use x="1336.376953" xlink:href="#DejaVuSans-116"/>
      <use x="1375.585938" xlink:href="#DejaVuSans-105"/>
      <use x="1403.369141" xlink:href="#DejaVuSans-111"/>
      <use x="1464.550781" xlink:href="#DejaVuSans-110"/>
      <use x="1527.929688" xlink:href="#DejaVuSans-115"/>
     </g>
    </g>
   </g>
   <g id="matplotlib.axis_2">
    <g id="ytick_1">
     <g id="line2d_7">
      <defs>
       <path d="M 0 0 
L -3.5 0 
" id="mecf8aa998d" style="stroke:#000000;stroke-width:0.8;"/>
      </defs>
      <g>
       <use style="stroke:#000000;stroke-width:0.8;" x="54" xlink:href="#mecf8aa998d" y="235.538016"/>
      </g>
     </g>
     <g id="text_8">
      <!-- $\mathdefault{10^{4}}$ -->
      <g transform="translate(29.4 239.337234)scale(0.1 -0.1)">
       <use transform="translate(0 0.684375)" xlink:href="#DejaVuSans-49"/>
       <use transform="translate(63.623047 0.684375)" xlink:href="#DejaVuSans-48"/>
       <use transform="translate(128.203125 38.965625)scale(0.7)" xlink:href="#DejaVuSans-52"/>
      </g>
     </g>
    </g>
    <g id="ytick_2">
     <g id="line2d_8">
      <g>
       <use style="stroke:#000000;stroke-width:0.8;" x="54" xlink:href="#mecf8aa998d" y="208.238814"/>
      </g>
     </g>
     <g id="text_9">
      <!-- $\mathdefault{10^{6}}$ -->
      <g transform="translate(29.4 212.038033)scale(0.1 -0.1)">
       <use transform="translate(0 0.765625)" xlink:href="#DejaVuSans-49"/>
       <use transform="translate(63.623047 0.765625)" xlink:href="#DejaVuSans-48"/>
       <use transform="translate(128.203125 39.046875)scale(0.7)" xlink:href="#DejaVuSans-54"/>
      </g>
     </g>
    </g>
    <g id="ytick_3">
     <g id="line2d_9">
      <g>
       <use style="stroke:#000000;stroke-width:0.8;" x="54" xlink:href="#mecf8aa998d" y="180.939612"/>
      </g>
     </g>
     <g id="text_10">
      <!-- $\mathdefault{10^{8}}$ -->
      <g transform="translate(29.4 184.738831)scale(0.1 -0.1)">
       <use transform="translate(0 0.765625)" xlink:href="#DejaVuSans-49"/>
       <use transform="translate(63.623047 0.765625)" xlink:href="#DejaVuSans-48"/>
       <use transform="translate(128.203125 39.046875)scale(0.7)" xlink:href="#DejaVuSans-56"/>
      </g>
     </g>
    </g>
    <g id="ytick_4">
     <g id="line2d_10">
      <g>
       <use style="stroke:#000000;stroke-width:0.8;" x="54" xlink:href="#mecf8aa998d" y="153.640411"/>
      </g>
     </g>
     <g id="text_11">
      <!-- $\mathdefault{10^{10}}$ -->
      <g transform="translate(24.9 157.439629)scale(0.1 -0.1)">
       <use transform="translate(0 0.765625)" xlink:href="#DejaVuSans-49"/>
       <use transform="translate(63.623047 0.765625)" xlink:href="#DejaVuSans-48"/>
       <use transform="translate(128.203125 39.046875)scale(0.7)" xlink:href="#DejaVuSans-49"/>
       <use transform="translate(172.739258 39.046875)scale(0.7)" xlink:href="#DejaVuSans-48"/>
      </g>
     </g>
    </g>
    <g id="ytick_5">
     <g id="line2d_11">
      <g>
       <use style="stroke:#000000;stroke-width:0.8;" x="54" xlink:href="#mecf8aa998d" y="126.341209"/>
      </g>
     </g>
     <g id="text_12">
      <!-- $\mathdefault{10^{12}}$ -->
      <g transform="translate(24.9 130.140428)scale(0.1 -0.1)">
       <use transform="translate(0 0.765625)" xlink:href="#DejaVuSans-49"/>
       <use transform="translate(63.623047 0.765625)" xlink:href="#DejaVuSans-48"/>
       <use transform="translate(128.203125 39.046875)scale(0.7)" xlink:href="#DejaVuSans-49"/>
       <use transform="translate(172.739258 39.046875)scale(0.7)" xlink:href="#DejaVuSans-50"/>
      </g>
     </g>
    </g>
    <g id="ytick_6">
     <g id="line2d_12">
      <g>
       <use style="stroke:#000000;stroke-width:0.8;" x="54" xlink:href="#mecf8aa998d" y="99.042007"/>
      </g>
     </g>
     <g id="text_13">
      <!-- $\mathdefault{10^{14}}$ -->
      <g transform="translate(24.9 102.841226)scale(0.1 -0.1)">
       <use transform="translate(0 0.684375)" xlink:href="#DejaVuSans-49"/>
       <use transform="translate(63.623047 0.684375)" xlink:href="#DejaVuSans-48"/>
       <use transform="translate(128.203125 38.965625)scale(0.7)" xlink:href="#DejaVuSans-49"/>
       <use transform="translate(172.739258 38.965625)scale(0.7)" xlink:href="#DejaVuSans-52"/>
      </g>
     </g>
    </g>
    <g id="ytick_7">
     <g id="line2d_13">
      <g>
       <use style="stroke:#000000;stroke-width:0.8;" x="54" xlink:href="#mecf8aa998d" y="71.742806"/>
      </g>
     </g>
     <g id="text_14">
      <!-- $\mathdefault{10^{16}}$ -->
      <g transform="translate(24.9 75.542024)scale(0.1 -0.1)">
       <use transform="translate(0 0.765625)" xlink:href="#DejaVuSans-49"/>
       <use transform="translate(63.623047 0.765625)" xlink:href="#DejaVuSans-48"/>
       <use transform="translate(128.203125 39.046875)scale(0.7)" xlink:href="#DejaVuSans-49"/>
       <use transform="translate(172.739258 39.046875)scale(0.7)" xlink:href="#DejaVuSans-54"/>
      </g>
     </g>
    </g>
    <g id="ytick_8">
     <g id="line2d_14">
      <g>
       <use style="stroke:#000000;stroke-width:0.8;" x="54" xlink:href="#mecf8aa998d" y="44.443604"/>
      </g>
     </g>
     <g id="text_15">
      <!-- $\mathdefault{10^{18}}$ -->
      <g transform="translate(24.9 48.242823)scale(0.1 -0.1)">
       <use transform="translate(0 0.765625)" xlink:href="#DejaVuSans-49"/>
       <use transform="translate(63.623047 0.765625)" xlink:href="#DejaVuSans-48"/>
       <use transform="translate(128.203125 39.046875)scale(0.7)" xlink:href="#DejaVuSans-49"/>
       <use transform="translate(172.739258 39.046875)scale(0.7)" xlink:href="#DejaVuSans-56"/>
      </g>
     </g>
    </g>
    <g id="text_16">
     <!-- Convergence -->
     <g transform="translate(18.820312 176.24875)rotate(-90)scale(0.1 -0.1)">
      <defs>
       <path d="M 64.40625 67.28125 
L 64.40625 56.890625 
Q 59.421875 61.53125 53.78125 63.8125 
Q 48.140625 66.109375 41.796875 66.109375 
Q 29.296875 66.109375 22.65625 58.46875 
Q 16.015625 50.828125 16.015625 36.375 
Q 16.015625 21.96875 22.65625 14.328125 
Q 29.296875 6.6875 41.796875 6.6875 
Q 48.140625 6.6875 53.78125 8.984375 
Q 59.421875 11.28125 64.40625 15.921875 
L 64.40625 5.609375 
Q 59.234375 2.09375 53.4375 0.328125 
Q 47.65625 -1.421875 41.21875 -1.421875 
Q 24.65625 -1.421875 15.125 8.703125 
Q 5.609375 18.84375 5.609375 36.375 
Q 5.609375 53.953125 15.125 64.078125 
Q 24.65625 74.21875 41.21875 74.21875 
Q 47.75 74.21875 53.53125 72.484375 
Q 59.328125 70.75 64.40625 67.28125 
z
" id="DejaVuSans-67"/>
       <path d="M 45.40625 27.984375 
Q 45.40625 37.75 41.375 43.109375 
Q 37.359375 48.484375 30.078125 48.484375 
Q 22.859375 48.484375 18.828125 43.109375 
Q 14.796875 37.75 14.796875 27.984375 
Q 14.796875 18.265625 18.828125 12.890625 
Q 22.859375 7.515625 30.078125 7.515625 
Q 37.359375 7.515625 41.375 12.890625 
Q 45.40625 18.265625 45.40625 27.984375 
z
M 54.390625 6.78125 
Q 54.390625 -7.171875 48.1875 -13.984375 
Q 42 -20.796875 29.203125 -20.796875 
Q 24.46875 -20.796875 20.265625 -20.09375 
Q 16.0625 -19.390625 12.109375 -17.921875 
L 12.109375 -9.1875 
Q 16.0625 -11.328125 19.921875 -12.34375 
Q 23.78125 -13.375 27.78125 -13.375 
Q 36.625 -13.375 41.015625 -8.765625 
Q 45.40625 -4.15625 45.40625 5.171875 
L 45.40625 9.625 
Q 42.625 4.78125 38.28125 2.390625 
Q 33.9375 0 27.875 0 
Q 17.828125 0 11.671875 7.65625 
Q 5.515625 15.328125 5.515625 27.984375 
Q 5.515625 40.671875 11.671875 48.328125 
Q 17.828125 56 27.875 56 
Q 33.9375 56 38.28125 53.609375 
Q 42.625 51.21875 45.40625 46.390625 
L 45.40625 54.6875 
L 54.390625 54.6875 
z
" id="DejaVuSans-103"/>
      </defs>
      <use xlink:href="#DejaVuSans-67"/>
      <use x="69.824219" xlink:href="#DejaVuSans-111"/>
      <use x="131.005859" xlink:href="#DejaVuSans-110"/>
      <use x="194.384766" xlink:href="#DejaVuSans-118"/>
      <use x="253.564453" xlink:href="#DejaVuSans-101"/>
      <use x="315.087891" xlink:href="#DejaVuSans-114"/>
      <use x="354.451172" xlink:href="#DejaVuSans-103"/>
      <use x="417.927734" xlink:href="#DejaVuSans-101"/>
      <use x="479.451172" xlink:href="#DejaVuSans-110"/>
      <use x="542.830078" xlink:href="#DejaVuSans-99"/>
      <use x="597.810547" xlink:href="#DejaVuSans-101"/>
     </g>
    </g>
   </g>
   <g id="line2d_15">
    <path clip-path="url(#pbdbbe4b4e5)" d="M 69.218182 44.443636 
L 72.292562 44.443636 
L 72.292562 60.879394 
L 75.366942 60.879394 
L 75.366942 77.315121 
L 78.441322 77.315121 
L 78.441322 93.750759 
L 81.515702 93.750759 
L 81.515702 110.185931 
L 84.590083 110.185931 
L 84.590083 126.619571 
L 87.664463 126.619571 
L 87.664463 143.047312 
L 90.738843 143.047312 
L 90.738843 159.452005 
L 93.813223 159.452005 
L 93.813223 175.76635 
L 96.887603 175.76635 
L 96.887603 191.733108 
L 99.961983 191.733108 
L 99.961983 206.469186 
L 103.036364 206.469186 
L 103.036364 217.849594 
L 106.110744 217.849594 
L 106.110744 223.988749 
L 109.185124 223.988749 
L 109.185124 226.220001 
L 112.259504 226.220001 
L 112.259504 226.877858 
L 115.333884 226.877858 
L 115.333884 227.075294 
L 121.482645 227.151946 
L 121.482645 227.197813 
L 133.780165 227.307735 
L 133.780165 227.343392 
L 146.077686 227.450831 
L 146.077686 227.486849 
L 158.375207 227.595562 
L 158.375207 227.632022 
L 170.672727 227.742078 
L 170.672727 227.778992 
L 179.895868 227.853165 
L 179.895868 227.890427 
L 189.119008 227.965304 
L 189.119008 228.00292 
L 198.342149 228.078513 
L 198.342149 228.11649 
L 207.565289 228.192813 
L 207.565289 228.231159 
L 216.78843 228.308226 
L 216.78843 228.346948 
L 226.01157 228.424774 
L 226.01157 228.463879 
L 235.234711 228.542479 
L 235.234711 228.581975 
L 244.457851 228.661364 
L 244.457851 228.701258 
L 253.680992 228.781453 
L 253.680992 228.821754 
L 262.904132 228.902771 
L 262.904132 228.943488 
L 272.127273 229.025343 
L 272.127273 229.066484 
L 281.350413 229.149196 
L 281.350413 229.19077 
L 290.573554 229.274356 
L 290.573554 229.316372 
L 299.796694 229.400852 
L 299.796694 229.443319 
L 309.019835 229.528712 
L 309.019835 229.57164 
L 318.242975 229.657996 
L 318.242975 229.7014 
L 327.466116 229.788682 
L 327.466116 229.832564 
L 336.689256 229.920818 
L 336.689256 229.965193 
L 345.912397 230.054443 
L 345.912397 230.099302 
L 355.135537 230.189558 
L 355.135537 230.234948 
L 364.358678 230.326258 
L 364.358678 230.372179 
L 373.581818 230.464558 
L 373.581818 230.511019 
L 373.581818 230.511019 
" style="fill:none;stroke:#1e90ff;stroke-dasharray:5.55,2.4;stroke-dashoffset:0;stroke-width:1.5;"/>
   </g>
   <g id="line2d_16">
    <path clip-path="url(#pbdbbe4b4e5)" d="M 69.218182 44.443636 
L 90.738843 44.443636 
L 90.738843 87.945839 
L 103.036364 87.945839 
L 103.036364 161.383619 
L 373.581818 161.383619 
L 373.581818 161.383619 
" style="fill:none;stroke:#ff8c00;stroke-dasharray:5.55,2.4;stroke-dashoffset:0;stroke-width:1.5;"/>
   </g>
   <g id="line2d_17">
    <path clip-path="url(#pbdbbe4b4e5)" d="M 72.292562 44.443636 
L 81.515702 44.443636 
L 81.515702 54.658285 
L 93.813223 54.658285 
L 93.813223 72.992039 
L 96.887603 72.992039 
L 96.887603 230.678145 
L 121.482645 230.678145 
L 121.482645 231.205251 
L 130.705785 231.205251 
L 130.705785 231.587697 
L 315.168595 231.598747 
L 315.168595 231.788149 
L 318.242975 231.788149 
L 318.242975 235.010108 
L 330.540496 235.010108 
L 330.540496 239.414566 
L 358.209917 239.414566 
L 358.209917 240.816804 
L 361.284298 240.816804 
L 361.284298 241.683421 
L 364.358678 241.683421 
L 364.358678 242.116364 
L 373.581818 242.116364 
L 373.581818 242.116364 
" style="fill:none;stroke:#008000;stroke-dasharray:5.55,2.4;stroke-dashoffset:0;stroke-width:1.5;"/>
   </g>
   <g id="line2d_18">
    <path clip-path="url(#pbdbbe4b4e5)" d="M 69.218182 77.31522 
L 106.110744 77.315234 
L 106.110744 80.884738 
L 118.408264 80.884738 
L 118.408264 91.252273 
L 139.928926 91.252291 
L 139.928926 155.436613 
L 238.309091 155.455147 
L 238.309091 159.023102 
L 256.755372 159.023102 
L 256.755372 169.346778 
L 321.317355 169.391208 
L 321.317355 173.50912 
L 333.614876 173.50912 
L 333.614876 224.465108 
L 352.061157 224.504559 
L 352.061157 226.701548 
L 373.581818 226.727874 
L 373.581818 226.73925 
" style="fill:none;stroke:#ff0000;stroke-dasharray:5.55,2.4;stroke-dashoffset:0;stroke-width:1.5;"/>
   </g>
   <g id="line2d_19">
    <path clip-path="url(#pbdbbe4b4e5)" d="M 69.218182 44.443636 
L 78.441322 44.443636 
L 78.441322 69.997159 
L 87.664463 69.997159 
L 87.664463 89.69307 
L 103.036364 89.69307 
L 103.036364 131.145713 
L 112.259504 131.145713 
L 112.259504 158.044435 
L 373.581818 158.044435 
L 373.581818 158.044435 
" style="fill:none;stroke:#9400d3;stroke-dasharray:5.55,2.4;stroke-dashoffset:0;stroke-width:1.5;"/>
   </g>
   <g id="line2d_20">
    <path clip-path="url(#pbdbbe4b4e5)" d="M 69.218182 44.443636 
L 72.292562 44.443636 
L 72.292562 74.086707 
L 75.366942 74.086707 
L 75.366942 117.639584 
L 373.581818 117.639584 
L 373.581818 117.639584 
" style="fill:none;stroke:#8b4513;stroke-dasharray:5.55,2.4;stroke-dashoffset:0;stroke-width:1.5;"/>
   </g>
   <g id="patch_3">
    <path d="M 54 252 
L 54 34.56 
" style="fill:none;stroke:#000000;stroke-linecap:square;stroke-linejoin:miter;stroke-width:0.8;"/>
   </g>
   <g id="patch_4">
    <path d="M 388.8 252 
L 388.8 34.56 
" style="fill:none;stroke:#000000;stroke-linecap:square;stroke-linejoin:miter;stroke-width:0.8;"/>
   </g>
   <g id="patch_5">
    <path d="M 54 252 
L 388.8 252 
" style="fill:none;stroke:#000000;stroke-linecap:square;stroke-linejoin:miter;stroke-width:0.8;"/>
   </g>
   <g id="patch_6">
    <path d="M 54 34.56 
L 388.8 34.56 
" style="fill:none;stroke:#000000;stroke-linecap:square;stroke-linejoin:miter;stroke-width:0.8;"/>
   </g>
   <g id="legend_1">
    <g id="patch_7">
     <path d="M 265.895312 131.185 
L 381.8 131.185 
Q 383.8 131.185 383.8 129.185 
L 383.8 41.56 
Q 383.8 39.56 381.8 39.56 
L 265.895312 39.56 
Q 263.895312 39.56 263.895312 41.56 
L 263.895312 129.185 
Q 263.895312 131.185 265.895312 131.185 
z
" style="fill:#ffffff;opacity:0.8;stroke:#cccccc;stroke-linejoin:miter;"/>
    </g>
    <g id="line2d_21">
     <path d="M 267.895312 47.658437 
L 287.895312 47.658437 
" style="fill:none;stroke:#1e90ff;stroke-dasharray:5.55,2.4;stroke-dashoffset:0;stroke-width:1.5;"/>
    </g>
    <g id="line2d_22"/>
    <g id="text_17">
     <!-- ADMM -->
     <g transform="translate(295.895312 51.158437)scale(0.1 -0.1)">
      <defs>
       <path d="M 34.1875 63.1875 
L 20.796875 26.90625 
L 47.609375 26.90625 
z
M 28.609375 72.90625 
L 39.796875 72.90625 
L 67.578125 0 
L 57.328125 0 
L 50.6875 18.703125 
L 17.828125 18.703125 
L 11.1875 0 
L 0.78125 0 
z
" id="DejaVuSans-65"/>
       <path d="M 19.671875 64.796875 
L 19.671875 8.109375 
L 31.59375 8.109375 
Q 46.6875 8.109375 53.6875 14.9375 
Q 60.6875 21.78125 60.6875 36.53125 
Q 60.6875 51.171875 53.6875 57.984375 
Q 46.6875 64.796875 31.59375 64.796875 
z
M 9.8125 72.90625 
L 30.078125 72.90625 
Q 51.265625 72.90625 61.171875 64.09375 
Q 71.09375 55.28125 71.09375 36.53125 
Q 71.09375 17.671875 61.125 8.828125 
Q 51.171875 0 30.078125 0 
L 9.8125 0 
z
" id="DejaVuSans-68"/>
       <path d="M 9.8125 72.90625 
L 24.515625 72.90625 
L 43.109375 23.296875 
L 61.8125 72.90625 
L 76.515625 72.90625 
L 76.515625 0 
L 66.890625 0 
L 66.890625 64.015625 
L 48.09375 14.015625 
L 38.1875 14.015625 
L 19.390625 64.015625 
L 19.390625 0 
L 9.8125 0 
z
" id="DejaVuSans-77"/>
      </defs>
      <use xlink:href="#DejaVuSans-65"/>
      <use x="68.408203" xlink:href="#DejaVuSans-68"/>
      <use x="145.410156" xlink:href="#DejaVuSans-77"/>
      <use x="231.689453" xlink:href="#DejaVuSans-77"/>
     </g>
    </g>
    <g id="line2d_23">
     <path d="M 267.895312 62.336562 
L 287.895312 62.336562 
" style="fill:none;stroke:#ff8c00;stroke-dasharray:5.55,2.4;stroke-dashoffset:0;stroke-width:1.5;"/>
    </g>
    <g id="line2d_24"/>
    <g id="text_18">
     <!-- ADMM_CUATRO -->
     <g transform="translate(295.895312 65.836562)scale(0.1 -0.1)">
      <defs>
       <path d="M 50.984375 -16.609375 
L 50.984375 -23.578125 
L -0.984375 -23.578125 
L -0.984375 -16.609375 
z
" id="DejaVuSans-95"/>
       <path d="M 8.6875 72.90625 
L 18.609375 72.90625 
L 18.609375 28.609375 
Q 18.609375 16.890625 22.84375 11.734375 
Q 27.09375 6.59375 36.625 6.59375 
Q 46.09375 6.59375 50.34375 11.734375 
Q 54.59375 16.890625 54.59375 28.609375 
L 54.59375 72.90625 
L 64.5 72.90625 
L 64.5 27.390625 
Q 64.5 13.140625 57.4375 5.859375 
Q 50.390625 -1.421875 36.625 -1.421875 
Q 22.796875 -1.421875 15.734375 5.859375 
Q 8.6875 13.140625 8.6875 27.390625 
z
" id="DejaVuSans-85"/>
       <path d="M -0.296875 72.90625 
L 61.375 72.90625 
L 61.375 64.59375 
L 35.5 64.59375 
L 35.5 0 
L 25.59375 0 
L 25.59375 64.59375 
L -0.296875 64.59375 
z
" id="DejaVuSans-84"/>
       <path d="M 44.390625 34.1875 
Q 47.5625 33.109375 50.5625 29.59375 
Q 53.5625 26.078125 56.59375 19.921875 
L 66.609375 0 
L 56 0 
L 46.6875 18.703125 
Q 43.0625 26.03125 39.671875 28.421875 
Q 36.28125 30.8125 30.421875 30.8125 
L 19.671875 30.8125 
L 19.671875 0 
L 9.8125 0 
L 9.8125 72.90625 
L 32.078125 72.90625 
Q 44.578125 72.90625 50.734375 67.671875 
Q 56.890625 62.453125 56.890625 51.90625 
Q 56.890625 45.015625 53.6875 40.46875 
Q 50.484375 35.9375 44.390625 34.1875 
z
M 19.671875 64.796875 
L 19.671875 38.921875 
L 32.078125 38.921875 
Q 39.203125 38.921875 42.84375 42.21875 
Q 46.484375 45.515625 46.484375 51.90625 
Q 46.484375 58.296875 42.84375 61.546875 
Q 39.203125 64.796875 32.078125 64.796875 
z
" id="DejaVuSans-82"/>
       <path d="M 39.40625 66.21875 
Q 28.65625 66.21875 22.328125 58.203125 
Q 16.015625 50.203125 16.015625 36.375 
Q 16.015625 22.609375 22.328125 14.59375 
Q 28.65625 6.59375 39.40625 6.59375 
Q 50.140625 6.59375 56.421875 14.59375 
Q 62.703125 22.609375 62.703125 36.375 
Q 62.703125 50.203125 56.421875 58.203125 
Q 50.140625 66.21875 39.40625 66.21875 
z
M 39.40625 74.21875 
Q 54.734375 74.21875 63.90625 63.9375 
Q 73.09375 53.65625 73.09375 36.375 
Q 73.09375 19.140625 63.90625 8.859375 
Q 54.734375 -1.421875 39.40625 -1.421875 
Q 24.03125 -1.421875 14.8125 8.828125 
Q 5.609375 19.09375 5.609375 36.375 
Q 5.609375 53.65625 14.8125 63.9375 
Q 24.03125 74.21875 39.40625 74.21875 
z
" id="DejaVuSans-79"/>
      </defs>
      <use xlink:href="#DejaVuSans-65"/>
      <use x="68.408203" xlink:href="#DejaVuSans-68"/>
      <use x="145.410156" xlink:href="#DejaVuSans-77"/>
      <use x="231.689453" xlink:href="#DejaVuSans-77"/>
      <use x="317.96875" xlink:href="#DejaVuSans-95"/>
      <use x="367.96875" xlink:href="#DejaVuSans-67"/>
      <use x="437.792969" xlink:href="#DejaVuSans-85"/>
      <use x="510.986328" xlink:href="#DejaVuSans-65"/>
      <use x="571.644531" xlink:href="#DejaVuSans-84"/>
      <use x="632.728516" xlink:href="#DejaVuSans-82"/>
      <use x="702.210938" xlink:href="#DejaVuSans-79"/>
     </g>
    </g>
    <g id="line2d_25">
     <path d="M 267.895312 77.292812 
L 287.895312 77.292812 
" style="fill:none;stroke:#008000;stroke-dasharray:5.55,2.4;stroke-dashoffset:0;stroke-width:1.5;"/>
    </g>
    <g id="line2d_26"/>
    <g id="text_19">
     <!-- Py-BOBYQA -->
     <g transform="translate(295.895312 80.792812)scale(0.1 -0.1)">
      <defs>
       <path d="M 19.671875 64.796875 
L 19.671875 37.40625 
L 32.078125 37.40625 
Q 38.96875 37.40625 42.71875 40.96875 
Q 46.484375 44.53125 46.484375 51.125 
Q 46.484375 57.671875 42.71875 61.234375 
Q 38.96875 64.796875 32.078125 64.796875 
z
M 9.8125 72.90625 
L 32.078125 72.90625 
Q 44.34375 72.90625 50.609375 67.359375 
Q 56.890625 61.8125 56.890625 51.125 
Q 56.890625 40.328125 50.609375 34.8125 
Q 44.34375 29.296875 32.078125 29.296875 
L 19.671875 29.296875 
L 19.671875 0 
L 9.8125 0 
z
" id="DejaVuSans-80"/>
       <path d="M 32.171875 -5.078125 
Q 28.375 -14.84375 24.75 -17.8125 
Q 21.140625 -20.796875 15.09375 -20.796875 
L 7.90625 -20.796875 
L 7.90625 -13.28125 
L 13.1875 -13.28125 
Q 16.890625 -13.28125 18.9375 -11.515625 
Q 21 -9.765625 23.484375 -3.21875 
L 25.09375 0.875 
L 2.984375 54.6875 
L 12.5 54.6875 
L 29.59375 11.921875 
L 46.6875 54.6875 
L 56.203125 54.6875 
z
" id="DejaVuSans-121"/>
       <path d="M 4.890625 31.390625 
L 31.203125 31.390625 
L 31.203125 23.390625 
L 4.890625 23.390625 
z
" id="DejaVuSans-45"/>
       <path d="M 19.671875 34.8125 
L 19.671875 8.109375 
L 35.5 8.109375 
Q 43.453125 8.109375 47.28125 11.40625 
Q 51.125 14.703125 51.125 21.484375 
Q 51.125 28.328125 47.28125 31.5625 
Q 43.453125 34.8125 35.5 34.8125 
z
M 19.671875 64.796875 
L 19.671875 42.828125 
L 34.28125 42.828125 
Q 41.5 42.828125 45.03125 45.53125 
Q 48.578125 48.25 48.578125 53.8125 
Q 48.578125 59.328125 45.03125 62.0625 
Q 41.5 64.796875 34.28125 64.796875 
z
M 9.8125 72.90625 
L 35.015625 72.90625 
Q 46.296875 72.90625 52.390625 68.21875 
Q 58.5 63.53125 58.5 54.890625 
Q 58.5 48.1875 55.375 44.234375 
Q 52.25 40.28125 46.1875 39.3125 
Q 53.46875 37.75 57.5 32.78125 
Q 61.53125 27.828125 61.53125 20.40625 
Q 61.53125 10.640625 54.890625 5.3125 
Q 48.25 0 35.984375 0 
L 9.8125 0 
z
" id="DejaVuSans-66"/>
       <path d="M -0.203125 72.90625 
L 10.40625 72.90625 
L 30.609375 42.921875 
L 50.6875 72.90625 
L 61.28125 72.90625 
L 35.5 34.71875 
L 35.5 0 
L 25.59375 0 
L 25.59375 34.71875 
z
" id="DejaVuSans-89"/>
       <path d="M 39.40625 66.21875 
Q 28.65625 66.21875 22.328125 58.203125 
Q 16.015625 50.203125 16.015625 36.375 
Q 16.015625 22.609375 22.328125 14.59375 
Q 28.65625 6.59375 39.40625 6.59375 
Q 50.140625 6.59375 56.421875 14.59375 
Q 62.703125 22.609375 62.703125 36.375 
Q 62.703125 50.203125 56.421875 58.203125 
Q 50.140625 66.21875 39.40625 66.21875 
z
M 53.21875 1.3125 
L 66.21875 -12.890625 
L 54.296875 -12.890625 
L 43.5 -1.21875 
Q 41.890625 -1.3125 41.03125 -1.359375 
Q 40.1875 -1.421875 39.40625 -1.421875 
Q 24.03125 -1.421875 14.8125 8.859375 
Q 5.609375 19.140625 5.609375 36.375 
Q 5.609375 53.65625 14.8125 63.9375 
Q 24.03125 74.21875 39.40625 74.21875 
Q 54.734375 74.21875 63.90625 63.9375 
Q 73.09375 53.65625 73.09375 36.375 
Q 73.09375 23.6875 67.984375 14.640625 
Q 62.890625 5.609375 53.21875 1.3125 
z
" id="DejaVuSans-81"/>
      </defs>
      <use xlink:href="#DejaVuSans-80"/>
      <use x="60.302734" xlink:href="#DejaVuSans-121"/>
      <use x="117.732422" xlink:href="#DejaVuSans-45"/>
      <use x="150.191406" xlink:href="#DejaVuSans-66"/>
      <use x="217.044922" xlink:href="#DejaVuSans-79"/>
      <use x="295.755859" xlink:href="#DejaVuSans-66"/>
      <use x="358.859375" xlink:href="#DejaVuSans-89"/>
      <use x="419.943359" xlink:href="#DejaVuSans-81"/>
      <use x="498.654297" xlink:href="#DejaVuSans-65"/>
     </g>
    </g>
    <g id="line2d_27">
     <path d="M 267.895312 91.970937 
L 287.895312 91.970937 
" style="fill:none;stroke:#ff0000;stroke-dasharray:5.55,2.4;stroke-dashoffset:0;stroke-width:1.5;"/>
    </g>
    <g id="line2d_28"/>
    <g id="text_20">
     <!-- DIRECT-L -->
     <g transform="translate(295.895312 95.470937)scale(0.1 -0.1)">
      <defs>
       <path d="M 9.8125 72.90625 
L 19.671875 72.90625 
L 19.671875 0 
L 9.8125 0 
z
" id="DejaVuSans-73"/>
       <path d="M 9.8125 72.90625 
L 55.90625 72.90625 
L 55.90625 64.59375 
L 19.671875 64.59375 
L 19.671875 43.015625 
L 54.390625 43.015625 
L 54.390625 34.71875 
L 19.671875 34.71875 
L 19.671875 8.296875 
L 56.78125 8.296875 
L 56.78125 0 
L 9.8125 0 
z
" id="DejaVuSans-69"/>
       <path d="M 9.8125 72.90625 
L 19.671875 72.90625 
L 19.671875 8.296875 
L 55.171875 8.296875 
L 55.171875 0 
L 9.8125 0 
z
" id="DejaVuSans-76"/>
      </defs>
      <use xlink:href="#DejaVuSans-68"/>
      <use x="77.001953" xlink:href="#DejaVuSans-73"/>
      <use x="106.494141" xlink:href="#DejaVuSans-82"/>
      <use x="175.976562" xlink:href="#DejaVuSans-69"/>
      <use x="239.160156" xlink:href="#DejaVuSans-67"/>
      <use x="308.984375" xlink:href="#DejaVuSans-84"/>
      <use x="360.943359" xlink:href="#DejaVuSans-45"/>
      <use x="397.027344" xlink:href="#DejaVuSans-76"/>
     </g>
    </g>
    <g id="line2d_29">
     <path d="M 267.895312 106.649062 
L 287.895312 106.649062 
" style="fill:none;stroke:#9400d3;stroke-dasharray:5.55,2.4;stroke-dashoffset:0;stroke-width:1.5;"/>
    </g>
    <g id="line2d_30"/>
    <g id="text_21">
     <!-- ALADIN_CUATRO -->
     <g transform="translate(295.895312 110.149062)scale(0.1 -0.1)">
      <use xlink:href="#DejaVuSans-65"/>
      <use x="68.408203" xlink:href="#DejaVuSans-76"/>
      <use x="126.371094" xlink:href="#DejaVuSans-65"/>
      <use x="194.779297" xlink:href="#DejaVuSans-68"/>
      <use x="271.78125" xlink:href="#DejaVuSans-73"/>
      <use x="301.273438" xlink:href="#DejaVuSans-78"/>
      <use x="376.078125" xlink:href="#DejaVuSans-95"/>
      <use x="426.078125" xlink:href="#DejaVuSans-67"/>
      <use x="495.902344" xlink:href="#DejaVuSans-85"/>
      <use x="569.095703" xlink:href="#DejaVuSans-65"/>
      <use x="629.753906" xlink:href="#DejaVuSans-84"/>
      <use x="690.837891" xlink:href="#DejaVuSans-82"/>
      <use x="760.320312" xlink:href="#DejaVuSans-79"/>
     </g>
    </g>
    <g id="line2d_31">
     <path d="M 267.895312 121.605312 
L 287.895312 121.605312 
" style="fill:none;stroke:#8b4513;stroke-dasharray:5.55,2.4;stroke-dashoffset:0;stroke-width:1.5;"/>
    </g>
    <g id="line2d_32"/>
    <g id="text_22">
     <!-- GPyOpt -->
     <g transform="translate(295.895312 125.105312)scale(0.1 -0.1)">
      <defs>
       <path d="M 59.515625 10.40625 
L 59.515625 29.984375 
L 43.40625 29.984375 
L 43.40625 38.09375 
L 69.28125 38.09375 
L 69.28125 6.78125 
Q 63.578125 2.734375 56.6875 0.65625 
Q 49.8125 -1.421875 42 -1.421875 
Q 24.90625 -1.421875 15.25 8.5625 
Q 5.609375 18.5625 5.609375 36.375 
Q 5.609375 54.25 15.25 64.234375 
Q 24.90625 74.21875 42 74.21875 
Q 49.125 74.21875 55.546875 72.453125 
Q 61.96875 70.703125 67.390625 67.28125 
L 67.390625 56.78125 
Q 61.921875 61.421875 55.765625 63.765625 
Q 49.609375 66.109375 42.828125 66.109375 
Q 29.4375 66.109375 22.71875 58.640625 
Q 16.015625 51.171875 16.015625 36.375 
Q 16.015625 21.625 22.71875 14.15625 
Q 29.4375 6.6875 42.828125 6.6875 
Q 48.046875 6.6875 52.140625 7.59375 
Q 56.25 8.5 59.515625 10.40625 
z
" id="DejaVuSans-71"/>
       <path d="M 18.109375 8.203125 
L 18.109375 -20.796875 
L 9.078125 -20.796875 
L 9.078125 54.6875 
L 18.109375 54.6875 
L 18.109375 46.390625 
Q 20.953125 51.265625 25.265625 53.625 
Q 29.59375 56 35.59375 56 
Q 45.5625 56 51.78125 48.09375 
Q 58.015625 40.1875 58.015625 27.296875 
Q 58.015625 14.40625 51.78125 6.484375 
Q 45.5625 -1.421875 35.59375 -1.421875 
Q 29.59375 -1.421875 25.265625 0.953125 
Q 20.953125 3.328125 18.109375 8.203125 
z
M 48.6875 27.296875 
Q 48.6875 37.203125 44.609375 42.84375 
Q 40.53125 48.484375 33.40625 48.484375 
Q 26.265625 48.484375 22.1875 42.84375 
Q 18.109375 37.203125 18.109375 27.296875 
Q 18.109375 17.390625 22.1875 11.75 
Q 26.265625 6.109375 33.40625 6.109375 
Q 40.53125 6.109375 44.609375 11.75 
Q 48.6875 17.390625 48.6875 27.296875 
z
" id="DejaVuSans-112"/>
      </defs>
      <use xlink:href="#DejaVuSans-71"/>
      <use x="77.490234" xlink:href="#DejaVuSans-80"/>
      <use x="137.792969" xlink:href="#DejaVuSans-121"/>
      <use x="196.972656" xlink:href="#DejaVuSans-79"/>
      <use x="275.683594" xlink:href="#DejaVuSans-112"/>
      <use x="339.160156" xlink:href="#DejaVuSans-116"/>
     </g>
    </g>
   </g>
  </g>
 </g>
 <defs>
  <clipPath id="pbdbbe4b4e5">
   <rect height="217.44" width="334.8" x="54" y="34.56"/>
  </clipPath>
 </defs>
</svg>
