<?xml version="1.0" encoding="utf-8" standalone="no"?>
<!DOCTYPE svg PUBLIC "-//W3C//DTD SVG 1.1//EN"
  "http://www.w3.org/Graphics/SVG/1.1/DTD/svg11.dtd">
<!-- Created with matplotlib (https://matplotlib.org/) -->
<svg height="288pt" version="1.1" viewBox="0 0 432 288" width="432pt" xmlns="http://www.w3.org/2000/svg" xmlns:xlink="http://www.w3.org/1999/xlink">
 <metadata>
  <rdf:RDF xmlns:cc="http://creativecommons.org/ns#" xmlns:dc="http://purl.org/dc/elements/1.1/" xmlns:rdf="http://www.w3.org/1999/02/22-rdf-syntax-ns#">
   <cc:Work>
    <dc:type rdf:resource="http://purl.org/dc/dcmitype/StillImage"/>
    <dc:date>2022-03-03T02:14:29.619198</dc:date>
    <dc:format>image/svg+xml</dc:format>
    <dc:creator>
     <cc:Agent>
      <dc:title>Matplotlib v3.3.4, https://matplotlib.org/</dc:title>
     </cc:Agent>
    </dc:creator>
   </cc:Work>
  </rdf:RDF>
 </metadata>
 <defs>
  <style type="text/css">*{stroke-linecap:butt;stroke-linejoin:round;}</style>
 </defs>
 <g id="figure_1">
  <g id="patch_1">
   <path d="M 0 288 
L 432 288 
L 432 0 
L 0 0 
z
" style="fill:#ffffff;"/>
  </g>
  <g id="axes_1">
   <g id="patch_2">
    <path d="M 54 252 
L 388.8 252 
L 388.8 34.56 
L 54 34.56 
z
" style="fill:#ffffff;"/>
   </g>
   <g id="PolyCollection_1">
    <defs>
     <path d="M 69.218182 -243.556364 
L 69.218182 -243.556364 
L 72.292562 -243.556364 
L 72.292562 -243.556364 
L 75.366942 -243.556364 
L 75.366942 -243.556364 
L 78.441322 -243.556364 
L 78.441322 -243.556364 
L 81.515702 -243.556364 
L 81.515702 -243.556364 
L 84.590083 -243.556364 
L 84.590083 -243.556364 
L 87.664463 -243.556364 
L 87.664463 -243.556364 
L 90.738843 -243.556364 
L 90.738843 -162.864761 
L 93.813223 -162.864761 
L 93.813223 -162.864761 
L 96.887603 -162.864761 
L 96.887603 -162.864761 
L 99.961983 -162.864761 
L 99.961983 -162.864761 
L 103.036364 -162.864761 
L 103.036364 -162.864761 
L 106.110744 -162.864761 
L 106.110744 -162.864761 
L 109.185124 -162.864761 
L 109.185124 -162.864761 
L 112.259504 -162.864761 
L 112.259504 -162.864761 
L 115.333884 -162.864761 
L 115.333884 -162.864761 
L 118.408264 -162.864761 
L 118.408264 -162.864761 
L 121.482645 -162.864761 
L 121.482645 -162.864761 
L 124.557025 -162.864761 
L 124.557025 -162.864761 
L 127.631405 -162.864761 
L 127.631405 -162.864761 
L 130.705785 -162.864761 
L 130.705785 -162.864761 
L 133.780165 -162.864761 
L 133.780165 -162.864761 
L 136.854545 -162.864761 
L 136.854545 -162.864761 
L 139.928926 -162.864761 
L 139.928926 -162.864761 
L 143.003306 -162.864761 
L 143.003306 -162.864761 
L 146.077686 -162.864761 
L 146.077686 -162.864761 
L 149.152066 -162.864761 
L 149.152066 -162.864761 
L 152.226446 -162.864761 
L 152.226446 -162.864761 
L 155.300826 -162.864761 
L 155.300826 -162.864761 
L 158.375207 -162.864761 
L 158.375207 -162.864761 
L 161.449587 -162.864761 
L 161.449587 -162.864761 
L 164.523967 -162.864761 
L 164.523967 -162.864761 
L 167.598347 -162.864761 
L 167.598347 -162.864761 
L 170.672727 -162.864761 
L 170.672727 -162.864761 
L 173.747107 -162.864761 
L 173.747107 -123.878068 
L 176.821488 -123.878068 
L 176.821488 -123.878068 
L 179.895868 -123.878068 
L 179.895868 -123.878068 
L 182.970248 -123.878068 
L 182.970248 -123.878068 
L 186.044628 -123.878068 
L 186.044628 -123.878068 
L 189.119008 -123.878068 
L 189.119008 -123.878068 
L 192.193388 -123.878068 
L 192.193388 -123.878068 
L 195.267769 -123.878068 
L 195.267769 -123.878068 
L 198.342149 -123.878068 
L 198.342149 -123.878068 
L 201.416529 -123.878068 
L 201.416529 -123.878068 
L 204.490909 -123.878068 
L 204.490909 -123.878068 
L 207.565289 -123.878068 
L 207.565289 -123.878068 
L 210.639669 -123.878068 
L 210.639669 -123.878068 
L 213.71405 -123.878068 
L 213.71405 -123.878068 
L 216.78843 -123.878068 
L 216.78843 -123.878068 
L 219.86281 -123.878068 
L 219.86281 -123.878068 
L 222.93719 -123.878068 
L 222.93719 -123.878068 
L 226.01157 -123.878068 
L 226.01157 -123.878068 
L 229.08595 -123.878068 
L 229.08595 -123.878068 
L 232.160331 -123.878068 
L 232.160331 -123.878068 
L 235.234711 -123.878068 
L 235.234711 -123.878068 
L 238.309091 -123.878068 
L 238.309091 -123.878068 
L 241.383471 -123.878068 
L 241.383471 -123.878068 
L 244.457851 -123.878068 
L 244.457851 -123.878068 
L 247.532231 -123.878068 
L 247.532231 -123.878068 
L 250.606612 -123.878068 
L 250.606612 -123.878068 
L 253.680992 -123.878068 
L 253.680992 -100.334747 
L 256.755372 -100.334747 
L 256.755372 -100.334747 
L 259.829752 -100.334747 
L 259.829752 -96.238137 
L 262.904132 -96.238137 
L 262.904132 -96.238137 
L 265.978512 -96.238137 
L 265.978512 -96.238137 
L 269.052893 -96.238137 
L 269.052893 -96.238137 
L 272.127273 -96.238137 
L 272.127273 -96.238137 
L 275.201653 -96.238137 
L 275.201653 -96.238137 
L 278.276033 -96.238137 
L 278.276033 -96.238137 
L 281.350413 -96.238137 
L 281.350413 -96.238137 
L 284.424793 -96.238137 
L 284.424793 -96.238137 
L 287.499174 -96.238137 
L 287.499174 -96.238137 
L 290.573554 -96.238137 
L 290.573554 -96.238137 
L 293.647934 -96.238137 
L 293.647934 -96.238137 
L 296.722314 -96.238137 
L 296.722314 -96.238137 
L 299.796694 -96.238137 
L 299.796694 -96.238137 
L 302.871074 -96.238137 
L 302.871074 -96.238137 
L 305.945455 -96.238137 
L 305.945455 -96.238137 
L 309.019835 -96.238137 
L 309.019835 -96.238137 
L 312.094215 -96.238137 
L 312.094215 -96.238137 
L 315.168595 -96.238137 
L 315.168595 -96.238137 
L 318.242975 -96.238137 
L 318.242975 -96.238137 
L 321.317355 -96.238137 
L 321.317355 -96.238137 
L 324.391736 -96.238137 
L 324.391736 -96.238137 
L 327.466116 -96.238137 
L 327.466116 -74.794424 
L 330.540496 -74.794424 
L 330.540496 -74.794424 
L 333.614876 -74.794424 
L 333.614876 -74.794424 
L 336.689256 -74.794424 
L 336.689256 -74.794424 
L 339.763636 -74.794424 
L 339.763636 -74.794424 
L 342.838017 -74.794424 
L 342.838017 -74.794424 
L 345.912397 -74.794424 
L 345.912397 -74.794424 
L 348.986777 -74.794424 
L 348.986777 -74.794424 
L 352.061157 -74.794424 
L 352.061157 -72.495628 
L 355.135537 -72.495628 
L 355.135537 -72.495628 
L 358.209917 -72.495628 
L 358.209917 -65.159284 
L 361.284298 -65.159284 
L 361.284298 -65.159284 
L 364.358678 -65.159284 
L 364.358678 -65.159284 
L 367.433058 -65.159284 
L 367.433058 -65.159284 
L 370.507438 -65.159284 
L 370.507438 -65.159284 
L 373.581818 -65.159284 
L 373.581818 -65.159284 
L 373.581818 -65.159284 
L 373.581818 -65.159284 
L 373.581818 -65.159284 
L 370.507438 -65.159284 
L 370.507438 -65.159284 
L 367.433058 -65.159284 
L 367.433058 -65.159284 
L 364.358678 -65.159284 
L 364.358678 -65.159284 
L 361.284298 -65.159284 
L 361.284298 -65.159284 
L 358.209917 -65.159284 
L 358.209917 -72.495628 
L 355.135537 -72.495628 
L 355.135537 -72.495628 
L 352.061157 -72.495628 
L 352.061157 -74.794424 
L 348.986777 -74.794424 
L 348.986777 -74.794424 
L 345.912397 -74.794424 
L 345.912397 -74.794424 
L 342.838017 -74.794424 
L 342.838017 -74.794424 
L 339.763636 -74.794424 
L 339.763636 -74.794424 
L 336.689256 -74.794424 
L 336.689256 -74.794424 
L 333.614876 -74.794424 
L 333.614876 -74.794424 
L 330.540496 -74.794424 
L 330.540496 -74.794424 
L 327.466116 -74.794424 
L 327.466116 -96.238137 
L 324.391736 -96.238137 
L 324.391736 -96.238137 
L 321.317355 -96.238137 
L 321.317355 -96.238137 
L 318.242975 -96.238137 
L 318.242975 -96.238137 
L 315.168595 -96.238137 
L 315.168595 -96.238137 
L 312.094215 -96.238137 
L 312.094215 -96.238137 
L 309.019835 -96.238137 
L 309.019835 -96.238137 
L 305.945455 -96.238137 
L 305.945455 -96.238137 
L 302.871074 -96.238137 
L 302.871074 -96.238137 
L 299.796694 -96.238137 
L 299.796694 -96.238137 
L 296.722314 -96.238137 
L 296.722314 -96.238137 
L 293.647934 -96.238137 
L 293.647934 -96.238137 
L 290.573554 -96.238137 
L 290.573554 -96.238137 
L 287.499174 -96.238137 
L 287.499174 -96.238137 
L 284.424793 -96.238137 
L 284.424793 -96.238137 
L 281.350413 -96.238137 
L 281.350413 -96.238137 
L 278.276033 -96.238137 
L 278.276033 -96.238137 
L 275.201653 -96.238137 
L 275.201653 -96.238137 
L 272.127273 -96.238137 
L 272.127273 -96.238137 
L 269.052893 -96.238137 
L 269.052893 -96.238137 
L 265.978512 -96.238137 
L 265.978512 -96.238137 
L 262.904132 -96.238137 
L 262.904132 -96.238137 
L 259.829752 -96.238137 
L 259.829752 -100.334747 
L 256.755372 -100.334747 
L 256.755372 -100.334747 
L 253.680992 -100.334747 
L 253.680992 -123.878068 
L 250.606612 -123.878068 
L 250.606612 -123.878068 
L 247.532231 -123.878068 
L 247.532231 -123.878068 
L 244.457851 -123.878068 
L 244.457851 -123.878068 
L 241.383471 -123.878068 
L 241.383471 -123.878068 
L 238.309091 -123.878068 
L 238.309091 -123.878068 
L 235.234711 -123.878068 
L 235.234711 -123.878068 
L 232.160331 -123.878068 
L 232.160331 -123.878068 
L 229.08595 -123.878068 
L 229.08595 -123.878068 
L 226.01157 -123.878068 
L 226.01157 -123.878068 
L 222.93719 -123.878068 
L 222.93719 -123.878068 
L 219.86281 -123.878068 
L 219.86281 -123.878068 
L 216.78843 -123.878068 
L 216.78843 -123.878068 
L 213.71405 -123.878068 
L 213.71405 -123.878068 
L 210.639669 -123.878068 
L 210.639669 -123.878068 
L 207.565289 -123.878068 
L 207.565289 -123.878068 
L 204.490909 -123.878068 
L 204.490909 -123.878068 
L 201.416529 -123.878068 
L 201.416529 -123.878068 
L 198.342149 -123.878068 
L 198.342149 -123.878068 
L 195.267769 -123.878068 
L 195.267769 -123.878068 
L 192.193388 -123.878068 
L 192.193388 -123.878068 
L 189.119008 -123.878068 
L 189.119008 -123.878068 
L 186.044628 -123.878068 
L 186.044628 -123.878068 
L 182.970248 -123.878068 
L 182.970248 -123.878068 
L 179.895868 -123.878068 
L 179.895868 -123.878068 
L 176.821488 -123.878068 
L 176.821488 -123.878068 
L 173.747107 -123.878068 
L 173.747107 -162.864761 
L 170.672727 -162.864761 
L 170.672727 -162.864761 
L 167.598347 -162.864761 
L 167.598347 -162.864761 
L 164.523967 -162.864761 
L 164.523967 -162.864761 
L 161.449587 -162.864761 
L 161.449587 -162.864761 
L 158.375207 -162.864761 
L 158.375207 -162.864761 
L 155.300826 -162.864761 
L 155.300826 -162.864761 
L 152.226446 -162.864761 
L 152.226446 -162.864761 
L 149.152066 -162.864761 
L 149.152066 -162.864761 
L 146.077686 -162.864761 
L 146.077686 -162.864761 
L 143.003306 -162.864761 
L 143.003306 -162.864761 
L 139.928926 -162.864761 
L 139.928926 -162.864761 
L 136.854545 -162.864761 
L 136.854545 -162.864761 
L 133.780165 -162.864761 
L 133.780165 -162.864761 
L 130.705785 -162.864761 
L 130.705785 -162.864761 
L 127.631405 -162.864761 
L 127.631405 -162.864761 
L 124.557025 -162.864761 
L 124.557025 -162.864761 
L 121.482645 -162.864761 
L 121.482645 -162.864761 
L 118.408264 -162.864761 
L 118.408264 -162.864761 
L 115.333884 -162.864761 
L 115.333884 -162.864761 
L 112.259504 -162.864761 
L 112.259504 -162.864761 
L 109.185124 -162.864761 
L 109.185124 -162.864761 
L 106.110744 -162.864761 
L 106.110744 -162.864761 
L 103.036364 -162.864761 
L 103.036364 -162.864761 
L 99.961983 -162.864761 
L 99.961983 -162.864761 
L 96.887603 -162.864761 
L 96.887603 -162.864761 
L 93.813223 -162.864761 
L 93.813223 -162.864761 
L 90.738843 -162.864761 
L 90.738843 -243.556364 
L 87.664463 -243.556364 
L 87.664463 -243.556364 
L 84.590083 -243.556364 
L 84.590083 -243.556364 
L 81.515702 -243.556364 
L 81.515702 -243.556364 
L 78.441322 -243.556364 
L 78.441322 -243.556364 
L 75.366942 -243.556364 
L 75.366942 -243.556364 
L 72.292562 -243.556364 
L 72.292562 -243.556364 
L 69.218182 -243.556364 
z
" id="m515c52d83f" style="stroke:#ff8c00;stroke-opacity:0.5;"/>
    </defs>
    <g clip-path="url(#p01c23e6d42)">
     <use style="fill:#ff8c00;fill-opacity:0.5;stroke:#ff8c00;stroke-opacity:0.5;" x="0" xlink:href="#m515c52d83f" y="288"/>
    </g>
   </g>
   <g id="PolyCollection_2">
    <defs>
     <path d="M 69.218182 -225.593656 
L 69.218182 -225.593656 
L 72.292562 -225.593656 
L 72.292562 -225.59283 
L 75.366942 -225.59283 
L 75.366942 -60.732807 
L 78.441322 -60.732807 
L 78.441322 -56.984523 
L 81.515702 -56.984523 
L 81.515702 -56.984523 
L 84.590083 -56.984523 
L 84.590083 -56.984523 
L 87.664463 -56.984523 
L 87.664463 -56.984523 
L 90.738843 -56.984523 
L 90.738843 -56.984523 
L 93.813223 -56.984523 
L 93.813223 -56.984523 
L 96.887603 -56.984523 
L 96.887603 -52.879739 
L 99.961983 -52.879739 
L 99.961983 -52.879739 
L 103.036364 -52.879739 
L 103.036364 -52.879739 
L 106.110744 -52.879739 
L 106.110744 -52.879739 
L 109.185124 -52.879739 
L 109.185124 -51.266076 
L 112.259504 -51.266076 
L 112.259504 -51.266076 
L 115.333884 -51.266076 
L 115.333884 -51.266076 
L 118.408264 -51.266076 
L 118.408264 -51.266076 
L 121.482645 -51.266076 
L 121.482645 -51.266076 
L 124.557025 -51.266076 
L 124.557025 -51.266076 
L 127.631405 -51.266076 
L 127.631405 -51.266076 
L 130.705785 -51.266076 
L 130.705785 -51.266076 
L 133.780165 -51.266076 
L 133.780165 -51.266076 
L 136.854545 -51.266076 
L 136.854545 -51.266076 
L 139.928926 -51.266076 
L 139.928926 -51.266076 
L 143.003306 -51.266076 
L 143.003306 -51.266076 
L 146.077686 -51.266076 
L 146.077686 -50.754329 
L 149.152066 -50.754329 
L 149.152066 -50.754329 
L 152.226446 -50.754329 
L 152.226446 -50.754329 
L 155.300826 -50.754329 
L 155.300826 -50.754329 
L 158.375207 -50.754329 
L 158.375207 -50.754329 
L 161.449587 -50.754329 
L 161.449587 -50.754329 
L 164.523967 -50.754329 
L 164.523967 -50.754329 
L 167.598347 -50.754329 
L 167.598347 -50.754329 
L 170.672727 -50.754329 
L 170.672727 -50.754329 
L 173.747107 -50.754329 
L 173.747107 -50.754329 
L 176.821488 -50.754329 
L 176.821488 -50.754329 
L 179.895868 -50.754329 
L 179.895868 -47.066112 
L 182.970248 -47.066112 
L 182.970248 -47.066112 
L 186.044628 -47.066112 
L 186.044628 -47.066112 
L 189.119008 -47.066112 
L 189.119008 -47.066112 
L 192.193388 -47.066112 
L 192.193388 -47.066112 
L 195.267769 -47.066112 
L 195.267769 -47.066112 
L 198.342149 -47.066112 
L 198.342149 -47.066112 
L 201.416529 -47.066112 
L 201.416529 -47.066112 
L 204.490909 -47.066112 
L 204.490909 -47.066112 
L 207.565289 -47.066112 
L 207.565289 -47.066112 
L 210.639669 -47.066112 
L 210.639669 -47.066112 
L 213.71405 -47.066112 
L 213.71405 -47.066112 
L 216.78843 -47.066112 
L 216.78843 -47.066112 
L 219.86281 -47.066112 
L 219.86281 -47.066112 
L 222.93719 -47.066112 
L 222.93719 -47.066112 
L 226.01157 -47.066112 
L 226.01157 -47.066112 
L 229.08595 -47.066112 
L 229.08595 -47.066112 
L 232.160331 -47.066112 
L 232.160331 -47.066112 
L 235.234711 -47.066112 
L 235.234711 -47.066112 
L 238.309091 -47.066112 
L 238.309091 -47.066112 
L 241.383471 -47.066112 
L 241.383471 -47.066112 
L 244.457851 -47.066112 
L 244.457851 -47.066112 
L 247.532231 -47.066112 
L 247.532231 -47.066112 
L 250.606612 -47.066112 
L 250.606612 -47.066112 
L 253.680992 -47.066112 
L 253.680992 -46.857841 
L 256.755372 -46.857841 
L 256.755372 -46.857841 
L 259.829752 -46.857841 
L 259.829752 -46.857841 
L 262.904132 -46.857841 
L 262.904132 -46.857841 
L 265.978512 -46.857841 
L 265.978512 -46.857841 
L 269.052893 -46.857841 
L 269.052893 -46.857841 
L 272.127273 -46.857841 
L 272.127273 -46.857841 
L 275.201653 -46.857841 
L 275.201653 -46.857841 
L 278.276033 -46.857841 
L 278.276033 -46.857841 
L 281.350413 -46.857841 
L 281.350413 -46.857841 
L 284.424793 -46.857841 
L 284.424793 -46.857841 
L 287.499174 -46.857841 
L 287.499174 -46.620812 
L 290.573554 -46.620812 
L 290.573554 -46.620812 
L 293.647934 -46.620812 
L 293.647934 -46.620812 
L 296.722314 -46.620812 
L 296.722314 -46.620812 
L 299.796694 -46.620812 
L 299.796694 -46.620812 
L 302.871074 -46.620812 
L 302.871074 -46.620812 
L 305.945455 -46.620812 
L 305.945455 -46.620812 
L 309.019835 -46.620812 
L 309.019835 -46.620812 
L 312.094215 -46.620812 
L 312.094215 -46.620812 
L 315.168595 -46.620812 
L 315.168595 -46.620812 
L 318.242975 -46.620812 
L 318.242975 -46.620812 
L 321.317355 -46.620812 
L 321.317355 -46.620812 
L 324.391736 -46.620812 
L 324.391736 -45.967768 
L 327.466116 -45.967768 
L 327.466116 -45.967768 
L 330.540496 -45.967768 
L 330.540496 -45.967768 
L 333.614876 -45.967768 
L 333.614876 -45.967768 
L 336.689256 -45.967768 
L 336.689256 -45.967768 
L 339.763636 -45.967768 
L 339.763636 -45.967768 
L 342.838017 -45.967768 
L 342.838017 -45.967768 
L 345.912397 -45.967768 
L 345.912397 -45.967768 
L 348.986777 -45.967768 
L 348.986777 -45.883636 
L 352.061157 -45.883636 
L 352.061157 -45.883636 
L 355.135537 -45.883636 
L 355.135537 -45.883636 
L 358.209917 -45.883636 
L 358.209917 -45.883636 
L 361.284298 -45.883636 
L 361.284298 -45.883636 
L 364.358678 -45.883636 
L 364.358678 -45.883636 
L 367.433058 -45.883636 
L 367.433058 -45.883636 
L 370.507438 -45.883636 
L 370.507438 -45.883636 
L 373.581818 -45.883636 
L 373.581818 -45.883636 
L 373.581818 -62.592288 
L 373.581818 -62.592288 
L 373.581818 -62.592288 
L 370.507438 -62.592288 
L 370.507438 -62.592288 
L 367.433058 -62.592288 
L 367.433058 -62.592288 
L 364.358678 -62.592288 
L 364.358678 -62.592288 
L 361.284298 -62.592288 
L 361.284298 -62.592288 
L 358.209917 -62.592288 
L 358.209917 -62.592288 
L 355.135537 -62.592288 
L 355.135537 -62.592288 
L 352.061157 -62.592288 
L 352.061157 -62.592288 
L 348.986777 -62.592288 
L 348.986777 -62.592288 
L 345.912397 -62.592288 
L 345.912397 -62.592288 
L 342.838017 -62.592288 
L 342.838017 -63.027982 
L 339.763636 -63.027982 
L 339.763636 -63.027982 
L 336.689256 -63.027982 
L 336.689256 -63.027982 
L 333.614876 -63.027982 
L 333.614876 -63.027982 
L 330.540496 -63.027982 
L 330.540496 -63.447489 
L 327.466116 -63.447489 
L 327.466116 -63.447489 
L 324.391736 -63.447489 
L 324.391736 -63.447489 
L 321.317355 -63.447489 
L 321.317355 -63.447489 
L 318.242975 -63.447489 
L 318.242975 -63.447489 
L 315.168595 -63.447489 
L 315.168595 -63.447489 
L 312.094215 -63.447489 
L 312.094215 -63.447489 
L 309.019835 -63.447489 
L 309.019835 -63.447489 
L 305.945455 -63.447489 
L 305.945455 -63.808803 
L 302.871074 -63.808803 
L 302.871074 -63.808803 
L 299.796694 -63.808803 
L 299.796694 -63.808803 
L 296.722314 -63.808803 
L 296.722314 -63.808803 
L 293.647934 -63.808803 
L 293.647934 -63.808803 
L 290.573554 -63.808803 
L 290.573554 -63.808803 
L 287.499174 -63.808803 
L 287.499174 -63.808803 
L 284.424793 -63.808803 
L 284.424793 -63.808803 
L 281.350413 -63.808803 
L 281.350413 -63.970031 
L 278.276033 -63.970031 
L 278.276033 -63.970031 
L 275.201653 -63.970031 
L 275.201653 -63.970031 
L 272.127273 -63.970031 
L 272.127273 -63.970031 
L 269.052893 -63.970031 
L 269.052893 -63.970031 
L 265.978512 -63.970031 
L 265.978512 -63.970031 
L 262.904132 -63.970031 
L 262.904132 -63.970031 
L 259.829752 -63.970031 
L 259.829752 -63.970031 
L 256.755372 -63.970031 
L 256.755372 -63.970031 
L 253.680992 -63.970031 
L 253.680992 -63.970031 
L 250.606612 -63.970031 
L 250.606612 -63.970031 
L 247.532231 -63.970031 
L 247.532231 -63.970031 
L 244.457851 -63.970031 
L 244.457851 -63.970031 
L 241.383471 -63.970031 
L 241.383471 -63.970031 
L 238.309091 -63.970031 
L 238.309091 -63.970031 
L 235.234711 -63.970031 
L 235.234711 -63.970031 
L 232.160331 -63.970031 
L 232.160331 -65.110113 
L 229.08595 -65.110113 
L 229.08595 -65.110113 
L 226.01157 -65.110113 
L 226.01157 -65.110113 
L 222.93719 -65.110113 
L 222.93719 -65.110113 
L 219.86281 -65.110113 
L 219.86281 -65.110113 
L 216.78843 -65.110113 
L 216.78843 -65.110113 
L 213.71405 -65.110113 
L 213.71405 -65.110113 
L 210.639669 -65.110113 
L 210.639669 -65.110113 
L 207.565289 -65.110113 
L 207.565289 -65.110113 
L 204.490909 -65.110113 
L 204.490909 -65.110113 
L 201.416529 -65.110113 
L 201.416529 -66.646979 
L 198.342149 -66.646979 
L 198.342149 -66.646979 
L 195.267769 -66.646979 
L 195.267769 -66.646979 
L 192.193388 -66.646979 
L 192.193388 -66.646979 
L 189.119008 -66.646979 
L 189.119008 -66.646979 
L 186.044628 -66.646979 
L 186.044628 -66.646979 
L 182.970248 -66.646979 
L 182.970248 -67.58178 
L 179.895868 -67.58178 
L 179.895868 -67.58178 
L 176.821488 -67.58178 
L 176.821488 -67.58178 
L 173.747107 -67.58178 
L 173.747107 -67.58178 
L 170.672727 -67.58178 
L 170.672727 -67.58178 
L 167.598347 -67.58178 
L 167.598347 -67.58178 
L 164.523967 -67.58178 
L 164.523967 -67.58178 
L 161.449587 -67.58178 
L 161.449587 -67.58178 
L 158.375207 -67.58178 
L 158.375207 -70.074227 
L 155.300826 -70.074227 
L 155.300826 -70.074227 
L 152.226446 -70.074227 
L 152.226446 -70.074227 
L 149.152066 -70.074227 
L 149.152066 -70.074227 
L 146.077686 -70.074227 
L 146.077686 -72.132996 
L 143.003306 -72.132996 
L 143.003306 -72.132996 
L 139.928926 -72.132996 
L 139.928926 -72.132996 
L 136.854545 -72.132996 
L 136.854545 -72.132996 
L 133.780165 -72.132996 
L 133.780165 -72.132996 
L 130.705785 -72.132996 
L 130.705785 -72.132996 
L 127.631405 -72.132996 
L 127.631405 -72.132996 
L 124.557025 -72.132996 
L 124.557025 -72.132996 
L 121.482645 -72.132996 
L 121.482645 -73.909615 
L 118.408264 -73.909615 
L 118.408264 -73.909615 
L 115.333884 -73.909615 
L 115.333884 -73.909615 
L 112.259504 -73.909615 
L 112.259504 -73.909615 
L 109.185124 -73.909615 
L 109.185124 -73.909615 
L 106.110744 -73.909615 
L 106.110744 -73.909615 
L 103.036364 -73.909615 
L 103.036364 -73.909615 
L 99.961983 -73.909615 
L 99.961983 -73.909615 
L 96.887603 -73.909615 
L 96.887603 -73.909615 
L 93.813223 -73.909615 
L 93.813223 -225.592667 
L 90.738843 -225.592667 
L 90.738843 -225.592667 
L 87.664463 -225.592667 
L 87.664463 -225.593255 
L 84.590083 -225.593255 
L 84.590083 -225.593255 
L 81.515702 -225.593255 
L 81.515702 -225.593255 
L 78.441322 -225.593255 
L 78.441322 -225.593255 
L 75.366942 -225.593255 
L 75.366942 -225.593656 
L 72.292562 -225.593656 
L 72.292562 -225.593656 
L 69.218182 -225.593656 
z
" id="mdc224cb608" style="stroke:#ff0000;stroke-opacity:0.5;"/>
    </defs>
    <g clip-path="url(#p01c23e6d42)">
     <use style="fill:#ff0000;fill-opacity:0.5;stroke:#ff0000;stroke-opacity:0.5;" x="0" xlink:href="#mdc224cb608" y="288"/>
    </g>
   </g>
   <g id="PolyCollection_3">
    <defs>
     <path d="M 69.218182 -243.556364 
L 69.218182 -243.556364 
L 72.292562 -243.556364 
L 72.292562 -234.915355 
L 75.366942 -234.915355 
L 75.366942 -234.915355 
L 78.441322 -234.915355 
L 78.441322 -234.915355 
L 81.515702 -234.915355 
L 81.515702 -234.915355 
L 84.590083 -234.915355 
L 84.590083 -186.554171 
L 87.664463 -186.554171 
L 87.664463 -186.554171 
L 90.738843 -186.554171 
L 90.738843 -186.554171 
L 93.813223 -186.554171 
L 93.813223 -186.554171 
L 96.887603 -186.554171 
L 96.887603 -186.554171 
L 99.961983 -186.554171 
L 99.961983 -186.554171 
L 103.036364 -186.554171 
L 103.036364 -186.554171 
L 106.110744 -186.554171 
L 106.110744 -186.554171 
L 109.185124 -186.554171 
L 109.185124 -186.554171 
L 112.259504 -186.554171 
L 112.259504 -186.554171 
L 115.333884 -186.554171 
L 115.333884 -186.554171 
L 118.408264 -186.554171 
L 118.408264 -175.750459 
L 121.482645 -175.750459 
L 121.482645 -175.750459 
L 124.557025 -175.750459 
L 124.557025 -175.750459 
L 127.631405 -175.750459 
L 127.631405 -175.750459 
L 130.705785 -175.750459 
L 130.705785 -175.750459 
L 133.780165 -175.750459 
L 133.780165 -155.398388 
L 136.854545 -155.398388 
L 136.854545 -155.398388 
L 139.928926 -155.398388 
L 139.928926 -155.398388 
L 143.003306 -155.398388 
L 143.003306 -155.398388 
L 146.077686 -155.398388 
L 146.077686 -155.398388 
L 149.152066 -155.398388 
L 149.152066 -155.398388 
L 152.226446 -155.398388 
L 152.226446 -155.398388 
L 155.300826 -155.398388 
L 155.300826 -155.398388 
L 158.375207 -155.398388 
L 158.375207 -152.113609 
L 161.449587 -152.113609 
L 161.449587 -152.113609 
L 164.523967 -152.113609 
L 164.523967 -152.113609 
L 167.598347 -152.113609 
L 167.598347 -129.365593 
L 170.672727 -129.365593 
L 170.672727 -129.365593 
L 173.747107 -129.365593 
L 173.747107 -129.365593 
L 176.821488 -129.365593 
L 176.821488 -129.365593 
L 179.895868 -129.365593 
L 179.895868 -129.365593 
L 182.970248 -129.365593 
L 182.970248 -129.365593 
L 186.044628 -129.365593 
L 186.044628 -129.365593 
L 189.119008 -129.365593 
L 189.119008 -129.365593 
L 192.193388 -129.365593 
L 192.193388 -129.365593 
L 195.267769 -129.365593 
L 195.267769 -129.365593 
L 198.342149 -129.365593 
L 198.342149 -129.365593 
L 201.416529 -129.365593 
L 201.416529 -129.365593 
L 204.490909 -129.365593 
L 204.490909 -129.365593 
L 207.565289 -129.365593 
L 207.565289 -129.365593 
L 210.639669 -129.365593 
L 210.639669 -129.365593 
L 213.71405 -129.365593 
L 213.71405 -129.365593 
L 216.78843 -129.365593 
L 216.78843 -129.365593 
L 219.86281 -129.365593 
L 219.86281 -129.365593 
L 222.93719 -129.365593 
L 222.93719 -129.365593 
L 226.01157 -129.365593 
L 226.01157 -129.365593 
L 229.08595 -129.365593 
L 229.08595 -110.219652 
L 232.160331 -110.219652 
L 232.160331 -110.219652 
L 235.234711 -110.219652 
L 235.234711 -110.219652 
L 238.309091 -110.219652 
L 238.309091 -110.219652 
L 241.383471 -110.219652 
L 241.383471 -110.219652 
L 244.457851 -110.219652 
L 244.457851 -110.219652 
L 247.532231 -110.219652 
L 247.532231 -110.219652 
L 250.606612 -110.219652 
L 250.606612 -92.71316 
L 253.680992 -92.71316 
L 253.680992 -92.71316 
L 256.755372 -92.71316 
L 256.755372 -92.71316 
L 259.829752 -92.71316 
L 259.829752 -92.71316 
L 262.904132 -92.71316 
L 262.904132 -92.71316 
L 265.978512 -92.71316 
L 265.978512 -92.71316 
L 269.052893 -92.71316 
L 269.052893 -92.71316 
L 272.127273 -92.71316 
L 272.127273 -92.71316 
L 275.201653 -92.71316 
L 275.201653 -86.212666 
L 278.276033 -86.212666 
L 278.276033 -86.212666 
L 281.350413 -86.212666 
L 281.350413 -86.212666 
L 284.424793 -86.212666 
L 284.424793 -86.212666 
L 287.499174 -86.212666 
L 287.499174 -86.212666 
L 290.573554 -86.212666 
L 290.573554 -86.212666 
L 293.647934 -86.212666 
L 293.647934 -86.212666 
L 296.722314 -86.212666 
L 296.722314 -86.212666 
L 299.796694 -86.212666 
L 299.796694 -86.212666 
L 302.871074 -86.212666 
L 302.871074 -86.212666 
L 305.945455 -86.212666 
L 305.945455 -86.212666 
L 309.019835 -86.212666 
L 309.019835 -86.212666 
L 312.094215 -86.212666 
L 312.094215 -86.212666 
L 315.168595 -86.212666 
L 315.168595 -86.212666 
L 318.242975 -86.212666 
L 318.242975 -86.212666 
L 321.317355 -86.212666 
L 321.317355 -86.212666 
L 324.391736 -86.212666 
L 324.391736 -86.212666 
L 327.466116 -86.212666 
L 327.466116 -86.212666 
L 330.540496 -86.212666 
L 330.540496 -86.212666 
L 333.614876 -86.212666 
L 333.614876 -86.212666 
L 336.689256 -86.212666 
L 336.689256 -86.212666 
L 339.763636 -86.212666 
L 339.763636 -86.212666 
L 342.838017 -86.212666 
L 342.838017 -86.212666 
L 345.912397 -86.212666 
L 345.912397 -86.212666 
L 348.986777 -86.212666 
L 348.986777 -86.212666 
L 352.061157 -86.212666 
L 352.061157 -86.212666 
L 355.135537 -86.212666 
L 355.135537 -86.212666 
L 358.209917 -86.212666 
L 358.209917 -86.212666 
L 361.284298 -86.212666 
L 361.284298 -83.977663 
L 364.358678 -83.977663 
L 364.358678 -83.977663 
L 367.433058 -83.977663 
L 367.433058 -83.977663 
L 370.507438 -83.977663 
L 370.507438 -76.405345 
L 373.581818 -76.405345 
L 373.581818 -76.405345 
L 373.581818 -76.405345 
L 373.581818 -76.405345 
L 373.581818 -76.405345 
L 370.507438 -76.405345 
L 370.507438 -83.977663 
L 367.433058 -83.977663 
L 367.433058 -83.977663 
L 364.358678 -83.977663 
L 364.358678 -83.977663 
L 361.284298 -83.977663 
L 361.284298 -86.212666 
L 358.209917 -86.212666 
L 358.209917 -86.212666 
L 355.135537 -86.212666 
L 355.135537 -86.212666 
L 352.061157 -86.212666 
L 352.061157 -86.212666 
L 348.986777 -86.212666 
L 348.986777 -86.212666 
L 345.912397 -86.212666 
L 345.912397 -86.212666 
L 342.838017 -86.212666 
L 342.838017 -86.212666 
L 339.763636 -86.212666 
L 339.763636 -86.212666 
L 336.689256 -86.212666 
L 336.689256 -86.212666 
L 333.614876 -86.212666 
L 333.614876 -86.212666 
L 330.540496 -86.212666 
L 330.540496 -86.212666 
L 327.466116 -86.212666 
L 327.466116 -86.212666 
L 324.391736 -86.212666 
L 324.391736 -86.212666 
L 321.317355 -86.212666 
L 321.317355 -86.212666 
L 318.242975 -86.212666 
L 318.242975 -86.212666 
L 315.168595 -86.212666 
L 315.168595 -86.212666 
L 312.094215 -86.212666 
L 312.094215 -86.212666 
L 309.019835 -86.212666 
L 309.019835 -86.212666 
L 305.945455 -86.212666 
L 305.945455 -86.212666 
L 302.871074 -86.212666 
L 302.871074 -86.212666 
L 299.796694 -86.212666 
L 299.796694 -86.212666 
L 296.722314 -86.212666 
L 296.722314 -86.212666 
L 293.647934 -86.212666 
L 293.647934 -86.212666 
L 290.573554 -86.212666 
L 290.573554 -86.212666 
L 287.499174 -86.212666 
L 287.499174 -86.212666 
L 284.424793 -86.212666 
L 284.424793 -86.212666 
L 281.350413 -86.212666 
L 281.350413 -86.212666 
L 278.276033 -86.212666 
L 278.276033 -86.212666 
L 275.201653 -86.212666 
L 275.201653 -92.71316 
L 272.127273 -92.71316 
L 272.127273 -92.71316 
L 269.052893 -92.71316 
L 269.052893 -92.71316 
L 265.978512 -92.71316 
L 265.978512 -92.71316 
L 262.904132 -92.71316 
L 262.904132 -92.71316 
L 259.829752 -92.71316 
L 259.829752 -92.71316 
L 256.755372 -92.71316 
L 256.755372 -92.71316 
L 253.680992 -92.71316 
L 253.680992 -92.71316 
L 250.606612 -92.71316 
L 250.606612 -110.219652 
L 247.532231 -110.219652 
L 247.532231 -110.219652 
L 244.457851 -110.219652 
L 244.457851 -110.219652 
L 241.383471 -110.219652 
L 241.383471 -110.219652 
L 238.309091 -110.219652 
L 238.309091 -110.219652 
L 235.234711 -110.219652 
L 235.234711 -110.219652 
L 232.160331 -110.219652 
L 232.160331 -110.219652 
L 229.08595 -110.219652 
L 229.08595 -129.365593 
L 226.01157 -129.365593 
L 226.01157 -129.365593 
L 222.93719 -129.365593 
L 222.93719 -129.365593 
L 219.86281 -129.365593 
L 219.86281 -129.365593 
L 216.78843 -129.365593 
L 216.78843 -129.365593 
L 213.71405 -129.365593 
L 213.71405 -129.365593 
L 210.639669 -129.365593 
L 210.639669 -129.365593 
L 207.565289 -129.365593 
L 207.565289 -129.365593 
L 204.490909 -129.365593 
L 204.490909 -129.365593 
L 201.416529 -129.365593 
L 201.416529 -129.365593 
L 198.342149 -129.365593 
L 198.342149 -129.365593 
L 195.267769 -129.365593 
L 195.267769 -129.365593 
L 192.193388 -129.365593 
L 192.193388 -129.365593 
L 189.119008 -129.365593 
L 189.119008 -129.365593 
L 186.044628 -129.365593 
L 186.044628 -129.365593 
L 182.970248 -129.365593 
L 182.970248 -129.365593 
L 179.895868 -129.365593 
L 179.895868 -129.365593 
L 176.821488 -129.365593 
L 176.821488 -129.365593 
L 173.747107 -129.365593 
L 173.747107 -129.365593 
L 170.672727 -129.365593 
L 170.672727 -129.365593 
L 167.598347 -129.365593 
L 167.598347 -152.113609 
L 164.523967 -152.113609 
L 164.523967 -152.113609 
L 161.449587 -152.113609 
L 161.449587 -152.113609 
L 158.375207 -152.113609 
L 158.375207 -155.398388 
L 155.300826 -155.398388 
L 155.300826 -155.398388 
L 152.226446 -155.398388 
L 152.226446 -155.398388 
L 149.152066 -155.398388 
L 149.152066 -155.398388 
L 146.077686 -155.398388 
L 146.077686 -155.398388 
L 143.003306 -155.398388 
L 143.003306 -155.398388 
L 139.928926 -155.398388 
L 139.928926 -155.398388 
L 136.854545 -155.398388 
L 136.854545 -155.398388 
L 133.780165 -155.398388 
L 133.780165 -175.750459 
L 130.705785 -175.750459 
L 130.705785 -175.750459 
L 127.631405 -175.750459 
L 127.631405 -175.750459 
L 124.557025 -175.750459 
L 124.557025 -175.750459 
L 121.482645 -175.750459 
L 121.482645 -175.750459 
L 118.408264 -175.750459 
L 118.408264 -186.554171 
L 115.333884 -186.554171 
L 115.333884 -186.554171 
L 112.259504 -186.554171 
L 112.259504 -186.554171 
L 109.185124 -186.554171 
L 109.185124 -186.554171 
L 106.110744 -186.554171 
L 106.110744 -186.554171 
L 103.036364 -186.554171 
L 103.036364 -186.554171 
L 99.961983 -186.554171 
L 99.961983 -186.554171 
L 96.887603 -186.554171 
L 96.887603 -186.554171 
L 93.813223 -186.554171 
L 93.813223 -186.554171 
L 90.738843 -186.554171 
L 90.738843 -186.554171 
L 87.664463 -186.554171 
L 87.664463 -186.554171 
L 84.590083 -186.554171 
L 84.590083 -234.915355 
L 81.515702 -234.915355 
L 81.515702 -234.915355 
L 78.441322 -234.915355 
L 78.441322 -234.915355 
L 75.366942 -234.915355 
L 75.366942 -234.915355 
L 72.292562 -234.915355 
L 72.292562 -243.556364 
L 69.218182 -243.556364 
z
" id="m67b15d5200" style="stroke:#9400d3;stroke-opacity:0.5;"/>
    </defs>
    <g clip-path="url(#p01c23e6d42)">
     <use style="fill:#9400d3;fill-opacity:0.5;stroke:#9400d3;stroke-opacity:0.5;" x="0" xlink:href="#m67b15d5200" y="288"/>
    </g>
   </g>
   <g id="PolyCollection_4">
    <defs>
     <path d="M 69.218182 -243.556364 
L 69.218182 -243.556364 
L 72.292562 -243.556364 
L 72.292562 -170.960275 
L 75.366942 -170.960275 
L 75.366942 -170.960275 
L 78.441322 -170.960275 
L 78.441322 -170.960275 
L 81.515702 -170.960275 
L 81.515702 -170.960275 
L 84.590083 -170.960275 
L 84.590083 -170.960275 
L 87.664463 -170.960275 
L 87.664463 -170.960275 
L 90.738843 -170.960275 
L 90.738843 -170.960275 
L 93.813223 -170.960275 
L 93.813223 -170.960275 
L 96.887603 -170.960275 
L 96.887603 -170.960275 
L 99.961983 -170.960275 
L 99.961983 -170.960275 
L 103.036364 -170.960275 
L 103.036364 -170.960275 
L 106.110744 -170.960275 
L 106.110744 -170.960275 
L 109.185124 -170.960275 
L 109.185124 -170.960275 
L 112.259504 -170.960275 
L 112.259504 -170.960275 
L 115.333884 -170.960275 
L 115.333884 -170.960275 
L 118.408264 -170.960275 
L 118.408264 -170.960275 
L 121.482645 -170.960275 
L 121.482645 -170.960275 
L 124.557025 -170.960275 
L 124.557025 -170.960275 
L 127.631405 -170.960275 
L 127.631405 -170.960275 
L 130.705785 -170.960275 
L 130.705785 -170.960275 
L 133.780165 -170.960275 
L 133.780165 -170.960275 
L 136.854545 -170.960275 
L 136.854545 -170.960275 
L 139.928926 -170.960275 
L 139.928926 -170.960275 
L 143.003306 -170.960275 
L 143.003306 -170.960275 
L 146.077686 -170.960275 
L 146.077686 -170.960275 
L 149.152066 -170.960275 
L 149.152066 -170.960275 
L 152.226446 -170.960275 
L 152.226446 -170.960275 
L 155.300826 -170.960275 
L 155.300826 -170.960275 
L 158.375207 -170.960275 
L 158.375207 -170.960275 
L 161.449587 -170.960275 
L 161.449587 -170.960275 
L 164.523967 -170.960275 
L 164.523967 -170.960275 
L 167.598347 -170.960275 
L 167.598347 -170.960275 
L 170.672727 -170.960275 
L 170.672727 -170.960275 
L 173.747107 -170.960275 
L 173.747107 -170.960275 
L 176.821488 -170.960275 
L 176.821488 -170.960275 
L 179.895868 -170.960275 
L 179.895868 -170.960275 
L 182.970248 -170.960275 
L 182.970248 -170.960275 
L 186.044628 -170.960275 
L 186.044628 -170.960275 
L 189.119008 -170.960275 
L 189.119008 -170.960275 
L 192.193388 -170.960275 
L 192.193388 -170.960275 
L 195.267769 -170.960275 
L 195.267769 -170.960275 
L 198.342149 -170.960275 
L 198.342149 -170.960275 
L 201.416529 -170.960275 
L 201.416529 -170.960275 
L 204.490909 -170.960275 
L 204.490909 -170.960275 
L 207.565289 -170.960275 
L 207.565289 -170.960275 
L 210.639669 -170.960275 
L 210.639669 -170.960275 
L 213.71405 -170.960275 
L 213.71405 -170.960275 
L 216.78843 -170.960275 
L 216.78843 -170.960275 
L 219.86281 -170.960275 
L 219.86281 -170.960275 
L 222.93719 -170.960275 
L 222.93719 -170.960275 
L 226.01157 -170.960275 
L 226.01157 -170.960275 
L 229.08595 -170.960275 
L 229.08595 -170.960275 
L 232.160331 -170.960275 
L 232.160331 -170.960275 
L 235.234711 -170.960275 
L 235.234711 -170.960275 
L 238.309091 -170.960275 
L 238.309091 -170.960275 
L 241.383471 -170.960275 
L 241.383471 -170.960275 
L 244.457851 -170.960275 
L 244.457851 -170.960275 
L 247.532231 -170.960275 
L 247.532231 -170.960275 
L 250.606612 -170.960275 
L 250.606612 -170.960275 
L 253.680992 -170.960275 
L 253.680992 -170.960275 
L 256.755372 -170.960275 
L 256.755372 -170.960275 
L 259.829752 -170.960275 
L 259.829752 -170.960275 
L 262.904132 -170.960275 
L 262.904132 -170.960275 
L 265.978512 -170.960275 
L 265.978512 -170.960275 
L 269.052893 -170.960275 
L 269.052893 -170.960275 
L 272.127273 -170.960275 
L 272.127273 -170.960275 
L 275.201653 -170.960275 
L 275.201653 -170.960275 
L 278.276033 -170.960275 
L 278.276033 -170.960275 
L 281.350413 -170.960275 
L 281.350413 -170.960275 
L 284.424793 -170.960275 
L 284.424793 -170.960275 
L 287.499174 -170.960275 
L 287.499174 -170.960275 
L 290.573554 -170.960275 
L 290.573554 -170.960275 
L 293.647934 -170.960275 
L 293.647934 -170.960275 
L 296.722314 -170.960275 
L 296.722314 -170.960275 
L 299.796694 -170.960275 
L 299.796694 -170.960275 
L 302.871074 -170.960275 
L 302.871074 -170.960275 
L 305.945455 -170.960275 
L 305.945455 -170.960275 
L 309.019835 -170.960275 
L 309.019835 -170.960275 
L 312.094215 -170.960275 
L 312.094215 -170.960275 
L 315.168595 -170.960275 
L 315.168595 -170.960275 
L 318.242975 -170.960275 
L 318.242975 -170.960275 
L 321.317355 -170.960275 
L 321.317355 -170.960275 
L 324.391736 -170.960275 
L 324.391736 -170.960275 
L 327.466116 -170.960275 
L 327.466116 -170.960275 
L 330.540496 -170.960275 
L 330.540496 -170.960275 
L 333.614876 -170.960275 
L 333.614876 -170.960275 
L 336.689256 -170.960275 
L 336.689256 -170.960275 
L 339.763636 -170.960275 
L 339.763636 -170.960275 
L 342.838017 -170.960275 
L 342.838017 -170.960275 
L 345.912397 -170.960275 
L 345.912397 -170.960275 
L 348.986777 -170.960275 
L 348.986777 -170.960275 
L 352.061157 -170.960275 
L 352.061157 -170.960275 
L 355.135537 -170.960275 
L 355.135537 -170.960275 
L 358.209917 -170.960275 
L 358.209917 -170.960275 
L 361.284298 -170.960275 
L 361.284298 -170.960275 
L 364.358678 -170.960275 
L 364.358678 -170.960275 
L 367.433058 -170.960275 
L 367.433058 -170.960275 
L 370.507438 -170.960275 
L 370.507438 -170.960275 
L 373.581818 -170.960275 
L 373.581818 -170.960275 
L 373.581818 -222.508317 
L 373.581818 -222.508317 
L 373.581818 -222.508317 
L 370.507438 -222.508317 
L 370.507438 -222.508317 
L 367.433058 -222.508317 
L 367.433058 -222.508317 
L 364.358678 -222.508317 
L 364.358678 -222.508317 
L 361.284298 -222.508317 
L 361.284298 -222.508317 
L 358.209917 -222.508317 
L 358.209917 -222.508317 
L 355.135537 -222.508317 
L 355.135537 -222.508317 
L 352.061157 -222.508317 
L 352.061157 -222.508317 
L 348.986777 -222.508317 
L 348.986777 -222.508317 
L 345.912397 -222.508317 
L 345.912397 -222.508317 
L 342.838017 -222.508317 
L 342.838017 -222.508317 
L 339.763636 -222.508317 
L 339.763636 -222.508317 
L 336.689256 -222.508317 
L 336.689256 -222.508317 
L 333.614876 -222.508317 
L 333.614876 -222.508317 
L 330.540496 -222.508317 
L 330.540496 -222.508317 
L 327.466116 -222.508317 
L 327.466116 -222.508317 
L 324.391736 -222.508317 
L 324.391736 -222.508317 
L 321.317355 -222.508317 
L 321.317355 -222.508317 
L 318.242975 -222.508317 
L 318.242975 -222.508317 
L 315.168595 -222.508317 
L 315.168595 -222.508317 
L 312.094215 -222.508317 
L 312.094215 -222.508317 
L 309.019835 -222.508317 
L 309.019835 -222.508317 
L 305.945455 -222.508317 
L 305.945455 -222.508317 
L 302.871074 -222.508317 
L 302.871074 -222.508317 
L 299.796694 -222.508317 
L 299.796694 -222.508317 
L 296.722314 -222.508317 
L 296.722314 -222.508317 
L 293.647934 -222.508317 
L 293.647934 -222.508317 
L 290.573554 -222.508317 
L 290.573554 -222.508317 
L 287.499174 -222.508317 
L 287.499174 -222.508317 
L 284.424793 -222.508317 
L 284.424793 -222.508317 
L 281.350413 -222.508317 
L 281.350413 -222.508317 
L 278.276033 -222.508317 
L 278.276033 -222.508317 
L 275.201653 -222.508317 
L 275.201653 -222.508317 
L 272.127273 -222.508317 
L 272.127273 -222.508317 
L 269.052893 -222.508317 
L 269.052893 -222.508317 
L 265.978512 -222.508317 
L 265.978512 -222.508317 
L 262.904132 -222.508317 
L 262.904132 -222.508317 
L 259.829752 -222.508317 
L 259.829752 -222.508317 
L 256.755372 -222.508317 
L 256.755372 -222.508317 
L 253.680992 -222.508317 
L 253.680992 -222.508317 
L 250.606612 -222.508317 
L 250.606612 -222.508317 
L 247.532231 -222.508317 
L 247.532231 -222.508317 
L 244.457851 -222.508317 
L 244.457851 -222.508317 
L 241.383471 -222.508317 
L 241.383471 -222.508317 
L 238.309091 -222.508317 
L 238.309091 -222.508317 
L 235.234711 -222.508317 
L 235.234711 -222.508317 
L 232.160331 -222.508317 
L 232.160331 -222.508317 
L 229.08595 -222.508317 
L 229.08595 -222.508317 
L 226.01157 -222.508317 
L 226.01157 -222.508317 
L 222.93719 -222.508317 
L 222.93719 -222.508317 
L 219.86281 -222.508317 
L 219.86281 -222.508317 
L 216.78843 -222.508317 
L 216.78843 -222.508317 
L 213.71405 -222.508317 
L 213.71405 -222.508317 
L 210.639669 -222.508317 
L 210.639669 -222.508317 
L 207.565289 -222.508317 
L 207.565289 -222.508317 
L 204.490909 -222.508317 
L 204.490909 -222.508317 
L 201.416529 -222.508317 
L 201.416529 -222.508317 
L 198.342149 -222.508317 
L 198.342149 -222.508317 
L 195.267769 -222.508317 
L 195.267769 -222.508317 
L 192.193388 -222.508317 
L 192.193388 -222.508317 
L 189.119008 -222.508317 
L 189.119008 -222.508317 
L 186.044628 -222.508317 
L 186.044628 -222.508317 
L 182.970248 -222.508317 
L 182.970248 -222.508317 
L 179.895868 -222.508317 
L 179.895868 -222.508317 
L 176.821488 -222.508317 
L 176.821488 -222.508317 
L 173.747107 -222.508317 
L 173.747107 -222.508317 
L 170.672727 -222.508317 
L 170.672727 -222.508317 
L 167.598347 -222.508317 
L 167.598347 -222.508317 
L 164.523967 -222.508317 
L 164.523967 -222.508317 
L 161.449587 -222.508317 
L 161.449587 -222.508317 
L 158.375207 -222.508317 
L 158.375207 -222.508317 
L 155.300826 -222.508317 
L 155.300826 -222.508317 
L 152.226446 -222.508317 
L 152.226446 -222.508317 
L 149.152066 -222.508317 
L 149.152066 -222.508317 
L 146.077686 -222.508317 
L 146.077686 -222.508317 
L 143.003306 -222.508317 
L 143.003306 -222.508317 
L 139.928926 -222.508317 
L 139.928926 -222.508317 
L 136.854545 -222.508317 
L 136.854545 -222.508317 
L 133.780165 -222.508317 
L 133.780165 -222.508317 
L 130.705785 -222.508317 
L 130.705785 -222.508317 
L 127.631405 -222.508317 
L 127.631405 -222.508317 
L 124.557025 -222.508317 
L 124.557025 -222.508317 
L 121.482645 -222.508317 
L 121.482645 -222.508317 
L 118.408264 -222.508317 
L 118.408264 -222.508317 
L 115.333884 -222.508317 
L 115.333884 -222.508317 
L 112.259504 -222.508317 
L 112.259504 -222.508317 
L 109.185124 -222.508317 
L 109.185124 -222.508317 
L 106.110744 -222.508317 
L 106.110744 -222.508317 
L 103.036364 -222.508317 
L 103.036364 -222.508317 
L 99.961983 -222.508317 
L 99.961983 -222.508317 
L 96.887603 -222.508317 
L 96.887603 -222.508317 
L 93.813223 -222.508317 
L 93.813223 -222.508317 
L 90.738843 -222.508317 
L 90.738843 -222.508317 
L 87.664463 -222.508317 
L 87.664463 -222.508317 
L 84.590083 -222.508317 
L 84.590083 -222.508317 
L 81.515702 -222.508317 
L 81.515702 -222.508317 
L 78.441322 -222.508317 
L 78.441322 -222.508317 
L 75.366942 -222.508317 
L 75.366942 -222.508317 
L 72.292562 -222.508317 
L 72.292562 -243.556364 
L 69.218182 -243.556364 
z
" id="m05b7f6a733" style="stroke:#8b4513;stroke-opacity:0.5;"/>
    </defs>
    <g clip-path="url(#p01c23e6d42)">
     <use style="fill:#8b4513;fill-opacity:0.5;stroke:#8b4513;stroke-opacity:0.5;" x="0" xlink:href="#m05b7f6a733" y="288"/>
    </g>
   </g>
   <g id="matplotlib.axis_1">
    <g id="xtick_1">
     <g id="line2d_1">
      <defs>
       <path d="M 0 0 
L 0 3.5 
" id="md5607f3299" style="stroke:#000000;stroke-width:0.8;"/>
      </defs>
      <g>
       <use style="stroke:#000000;stroke-width:0.8;" x="66.143802" xlink:href="#md5607f3299" y="252"/>
      </g>
     </g>
     <g id="text_1">
      <!-- 0 -->
      <g transform="translate(62.962552 266.598437)scale(0.1 -0.1)">
       <defs>
        <path d="M 31.78125 66.40625 
Q 24.171875 66.40625 20.328125 58.90625 
Q 16.5 51.421875 16.5 36.375 
Q 16.5 21.390625 20.328125 13.890625 
Q 24.171875 6.390625 31.78125 6.390625 
Q 39.453125 6.390625 43.28125 13.890625 
Q 47.125 21.390625 47.125 36.375 
Q 47.125 51.421875 43.28125 58.90625 
Q 39.453125 66.40625 31.78125 66.40625 
z
M 31.78125 74.21875 
Q 44.046875 74.21875 50.515625 64.515625 
Q 56.984375 54.828125 56.984375 36.375 
Q 56.984375 17.96875 50.515625 8.265625 
Q 44.046875 -1.421875 31.78125 -1.421875 
Q 19.53125 -1.421875 13.0625 8.265625 
Q 6.59375 17.96875 6.59375 36.375 
Q 6.59375 54.828125 13.0625 64.515625 
Q 19.53125 74.21875 31.78125 74.21875 
z
" id="DejaVuSans-48"/>
       </defs>
       <use xlink:href="#DejaVuSans-48"/>
      </g>
     </g>
    </g>
    <g id="xtick_2">
     <g id="line2d_2">
      <g>
       <use style="stroke:#000000;stroke-width:0.8;" x="127.631405" xlink:href="#md5607f3299" y="252"/>
      </g>
     </g>
     <g id="text_2">
      <!-- 20 -->
      <g transform="translate(121.268905 266.598437)scale(0.1 -0.1)">
       <defs>
        <path d="M 19.1875 8.296875 
L 53.609375 8.296875 
L 53.609375 0 
L 7.328125 0 
L 7.328125 8.296875 
Q 12.9375 14.109375 22.625 23.890625 
Q 32.328125 33.6875 34.8125 36.53125 
Q 39.546875 41.84375 41.421875 45.53125 
Q 43.3125 49.21875 43.3125 52.78125 
Q 43.3125 58.59375 39.234375 62.25 
Q 35.15625 65.921875 28.609375 65.921875 
Q 23.96875 65.921875 18.8125 64.3125 
Q 13.671875 62.703125 7.8125 59.421875 
L 7.8125 69.390625 
Q 13.765625 71.78125 18.9375 73 
Q 24.125 74.21875 28.421875 74.21875 
Q 39.75 74.21875 46.484375 68.546875 
Q 53.21875 62.890625 53.21875 53.421875 
Q 53.21875 48.921875 51.53125 44.890625 
Q 49.859375 40.875 45.40625 35.40625 
Q 44.1875 33.984375 37.640625 27.21875 
Q 31.109375 20.453125 19.1875 8.296875 
z
" id="DejaVuSans-50"/>
       </defs>
       <use xlink:href="#DejaVuSans-50"/>
       <use x="63.623047" xlink:href="#DejaVuSans-48"/>
      </g>
     </g>
    </g>
    <g id="xtick_3">
     <g id="line2d_3">
      <g>
       <use style="stroke:#000000;stroke-width:0.8;" x="189.119008" xlink:href="#md5607f3299" y="252"/>
      </g>
     </g>
     <g id="text_3">
      <!-- 40 -->
      <g transform="translate(182.756508 266.598437)scale(0.1 -0.1)">
       <defs>
        <path d="M 37.796875 64.3125 
L 12.890625 25.390625 
L 37.796875 25.390625 
z
M 35.203125 72.90625 
L 47.609375 72.90625 
L 47.609375 25.390625 
L 58.015625 25.390625 
L 58.015625 17.1875 
L 47.609375 17.1875 
L 47.609375 0 
L 37.796875 0 
L 37.796875 17.1875 
L 4.890625 17.1875 
L 4.890625 26.703125 
z
" id="DejaVuSans-52"/>
       </defs>
       <use xlink:href="#DejaVuSans-52"/>
       <use x="63.623047" xlink:href="#DejaVuSans-48"/>
      </g>
     </g>
    </g>
    <g id="xtick_4">
     <g id="line2d_4">
      <g>
       <use style="stroke:#000000;stroke-width:0.8;" x="250.606612" xlink:href="#md5607f3299" y="252"/>
      </g>
     </g>
     <g id="text_4">
      <!-- 60 -->
      <g transform="translate(244.244112 266.598437)scale(0.1 -0.1)">
       <defs>
        <path d="M 33.015625 40.375 
Q 26.375 40.375 22.484375 35.828125 
Q 18.609375 31.296875 18.609375 23.390625 
Q 18.609375 15.53125 22.484375 10.953125 
Q 26.375 6.390625 33.015625 6.390625 
Q 39.65625 6.390625 43.53125 10.953125 
Q 47.40625 15.53125 47.40625 23.390625 
Q 47.40625 31.296875 43.53125 35.828125 
Q 39.65625 40.375 33.015625 40.375 
z
M 52.59375 71.296875 
L 52.59375 62.3125 
Q 48.875 64.0625 45.09375 64.984375 
Q 41.3125 65.921875 37.59375 65.921875 
Q 27.828125 65.921875 22.671875 59.328125 
Q 17.53125 52.734375 16.796875 39.40625 
Q 19.671875 43.65625 24.015625 45.921875 
Q 28.375 48.1875 33.59375 48.1875 
Q 44.578125 48.1875 50.953125 41.515625 
Q 57.328125 34.859375 57.328125 23.390625 
Q 57.328125 12.15625 50.6875 5.359375 
Q 44.046875 -1.421875 33.015625 -1.421875 
Q 20.359375 -1.421875 13.671875 8.265625 
Q 6.984375 17.96875 6.984375 36.375 
Q 6.984375 53.65625 15.1875 63.9375 
Q 23.390625 74.21875 37.203125 74.21875 
Q 40.921875 74.21875 44.703125 73.484375 
Q 48.484375 72.75 52.59375 71.296875 
z
" id="DejaVuSans-54"/>
       </defs>
       <use xlink:href="#DejaVuSans-54"/>
       <use x="63.623047" xlink:href="#DejaVuSans-48"/>
      </g>
     </g>
    </g>
    <g id="xtick_5">
     <g id="line2d_5">
      <g>
       <use style="stroke:#000000;stroke-width:0.8;" x="312.094215" xlink:href="#md5607f3299" y="252"/>
      </g>
     </g>
     <g id="text_5">
      <!-- 80 -->
      <g transform="translate(305.731715 266.598437)scale(0.1 -0.1)">
       <defs>
        <path d="M 31.78125 34.625 
Q 24.75 34.625 20.71875 30.859375 
Q 16.703125 27.09375 16.703125 20.515625 
Q 16.703125 13.921875 20.71875 10.15625 
Q 24.75 6.390625 31.78125 6.390625 
Q 38.8125 6.390625 42.859375 10.171875 
Q 46.921875 13.96875 46.921875 20.515625 
Q 46.921875 27.09375 42.890625 30.859375 
Q 38.875 34.625 31.78125 34.625 
z
M 21.921875 38.8125 
Q 15.578125 40.375 12.03125 44.71875 
Q 8.5 49.078125 8.5 55.328125 
Q 8.5 64.0625 14.71875 69.140625 
Q 20.953125 74.21875 31.78125 74.21875 
Q 42.671875 74.21875 48.875 69.140625 
Q 55.078125 64.0625 55.078125 55.328125 
Q 55.078125 49.078125 51.53125 44.71875 
Q 48 40.375 41.703125 38.8125 
Q 48.828125 37.15625 52.796875 32.3125 
Q 56.78125 27.484375 56.78125 20.515625 
Q 56.78125 9.90625 50.3125 4.234375 
Q 43.84375 -1.421875 31.78125 -1.421875 
Q 19.734375 -1.421875 13.25 4.234375 
Q 6.78125 9.90625 6.78125 20.515625 
Q 6.78125 27.484375 10.78125 32.3125 
Q 14.796875 37.15625 21.921875 38.8125 
z
M 18.3125 54.390625 
Q 18.3125 48.734375 21.84375 45.5625 
Q 25.390625 42.390625 31.78125 42.390625 
Q 38.140625 42.390625 41.71875 45.5625 
Q 45.3125 48.734375 45.3125 54.390625 
Q 45.3125 60.0625 41.71875 63.234375 
Q 38.140625 66.40625 31.78125 66.40625 
Q 25.390625 66.40625 21.84375 63.234375 
Q 18.3125 60.0625 18.3125 54.390625 
z
" id="DejaVuSans-56"/>
       </defs>
       <use xlink:href="#DejaVuSans-56"/>
       <use x="63.623047" xlink:href="#DejaVuSans-48"/>
      </g>
     </g>
    </g>
    <g id="xtick_6">
     <g id="line2d_6">
      <g>
       <use style="stroke:#000000;stroke-width:0.8;" x="373.581818" xlink:href="#md5607f3299" y="252"/>
      </g>
     </g>
     <g id="text_6">
      <!-- 100 -->
      <g transform="translate(364.038068 266.598437)scale(0.1 -0.1)">
       <defs>
        <path d="M 12.40625 8.296875 
L 28.515625 8.296875 
L 28.515625 63.921875 
L 10.984375 60.40625 
L 10.984375 69.390625 
L 28.421875 72.90625 
L 38.28125 72.90625 
L 38.28125 8.296875 
L 54.390625 8.296875 
L 54.390625 0 
L 12.40625 0 
z
" id="DejaVuSans-49"/>
       </defs>
       <use xlink:href="#DejaVuSans-49"/>
       <use x="63.623047" xlink:href="#DejaVuSans-48"/>
       <use x="127.246094" xlink:href="#DejaVuSans-48"/>
      </g>
     </g>
    </g>
    <g id="text_7">
     <!-- Number of function evaluations -->
     <g transform="translate(142.399219 280.276563)scale(0.1 -0.1)">
      <defs>
       <path d="M 9.8125 72.90625 
L 23.09375 72.90625 
L 55.421875 11.921875 
L 55.421875 72.90625 
L 64.984375 72.90625 
L 64.984375 0 
L 51.703125 0 
L 19.390625 60.984375 
L 19.390625 0 
L 9.8125 0 
z
" id="DejaVuSans-78"/>
       <path d="M 8.5 21.578125 
L 8.5 54.6875 
L 17.484375 54.6875 
L 17.484375 21.921875 
Q 17.484375 14.15625 20.5 10.265625 
Q 23.53125 6.390625 29.59375 6.390625 
Q 36.859375 6.390625 41.078125 11.03125 
Q 45.3125 15.671875 45.3125 23.6875 
L 45.3125 54.6875 
L 54.296875 54.6875 
L 54.296875 0 
L 45.3125 0 
L 45.3125 8.40625 
Q 42.046875 3.421875 37.71875 1 
Q 33.40625 -1.421875 27.6875 -1.421875 
Q 18.265625 -1.421875 13.375 4.4375 
Q 8.5 10.296875 8.5 21.578125 
z
M 31.109375 56 
z
" id="DejaVuSans-117"/>
       <path d="M 52 44.1875 
Q 55.375 50.25 60.0625 53.125 
Q 64.75 56 71.09375 56 
Q 79.640625 56 84.28125 50.015625 
Q 88.921875 44.046875 88.921875 33.015625 
L 88.921875 0 
L 79.890625 0 
L 79.890625 32.71875 
Q 79.890625 40.578125 77.09375 44.375 
Q 74.3125 48.1875 68.609375 48.1875 
Q 61.625 48.1875 57.5625 43.546875 
Q 53.515625 38.921875 53.515625 30.90625 
L 53.515625 0 
L 44.484375 0 
L 44.484375 32.71875 
Q 44.484375 40.625 41.703125 44.40625 
Q 38.921875 48.1875 33.109375 48.1875 
Q 26.21875 48.1875 22.15625 43.53125 
Q 18.109375 38.875 18.109375 30.90625 
L 18.109375 0 
L 9.078125 0 
L 9.078125 54.6875 
L 18.109375 54.6875 
L 18.109375 46.1875 
Q 21.1875 51.21875 25.484375 53.609375 
Q 29.78125 56 35.6875 56 
Q 41.65625 56 45.828125 52.96875 
Q 50 49.953125 52 44.1875 
z
" id="DejaVuSans-109"/>
       <path d="M 48.6875 27.296875 
Q 48.6875 37.203125 44.609375 42.84375 
Q 40.53125 48.484375 33.40625 48.484375 
Q 26.265625 48.484375 22.1875 42.84375 
Q 18.109375 37.203125 18.109375 27.296875 
Q 18.109375 17.390625 22.1875 11.75 
Q 26.265625 6.109375 33.40625 6.109375 
Q 40.53125 6.109375 44.609375 11.75 
Q 48.6875 17.390625 48.6875 27.296875 
z
M 18.109375 46.390625 
Q 20.953125 51.265625 25.265625 53.625 
Q 29.59375 56 35.59375 56 
Q 45.5625 56 51.78125 48.09375 
Q 58.015625 40.1875 58.015625 27.296875 
Q 58.015625 14.40625 51.78125 6.484375 
Q 45.5625 -1.421875 35.59375 -1.421875 
Q 29.59375 -1.421875 25.265625 0.953125 
Q 20.953125 3.328125 18.109375 8.203125 
L 18.109375 0 
L 9.078125 0 
L 9.078125 75.984375 
L 18.109375 75.984375 
z
" id="DejaVuSans-98"/>
       <path d="M 56.203125 29.59375 
L 56.203125 25.203125 
L 14.890625 25.203125 
Q 15.484375 15.921875 20.484375 11.0625 
Q 25.484375 6.203125 34.421875 6.203125 
Q 39.59375 6.203125 44.453125 7.46875 
Q 49.3125 8.734375 54.109375 11.28125 
L 54.109375 2.78125 
Q 49.265625 0.734375 44.1875 -0.34375 
Q 39.109375 -1.421875 33.890625 -1.421875 
Q 20.796875 -1.421875 13.15625 6.1875 
Q 5.515625 13.8125 5.515625 26.8125 
Q 5.515625 40.234375 12.765625 48.109375 
Q 20.015625 56 32.328125 56 
Q 43.359375 56 49.78125 48.890625 
Q 56.203125 41.796875 56.203125 29.59375 
z
M 47.21875 32.234375 
Q 47.125 39.59375 43.09375 43.984375 
Q 39.0625 48.390625 32.421875 48.390625 
Q 24.90625 48.390625 20.390625 44.140625 
Q 15.875 39.890625 15.1875 32.171875 
z
" id="DejaVuSans-101"/>
       <path d="M 41.109375 46.296875 
Q 39.59375 47.171875 37.8125 47.578125 
Q 36.03125 48 33.890625 48 
Q 26.265625 48 22.1875 43.046875 
Q 18.109375 38.09375 18.109375 28.8125 
L 18.109375 0 
L 9.078125 0 
L 9.078125 54.6875 
L 18.109375 54.6875 
L 18.109375 46.1875 
Q 20.953125 51.171875 25.484375 53.578125 
Q 30.03125 56 36.53125 56 
Q 37.453125 56 38.578125 55.875 
Q 39.703125 55.765625 41.0625 55.515625 
z
" id="DejaVuSans-114"/>
       <path id="DejaVuSans-32"/>
       <path d="M 30.609375 48.390625 
Q 23.390625 48.390625 19.1875 42.75 
Q 14.984375 37.109375 14.984375 27.296875 
Q 14.984375 17.484375 19.15625 11.84375 
Q 23.34375 6.203125 30.609375 6.203125 
Q 37.796875 6.203125 41.984375 11.859375 
Q 46.1875 17.53125 46.1875 27.296875 
Q 46.1875 37.015625 41.984375 42.703125 
Q 37.796875 48.390625 30.609375 48.390625 
z
M 30.609375 56 
Q 42.328125 56 49.015625 48.375 
Q 55.71875 40.765625 55.71875 27.296875 
Q 55.71875 13.875 49.015625 6.21875 
Q 42.328125 -1.421875 30.609375 -1.421875 
Q 18.84375 -1.421875 12.171875 6.21875 
Q 5.515625 13.875 5.515625 27.296875 
Q 5.515625 40.765625 12.171875 48.375 
Q 18.84375 56 30.609375 56 
z
" id="DejaVuSans-111"/>
       <path d="M 37.109375 75.984375 
L 37.109375 68.5 
L 28.515625 68.5 
Q 23.6875 68.5 21.796875 66.546875 
Q 19.921875 64.59375 19.921875 59.515625 
L 19.921875 54.6875 
L 34.71875 54.6875 
L 34.71875 47.703125 
L 19.921875 47.703125 
L 19.921875 0 
L 10.890625 0 
L 10.890625 47.703125 
L 2.296875 47.703125 
L 2.296875 54.6875 
L 10.890625 54.6875 
L 10.890625 58.5 
Q 10.890625 67.625 15.140625 71.796875 
Q 19.390625 75.984375 28.609375 75.984375 
z
" id="DejaVuSans-102"/>
       <path d="M 54.890625 33.015625 
L 54.890625 0 
L 45.90625 0 
L 45.90625 32.71875 
Q 45.90625 40.484375 42.875 44.328125 
Q 39.84375 48.1875 33.796875 48.1875 
Q 26.515625 48.1875 22.3125 43.546875 
Q 18.109375 38.921875 18.109375 30.90625 
L 18.109375 0 
L 9.078125 0 
L 9.078125 54.6875 
L 18.109375 54.6875 
L 18.109375 46.1875 
Q 21.34375 51.125 25.703125 53.5625 
Q 30.078125 56 35.796875 56 
Q 45.21875 56 50.046875 50.171875 
Q 54.890625 44.34375 54.890625 33.015625 
z
" id="DejaVuSans-110"/>
       <path d="M 48.78125 52.59375 
L 48.78125 44.1875 
Q 44.96875 46.296875 41.140625 47.34375 
Q 37.3125 48.390625 33.40625 48.390625 
Q 24.65625 48.390625 19.8125 42.84375 
Q 14.984375 37.3125 14.984375 27.296875 
Q 14.984375 17.28125 19.8125 11.734375 
Q 24.65625 6.203125 33.40625 6.203125 
Q 37.3125 6.203125 41.140625 7.25 
Q 44.96875 8.296875 48.78125 10.40625 
L 48.78125 2.09375 
Q 45.015625 0.34375 40.984375 -0.53125 
Q 36.96875 -1.421875 32.421875 -1.421875 
Q 20.0625 -1.421875 12.78125 6.34375 
Q 5.515625 14.109375 5.515625 27.296875 
Q 5.515625 40.671875 12.859375 48.328125 
Q 20.21875 56 33.015625 56 
Q 37.15625 56 41.109375 55.140625 
Q 45.0625 54.296875 48.78125 52.59375 
z
" id="DejaVuSans-99"/>
       <path d="M 18.3125 70.21875 
L 18.3125 54.6875 
L 36.8125 54.6875 
L 36.8125 47.703125 
L 18.3125 47.703125 
L 18.3125 18.015625 
Q 18.3125 11.328125 20.140625 9.421875 
Q 21.96875 7.515625 27.59375 7.515625 
L 36.8125 7.515625 
L 36.8125 0 
L 27.59375 0 
Q 17.1875 0 13.234375 3.875 
Q 9.28125 7.765625 9.28125 18.015625 
L 9.28125 47.703125 
L 2.6875 47.703125 
L 2.6875 54.6875 
L 9.28125 54.6875 
L 9.28125 70.21875 
z
" id="DejaVuSans-116"/>
       <path d="M 9.421875 54.6875 
L 18.40625 54.6875 
L 18.40625 0 
L 9.421875 0 
z
M 9.421875 75.984375 
L 18.40625 75.984375 
L 18.40625 64.59375 
L 9.421875 64.59375 
z
" id="DejaVuSans-105"/>
       <path d="M 2.984375 54.6875 
L 12.5 54.6875 
L 29.59375 8.796875 
L 46.6875 54.6875 
L 56.203125 54.6875 
L 35.6875 0 
L 23.484375 0 
z
" id="DejaVuSans-118"/>
       <path d="M 34.28125 27.484375 
Q 23.390625 27.484375 19.1875 25 
Q 14.984375 22.515625 14.984375 16.5 
Q 14.984375 11.71875 18.140625 8.90625 
Q 21.296875 6.109375 26.703125 6.109375 
Q 34.1875 6.109375 38.703125 11.40625 
Q 43.21875 16.703125 43.21875 25.484375 
L 43.21875 27.484375 
z
M 52.203125 31.203125 
L 52.203125 0 
L 43.21875 0 
L 43.21875 8.296875 
Q 40.140625 3.328125 35.546875 0.953125 
Q 30.953125 -1.421875 24.3125 -1.421875 
Q 15.921875 -1.421875 10.953125 3.296875 
Q 6 8.015625 6 15.921875 
Q 6 25.140625 12.171875 29.828125 
Q 18.359375 34.515625 30.609375 34.515625 
L 43.21875 34.515625 
L 43.21875 35.40625 
Q 43.21875 41.609375 39.140625 45 
Q 35.0625 48.390625 27.6875 48.390625 
Q 23 48.390625 18.546875 47.265625 
Q 14.109375 46.140625 10.015625 43.890625 
L 10.015625 52.203125 
Q 14.9375 54.109375 19.578125 55.046875 
Q 24.21875 56 28.609375 56 
Q 40.484375 56 46.34375 49.84375 
Q 52.203125 43.703125 52.203125 31.203125 
z
" id="DejaVuSans-97"/>
       <path d="M 9.421875 75.984375 
L 18.40625 75.984375 
L 18.40625 0 
L 9.421875 0 
z
" id="DejaVuSans-108"/>
       <path d="M 44.28125 53.078125 
L 44.28125 44.578125 
Q 40.484375 46.53125 36.375 47.5 
Q 32.28125 48.484375 27.875 48.484375 
Q 21.1875 48.484375 17.84375 46.4375 
Q 14.5 44.390625 14.5 40.28125 
Q 14.5 37.15625 16.890625 35.375 
Q 19.28125 33.59375 26.515625 31.984375 
L 29.59375 31.296875 
Q 39.15625 29.25 43.1875 25.515625 
Q 47.21875 21.78125 47.21875 15.09375 
Q 47.21875 7.46875 41.1875 3.015625 
Q 35.15625 -1.421875 24.609375 -1.421875 
Q 20.21875 -1.421875 15.453125 -0.5625 
Q 10.6875 0.296875 5.421875 2 
L 5.421875 11.28125 
Q 10.40625 8.6875 15.234375 7.390625 
Q 20.0625 6.109375 24.8125 6.109375 
Q 31.15625 6.109375 34.5625 8.28125 
Q 37.984375 10.453125 37.984375 14.40625 
Q 37.984375 18.0625 35.515625 20.015625 
Q 33.0625 21.96875 24.703125 23.78125 
L 21.578125 24.515625 
Q 13.234375 26.265625 9.515625 29.90625 
Q 5.8125 33.546875 5.8125 39.890625 
Q 5.8125 47.609375 11.28125 51.796875 
Q 16.75 56 26.8125 56 
Q 31.78125 56 36.171875 55.265625 
Q 40.578125 54.546875 44.28125 53.078125 
z
" id="DejaVuSans-115"/>
      </defs>
      <use xlink:href="#DejaVuSans-78"/>
      <use x="74.804688" xlink:href="#DejaVuSans-117"/>
      <use x="138.183594" xlink:href="#DejaVuSans-109"/>
      <use x="235.595703" xlink:href="#DejaVuSans-98"/>
      <use x="299.072266" xlink:href="#DejaVuSans-101"/>
      <use x="360.595703" xlink:href="#DejaVuSans-114"/>
      <use x="401.708984" xlink:href="#DejaVuSans-32"/>
      <use x="433.496094" xlink:href="#DejaVuSans-111"/>
      <use x="494.677734" xlink:href="#DejaVuSans-102"/>
      <use x="529.882812" xlink:href="#DejaVuSans-32"/>
      <use x="561.669922" xlink:href="#DejaVuSans-102"/>
      <use x="596.875" xlink:href="#DejaVuSans-117"/>
      <use x="660.253906" xlink:href="#DejaVuSans-110"/>
      <use x="723.632812" xlink:href="#DejaVuSans-99"/>
      <use x="778.613281" xlink:href="#DejaVuSans-116"/>
      <use x="817.822266" xlink:href="#DejaVuSans-105"/>
      <use x="845.605469" xlink:href="#DejaVuSans-111"/>
      <use x="906.787109" xlink:href="#DejaVuSans-110"/>
      <use x="970.166016" xlink:href="#DejaVuSans-32"/>
      <use x="1001.953125" xlink:href="#DejaVuSans-101"/>
      <use x="1063.476562" xlink:href="#DejaVuSans-118"/>
      <use x="1122.65625" xlink:href="#DejaVuSans-97"/>
      <use x="1183.935547" xlink:href="#DejaVuSans-108"/>
      <use x="1211.71875" xlink:href="#DejaVuSans-117"/>
      <use x="1275.097656" xlink:href="#DejaVuSans-97"/>
      <use x="1336.376953" xlink:href="#DejaVuSans-116"/>
      <use x="1375.585938" xlink:href="#DejaVuSans-105"/>
      <use x="1403.369141" xlink:href="#DejaVuSans-111"/>
      <use x="1464.550781" xlink:href="#DejaVuSans-110"/>
      <use x="1527.929688" xlink:href="#DejaVuSans-115"/>
     </g>
    </g>
   </g>
   <g id="matplotlib.axis_2">
    <g id="ytick_1">
     <g id="line2d_7">
      <defs>
       <path d="M 0 0 
L -3.5 0 
" id="mdcdbe064e7" style="stroke:#000000;stroke-width:0.8;"/>
      </defs>
      <g>
       <use style="stroke:#000000;stroke-width:0.8;" x="54" xlink:href="#mdcdbe064e7" y="229.392623"/>
      </g>
     </g>
     <g id="text_8">
      <!-- $\mathdefault{10^{5}}$ -->
      <g transform="translate(29.4 233.191842)scale(0.1 -0.1)">
       <defs>
        <path d="M 10.796875 72.90625 
L 49.515625 72.90625 
L 49.515625 64.59375 
L 19.828125 64.59375 
L 19.828125 46.734375 
Q 21.96875 47.46875 24.109375 47.828125 
Q 26.265625 48.1875 28.421875 48.1875 
Q 40.625 48.1875 47.75 41.5 
Q 54.890625 34.8125 54.890625 23.390625 
Q 54.890625 11.625 47.5625 5.09375 
Q 40.234375 -1.421875 26.90625 -1.421875 
Q 22.3125 -1.421875 17.546875 -0.640625 
Q 12.796875 0.140625 7.71875 1.703125 
L 7.71875 11.625 
Q 12.109375 9.234375 16.796875 8.0625 
Q 21.484375 6.890625 26.703125 6.890625 
Q 35.15625 6.890625 40.078125 11.328125 
Q 45.015625 15.765625 45.015625 23.390625 
Q 45.015625 31 40.078125 35.4375 
Q 35.15625 39.890625 26.703125 39.890625 
Q 22.75 39.890625 18.8125 39.015625 
Q 14.890625 38.140625 10.796875 36.28125 
z
" id="DejaVuSans-53"/>
       </defs>
       <use transform="translate(0 0.684375)" xlink:href="#DejaVuSans-49"/>
       <use transform="translate(63.623047 0.684375)" xlink:href="#DejaVuSans-48"/>
       <use transform="translate(128.203125 38.965625)scale(0.7)" xlink:href="#DejaVuSans-53"/>
      </g>
     </g>
    </g>
    <g id="ytick_2">
     <g id="line2d_8">
      <g>
       <use style="stroke:#000000;stroke-width:0.8;" x="54" xlink:href="#mdcdbe064e7" y="199.557354"/>
      </g>
     </g>
     <g id="text_9">
      <!-- $\mathdefault{10^{7}}$ -->
      <g transform="translate(29.4 203.356573)scale(0.1 -0.1)">
       <defs>
        <path d="M 8.203125 72.90625 
L 55.078125 72.90625 
L 55.078125 68.703125 
L 28.609375 0 
L 18.3125 0 
L 43.21875 64.59375 
L 8.203125 64.59375 
z
" id="DejaVuSans-55"/>
       </defs>
       <use transform="translate(0 0.684375)" xlink:href="#DejaVuSans-49"/>
       <use transform="translate(63.623047 0.684375)" xlink:href="#DejaVuSans-48"/>
       <use transform="translate(128.203125 38.965625)scale(0.7)" xlink:href="#DejaVuSans-55"/>
      </g>
     </g>
    </g>
    <g id="ytick_3">
     <g id="line2d_9">
      <g>
       <use style="stroke:#000000;stroke-width:0.8;" x="54" xlink:href="#mdcdbe064e7" y="169.722085"/>
      </g>
     </g>
     <g id="text_10">
      <!-- $\mathdefault{10^{9}}$ -->
      <g transform="translate(29.4 173.521304)scale(0.1 -0.1)">
       <defs>
        <path d="M 10.984375 1.515625 
L 10.984375 10.5 
Q 14.703125 8.734375 18.5 7.8125 
Q 22.3125 6.890625 25.984375 6.890625 
Q 35.75 6.890625 40.890625 13.453125 
Q 46.046875 20.015625 46.78125 33.40625 
Q 43.953125 29.203125 39.59375 26.953125 
Q 35.25 24.703125 29.984375 24.703125 
Q 19.046875 24.703125 12.671875 31.3125 
Q 6.296875 37.9375 6.296875 49.421875 
Q 6.296875 60.640625 12.9375 67.421875 
Q 19.578125 74.21875 30.609375 74.21875 
Q 43.265625 74.21875 49.921875 64.515625 
Q 56.59375 54.828125 56.59375 36.375 
Q 56.59375 19.140625 48.40625 8.859375 
Q 40.234375 -1.421875 26.421875 -1.421875 
Q 22.703125 -1.421875 18.890625 -0.6875 
Q 15.09375 0.046875 10.984375 1.515625 
z
M 30.609375 32.421875 
Q 37.25 32.421875 41.125 36.953125 
Q 45.015625 41.5 45.015625 49.421875 
Q 45.015625 57.28125 41.125 61.84375 
Q 37.25 66.40625 30.609375 66.40625 
Q 23.96875 66.40625 20.09375 61.84375 
Q 16.21875 57.28125 16.21875 49.421875 
Q 16.21875 41.5 20.09375 36.953125 
Q 23.96875 32.421875 30.609375 32.421875 
z
" id="DejaVuSans-57"/>
       </defs>
       <use transform="translate(0 0.765625)" xlink:href="#DejaVuSans-49"/>
       <use transform="translate(63.623047 0.765625)" xlink:href="#DejaVuSans-48"/>
       <use transform="translate(128.203125 39.046875)scale(0.7)" xlink:href="#DejaVuSans-57"/>
      </g>
     </g>
    </g>
    <g id="ytick_4">
     <g id="line2d_10">
      <g>
       <use style="stroke:#000000;stroke-width:0.8;" x="54" xlink:href="#mdcdbe064e7" y="139.886816"/>
      </g>
     </g>
     <g id="text_11">
      <!-- $\mathdefault{10^{11}}$ -->
      <g transform="translate(24.9 143.686035)scale(0.1 -0.1)">
       <use transform="translate(0 0.684375)" xlink:href="#DejaVuSans-49"/>
       <use transform="translate(63.623047 0.684375)" xlink:href="#DejaVuSans-48"/>
       <use transform="translate(128.203125 38.965625)scale(0.7)" xlink:href="#DejaVuSans-49"/>
       <use transform="translate(172.739258 38.965625)scale(0.7)" xlink:href="#DejaVuSans-49"/>
      </g>
     </g>
    </g>
    <g id="ytick_5">
     <g id="line2d_11">
      <g>
       <use style="stroke:#000000;stroke-width:0.8;" x="54" xlink:href="#mdcdbe064e7" y="110.051547"/>
      </g>
     </g>
     <g id="text_12">
      <!-- $\mathdefault{10^{13}}$ -->
      <g transform="translate(24.9 113.850766)scale(0.1 -0.1)">
       <defs>
        <path d="M 40.578125 39.3125 
Q 47.65625 37.796875 51.625 33 
Q 55.609375 28.21875 55.609375 21.1875 
Q 55.609375 10.40625 48.1875 4.484375 
Q 40.765625 -1.421875 27.09375 -1.421875 
Q 22.515625 -1.421875 17.65625 -0.515625 
Q 12.796875 0.390625 7.625 2.203125 
L 7.625 11.71875 
Q 11.71875 9.328125 16.59375 8.109375 
Q 21.484375 6.890625 26.8125 6.890625 
Q 36.078125 6.890625 40.9375 10.546875 
Q 45.796875 14.203125 45.796875 21.1875 
Q 45.796875 27.640625 41.28125 31.265625 
Q 36.765625 34.90625 28.71875 34.90625 
L 20.21875 34.90625 
L 20.21875 43.015625 
L 29.109375 43.015625 
Q 36.375 43.015625 40.234375 45.921875 
Q 44.09375 48.828125 44.09375 54.296875 
Q 44.09375 59.90625 40.109375 62.90625 
Q 36.140625 65.921875 28.71875 65.921875 
Q 24.65625 65.921875 20.015625 65.03125 
Q 15.375 64.15625 9.8125 62.3125 
L 9.8125 71.09375 
Q 15.4375 72.65625 20.34375 73.4375 
Q 25.25 74.21875 29.59375 74.21875 
Q 40.828125 74.21875 47.359375 69.109375 
Q 53.90625 64.015625 53.90625 55.328125 
Q 53.90625 49.265625 50.4375 45.09375 
Q 46.96875 40.921875 40.578125 39.3125 
z
" id="DejaVuSans-51"/>
       </defs>
       <use transform="translate(0 0.765625)" xlink:href="#DejaVuSans-49"/>
       <use transform="translate(63.623047 0.765625)" xlink:href="#DejaVuSans-48"/>
       <use transform="translate(128.203125 39.046875)scale(0.7)" xlink:href="#DejaVuSans-49"/>
       <use transform="translate(172.739258 39.046875)scale(0.7)" xlink:href="#DejaVuSans-51"/>
      </g>
     </g>
    </g>
    <g id="ytick_6">
     <g id="line2d_12">
      <g>
       <use style="stroke:#000000;stroke-width:0.8;" x="54" xlink:href="#mdcdbe064e7" y="80.216278"/>
      </g>
     </g>
     <g id="text_13">
      <!-- $\mathdefault{10^{15}}$ -->
      <g transform="translate(24.9 84.015497)scale(0.1 -0.1)">
       <use transform="translate(0 0.684375)" xlink:href="#DejaVuSans-49"/>
       <use transform="translate(63.623047 0.684375)" xlink:href="#DejaVuSans-48"/>
       <use transform="translate(128.203125 38.965625)scale(0.7)" xlink:href="#DejaVuSans-49"/>
       <use transform="translate(172.739258 38.965625)scale(0.7)" xlink:href="#DejaVuSans-53"/>
      </g>
     </g>
    </g>
    <g id="ytick_7">
     <g id="line2d_13">
      <g>
       <use style="stroke:#000000;stroke-width:0.8;" x="54" xlink:href="#mdcdbe064e7" y="50.381009"/>
      </g>
     </g>
     <g id="text_14">
      <!-- $\mathdefault{10^{17}}$ -->
      <g transform="translate(24.9 54.180228)scale(0.1 -0.1)">
       <use transform="translate(0 0.684375)" xlink:href="#DejaVuSans-49"/>
       <use transform="translate(63.623047 0.684375)" xlink:href="#DejaVuSans-48"/>
       <use transform="translate(128.203125 38.965625)scale(0.7)" xlink:href="#DejaVuSans-49"/>
       <use transform="translate(172.739258 38.965625)scale(0.7)" xlink:href="#DejaVuSans-55"/>
      </g>
     </g>
    </g>
    <g id="text_15">
     <!-- Convergence -->
     <g transform="translate(18.820312 176.24875)rotate(-90)scale(0.1 -0.1)">
      <defs>
       <path d="M 64.40625 67.28125 
L 64.40625 56.890625 
Q 59.421875 61.53125 53.78125 63.8125 
Q 48.140625 66.109375 41.796875 66.109375 
Q 29.296875 66.109375 22.65625 58.46875 
Q 16.015625 50.828125 16.015625 36.375 
Q 16.015625 21.96875 22.65625 14.328125 
Q 29.296875 6.6875 41.796875 6.6875 
Q 48.140625 6.6875 53.78125 8.984375 
Q 59.421875 11.28125 64.40625 15.921875 
L 64.40625 5.609375 
Q 59.234375 2.09375 53.4375 0.328125 
Q 47.65625 -1.421875 41.21875 -1.421875 
Q 24.65625 -1.421875 15.125 8.703125 
Q 5.609375 18.84375 5.609375 36.375 
Q 5.609375 53.953125 15.125 64.078125 
Q 24.65625 74.21875 41.21875 74.21875 
Q 47.75 74.21875 53.53125 72.484375 
Q 59.328125 70.75 64.40625 67.28125 
z
" id="DejaVuSans-67"/>
       <path d="M 45.40625 27.984375 
Q 45.40625 37.75 41.375 43.109375 
Q 37.359375 48.484375 30.078125 48.484375 
Q 22.859375 48.484375 18.828125 43.109375 
Q 14.796875 37.75 14.796875 27.984375 
Q 14.796875 18.265625 18.828125 12.890625 
Q 22.859375 7.515625 30.078125 7.515625 
Q 37.359375 7.515625 41.375 12.890625 
Q 45.40625 18.265625 45.40625 27.984375 
z
M 54.390625 6.78125 
Q 54.390625 -7.171875 48.1875 -13.984375 
Q 42 -20.796875 29.203125 -20.796875 
Q 24.46875 -20.796875 20.265625 -20.09375 
Q 16.0625 -19.390625 12.109375 -17.921875 
L 12.109375 -9.1875 
Q 16.0625 -11.328125 19.921875 -12.34375 
Q 23.78125 -13.375 27.78125 -13.375 
Q 36.625 -13.375 41.015625 -8.765625 
Q 45.40625 -4.15625 45.40625 5.171875 
L 45.40625 9.625 
Q 42.625 4.78125 38.28125 2.390625 
Q 33.9375 0 27.875 0 
Q 17.828125 0 11.671875 7.65625 
Q 5.515625 15.328125 5.515625 27.984375 
Q 5.515625 40.671875 11.671875 48.328125 
Q 17.828125 56 27.875 56 
Q 33.9375 56 38.28125 53.609375 
Q 42.625 51.21875 45.40625 46.390625 
L 45.40625 54.6875 
L 54.390625 54.6875 
z
" id="DejaVuSans-103"/>
      </defs>
      <use xlink:href="#DejaVuSans-67"/>
      <use x="69.824219" xlink:href="#DejaVuSans-111"/>
      <use x="131.005859" xlink:href="#DejaVuSans-110"/>
      <use x="194.384766" xlink:href="#DejaVuSans-118"/>
      <use x="253.564453" xlink:href="#DejaVuSans-101"/>
      <use x="315.087891" xlink:href="#DejaVuSans-114"/>
      <use x="354.451172" xlink:href="#DejaVuSans-103"/>
      <use x="417.927734" xlink:href="#DejaVuSans-101"/>
      <use x="479.451172" xlink:href="#DejaVuSans-110"/>
      <use x="542.830078" xlink:href="#DejaVuSans-99"/>
      <use x="597.810547" xlink:href="#DejaVuSans-101"/>
     </g>
    </g>
   </g>
   <g id="line2d_14">
    <path clip-path="url(#p01c23e6d42)" d="M 69.218182 44.443636 
L 72.292562 44.443636 
L 72.292562 62.40623 
L 75.366942 62.40623 
L 75.366942 80.369867 
L 78.441322 80.369867 
L 78.441322 98.332065 
L 81.515702 98.332065 
L 81.515702 116.292996 
L 84.590083 116.292996 
L 84.590083 134.248934 
L 87.664463 134.248934 
L 87.664463 152.184631 
L 90.738843 152.184631 
L 90.738843 170.040522 
L 93.813223 170.040522 
L 93.813223 187.583237 
L 96.887603 187.583237 
L 96.887603 203.997535 
L 99.961983 203.997535 
L 99.961983 217.144054 
L 103.036364 217.144054 
L 103.036364 224.659392 
L 106.110744 224.659392 
L 106.110744 227.50325 
L 109.185124 227.50325 
L 109.185124 228.34701 
L 112.259504 228.34701 
L 112.259504 228.578712 
L 121.482645 228.681979 
L 121.482645 228.711573 
L 139.928926 228.808451 
L 139.928926 228.828034 
L 158.375207 228.92276 
L 158.375207 228.941837 
L 176.821488 229.037527 
L 176.821488 229.056774 
L 195.267769 229.154239 
L 195.267769 229.17366 
L 213.71405 229.272256 
L 213.71405 229.29206 
L 232.160331 229.398886 
L 232.160331 229.423535 
L 247.532231 229.520957 
L 247.532231 229.541123 
L 265.978512 229.643175 
L 265.978512 229.663052 
L 287.499174 229.760954 
L 287.499174 229.783976 
L 302.871074 229.870874 
L 302.871074 229.896447 
L 321.317355 230.002265 
L 321.317355 230.030443 
L 336.689256 230.12095 
L 336.689256 230.146207 
L 352.061157 230.248729 
L 352.061157 230.279565 
L 367.433058 230.371414 
L 367.433058 230.397586 
L 373.581818 230.426501 
L 373.581818 230.445099 
" style="fill:none;stroke:#1e90ff;stroke-dasharray:5.55,2.4;stroke-dashoffset:0;stroke-width:1.5;"/>
   </g>
   <g id="line2d_15">
    <path clip-path="url(#p01c23e6d42)" d="M 69.218182 44.443636 
L 90.738843 44.443636 
L 90.738843 125.135239 
L 173.747107 125.135239 
L 173.747107 164.121932 
L 253.680992 164.121932 
L 253.680992 187.665253 
L 259.829752 187.665253 
L 259.829752 191.761863 
L 327.466116 191.761863 
L 327.466116 213.205576 
L 352.061157 213.205576 
L 352.061157 215.504372 
L 358.209917 215.504372 
L 358.209917 222.840716 
L 373.581818 222.840716 
L 373.581818 222.840716 
" style="fill:none;stroke:#ff8c00;stroke-dasharray:5.55,2.4;stroke-dashoffset:0;stroke-width:1.5;"/>
   </g>
   <g id="line2d_16">
    <path clip-path="url(#p01c23e6d42)" d="M 72.292562 44.443636 
L 87.664463 44.444738 
L 87.664463 48.655993 
L 112.259504 48.656366 
L 112.259504 56.068549 
L 115.333884 56.068549 
L 115.333884 162.534771 
L 118.408264 162.534771 
L 118.408264 181.156333 
L 124.557025 181.156333 
L 124.557025 198.635544 
L 127.631405 198.635544 
L 127.631405 208.979053 
L 130.705785 208.979053 
L 130.705785 223.382424 
L 179.895868 223.439945 
L 179.895868 223.502632 
L 312.094215 223.608381 
L 312.094215 223.622695 
L 321.317355 223.725582 
L 321.317355 224.024855 
L 324.391736 224.024855 
L 324.391736 225.100565 
L 339.763636 225.125321 
L 339.763636 225.33261 
L 364.358678 225.33261 
L 364.358678 225.626994 
L 373.581818 225.662199 
L 373.581818 225.662199 
" style="fill:none;stroke:#008000;stroke-dasharray:5.55,2.4;stroke-dashoffset:0;stroke-width:1.5;"/>
   </g>
   <g id="line2d_17">
    <path clip-path="url(#p01c23e6d42)" d="M 69.218182 62.406344 
L 81.515702 62.407287 
L 81.515702 219.797125 
L 84.590083 219.797125 
L 84.590083 220.146767 
L 87.664463 220.146767 
L 87.664463 222.927514 
L 90.738843 222.927514 
L 90.738843 224.395019 
L 112.259504 224.395019 
L 112.259504 225.404426 
L 121.482645 225.404426 
L 121.482645 228.182287 
L 127.631405 228.182287 
L 127.631405 228.912417 
L 133.780165 228.912417 
L 133.780165 231.31072 
L 139.928926 231.31072 
L 139.928926 231.623518 
L 158.375207 231.623518 
L 158.375207 231.825637 
L 176.821488 231.825637 
L 176.821488 232.002131 
L 182.970248 232.002131 
L 182.970248 232.687598 
L 186.044628 232.687598 
L 186.044628 232.985996 
L 222.93719 233.02669 
L 222.93719 234.22059 
L 259.829752 234.303732 
L 259.829752 235.757713 
L 315.168595 235.778992 
L 315.168595 236.597928 
L 345.912397 236.597928 
L 345.912397 236.960283 
L 373.581818 237.016849 
L 373.581818 237.016849 
" style="fill:none;stroke:#ff0000;stroke-dasharray:5.55,2.4;stroke-dashoffset:0;stroke-width:1.5;"/>
   </g>
   <g id="line2d_18">
    <path clip-path="url(#p01c23e6d42)" d="M 69.218182 44.443636 
L 72.292562 44.443636 
L 72.292562 53.084645 
L 84.590083 53.084645 
L 84.590083 101.445829 
L 118.408264 101.445829 
L 118.408264 112.249541 
L 133.780165 112.249541 
L 133.780165 132.601612 
L 158.375207 132.601612 
L 158.375207 135.886391 
L 167.598347 135.886391 
L 167.598347 158.634407 
L 229.08595 158.634407 
L 229.08595 177.780348 
L 250.606612 177.780348 
L 250.606612 195.28684 
L 275.201653 195.28684 
L 275.201653 201.787334 
L 361.284298 201.787334 
L 361.284298 204.022337 
L 370.507438 204.022337 
L 370.507438 211.594655 
L 373.581818 211.594655 
L 373.581818 211.594655 
" style="fill:none;stroke:#9400d3;stroke-dasharray:5.55,2.4;stroke-dashoffset:0;stroke-width:1.5;"/>
   </g>
   <g id="line2d_19">
    <path clip-path="url(#p01c23e6d42)" d="M 69.218182 44.443636 
L 72.292562 44.443636 
L 72.292562 65.491683 
L 373.581818 65.491683 
L 373.581818 65.491683 
" style="fill:none;stroke:#8b4513;stroke-dasharray:5.55,2.4;stroke-dashoffset:0;stroke-width:1.5;"/>
   </g>
   <g id="patch_3">
    <path d="M 54 252 
L 54 34.56 
" style="fill:none;stroke:#000000;stroke-linecap:square;stroke-linejoin:miter;stroke-width:0.8;"/>
   </g>
   <g id="patch_4">
    <path d="M 388.8 252 
L 388.8 34.56 
" style="fill:none;stroke:#000000;stroke-linecap:square;stroke-linejoin:miter;stroke-width:0.8;"/>
   </g>
   <g id="patch_5">
    <path d="M 54 252 
L 388.8 252 
" style="fill:none;stroke:#000000;stroke-linecap:square;stroke-linejoin:miter;stroke-width:0.8;"/>
   </g>
   <g id="patch_6">
    <path d="M 54 34.56 
L 388.8 34.56 
" style="fill:none;stroke:#000000;stroke-linecap:square;stroke-linejoin:miter;stroke-width:0.8;"/>
   </g>
   <g id="legend_1">
    <g id="patch_7">
     <path d="M 265.895312 189.0925 
L 381.8 189.0925 
Q 383.8 189.0925 383.8 187.0925 
L 383.8 99.4675 
Q 383.8 97.4675 381.8 97.4675 
L 265.895312 97.4675 
Q 263.895312 97.4675 263.895312 99.4675 
L 263.895312 187.0925 
Q 263.895312 189.0925 265.895312 189.0925 
z
" style="fill:#ffffff;opacity:0.8;stroke:#cccccc;stroke-linejoin:miter;"/>
    </g>
    <g id="line2d_20">
     <path d="M 267.895312 105.565938 
L 287.895312 105.565938 
" style="fill:none;stroke:#1e90ff;stroke-dasharray:5.55,2.4;stroke-dashoffset:0;stroke-width:1.5;"/>
    </g>
    <g id="line2d_21"/>
    <g id="text_16">
     <!-- ADMM -->
     <g transform="translate(295.895312 109.065938)scale(0.1 -0.1)">
      <defs>
       <path d="M 34.1875 63.1875 
L 20.796875 26.90625 
L 47.609375 26.90625 
z
M 28.609375 72.90625 
L 39.796875 72.90625 
L 67.578125 0 
L 57.328125 0 
L 50.6875 18.703125 
L 17.828125 18.703125 
L 11.1875 0 
L 0.78125 0 
z
" id="DejaVuSans-65"/>
       <path d="M 19.671875 64.796875 
L 19.671875 8.109375 
L 31.59375 8.109375 
Q 46.6875 8.109375 53.6875 14.9375 
Q 60.6875 21.78125 60.6875 36.53125 
Q 60.6875 51.171875 53.6875 57.984375 
Q 46.6875 64.796875 31.59375 64.796875 
z
M 9.8125 72.90625 
L 30.078125 72.90625 
Q 51.265625 72.90625 61.171875 64.09375 
Q 71.09375 55.28125 71.09375 36.53125 
Q 71.09375 17.671875 61.125 8.828125 
Q 51.171875 0 30.078125 0 
L 9.8125 0 
z
" id="DejaVuSans-68"/>
       <path d="M 9.8125 72.90625 
L 24.515625 72.90625 
L 43.109375 23.296875 
L 61.8125 72.90625 
L 76.515625 72.90625 
L 76.515625 0 
L 66.890625 0 
L 66.890625 64.015625 
L 48.09375 14.015625 
L 38.1875 14.015625 
L 19.390625 64.015625 
L 19.390625 0 
L 9.8125 0 
z
" id="DejaVuSans-77"/>
      </defs>
      <use xlink:href="#DejaVuSans-65"/>
      <use x="68.408203" xlink:href="#DejaVuSans-68"/>
      <use x="145.410156" xlink:href="#DejaVuSans-77"/>
      <use x="231.689453" xlink:href="#DejaVuSans-77"/>
     </g>
    </g>
    <g id="line2d_22">
     <path d="M 267.895312 120.244063 
L 287.895312 120.244063 
" style="fill:none;stroke:#ff8c00;stroke-dasharray:5.55,2.4;stroke-dashoffset:0;stroke-width:1.5;"/>
    </g>
    <g id="line2d_23"/>
    <g id="text_17">
     <!-- ADMM_CUATRO -->
     <g transform="translate(295.895312 123.744063)scale(0.1 -0.1)">
      <defs>
       <path d="M 50.984375 -16.609375 
L 50.984375 -23.578125 
L -0.984375 -23.578125 
L -0.984375 -16.609375 
z
" id="DejaVuSans-95"/>
       <path d="M 8.6875 72.90625 
L 18.609375 72.90625 
L 18.609375 28.609375 
Q 18.609375 16.890625 22.84375 11.734375 
Q 27.09375 6.59375 36.625 6.59375 
Q 46.09375 6.59375 50.34375 11.734375 
Q 54.59375 16.890625 54.59375 28.609375 
L 54.59375 72.90625 
L 64.5 72.90625 
L 64.5 27.390625 
Q 64.5 13.140625 57.4375 5.859375 
Q 50.390625 -1.421875 36.625 -1.421875 
Q 22.796875 -1.421875 15.734375 5.859375 
Q 8.6875 13.140625 8.6875 27.390625 
z
" id="DejaVuSans-85"/>
       <path d="M -0.296875 72.90625 
L 61.375 72.90625 
L 61.375 64.59375 
L 35.5 64.59375 
L 35.5 0 
L 25.59375 0 
L 25.59375 64.59375 
L -0.296875 64.59375 
z
" id="DejaVuSans-84"/>
       <path d="M 44.390625 34.1875 
Q 47.5625 33.109375 50.5625 29.59375 
Q 53.5625 26.078125 56.59375 19.921875 
L 66.609375 0 
L 56 0 
L 46.6875 18.703125 
Q 43.0625 26.03125 39.671875 28.421875 
Q 36.28125 30.8125 30.421875 30.8125 
L 19.671875 30.8125 
L 19.671875 0 
L 9.8125 0 
L 9.8125 72.90625 
L 32.078125 72.90625 
Q 44.578125 72.90625 50.734375 67.671875 
Q 56.890625 62.453125 56.890625 51.90625 
Q 56.890625 45.015625 53.6875 40.46875 
Q 50.484375 35.9375 44.390625 34.1875 
z
M 19.671875 64.796875 
L 19.671875 38.921875 
L 32.078125 38.921875 
Q 39.203125 38.921875 42.84375 42.21875 
Q 46.484375 45.515625 46.484375 51.90625 
Q 46.484375 58.296875 42.84375 61.546875 
Q 39.203125 64.796875 32.078125 64.796875 
z
" id="DejaVuSans-82"/>
       <path d="M 39.40625 66.21875 
Q 28.65625 66.21875 22.328125 58.203125 
Q 16.015625 50.203125 16.015625 36.375 
Q 16.015625 22.609375 22.328125 14.59375 
Q 28.65625 6.59375 39.40625 6.59375 
Q 50.140625 6.59375 56.421875 14.59375 
Q 62.703125 22.609375 62.703125 36.375 
Q 62.703125 50.203125 56.421875 58.203125 
Q 50.140625 66.21875 39.40625 66.21875 
z
M 39.40625 74.21875 
Q 54.734375 74.21875 63.90625 63.9375 
Q 73.09375 53.65625 73.09375 36.375 
Q 73.09375 19.140625 63.90625 8.859375 
Q 54.734375 -1.421875 39.40625 -1.421875 
Q 24.03125 -1.421875 14.8125 8.828125 
Q 5.609375 19.09375 5.609375 36.375 
Q 5.609375 53.65625 14.8125 63.9375 
Q 24.03125 74.21875 39.40625 74.21875 
z
" id="DejaVuSans-79"/>
      </defs>
      <use xlink:href="#DejaVuSans-65"/>
      <use x="68.408203" xlink:href="#DejaVuSans-68"/>
      <use x="145.410156" xlink:href="#DejaVuSans-77"/>
      <use x="231.689453" xlink:href="#DejaVuSans-77"/>
      <use x="317.96875" xlink:href="#DejaVuSans-95"/>
      <use x="367.96875" xlink:href="#DejaVuSans-67"/>
      <use x="437.792969" xlink:href="#DejaVuSans-85"/>
      <use x="510.986328" xlink:href="#DejaVuSans-65"/>
      <use x="571.644531" xlink:href="#DejaVuSans-84"/>
      <use x="632.728516" xlink:href="#DejaVuSans-82"/>
      <use x="702.210938" xlink:href="#DejaVuSans-79"/>
     </g>
    </g>
    <g id="line2d_24">
     <path d="M 267.895312 135.200313 
L 287.895312 135.200313 
" style="fill:none;stroke:#008000;stroke-dasharray:5.55,2.4;stroke-dashoffset:0;stroke-width:1.5;"/>
    </g>
    <g id="line2d_25"/>
    <g id="text_18">
     <!-- Py-BOBYQA -->
     <g transform="translate(295.895312 138.700313)scale(0.1 -0.1)">
      <defs>
       <path d="M 19.671875 64.796875 
L 19.671875 37.40625 
L 32.078125 37.40625 
Q 38.96875 37.40625 42.71875 40.96875 
Q 46.484375 44.53125 46.484375 51.125 
Q 46.484375 57.671875 42.71875 61.234375 
Q 38.96875 64.796875 32.078125 64.796875 
z
M 9.8125 72.90625 
L 32.078125 72.90625 
Q 44.34375 72.90625 50.609375 67.359375 
Q 56.890625 61.8125 56.890625 51.125 
Q 56.890625 40.328125 50.609375 34.8125 
Q 44.34375 29.296875 32.078125 29.296875 
L 19.671875 29.296875 
L 19.671875 0 
L 9.8125 0 
z
" id="DejaVuSans-80"/>
       <path d="M 32.171875 -5.078125 
Q 28.375 -14.84375 24.75 -17.8125 
Q 21.140625 -20.796875 15.09375 -20.796875 
L 7.90625 -20.796875 
L 7.90625 -13.28125 
L 13.1875 -13.28125 
Q 16.890625 -13.28125 18.9375 -11.515625 
Q 21 -9.765625 23.484375 -3.21875 
L 25.09375 0.875 
L 2.984375 54.6875 
L 12.5 54.6875 
L 29.59375 11.921875 
L 46.6875 54.6875 
L 56.203125 54.6875 
z
" id="DejaVuSans-121"/>
       <path d="M 4.890625 31.390625 
L 31.203125 31.390625 
L 31.203125 23.390625 
L 4.890625 23.390625 
z
" id="DejaVuSans-45"/>
       <path d="M 19.671875 34.8125 
L 19.671875 8.109375 
L 35.5 8.109375 
Q 43.453125 8.109375 47.28125 11.40625 
Q 51.125 14.703125 51.125 21.484375 
Q 51.125 28.328125 47.28125 31.5625 
Q 43.453125 34.8125 35.5 34.8125 
z
M 19.671875 64.796875 
L 19.671875 42.828125 
L 34.28125 42.828125 
Q 41.5 42.828125 45.03125 45.53125 
Q 48.578125 48.25 48.578125 53.8125 
Q 48.578125 59.328125 45.03125 62.0625 
Q 41.5 64.796875 34.28125 64.796875 
z
M 9.8125 72.90625 
L 35.015625 72.90625 
Q 46.296875 72.90625 52.390625 68.21875 
Q 58.5 63.53125 58.5 54.890625 
Q 58.5 48.1875 55.375 44.234375 
Q 52.25 40.28125 46.1875 39.3125 
Q 53.46875 37.75 57.5 32.78125 
Q 61.53125 27.828125 61.53125 20.40625 
Q 61.53125 10.640625 54.890625 5.3125 
Q 48.25 0 35.984375 0 
L 9.8125 0 
z
" id="DejaVuSans-66"/>
       <path d="M -0.203125 72.90625 
L 10.40625 72.90625 
L 30.609375 42.921875 
L 50.6875 72.90625 
L 61.28125 72.90625 
L 35.5 34.71875 
L 35.5 0 
L 25.59375 0 
L 25.59375 34.71875 
z
" id="DejaVuSans-89"/>
       <path d="M 39.40625 66.21875 
Q 28.65625 66.21875 22.328125 58.203125 
Q 16.015625 50.203125 16.015625 36.375 
Q 16.015625 22.609375 22.328125 14.59375 
Q 28.65625 6.59375 39.40625 6.59375 
Q 50.140625 6.59375 56.421875 14.59375 
Q 62.703125 22.609375 62.703125 36.375 
Q 62.703125 50.203125 56.421875 58.203125 
Q 50.140625 66.21875 39.40625 66.21875 
z
M 53.21875 1.3125 
L 66.21875 -12.890625 
L 54.296875 -12.890625 
L 43.5 -1.21875 
Q 41.890625 -1.3125 41.03125 -1.359375 
Q 40.1875 -1.421875 39.40625 -1.421875 
Q 24.03125 -1.421875 14.8125 8.859375 
Q 5.609375 19.140625 5.609375 36.375 
Q 5.609375 53.65625 14.8125 63.9375 
Q 24.03125 74.21875 39.40625 74.21875 
Q 54.734375 74.21875 63.90625 63.9375 
Q 73.09375 53.65625 73.09375 36.375 
Q 73.09375 23.6875 67.984375 14.640625 
Q 62.890625 5.609375 53.21875 1.3125 
z
" id="DejaVuSans-81"/>
      </defs>
      <use xlink:href="#DejaVuSans-80"/>
      <use x="60.302734" xlink:href="#DejaVuSans-121"/>
      <use x="117.732422" xlink:href="#DejaVuSans-45"/>
      <use x="150.191406" xlink:href="#DejaVuSans-66"/>
      <use x="217.044922" xlink:href="#DejaVuSans-79"/>
      <use x="295.755859" xlink:href="#DejaVuSans-66"/>
      <use x="358.859375" xlink:href="#DejaVuSans-89"/>
      <use x="419.943359" xlink:href="#DejaVuSans-81"/>
      <use x="498.654297" xlink:href="#DejaVuSans-65"/>
     </g>
    </g>
    <g id="line2d_26">
     <path d="M 267.895312 149.878438 
L 287.895312 149.878438 
" style="fill:none;stroke:#ff0000;stroke-dasharray:5.55,2.4;stroke-dashoffset:0;stroke-width:1.5;"/>
    </g>
    <g id="line2d_27"/>
    <g id="text_19">
     <!-- DIRECT-L -->
     <g transform="translate(295.895312 153.378438)scale(0.1 -0.1)">
      <defs>
       <path d="M 9.8125 72.90625 
L 19.671875 72.90625 
L 19.671875 0 
L 9.8125 0 
z
" id="DejaVuSans-73"/>
       <path d="M 9.8125 72.90625 
L 55.90625 72.90625 
L 55.90625 64.59375 
L 19.671875 64.59375 
L 19.671875 43.015625 
L 54.390625 43.015625 
L 54.390625 34.71875 
L 19.671875 34.71875 
L 19.671875 8.296875 
L 56.78125 8.296875 
L 56.78125 0 
L 9.8125 0 
z
" id="DejaVuSans-69"/>
       <path d="M 9.8125 72.90625 
L 19.671875 72.90625 
L 19.671875 8.296875 
L 55.171875 8.296875 
L 55.171875 0 
L 9.8125 0 
z
" id="DejaVuSans-76"/>
      </defs>
      <use xlink:href="#DejaVuSans-68"/>
      <use x="77.001953" xlink:href="#DejaVuSans-73"/>
      <use x="106.494141" xlink:href="#DejaVuSans-82"/>
      <use x="175.976562" xlink:href="#DejaVuSans-69"/>
      <use x="239.160156" xlink:href="#DejaVuSans-67"/>
      <use x="308.984375" xlink:href="#DejaVuSans-84"/>
      <use x="360.943359" xlink:href="#DejaVuSans-45"/>
      <use x="397.027344" xlink:href="#DejaVuSans-76"/>
     </g>
    </g>
    <g id="line2d_28">
     <path d="M 267.895312 164.556563 
L 287.895312 164.556563 
" style="fill:none;stroke:#9400d3;stroke-dasharray:5.55,2.4;stroke-dashoffset:0;stroke-width:1.5;"/>
    </g>
    <g id="line2d_29"/>
    <g id="text_20">
     <!-- ALADIN_CUATRO -->
     <g transform="translate(295.895312 168.056563)scale(0.1 -0.1)">
      <use xlink:href="#DejaVuSans-65"/>
      <use x="68.408203" xlink:href="#DejaVuSans-76"/>
      <use x="126.371094" xlink:href="#DejaVuSans-65"/>
      <use x="194.779297" xlink:href="#DejaVuSans-68"/>
      <use x="271.78125" xlink:href="#DejaVuSans-73"/>
      <use x="301.273438" xlink:href="#DejaVuSans-78"/>
      <use x="376.078125" xlink:href="#DejaVuSans-95"/>
      <use x="426.078125" xlink:href="#DejaVuSans-67"/>
      <use x="495.902344" xlink:href="#DejaVuSans-85"/>
      <use x="569.095703" xlink:href="#DejaVuSans-65"/>
      <use x="629.753906" xlink:href="#DejaVuSans-84"/>
      <use x="690.837891" xlink:href="#DejaVuSans-82"/>
      <use x="760.320312" xlink:href="#DejaVuSans-79"/>
     </g>
    </g>
    <g id="line2d_30">
     <path d="M 267.895312 179.512813 
L 287.895312 179.512813 
" style="fill:none;stroke:#8b4513;stroke-dasharray:5.55,2.4;stroke-dashoffset:0;stroke-width:1.5;"/>
    </g>
    <g id="line2d_31"/>
    <g id="text_21">
     <!-- GPyOpt -->
     <g transform="translate(295.895312 183.012813)scale(0.1 -0.1)">
      <defs>
       <path d="M 59.515625 10.40625 
L 59.515625 29.984375 
L 43.40625 29.984375 
L 43.40625 38.09375 
L 69.28125 38.09375 
L 69.28125 6.78125 
Q 63.578125 2.734375 56.6875 0.65625 
Q 49.8125 -1.421875 42 -1.421875 
Q 24.90625 -1.421875 15.25 8.5625 
Q 5.609375 18.5625 5.609375 36.375 
Q 5.609375 54.25 15.25 64.234375 
Q 24.90625 74.21875 42 74.21875 
Q 49.125 74.21875 55.546875 72.453125 
Q 61.96875 70.703125 67.390625 67.28125 
L 67.390625 56.78125 
Q 61.921875 61.421875 55.765625 63.765625 
Q 49.609375 66.109375 42.828125 66.109375 
Q 29.4375 66.109375 22.71875 58.640625 
Q 16.015625 51.171875 16.015625 36.375 
Q 16.015625 21.625 22.71875 14.15625 
Q 29.4375 6.6875 42.828125 6.6875 
Q 48.046875 6.6875 52.140625 7.59375 
Q 56.25 8.5 59.515625 10.40625 
z
" id="DejaVuSans-71"/>
       <path d="M 18.109375 8.203125 
L 18.109375 -20.796875 
L 9.078125 -20.796875 
L 9.078125 54.6875 
L 18.109375 54.6875 
L 18.109375 46.390625 
Q 20.953125 51.265625 25.265625 53.625 
Q 29.59375 56 35.59375 56 
Q 45.5625 56 51.78125 48.09375 
Q 58.015625 40.1875 58.015625 27.296875 
Q 58.015625 14.40625 51.78125 6.484375 
Q 45.5625 -1.421875 35.59375 -1.421875 
Q 29.59375 -1.421875 25.265625 0.953125 
Q 20.953125 3.328125 18.109375 8.203125 
z
M 48.6875 27.296875 
Q 48.6875 37.203125 44.609375 42.84375 
Q 40.53125 48.484375 33.40625 48.484375 
Q 26.265625 48.484375 22.1875 42.84375 
Q 18.109375 37.203125 18.109375 27.296875 
Q 18.109375 17.390625 22.1875 11.75 
Q 26.265625 6.109375 33.40625 6.109375 
Q 40.53125 6.109375 44.609375 11.75 
Q 48.6875 17.390625 48.6875 27.296875 
z
" id="DejaVuSans-112"/>
      </defs>
      <use xlink:href="#DejaVuSans-71"/>
      <use x="77.490234" xlink:href="#DejaVuSans-80"/>
      <use x="137.792969" xlink:href="#DejaVuSans-121"/>
      <use x="196.972656" xlink:href="#DejaVuSans-79"/>
      <use x="275.683594" xlink:href="#DejaVuSans-112"/>
      <use x="339.160156" xlink:href="#DejaVuSans-116"/>
     </g>
    </g>
   </g>
  </g>
 </g>
 <defs>
  <clipPath id="p01c23e6d42">
   <rect height="217.44" width="334.8" x="54" y="34.56"/>
  </clipPath>
 </defs>
</svg>
