<?xml version="1.0" encoding="utf-8" standalone="no"?>
<!DOCTYPE svg PUBLIC "-//W3C//DTD SVG 1.1//EN"
  "http://www.w3.org/Graphics/SVG/1.1/DTD/svg11.dtd">
<!-- Created with matplotlib (https://matplotlib.org/) -->
<svg height="288pt" version="1.1" viewBox="0 0 432 288" width="432pt" xmlns="http://www.w3.org/2000/svg" xmlns:xlink="http://www.w3.org/1999/xlink">
 <metadata>
  <rdf:RDF xmlns:cc="http://creativecommons.org/ns#" xmlns:dc="http://purl.org/dc/elements/1.1/" xmlns:rdf="http://www.w3.org/1999/02/22-rdf-syntax-ns#">
   <cc:Work>
    <dc:type rdf:resource="http://purl.org/dc/dcmitype/StillImage"/>
    <dc:date>2022-02-20T22:14:12.542235</dc:date>
    <dc:format>image/svg+xml</dc:format>
    <dc:creator>
     <cc:Agent>
      <dc:title>Matplotlib v3.3.4, https://matplotlib.org/</dc:title>
     </cc:Agent>
    </dc:creator>
   </cc:Work>
  </rdf:RDF>
 </metadata>
 <defs>
  <style type="text/css">*{stroke-linecap:butt;stroke-linejoin:round;}</style>
 </defs>
 <g id="figure_1">
  <g id="patch_1">
   <path d="M 0 288 
L 432 288 
L 432 0 
L 0 0 
z
" style="fill:#ffffff;"/>
  </g>
  <g id="axes_1">
   <g id="patch_2">
    <path d="M 54 252 
L 388.8 252 
L 388.8 34.56 
L 54 34.56 
z
" style="fill:#ffffff;"/>
   </g>
   <g id="matplotlib.axis_1">
    <g id="xtick_1">
     <g id="line2d_1">
      <defs>
       <path d="M 0 0 
L 0 3.5 
" id="m27966d6b92" style="stroke:#000000;stroke-width:0.8;"/>
      </defs>
      <g>
       <use style="stroke:#000000;stroke-width:0.8;" x="68.914729" xlink:href="#m27966d6b92" y="252"/>
      </g>
     </g>
     <g id="text_1">
      <!-- 0 -->
      <g transform="translate(65.733479 266.598437)scale(0.1 -0.1)">
       <defs>
        <path d="M 31.78125 66.40625 
Q 24.171875 66.40625 20.328125 58.90625 
Q 16.5 51.421875 16.5 36.375 
Q 16.5 21.390625 20.328125 13.890625 
Q 24.171875 6.390625 31.78125 6.390625 
Q 39.453125 6.390625 43.28125 13.890625 
Q 47.125 21.390625 47.125 36.375 
Q 47.125 51.421875 43.28125 58.90625 
Q 39.453125 66.40625 31.78125 66.40625 
z
M 31.78125 74.21875 
Q 44.046875 74.21875 50.515625 64.515625 
Q 56.984375 54.828125 56.984375 36.375 
Q 56.984375 17.96875 50.515625 8.265625 
Q 44.046875 -1.421875 31.78125 -1.421875 
Q 19.53125 -1.421875 13.0625 8.265625 
Q 6.59375 17.96875 6.59375 36.375 
Q 6.59375 54.828125 13.0625 64.515625 
Q 19.53125 74.21875 31.78125 74.21875 
z
" id="DejaVuSans-48"/>
       </defs>
       <use xlink:href="#DejaVuSans-48"/>
      </g>
     </g>
    </g>
    <g id="xtick_2">
     <g id="line2d_2">
      <g>
       <use style="stroke:#000000;stroke-width:0.8;" x="129.605384" xlink:href="#m27966d6b92" y="252"/>
      </g>
     </g>
     <g id="text_2">
      <!-- 200 -->
      <g transform="translate(120.061634 266.598437)scale(0.1 -0.1)">
       <defs>
        <path d="M 19.1875 8.296875 
L 53.609375 8.296875 
L 53.609375 0 
L 7.328125 0 
L 7.328125 8.296875 
Q 12.9375 14.109375 22.625 23.890625 
Q 32.328125 33.6875 34.8125 36.53125 
Q 39.546875 41.84375 41.421875 45.53125 
Q 43.3125 49.21875 43.3125 52.78125 
Q 43.3125 58.59375 39.234375 62.25 
Q 35.15625 65.921875 28.609375 65.921875 
Q 23.96875 65.921875 18.8125 64.3125 
Q 13.671875 62.703125 7.8125 59.421875 
L 7.8125 69.390625 
Q 13.765625 71.78125 18.9375 73 
Q 24.125 74.21875 28.421875 74.21875 
Q 39.75 74.21875 46.484375 68.546875 
Q 53.21875 62.890625 53.21875 53.421875 
Q 53.21875 48.921875 51.53125 44.890625 
Q 49.859375 40.875 45.40625 35.40625 
Q 44.1875 33.984375 37.640625 27.21875 
Q 31.109375 20.453125 19.1875 8.296875 
z
" id="DejaVuSans-50"/>
       </defs>
       <use xlink:href="#DejaVuSans-50"/>
       <use x="63.623047" xlink:href="#DejaVuSans-48"/>
       <use x="127.246094" xlink:href="#DejaVuSans-48"/>
      </g>
     </g>
    </g>
    <g id="xtick_3">
     <g id="line2d_3">
      <g>
       <use style="stroke:#000000;stroke-width:0.8;" x="190.296039" xlink:href="#m27966d6b92" y="252"/>
      </g>
     </g>
     <g id="text_3">
      <!-- 400 -->
      <g transform="translate(180.752289 266.598437)scale(0.1 -0.1)">
       <defs>
        <path d="M 37.796875 64.3125 
L 12.890625 25.390625 
L 37.796875 25.390625 
z
M 35.203125 72.90625 
L 47.609375 72.90625 
L 47.609375 25.390625 
L 58.015625 25.390625 
L 58.015625 17.1875 
L 47.609375 17.1875 
L 47.609375 0 
L 37.796875 0 
L 37.796875 17.1875 
L 4.890625 17.1875 
L 4.890625 26.703125 
z
" id="DejaVuSans-52"/>
       </defs>
       <use xlink:href="#DejaVuSans-52"/>
       <use x="63.623047" xlink:href="#DejaVuSans-48"/>
       <use x="127.246094" xlink:href="#DejaVuSans-48"/>
      </g>
     </g>
    </g>
    <g id="xtick_4">
     <g id="line2d_4">
      <g>
       <use style="stroke:#000000;stroke-width:0.8;" x="250.986694" xlink:href="#m27966d6b92" y="252"/>
      </g>
     </g>
     <g id="text_4">
      <!-- 600 -->
      <g transform="translate(241.442944 266.598437)scale(0.1 -0.1)">
       <defs>
        <path d="M 33.015625 40.375 
Q 26.375 40.375 22.484375 35.828125 
Q 18.609375 31.296875 18.609375 23.390625 
Q 18.609375 15.53125 22.484375 10.953125 
Q 26.375 6.390625 33.015625 6.390625 
Q 39.65625 6.390625 43.53125 10.953125 
Q 47.40625 15.53125 47.40625 23.390625 
Q 47.40625 31.296875 43.53125 35.828125 
Q 39.65625 40.375 33.015625 40.375 
z
M 52.59375 71.296875 
L 52.59375 62.3125 
Q 48.875 64.0625 45.09375 64.984375 
Q 41.3125 65.921875 37.59375 65.921875 
Q 27.828125 65.921875 22.671875 59.328125 
Q 17.53125 52.734375 16.796875 39.40625 
Q 19.671875 43.65625 24.015625 45.921875 
Q 28.375 48.1875 33.59375 48.1875 
Q 44.578125 48.1875 50.953125 41.515625 
Q 57.328125 34.859375 57.328125 23.390625 
Q 57.328125 12.15625 50.6875 5.359375 
Q 44.046875 -1.421875 33.015625 -1.421875 
Q 20.359375 -1.421875 13.671875 8.265625 
Q 6.984375 17.96875 6.984375 36.375 
Q 6.984375 53.65625 15.1875 63.9375 
Q 23.390625 74.21875 37.203125 74.21875 
Q 40.921875 74.21875 44.703125 73.484375 
Q 48.484375 72.75 52.59375 71.296875 
z
" id="DejaVuSans-54"/>
       </defs>
       <use xlink:href="#DejaVuSans-54"/>
       <use x="63.623047" xlink:href="#DejaVuSans-48"/>
       <use x="127.246094" xlink:href="#DejaVuSans-48"/>
      </g>
     </g>
    </g>
    <g id="xtick_5">
     <g id="line2d_5">
      <g>
       <use style="stroke:#000000;stroke-width:0.8;" x="311.67735" xlink:href="#m27966d6b92" y="252"/>
      </g>
     </g>
     <g id="text_5">
      <!-- 800 -->
      <g transform="translate(302.1336 266.598437)scale(0.1 -0.1)">
       <defs>
        <path d="M 31.78125 34.625 
Q 24.75 34.625 20.71875 30.859375 
Q 16.703125 27.09375 16.703125 20.515625 
Q 16.703125 13.921875 20.71875 10.15625 
Q 24.75 6.390625 31.78125 6.390625 
Q 38.8125 6.390625 42.859375 10.171875 
Q 46.921875 13.96875 46.921875 20.515625 
Q 46.921875 27.09375 42.890625 30.859375 
Q 38.875 34.625 31.78125 34.625 
z
M 21.921875 38.8125 
Q 15.578125 40.375 12.03125 44.71875 
Q 8.5 49.078125 8.5 55.328125 
Q 8.5 64.0625 14.71875 69.140625 
Q 20.953125 74.21875 31.78125 74.21875 
Q 42.671875 74.21875 48.875 69.140625 
Q 55.078125 64.0625 55.078125 55.328125 
Q 55.078125 49.078125 51.53125 44.71875 
Q 48 40.375 41.703125 38.8125 
Q 48.828125 37.15625 52.796875 32.3125 
Q 56.78125 27.484375 56.78125 20.515625 
Q 56.78125 9.90625 50.3125 4.234375 
Q 43.84375 -1.421875 31.78125 -1.421875 
Q 19.734375 -1.421875 13.25 4.234375 
Q 6.78125 9.90625 6.78125 20.515625 
Q 6.78125 27.484375 10.78125 32.3125 
Q 14.796875 37.15625 21.921875 38.8125 
z
M 18.3125 54.390625 
Q 18.3125 48.734375 21.84375 45.5625 
Q 25.390625 42.390625 31.78125 42.390625 
Q 38.140625 42.390625 41.71875 45.5625 
Q 45.3125 48.734375 45.3125 54.390625 
Q 45.3125 60.0625 41.71875 63.234375 
Q 38.140625 66.40625 31.78125 66.40625 
Q 25.390625 66.40625 21.84375 63.234375 
Q 18.3125 60.0625 18.3125 54.390625 
z
" id="DejaVuSans-56"/>
       </defs>
       <use xlink:href="#DejaVuSans-56"/>
       <use x="63.623047" xlink:href="#DejaVuSans-48"/>
       <use x="127.246094" xlink:href="#DejaVuSans-48"/>
      </g>
     </g>
    </g>
    <g id="xtick_6">
     <g id="line2d_6">
      <g>
       <use style="stroke:#000000;stroke-width:0.8;" x="372.368005" xlink:href="#m27966d6b92" y="252"/>
      </g>
     </g>
     <g id="text_6">
      <!-- 1000 -->
      <g transform="translate(359.643005 266.598437)scale(0.1 -0.1)">
       <defs>
        <path d="M 12.40625 8.296875 
L 28.515625 8.296875 
L 28.515625 63.921875 
L 10.984375 60.40625 
L 10.984375 69.390625 
L 28.421875 72.90625 
L 38.28125 72.90625 
L 38.28125 8.296875 
L 54.390625 8.296875 
L 54.390625 0 
L 12.40625 0 
z
" id="DejaVuSans-49"/>
       </defs>
       <use xlink:href="#DejaVuSans-49"/>
       <use x="63.623047" xlink:href="#DejaVuSans-48"/>
       <use x="127.246094" xlink:href="#DejaVuSans-48"/>
       <use x="190.869141" xlink:href="#DejaVuSans-48"/>
      </g>
     </g>
    </g>
    <g id="text_7">
     <!-- Number of function evaluations -->
     <g transform="translate(142.399219 280.276563)scale(0.1 -0.1)">
      <defs>
       <path d="M 9.8125 72.90625 
L 23.09375 72.90625 
L 55.421875 11.921875 
L 55.421875 72.90625 
L 64.984375 72.90625 
L 64.984375 0 
L 51.703125 0 
L 19.390625 60.984375 
L 19.390625 0 
L 9.8125 0 
z
" id="DejaVuSans-78"/>
       <path d="M 8.5 21.578125 
L 8.5 54.6875 
L 17.484375 54.6875 
L 17.484375 21.921875 
Q 17.484375 14.15625 20.5 10.265625 
Q 23.53125 6.390625 29.59375 6.390625 
Q 36.859375 6.390625 41.078125 11.03125 
Q 45.3125 15.671875 45.3125 23.6875 
L 45.3125 54.6875 
L 54.296875 54.6875 
L 54.296875 0 
L 45.3125 0 
L 45.3125 8.40625 
Q 42.046875 3.421875 37.71875 1 
Q 33.40625 -1.421875 27.6875 -1.421875 
Q 18.265625 -1.421875 13.375 4.4375 
Q 8.5 10.296875 8.5 21.578125 
z
M 31.109375 56 
z
" id="DejaVuSans-117"/>
       <path d="M 52 44.1875 
Q 55.375 50.25 60.0625 53.125 
Q 64.75 56 71.09375 56 
Q 79.640625 56 84.28125 50.015625 
Q 88.921875 44.046875 88.921875 33.015625 
L 88.921875 0 
L 79.890625 0 
L 79.890625 32.71875 
Q 79.890625 40.578125 77.09375 44.375 
Q 74.3125 48.1875 68.609375 48.1875 
Q 61.625 48.1875 57.5625 43.546875 
Q 53.515625 38.921875 53.515625 30.90625 
L 53.515625 0 
L 44.484375 0 
L 44.484375 32.71875 
Q 44.484375 40.625 41.703125 44.40625 
Q 38.921875 48.1875 33.109375 48.1875 
Q 26.21875 48.1875 22.15625 43.53125 
Q 18.109375 38.875 18.109375 30.90625 
L 18.109375 0 
L 9.078125 0 
L 9.078125 54.6875 
L 18.109375 54.6875 
L 18.109375 46.1875 
Q 21.1875 51.21875 25.484375 53.609375 
Q 29.78125 56 35.6875 56 
Q 41.65625 56 45.828125 52.96875 
Q 50 49.953125 52 44.1875 
z
" id="DejaVuSans-109"/>
       <path d="M 48.6875 27.296875 
Q 48.6875 37.203125 44.609375 42.84375 
Q 40.53125 48.484375 33.40625 48.484375 
Q 26.265625 48.484375 22.1875 42.84375 
Q 18.109375 37.203125 18.109375 27.296875 
Q 18.109375 17.390625 22.1875 11.75 
Q 26.265625 6.109375 33.40625 6.109375 
Q 40.53125 6.109375 44.609375 11.75 
Q 48.6875 17.390625 48.6875 27.296875 
z
M 18.109375 46.390625 
Q 20.953125 51.265625 25.265625 53.625 
Q 29.59375 56 35.59375 56 
Q 45.5625 56 51.78125 48.09375 
Q 58.015625 40.1875 58.015625 27.296875 
Q 58.015625 14.40625 51.78125 6.484375 
Q 45.5625 -1.421875 35.59375 -1.421875 
Q 29.59375 -1.421875 25.265625 0.953125 
Q 20.953125 3.328125 18.109375 8.203125 
L 18.109375 0 
L 9.078125 0 
L 9.078125 75.984375 
L 18.109375 75.984375 
z
" id="DejaVuSans-98"/>
       <path d="M 56.203125 29.59375 
L 56.203125 25.203125 
L 14.890625 25.203125 
Q 15.484375 15.921875 20.484375 11.0625 
Q 25.484375 6.203125 34.421875 6.203125 
Q 39.59375 6.203125 44.453125 7.46875 
Q 49.3125 8.734375 54.109375 11.28125 
L 54.109375 2.78125 
Q 49.265625 0.734375 44.1875 -0.34375 
Q 39.109375 -1.421875 33.890625 -1.421875 
Q 20.796875 -1.421875 13.15625 6.1875 
Q 5.515625 13.8125 5.515625 26.8125 
Q 5.515625 40.234375 12.765625 48.109375 
Q 20.015625 56 32.328125 56 
Q 43.359375 56 49.78125 48.890625 
Q 56.203125 41.796875 56.203125 29.59375 
z
M 47.21875 32.234375 
Q 47.125 39.59375 43.09375 43.984375 
Q 39.0625 48.390625 32.421875 48.390625 
Q 24.90625 48.390625 20.390625 44.140625 
Q 15.875 39.890625 15.1875 32.171875 
z
" id="DejaVuSans-101"/>
       <path d="M 41.109375 46.296875 
Q 39.59375 47.171875 37.8125 47.578125 
Q 36.03125 48 33.890625 48 
Q 26.265625 48 22.1875 43.046875 
Q 18.109375 38.09375 18.109375 28.8125 
L 18.109375 0 
L 9.078125 0 
L 9.078125 54.6875 
L 18.109375 54.6875 
L 18.109375 46.1875 
Q 20.953125 51.171875 25.484375 53.578125 
Q 30.03125 56 36.53125 56 
Q 37.453125 56 38.578125 55.875 
Q 39.703125 55.765625 41.0625 55.515625 
z
" id="DejaVuSans-114"/>
       <path id="DejaVuSans-32"/>
       <path d="M 30.609375 48.390625 
Q 23.390625 48.390625 19.1875 42.75 
Q 14.984375 37.109375 14.984375 27.296875 
Q 14.984375 17.484375 19.15625 11.84375 
Q 23.34375 6.203125 30.609375 6.203125 
Q 37.796875 6.203125 41.984375 11.859375 
Q 46.1875 17.53125 46.1875 27.296875 
Q 46.1875 37.015625 41.984375 42.703125 
Q 37.796875 48.390625 30.609375 48.390625 
z
M 30.609375 56 
Q 42.328125 56 49.015625 48.375 
Q 55.71875 40.765625 55.71875 27.296875 
Q 55.71875 13.875 49.015625 6.21875 
Q 42.328125 -1.421875 30.609375 -1.421875 
Q 18.84375 -1.421875 12.171875 6.21875 
Q 5.515625 13.875 5.515625 27.296875 
Q 5.515625 40.765625 12.171875 48.375 
Q 18.84375 56 30.609375 56 
z
" id="DejaVuSans-111"/>
       <path d="M 37.109375 75.984375 
L 37.109375 68.5 
L 28.515625 68.5 
Q 23.6875 68.5 21.796875 66.546875 
Q 19.921875 64.59375 19.921875 59.515625 
L 19.921875 54.6875 
L 34.71875 54.6875 
L 34.71875 47.703125 
L 19.921875 47.703125 
L 19.921875 0 
L 10.890625 0 
L 10.890625 47.703125 
L 2.296875 47.703125 
L 2.296875 54.6875 
L 10.890625 54.6875 
L 10.890625 58.5 
Q 10.890625 67.625 15.140625 71.796875 
Q 19.390625 75.984375 28.609375 75.984375 
z
" id="DejaVuSans-102"/>
       <path d="M 54.890625 33.015625 
L 54.890625 0 
L 45.90625 0 
L 45.90625 32.71875 
Q 45.90625 40.484375 42.875 44.328125 
Q 39.84375 48.1875 33.796875 48.1875 
Q 26.515625 48.1875 22.3125 43.546875 
Q 18.109375 38.921875 18.109375 30.90625 
L 18.109375 0 
L 9.078125 0 
L 9.078125 54.6875 
L 18.109375 54.6875 
L 18.109375 46.1875 
Q 21.34375 51.125 25.703125 53.5625 
Q 30.078125 56 35.796875 56 
Q 45.21875 56 50.046875 50.171875 
Q 54.890625 44.34375 54.890625 33.015625 
z
" id="DejaVuSans-110"/>
       <path d="M 48.78125 52.59375 
L 48.78125 44.1875 
Q 44.96875 46.296875 41.140625 47.34375 
Q 37.3125 48.390625 33.40625 48.390625 
Q 24.65625 48.390625 19.8125 42.84375 
Q 14.984375 37.3125 14.984375 27.296875 
Q 14.984375 17.28125 19.8125 11.734375 
Q 24.65625 6.203125 33.40625 6.203125 
Q 37.3125 6.203125 41.140625 7.25 
Q 44.96875 8.296875 48.78125 10.40625 
L 48.78125 2.09375 
Q 45.015625 0.34375 40.984375 -0.53125 
Q 36.96875 -1.421875 32.421875 -1.421875 
Q 20.0625 -1.421875 12.78125 6.34375 
Q 5.515625 14.109375 5.515625 27.296875 
Q 5.515625 40.671875 12.859375 48.328125 
Q 20.21875 56 33.015625 56 
Q 37.15625 56 41.109375 55.140625 
Q 45.0625 54.296875 48.78125 52.59375 
z
" id="DejaVuSans-99"/>
       <path d="M 18.3125 70.21875 
L 18.3125 54.6875 
L 36.8125 54.6875 
L 36.8125 47.703125 
L 18.3125 47.703125 
L 18.3125 18.015625 
Q 18.3125 11.328125 20.140625 9.421875 
Q 21.96875 7.515625 27.59375 7.515625 
L 36.8125 7.515625 
L 36.8125 0 
L 27.59375 0 
Q 17.1875 0 13.234375 3.875 
Q 9.28125 7.765625 9.28125 18.015625 
L 9.28125 47.703125 
L 2.6875 47.703125 
L 2.6875 54.6875 
L 9.28125 54.6875 
L 9.28125 70.21875 
z
" id="DejaVuSans-116"/>
       <path d="M 9.421875 54.6875 
L 18.40625 54.6875 
L 18.40625 0 
L 9.421875 0 
z
M 9.421875 75.984375 
L 18.40625 75.984375 
L 18.40625 64.59375 
L 9.421875 64.59375 
z
" id="DejaVuSans-105"/>
       <path d="M 2.984375 54.6875 
L 12.5 54.6875 
L 29.59375 8.796875 
L 46.6875 54.6875 
L 56.203125 54.6875 
L 35.6875 0 
L 23.484375 0 
z
" id="DejaVuSans-118"/>
       <path d="M 34.28125 27.484375 
Q 23.390625 27.484375 19.1875 25 
Q 14.984375 22.515625 14.984375 16.5 
Q 14.984375 11.71875 18.140625 8.90625 
Q 21.296875 6.109375 26.703125 6.109375 
Q 34.1875 6.109375 38.703125 11.40625 
Q 43.21875 16.703125 43.21875 25.484375 
L 43.21875 27.484375 
z
M 52.203125 31.203125 
L 52.203125 0 
L 43.21875 0 
L 43.21875 8.296875 
Q 40.140625 3.328125 35.546875 0.953125 
Q 30.953125 -1.421875 24.3125 -1.421875 
Q 15.921875 -1.421875 10.953125 3.296875 
Q 6 8.015625 6 15.921875 
Q 6 25.140625 12.171875 29.828125 
Q 18.359375 34.515625 30.609375 34.515625 
L 43.21875 34.515625 
L 43.21875 35.40625 
Q 43.21875 41.609375 39.140625 45 
Q 35.0625 48.390625 27.6875 48.390625 
Q 23 48.390625 18.546875 47.265625 
Q 14.109375 46.140625 10.015625 43.890625 
L 10.015625 52.203125 
Q 14.9375 54.109375 19.578125 55.046875 
Q 24.21875 56 28.609375 56 
Q 40.484375 56 46.34375 49.84375 
Q 52.203125 43.703125 52.203125 31.203125 
z
" id="DejaVuSans-97"/>
       <path d="M 9.421875 75.984375 
L 18.40625 75.984375 
L 18.40625 0 
L 9.421875 0 
z
" id="DejaVuSans-108"/>
       <path d="M 44.28125 53.078125 
L 44.28125 44.578125 
Q 40.484375 46.53125 36.375 47.5 
Q 32.28125 48.484375 27.875 48.484375 
Q 21.1875 48.484375 17.84375 46.4375 
Q 14.5 44.390625 14.5 40.28125 
Q 14.5 37.15625 16.890625 35.375 
Q 19.28125 33.59375 26.515625 31.984375 
L 29.59375 31.296875 
Q 39.15625 29.25 43.1875 25.515625 
Q 47.21875 21.78125 47.21875 15.09375 
Q 47.21875 7.46875 41.1875 3.015625 
Q 35.15625 -1.421875 24.609375 -1.421875 
Q 20.21875 -1.421875 15.453125 -0.5625 
Q 10.6875 0.296875 5.421875 2 
L 5.421875 11.28125 
Q 10.40625 8.6875 15.234375 7.390625 
Q 20.0625 6.109375 24.8125 6.109375 
Q 31.15625 6.109375 34.5625 8.28125 
Q 37.984375 10.453125 37.984375 14.40625 
Q 37.984375 18.0625 35.515625 20.015625 
Q 33.0625 21.96875 24.703125 23.78125 
L 21.578125 24.515625 
Q 13.234375 26.265625 9.515625 29.90625 
Q 5.8125 33.546875 5.8125 39.890625 
Q 5.8125 47.609375 11.28125 51.796875 
Q 16.75 56 26.8125 56 
Q 31.78125 56 36.171875 55.265625 
Q 40.578125 54.546875 44.28125 53.078125 
z
" id="DejaVuSans-115"/>
      </defs>
      <use xlink:href="#DejaVuSans-78"/>
      <use x="74.804688" xlink:href="#DejaVuSans-117"/>
      <use x="138.183594" xlink:href="#DejaVuSans-109"/>
      <use x="235.595703" xlink:href="#DejaVuSans-98"/>
      <use x="299.072266" xlink:href="#DejaVuSans-101"/>
      <use x="360.595703" xlink:href="#DejaVuSans-114"/>
      <use x="401.708984" xlink:href="#DejaVuSans-32"/>
      <use x="433.496094" xlink:href="#DejaVuSans-111"/>
      <use x="494.677734" xlink:href="#DejaVuSans-102"/>
      <use x="529.882812" xlink:href="#DejaVuSans-32"/>
      <use x="561.669922" xlink:href="#DejaVuSans-102"/>
      <use x="596.875" xlink:href="#DejaVuSans-117"/>
      <use x="660.253906" xlink:href="#DejaVuSans-110"/>
      <use x="723.632812" xlink:href="#DejaVuSans-99"/>
      <use x="778.613281" xlink:href="#DejaVuSans-116"/>
      <use x="817.822266" xlink:href="#DejaVuSans-105"/>
      <use x="845.605469" xlink:href="#DejaVuSans-111"/>
      <use x="906.787109" xlink:href="#DejaVuSans-110"/>
      <use x="970.166016" xlink:href="#DejaVuSans-32"/>
      <use x="1001.953125" xlink:href="#DejaVuSans-101"/>
      <use x="1063.476562" xlink:href="#DejaVuSans-118"/>
      <use x="1122.65625" xlink:href="#DejaVuSans-97"/>
      <use x="1183.935547" xlink:href="#DejaVuSans-108"/>
      <use x="1211.71875" xlink:href="#DejaVuSans-117"/>
      <use x="1275.097656" xlink:href="#DejaVuSans-97"/>
      <use x="1336.376953" xlink:href="#DejaVuSans-116"/>
      <use x="1375.585938" xlink:href="#DejaVuSans-105"/>
      <use x="1403.369141" xlink:href="#DejaVuSans-111"/>
      <use x="1464.550781" xlink:href="#DejaVuSans-110"/>
      <use x="1527.929688" xlink:href="#DejaVuSans-115"/>
     </g>
    </g>
   </g>
   <g id="matplotlib.axis_2">
    <g id="ytick_1">
     <g id="line2d_7">
      <defs>
       <path d="M 0 0 
L -3.5 0 
" id="mc5add66992" style="stroke:#000000;stroke-width:0.8;"/>
      </defs>
      <g>
       <use style="stroke:#000000;stroke-width:0.8;" x="54" xlink:href="#mc5add66992" y="224.345917"/>
      </g>
     </g>
     <g id="text_8">
      <!-- $\mathdefault{10^{-1}}$ -->
      <g transform="translate(23.5 228.145136)scale(0.1 -0.1)">
       <defs>
        <path d="M 10.59375 35.5 
L 73.1875 35.5 
L 73.1875 27.203125 
L 10.59375 27.203125 
z
" id="DejaVuSans-8722"/>
       </defs>
       <use transform="translate(0 0.684375)" xlink:href="#DejaVuSans-49"/>
       <use transform="translate(63.623047 0.684375)" xlink:href="#DejaVuSans-48"/>
       <use transform="translate(128.203125 38.965625)scale(0.7)" xlink:href="#DejaVuSans-8722"/>
       <use transform="translate(186.855469 38.965625)scale(0.7)" xlink:href="#DejaVuSans-49"/>
      </g>
     </g>
    </g>
    <g id="ytick_2">
     <g id="line2d_8">
      <g>
       <use style="stroke:#000000;stroke-width:0.8;" x="54" xlink:href="#mc5add66992" y="191.266242"/>
      </g>
     </g>
     <g id="text_9">
      <!-- $\mathdefault{10^{1}}$ -->
      <g transform="translate(29.4 195.065461)scale(0.1 -0.1)">
       <use transform="translate(0 0.684375)" xlink:href="#DejaVuSans-49"/>
       <use transform="translate(63.623047 0.684375)" xlink:href="#DejaVuSans-48"/>
       <use transform="translate(128.203125 38.965625)scale(0.7)" xlink:href="#DejaVuSans-49"/>
      </g>
     </g>
    </g>
    <g id="ytick_3">
     <g id="line2d_9">
      <g>
       <use style="stroke:#000000;stroke-width:0.8;" x="54" xlink:href="#mc5add66992" y="158.186568"/>
      </g>
     </g>
     <g id="text_10">
      <!-- $\mathdefault{10^{3}}$ -->
      <g transform="translate(29.4 161.985786)scale(0.1 -0.1)">
       <defs>
        <path d="M 40.578125 39.3125 
Q 47.65625 37.796875 51.625 33 
Q 55.609375 28.21875 55.609375 21.1875 
Q 55.609375 10.40625 48.1875 4.484375 
Q 40.765625 -1.421875 27.09375 -1.421875 
Q 22.515625 -1.421875 17.65625 -0.515625 
Q 12.796875 0.390625 7.625 2.203125 
L 7.625 11.71875 
Q 11.71875 9.328125 16.59375 8.109375 
Q 21.484375 6.890625 26.8125 6.890625 
Q 36.078125 6.890625 40.9375 10.546875 
Q 45.796875 14.203125 45.796875 21.1875 
Q 45.796875 27.640625 41.28125 31.265625 
Q 36.765625 34.90625 28.71875 34.90625 
L 20.21875 34.90625 
L 20.21875 43.015625 
L 29.109375 43.015625 
Q 36.375 43.015625 40.234375 45.921875 
Q 44.09375 48.828125 44.09375 54.296875 
Q 44.09375 59.90625 40.109375 62.90625 
Q 36.140625 65.921875 28.71875 65.921875 
Q 24.65625 65.921875 20.015625 65.03125 
Q 15.375 64.15625 9.8125 62.3125 
L 9.8125 71.09375 
Q 15.4375 72.65625 20.34375 73.4375 
Q 25.25 74.21875 29.59375 74.21875 
Q 40.828125 74.21875 47.359375 69.109375 
Q 53.90625 64.015625 53.90625 55.328125 
Q 53.90625 49.265625 50.4375 45.09375 
Q 46.96875 40.921875 40.578125 39.3125 
z
" id="DejaVuSans-51"/>
       </defs>
       <use transform="translate(0 0.765625)" xlink:href="#DejaVuSans-49"/>
       <use transform="translate(63.623047 0.765625)" xlink:href="#DejaVuSans-48"/>
       <use transform="translate(128.203125 39.046875)scale(0.7)" xlink:href="#DejaVuSans-51"/>
      </g>
     </g>
    </g>
    <g id="ytick_4">
     <g id="line2d_10">
      <g>
       <use style="stroke:#000000;stroke-width:0.8;" x="54" xlink:href="#mc5add66992" y="125.106893"/>
      </g>
     </g>
     <g id="text_11">
      <!-- $\mathdefault{10^{5}}$ -->
      <g transform="translate(29.4 128.906112)scale(0.1 -0.1)">
       <defs>
        <path d="M 10.796875 72.90625 
L 49.515625 72.90625 
L 49.515625 64.59375 
L 19.828125 64.59375 
L 19.828125 46.734375 
Q 21.96875 47.46875 24.109375 47.828125 
Q 26.265625 48.1875 28.421875 48.1875 
Q 40.625 48.1875 47.75 41.5 
Q 54.890625 34.8125 54.890625 23.390625 
Q 54.890625 11.625 47.5625 5.09375 
Q 40.234375 -1.421875 26.90625 -1.421875 
Q 22.3125 -1.421875 17.546875 -0.640625 
Q 12.796875 0.140625 7.71875 1.703125 
L 7.71875 11.625 
Q 12.109375 9.234375 16.796875 8.0625 
Q 21.484375 6.890625 26.703125 6.890625 
Q 35.15625 6.890625 40.078125 11.328125 
Q 45.015625 15.765625 45.015625 23.390625 
Q 45.015625 31 40.078125 35.4375 
Q 35.15625 39.890625 26.703125 39.890625 
Q 22.75 39.890625 18.8125 39.015625 
Q 14.890625 38.140625 10.796875 36.28125 
z
" id="DejaVuSans-53"/>
       </defs>
       <use transform="translate(0 0.684375)" xlink:href="#DejaVuSans-49"/>
       <use transform="translate(63.623047 0.684375)" xlink:href="#DejaVuSans-48"/>
       <use transform="translate(128.203125 38.965625)scale(0.7)" xlink:href="#DejaVuSans-53"/>
      </g>
     </g>
    </g>
    <g id="ytick_5">
     <g id="line2d_11">
      <g>
       <use style="stroke:#000000;stroke-width:0.8;" x="54" xlink:href="#mc5add66992" y="92.027218"/>
      </g>
     </g>
     <g id="text_12">
      <!-- $\mathdefault{10^{7}}$ -->
      <g transform="translate(29.4 95.826437)scale(0.1 -0.1)">
       <defs>
        <path d="M 8.203125 72.90625 
L 55.078125 72.90625 
L 55.078125 68.703125 
L 28.609375 0 
L 18.3125 0 
L 43.21875 64.59375 
L 8.203125 64.59375 
z
" id="DejaVuSans-55"/>
       </defs>
       <use transform="translate(0 0.684375)" xlink:href="#DejaVuSans-49"/>
       <use transform="translate(63.623047 0.684375)" xlink:href="#DejaVuSans-48"/>
       <use transform="translate(128.203125 38.965625)scale(0.7)" xlink:href="#DejaVuSans-55"/>
      </g>
     </g>
    </g>
    <g id="ytick_6">
     <g id="line2d_12">
      <g>
       <use style="stroke:#000000;stroke-width:0.8;" x="54" xlink:href="#mc5add66992" y="58.947544"/>
      </g>
     </g>
     <g id="text_13">
      <!-- $\mathdefault{10^{9}}$ -->
      <g transform="translate(29.4 62.746762)scale(0.1 -0.1)">
       <defs>
        <path d="M 10.984375 1.515625 
L 10.984375 10.5 
Q 14.703125 8.734375 18.5 7.8125 
Q 22.3125 6.890625 25.984375 6.890625 
Q 35.75 6.890625 40.890625 13.453125 
Q 46.046875 20.015625 46.78125 33.40625 
Q 43.953125 29.203125 39.59375 26.953125 
Q 35.25 24.703125 29.984375 24.703125 
Q 19.046875 24.703125 12.671875 31.3125 
Q 6.296875 37.9375 6.296875 49.421875 
Q 6.296875 60.640625 12.9375 67.421875 
Q 19.578125 74.21875 30.609375 74.21875 
Q 43.265625 74.21875 49.921875 64.515625 
Q 56.59375 54.828125 56.59375 36.375 
Q 56.59375 19.140625 48.40625 8.859375 
Q 40.234375 -1.421875 26.421875 -1.421875 
Q 22.703125 -1.421875 18.890625 -0.6875 
Q 15.09375 0.046875 10.984375 1.515625 
z
M 30.609375 32.421875 
Q 37.25 32.421875 41.125 36.953125 
Q 45.015625 41.5 45.015625 49.421875 
Q 45.015625 57.28125 41.125 61.84375 
Q 37.25 66.40625 30.609375 66.40625 
Q 23.96875 66.40625 20.09375 61.84375 
Q 16.21875 57.28125 16.21875 49.421875 
Q 16.21875 41.5 20.09375 36.953125 
Q 23.96875 32.421875 30.609375 32.421875 
z
" id="DejaVuSans-57"/>
       </defs>
       <use transform="translate(0 0.765625)" xlink:href="#DejaVuSans-49"/>
       <use transform="translate(63.623047 0.765625)" xlink:href="#DejaVuSans-48"/>
       <use transform="translate(128.203125 39.046875)scale(0.7)" xlink:href="#DejaVuSans-57"/>
      </g>
     </g>
    </g>
    <g id="text_14">
     <!-- Convergence -->
     <g transform="translate(17.420312 176.24875)rotate(-90)scale(0.1 -0.1)">
      <defs>
       <path d="M 64.40625 67.28125 
L 64.40625 56.890625 
Q 59.421875 61.53125 53.78125 63.8125 
Q 48.140625 66.109375 41.796875 66.109375 
Q 29.296875 66.109375 22.65625 58.46875 
Q 16.015625 50.828125 16.015625 36.375 
Q 16.015625 21.96875 22.65625 14.328125 
Q 29.296875 6.6875 41.796875 6.6875 
Q 48.140625 6.6875 53.78125 8.984375 
Q 59.421875 11.28125 64.40625 15.921875 
L 64.40625 5.609375 
Q 59.234375 2.09375 53.4375 0.328125 
Q 47.65625 -1.421875 41.21875 -1.421875 
Q 24.65625 -1.421875 15.125 8.703125 
Q 5.609375 18.84375 5.609375 36.375 
Q 5.609375 53.953125 15.125 64.078125 
Q 24.65625 74.21875 41.21875 74.21875 
Q 47.75 74.21875 53.53125 72.484375 
Q 59.328125 70.75 64.40625 67.28125 
z
" id="DejaVuSans-67"/>
       <path d="M 45.40625 27.984375 
Q 45.40625 37.75 41.375 43.109375 
Q 37.359375 48.484375 30.078125 48.484375 
Q 22.859375 48.484375 18.828125 43.109375 
Q 14.796875 37.75 14.796875 27.984375 
Q 14.796875 18.265625 18.828125 12.890625 
Q 22.859375 7.515625 30.078125 7.515625 
Q 37.359375 7.515625 41.375 12.890625 
Q 45.40625 18.265625 45.40625 27.984375 
z
M 54.390625 6.78125 
Q 54.390625 -7.171875 48.1875 -13.984375 
Q 42 -20.796875 29.203125 -20.796875 
Q 24.46875 -20.796875 20.265625 -20.09375 
Q 16.0625 -19.390625 12.109375 -17.921875 
L 12.109375 -9.1875 
Q 16.0625 -11.328125 19.921875 -12.34375 
Q 23.78125 -13.375 27.78125 -13.375 
Q 36.625 -13.375 41.015625 -8.765625 
Q 45.40625 -4.15625 45.40625 5.171875 
L 45.40625 9.625 
Q 42.625 4.78125 38.28125 2.390625 
Q 33.9375 0 27.875 0 
Q 17.828125 0 11.671875 7.65625 
Q 5.515625 15.328125 5.515625 27.984375 
Q 5.515625 40.671875 11.671875 48.328125 
Q 17.828125 56 27.875 56 
Q 33.9375 56 38.28125 53.609375 
Q 42.625 51.21875 45.40625 46.390625 
L 45.40625 54.6875 
L 54.390625 54.6875 
z
" id="DejaVuSans-103"/>
      </defs>
      <use xlink:href="#DejaVuSans-67"/>
      <use x="69.824219" xlink:href="#DejaVuSans-111"/>
      <use x="131.005859" xlink:href="#DejaVuSans-110"/>
      <use x="194.384766" xlink:href="#DejaVuSans-118"/>
      <use x="253.564453" xlink:href="#DejaVuSans-101"/>
      <use x="315.087891" xlink:href="#DejaVuSans-114"/>
      <use x="354.451172" xlink:href="#DejaVuSans-103"/>
      <use x="417.927734" xlink:href="#DejaVuSans-101"/>
      <use x="479.451172" xlink:href="#DejaVuSans-110"/>
      <use x="542.830078" xlink:href="#DejaVuSans-99"/>
      <use x="597.810547" xlink:href="#DejaVuSans-101"/>
     </g>
    </g>
   </g>
   <g id="line2d_13">
    <path clip-path="url(#p199ff5d1f4)" d="M 69.218182 44.443636 
L 69.521635 44.443636 
L 69.521635 64.365076 
L 69.825088 64.365076 
L 69.825088 84.273022 
L 70.128542 84.273022 
L 70.128542 104.09735 
L 70.431995 104.09735 
L 70.431995 123.536913 
L 70.735448 123.536913 
L 70.735448 141.488861 
L 71.038901 141.488861 
L 71.038901 155.209804 
L 71.342355 155.209804 
L 71.342355 162.327028 
L 71.645808 162.327028 
L 71.645808 164.737584 
L 71.949261 164.737584 
L 71.949261 165.427 
L 72.252715 165.427 
L 72.252715 165.66626 
L 72.556168 165.66626 
L 72.556168 165.837371 
L 72.859621 165.837371 
L 72.859621 166.00303 
L 73.163074 166.00303 
L 73.163074 166.167636 
L 73.466528 166.167636 
L 73.466528 166.332926 
L 73.769981 166.332926 
L 73.769981 166.498269 
L 74.073434 166.498269 
L 74.073434 166.668139 
L 74.376888 166.668139 
L 74.376888 166.838419 
L 74.680341 166.838419 
L 74.680341 167.001434 
L 91.066818 166.890491 
L 91.066818 166.887034 
L 101.080776 166.776367 
L 101.080776 166.772888 
L 111.094734 166.662191 
L 111.094734 166.658735 
L 121.108692 166.548326 
L 121.108692 166.54488 
L 131.12265 166.434624 
L 131.12265 166.431173 
L 141.136608 166.320985 
L 141.136608 166.317543 
L 151.150566 166.207527 
L 151.150566 166.204093 
L 161.164525 166.094341 
L 161.164525 166.090915 
L 171.178483 165.981331 
L 171.178483 165.977939 
L 181.192441 165.868624 
L 181.192441 165.865214 
L 264.035185 165.975725 
L 264.035185 165.976604 
L 302.573751 166.08746 
L 302.573751 166.088324 
L 341.112318 166.199228 
L 341.112318 166.200097 
L 372.368005 166.289839 
L 372.368005 166.290713 
" style="fill:none;stroke:#1e90ff;stroke-dasharray:5.55,2.4;stroke-dashoffset:0;stroke-width:1.5;"/>
   </g>
   <g id="line2d_14">
    <path clip-path="url(#p199ff5d1f4)" d="M 69.218182 44.443636 
L 81.659766 44.443636 
L 81.659766 64.069019 
L 89.549551 64.069019 
L 89.549551 87.210027 
L 90.156458 87.210027 
L 90.156458 90.51466 
L 107.149841 90.51466 
L 107.149841 95.389985 
L 109.577468 95.389985 
L 109.577468 121.711709 
L 119.591426 121.711709 
L 119.591426 125.631998 
L 126.570851 125.631998 
L 126.570851 131.4529 
L 130.21229 131.4529 
L 130.21229 145.023945 
L 138.102076 145.023945 
L 138.102076 153.757898 
L 145.081501 153.757898 
L 145.081501 155.160737 
L 180.282081 155.160737 
L 180.282081 155.49723 
L 189.082226 155.49723 
L 189.082226 156.353216 
L 286.187275 156.461809 
L 286.187275 156.466464 
L 318.656775 156.519025 
L 318.656775 156.658804 
L 329.27764 156.658804 
L 329.27764 156.781101 
L 354.767715 156.877986 
L 354.767715 156.905395 
L 372.368005 156.963963 
L 372.368005 156.963963 
" style="fill:none;stroke:#ff8c00;stroke-dasharray:5.55,2.4;stroke-dashoffset:0;stroke-width:1.5;"/>
   </g>
   <g id="line2d_15">
    <path clip-path="url(#p199ff5d1f4)" d="M 69.521635 44.443636 
L 69.825088 44.443636 
L 69.825088 48.457218 
L 71.645808 48.457218 
L 71.645808 48.956833 
L 75.894154 48.956833 
L 75.894154 63.312526 
L 76.197607 63.312526 
L 76.197607 79.96659 
L 76.50106 79.96659 
L 76.50106 93.854198 
L 76.804514 93.854198 
L 76.804514 96.341491 
L 77.107967 96.341491 
L 77.107967 98.283529 
L 77.41142 98.283529 
L 77.41142 101.300647 
L 77.714874 101.300647 
L 77.714874 118.314012 
L 78.32178 118.314012 
L 78.32178 121.179503 
L 78.625233 121.179503 
L 78.625233 126.870205 
L 78.928687 126.870205 
L 78.928687 135.637328 
L 79.535593 135.637328 
L 79.535593 136.040421 
L 80.1425 136.040421 
L 80.1425 141.682971 
L 80.445953 141.682971 
L 80.445953 153.82595 
L 81.356313 153.82595 
L 81.356313 157.159832 
L 83.480486 157.159832 
L 83.480486 157.800938 
L 83.783939 157.800938 
L 83.783939 158.582055 
L 85.301205 158.582055 
L 85.301205 158.801766 
L 85.908112 158.801766 
L 85.908112 159.175438 
L 87.425378 159.237613 
L 87.425378 159.525428 
L 89.853005 159.625307 
L 89.853005 159.656633 
L 90.459911 159.74373 
L 90.459911 159.861035 
L 91.673724 159.906707 
L 91.673724 160.11868 
L 93.797897 160.206697 
L 93.797897 160.320015 
L 94.10135 160.320015 
L 94.10135 160.485661 
L 94.404804 160.485661 
L 94.404804 160.706267 
L 95.315164 160.706267 
L 95.315164 160.913005 
L 95.618617 160.913005 
L 95.618617 161.24829 
L 95.92207 161.24829 
L 95.92207 161.511122 
L 96.225523 161.511122 
L 96.225523 161.810042 
L 97.439337 161.870571 
L 97.439337 162.0702 
L 98.046243 162.0702 
L 98.046243 162.618202 
L 99.563509 162.618202 
L 99.563509 162.733226 
L 100.777323 162.781145 
L 100.777323 162.905829 
L 103.204949 163.011859 
L 103.204949 163.043772 
L 106.239482 163.143923 
L 106.239482 163.188901 
L 107.756748 163.292664 
L 107.756748 163.42876 
L 108.667108 163.42876 
L 108.667108 163.58656 
L 108.970561 163.58656 
L 108.970561 163.872628 
L 109.274014 163.872628 
L 109.274014 164.051984 
L 109.577468 164.051984 
L 109.577468 164.251614 
L 113.825813 164.251614 
L 113.825813 164.790825 
L 114.129267 164.790825 
L 114.129267 165.035992 
L 117.1638 165.117928 
L 117.1638 165.163014 
L 117.467253 165.163014 
L 117.467253 165.328692 
L 122.019052 165.418583 
L 122.019052 165.466076 
L 122.322505 165.466076 
L 122.322505 165.59275 
L 122.625958 165.59275 
L 122.625958 165.709521 
L 123.536318 165.777452 
L 123.536318 165.92868 
L 123.839772 165.92868 
L 123.839772 166.087418 
L 124.750131 166.087418 
L 124.750131 166.513098 
L 125.053585 166.513098 
L 125.053585 166.795226 
L 126.267398 166.795226 
L 126.267398 167.042838 
L 126.570851 167.042838 
L 126.570851 167.325972 
L 128.695024 167.325972 
L 128.695024 167.552983 
L 128.998477 167.552983 
L 128.998477 167.693042 
L 131.12265 167.733317 
L 131.12265 167.85356 
L 131.426104 167.85356 
L 131.426104 167.973472 
L 132.336463 167.973472 
L 132.336463 168.32718 
L 132.639917 168.32718 
L 132.639917 168.496372 
L 134.76409 168.523934 
L 134.76409 168.70665 
L 135.674449 168.70665 
L 135.674449 168.965 
L 135.977903 168.965 
L 135.977903 169.111631 
L 137.495169 169.222394 
L 137.495169 169.597218 
L 139.012435 169.597218 
L 139.012435 169.79376 
L 139.922795 169.879121 
L 139.922795 170.300361 
L 141.440062 170.353563 
L 141.440062 170.418551 
L 142.653875 170.520697 
L 142.653875 170.546755 
L 143.260781 170.599644 
L 143.260781 170.808986 
L 143.564235 170.808986 
L 143.564235 171.024243 
L 144.778048 171.096051 
L 144.778048 171.438445 
L 145.688408 171.438445 
L 145.688408 172.562014 
L 145.991861 172.562014 
L 145.991861 173.170875 
L 146.902221 173.170875 
L 146.902221 173.400527 
L 147.205674 173.400527 
L 147.205674 174.199359 
L 148.72294 174.199359 
L 148.72294 174.410811 
L 150.847113 174.503186 
L 150.847113 174.524566 
L 151.45402 174.559251 
L 151.45402 174.636816 
L 154.488553 174.742319 
L 154.488553 174.825321 
L 154.792006 174.825321 
L 154.792006 175.027973 
L 155.095459 175.027973 
L 155.095459 175.166962 
L 156.309272 175.25792 
L 156.309272 175.501032 
L 156.612725 175.501032 
L 156.612725 175.785311 
L 157.219632 175.785311 
L 157.219632 176.063802 
L 158.129992 176.095357 
L 158.129992 176.499377 
L 158.736898 176.571306 
L 158.736898 176.649031 
L 159.950712 176.649031 
L 159.950712 176.874255 
L 160.861071 176.874255 
L 160.861071 177.079901 
L 162.074884 177.164251 
L 162.074884 177.896108 
L 162.378338 177.896108 
L 162.378338 178.30671 
L 162.681791 178.30671 
L 162.681791 179.386475 
L 163.895604 179.488307 
L 163.895604 179.929737 
L 164.502511 179.929737 
L 164.502511 181.246762 
L 164.805964 181.246762 
L 164.805964 183.025869 
L 165.109417 183.025869 
L 165.109417 183.29421 
L 166.32323 183.29421 
L 166.32323 183.574077 
L 166.626684 183.574077 
L 166.626684 183.879089 
L 166.930137 183.879089 
L 166.930137 184.335756 
L 167.23359 184.335756 
L 167.23359 185.700196 
L 169.357763 185.790873 
L 169.357763 186.355077 
L 170.875029 186.374545 
L 170.875029 186.661355 
L 171.178483 186.661355 
L 171.178483 186.798414 
L 171.785389 186.861108 
L 171.785389 186.943253 
L 172.695749 186.943253 
L 172.695749 187.124334 
L 173.606109 187.124334 
L 173.606109 187.659124 
L 176.337188 187.74804 
L 176.337188 187.794003 
L 177.247548 187.886506 
L 177.247548 187.943743 
L 179.068268 188.034468 
L 179.068268 188.077579 
L 180.282081 188.17542 
L 180.282081 188.277662 
L 181.799347 188.359751 
L 181.799347 188.449479 
L 183.620067 188.540917 
L 183.620067 188.613035 
L 183.92352 188.613035 
L 183.92352 188.777582 
L 184.226974 188.777582 
L 184.226974 188.940463 
L 186.047693 189.013044 
L 186.047693 189.131365 
L 186.958053 189.219975 
L 186.958053 189.341496 
L 187.868413 189.341496 
L 187.868413 189.480845 
L 188.171866 189.480845 
L 188.171866 189.599654 
L 188.475319 189.599654 
L 188.475319 189.740531 
L 189.992586 189.826665 
L 189.992586 190.413287 
L 190.296039 190.413287 
L 190.296039 190.67231 
L 190.902946 190.67231 
L 190.902946 191.014664 
L 192.420212 191.014664 
L 192.420212 191.338469 
L 193.937478 191.414397 
L 193.937478 191.498456 
L 194.240932 191.498456 
L 194.240932 191.68452 
L 194.544385 191.68452 
L 194.544385 191.948495 
L 196.972011 191.948495 
L 196.972011 192.081468 
L 197.275465 192.081468 
L 197.275465 192.195762 
L 198.792731 192.28326 
L 198.792731 192.360408 
L 200.916904 192.386629 
L 200.916904 192.527852 
L 201.220357 192.527852 
L 201.220357 192.768674 
L 203.647983 192.840884 
L 203.647983 192.908893 
L 203.951437 192.908893 
L 203.951437 193.07674 
L 204.25489 193.07674 
L 204.25489 193.198492 
L 207.592876 193.298599 
L 207.592876 193.344367 
L 212.144675 193.408846 
L 212.144675 193.486312 
L 215.179208 193.574541 
L 215.179208 193.618285 
L 216.089568 193.718106 
L 216.089568 193.801422 
L 216.393021 193.801422 
L 216.393021 194.111838 
L 216.696474 194.111838 
L 216.696474 194.573337 
L 217.606834 194.573337 
L 217.606834 195.418587 
L 217.910287 195.418587 
L 217.910287 196.327309 
L 220.337914 196.399966 
L 220.337914 197.81823 
L 220.641367 197.81823 
L 220.641367 198.013796 
L 220.94482 198.013796 
L 220.94482 198.774071 
L 221.85518 198.810065 
L 221.85518 199.721713 
L 222.76554 199.721713 
L 222.76554 200.084343 
L 223.068993 200.084343 
L 223.068993 200.241521 
L 223.372446 200.241521 
L 223.372446 200.382489 
L 224.282806 200.388661 
L 224.282806 200.508323 
L 225.193166 200.508323 
L 225.193166 200.627489 
L 225.496619 200.627489 
L 225.496619 200.758564 
L 225.800073 200.758564 
L 225.800073 200.896688 
L 226.103526 200.896688 
L 226.103526 201.102131 
L 226.406979 201.102131 
L 226.406979 201.347902 
L 227.013886 201.440762 
L 227.013886 201.801961 
L 227.317339 201.801961 
L 227.317339 202.328467 
L 227.620792 202.328467 
L 227.620792 202.580868 
L 228.834605 202.598605 
L 228.834605 202.789545 
L 229.441512 202.889347 
L 229.441512 202.941818 
L 229.744965 202.941818 
L 229.744965 203.135243 
L 231.262231 203.181417 
L 231.262231 203.32855 
L 232.476045 203.363353 
L 232.476045 203.44073 
L 233.082951 203.52989 
L 233.082951 203.621265 
L 233.386404 203.621265 
L 233.386404 203.974211 
L 233.689858 203.974211 
L 233.689858 204.420809 
L 236.117484 204.531227 
L 236.117484 204.546801 
L 236.72439 204.586558 
L 236.72439 204.710556 
L 237.027844 204.710556 
L 237.027844 204.979264 
L 239.45547 205.079756 
L 239.45547 205.191163 
L 240.36583 205.191163 
L 240.36583 205.334393 
L 240.669283 205.334393 
L 240.669283 205.521562 
L 244.310722 205.598586 
L 244.310722 205.66624 
L 244.614176 205.66624 
L 244.614176 205.860627 
L 244.917629 205.860627 
L 244.917629 206.018 
L 245.221082 206.018 
L 245.221082 206.220598 
L 245.827989 206.29321 
L 245.827989 206.496627 
L 246.131442 206.496627 
L 246.131442 206.815499 
L 247.952162 206.815499 
L 247.952162 207.024821 
L 248.255615 207.024821 
L 248.255615 207.351704 
L 249.469428 207.460088 
L 249.469428 207.510247 
L 250.076335 207.608681 
L 250.076335 207.850398 
L 250.986694 207.850398 
L 250.986694 208.072332 
L 251.290148 208.072332 
L 251.290148 208.344395 
L 253.414321 208.422264 
L 253.414321 208.60493 
L 256.448853 208.703921 
L 256.448853 208.729011 
L 257.05576 208.834115 
L 257.05576 208.89361 
L 258.269573 208.971797 
L 258.269573 209.043022 
L 260.393746 209.146605 
L 260.393746 209.384343 
L 260.697199 209.384343 
L 260.697199 209.585545 
L 261.000653 209.585545 
L 261.000653 209.992814 
L 263.731732 210.026118 
L 263.731732 210.45974 
L 264.035185 210.45974 
L 264.035185 211.154842 
L 264.338639 211.154842 
L 264.338639 211.918952 
L 264.642092 211.918952 
L 264.642092 212.378094 
L 264.945545 212.378094 
L 264.945545 213.058978 
L 267.069718 213.058978 
L 267.069718 214.352996 
L 267.373171 214.352996 
L 267.373171 214.690333 
L 268.890438 214.690333 
L 268.890438 215.013236 
L 269.193891 215.013236 
L 269.193891 215.394202 
L 269.497344 215.394202 
L 269.497344 215.77568 
L 269.800798 215.77568 
L 269.800798 216.088337 
L 270.104251 216.088337 
L 270.104251 216.781051 
L 272.228424 216.781051 
L 272.228424 217.859726 
L 272.531877 217.859726 
L 272.531877 218.349236 
L 272.83533 218.349236 
L 272.83533 218.986264 
L 273.138784 218.986264 
L 273.138784 219.739994 
L 273.442237 219.739994 
L 273.442237 220.218176 
L 274.049143 220.285829 
L 274.049143 220.457548 
L 277.083676 220.563582 
L 277.083676 220.678262 
L 278.904396 220.686143 
L 278.904396 221.866905 
L 279.207849 221.866905 
L 279.207849 222.52679 
L 281.028569 222.626597 
L 281.028569 222.703111 
L 281.635475 222.804968 
L 281.635475 222.842701 
L 282.242382 222.914889 
L 282.242382 223.063995 
L 283.152742 223.063995 
L 283.152742 223.422101 
L 283.759648 223.422101 
L 283.759648 223.729627 
L 284.063102 223.729627 
L 284.063102 223.942892 
L 284.366555 223.942892 
L 284.366555 224.101675 
L 284.973461 224.208141 
L 284.973461 224.284974 
L 285.883821 224.36383 
L 285.883821 224.441279 
L 288.918354 224.551696 
L 288.918354 224.656009 
L 289.221807 224.656009 
L 289.221807 224.777907 
L 290.739074 224.777907 
L 290.739074 224.904074 
L 293.773606 224.98902 
L 293.773606 225.028463 
L 294.380513 225.079365 
L 294.380513 225.392832 
L 295.290873 225.392832 
L 295.290873 225.507245 
L 296.201233 225.598053 
L 296.201233 225.668898 
L 298.932312 225.774448 
L 298.932312 225.78913 
L 300.449579 225.881882 
L 300.449579 225.948789 
L 308.642817 226.054671 
L 308.642817 226.069213 
L 310.160083 226.133137 
L 310.160083 226.183858 
L 311.980803 226.287712 
L 311.980803 226.323312 
L 313.801523 226.38679 
L 313.801523 226.517754 
L 315.015336 226.628372 
L 315.015336 226.937904 
L 315.925696 226.937904 
L 315.925696 227.281875 
L 316.532602 227.281875 
L 316.532602 227.596606 
L 319.263682 227.670953 
L 319.263682 227.777612 
L 320.477495 227.854613 
L 320.477495 227.94816 
L 321.084401 227.992166 
L 321.084401 228.272247 
L 321.691308 228.272247 
L 321.691308 229.308641 
L 323.512028 229.384349 
L 323.512028 230.268432 
L 325.029294 230.268432 
L 325.029294 230.438197 
L 325.332747 230.438197 
L 325.332747 230.716408 
L 325.6362 230.716408 
L 325.6362 230.996644 
L 326.54656 230.996644 
L 326.54656 231.177806 
L 327.760373 231.249087 
L 327.760373 231.316418 
L 328.36728 231.386005 
L 328.36728 231.439176 
L 328.974187 231.439176 
L 328.974187 231.569352 
L 329.884546 231.569352 
L 329.884546 231.790854 
L 330.794906 231.790854 
L 330.794906 232.119158 
L 331.098359 232.119158 
L 331.098359 232.453403 
L 332.312173 232.453403 
L 332.312173 232.641937 
L 333.222532 232.641937 
L 333.222532 232.869601 
L 335.043252 232.932984 
L 335.043252 232.98116 
L 335.650159 233.010124 
L 335.650159 233.112412 
L 336.560518 233.112412 
L 336.560518 233.598601 
L 337.167425 233.708303 
L 337.167425 233.896564 
L 338.077785 233.896564 
L 338.077785 234.089095 
L 338.684691 234.089095 
L 338.684691 234.439832 
L 338.988145 234.439832 
L 338.988145 235.115813 
L 339.291598 235.115813 
L 339.291598 235.552871 
L 339.595051 235.552871 
L 339.595051 236.217548 
L 340.505411 236.217548 
L 340.505411 236.719678 
L 340.808864 236.719678 
L 340.808864 236.969285 
L 341.719224 237.016886 
L 341.719224 237.32696 
L 342.022677 237.32696 
L 342.022677 238.268403 
L 342.629584 238.268403 
L 342.629584 238.396432 
L 343.539944 238.396432 
L 343.539944 238.911184 
L 343.843397 238.911184 
L 343.843397 239.269347 
L 344.450304 239.37891 
L 344.450304 239.382169 
L 345.664117 239.489294 
L 345.664117 239.523375 
L 346.87793 239.569824 
L 346.87793 239.641403 
L 347.78829 239.740768 
L 347.78829 239.816449 
L 350.519369 239.883937 
L 350.519369 239.945442 
L 351.126276 240.02445 
L 351.126276 240.069394 
L 355.678075 240.166308 
L 355.678075 240.190704 
L 358.712608 240.296197 
L 358.712608 240.317315 
L 360.533327 240.412193 
L 360.533327 240.430197 
L 362.960954 240.511981 
L 362.960954 240.547768 
L 365.38858 240.614639 
L 365.38858 240.673557 
L 365.995486 240.758705 
L 365.995486 240.793594 
L 366.905846 240.829795 
L 366.905846 240.960797 
L 367.816206 241.038648 
L 367.816206 241.089159 
L 368.726566 241.191289 
L 368.726566 241.263911 
L 370.547285 241.368359 
L 370.547285 241.509788 
L 370.850739 241.509788 
L 370.850739 241.748689 
L 371.154192 241.748689 
L 371.154192 241.882122 
L 371.457645 241.882122 
L 371.457645 242.116364 
L 372.368005 242.116364 
L 372.368005 242.116364 
" style="fill:none;stroke:#008000;stroke-dasharray:5.55,2.4;stroke-dashoffset:0;stroke-width:1.5;"/>
   </g>
   <g id="line2d_16">
    <path clip-path="url(#p199ff5d1f4)" d="M 69.218182 44.443636 
L 80.445953 44.443636 
L 80.445953 46.218562 
L 81.659766 46.218562 
L 81.659766 51.724008 
L 82.873579 51.724008 
L 82.873579 59.173663 
L 84.087392 59.173663 
L 84.087392 71.522044 
L 85.301205 71.522044 
L 85.301205 80.054881 
L 89.549551 80.054881 
L 89.549551 85.18573 
L 95.315164 85.18573 
L 95.315164 85.870714 
L 96.83243 85.870714 
L 96.83243 91.399078 
L 100.473869 91.399078 
L 100.473869 114.290655 
L 105.936028 114.290655 
L 105.936028 114.83612 
L 108.363654 114.83612 
L 108.363654 122.425285 
L 110.791281 122.425285 
L 110.791281 126.177225 
L 118.377613 126.177225 
L 118.377613 127.543037 
L 120.805239 127.543037 
L 120.805239 129.503596 
L 122.929412 129.503596 
L 122.929412 131.043608 
L 125.357038 131.043608 
L 125.357038 145.423059 
L 128.088117 145.423059 
L 128.088117 145.760275 
L 130.21229 145.760275 
L 130.21229 146.604942 
L 139.315889 146.604942 
L 139.315889 151.493744 
L 154.488553 151.493744 
L 154.488553 152.053091 
L 157.523085 152.053091 
L 157.523085 153.154324 
L 160.861071 153.154324 
L 160.861071 153.79695 
L 171.785389 153.79695 
L 171.785389 154.064704 
L 178.764815 154.113564 
L 178.764815 154.250669 
L 186.047693 154.286003 
L 186.047693 154.751519 
L 189.992586 154.751519 
L 189.992586 154.907415 
L 209.717049 154.993124 
L 209.717049 155.127212 
L 231.262231 155.215483 
L 231.262231 155.254323 
L 332.919079 155.361549 
L 332.919079 155.367073 
L 372.368005 155.36925 
L 372.368005 155.36925 
" style="fill:none;stroke:#ff0000;stroke-dasharray:5.55,2.4;stroke-dashoffset:0;stroke-width:1.5;"/>
   </g>
   <g id="line2d_17">
    <path clip-path="url(#p199ff5d1f4)" d="M 69.218182 44.443636 
L 81.356313 44.443636 
L 81.356313 75.523473 
L 91.066818 75.523473 
L 91.066818 91.609502 
L 96.83243 91.609502 
L 96.83243 124.958056 
L 139.315889 124.958056 
L 139.315889 129.240598 
L 143.867688 129.240598 
L 143.867688 139.117327 
L 154.185099 139.117327 
L 154.185099 139.979484 
L 159.343805 139.979484 
L 159.343805 149.773711 
L 169.96467 149.773711 
L 169.96467 151.72708 
L 175.123375 151.72708 
L 175.123375 153.716162 
L 176.337188 153.716162 
L 176.337188 155.771911 
L 178.764815 155.771911 
L 178.764815 155.988193 
L 183.316614 155.988193 
L 183.316614 158.454767 
L 292.863247 158.454767 
L 292.863247 158.646192 
L 301.359938 158.6645 
L 301.359938 158.789283 
L 320.477495 158.789283 
L 320.477495 159.062897 
L 344.14685 159.169758 
L 344.14685 159.216306 
L 364.174767 159.290405 
L 364.174767 159.341314 
L 373.581818 159.341314 
L 373.581818 159.341314 
" style="fill:none;stroke:#9400d3;stroke-dasharray:5.55,2.4;stroke-dashoffset:0;stroke-width:1.5;"/>
   </g>
   <g id="line2d_18">
    <path clip-path="url(#p199ff5d1f4)" d="M 69.218182 44.443636 
L 372.368005 44.443636 
L 372.368005 44.443636 
" style="fill:none;stroke:#8b4513;stroke-dasharray:5.55,2.4;stroke-dashoffset:0;stroke-width:1.5;"/>
   </g>
   <g id="patch_3">
    <path d="M 54 252 
L 54 34.56 
" style="fill:none;stroke:#000000;stroke-linecap:square;stroke-linejoin:miter;stroke-width:0.8;"/>
   </g>
   <g id="patch_4">
    <path d="M 388.8 252 
L 388.8 34.56 
" style="fill:none;stroke:#000000;stroke-linecap:square;stroke-linejoin:miter;stroke-width:0.8;"/>
   </g>
   <g id="patch_5">
    <path d="M 54 252 
L 388.8 252 
" style="fill:none;stroke:#000000;stroke-linecap:square;stroke-linejoin:miter;stroke-width:0.8;"/>
   </g>
   <g id="patch_6">
    <path d="M 54 34.56 
L 388.8 34.56 
" style="fill:none;stroke:#000000;stroke-linecap:square;stroke-linejoin:miter;stroke-width:0.8;"/>
   </g>
   <g id="legend_1">
    <g id="patch_7">
     <path d="M 279.748438 131.463125 
L 381.8 131.463125 
Q 383.8 131.463125 383.8 129.463125 
L 383.8 41.56 
Q 383.8 39.56 381.8 39.56 
L 279.748438 39.56 
Q 277.748438 39.56 277.748438 41.56 
L 277.748438 129.463125 
Q 277.748438 131.463125 279.748438 131.463125 
z
" style="fill:#ffffff;opacity:0.8;stroke:#cccccc;stroke-linejoin:miter;"/>
    </g>
    <g id="line2d_19">
     <path d="M 281.748438 47.658437 
L 301.748438 47.658437 
" style="fill:none;stroke:#1e90ff;stroke-dasharray:5.55,2.4;stroke-dashoffset:0;stroke-width:1.5;"/>
    </g>
    <g id="line2d_20"/>
    <g id="text_15">
     <!-- ADMM_Scaled -->
     <g transform="translate(309.748438 51.158437)scale(0.1 -0.1)">
      <defs>
       <path d="M 34.1875 63.1875 
L 20.796875 26.90625 
L 47.609375 26.90625 
z
M 28.609375 72.90625 
L 39.796875 72.90625 
L 67.578125 0 
L 57.328125 0 
L 50.6875 18.703125 
L 17.828125 18.703125 
L 11.1875 0 
L 0.78125 0 
z
" id="DejaVuSans-65"/>
       <path d="M 19.671875 64.796875 
L 19.671875 8.109375 
L 31.59375 8.109375 
Q 46.6875 8.109375 53.6875 14.9375 
Q 60.6875 21.78125 60.6875 36.53125 
Q 60.6875 51.171875 53.6875 57.984375 
Q 46.6875 64.796875 31.59375 64.796875 
z
M 9.8125 72.90625 
L 30.078125 72.90625 
Q 51.265625 72.90625 61.171875 64.09375 
Q 71.09375 55.28125 71.09375 36.53125 
Q 71.09375 17.671875 61.125 8.828125 
Q 51.171875 0 30.078125 0 
L 9.8125 0 
z
" id="DejaVuSans-68"/>
       <path d="M 9.8125 72.90625 
L 24.515625 72.90625 
L 43.109375 23.296875 
L 61.8125 72.90625 
L 76.515625 72.90625 
L 76.515625 0 
L 66.890625 0 
L 66.890625 64.015625 
L 48.09375 14.015625 
L 38.1875 14.015625 
L 19.390625 64.015625 
L 19.390625 0 
L 9.8125 0 
z
" id="DejaVuSans-77"/>
       <path d="M 50.984375 -16.609375 
L 50.984375 -23.578125 
L -0.984375 -23.578125 
L -0.984375 -16.609375 
z
" id="DejaVuSans-95"/>
       <path d="M 53.515625 70.515625 
L 53.515625 60.890625 
Q 47.90625 63.578125 42.921875 64.890625 
Q 37.9375 66.21875 33.296875 66.21875 
Q 25.25 66.21875 20.875 63.09375 
Q 16.5 59.96875 16.5 54.203125 
Q 16.5 49.359375 19.40625 46.890625 
Q 22.3125 44.4375 30.421875 42.921875 
L 36.375 41.703125 
Q 47.40625 39.59375 52.65625 34.296875 
Q 57.90625 29 57.90625 20.125 
Q 57.90625 9.515625 50.796875 4.046875 
Q 43.703125 -1.421875 29.984375 -1.421875 
Q 24.8125 -1.421875 18.96875 -0.25 
Q 13.140625 0.921875 6.890625 3.21875 
L 6.890625 13.375 
Q 12.890625 10.015625 18.65625 8.296875 
Q 24.421875 6.59375 29.984375 6.59375 
Q 38.421875 6.59375 43.015625 9.90625 
Q 47.609375 13.234375 47.609375 19.390625 
Q 47.609375 24.75 44.3125 27.78125 
Q 41.015625 30.8125 33.5 32.328125 
L 27.484375 33.5 
Q 16.453125 35.6875 11.515625 40.375 
Q 6.59375 45.0625 6.59375 53.421875 
Q 6.59375 63.09375 13.40625 68.65625 
Q 20.21875 74.21875 32.171875 74.21875 
Q 37.3125 74.21875 42.625 73.28125 
Q 47.953125 72.359375 53.515625 70.515625 
z
" id="DejaVuSans-83"/>
       <path d="M 45.40625 46.390625 
L 45.40625 75.984375 
L 54.390625 75.984375 
L 54.390625 0 
L 45.40625 0 
L 45.40625 8.203125 
Q 42.578125 3.328125 38.25 0.953125 
Q 33.9375 -1.421875 27.875 -1.421875 
Q 17.96875 -1.421875 11.734375 6.484375 
Q 5.515625 14.40625 5.515625 27.296875 
Q 5.515625 40.1875 11.734375 48.09375 
Q 17.96875 56 27.875 56 
Q 33.9375 56 38.25 53.625 
Q 42.578125 51.265625 45.40625 46.390625 
z
M 14.796875 27.296875 
Q 14.796875 17.390625 18.875 11.75 
Q 22.953125 6.109375 30.078125 6.109375 
Q 37.203125 6.109375 41.296875 11.75 
Q 45.40625 17.390625 45.40625 27.296875 
Q 45.40625 37.203125 41.296875 42.84375 
Q 37.203125 48.484375 30.078125 48.484375 
Q 22.953125 48.484375 18.875 42.84375 
Q 14.796875 37.203125 14.796875 27.296875 
z
" id="DejaVuSans-100"/>
      </defs>
      <use xlink:href="#DejaVuSans-65"/>
      <use x="68.408203" xlink:href="#DejaVuSans-68"/>
      <use x="145.410156" xlink:href="#DejaVuSans-77"/>
      <use x="231.689453" xlink:href="#DejaVuSans-77"/>
      <use x="317.96875" xlink:href="#DejaVuSans-95"/>
      <use x="367.96875" xlink:href="#DejaVuSans-83"/>
      <use x="431.445312" xlink:href="#DejaVuSans-99"/>
      <use x="486.425781" xlink:href="#DejaVuSans-97"/>
      <use x="547.705078" xlink:href="#DejaVuSans-108"/>
      <use x="575.488281" xlink:href="#DejaVuSans-101"/>
      <use x="637.011719" xlink:href="#DejaVuSans-100"/>
     </g>
    </g>
    <g id="line2d_21">
     <path d="M 281.748438 62.614688 
L 301.748438 62.614688 
" style="fill:none;stroke:#ff8c00;stroke-dasharray:5.55,2.4;stroke-dashoffset:0;stroke-width:1.5;"/>
    </g>
    <g id="line2d_22"/>
    <g id="text_16">
     <!-- CUATRO_1 -->
     <g transform="translate(309.748438 66.114688)scale(0.1 -0.1)">
      <defs>
       <path d="M 8.6875 72.90625 
L 18.609375 72.90625 
L 18.609375 28.609375 
Q 18.609375 16.890625 22.84375 11.734375 
Q 27.09375 6.59375 36.625 6.59375 
Q 46.09375 6.59375 50.34375 11.734375 
Q 54.59375 16.890625 54.59375 28.609375 
L 54.59375 72.90625 
L 64.5 72.90625 
L 64.5 27.390625 
Q 64.5 13.140625 57.4375 5.859375 
Q 50.390625 -1.421875 36.625 -1.421875 
Q 22.796875 -1.421875 15.734375 5.859375 
Q 8.6875 13.140625 8.6875 27.390625 
z
" id="DejaVuSans-85"/>
       <path d="M -0.296875 72.90625 
L 61.375 72.90625 
L 61.375 64.59375 
L 35.5 64.59375 
L 35.5 0 
L 25.59375 0 
L 25.59375 64.59375 
L -0.296875 64.59375 
z
" id="DejaVuSans-84"/>
       <path d="M 44.390625 34.1875 
Q 47.5625 33.109375 50.5625 29.59375 
Q 53.5625 26.078125 56.59375 19.921875 
L 66.609375 0 
L 56 0 
L 46.6875 18.703125 
Q 43.0625 26.03125 39.671875 28.421875 
Q 36.28125 30.8125 30.421875 30.8125 
L 19.671875 30.8125 
L 19.671875 0 
L 9.8125 0 
L 9.8125 72.90625 
L 32.078125 72.90625 
Q 44.578125 72.90625 50.734375 67.671875 
Q 56.890625 62.453125 56.890625 51.90625 
Q 56.890625 45.015625 53.6875 40.46875 
Q 50.484375 35.9375 44.390625 34.1875 
z
M 19.671875 64.796875 
L 19.671875 38.921875 
L 32.078125 38.921875 
Q 39.203125 38.921875 42.84375 42.21875 
Q 46.484375 45.515625 46.484375 51.90625 
Q 46.484375 58.296875 42.84375 61.546875 
Q 39.203125 64.796875 32.078125 64.796875 
z
" id="DejaVuSans-82"/>
       <path d="M 39.40625 66.21875 
Q 28.65625 66.21875 22.328125 58.203125 
Q 16.015625 50.203125 16.015625 36.375 
Q 16.015625 22.609375 22.328125 14.59375 
Q 28.65625 6.59375 39.40625 6.59375 
Q 50.140625 6.59375 56.421875 14.59375 
Q 62.703125 22.609375 62.703125 36.375 
Q 62.703125 50.203125 56.421875 58.203125 
Q 50.140625 66.21875 39.40625 66.21875 
z
M 39.40625 74.21875 
Q 54.734375 74.21875 63.90625 63.9375 
Q 73.09375 53.65625 73.09375 36.375 
Q 73.09375 19.140625 63.90625 8.859375 
Q 54.734375 -1.421875 39.40625 -1.421875 
Q 24.03125 -1.421875 14.8125 8.828125 
Q 5.609375 19.09375 5.609375 36.375 
Q 5.609375 53.65625 14.8125 63.9375 
Q 24.03125 74.21875 39.40625 74.21875 
z
" id="DejaVuSans-79"/>
      </defs>
      <use xlink:href="#DejaVuSans-67"/>
      <use x="69.824219" xlink:href="#DejaVuSans-85"/>
      <use x="143.017578" xlink:href="#DejaVuSans-65"/>
      <use x="203.675781" xlink:href="#DejaVuSans-84"/>
      <use x="264.759766" xlink:href="#DejaVuSans-82"/>
      <use x="334.242188" xlink:href="#DejaVuSans-79"/>
      <use x="412.953125" xlink:href="#DejaVuSans-95"/>
      <use x="462.953125" xlink:href="#DejaVuSans-49"/>
     </g>
    </g>
    <g id="line2d_23">
     <path d="M 281.748438 77.570937 
L 301.748438 77.570937 
" style="fill:none;stroke:#008000;stroke-dasharray:5.55,2.4;stroke-dashoffset:0;stroke-width:1.5;"/>
    </g>
    <g id="line2d_24"/>
    <g id="text_17">
     <!-- Py-BOBYQA -->
     <g transform="translate(309.748438 81.070937)scale(0.1 -0.1)">
      <defs>
       <path d="M 19.671875 64.796875 
L 19.671875 37.40625 
L 32.078125 37.40625 
Q 38.96875 37.40625 42.71875 40.96875 
Q 46.484375 44.53125 46.484375 51.125 
Q 46.484375 57.671875 42.71875 61.234375 
Q 38.96875 64.796875 32.078125 64.796875 
z
M 9.8125 72.90625 
L 32.078125 72.90625 
Q 44.34375 72.90625 50.609375 67.359375 
Q 56.890625 61.8125 56.890625 51.125 
Q 56.890625 40.328125 50.609375 34.8125 
Q 44.34375 29.296875 32.078125 29.296875 
L 19.671875 29.296875 
L 19.671875 0 
L 9.8125 0 
z
" id="DejaVuSans-80"/>
       <path d="M 32.171875 -5.078125 
Q 28.375 -14.84375 24.75 -17.8125 
Q 21.140625 -20.796875 15.09375 -20.796875 
L 7.90625 -20.796875 
L 7.90625 -13.28125 
L 13.1875 -13.28125 
Q 16.890625 -13.28125 18.9375 -11.515625 
Q 21 -9.765625 23.484375 -3.21875 
L 25.09375 0.875 
L 2.984375 54.6875 
L 12.5 54.6875 
L 29.59375 11.921875 
L 46.6875 54.6875 
L 56.203125 54.6875 
z
" id="DejaVuSans-121"/>
       <path d="M 4.890625 31.390625 
L 31.203125 31.390625 
L 31.203125 23.390625 
L 4.890625 23.390625 
z
" id="DejaVuSans-45"/>
       <path d="M 19.671875 34.8125 
L 19.671875 8.109375 
L 35.5 8.109375 
Q 43.453125 8.109375 47.28125 11.40625 
Q 51.125 14.703125 51.125 21.484375 
Q 51.125 28.328125 47.28125 31.5625 
Q 43.453125 34.8125 35.5 34.8125 
z
M 19.671875 64.796875 
L 19.671875 42.828125 
L 34.28125 42.828125 
Q 41.5 42.828125 45.03125 45.53125 
Q 48.578125 48.25 48.578125 53.8125 
Q 48.578125 59.328125 45.03125 62.0625 
Q 41.5 64.796875 34.28125 64.796875 
z
M 9.8125 72.90625 
L 35.015625 72.90625 
Q 46.296875 72.90625 52.390625 68.21875 
Q 58.5 63.53125 58.5 54.890625 
Q 58.5 48.1875 55.375 44.234375 
Q 52.25 40.28125 46.1875 39.3125 
Q 53.46875 37.75 57.5 32.78125 
Q 61.53125 27.828125 61.53125 20.40625 
Q 61.53125 10.640625 54.890625 5.3125 
Q 48.25 0 35.984375 0 
L 9.8125 0 
z
" id="DejaVuSans-66"/>
       <path d="M -0.203125 72.90625 
L 10.40625 72.90625 
L 30.609375 42.921875 
L 50.6875 72.90625 
L 61.28125 72.90625 
L 35.5 34.71875 
L 35.5 0 
L 25.59375 0 
L 25.59375 34.71875 
z
" id="DejaVuSans-89"/>
       <path d="M 39.40625 66.21875 
Q 28.65625 66.21875 22.328125 58.203125 
Q 16.015625 50.203125 16.015625 36.375 
Q 16.015625 22.609375 22.328125 14.59375 
Q 28.65625 6.59375 39.40625 6.59375 
Q 50.140625 6.59375 56.421875 14.59375 
Q 62.703125 22.609375 62.703125 36.375 
Q 62.703125 50.203125 56.421875 58.203125 
Q 50.140625 66.21875 39.40625 66.21875 
z
M 53.21875 1.3125 
L 66.21875 -12.890625 
L 54.296875 -12.890625 
L 43.5 -1.21875 
Q 41.890625 -1.3125 41.03125 -1.359375 
Q 40.1875 -1.421875 39.40625 -1.421875 
Q 24.03125 -1.421875 14.8125 8.859375 
Q 5.609375 19.140625 5.609375 36.375 
Q 5.609375 53.65625 14.8125 63.9375 
Q 24.03125 74.21875 39.40625 74.21875 
Q 54.734375 74.21875 63.90625 63.9375 
Q 73.09375 53.65625 73.09375 36.375 
Q 73.09375 23.6875 67.984375 14.640625 
Q 62.890625 5.609375 53.21875 1.3125 
z
" id="DejaVuSans-81"/>
      </defs>
      <use xlink:href="#DejaVuSans-80"/>
      <use x="60.302734" xlink:href="#DejaVuSans-121"/>
      <use x="117.732422" xlink:href="#DejaVuSans-45"/>
      <use x="150.191406" xlink:href="#DejaVuSans-66"/>
      <use x="217.044922" xlink:href="#DejaVuSans-79"/>
      <use x="295.755859" xlink:href="#DejaVuSans-66"/>
      <use x="358.859375" xlink:href="#DejaVuSans-89"/>
      <use x="419.943359" xlink:href="#DejaVuSans-81"/>
      <use x="498.654297" xlink:href="#DejaVuSans-65"/>
     </g>
    </g>
    <g id="line2d_25">
     <path d="M 281.748438 92.249062 
L 301.748438 92.249062 
" style="fill:none;stroke:#ff0000;stroke-dasharray:5.55,2.4;stroke-dashoffset:0;stroke-width:1.5;"/>
    </g>
    <g id="line2d_26"/>
    <g id="text_18">
     <!-- DIRECT-L -->
     <g transform="translate(309.748438 95.749062)scale(0.1 -0.1)">
      <defs>
       <path d="M 9.8125 72.90625 
L 19.671875 72.90625 
L 19.671875 0 
L 9.8125 0 
z
" id="DejaVuSans-73"/>
       <path d="M 9.8125 72.90625 
L 55.90625 72.90625 
L 55.90625 64.59375 
L 19.671875 64.59375 
L 19.671875 43.015625 
L 54.390625 43.015625 
L 54.390625 34.71875 
L 19.671875 34.71875 
L 19.671875 8.296875 
L 56.78125 8.296875 
L 56.78125 0 
L 9.8125 0 
z
" id="DejaVuSans-69"/>
       <path d="M 9.8125 72.90625 
L 19.671875 72.90625 
L 19.671875 8.296875 
L 55.171875 8.296875 
L 55.171875 0 
L 9.8125 0 
z
" id="DejaVuSans-76"/>
      </defs>
      <use xlink:href="#DejaVuSans-68"/>
      <use x="77.001953" xlink:href="#DejaVuSans-73"/>
      <use x="106.494141" xlink:href="#DejaVuSans-82"/>
      <use x="175.976562" xlink:href="#DejaVuSans-69"/>
      <use x="239.160156" xlink:href="#DejaVuSans-67"/>
      <use x="308.984375" xlink:href="#DejaVuSans-84"/>
      <use x="360.943359" xlink:href="#DejaVuSans-45"/>
      <use x="397.027344" xlink:href="#DejaVuSans-76"/>
     </g>
    </g>
    <g id="line2d_27">
     <path d="M 281.748438 106.927188 
L 301.748438 106.927188 
" style="fill:none;stroke:#9400d3;stroke-dasharray:5.55,2.4;stroke-dashoffset:0;stroke-width:1.5;"/>
    </g>
    <g id="line2d_28"/>
    <g id="text_19">
     <!-- CUATRO_2 -->
     <g transform="translate(309.748438 110.427188)scale(0.1 -0.1)">
      <use xlink:href="#DejaVuSans-67"/>
      <use x="69.824219" xlink:href="#DejaVuSans-85"/>
      <use x="143.017578" xlink:href="#DejaVuSans-65"/>
      <use x="203.675781" xlink:href="#DejaVuSans-84"/>
      <use x="264.759766" xlink:href="#DejaVuSans-82"/>
      <use x="334.242188" xlink:href="#DejaVuSans-79"/>
      <use x="412.953125" xlink:href="#DejaVuSans-95"/>
      <use x="462.953125" xlink:href="#DejaVuSans-50"/>
     </g>
    </g>
    <g id="line2d_29">
     <path d="M 281.748438 121.883438 
L 301.748438 121.883438 
" style="fill:none;stroke:#8b4513;stroke-dasharray:5.55,2.4;stroke-dashoffset:0;stroke-width:1.5;"/>
    </g>
    <g id="line2d_30"/>
    <g id="text_20">
     <!-- BO -->
     <g transform="translate(309.748438 125.383438)scale(0.1 -0.1)">
      <use xlink:href="#DejaVuSans-66"/>
      <use x="66.853516" xlink:href="#DejaVuSans-79"/>
     </g>
    </g>
   </g>
  </g>
 </g>
 <defs>
  <clipPath id="p199ff5d1f4">
   <rect height="217.44" width="334.8" x="54" y="34.56"/>
  </clipPath>
 </defs>
</svg>
