<?xml version="1.0" encoding="utf-8" standalone="no"?>
<!DOCTYPE svg PUBLIC "-//W3C//DTD SVG 1.1//EN"
  "http://www.w3.org/Graphics/SVG/1.1/DTD/svg11.dtd">
<!-- Created with matplotlib (https://matplotlib.org/) -->
<svg height="288pt" version="1.1" viewBox="0 0 432 288" width="432pt" xmlns="http://www.w3.org/2000/svg" xmlns:xlink="http://www.w3.org/1999/xlink">
 <metadata>
  <rdf:RDF xmlns:cc="http://creativecommons.org/ns#" xmlns:dc="http://purl.org/dc/elements/1.1/" xmlns:rdf="http://www.w3.org/1999/02/22-rdf-syntax-ns#">
   <cc:Work>
    <dc:type rdf:resource="http://purl.org/dc/dcmitype/StillImage"/>
    <dc:date>2022-02-21T12:11:02.586521</dc:date>
    <dc:format>image/svg+xml</dc:format>
    <dc:creator>
     <cc:Agent>
      <dc:title>Matplotlib v3.3.4, https://matplotlib.org/</dc:title>
     </cc:Agent>
    </dc:creator>
   </cc:Work>
  </rdf:RDF>
 </metadata>
 <defs>
  <style type="text/css">*{stroke-linecap:butt;stroke-linejoin:round;}</style>
 </defs>
 <g id="figure_1">
  <g id="patch_1">
   <path d="M 0 288 
L 432 288 
L 432 0 
L 0 0 
z
" style="fill:#ffffff;"/>
  </g>
  <g id="axes_1">
   <g id="patch_2">
    <path d="M 54 252 
L 388.8 252 
L 388.8 34.56 
L 54 34.56 
z
" style="fill:#ffffff;"/>
   </g>
   <g id="matplotlib.axis_1">
    <g id="xtick_1">
     <g id="line2d_1">
      <defs>
       <path d="M 0 0 
L 0 3.5 
" id="m00d049fd34" style="stroke:#000000;stroke-width:0.8;"/>
      </defs>
      <g>
       <use style="stroke:#000000;stroke-width:0.8;" x="68.920078" xlink:href="#m00d049fd34" y="252"/>
      </g>
     </g>
     <g id="text_1">
      <!-- 0 -->
      <g transform="translate(65.738828 266.598437)scale(0.1 -0.1)">
       <defs>
        <path d="M 31.78125 66.40625 
Q 24.171875 66.40625 20.328125 58.90625 
Q 16.5 51.421875 16.5 36.375 
Q 16.5 21.390625 20.328125 13.890625 
Q 24.171875 6.390625 31.78125 6.390625 
Q 39.453125 6.390625 43.28125 13.890625 
Q 47.125 21.390625 47.125 36.375 
Q 47.125 51.421875 43.28125 58.90625 
Q 39.453125 66.40625 31.78125 66.40625 
z
M 31.78125 74.21875 
Q 44.046875 74.21875 50.515625 64.515625 
Q 56.984375 54.828125 56.984375 36.375 
Q 56.984375 17.96875 50.515625 8.265625 
Q 44.046875 -1.421875 31.78125 -1.421875 
Q 19.53125 -1.421875 13.0625 8.265625 
Q 6.59375 17.96875 6.59375 36.375 
Q 6.59375 54.828125 13.0625 64.515625 
Q 19.53125 74.21875 31.78125 74.21875 
z
" id="DejaVuSans-48"/>
       </defs>
       <use xlink:href="#DejaVuSans-48"/>
      </g>
     </g>
    </g>
    <g id="xtick_2">
     <g id="line2d_2">
      <g>
       <use style="stroke:#000000;stroke-width:0.8;" x="128.540771" xlink:href="#m00d049fd34" y="252"/>
      </g>
     </g>
     <g id="text_2">
      <!-- 200 -->
      <g transform="translate(118.997021 266.598437)scale(0.1 -0.1)">
       <defs>
        <path d="M 19.1875 8.296875 
L 53.609375 8.296875 
L 53.609375 0 
L 7.328125 0 
L 7.328125 8.296875 
Q 12.9375 14.109375 22.625 23.890625 
Q 32.328125 33.6875 34.8125 36.53125 
Q 39.546875 41.84375 41.421875 45.53125 
Q 43.3125 49.21875 43.3125 52.78125 
Q 43.3125 58.59375 39.234375 62.25 
Q 35.15625 65.921875 28.609375 65.921875 
Q 23.96875 65.921875 18.8125 64.3125 
Q 13.671875 62.703125 7.8125 59.421875 
L 7.8125 69.390625 
Q 13.765625 71.78125 18.9375 73 
Q 24.125 74.21875 28.421875 74.21875 
Q 39.75 74.21875 46.484375 68.546875 
Q 53.21875 62.890625 53.21875 53.421875 
Q 53.21875 48.921875 51.53125 44.890625 
Q 49.859375 40.875 45.40625 35.40625 
Q 44.1875 33.984375 37.640625 27.21875 
Q 31.109375 20.453125 19.1875 8.296875 
z
" id="DejaVuSans-50"/>
       </defs>
       <use xlink:href="#DejaVuSans-50"/>
       <use x="63.623047" xlink:href="#DejaVuSans-48"/>
       <use x="127.246094" xlink:href="#DejaVuSans-48"/>
      </g>
     </g>
    </g>
    <g id="xtick_3">
     <g id="line2d_3">
      <g>
       <use style="stroke:#000000;stroke-width:0.8;" x="188.161464" xlink:href="#m00d049fd34" y="252"/>
      </g>
     </g>
     <g id="text_3">
      <!-- 400 -->
      <g transform="translate(178.617714 266.598437)scale(0.1 -0.1)">
       <defs>
        <path d="M 37.796875 64.3125 
L 12.890625 25.390625 
L 37.796875 25.390625 
z
M 35.203125 72.90625 
L 47.609375 72.90625 
L 47.609375 25.390625 
L 58.015625 25.390625 
L 58.015625 17.1875 
L 47.609375 17.1875 
L 47.609375 0 
L 37.796875 0 
L 37.796875 17.1875 
L 4.890625 17.1875 
L 4.890625 26.703125 
z
" id="DejaVuSans-52"/>
       </defs>
       <use xlink:href="#DejaVuSans-52"/>
       <use x="63.623047" xlink:href="#DejaVuSans-48"/>
       <use x="127.246094" xlink:href="#DejaVuSans-48"/>
      </g>
     </g>
    </g>
    <g id="xtick_4">
     <g id="line2d_4">
      <g>
       <use style="stroke:#000000;stroke-width:0.8;" x="247.782157" xlink:href="#m00d049fd34" y="252"/>
      </g>
     </g>
     <g id="text_4">
      <!-- 600 -->
      <g transform="translate(238.238407 266.598437)scale(0.1 -0.1)">
       <defs>
        <path d="M 33.015625 40.375 
Q 26.375 40.375 22.484375 35.828125 
Q 18.609375 31.296875 18.609375 23.390625 
Q 18.609375 15.53125 22.484375 10.953125 
Q 26.375 6.390625 33.015625 6.390625 
Q 39.65625 6.390625 43.53125 10.953125 
Q 47.40625 15.53125 47.40625 23.390625 
Q 47.40625 31.296875 43.53125 35.828125 
Q 39.65625 40.375 33.015625 40.375 
z
M 52.59375 71.296875 
L 52.59375 62.3125 
Q 48.875 64.0625 45.09375 64.984375 
Q 41.3125 65.921875 37.59375 65.921875 
Q 27.828125 65.921875 22.671875 59.328125 
Q 17.53125 52.734375 16.796875 39.40625 
Q 19.671875 43.65625 24.015625 45.921875 
Q 28.375 48.1875 33.59375 48.1875 
Q 44.578125 48.1875 50.953125 41.515625 
Q 57.328125 34.859375 57.328125 23.390625 
Q 57.328125 12.15625 50.6875 5.359375 
Q 44.046875 -1.421875 33.015625 -1.421875 
Q 20.359375 -1.421875 13.671875 8.265625 
Q 6.984375 17.96875 6.984375 36.375 
Q 6.984375 53.65625 15.1875 63.9375 
Q 23.390625 74.21875 37.203125 74.21875 
Q 40.921875 74.21875 44.703125 73.484375 
Q 48.484375 72.75 52.59375 71.296875 
z
" id="DejaVuSans-54"/>
       </defs>
       <use xlink:href="#DejaVuSans-54"/>
       <use x="63.623047" xlink:href="#DejaVuSans-48"/>
       <use x="127.246094" xlink:href="#DejaVuSans-48"/>
      </g>
     </g>
    </g>
    <g id="xtick_5">
     <g id="line2d_5">
      <g>
       <use style="stroke:#000000;stroke-width:0.8;" x="307.402849" xlink:href="#m00d049fd34" y="252"/>
      </g>
     </g>
     <g id="text_5">
      <!-- 800 -->
      <g transform="translate(297.859099 266.598437)scale(0.1 -0.1)">
       <defs>
        <path d="M 31.78125 34.625 
Q 24.75 34.625 20.71875 30.859375 
Q 16.703125 27.09375 16.703125 20.515625 
Q 16.703125 13.921875 20.71875 10.15625 
Q 24.75 6.390625 31.78125 6.390625 
Q 38.8125 6.390625 42.859375 10.171875 
Q 46.921875 13.96875 46.921875 20.515625 
Q 46.921875 27.09375 42.890625 30.859375 
Q 38.875 34.625 31.78125 34.625 
z
M 21.921875 38.8125 
Q 15.578125 40.375 12.03125 44.71875 
Q 8.5 49.078125 8.5 55.328125 
Q 8.5 64.0625 14.71875 69.140625 
Q 20.953125 74.21875 31.78125 74.21875 
Q 42.671875 74.21875 48.875 69.140625 
Q 55.078125 64.0625 55.078125 55.328125 
Q 55.078125 49.078125 51.53125 44.71875 
Q 48 40.375 41.703125 38.8125 
Q 48.828125 37.15625 52.796875 32.3125 
Q 56.78125 27.484375 56.78125 20.515625 
Q 56.78125 9.90625 50.3125 4.234375 
Q 43.84375 -1.421875 31.78125 -1.421875 
Q 19.734375 -1.421875 13.25 4.234375 
Q 6.78125 9.90625 6.78125 20.515625 
Q 6.78125 27.484375 10.78125 32.3125 
Q 14.796875 37.15625 21.921875 38.8125 
z
M 18.3125 54.390625 
Q 18.3125 48.734375 21.84375 45.5625 
Q 25.390625 42.390625 31.78125 42.390625 
Q 38.140625 42.390625 41.71875 45.5625 
Q 45.3125 48.734375 45.3125 54.390625 
Q 45.3125 60.0625 41.71875 63.234375 
Q 38.140625 66.40625 31.78125 66.40625 
Q 25.390625 66.40625 21.84375 63.234375 
Q 18.3125 60.0625 18.3125 54.390625 
z
" id="DejaVuSans-56"/>
       </defs>
       <use xlink:href="#DejaVuSans-56"/>
       <use x="63.623047" xlink:href="#DejaVuSans-48"/>
       <use x="127.246094" xlink:href="#DejaVuSans-48"/>
      </g>
     </g>
    </g>
    <g id="xtick_6">
     <g id="line2d_6">
      <g>
       <use style="stroke:#000000;stroke-width:0.8;" x="367.023542" xlink:href="#m00d049fd34" y="252"/>
      </g>
     </g>
     <g id="text_6">
      <!-- 1000 -->
      <g transform="translate(354.298542 266.598437)scale(0.1 -0.1)">
       <defs>
        <path d="M 12.40625 8.296875 
L 28.515625 8.296875 
L 28.515625 63.921875 
L 10.984375 60.40625 
L 10.984375 69.390625 
L 28.421875 72.90625 
L 38.28125 72.90625 
L 38.28125 8.296875 
L 54.390625 8.296875 
L 54.390625 0 
L 12.40625 0 
z
" id="DejaVuSans-49"/>
       </defs>
       <use xlink:href="#DejaVuSans-49"/>
       <use x="63.623047" xlink:href="#DejaVuSans-48"/>
       <use x="127.246094" xlink:href="#DejaVuSans-48"/>
       <use x="190.869141" xlink:href="#DejaVuSans-48"/>
      </g>
     </g>
    </g>
    <g id="text_7">
     <!-- Number of function evaluations -->
     <g transform="translate(142.399219 280.276563)scale(0.1 -0.1)">
      <defs>
       <path d="M 9.8125 72.90625 
L 23.09375 72.90625 
L 55.421875 11.921875 
L 55.421875 72.90625 
L 64.984375 72.90625 
L 64.984375 0 
L 51.703125 0 
L 19.390625 60.984375 
L 19.390625 0 
L 9.8125 0 
z
" id="DejaVuSans-78"/>
       <path d="M 8.5 21.578125 
L 8.5 54.6875 
L 17.484375 54.6875 
L 17.484375 21.921875 
Q 17.484375 14.15625 20.5 10.265625 
Q 23.53125 6.390625 29.59375 6.390625 
Q 36.859375 6.390625 41.078125 11.03125 
Q 45.3125 15.671875 45.3125 23.6875 
L 45.3125 54.6875 
L 54.296875 54.6875 
L 54.296875 0 
L 45.3125 0 
L 45.3125 8.40625 
Q 42.046875 3.421875 37.71875 1 
Q 33.40625 -1.421875 27.6875 -1.421875 
Q 18.265625 -1.421875 13.375 4.4375 
Q 8.5 10.296875 8.5 21.578125 
z
M 31.109375 56 
z
" id="DejaVuSans-117"/>
       <path d="M 52 44.1875 
Q 55.375 50.25 60.0625 53.125 
Q 64.75 56 71.09375 56 
Q 79.640625 56 84.28125 50.015625 
Q 88.921875 44.046875 88.921875 33.015625 
L 88.921875 0 
L 79.890625 0 
L 79.890625 32.71875 
Q 79.890625 40.578125 77.09375 44.375 
Q 74.3125 48.1875 68.609375 48.1875 
Q 61.625 48.1875 57.5625 43.546875 
Q 53.515625 38.921875 53.515625 30.90625 
L 53.515625 0 
L 44.484375 0 
L 44.484375 32.71875 
Q 44.484375 40.625 41.703125 44.40625 
Q 38.921875 48.1875 33.109375 48.1875 
Q 26.21875 48.1875 22.15625 43.53125 
Q 18.109375 38.875 18.109375 30.90625 
L 18.109375 0 
L 9.078125 0 
L 9.078125 54.6875 
L 18.109375 54.6875 
L 18.109375 46.1875 
Q 21.1875 51.21875 25.484375 53.609375 
Q 29.78125 56 35.6875 56 
Q 41.65625 56 45.828125 52.96875 
Q 50 49.953125 52 44.1875 
z
" id="DejaVuSans-109"/>
       <path d="M 48.6875 27.296875 
Q 48.6875 37.203125 44.609375 42.84375 
Q 40.53125 48.484375 33.40625 48.484375 
Q 26.265625 48.484375 22.1875 42.84375 
Q 18.109375 37.203125 18.109375 27.296875 
Q 18.109375 17.390625 22.1875 11.75 
Q 26.265625 6.109375 33.40625 6.109375 
Q 40.53125 6.109375 44.609375 11.75 
Q 48.6875 17.390625 48.6875 27.296875 
z
M 18.109375 46.390625 
Q 20.953125 51.265625 25.265625 53.625 
Q 29.59375 56 35.59375 56 
Q 45.5625 56 51.78125 48.09375 
Q 58.015625 40.1875 58.015625 27.296875 
Q 58.015625 14.40625 51.78125 6.484375 
Q 45.5625 -1.421875 35.59375 -1.421875 
Q 29.59375 -1.421875 25.265625 0.953125 
Q 20.953125 3.328125 18.109375 8.203125 
L 18.109375 0 
L 9.078125 0 
L 9.078125 75.984375 
L 18.109375 75.984375 
z
" id="DejaVuSans-98"/>
       <path d="M 56.203125 29.59375 
L 56.203125 25.203125 
L 14.890625 25.203125 
Q 15.484375 15.921875 20.484375 11.0625 
Q 25.484375 6.203125 34.421875 6.203125 
Q 39.59375 6.203125 44.453125 7.46875 
Q 49.3125 8.734375 54.109375 11.28125 
L 54.109375 2.78125 
Q 49.265625 0.734375 44.1875 -0.34375 
Q 39.109375 -1.421875 33.890625 -1.421875 
Q 20.796875 -1.421875 13.15625 6.1875 
Q 5.515625 13.8125 5.515625 26.8125 
Q 5.515625 40.234375 12.765625 48.109375 
Q 20.015625 56 32.328125 56 
Q 43.359375 56 49.78125 48.890625 
Q 56.203125 41.796875 56.203125 29.59375 
z
M 47.21875 32.234375 
Q 47.125 39.59375 43.09375 43.984375 
Q 39.0625 48.390625 32.421875 48.390625 
Q 24.90625 48.390625 20.390625 44.140625 
Q 15.875 39.890625 15.1875 32.171875 
z
" id="DejaVuSans-101"/>
       <path d="M 41.109375 46.296875 
Q 39.59375 47.171875 37.8125 47.578125 
Q 36.03125 48 33.890625 48 
Q 26.265625 48 22.1875 43.046875 
Q 18.109375 38.09375 18.109375 28.8125 
L 18.109375 0 
L 9.078125 0 
L 9.078125 54.6875 
L 18.109375 54.6875 
L 18.109375 46.1875 
Q 20.953125 51.171875 25.484375 53.578125 
Q 30.03125 56 36.53125 56 
Q 37.453125 56 38.578125 55.875 
Q 39.703125 55.765625 41.0625 55.515625 
z
" id="DejaVuSans-114"/>
       <path id="DejaVuSans-32"/>
       <path d="M 30.609375 48.390625 
Q 23.390625 48.390625 19.1875 42.75 
Q 14.984375 37.109375 14.984375 27.296875 
Q 14.984375 17.484375 19.15625 11.84375 
Q 23.34375 6.203125 30.609375 6.203125 
Q 37.796875 6.203125 41.984375 11.859375 
Q 46.1875 17.53125 46.1875 27.296875 
Q 46.1875 37.015625 41.984375 42.703125 
Q 37.796875 48.390625 30.609375 48.390625 
z
M 30.609375 56 
Q 42.328125 56 49.015625 48.375 
Q 55.71875 40.765625 55.71875 27.296875 
Q 55.71875 13.875 49.015625 6.21875 
Q 42.328125 -1.421875 30.609375 -1.421875 
Q 18.84375 -1.421875 12.171875 6.21875 
Q 5.515625 13.875 5.515625 27.296875 
Q 5.515625 40.765625 12.171875 48.375 
Q 18.84375 56 30.609375 56 
z
" id="DejaVuSans-111"/>
       <path d="M 37.109375 75.984375 
L 37.109375 68.5 
L 28.515625 68.5 
Q 23.6875 68.5 21.796875 66.546875 
Q 19.921875 64.59375 19.921875 59.515625 
L 19.921875 54.6875 
L 34.71875 54.6875 
L 34.71875 47.703125 
L 19.921875 47.703125 
L 19.921875 0 
L 10.890625 0 
L 10.890625 47.703125 
L 2.296875 47.703125 
L 2.296875 54.6875 
L 10.890625 54.6875 
L 10.890625 58.5 
Q 10.890625 67.625 15.140625 71.796875 
Q 19.390625 75.984375 28.609375 75.984375 
z
" id="DejaVuSans-102"/>
       <path d="M 54.890625 33.015625 
L 54.890625 0 
L 45.90625 0 
L 45.90625 32.71875 
Q 45.90625 40.484375 42.875 44.328125 
Q 39.84375 48.1875 33.796875 48.1875 
Q 26.515625 48.1875 22.3125 43.546875 
Q 18.109375 38.921875 18.109375 30.90625 
L 18.109375 0 
L 9.078125 0 
L 9.078125 54.6875 
L 18.109375 54.6875 
L 18.109375 46.1875 
Q 21.34375 51.125 25.703125 53.5625 
Q 30.078125 56 35.796875 56 
Q 45.21875 56 50.046875 50.171875 
Q 54.890625 44.34375 54.890625 33.015625 
z
" id="DejaVuSans-110"/>
       <path d="M 48.78125 52.59375 
L 48.78125 44.1875 
Q 44.96875 46.296875 41.140625 47.34375 
Q 37.3125 48.390625 33.40625 48.390625 
Q 24.65625 48.390625 19.8125 42.84375 
Q 14.984375 37.3125 14.984375 27.296875 
Q 14.984375 17.28125 19.8125 11.734375 
Q 24.65625 6.203125 33.40625 6.203125 
Q 37.3125 6.203125 41.140625 7.25 
Q 44.96875 8.296875 48.78125 10.40625 
L 48.78125 2.09375 
Q 45.015625 0.34375 40.984375 -0.53125 
Q 36.96875 -1.421875 32.421875 -1.421875 
Q 20.0625 -1.421875 12.78125 6.34375 
Q 5.515625 14.109375 5.515625 27.296875 
Q 5.515625 40.671875 12.859375 48.328125 
Q 20.21875 56 33.015625 56 
Q 37.15625 56 41.109375 55.140625 
Q 45.0625 54.296875 48.78125 52.59375 
z
" id="DejaVuSans-99"/>
       <path d="M 18.3125 70.21875 
L 18.3125 54.6875 
L 36.8125 54.6875 
L 36.8125 47.703125 
L 18.3125 47.703125 
L 18.3125 18.015625 
Q 18.3125 11.328125 20.140625 9.421875 
Q 21.96875 7.515625 27.59375 7.515625 
L 36.8125 7.515625 
L 36.8125 0 
L 27.59375 0 
Q 17.1875 0 13.234375 3.875 
Q 9.28125 7.765625 9.28125 18.015625 
L 9.28125 47.703125 
L 2.6875 47.703125 
L 2.6875 54.6875 
L 9.28125 54.6875 
L 9.28125 70.21875 
z
" id="DejaVuSans-116"/>
       <path d="M 9.421875 54.6875 
L 18.40625 54.6875 
L 18.40625 0 
L 9.421875 0 
z
M 9.421875 75.984375 
L 18.40625 75.984375 
L 18.40625 64.59375 
L 9.421875 64.59375 
z
" id="DejaVuSans-105"/>
       <path d="M 2.984375 54.6875 
L 12.5 54.6875 
L 29.59375 8.796875 
L 46.6875 54.6875 
L 56.203125 54.6875 
L 35.6875 0 
L 23.484375 0 
z
" id="DejaVuSans-118"/>
       <path d="M 34.28125 27.484375 
Q 23.390625 27.484375 19.1875 25 
Q 14.984375 22.515625 14.984375 16.5 
Q 14.984375 11.71875 18.140625 8.90625 
Q 21.296875 6.109375 26.703125 6.109375 
Q 34.1875 6.109375 38.703125 11.40625 
Q 43.21875 16.703125 43.21875 25.484375 
L 43.21875 27.484375 
z
M 52.203125 31.203125 
L 52.203125 0 
L 43.21875 0 
L 43.21875 8.296875 
Q 40.140625 3.328125 35.546875 0.953125 
Q 30.953125 -1.421875 24.3125 -1.421875 
Q 15.921875 -1.421875 10.953125 3.296875 
Q 6 8.015625 6 15.921875 
Q 6 25.140625 12.171875 29.828125 
Q 18.359375 34.515625 30.609375 34.515625 
L 43.21875 34.515625 
L 43.21875 35.40625 
Q 43.21875 41.609375 39.140625 45 
Q 35.0625 48.390625 27.6875 48.390625 
Q 23 48.390625 18.546875 47.265625 
Q 14.109375 46.140625 10.015625 43.890625 
L 10.015625 52.203125 
Q 14.9375 54.109375 19.578125 55.046875 
Q 24.21875 56 28.609375 56 
Q 40.484375 56 46.34375 49.84375 
Q 52.203125 43.703125 52.203125 31.203125 
z
" id="DejaVuSans-97"/>
       <path d="M 9.421875 75.984375 
L 18.40625 75.984375 
L 18.40625 0 
L 9.421875 0 
z
" id="DejaVuSans-108"/>
       <path d="M 44.28125 53.078125 
L 44.28125 44.578125 
Q 40.484375 46.53125 36.375 47.5 
Q 32.28125 48.484375 27.875 48.484375 
Q 21.1875 48.484375 17.84375 46.4375 
Q 14.5 44.390625 14.5 40.28125 
Q 14.5 37.15625 16.890625 35.375 
Q 19.28125 33.59375 26.515625 31.984375 
L 29.59375 31.296875 
Q 39.15625 29.25 43.1875 25.515625 
Q 47.21875 21.78125 47.21875 15.09375 
Q 47.21875 7.46875 41.1875 3.015625 
Q 35.15625 -1.421875 24.609375 -1.421875 
Q 20.21875 -1.421875 15.453125 -0.5625 
Q 10.6875 0.296875 5.421875 2 
L 5.421875 11.28125 
Q 10.40625 8.6875 15.234375 7.390625 
Q 20.0625 6.109375 24.8125 6.109375 
Q 31.15625 6.109375 34.5625 8.28125 
Q 37.984375 10.453125 37.984375 14.40625 
Q 37.984375 18.0625 35.515625 20.015625 
Q 33.0625 21.96875 24.703125 23.78125 
L 21.578125 24.515625 
Q 13.234375 26.265625 9.515625 29.90625 
Q 5.8125 33.546875 5.8125 39.890625 
Q 5.8125 47.609375 11.28125 51.796875 
Q 16.75 56 26.8125 56 
Q 31.78125 56 36.171875 55.265625 
Q 40.578125 54.546875 44.28125 53.078125 
z
" id="DejaVuSans-115"/>
      </defs>
      <use xlink:href="#DejaVuSans-78"/>
      <use x="74.804688" xlink:href="#DejaVuSans-117"/>
      <use x="138.183594" xlink:href="#DejaVuSans-109"/>
      <use x="235.595703" xlink:href="#DejaVuSans-98"/>
      <use x="299.072266" xlink:href="#DejaVuSans-101"/>
      <use x="360.595703" xlink:href="#DejaVuSans-114"/>
      <use x="401.708984" xlink:href="#DejaVuSans-32"/>
      <use x="433.496094" xlink:href="#DejaVuSans-111"/>
      <use x="494.677734" xlink:href="#DejaVuSans-102"/>
      <use x="529.882812" xlink:href="#DejaVuSans-32"/>
      <use x="561.669922" xlink:href="#DejaVuSans-102"/>
      <use x="596.875" xlink:href="#DejaVuSans-117"/>
      <use x="660.253906" xlink:href="#DejaVuSans-110"/>
      <use x="723.632812" xlink:href="#DejaVuSans-99"/>
      <use x="778.613281" xlink:href="#DejaVuSans-116"/>
      <use x="817.822266" xlink:href="#DejaVuSans-105"/>
      <use x="845.605469" xlink:href="#DejaVuSans-111"/>
      <use x="906.787109" xlink:href="#DejaVuSans-110"/>
      <use x="970.166016" xlink:href="#DejaVuSans-32"/>
      <use x="1001.953125" xlink:href="#DejaVuSans-101"/>
      <use x="1063.476562" xlink:href="#DejaVuSans-118"/>
      <use x="1122.65625" xlink:href="#DejaVuSans-97"/>
      <use x="1183.935547" xlink:href="#DejaVuSans-108"/>
      <use x="1211.71875" xlink:href="#DejaVuSans-117"/>
      <use x="1275.097656" xlink:href="#DejaVuSans-97"/>
      <use x="1336.376953" xlink:href="#DejaVuSans-116"/>
      <use x="1375.585938" xlink:href="#DejaVuSans-105"/>
      <use x="1403.369141" xlink:href="#DejaVuSans-111"/>
      <use x="1464.550781" xlink:href="#DejaVuSans-110"/>
      <use x="1527.929688" xlink:href="#DejaVuSans-115"/>
     </g>
    </g>
   </g>
   <g id="matplotlib.axis_2">
    <g id="ytick_1">
     <g id="line2d_7">
      <defs>
       <path d="M 0 0 
L -3.5 0 
" id="med58e8fb8e" style="stroke:#000000;stroke-width:0.8;"/>
      </defs>
      <g>
       <use style="stroke:#000000;stroke-width:0.8;" x="54" xlink:href="#med58e8fb8e" y="214.768273"/>
      </g>
     </g>
     <g id="text_8">
      <!-- $\mathdefault{10^{1}}$ -->
      <g transform="translate(29.4 218.567491)scale(0.1 -0.1)">
       <use transform="translate(0 0.684375)" xlink:href="#DejaVuSans-49"/>
       <use transform="translate(63.623047 0.684375)" xlink:href="#DejaVuSans-48"/>
       <use transform="translate(128.203125 38.965625)scale(0.7)" xlink:href="#DejaVuSans-49"/>
      </g>
     </g>
    </g>
    <g id="ytick_2">
     <g id="line2d_8">
      <g>
       <use style="stroke:#000000;stroke-width:0.8;" x="54" xlink:href="#med58e8fb8e" y="176.587923"/>
      </g>
     </g>
     <g id="text_9">
      <!-- $\mathdefault{10^{3}}$ -->
      <g transform="translate(29.4 180.387142)scale(0.1 -0.1)">
       <defs>
        <path d="M 40.578125 39.3125 
Q 47.65625 37.796875 51.625 33 
Q 55.609375 28.21875 55.609375 21.1875 
Q 55.609375 10.40625 48.1875 4.484375 
Q 40.765625 -1.421875 27.09375 -1.421875 
Q 22.515625 -1.421875 17.65625 -0.515625 
Q 12.796875 0.390625 7.625 2.203125 
L 7.625 11.71875 
Q 11.71875 9.328125 16.59375 8.109375 
Q 21.484375 6.890625 26.8125 6.890625 
Q 36.078125 6.890625 40.9375 10.546875 
Q 45.796875 14.203125 45.796875 21.1875 
Q 45.796875 27.640625 41.28125 31.265625 
Q 36.765625 34.90625 28.71875 34.90625 
L 20.21875 34.90625 
L 20.21875 43.015625 
L 29.109375 43.015625 
Q 36.375 43.015625 40.234375 45.921875 
Q 44.09375 48.828125 44.09375 54.296875 
Q 44.09375 59.90625 40.109375 62.90625 
Q 36.140625 65.921875 28.71875 65.921875 
Q 24.65625 65.921875 20.015625 65.03125 
Q 15.375 64.15625 9.8125 62.3125 
L 9.8125 71.09375 
Q 15.4375 72.65625 20.34375 73.4375 
Q 25.25 74.21875 29.59375 74.21875 
Q 40.828125 74.21875 47.359375 69.109375 
Q 53.90625 64.015625 53.90625 55.328125 
Q 53.90625 49.265625 50.4375 45.09375 
Q 46.96875 40.921875 40.578125 39.3125 
z
" id="DejaVuSans-51"/>
       </defs>
       <use transform="translate(0 0.765625)" xlink:href="#DejaVuSans-49"/>
       <use transform="translate(63.623047 0.765625)" xlink:href="#DejaVuSans-48"/>
       <use transform="translate(128.203125 39.046875)scale(0.7)" xlink:href="#DejaVuSans-51"/>
      </g>
     </g>
    </g>
    <g id="ytick_3">
     <g id="line2d_9">
      <g>
       <use style="stroke:#000000;stroke-width:0.8;" x="54" xlink:href="#med58e8fb8e" y="138.407574"/>
      </g>
     </g>
     <g id="text_10">
      <!-- $\mathdefault{10^{5}}$ -->
      <g transform="translate(29.4 142.206793)scale(0.1 -0.1)">
       <defs>
        <path d="M 10.796875 72.90625 
L 49.515625 72.90625 
L 49.515625 64.59375 
L 19.828125 64.59375 
L 19.828125 46.734375 
Q 21.96875 47.46875 24.109375 47.828125 
Q 26.265625 48.1875 28.421875 48.1875 
Q 40.625 48.1875 47.75 41.5 
Q 54.890625 34.8125 54.890625 23.390625 
Q 54.890625 11.625 47.5625 5.09375 
Q 40.234375 -1.421875 26.90625 -1.421875 
Q 22.3125 -1.421875 17.546875 -0.640625 
Q 12.796875 0.140625 7.71875 1.703125 
L 7.71875 11.625 
Q 12.109375 9.234375 16.796875 8.0625 
Q 21.484375 6.890625 26.703125 6.890625 
Q 35.15625 6.890625 40.078125 11.328125 
Q 45.015625 15.765625 45.015625 23.390625 
Q 45.015625 31 40.078125 35.4375 
Q 35.15625 39.890625 26.703125 39.890625 
Q 22.75 39.890625 18.8125 39.015625 
Q 14.890625 38.140625 10.796875 36.28125 
z
" id="DejaVuSans-53"/>
       </defs>
       <use transform="translate(0 0.684375)" xlink:href="#DejaVuSans-49"/>
       <use transform="translate(63.623047 0.684375)" xlink:href="#DejaVuSans-48"/>
       <use transform="translate(128.203125 38.965625)scale(0.7)" xlink:href="#DejaVuSans-53"/>
      </g>
     </g>
    </g>
    <g id="ytick_4">
     <g id="line2d_10">
      <g>
       <use style="stroke:#000000;stroke-width:0.8;" x="54" xlink:href="#med58e8fb8e" y="100.227225"/>
      </g>
     </g>
     <g id="text_11">
      <!-- $\mathdefault{10^{7}}$ -->
      <g transform="translate(29.4 104.026444)scale(0.1 -0.1)">
       <defs>
        <path d="M 8.203125 72.90625 
L 55.078125 72.90625 
L 55.078125 68.703125 
L 28.609375 0 
L 18.3125 0 
L 43.21875 64.59375 
L 8.203125 64.59375 
z
" id="DejaVuSans-55"/>
       </defs>
       <use transform="translate(0 0.684375)" xlink:href="#DejaVuSans-49"/>
       <use transform="translate(63.623047 0.684375)" xlink:href="#DejaVuSans-48"/>
       <use transform="translate(128.203125 38.965625)scale(0.7)" xlink:href="#DejaVuSans-55"/>
      </g>
     </g>
    </g>
    <g id="ytick_5">
     <g id="line2d_11">
      <g>
       <use style="stroke:#000000;stroke-width:0.8;" x="54" xlink:href="#med58e8fb8e" y="62.046875"/>
      </g>
     </g>
     <g id="text_12">
      <!-- $\mathdefault{10^{9}}$ -->
      <g transform="translate(29.4 65.846094)scale(0.1 -0.1)">
       <defs>
        <path d="M 10.984375 1.515625 
L 10.984375 10.5 
Q 14.703125 8.734375 18.5 7.8125 
Q 22.3125 6.890625 25.984375 6.890625 
Q 35.75 6.890625 40.890625 13.453125 
Q 46.046875 20.015625 46.78125 33.40625 
Q 43.953125 29.203125 39.59375 26.953125 
Q 35.25 24.703125 29.984375 24.703125 
Q 19.046875 24.703125 12.671875 31.3125 
Q 6.296875 37.9375 6.296875 49.421875 
Q 6.296875 60.640625 12.9375 67.421875 
Q 19.578125 74.21875 30.609375 74.21875 
Q 43.265625 74.21875 49.921875 64.515625 
Q 56.59375 54.828125 56.59375 36.375 
Q 56.59375 19.140625 48.40625 8.859375 
Q 40.234375 -1.421875 26.421875 -1.421875 
Q 22.703125 -1.421875 18.890625 -0.6875 
Q 15.09375 0.046875 10.984375 1.515625 
z
M 30.609375 32.421875 
Q 37.25 32.421875 41.125 36.953125 
Q 45.015625 41.5 45.015625 49.421875 
Q 45.015625 57.28125 41.125 61.84375 
Q 37.25 66.40625 30.609375 66.40625 
Q 23.96875 66.40625 20.09375 61.84375 
Q 16.21875 57.28125 16.21875 49.421875 
Q 16.21875 41.5 20.09375 36.953125 
Q 23.96875 32.421875 30.609375 32.421875 
z
" id="DejaVuSans-57"/>
       </defs>
       <use transform="translate(0 0.765625)" xlink:href="#DejaVuSans-49"/>
       <use transform="translate(63.623047 0.765625)" xlink:href="#DejaVuSans-48"/>
       <use transform="translate(128.203125 39.046875)scale(0.7)" xlink:href="#DejaVuSans-57"/>
      </g>
     </g>
    </g>
    <g id="text_13">
     <!-- Convergence -->
     <g transform="translate(23.320312 176.24875)rotate(-90)scale(0.1 -0.1)">
      <defs>
       <path d="M 64.40625 67.28125 
L 64.40625 56.890625 
Q 59.421875 61.53125 53.78125 63.8125 
Q 48.140625 66.109375 41.796875 66.109375 
Q 29.296875 66.109375 22.65625 58.46875 
Q 16.015625 50.828125 16.015625 36.375 
Q 16.015625 21.96875 22.65625 14.328125 
Q 29.296875 6.6875 41.796875 6.6875 
Q 48.140625 6.6875 53.78125 8.984375 
Q 59.421875 11.28125 64.40625 15.921875 
L 64.40625 5.609375 
Q 59.234375 2.09375 53.4375 0.328125 
Q 47.65625 -1.421875 41.21875 -1.421875 
Q 24.65625 -1.421875 15.125 8.703125 
Q 5.609375 18.84375 5.609375 36.375 
Q 5.609375 53.953125 15.125 64.078125 
Q 24.65625 74.21875 41.21875 74.21875 
Q 47.75 74.21875 53.53125 72.484375 
Q 59.328125 70.75 64.40625 67.28125 
z
" id="DejaVuSans-67"/>
       <path d="M 45.40625 27.984375 
Q 45.40625 37.75 41.375 43.109375 
Q 37.359375 48.484375 30.078125 48.484375 
Q 22.859375 48.484375 18.828125 43.109375 
Q 14.796875 37.75 14.796875 27.984375 
Q 14.796875 18.265625 18.828125 12.890625 
Q 22.859375 7.515625 30.078125 7.515625 
Q 37.359375 7.515625 41.375 12.890625 
Q 45.40625 18.265625 45.40625 27.984375 
z
M 54.390625 6.78125 
Q 54.390625 -7.171875 48.1875 -13.984375 
Q 42 -20.796875 29.203125 -20.796875 
Q 24.46875 -20.796875 20.265625 -20.09375 
Q 16.0625 -19.390625 12.109375 -17.921875 
L 12.109375 -9.1875 
Q 16.0625 -11.328125 19.921875 -12.34375 
Q 23.78125 -13.375 27.78125 -13.375 
Q 36.625 -13.375 41.015625 -8.765625 
Q 45.40625 -4.15625 45.40625 5.171875 
L 45.40625 9.625 
Q 42.625 4.78125 38.28125 2.390625 
Q 33.9375 0 27.875 0 
Q 17.828125 0 11.671875 7.65625 
Q 5.515625 15.328125 5.515625 27.984375 
Q 5.515625 40.671875 11.671875 48.328125 
Q 17.828125 56 27.875 56 
Q 33.9375 56 38.28125 53.609375 
Q 42.625 51.21875 45.40625 46.390625 
L 45.40625 54.6875 
L 54.390625 54.6875 
z
" id="DejaVuSans-103"/>
      </defs>
      <use xlink:href="#DejaVuSans-67"/>
      <use x="69.824219" xlink:href="#DejaVuSans-111"/>
      <use x="131.005859" xlink:href="#DejaVuSans-110"/>
      <use x="194.384766" xlink:href="#DejaVuSans-118"/>
      <use x="253.564453" xlink:href="#DejaVuSans-101"/>
      <use x="315.087891" xlink:href="#DejaVuSans-114"/>
      <use x="354.451172" xlink:href="#DejaVuSans-103"/>
      <use x="417.927734" xlink:href="#DejaVuSans-101"/>
      <use x="479.451172" xlink:href="#DejaVuSans-110"/>
      <use x="542.830078" xlink:href="#DejaVuSans-99"/>
      <use x="597.810547" xlink:href="#DejaVuSans-101"/>
     </g>
    </g>
   </g>
   <g id="line2d_12">
    <path clip-path="url(#p1f911fc7d2)" d="M 69.218182 44.443636 
L 69.516285 44.443636 
L 69.516285 67.229996 
L 69.814389 67.229996 
L 69.814389 89.778522 
L 70.112492 89.778522 
L 70.112492 111.754076 
L 70.410596 111.754076 
L 70.410596 132.299332 
L 70.708699 132.299332 
L 70.708699 149.55405 
L 71.006803 149.55405 
L 71.006803 161.227324 
L 71.304906 161.227324 
L 71.304906 167.228506 
L 71.60301 167.228506 
L 71.60301 169.799387 
L 71.901113 169.799387 
L 71.901113 170.869256 
L 72.199216 170.869256 
L 72.199216 171.344162 
L 72.49732 171.344162 
L 72.49732 171.569727 
L 72.795423 171.569727 
L 72.795423 171.689562 
L 73.689734 171.793666 
L 73.689734 171.820747 
L 83.825252 171.713455 
L 83.825252 171.708773 
L 90.979735 171.599304 
L 90.979735 171.594545 
L 98.134218 171.484951 
L 98.134218 171.480205 
L 109.462149 171.589838 
L 109.462149 171.599681 
L 113.039391 171.709018 
L 113.039391 171.719016 
L 116.616633 171.82935 
L 116.616633 171.83946 
L 119.895771 171.940659 
L 119.895771 171.950802 
L 123.174909 172.052706 
L 123.174909 172.062942 
L 126.454047 172.16553 
L 126.454047 172.175804 
L 129.733185 172.278985 
L 129.733185 172.289357 
L 144.936462 172.180546 
L 144.936462 172.175531 
L 151.792841 172.065941 
L 151.792841 172.060968 
L 158.649221 171.951905 
L 158.649221 171.947059 
L 165.505601 171.838892 
L 165.505601 171.834016 
L 172.36198 171.726137 
L 172.36198 171.721328 
L 179.21836 171.614695 
L 179.21836 171.60978 
L 186.07474 171.503291 
L 186.07474 171.498506 
L 193.229223 171.388337 
L 193.229223 171.383588 
L 200.383706 171.273744 
L 200.383706 171.269027 
L 207.538189 171.159611 
L 207.538189 171.15494 
L 214.692672 171.046815 
L 214.692672 171.041806 
L 221.847155 170.934206 
L 221.847155 170.929525 
L 229.001638 170.82241 
L 229.001638 170.817771 
L 236.156121 170.711226 
L 236.156121 170.706354 
L 243.608708 170.595608 
L 243.608708 170.591095 
L 251.061295 170.480866 
L 251.061295 170.476204 
L 258.513881 170.367268 
L 258.513881 170.364196 
L 265.966468 170.253564 
L 265.966468 170.250375 
L 273.419054 170.142668 
L 273.419054 170.138333 
L 280.871641 170.03057 
L 280.871641 170.026058 
L 288.324228 169.919285 
L 288.324228 169.913287 
L 296.074918 169.802516 
L 296.074918 169.799369 
L 303.825608 169.689434 
L 303.825608 169.684996 
L 311.576298 169.575689 
L 311.576298 169.571347 
L 319.326988 169.462454 
L 319.326988 169.458187 
L 327.077678 169.350083 
L 327.077678 169.345763 
L 334.828368 169.238228 
L 334.828368 169.233877 
L 342.579058 169.126956 
L 342.579058 169.122593 
L 350.627851 169.012141 
L 350.627851 169.007956 
L 358.676645 168.898034 
L 358.676645 168.893821 
L 366.725439 168.784704 
L 366.725439 168.780531 
L 367.023542 168.780531 
L 367.023542 168.776349 
" style="fill:none;stroke:#1e90ff;stroke-dasharray:5.55,2.4;stroke-dashoffset:0;stroke-width:1.5;"/>
   </g>
   <g id="line2d_13">
    <path clip-path="url(#p1f911fc7d2)" d="M 69.218182 44.443636 
L 81.440424 44.443636 
L 81.440424 53.002952 
L 90.085424 53.002952 
L 90.085424 73.98278 
L 90.681631 73.98278 
L 90.681631 98.786294 
L 91.277838 98.786294 
L 91.277838 98.786294 
L 91.874045 98.786294 
L 91.874045 98.786294 
L 92.470252 98.786294 
L 92.470252 98.786294 
L 94.85508 98.786294 
L 94.85508 98.786294 
L 102.307666 98.786294 
L 102.307666 98.786294 
L 108.269736 98.786294 
L 108.269736 98.786294 
L 114.828012 98.786294 
L 114.828012 98.786294 
L 121.088184 98.786294 
L 121.088184 98.786294 
L 126.75215 98.786294 
L 126.75215 98.786294 
L 132.416116 98.786294 
L 132.416116 98.786294 
L 138.974392 98.786294 
L 138.974392 98.786294 
L 145.234565 98.786294 
L 145.234565 98.786294 
L 152.687152 98.786294 
L 152.687152 99.370507 
L 158.649221 99.370507 
L 158.649221 99.370507 
L 164.313187 99.370507 
L 164.313187 99.370507 
L 169.977153 99.370507 
L 169.977153 99.370507 
L 175.044911 99.370507 
L 175.044911 99.370507 
L 181.006981 99.370507 
L 181.006981 99.370507 
L 186.670946 99.370507 
L 186.670946 99.370507 
L 191.738705 99.370507 
L 191.738705 99.370507 
L 198.595085 99.370507 
L 198.595085 99.370507 
L 203.066637 99.370507 
L 203.066637 99.370507 
L 209.028706 99.370507 
L 209.028706 99.370507 
L 213.798362 99.370507 
L 213.798362 99.370507 
L 219.164224 99.370507 
L 219.164224 99.370507 
L 224.231983 99.370507 
L 224.231983 99.370507 
L 229.001638 99.370507 
L 229.001638 100.39185 
L 234.069397 100.39185 
L 234.069397 110.53251 
L 239.137156 110.53251 
L 239.137156 110.53251 
L 243.906812 110.53251 
L 243.906812 127.027359 
L 249.570777 127.027359 
L 249.570777 127.027359 
L 254.638536 127.027359 
L 254.638536 127.027359 
L 259.706295 127.027359 
L 259.706295 127.027359 
L 266.264571 127.027359 
L 266.264571 127.027359 
L 271.928537 127.027359 
L 271.928537 127.027359 
L 277.294399 127.027359 
L 277.294399 140.043159 
L 282.660262 140.043159 
L 282.660262 140.043159 
L 288.324228 140.043159 
L 288.324228 140.043159 
L 295.478711 140.043159 
L 295.478711 140.043159 
L 299.652159 140.043159 
L 299.652159 140.043159 
L 305.912332 140.043159 
L 305.912332 140.043159 
L 311.278194 140.043159 
L 311.278194 140.043159 
L 317.240264 140.043159 
L 317.240264 140.043159 
L 323.500436 140.043159 
L 323.500436 140.043159 
L 330.356816 140.043159 
L 330.356816 140.043159 
L 337.511299 140.043159 
L 337.511299 140.043159 
L 343.771472 140.043159 
L 343.771472 140.043159 
L 349.435438 140.043159 
L 349.435438 140.043159 
L 353.90699 140.043159 
L 353.90699 140.043159 
L 359.570955 140.043159 
L 359.570955 140.043159 
L 364.638714 140.043159 
L 364.638714 140.043159 
L 367.023542 140.043159 
L 367.023542 140.043159 
" style="fill:none;stroke:#ff8c00;stroke-dasharray:5.55,2.4;stroke-dashoffset:0;stroke-width:1.5;"/>
   </g>
   <g id="line2d_14">
    <path clip-path="url(#p1f911fc7d2)" d="M 69.516285 44.443636 
L 69.814389 44.443636 
L 69.814389 51.845332 
L 84.719562 51.845332 
L 84.719562 68.670152 
L 85.017665 68.670152 
L 85.017665 71.028808 
L 85.315769 71.028808 
L 85.315769 100.124647 
L 85.613872 100.124647 
L 85.613872 100.620824 
L 85.911976 100.620824 
L 85.911976 101.98033 
L 86.508183 101.98033 
L 86.508183 108.43825 
L 87.402493 108.43825 
L 87.402493 114.71837 
L 87.700597 114.71837 
L 87.700597 122.079899 
L 87.9987 122.079899 
L 87.9987 131.883746 
L 88.296803 131.883746 
L 88.296803 132.050082 
L 89.787321 132.050082 
L 89.787321 137.884108 
L 90.681631 137.884108 
L 90.681631 141.947076 
L 90.979735 141.947076 
L 90.979735 143.147488 
L 91.277838 143.147488 
L 91.277838 145.185989 
L 93.960769 145.185989 
L 93.960769 146.006677 
L 94.556976 146.006677 
L 94.556976 149.787441 
L 94.85508 149.787441 
L 94.85508 156.482945 
L 96.941804 156.482945 
L 96.941804 159.33393 
L 97.538011 159.33393 
L 97.538011 159.556176 
L 98.134218 159.556176 
L 98.134218 160.705789 
L 102.903873 160.811151 
L 102.903873 161.269904 
L 103.201977 161.269904 
L 103.201977 161.562595 
L 104.096287 161.562595 
L 104.096287 161.759284 
L 104.394391 161.759284 
L 104.394391 162.53197 
L 104.692494 162.53197 
L 104.692494 163.054855 
L 105.586804 163.054855 
L 105.586804 163.59224 
L 106.481115 163.59224 
L 106.481115 163.908876 
L 107.971632 163.908876 
L 107.971632 164.215246 
L 108.865942 164.215246 
L 108.865942 164.337535 
L 110.654563 164.422987 
L 110.654563 164.491978 
L 111.25077 164.491978 
L 111.25077 164.703921 
L 112.145081 164.703921 
L 112.145081 164.885484 
L 112.741288 164.885484 
L 112.741288 165.123124 
L 113.635598 165.123124 
L 113.635598 165.731047 
L 115.126115 165.731047 
L 115.126115 166.05517 
L 116.020426 166.05517 
L 116.020426 166.277548 
L 116.914736 166.332586 
L 116.914736 166.464116 
L 117.212839 166.464116 
L 117.212839 166.694009 
L 117.510943 166.694009 
L 117.510943 167.161636 
L 118.405253 167.161636 
L 118.405253 167.324657 
L 119.299564 167.324657 
L 119.299564 167.641089 
L 120.193874 167.641089 
L 120.193874 168.018952 
L 120.491978 168.018952 
L 120.491978 168.674399 
L 121.386288 168.674399 
L 121.386288 169.356833 
L 121.684391 169.356833 
L 121.684391 169.500671 
L 121.982495 169.500671 
L 121.982495 169.664747 
L 122.280598 169.664747 
L 122.280598 169.822343 
L 122.876805 169.822343 
L 122.876805 170.154173 
L 123.174909 170.154173 
L 123.174909 172.256404 
L 124.069219 172.256404 
L 124.069219 173.424328 
L 124.367323 173.424328 
L 124.367323 173.682984 
L 125.261633 173.682984 
L 125.261633 174.211914 
L 126.155943 174.211914 
L 126.155943 174.752095 
L 127.050254 174.752095 
L 127.050254 175.274542 
L 127.348357 175.274542 
L 127.348357 175.512985 
L 132.71422 175.61989 
L 132.71422 175.736549 
L 133.012323 175.736549 
L 133.012323 175.872627 
L 133.310426 175.872627 
L 133.310426 176.191467 
L 134.204737 176.191467 
L 134.204737 176.39002 
L 135.695254 176.406157 
L 135.695254 176.70396 
L 136.589565 176.70396 
L 136.589565 177.047097 
L 137.185772 177.156139 
L 137.185772 177.224928 
L 138.080082 177.230818 
L 138.080082 177.493853 
L 139.272496 177.575683 
L 139.272496 177.693043 
L 139.570599 177.693043 
L 139.570599 177.90864 
L 139.868703 177.90864 
L 139.868703 178.45216 
L 140.166806 178.45216 
L 140.166806 179.287212 
L 140.46491 179.287212 
L 140.46491 181.204428 
L 141.35922 181.204428 
L 141.35922 182.303885 
L 142.25353 182.322043 
L 142.25353 182.564759 
L 143.445944 182.564759 
L 143.445944 183.555779 
L 143.744048 183.555779 
L 143.744048 183.73787 
L 147.917496 183.73787 
L 147.917496 184.15937 
L 148.2156 184.15937 
L 148.2156 184.298374 
L 152.090945 184.377526 
L 152.090945 184.520114 
L 154.177669 184.623763 
L 154.177669 184.759709 
L 156.264393 184.866817 
L 156.264393 185.127952 
L 156.8606 185.127952 
L 156.8606 185.377122 
L 158.351117 185.454375 
L 158.351117 185.490185 
L 162.226462 185.589274 
L 162.226462 185.617529 
L 162.524566 185.617529 
L 162.524566 185.763042 
L 165.505601 185.867911 
L 165.505601 185.983762 
L 166.399911 185.983762 
L 166.399911 186.106371 
L 169.380946 186.212917 
L 169.380946 186.287879 
L 171.46767 186.394329 
L 171.46767 186.498482 
L 172.36198 186.498482 
L 172.36198 186.610365 
L 174.150601 186.687298 
L 174.150601 186.727792 
L 176.237325 186.812505 
L 176.237325 186.992401 
L 176.535429 186.992401 
L 176.535429 187.285091 
L 177.429739 187.285091 
L 177.429739 187.52968 
L 178.32405 187.52968 
L 178.32405 187.723767 
L 178.622153 187.723767 
L 178.622153 187.924053 
L 181.305084 187.942725 
L 181.305084 188.050527 
L 182.497498 188.152431 
L 182.497498 188.184006 
L 183.988015 188.212458 
L 183.988015 188.307731 
L 186.96905 188.404989 
L 186.96905 188.485683 
L 189.353878 188.593081 
L 189.353878 188.605567 
L 190.248188 188.69757 
L 190.248188 189.009788 
L 191.142498 189.009788 
L 191.142498 189.4163 
L 197.998878 189.523909 
L 197.998878 189.576447 
L 199.191292 189.64109 
L 199.191292 189.737885 
L 199.489395 189.737885 
L 199.489395 189.865327 
L 200.085602 189.935803 
L 200.085602 190.00383 
L 201.57612 190.113278 
L 201.57612 190.30229 
L 201.874223 190.30229 
L 201.874223 190.58192 
L 203.36474 190.58192 
L 203.36474 191.169369 
L 203.662844 191.169369 
L 203.662844 191.790394 
L 204.557154 191.790394 
L 204.557154 192.195372 
L 205.451465 192.195372 
L 205.451465 192.490724 
L 205.749568 192.490724 
L 205.749568 192.627423 
L 207.538189 192.724538 
L 207.538189 192.745069 
L 208.134396 192.78592 
L 208.134396 192.901586 
L 208.432499 192.901586 
L 208.432499 193.102567 
L 208.730603 193.102567 
L 208.730603 194.091462 
L 210.817327 194.159132 
L 210.817327 195.170244 
L 211.115431 195.170244 
L 211.115431 195.987221 
L 217.0775 196.03564 
L 217.0775 196.125713 
L 218.269914 196.224511 
L 218.269914 196.300366 
L 218.568017 196.300366 
L 218.568017 196.443364 
L 218.866121 196.443364 
L 218.866121 196.584128 
L 220.952845 196.692043 
L 220.952845 196.7612 
L 221.847155 196.7612 
L 221.847155 196.982176 
L 222.145259 196.982176 
L 222.145259 197.209834 
L 222.443362 197.209834 
L 222.443362 197.612967 
L 224.82819 197.719897 
L 224.82819 197.876771 
L 225.126293 197.876771 
L 225.126293 198.007937 
L 225.424397 198.007937 
L 225.424397 198.131082 
L 226.914914 198.131082 
L 226.914914 198.328458 
L 227.809224 198.42081 
L 227.809224 198.471884 
L 229.001638 198.571774 
L 229.001638 198.67696 
L 230.790259 198.775643 
L 230.790259 198.820922 
L 231.684569 198.820922 
L 231.684569 198.95224 
L 233.47319 199.038678 
L 233.47319 199.241244 
L 234.367501 199.241244 
L 234.367501 199.37085 
L 234.665604 199.37085 
L 234.665604 199.568421 
L 234.963708 199.568421 
L 234.963708 199.924322 
L 236.752328 199.924322 
L 236.752328 200.16401 
L 237.646639 200.16401 
L 237.646639 200.643613 
L 238.540949 200.643613 
L 238.540949 201.782309 
L 240.031466 201.782309 
L 240.031466 202.171147 
L 240.32957 202.171147 
L 240.32957 202.474165 
L 240.925777 202.572064 
L 240.925777 202.654731 
L 242.118191 202.654731 
L 242.118191 203.451504 
L 244.801122 203.451504 
L 244.801122 203.591396 
L 246.589743 203.693578 
L 246.589743 203.819753 
L 246.887846 203.819753 
L 246.887846 204.029907 
L 248.676467 204.06998 
L 248.676467 204.160635 
L 249.272674 204.18618 
L 249.272674 204.457559 
L 250.763191 204.511751 
L 250.763191 204.913589 
L 251.061295 204.913589 
L 251.061295 205.033706 
L 251.359398 205.033706 
L 251.359398 205.302253 
L 253.446122 205.302253 
L 253.446122 205.439434 
L 255.83095 205.524854 
L 255.83095 205.618198 
L 257.023364 205.707792 
L 257.023364 205.872453 
L 258.215778 205.982339 
L 258.215778 206.013298 
L 259.408192 206.105248 
L 259.408192 206.339727 
L 259.706295 206.339727 
L 259.706295 206.900253 
L 260.600605 206.900253 
L 260.600605 207.635382 
L 262.091123 207.635382 
L 262.091123 208.347532 
L 262.985433 208.347532 
L 262.985433 208.917539 
L 263.879744 208.917539 
L 263.879744 209.225767 
L 266.562675 209.300823 
L 266.562675 209.359173 
L 267.755089 209.359173 
L 267.755089 209.534435 
L 268.053192 209.534435 
L 268.053192 209.763851 
L 268.947502 209.790499 
L 268.947502 210.151815 
L 269.543709 210.205466 
L 269.543709 210.736302 
L 269.841813 210.736302 
L 269.841813 211.313654 
L 270.139916 211.313654 
L 270.139916 212.508346 
L 270.43802 212.508346 
L 270.43802 214.494863 
L 272.524744 214.494863 
L 272.524744 215.040592 
L 273.419054 215.040592 
L 273.419054 215.594837 
L 273.717158 215.594837 
L 273.717158 216.06291 
L 275.803882 216.06291 
L 275.803882 216.542707 
L 277.294399 216.57684 
L 277.294399 216.655904 
L 281.765951 216.749586 
L 281.765951 216.771646 
L 285.045089 216.876713 
L 285.045089 216.963312 
L 285.9394 216.963312 
L 285.9394 217.090345 
L 288.324228 217.139706 
L 288.324228 217.203314 
L 290.410952 217.203314 
L 290.410952 217.317294 
L 292.199573 217.386077 
L 292.199573 217.501251 
L 295.180607 217.59822 
L 295.180607 217.635772 
L 296.671125 217.635772 
L 296.671125 217.941942 
L 296.969228 217.941942 
L 296.969228 218.07564 
L 299.354056 218.159616 
L 299.354056 218.301327 
L 299.652159 218.301327 
L 299.652159 218.446862 
L 299.950263 218.446862 
L 299.950263 218.815289 
L 300.248366 218.815289 
L 300.248366 218.984194 
L 300.54647 218.984194 
L 300.54647 219.270109 
L 300.844573 219.270109 
L 300.844573 219.595686 
L 302.33509 219.595686 
L 302.33509 221.200287 
L 302.633194 221.200287 
L 302.633194 222.007403 
L 303.825608 222.007403 
L 303.825608 223.439091 
L 305.912332 223.439091 
L 305.912332 224.8521 
L 306.210435 224.8521 
L 306.210435 225.294851 
L 306.508539 225.294851 
L 306.508539 226.357399 
L 306.806642 226.357399 
L 306.806642 227.768282 
L 311.576298 227.768282 
L 311.576298 227.940357 
L 312.768712 227.940357 
L 312.768712 228.360941 
L 313.066815 228.360941 
L 313.066815 228.718307 
L 313.961125 228.718307 
L 313.961125 229.190025 
L 314.259229 229.190025 
L 314.259229 229.620485 
L 314.557332 229.620485 
L 314.557332 230.042116 
L 314.855436 230.042116 
L 314.855436 230.271567 
L 315.749746 230.271567 
L 315.749746 230.695032 
L 317.538367 230.798256 
L 317.538367 230.974459 
L 321.711816 231.070882 
L 321.711816 231.147535 
L 322.308022 231.175556 
L 322.308022 231.261189 
L 323.202333 231.280117 
L 323.202333 231.622231 
L 324.096643 231.622231 
L 324.096643 232.090588 
L 324.394747 232.090588 
L 324.394747 232.382722 
L 325.289057 232.382722 
L 325.289057 232.830253 
L 325.587161 232.830253 
L 325.587161 233.327917 
L 327.077678 233.327917 
L 327.077678 233.592323 
L 328.866299 233.671456 
L 328.866299 233.886688 
L 331.54923 233.886688 
L 331.54923 234.156798 
L 331.847333 234.156798 
L 331.847333 234.280772 
L 333.039747 234.379624 
L 333.039747 234.402343 
L 333.934058 234.499285 
L 333.934058 234.530078 
L 334.530264 234.530078 
L 334.530264 234.764762 
L 335.424575 234.871299 
L 335.424575 234.881482 
L 336.318885 234.948323 
L 336.318885 235.048294 
L 336.616989 235.048294 
L 336.616989 235.237441 
L 337.809403 235.344875 
L 337.809403 235.379998 
L 338.703713 235.488053 
L 338.703713 235.68969 
L 339.001816 235.68969 
L 339.001816 236.157357 
L 339.29992 236.157357 
L 339.29992 237.000217 
L 341.386644 237.000217 
L 341.386644 237.51405 
L 341.684748 237.51405 
L 341.684748 237.704962 
L 342.579058 237.704962 
L 342.579058 237.948853 
L 343.175265 238.046766 
L 343.175265 238.424912 
L 345.858196 238.424912 
L 345.858196 239.063676 
L 346.1563 239.063676 
L 346.1563 239.447117 
L 346.454403 239.447117 
L 346.454403 239.847678 
L 348.839231 239.953648 
L 348.839231 240.080109 
L 352.416472 240.107455 
L 352.416472 240.304902 
L 353.310783 240.337959 
L 353.310783 240.614503 
L 354.205093 240.614503 
L 354.205093 241.083066 
L 355.099403 241.083066 
L 355.099403 241.230008 
L 355.397507 241.230008 
L 355.397507 241.437357 
L 357.782335 241.544055 
L 357.782335 241.664475 
L 358.974748 241.748275 
L 358.974748 241.792014 
L 361.955783 241.876575 
L 361.955783 241.923255 
L 364.638714 242.029616 
L 364.638714 242.035647 
L 367.023542 242.116364 
L 367.023542 242.116364 
" style="fill:none;stroke:#008000;stroke-dasharray:5.55,2.4;stroke-dashoffset:0;stroke-width:1.5;"/>
   </g>
   <g id="line2d_15">
    <path clip-path="url(#p1f911fc7d2)" d="M 69.218182 44.443636 
L 109.462149 44.443636 
L 109.462149 48.936434 
L 110.654563 48.936434 
L 110.654563 51.170038 
L 112.145081 51.170038 
L 112.145081 52.149062 
L 113.039391 52.149062 
L 113.039391 57.822022 
L 114.231805 57.822022 
L 114.231805 58.239066 
L 117.809046 58.241229 
L 117.809046 58.594394 
L 121.386288 58.655768 
L 121.386288 59.347311 
L 123.174909 59.347311 
L 123.174909 60.622355 
L 126.75215 60.622355 
L 126.75215 60.745272 
L 128.540771 60.745272 
L 128.540771 62.169856 
L 130.329392 62.169856 
L 130.329392 63.686629 
L 132.118013 63.686629 
L 132.118013 65.359381 
L 133.906633 65.359381 
L 133.906633 66.884264 
L 135.695254 66.884264 
L 135.695254 69.147948 
L 137.483875 69.147948 
L 137.483875 70.937449 
L 139.272496 70.937449 
L 139.272496 73.610757 
L 141.061117 73.610757 
L 141.061117 74.634492 
L 142.849737 74.634492 
L 142.849737 74.887342 
L 144.638358 74.887342 
L 144.638358 78.740329 
L 146.426979 78.740329 
L 146.426979 80.879432 
L 152.090945 80.99002 
L 152.090945 81.700261 
L 153.581462 81.700261 
L 153.581462 85.002696 
L 155.370083 85.002696 
L 155.370083 92.075303 
L 157.158704 92.075303 
L 157.158704 98.556774 
L 161.332152 98.556774 
L 161.332152 100.064537 
L 163.71698 100.064537 
L 163.71698 101.654969 
L 168.486635 101.654969 
L 168.486635 102.932057 
L 170.871463 102.932057 
L 170.871463 104.991606 
L 173.256291 104.991606 
L 173.256291 108.041621 
L 175.641118 108.041621 
L 175.641118 108.164876 
L 178.025946 108.164876 
L 178.025946 111.009645 
L 182.795601 111.020814 
L 182.795601 115.495469 
L 192.334912 115.495469 
L 192.334912 118.716115 
L 194.71974 118.716115 
L 194.71974 119.187603 
L 197.402671 119.187603 
L 197.402671 119.399965 
L 199.489395 119.399965 
L 199.489395 120.570404 
L 201.874223 120.570404 
L 201.874223 121.53813 
L 204.557154 121.53813 
L 204.557154 122.398719 
L 206.643879 122.398719 
L 206.643879 125.231545 
L 209.028706 125.231545 
L 209.028706 127.39373 
L 211.413534 127.39373 
L 211.413534 132.975477 
L 218.568017 132.975477 
L 218.568017 133.379677 
L 221.549052 133.379677 
L 221.549052 133.863544 
L 230.492156 133.897019 
L 230.492156 136.747442 
L 236.752328 136.780649 
L 236.752328 136.896603 
L 248.378363 136.902809 
L 248.378363 137.402141 
L 251.359398 137.402141 
L 251.359398 139.182989 
L 254.340433 139.182989 
L 254.340433 143.19702 
L 263.58164 143.249657 
L 263.58164 143.316278 
L 269.245606 143.316278 
L 269.245606 143.534054 
L 275.207675 143.584145 
L 275.207675 143.88116 
L 278.18871 143.88116 
L 278.18871 146.870896 
L 281.467848 146.870896 
L 281.467848 147.132703 
L 290.112848 147.159737 
L 290.112848 148.66612 
L 296.671125 148.66612 
L 296.671125 149.037105 
L 303.825608 149.043657 
L 303.825608 149.231286 
L 307.402849 149.231286 
L 307.402849 149.876463 
L 314.557332 149.876463 
L 314.557332 149.99317 
L 328.866299 150.002011 
L 328.866299 151.606507 
L 350.627851 151.692101 
L 350.627851 151.815266 
L 357.484231 151.832842 
L 357.484231 153.635234 
L 361.061473 153.635234 
L 361.061473 154.345045 
L 367.023542 154.358333 
L 367.023542 154.358333 
" style="fill:none;stroke:#ff0000;stroke-dasharray:5.55,2.4;stroke-dashoffset:0;stroke-width:1.5;"/>
   </g>
   <g id="line2d_16">
    <path clip-path="url(#p1f911fc7d2)" d="M 69.218182 44.443636 
L 81.14232 44.443636 
L 81.14232 75.678112 
L 186.96905 75.678112 
L 186.96905 95.351748 
L 214.096465 95.351748 
L 214.096465 133.823356 
L 327.971988 133.823356 
L 327.971988 134.069021 
L 373.581818 134.069021 
L 373.581818 134.069021 
" style="fill:none;stroke:#9400d3;stroke-dasharray:5.55,2.4;stroke-dashoffset:0;stroke-width:1.5;"/>
   </g>
   <g id="line2d_17">
    <path clip-path="url(#p1f911fc7d2)" d="M 69.218182 44.443636 
L 367.023542 44.443636 
L 367.023542 44.443636 
" style="fill:none;stroke:#8b4513;stroke-dasharray:5.55,2.4;stroke-dashoffset:0;stroke-width:1.5;"/>
   </g>
   <g id="patch_3">
    <path d="M 54 252 
L 54 34.56 
" style="fill:none;stroke:#000000;stroke-linecap:square;stroke-linejoin:miter;stroke-width:0.8;"/>
   </g>
   <g id="patch_4">
    <path d="M 388.8 252 
L 388.8 34.56 
" style="fill:none;stroke:#000000;stroke-linecap:square;stroke-linejoin:miter;stroke-width:0.8;"/>
   </g>
   <g id="patch_5">
    <path d="M 54 252 
L 388.8 252 
" style="fill:none;stroke:#000000;stroke-linecap:square;stroke-linejoin:miter;stroke-width:0.8;"/>
   </g>
   <g id="patch_6">
    <path d="M 54 34.56 
L 388.8 34.56 
" style="fill:none;stroke:#000000;stroke-linecap:square;stroke-linejoin:miter;stroke-width:0.8;"/>
   </g>
   <g id="legend_1">
    <g id="patch_7">
     <path d="M 279.748438 131.463125 
L 381.8 131.463125 
Q 383.8 131.463125 383.8 129.463125 
L 383.8 41.56 
Q 383.8 39.56 381.8 39.56 
L 279.748438 39.56 
Q 277.748438 39.56 277.748438 41.56 
L 277.748438 129.463125 
Q 277.748438 131.463125 279.748438 131.463125 
z
" style="fill:#ffffff;opacity:0.8;stroke:#cccccc;stroke-linejoin:miter;"/>
    </g>
    <g id="line2d_18">
     <path d="M 281.748438 47.658437 
L 301.748438 47.658437 
" style="fill:none;stroke:#1e90ff;stroke-dasharray:5.55,2.4;stroke-dashoffset:0;stroke-width:1.5;"/>
    </g>
    <g id="line2d_19"/>
    <g id="text_14">
     <!-- ADMM_Scaled -->
     <g transform="translate(309.748438 51.158437)scale(0.1 -0.1)">
      <defs>
       <path d="M 34.1875 63.1875 
L 20.796875 26.90625 
L 47.609375 26.90625 
z
M 28.609375 72.90625 
L 39.796875 72.90625 
L 67.578125 0 
L 57.328125 0 
L 50.6875 18.703125 
L 17.828125 18.703125 
L 11.1875 0 
L 0.78125 0 
z
" id="DejaVuSans-65"/>
       <path d="M 19.671875 64.796875 
L 19.671875 8.109375 
L 31.59375 8.109375 
Q 46.6875 8.109375 53.6875 14.9375 
Q 60.6875 21.78125 60.6875 36.53125 
Q 60.6875 51.171875 53.6875 57.984375 
Q 46.6875 64.796875 31.59375 64.796875 
z
M 9.8125 72.90625 
L 30.078125 72.90625 
Q 51.265625 72.90625 61.171875 64.09375 
Q 71.09375 55.28125 71.09375 36.53125 
Q 71.09375 17.671875 61.125 8.828125 
Q 51.171875 0 30.078125 0 
L 9.8125 0 
z
" id="DejaVuSans-68"/>
       <path d="M 9.8125 72.90625 
L 24.515625 72.90625 
L 43.109375 23.296875 
L 61.8125 72.90625 
L 76.515625 72.90625 
L 76.515625 0 
L 66.890625 0 
L 66.890625 64.015625 
L 48.09375 14.015625 
L 38.1875 14.015625 
L 19.390625 64.015625 
L 19.390625 0 
L 9.8125 0 
z
" id="DejaVuSans-77"/>
       <path d="M 50.984375 -16.609375 
L 50.984375 -23.578125 
L -0.984375 -23.578125 
L -0.984375 -16.609375 
z
" id="DejaVuSans-95"/>
       <path d="M 53.515625 70.515625 
L 53.515625 60.890625 
Q 47.90625 63.578125 42.921875 64.890625 
Q 37.9375 66.21875 33.296875 66.21875 
Q 25.25 66.21875 20.875 63.09375 
Q 16.5 59.96875 16.5 54.203125 
Q 16.5 49.359375 19.40625 46.890625 
Q 22.3125 44.4375 30.421875 42.921875 
L 36.375 41.703125 
Q 47.40625 39.59375 52.65625 34.296875 
Q 57.90625 29 57.90625 20.125 
Q 57.90625 9.515625 50.796875 4.046875 
Q 43.703125 -1.421875 29.984375 -1.421875 
Q 24.8125 -1.421875 18.96875 -0.25 
Q 13.140625 0.921875 6.890625 3.21875 
L 6.890625 13.375 
Q 12.890625 10.015625 18.65625 8.296875 
Q 24.421875 6.59375 29.984375 6.59375 
Q 38.421875 6.59375 43.015625 9.90625 
Q 47.609375 13.234375 47.609375 19.390625 
Q 47.609375 24.75 44.3125 27.78125 
Q 41.015625 30.8125 33.5 32.328125 
L 27.484375 33.5 
Q 16.453125 35.6875 11.515625 40.375 
Q 6.59375 45.0625 6.59375 53.421875 
Q 6.59375 63.09375 13.40625 68.65625 
Q 20.21875 74.21875 32.171875 74.21875 
Q 37.3125 74.21875 42.625 73.28125 
Q 47.953125 72.359375 53.515625 70.515625 
z
" id="DejaVuSans-83"/>
       <path d="M 45.40625 46.390625 
L 45.40625 75.984375 
L 54.390625 75.984375 
L 54.390625 0 
L 45.40625 0 
L 45.40625 8.203125 
Q 42.578125 3.328125 38.25 0.953125 
Q 33.9375 -1.421875 27.875 -1.421875 
Q 17.96875 -1.421875 11.734375 6.484375 
Q 5.515625 14.40625 5.515625 27.296875 
Q 5.515625 40.1875 11.734375 48.09375 
Q 17.96875 56 27.875 56 
Q 33.9375 56 38.25 53.625 
Q 42.578125 51.265625 45.40625 46.390625 
z
M 14.796875 27.296875 
Q 14.796875 17.390625 18.875 11.75 
Q 22.953125 6.109375 30.078125 6.109375 
Q 37.203125 6.109375 41.296875 11.75 
Q 45.40625 17.390625 45.40625 27.296875 
Q 45.40625 37.203125 41.296875 42.84375 
Q 37.203125 48.484375 30.078125 48.484375 
Q 22.953125 48.484375 18.875 42.84375 
Q 14.796875 37.203125 14.796875 27.296875 
z
" id="DejaVuSans-100"/>
      </defs>
      <use xlink:href="#DejaVuSans-65"/>
      <use x="68.408203" xlink:href="#DejaVuSans-68"/>
      <use x="145.410156" xlink:href="#DejaVuSans-77"/>
      <use x="231.689453" xlink:href="#DejaVuSans-77"/>
      <use x="317.96875" xlink:href="#DejaVuSans-95"/>
      <use x="367.96875" xlink:href="#DejaVuSans-83"/>
      <use x="431.445312" xlink:href="#DejaVuSans-99"/>
      <use x="486.425781" xlink:href="#DejaVuSans-97"/>
      <use x="547.705078" xlink:href="#DejaVuSans-108"/>
      <use x="575.488281" xlink:href="#DejaVuSans-101"/>
      <use x="637.011719" xlink:href="#DejaVuSans-100"/>
     </g>
    </g>
    <g id="line2d_20">
     <path d="M 281.748438 62.614688 
L 301.748438 62.614688 
" style="fill:none;stroke:#ff8c00;stroke-dasharray:5.55,2.4;stroke-dashoffset:0;stroke-width:1.5;"/>
    </g>
    <g id="line2d_21"/>
    <g id="text_15">
     <!-- CUATRO_1 -->
     <g transform="translate(309.748438 66.114688)scale(0.1 -0.1)">
      <defs>
       <path d="M 8.6875 72.90625 
L 18.609375 72.90625 
L 18.609375 28.609375 
Q 18.609375 16.890625 22.84375 11.734375 
Q 27.09375 6.59375 36.625 6.59375 
Q 46.09375 6.59375 50.34375 11.734375 
Q 54.59375 16.890625 54.59375 28.609375 
L 54.59375 72.90625 
L 64.5 72.90625 
L 64.5 27.390625 
Q 64.5 13.140625 57.4375 5.859375 
Q 50.390625 -1.421875 36.625 -1.421875 
Q 22.796875 -1.421875 15.734375 5.859375 
Q 8.6875 13.140625 8.6875 27.390625 
z
" id="DejaVuSans-85"/>
       <path d="M -0.296875 72.90625 
L 61.375 72.90625 
L 61.375 64.59375 
L 35.5 64.59375 
L 35.5 0 
L 25.59375 0 
L 25.59375 64.59375 
L -0.296875 64.59375 
z
" id="DejaVuSans-84"/>
       <path d="M 44.390625 34.1875 
Q 47.5625 33.109375 50.5625 29.59375 
Q 53.5625 26.078125 56.59375 19.921875 
L 66.609375 0 
L 56 0 
L 46.6875 18.703125 
Q 43.0625 26.03125 39.671875 28.421875 
Q 36.28125 30.8125 30.421875 30.8125 
L 19.671875 30.8125 
L 19.671875 0 
L 9.8125 0 
L 9.8125 72.90625 
L 32.078125 72.90625 
Q 44.578125 72.90625 50.734375 67.671875 
Q 56.890625 62.453125 56.890625 51.90625 
Q 56.890625 45.015625 53.6875 40.46875 
Q 50.484375 35.9375 44.390625 34.1875 
z
M 19.671875 64.796875 
L 19.671875 38.921875 
L 32.078125 38.921875 
Q 39.203125 38.921875 42.84375 42.21875 
Q 46.484375 45.515625 46.484375 51.90625 
Q 46.484375 58.296875 42.84375 61.546875 
Q 39.203125 64.796875 32.078125 64.796875 
z
" id="DejaVuSans-82"/>
       <path d="M 39.40625 66.21875 
Q 28.65625 66.21875 22.328125 58.203125 
Q 16.015625 50.203125 16.015625 36.375 
Q 16.015625 22.609375 22.328125 14.59375 
Q 28.65625 6.59375 39.40625 6.59375 
Q 50.140625 6.59375 56.421875 14.59375 
Q 62.703125 22.609375 62.703125 36.375 
Q 62.703125 50.203125 56.421875 58.203125 
Q 50.140625 66.21875 39.40625 66.21875 
z
M 39.40625 74.21875 
Q 54.734375 74.21875 63.90625 63.9375 
Q 73.09375 53.65625 73.09375 36.375 
Q 73.09375 19.140625 63.90625 8.859375 
Q 54.734375 -1.421875 39.40625 -1.421875 
Q 24.03125 -1.421875 14.8125 8.828125 
Q 5.609375 19.09375 5.609375 36.375 
Q 5.609375 53.65625 14.8125 63.9375 
Q 24.03125 74.21875 39.40625 74.21875 
z
" id="DejaVuSans-79"/>
      </defs>
      <use xlink:href="#DejaVuSans-67"/>
      <use x="69.824219" xlink:href="#DejaVuSans-85"/>
      <use x="143.017578" xlink:href="#DejaVuSans-65"/>
      <use x="203.675781" xlink:href="#DejaVuSans-84"/>
      <use x="264.759766" xlink:href="#DejaVuSans-82"/>
      <use x="334.242188" xlink:href="#DejaVuSans-79"/>
      <use x="412.953125" xlink:href="#DejaVuSans-95"/>
      <use x="462.953125" xlink:href="#DejaVuSans-49"/>
     </g>
    </g>
    <g id="line2d_22">
     <path d="M 281.748438 77.570937 
L 301.748438 77.570937 
" style="fill:none;stroke:#008000;stroke-dasharray:5.55,2.4;stroke-dashoffset:0;stroke-width:1.5;"/>
    </g>
    <g id="line2d_23"/>
    <g id="text_16">
     <!-- Py-BOBYQA -->
     <g transform="translate(309.748438 81.070937)scale(0.1 -0.1)">
      <defs>
       <path d="M 19.671875 64.796875 
L 19.671875 37.40625 
L 32.078125 37.40625 
Q 38.96875 37.40625 42.71875 40.96875 
Q 46.484375 44.53125 46.484375 51.125 
Q 46.484375 57.671875 42.71875 61.234375 
Q 38.96875 64.796875 32.078125 64.796875 
z
M 9.8125 72.90625 
L 32.078125 72.90625 
Q 44.34375 72.90625 50.609375 67.359375 
Q 56.890625 61.8125 56.890625 51.125 
Q 56.890625 40.328125 50.609375 34.8125 
Q 44.34375 29.296875 32.078125 29.296875 
L 19.671875 29.296875 
L 19.671875 0 
L 9.8125 0 
z
" id="DejaVuSans-80"/>
       <path d="M 32.171875 -5.078125 
Q 28.375 -14.84375 24.75 -17.8125 
Q 21.140625 -20.796875 15.09375 -20.796875 
L 7.90625 -20.796875 
L 7.90625 -13.28125 
L 13.1875 -13.28125 
Q 16.890625 -13.28125 18.9375 -11.515625 
Q 21 -9.765625 23.484375 -3.21875 
L 25.09375 0.875 
L 2.984375 54.6875 
L 12.5 54.6875 
L 29.59375 11.921875 
L 46.6875 54.6875 
L 56.203125 54.6875 
z
" id="DejaVuSans-121"/>
       <path d="M 4.890625 31.390625 
L 31.203125 31.390625 
L 31.203125 23.390625 
L 4.890625 23.390625 
z
" id="DejaVuSans-45"/>
       <path d="M 19.671875 34.8125 
L 19.671875 8.109375 
L 35.5 8.109375 
Q 43.453125 8.109375 47.28125 11.40625 
Q 51.125 14.703125 51.125 21.484375 
Q 51.125 28.328125 47.28125 31.5625 
Q 43.453125 34.8125 35.5 34.8125 
z
M 19.671875 64.796875 
L 19.671875 42.828125 
L 34.28125 42.828125 
Q 41.5 42.828125 45.03125 45.53125 
Q 48.578125 48.25 48.578125 53.8125 
Q 48.578125 59.328125 45.03125 62.0625 
Q 41.5 64.796875 34.28125 64.796875 
z
M 9.8125 72.90625 
L 35.015625 72.90625 
Q 46.296875 72.90625 52.390625 68.21875 
Q 58.5 63.53125 58.5 54.890625 
Q 58.5 48.1875 55.375 44.234375 
Q 52.25 40.28125 46.1875 39.3125 
Q 53.46875 37.75 57.5 32.78125 
Q 61.53125 27.828125 61.53125 20.40625 
Q 61.53125 10.640625 54.890625 5.3125 
Q 48.25 0 35.984375 0 
L 9.8125 0 
z
" id="DejaVuSans-66"/>
       <path d="M -0.203125 72.90625 
L 10.40625 72.90625 
L 30.609375 42.921875 
L 50.6875 72.90625 
L 61.28125 72.90625 
L 35.5 34.71875 
L 35.5 0 
L 25.59375 0 
L 25.59375 34.71875 
z
" id="DejaVuSans-89"/>
       <path d="M 39.40625 66.21875 
Q 28.65625 66.21875 22.328125 58.203125 
Q 16.015625 50.203125 16.015625 36.375 
Q 16.015625 22.609375 22.328125 14.59375 
Q 28.65625 6.59375 39.40625 6.59375 
Q 50.140625 6.59375 56.421875 14.59375 
Q 62.703125 22.609375 62.703125 36.375 
Q 62.703125 50.203125 56.421875 58.203125 
Q 50.140625 66.21875 39.40625 66.21875 
z
M 53.21875 1.3125 
L 66.21875 -12.890625 
L 54.296875 -12.890625 
L 43.5 -1.21875 
Q 41.890625 -1.3125 41.03125 -1.359375 
Q 40.1875 -1.421875 39.40625 -1.421875 
Q 24.03125 -1.421875 14.8125 8.859375 
Q 5.609375 19.140625 5.609375 36.375 
Q 5.609375 53.65625 14.8125 63.9375 
Q 24.03125 74.21875 39.40625 74.21875 
Q 54.734375 74.21875 63.90625 63.9375 
Q 73.09375 53.65625 73.09375 36.375 
Q 73.09375 23.6875 67.984375 14.640625 
Q 62.890625 5.609375 53.21875 1.3125 
z
" id="DejaVuSans-81"/>
      </defs>
      <use xlink:href="#DejaVuSans-80"/>
      <use x="60.302734" xlink:href="#DejaVuSans-121"/>
      <use x="117.732422" xlink:href="#DejaVuSans-45"/>
      <use x="150.191406" xlink:href="#DejaVuSans-66"/>
      <use x="217.044922" xlink:href="#DejaVuSans-79"/>
      <use x="295.755859" xlink:href="#DejaVuSans-66"/>
      <use x="358.859375" xlink:href="#DejaVuSans-89"/>
      <use x="419.943359" xlink:href="#DejaVuSans-81"/>
      <use x="498.654297" xlink:href="#DejaVuSans-65"/>
     </g>
    </g>
    <g id="line2d_24">
     <path d="M 281.748438 92.249062 
L 301.748438 92.249062 
" style="fill:none;stroke:#ff0000;stroke-dasharray:5.55,2.4;stroke-dashoffset:0;stroke-width:1.5;"/>
    </g>
    <g id="line2d_25"/>
    <g id="text_17">
     <!-- DIRECT-L -->
     <g transform="translate(309.748438 95.749062)scale(0.1 -0.1)">
      <defs>
       <path d="M 9.8125 72.90625 
L 19.671875 72.90625 
L 19.671875 0 
L 9.8125 0 
z
" id="DejaVuSans-73"/>
       <path d="M 9.8125 72.90625 
L 55.90625 72.90625 
L 55.90625 64.59375 
L 19.671875 64.59375 
L 19.671875 43.015625 
L 54.390625 43.015625 
L 54.390625 34.71875 
L 19.671875 34.71875 
L 19.671875 8.296875 
L 56.78125 8.296875 
L 56.78125 0 
L 9.8125 0 
z
" id="DejaVuSans-69"/>
       <path d="M 9.8125 72.90625 
L 19.671875 72.90625 
L 19.671875 8.296875 
L 55.171875 8.296875 
L 55.171875 0 
L 9.8125 0 
z
" id="DejaVuSans-76"/>
      </defs>
      <use xlink:href="#DejaVuSans-68"/>
      <use x="77.001953" xlink:href="#DejaVuSans-73"/>
      <use x="106.494141" xlink:href="#DejaVuSans-82"/>
      <use x="175.976562" xlink:href="#DejaVuSans-69"/>
      <use x="239.160156" xlink:href="#DejaVuSans-67"/>
      <use x="308.984375" xlink:href="#DejaVuSans-84"/>
      <use x="360.943359" xlink:href="#DejaVuSans-45"/>
      <use x="397.027344" xlink:href="#DejaVuSans-76"/>
     </g>
    </g>
    <g id="line2d_26">
     <path d="M 281.748438 106.927188 
L 301.748438 106.927188 
" style="fill:none;stroke:#9400d3;stroke-dasharray:5.55,2.4;stroke-dashoffset:0;stroke-width:1.5;"/>
    </g>
    <g id="line2d_27"/>
    <g id="text_18">
     <!-- CUATRO_2 -->
     <g transform="translate(309.748438 110.427188)scale(0.1 -0.1)">
      <use xlink:href="#DejaVuSans-67"/>
      <use x="69.824219" xlink:href="#DejaVuSans-85"/>
      <use x="143.017578" xlink:href="#DejaVuSans-65"/>
      <use x="203.675781" xlink:href="#DejaVuSans-84"/>
      <use x="264.759766" xlink:href="#DejaVuSans-82"/>
      <use x="334.242188" xlink:href="#DejaVuSans-79"/>
      <use x="412.953125" xlink:href="#DejaVuSans-95"/>
      <use x="462.953125" xlink:href="#DejaVuSans-50"/>
     </g>
    </g>
    <g id="line2d_28">
     <path d="M 281.748438 121.883438 
L 301.748438 121.883438 
" style="fill:none;stroke:#8b4513;stroke-dasharray:5.55,2.4;stroke-dashoffset:0;stroke-width:1.5;"/>
    </g>
    <g id="line2d_29"/>
    <g id="text_19">
     <!-- BO -->
     <g transform="translate(309.748438 125.383438)scale(0.1 -0.1)">
      <use xlink:href="#DejaVuSans-66"/>
      <use x="66.853516" xlink:href="#DejaVuSans-79"/>
     </g>
    </g>
   </g>
  </g>
 </g>
 <defs>
  <clipPath id="p1f911fc7d2">
   <rect height="217.44" width="334.8" x="54" y="34.56"/>
  </clipPath>
 </defs>
</svg>
