<?xml version="1.0" encoding="utf-8" standalone="no"?>
<!DOCTYPE svg PUBLIC "-//W3C//DTD SVG 1.1//EN"
  "http://www.w3.org/Graphics/SVG/1.1/DTD/svg11.dtd">
<!-- Created with matplotlib (https://matplotlib.org/) -->
<svg height="288pt" version="1.1" viewBox="0 0 432 288" width="432pt" xmlns="http://www.w3.org/2000/svg" xmlns:xlink="http://www.w3.org/1999/xlink">
 <metadata>
  <rdf:RDF xmlns:cc="http://creativecommons.org/ns#" xmlns:dc="http://purl.org/dc/elements/1.1/" xmlns:rdf="http://www.w3.org/1999/02/22-rdf-syntax-ns#">
   <cc:Work>
    <dc:type rdf:resource="http://purl.org/dc/dcmitype/StillImage"/>
    <dc:date>2022-02-17T15:21:23.807217</dc:date>
    <dc:format>image/svg+xml</dc:format>
    <dc:creator>
     <cc:Agent>
      <dc:title>Matplotlib v3.3.4, https://matplotlib.org/</dc:title>
     </cc:Agent>
    </dc:creator>
   </cc:Work>
  </rdf:RDF>
 </metadata>
 <defs>
  <style type="text/css">*{stroke-linecap:butt;stroke-linejoin:round;}</style>
 </defs>
 <g id="figure_1">
  <g id="patch_1">
   <path d="M 0 288 
L 432 288 
L 432 0 
L 0 0 
z
" style="fill:#ffffff;"/>
  </g>
  <g id="axes_1">
   <g id="patch_2">
    <path d="M 54 252 
L 388.8 252 
L 388.8 34.56 
L 54 34.56 
z
" style="fill:#ffffff;"/>
   </g>
   <g id="matplotlib.axis_1">
    <g id="xtick_1">
     <g id="line2d_1">
      <defs>
       <path d="M 0 0 
L 0 3.5 
" id="mc2a41afbba" style="stroke:#000000;stroke-width:0.8;"/>
      </defs>
      <g>
       <use style="stroke:#000000;stroke-width:0.8;" x="68.915031" xlink:href="#mc2a41afbba" y="252"/>
      </g>
     </g>
     <g id="text_1">
      <!-- 0 -->
      <g transform="translate(65.733781 266.598437)scale(0.1 -0.1)">
       <defs>
        <path d="M 31.78125 66.40625 
Q 24.171875 66.40625 20.328125 58.90625 
Q 16.5 51.421875 16.5 36.375 
Q 16.5 21.390625 20.328125 13.890625 
Q 24.171875 6.390625 31.78125 6.390625 
Q 39.453125 6.390625 43.28125 13.890625 
Q 47.125 21.390625 47.125 36.375 
Q 47.125 51.421875 43.28125 58.90625 
Q 39.453125 66.40625 31.78125 66.40625 
z
M 31.78125 74.21875 
Q 44.046875 74.21875 50.515625 64.515625 
Q 56.984375 54.828125 56.984375 36.375 
Q 56.984375 17.96875 50.515625 8.265625 
Q 44.046875 -1.421875 31.78125 -1.421875 
Q 19.53125 -1.421875 13.0625 8.265625 
Q 6.59375 17.96875 6.59375 36.375 
Q 6.59375 54.828125 13.0625 64.515625 
Q 19.53125 74.21875 31.78125 74.21875 
z
" id="DejaVuSans-48"/>
       </defs>
       <use xlink:href="#DejaVuSans-48"/>
      </g>
     </g>
    </g>
    <g id="xtick_2">
     <g id="line2d_2">
      <g>
       <use style="stroke:#000000;stroke-width:0.8;" x="129.545237" xlink:href="#mc2a41afbba" y="252"/>
      </g>
     </g>
     <g id="text_2">
      <!-- 200 -->
      <g transform="translate(120.001487 266.598437)scale(0.1 -0.1)">
       <defs>
        <path d="M 19.1875 8.296875 
L 53.609375 8.296875 
L 53.609375 0 
L 7.328125 0 
L 7.328125 8.296875 
Q 12.9375 14.109375 22.625 23.890625 
Q 32.328125 33.6875 34.8125 36.53125 
Q 39.546875 41.84375 41.421875 45.53125 
Q 43.3125 49.21875 43.3125 52.78125 
Q 43.3125 58.59375 39.234375 62.25 
Q 35.15625 65.921875 28.609375 65.921875 
Q 23.96875 65.921875 18.8125 64.3125 
Q 13.671875 62.703125 7.8125 59.421875 
L 7.8125 69.390625 
Q 13.765625 71.78125 18.9375 73 
Q 24.125 74.21875 28.421875 74.21875 
Q 39.75 74.21875 46.484375 68.546875 
Q 53.21875 62.890625 53.21875 53.421875 
Q 53.21875 48.921875 51.53125 44.890625 
Q 49.859375 40.875 45.40625 35.40625 
Q 44.1875 33.984375 37.640625 27.21875 
Q 31.109375 20.453125 19.1875 8.296875 
z
" id="DejaVuSans-50"/>
       </defs>
       <use xlink:href="#DejaVuSans-50"/>
       <use x="63.623047" xlink:href="#DejaVuSans-48"/>
       <use x="127.246094" xlink:href="#DejaVuSans-48"/>
      </g>
     </g>
    </g>
    <g id="xtick_3">
     <g id="line2d_3">
      <g>
       <use style="stroke:#000000;stroke-width:0.8;" x="190.175444" xlink:href="#mc2a41afbba" y="252"/>
      </g>
     </g>
     <g id="text_3">
      <!-- 400 -->
      <g transform="translate(180.631694 266.598437)scale(0.1 -0.1)">
       <defs>
        <path d="M 37.796875 64.3125 
L 12.890625 25.390625 
L 37.796875 25.390625 
z
M 35.203125 72.90625 
L 47.609375 72.90625 
L 47.609375 25.390625 
L 58.015625 25.390625 
L 58.015625 17.1875 
L 47.609375 17.1875 
L 47.609375 0 
L 37.796875 0 
L 37.796875 17.1875 
L 4.890625 17.1875 
L 4.890625 26.703125 
z
" id="DejaVuSans-52"/>
       </defs>
       <use xlink:href="#DejaVuSans-52"/>
       <use x="63.623047" xlink:href="#DejaVuSans-48"/>
       <use x="127.246094" xlink:href="#DejaVuSans-48"/>
      </g>
     </g>
    </g>
    <g id="xtick_4">
     <g id="line2d_4">
      <g>
       <use style="stroke:#000000;stroke-width:0.8;" x="250.80565" xlink:href="#mc2a41afbba" y="252"/>
      </g>
     </g>
     <g id="text_4">
      <!-- 600 -->
      <g transform="translate(241.2619 266.598437)scale(0.1 -0.1)">
       <defs>
        <path d="M 33.015625 40.375 
Q 26.375 40.375 22.484375 35.828125 
Q 18.609375 31.296875 18.609375 23.390625 
Q 18.609375 15.53125 22.484375 10.953125 
Q 26.375 6.390625 33.015625 6.390625 
Q 39.65625 6.390625 43.53125 10.953125 
Q 47.40625 15.53125 47.40625 23.390625 
Q 47.40625 31.296875 43.53125 35.828125 
Q 39.65625 40.375 33.015625 40.375 
z
M 52.59375 71.296875 
L 52.59375 62.3125 
Q 48.875 64.0625 45.09375 64.984375 
Q 41.3125 65.921875 37.59375 65.921875 
Q 27.828125 65.921875 22.671875 59.328125 
Q 17.53125 52.734375 16.796875 39.40625 
Q 19.671875 43.65625 24.015625 45.921875 
Q 28.375 48.1875 33.59375 48.1875 
Q 44.578125 48.1875 50.953125 41.515625 
Q 57.328125 34.859375 57.328125 23.390625 
Q 57.328125 12.15625 50.6875 5.359375 
Q 44.046875 -1.421875 33.015625 -1.421875 
Q 20.359375 -1.421875 13.671875 8.265625 
Q 6.984375 17.96875 6.984375 36.375 
Q 6.984375 53.65625 15.1875 63.9375 
Q 23.390625 74.21875 37.203125 74.21875 
Q 40.921875 74.21875 44.703125 73.484375 
Q 48.484375 72.75 52.59375 71.296875 
z
" id="DejaVuSans-54"/>
       </defs>
       <use xlink:href="#DejaVuSans-54"/>
       <use x="63.623047" xlink:href="#DejaVuSans-48"/>
       <use x="127.246094" xlink:href="#DejaVuSans-48"/>
      </g>
     </g>
    </g>
    <g id="xtick_5">
     <g id="line2d_5">
      <g>
       <use style="stroke:#000000;stroke-width:0.8;" x="311.435857" xlink:href="#mc2a41afbba" y="252"/>
      </g>
     </g>
     <g id="text_5">
      <!-- 800 -->
      <g transform="translate(301.892107 266.598437)scale(0.1 -0.1)">
       <defs>
        <path d="M 31.78125 34.625 
Q 24.75 34.625 20.71875 30.859375 
Q 16.703125 27.09375 16.703125 20.515625 
Q 16.703125 13.921875 20.71875 10.15625 
Q 24.75 6.390625 31.78125 6.390625 
Q 38.8125 6.390625 42.859375 10.171875 
Q 46.921875 13.96875 46.921875 20.515625 
Q 46.921875 27.09375 42.890625 30.859375 
Q 38.875 34.625 31.78125 34.625 
z
M 21.921875 38.8125 
Q 15.578125 40.375 12.03125 44.71875 
Q 8.5 49.078125 8.5 55.328125 
Q 8.5 64.0625 14.71875 69.140625 
Q 20.953125 74.21875 31.78125 74.21875 
Q 42.671875 74.21875 48.875 69.140625 
Q 55.078125 64.0625 55.078125 55.328125 
Q 55.078125 49.078125 51.53125 44.71875 
Q 48 40.375 41.703125 38.8125 
Q 48.828125 37.15625 52.796875 32.3125 
Q 56.78125 27.484375 56.78125 20.515625 
Q 56.78125 9.90625 50.3125 4.234375 
Q 43.84375 -1.421875 31.78125 -1.421875 
Q 19.734375 -1.421875 13.25 4.234375 
Q 6.78125 9.90625 6.78125 20.515625 
Q 6.78125 27.484375 10.78125 32.3125 
Q 14.796875 37.15625 21.921875 38.8125 
z
M 18.3125 54.390625 
Q 18.3125 48.734375 21.84375 45.5625 
Q 25.390625 42.390625 31.78125 42.390625 
Q 38.140625 42.390625 41.71875 45.5625 
Q 45.3125 48.734375 45.3125 54.390625 
Q 45.3125 60.0625 41.71875 63.234375 
Q 38.140625 66.40625 31.78125 66.40625 
Q 25.390625 66.40625 21.84375 63.234375 
Q 18.3125 60.0625 18.3125 54.390625 
z
" id="DejaVuSans-56"/>
       </defs>
       <use xlink:href="#DejaVuSans-56"/>
       <use x="63.623047" xlink:href="#DejaVuSans-48"/>
       <use x="127.246094" xlink:href="#DejaVuSans-48"/>
      </g>
     </g>
    </g>
    <g id="xtick_6">
     <g id="line2d_6">
      <g>
       <use style="stroke:#000000;stroke-width:0.8;" x="372.066063" xlink:href="#mc2a41afbba" y="252"/>
      </g>
     </g>
     <g id="text_6">
      <!-- 1000 -->
      <g transform="translate(359.341063 266.598437)scale(0.1 -0.1)">
       <defs>
        <path d="M 12.40625 8.296875 
L 28.515625 8.296875 
L 28.515625 63.921875 
L 10.984375 60.40625 
L 10.984375 69.390625 
L 28.421875 72.90625 
L 38.28125 72.90625 
L 38.28125 8.296875 
L 54.390625 8.296875 
L 54.390625 0 
L 12.40625 0 
z
" id="DejaVuSans-49"/>
       </defs>
       <use xlink:href="#DejaVuSans-49"/>
       <use x="63.623047" xlink:href="#DejaVuSans-48"/>
       <use x="127.246094" xlink:href="#DejaVuSans-48"/>
       <use x="190.869141" xlink:href="#DejaVuSans-48"/>
      </g>
     </g>
    </g>
    <g id="text_7">
     <!-- Number of function evaluations -->
     <g transform="translate(142.399219 280.276563)scale(0.1 -0.1)">
      <defs>
       <path d="M 9.8125 72.90625 
L 23.09375 72.90625 
L 55.421875 11.921875 
L 55.421875 72.90625 
L 64.984375 72.90625 
L 64.984375 0 
L 51.703125 0 
L 19.390625 60.984375 
L 19.390625 0 
L 9.8125 0 
z
" id="DejaVuSans-78"/>
       <path d="M 8.5 21.578125 
L 8.5 54.6875 
L 17.484375 54.6875 
L 17.484375 21.921875 
Q 17.484375 14.15625 20.5 10.265625 
Q 23.53125 6.390625 29.59375 6.390625 
Q 36.859375 6.390625 41.078125 11.03125 
Q 45.3125 15.671875 45.3125 23.6875 
L 45.3125 54.6875 
L 54.296875 54.6875 
L 54.296875 0 
L 45.3125 0 
L 45.3125 8.40625 
Q 42.046875 3.421875 37.71875 1 
Q 33.40625 -1.421875 27.6875 -1.421875 
Q 18.265625 -1.421875 13.375 4.4375 
Q 8.5 10.296875 8.5 21.578125 
z
M 31.109375 56 
z
" id="DejaVuSans-117"/>
       <path d="M 52 44.1875 
Q 55.375 50.25 60.0625 53.125 
Q 64.75 56 71.09375 56 
Q 79.640625 56 84.28125 50.015625 
Q 88.921875 44.046875 88.921875 33.015625 
L 88.921875 0 
L 79.890625 0 
L 79.890625 32.71875 
Q 79.890625 40.578125 77.09375 44.375 
Q 74.3125 48.1875 68.609375 48.1875 
Q 61.625 48.1875 57.5625 43.546875 
Q 53.515625 38.921875 53.515625 30.90625 
L 53.515625 0 
L 44.484375 0 
L 44.484375 32.71875 
Q 44.484375 40.625 41.703125 44.40625 
Q 38.921875 48.1875 33.109375 48.1875 
Q 26.21875 48.1875 22.15625 43.53125 
Q 18.109375 38.875 18.109375 30.90625 
L 18.109375 0 
L 9.078125 0 
L 9.078125 54.6875 
L 18.109375 54.6875 
L 18.109375 46.1875 
Q 21.1875 51.21875 25.484375 53.609375 
Q 29.78125 56 35.6875 56 
Q 41.65625 56 45.828125 52.96875 
Q 50 49.953125 52 44.1875 
z
" id="DejaVuSans-109"/>
       <path d="M 48.6875 27.296875 
Q 48.6875 37.203125 44.609375 42.84375 
Q 40.53125 48.484375 33.40625 48.484375 
Q 26.265625 48.484375 22.1875 42.84375 
Q 18.109375 37.203125 18.109375 27.296875 
Q 18.109375 17.390625 22.1875 11.75 
Q 26.265625 6.109375 33.40625 6.109375 
Q 40.53125 6.109375 44.609375 11.75 
Q 48.6875 17.390625 48.6875 27.296875 
z
M 18.109375 46.390625 
Q 20.953125 51.265625 25.265625 53.625 
Q 29.59375 56 35.59375 56 
Q 45.5625 56 51.78125 48.09375 
Q 58.015625 40.1875 58.015625 27.296875 
Q 58.015625 14.40625 51.78125 6.484375 
Q 45.5625 -1.421875 35.59375 -1.421875 
Q 29.59375 -1.421875 25.265625 0.953125 
Q 20.953125 3.328125 18.109375 8.203125 
L 18.109375 0 
L 9.078125 0 
L 9.078125 75.984375 
L 18.109375 75.984375 
z
" id="DejaVuSans-98"/>
       <path d="M 56.203125 29.59375 
L 56.203125 25.203125 
L 14.890625 25.203125 
Q 15.484375 15.921875 20.484375 11.0625 
Q 25.484375 6.203125 34.421875 6.203125 
Q 39.59375 6.203125 44.453125 7.46875 
Q 49.3125 8.734375 54.109375 11.28125 
L 54.109375 2.78125 
Q 49.265625 0.734375 44.1875 -0.34375 
Q 39.109375 -1.421875 33.890625 -1.421875 
Q 20.796875 -1.421875 13.15625 6.1875 
Q 5.515625 13.8125 5.515625 26.8125 
Q 5.515625 40.234375 12.765625 48.109375 
Q 20.015625 56 32.328125 56 
Q 43.359375 56 49.78125 48.890625 
Q 56.203125 41.796875 56.203125 29.59375 
z
M 47.21875 32.234375 
Q 47.125 39.59375 43.09375 43.984375 
Q 39.0625 48.390625 32.421875 48.390625 
Q 24.90625 48.390625 20.390625 44.140625 
Q 15.875 39.890625 15.1875 32.171875 
z
" id="DejaVuSans-101"/>
       <path d="M 41.109375 46.296875 
Q 39.59375 47.171875 37.8125 47.578125 
Q 36.03125 48 33.890625 48 
Q 26.265625 48 22.1875 43.046875 
Q 18.109375 38.09375 18.109375 28.8125 
L 18.109375 0 
L 9.078125 0 
L 9.078125 54.6875 
L 18.109375 54.6875 
L 18.109375 46.1875 
Q 20.953125 51.171875 25.484375 53.578125 
Q 30.03125 56 36.53125 56 
Q 37.453125 56 38.578125 55.875 
Q 39.703125 55.765625 41.0625 55.515625 
z
" id="DejaVuSans-114"/>
       <path id="DejaVuSans-32"/>
       <path d="M 30.609375 48.390625 
Q 23.390625 48.390625 19.1875 42.75 
Q 14.984375 37.109375 14.984375 27.296875 
Q 14.984375 17.484375 19.15625 11.84375 
Q 23.34375 6.203125 30.609375 6.203125 
Q 37.796875 6.203125 41.984375 11.859375 
Q 46.1875 17.53125 46.1875 27.296875 
Q 46.1875 37.015625 41.984375 42.703125 
Q 37.796875 48.390625 30.609375 48.390625 
z
M 30.609375 56 
Q 42.328125 56 49.015625 48.375 
Q 55.71875 40.765625 55.71875 27.296875 
Q 55.71875 13.875 49.015625 6.21875 
Q 42.328125 -1.421875 30.609375 -1.421875 
Q 18.84375 -1.421875 12.171875 6.21875 
Q 5.515625 13.875 5.515625 27.296875 
Q 5.515625 40.765625 12.171875 48.375 
Q 18.84375 56 30.609375 56 
z
" id="DejaVuSans-111"/>
       <path d="M 37.109375 75.984375 
L 37.109375 68.5 
L 28.515625 68.5 
Q 23.6875 68.5 21.796875 66.546875 
Q 19.921875 64.59375 19.921875 59.515625 
L 19.921875 54.6875 
L 34.71875 54.6875 
L 34.71875 47.703125 
L 19.921875 47.703125 
L 19.921875 0 
L 10.890625 0 
L 10.890625 47.703125 
L 2.296875 47.703125 
L 2.296875 54.6875 
L 10.890625 54.6875 
L 10.890625 58.5 
Q 10.890625 67.625 15.140625 71.796875 
Q 19.390625 75.984375 28.609375 75.984375 
z
" id="DejaVuSans-102"/>
       <path d="M 54.890625 33.015625 
L 54.890625 0 
L 45.90625 0 
L 45.90625 32.71875 
Q 45.90625 40.484375 42.875 44.328125 
Q 39.84375 48.1875 33.796875 48.1875 
Q 26.515625 48.1875 22.3125 43.546875 
Q 18.109375 38.921875 18.109375 30.90625 
L 18.109375 0 
L 9.078125 0 
L 9.078125 54.6875 
L 18.109375 54.6875 
L 18.109375 46.1875 
Q 21.34375 51.125 25.703125 53.5625 
Q 30.078125 56 35.796875 56 
Q 45.21875 56 50.046875 50.171875 
Q 54.890625 44.34375 54.890625 33.015625 
z
" id="DejaVuSans-110"/>
       <path d="M 48.78125 52.59375 
L 48.78125 44.1875 
Q 44.96875 46.296875 41.140625 47.34375 
Q 37.3125 48.390625 33.40625 48.390625 
Q 24.65625 48.390625 19.8125 42.84375 
Q 14.984375 37.3125 14.984375 27.296875 
Q 14.984375 17.28125 19.8125 11.734375 
Q 24.65625 6.203125 33.40625 6.203125 
Q 37.3125 6.203125 41.140625 7.25 
Q 44.96875 8.296875 48.78125 10.40625 
L 48.78125 2.09375 
Q 45.015625 0.34375 40.984375 -0.53125 
Q 36.96875 -1.421875 32.421875 -1.421875 
Q 20.0625 -1.421875 12.78125 6.34375 
Q 5.515625 14.109375 5.515625 27.296875 
Q 5.515625 40.671875 12.859375 48.328125 
Q 20.21875 56 33.015625 56 
Q 37.15625 56 41.109375 55.140625 
Q 45.0625 54.296875 48.78125 52.59375 
z
" id="DejaVuSans-99"/>
       <path d="M 18.3125 70.21875 
L 18.3125 54.6875 
L 36.8125 54.6875 
L 36.8125 47.703125 
L 18.3125 47.703125 
L 18.3125 18.015625 
Q 18.3125 11.328125 20.140625 9.421875 
Q 21.96875 7.515625 27.59375 7.515625 
L 36.8125 7.515625 
L 36.8125 0 
L 27.59375 0 
Q 17.1875 0 13.234375 3.875 
Q 9.28125 7.765625 9.28125 18.015625 
L 9.28125 47.703125 
L 2.6875 47.703125 
L 2.6875 54.6875 
L 9.28125 54.6875 
L 9.28125 70.21875 
z
" id="DejaVuSans-116"/>
       <path d="M 9.421875 54.6875 
L 18.40625 54.6875 
L 18.40625 0 
L 9.421875 0 
z
M 9.421875 75.984375 
L 18.40625 75.984375 
L 18.40625 64.59375 
L 9.421875 64.59375 
z
" id="DejaVuSans-105"/>
       <path d="M 2.984375 54.6875 
L 12.5 54.6875 
L 29.59375 8.796875 
L 46.6875 54.6875 
L 56.203125 54.6875 
L 35.6875 0 
L 23.484375 0 
z
" id="DejaVuSans-118"/>
       <path d="M 34.28125 27.484375 
Q 23.390625 27.484375 19.1875 25 
Q 14.984375 22.515625 14.984375 16.5 
Q 14.984375 11.71875 18.140625 8.90625 
Q 21.296875 6.109375 26.703125 6.109375 
Q 34.1875 6.109375 38.703125 11.40625 
Q 43.21875 16.703125 43.21875 25.484375 
L 43.21875 27.484375 
z
M 52.203125 31.203125 
L 52.203125 0 
L 43.21875 0 
L 43.21875 8.296875 
Q 40.140625 3.328125 35.546875 0.953125 
Q 30.953125 -1.421875 24.3125 -1.421875 
Q 15.921875 -1.421875 10.953125 3.296875 
Q 6 8.015625 6 15.921875 
Q 6 25.140625 12.171875 29.828125 
Q 18.359375 34.515625 30.609375 34.515625 
L 43.21875 34.515625 
L 43.21875 35.40625 
Q 43.21875 41.609375 39.140625 45 
Q 35.0625 48.390625 27.6875 48.390625 
Q 23 48.390625 18.546875 47.265625 
Q 14.109375 46.140625 10.015625 43.890625 
L 10.015625 52.203125 
Q 14.9375 54.109375 19.578125 55.046875 
Q 24.21875 56 28.609375 56 
Q 40.484375 56 46.34375 49.84375 
Q 52.203125 43.703125 52.203125 31.203125 
z
" id="DejaVuSans-97"/>
       <path d="M 9.421875 75.984375 
L 18.40625 75.984375 
L 18.40625 0 
L 9.421875 0 
z
" id="DejaVuSans-108"/>
       <path d="M 44.28125 53.078125 
L 44.28125 44.578125 
Q 40.484375 46.53125 36.375 47.5 
Q 32.28125 48.484375 27.875 48.484375 
Q 21.1875 48.484375 17.84375 46.4375 
Q 14.5 44.390625 14.5 40.28125 
Q 14.5 37.15625 16.890625 35.375 
Q 19.28125 33.59375 26.515625 31.984375 
L 29.59375 31.296875 
Q 39.15625 29.25 43.1875 25.515625 
Q 47.21875 21.78125 47.21875 15.09375 
Q 47.21875 7.46875 41.1875 3.015625 
Q 35.15625 -1.421875 24.609375 -1.421875 
Q 20.21875 -1.421875 15.453125 -0.5625 
Q 10.6875 0.296875 5.421875 2 
L 5.421875 11.28125 
Q 10.40625 8.6875 15.234375 7.390625 
Q 20.0625 6.109375 24.8125 6.109375 
Q 31.15625 6.109375 34.5625 8.28125 
Q 37.984375 10.453125 37.984375 14.40625 
Q 37.984375 18.0625 35.515625 20.015625 
Q 33.0625 21.96875 24.703125 23.78125 
L 21.578125 24.515625 
Q 13.234375 26.265625 9.515625 29.90625 
Q 5.8125 33.546875 5.8125 39.890625 
Q 5.8125 47.609375 11.28125 51.796875 
Q 16.75 56 26.8125 56 
Q 31.78125 56 36.171875 55.265625 
Q 40.578125 54.546875 44.28125 53.078125 
z
" id="DejaVuSans-115"/>
      </defs>
      <use xlink:href="#DejaVuSans-78"/>
      <use x="74.804688" xlink:href="#DejaVuSans-117"/>
      <use x="138.183594" xlink:href="#DejaVuSans-109"/>
      <use x="235.595703" xlink:href="#DejaVuSans-98"/>
      <use x="299.072266" xlink:href="#DejaVuSans-101"/>
      <use x="360.595703" xlink:href="#DejaVuSans-114"/>
      <use x="401.708984" xlink:href="#DejaVuSans-32"/>
      <use x="433.496094" xlink:href="#DejaVuSans-111"/>
      <use x="494.677734" xlink:href="#DejaVuSans-102"/>
      <use x="529.882812" xlink:href="#DejaVuSans-32"/>
      <use x="561.669922" xlink:href="#DejaVuSans-102"/>
      <use x="596.875" xlink:href="#DejaVuSans-117"/>
      <use x="660.253906" xlink:href="#DejaVuSans-110"/>
      <use x="723.632812" xlink:href="#DejaVuSans-99"/>
      <use x="778.613281" xlink:href="#DejaVuSans-116"/>
      <use x="817.822266" xlink:href="#DejaVuSans-105"/>
      <use x="845.605469" xlink:href="#DejaVuSans-111"/>
      <use x="906.787109" xlink:href="#DejaVuSans-110"/>
      <use x="970.166016" xlink:href="#DejaVuSans-32"/>
      <use x="1001.953125" xlink:href="#DejaVuSans-101"/>
      <use x="1063.476562" xlink:href="#DejaVuSans-118"/>
      <use x="1122.65625" xlink:href="#DejaVuSans-97"/>
      <use x="1183.935547" xlink:href="#DejaVuSans-108"/>
      <use x="1211.71875" xlink:href="#DejaVuSans-117"/>
      <use x="1275.097656" xlink:href="#DejaVuSans-97"/>
      <use x="1336.376953" xlink:href="#DejaVuSans-116"/>
      <use x="1375.585938" xlink:href="#DejaVuSans-105"/>
      <use x="1403.369141" xlink:href="#DejaVuSans-111"/>
      <use x="1464.550781" xlink:href="#DejaVuSans-110"/>
      <use x="1527.929688" xlink:href="#DejaVuSans-115"/>
     </g>
    </g>
   </g>
   <g id="matplotlib.axis_2">
    <g id="ytick_1">
     <g id="line2d_7">
      <defs>
       <path d="M 0 0 
L -3.5 0 
" id="m737a986048" style="stroke:#000000;stroke-width:0.8;"/>
      </defs>
      <g>
       <use style="stroke:#000000;stroke-width:0.8;" x="54" xlink:href="#m737a986048" y="216.496113"/>
      </g>
     </g>
     <g id="text_8">
      <!-- $\mathdefault{10^{-4}}$ -->
      <g transform="translate(23.5 220.295331)scale(0.1 -0.1)">
       <defs>
        <path d="M 10.59375 35.5 
L 73.1875 35.5 
L 73.1875 27.203125 
L 10.59375 27.203125 
z
" id="DejaVuSans-8722"/>
       </defs>
       <use transform="translate(0 0.684375)" xlink:href="#DejaVuSans-49"/>
       <use transform="translate(63.623047 0.684375)" xlink:href="#DejaVuSans-48"/>
       <use transform="translate(128.203125 38.965625)scale(0.7)" xlink:href="#DejaVuSans-8722"/>
       <use transform="translate(186.855469 38.965625)scale(0.7)" xlink:href="#DejaVuSans-52"/>
      </g>
     </g>
    </g>
    <g id="ytick_2">
     <g id="line2d_8">
      <g>
       <use style="stroke:#000000;stroke-width:0.8;" x="54" xlink:href="#m737a986048" y="180.348232"/>
      </g>
     </g>
     <g id="text_9">
      <!-- $\mathdefault{10^{-1}}$ -->
      <g transform="translate(23.5 184.14745)scale(0.1 -0.1)">
       <use transform="translate(0 0.684375)" xlink:href="#DejaVuSans-49"/>
       <use transform="translate(63.623047 0.684375)" xlink:href="#DejaVuSans-48"/>
       <use transform="translate(128.203125 38.965625)scale(0.7)" xlink:href="#DejaVuSans-8722"/>
       <use transform="translate(186.855469 38.965625)scale(0.7)" xlink:href="#DejaVuSans-49"/>
      </g>
     </g>
    </g>
    <g id="ytick_3">
     <g id="line2d_9">
      <g>
       <use style="stroke:#000000;stroke-width:0.8;" x="54" xlink:href="#m737a986048" y="144.200351"/>
      </g>
     </g>
     <g id="text_10">
      <!-- $\mathdefault{10^{2}}$ -->
      <g transform="translate(29.4 147.999569)scale(0.1 -0.1)">
       <use transform="translate(0 0.765625)" xlink:href="#DejaVuSans-49"/>
       <use transform="translate(63.623047 0.765625)" xlink:href="#DejaVuSans-48"/>
       <use transform="translate(128.203125 39.046875)scale(0.7)" xlink:href="#DejaVuSans-50"/>
      </g>
     </g>
    </g>
    <g id="ytick_4">
     <g id="line2d_10">
      <g>
       <use style="stroke:#000000;stroke-width:0.8;" x="54" xlink:href="#m737a986048" y="108.05247"/>
      </g>
     </g>
     <g id="text_11">
      <!-- $\mathdefault{10^{5}}$ -->
      <g transform="translate(29.4 111.851688)scale(0.1 -0.1)">
       <defs>
        <path d="M 10.796875 72.90625 
L 49.515625 72.90625 
L 49.515625 64.59375 
L 19.828125 64.59375 
L 19.828125 46.734375 
Q 21.96875 47.46875 24.109375 47.828125 
Q 26.265625 48.1875 28.421875 48.1875 
Q 40.625 48.1875 47.75 41.5 
Q 54.890625 34.8125 54.890625 23.390625 
Q 54.890625 11.625 47.5625 5.09375 
Q 40.234375 -1.421875 26.90625 -1.421875 
Q 22.3125 -1.421875 17.546875 -0.640625 
Q 12.796875 0.140625 7.71875 1.703125 
L 7.71875 11.625 
Q 12.109375 9.234375 16.796875 8.0625 
Q 21.484375 6.890625 26.703125 6.890625 
Q 35.15625 6.890625 40.078125 11.328125 
Q 45.015625 15.765625 45.015625 23.390625 
Q 45.015625 31 40.078125 35.4375 
Q 35.15625 39.890625 26.703125 39.890625 
Q 22.75 39.890625 18.8125 39.015625 
Q 14.890625 38.140625 10.796875 36.28125 
z
" id="DejaVuSans-53"/>
       </defs>
       <use transform="translate(0 0.684375)" xlink:href="#DejaVuSans-49"/>
       <use transform="translate(63.623047 0.684375)" xlink:href="#DejaVuSans-48"/>
       <use transform="translate(128.203125 38.965625)scale(0.7)" xlink:href="#DejaVuSans-53"/>
      </g>
     </g>
    </g>
    <g id="ytick_5">
     <g id="line2d_11">
      <g>
       <use style="stroke:#000000;stroke-width:0.8;" x="54" xlink:href="#m737a986048" y="71.904589"/>
      </g>
     </g>
     <g id="text_12">
      <!-- $\mathdefault{10^{8}}$ -->
      <g transform="translate(29.4 75.703807)scale(0.1 -0.1)">
       <use transform="translate(0 0.765625)" xlink:href="#DejaVuSans-49"/>
       <use transform="translate(63.623047 0.765625)" xlink:href="#DejaVuSans-48"/>
       <use transform="translate(128.203125 39.046875)scale(0.7)" xlink:href="#DejaVuSans-56"/>
      </g>
     </g>
    </g>
    <g id="ytick_6">
     <g id="line2d_12">
      <g>
       <use style="stroke:#000000;stroke-width:0.8;" x="54" xlink:href="#m737a986048" y="35.756708"/>
      </g>
     </g>
     <g id="text_13">
      <!-- $\mathdefault{10^{11}}$ -->
      <g transform="translate(24.9 39.555927)scale(0.1 -0.1)">
       <use transform="translate(0 0.684375)" xlink:href="#DejaVuSans-49"/>
       <use transform="translate(63.623047 0.684375)" xlink:href="#DejaVuSans-48"/>
       <use transform="translate(128.203125 38.965625)scale(0.7)" xlink:href="#DejaVuSans-49"/>
       <use transform="translate(172.739258 38.965625)scale(0.7)" xlink:href="#DejaVuSans-49"/>
      </g>
     </g>
    </g>
    <g id="text_14">
     <!-- Convergence -->
     <g transform="translate(17.420312 176.24875)rotate(-90)scale(0.1 -0.1)">
      <defs>
       <path d="M 64.40625 67.28125 
L 64.40625 56.890625 
Q 59.421875 61.53125 53.78125 63.8125 
Q 48.140625 66.109375 41.796875 66.109375 
Q 29.296875 66.109375 22.65625 58.46875 
Q 16.015625 50.828125 16.015625 36.375 
Q 16.015625 21.96875 22.65625 14.328125 
Q 29.296875 6.6875 41.796875 6.6875 
Q 48.140625 6.6875 53.78125 8.984375 
Q 59.421875 11.28125 64.40625 15.921875 
L 64.40625 5.609375 
Q 59.234375 2.09375 53.4375 0.328125 
Q 47.65625 -1.421875 41.21875 -1.421875 
Q 24.65625 -1.421875 15.125 8.703125 
Q 5.609375 18.84375 5.609375 36.375 
Q 5.609375 53.953125 15.125 64.078125 
Q 24.65625 74.21875 41.21875 74.21875 
Q 47.75 74.21875 53.53125 72.484375 
Q 59.328125 70.75 64.40625 67.28125 
z
" id="DejaVuSans-67"/>
       <path d="M 45.40625 27.984375 
Q 45.40625 37.75 41.375 43.109375 
Q 37.359375 48.484375 30.078125 48.484375 
Q 22.859375 48.484375 18.828125 43.109375 
Q 14.796875 37.75 14.796875 27.984375 
Q 14.796875 18.265625 18.828125 12.890625 
Q 22.859375 7.515625 30.078125 7.515625 
Q 37.359375 7.515625 41.375 12.890625 
Q 45.40625 18.265625 45.40625 27.984375 
z
M 54.390625 6.78125 
Q 54.390625 -7.171875 48.1875 -13.984375 
Q 42 -20.796875 29.203125 -20.796875 
Q 24.46875 -20.796875 20.265625 -20.09375 
Q 16.0625 -19.390625 12.109375 -17.921875 
L 12.109375 -9.1875 
Q 16.0625 -11.328125 19.921875 -12.34375 
Q 23.78125 -13.375 27.78125 -13.375 
Q 36.625 -13.375 41.015625 -8.765625 
Q 45.40625 -4.15625 45.40625 5.171875 
L 45.40625 9.625 
Q 42.625 4.78125 38.28125 2.390625 
Q 33.9375 0 27.875 0 
Q 17.828125 0 11.671875 7.65625 
Q 5.515625 15.328125 5.515625 27.984375 
Q 5.515625 40.671875 11.671875 48.328125 
Q 17.828125 56 27.875 56 
Q 33.9375 56 38.28125 53.609375 
Q 42.625 51.21875 45.40625 46.390625 
L 45.40625 54.6875 
L 54.390625 54.6875 
z
" id="DejaVuSans-103"/>
      </defs>
      <use xlink:href="#DejaVuSans-67"/>
      <use x="69.824219" xlink:href="#DejaVuSans-111"/>
      <use x="131.005859" xlink:href="#DejaVuSans-110"/>
      <use x="194.384766" xlink:href="#DejaVuSans-118"/>
      <use x="253.564453" xlink:href="#DejaVuSans-101"/>
      <use x="315.087891" xlink:href="#DejaVuSans-114"/>
      <use x="354.451172" xlink:href="#DejaVuSans-103"/>
      <use x="417.927734" xlink:href="#DejaVuSans-101"/>
      <use x="479.451172" xlink:href="#DejaVuSans-110"/>
      <use x="542.830078" xlink:href="#DejaVuSans-99"/>
      <use x="597.810547" xlink:href="#DejaVuSans-101"/>
     </g>
    </g>
   </g>
   <g id="line2d_13">
    <path clip-path="url(#p8a2f4f47d8)" d="M 69.218182 44.443636 
L 69.521333 44.443636 
L 69.521333 58.963085 
L 69.824484 58.963085 
L 69.824484 73.493214 
L 70.127635 73.493214 
L 70.127635 88.044809 
L 70.430786 88.044809 
L 70.430786 102.639787 
L 70.733937 102.639787 
L 70.733937 117.322998 
L 71.037088 117.322998 
L 71.037088 132.189639 
L 71.340239 132.189639 
L 71.340239 147.453039 
L 71.64339 147.453039 
L 71.64339 163.657122 
L 71.946541 163.657122 
L 71.946541 182.701515 
L 72.249692 182.701515 
L 72.249692 229.21031 
L 72.552843 229.21031 
L 72.552843 204.726296 
L 72.855994 204.726296 
L 72.855994 207.645813 
L 73.159145 207.645813 
L 73.159145 214.209694 
L 73.462296 214.209694 
L 73.462296 242.116364 
L 73.765447 242.116364 
L 73.765447 221.476165 
L 74.068598 221.476165 
L 74.068598 214.4532 
L 74.371749 214.4532 
L 74.371749 210.639853 
L 74.6749 210.639853 
L 74.6749 207.78671 
L 74.978051 207.78671 
L 74.978051 205.552245 
L 75.281202 205.552245 
L 75.281202 203.746726 
L 75.584353 203.746726 
L 75.584353 202.155388 
L 75.887505 202.155388 
L 75.887505 200.827708 
L 76.190656 200.827708 
L 76.190656 199.720702 
L 76.493807 199.720702 
L 76.493807 198.618116 
L 76.796958 198.618116 
L 76.796958 197.647545 
L 77.100109 197.647545 
L 77.100109 196.790572 
L 77.40326 196.790572 
L 77.40326 195.994911 
L 77.706411 195.994911 
L 77.706411 195.244584 
L 78.009562 195.244584 
L 78.009562 194.578275 
L 78.312713 194.578275 
L 78.312713 193.933842 
L 78.615864 193.933842 
L 78.615864 193.311051 
L 78.919015 193.311051 
L 78.919015 192.718386 
L 79.222166 192.718386 
L 79.222166 192.174237 
L 79.525317 192.174237 
L 79.525317 191.653931 
L 79.828468 191.653931 
L 79.828468 191.149189 
L 80.131619 191.149189 
L 80.131619 190.663871 
L 80.43477 190.663871 
L 80.43477 190.200306 
L 80.737921 190.200306 
L 80.737921 189.77571 
L 81.041072 189.77571 
L 81.041072 189.35958 
L 81.344223 189.35958 
L 81.344223 188.962439 
L 81.647374 188.962439 
L 81.647374 188.579804 
L 81.950525 188.579804 
L 81.950525 188.206768 
L 82.253676 188.206768 
L 82.253676 187.844591 
L 82.556827 187.844591 
L 82.556827 187.504966 
L 82.859978 187.504966 
L 82.859978 187.165684 
L 83.163129 187.165684 
L 83.163129 186.840979 
L 83.46628 186.840979 
L 83.46628 186.513583 
L 83.769431 186.513583 
L 83.769431 186.226223 
L 84.072582 186.226223 
L 84.072582 185.93354 
L 84.375733 185.93354 
L 84.375733 185.646231 
L 84.678884 185.646231 
L 84.678884 185.361906 
L 84.982035 185.361906 
L 84.982035 185.084258 
L 85.285187 185.084258 
L 85.285187 184.823367 
L 85.588338 184.823367 
L 85.588338 184.563263 
L 85.891489 184.563263 
L 85.891489 184.30821 
L 86.19464 184.30821 
L 86.19464 184.058606 
L 86.497791 184.058606 
L 86.497791 183.811325 
L 86.800942 183.811325 
L 86.800942 183.550679 
L 87.104093 183.550679 
L 87.104093 183.342914 
L 87.407244 183.342914 
L 87.407244 183.116542 
L 87.710395 183.116542 
L 87.710395 182.895908 
L 88.013546 182.895908 
L 88.013546 182.679527 
L 88.316697 182.679527 
L 88.316697 182.466875 
L 88.619848 182.466875 
L 88.619848 182.258002 
L 88.922999 182.258002 
L 88.922999 182.054553 
L 89.22615 182.054553 
L 89.22615 181.853502 
L 89.529301 181.853502 
L 89.529301 181.65623 
L 89.832452 181.65623 
L 89.832452 181.464043 
L 90.135603 181.464043 
L 90.135603 181.268303 
L 90.438754 181.268303 
L 90.438754 181.088562 
L 90.741905 181.088562 
L 90.741905 180.90322 
L 91.045056 180.90322 
L 91.045056 180.72429 
L 91.348207 180.72429 
L 91.348207 180.549425 
L 91.651358 180.549425 
L 91.651358 180.37567 
L 91.954509 180.37567 
L 91.954509 180.204628 
L 92.25766 180.204628 
L 92.25766 180.036705 
L 92.560811 180.036705 
L 92.560811 179.871658 
L 92.863962 179.871658 
L 92.863962 179.708552 
L 93.167113 179.708552 
L 93.167113 179.548972 
L 93.470264 179.548972 
L 93.470264 179.391577 
L 93.773415 179.391577 
L 93.773415 179.235888 
L 94.076566 179.235888 
L 94.076566 179.083296 
L 94.379717 179.083296 
L 94.379717 178.931821 
L 94.682869 178.931821 
L 94.682869 178.783409 
L 94.98602 178.783409 
L 94.98602 178.636945 
L 95.289171 178.636945 
L 95.289171 178.492372 
L 95.592322 178.492372 
L 95.592322 178.342172 
L 95.895473 178.342172 
L 95.895473 178.208927 
L 96.198624 178.208927 
L 96.198624 178.070335 
L 96.501775 178.070335 
L 96.501775 177.933312 
L 96.804926 177.933312 
L 96.804926 177.797733 
L 97.108077 177.797733 
L 97.108077 177.664736 
L 97.411228 177.664736 
L 97.411228 177.532864 
L 97.714379 177.532864 
L 97.714379 177.402523 
L 98.01753 177.402523 
L 98.01753 177.274024 
L 98.320681 177.274024 
L 98.320681 177.146921 
L 98.623832 177.146921 
L 98.623832 177.020874 
L 98.926983 177.020874 
L 98.926983 176.89714 
L 99.230134 176.89714 
L 99.230134 176.774487 
L 99.533285 176.774487 
L 99.533285 176.653009 
L 99.836436 176.653009 
L 99.836436 176.533148 
L 100.139587 176.533148 
L 100.139587 176.414612 
L 100.442738 176.414612 
L 100.442738 176.297598 
L 100.745889 176.297598 
L 100.745889 176.181467 
L 101.04904 176.181467 
L 101.04904 176.066672 
L 101.352191 176.066672 
L 101.352191 175.95344 
L 101.655342 175.95344 
L 101.655342 175.840988 
L 102.261644 175.730282 
L 102.261644 175.61775 
L 102.867946 175.51153 
L 102.867946 175.403905 
L 103.474248 175.297275 
L 103.474248 175.192018 
L 104.080551 175.086848 
L 104.080551 174.984465 
L 104.686853 174.88185 
L 104.686853 174.780713 
L 105.293155 174.680314 
L 105.293155 174.580424 
L 105.899457 174.482431 
L 105.899457 174.384533 
L 106.505759 174.288145 
L 106.505759 174.192238 
L 107.112061 174.095359 
L 107.112061 174.002908 
L 107.718363 173.909564 
L 107.718363 173.817349 
L 108.324665 173.725497 
L 108.324665 173.635091 
L 108.930967 173.544848 
L 108.930967 173.45575 
L 109.537269 173.366953 
L 109.537269 173.279211 
L 110.143571 173.192375 
L 110.143571 173.105665 
L 110.749873 173.020247 
L 110.749873 172.935502 
L 111.356175 172.851092 
L 111.356175 172.76761 
L 111.962477 172.684757 
L 111.962477 172.601681 
L 112.568779 172.52042 
L 112.568779 172.439783 
L 113.175081 172.359344 
L 113.175081 172.279166 
L 113.781384 172.20032 
L 113.781384 172.121629 
L 114.387686 172.043651 
L 114.387686 171.966252 
L 114.993988 171.889473 
L 114.993988 171.813194 
L 115.60029 171.737396 
L 115.60029 171.662073 
L 116.206592 171.58673 
L 116.206592 171.513039 
L 116.812894 171.439344 
L 116.812894 171.366625 
L 117.419196 171.293694 
L 117.419196 171.221849 
L 118.025498 171.150202 
L 118.025498 171.078639 
L 118.6318 171.008204 
L 118.6318 170.938047 
L 119.238102 170.868323 
L 119.238102 170.798834 
L 119.844404 170.730325 
L 119.844404 170.661985 
L 120.450706 170.593897 
L 120.450706 170.526373 
L 121.057008 170.459384 
L 121.057008 170.392659 
L 121.66331 170.326449 
L 121.66331 170.260616 
L 122.269612 170.195202 
L 122.269612 170.130054 
L 122.875915 170.065636 
L 122.875915 170.001293 
L 123.482217 169.937292 
L 123.482217 169.873918 
L 124.088519 169.810926 
L 124.088519 169.748273 
L 124.694821 169.685901 
L 124.694821 169.623788 
L 125.301123 169.562281 
L 125.301123 169.500624 
L 125.907425 169.440188 
L 125.907425 169.379557 
L 126.513727 169.319428 
L 126.513727 169.259323 
L 127.120029 169.199871 
L 127.120029 169.140713 
L 127.726331 169.081989 
L 127.726331 169.023284 
L 128.332633 168.965172 
L 128.332633 168.9071 
L 128.938935 168.849716 
L 128.938935 168.792254 
L 129.545237 168.735256 
L 129.545237 168.678757 
L 130.151539 168.62232 
L 130.151539 168.566347 
L 130.757841 168.510691 
L 130.757841 168.455213 
L 131.667294 168.344941 
L 131.667294 168.290507 
L 132.576748 168.182101 
L 132.576748 168.128102 
L 133.486201 168.021586 
L 133.486201 167.968787 
L 134.395654 167.863639 
L 134.395654 167.811195 
L 135.305107 167.707841 
L 135.305107 167.656583 
L 136.21456 167.554321 
L 136.21456 167.503843 
L 137.124013 167.403153 
L 137.124013 167.352693 
L 138.033466 167.252065 
L 138.033466 167.204623 
L 138.942919 167.106899 
L 138.942919 167.058469 
L 139.852372 166.962036 
L 139.852372 166.914105 
L 140.761825 166.819025 
L 140.761825 166.771748 
L 141.671279 166.677878 
L 141.671279 166.631246 
L 142.580732 166.538455 
L 142.580732 166.492515 
L 143.490185 166.401157 
L 143.490185 166.355705 
L 144.399638 166.265364 
L 144.399638 166.220546 
L 145.309091 166.131359 
L 145.309091 166.087205 
L 146.218544 165.999136 
L 146.218544 165.955361 
L 147.127997 165.868438 
L 147.127997 165.825361 
L 148.03745 165.739498 
L 148.03745 165.696799 
L 148.946903 165.611982 
L 148.946903 165.569697 
L 149.856356 165.48532 
L 149.856356 165.444243 
L 150.765809 165.361485 
L 150.765809 165.320038 
L 151.675263 165.238202 
L 151.675263 165.197757 
L 152.584716 165.116735 
L 152.584716 165.076578 
L 153.494169 164.99659 
L 153.494169 164.956513 
L 154.403622 164.877523 
L 154.403622 164.838296 
L 155.313075 164.759969 
L 155.313075 164.721081 
L 156.222528 164.642396 
L 156.222528 164.605117 
L 157.131981 164.528571 
L 157.131981 164.490431 
L 158.041434 164.41489 
L 158.041434 164.377181 
L 158.950887 164.302297 
L 158.950887 164.26497 
L 160.163491 164.153975 
L 160.163491 164.117235 
L 161.376096 164.00775 
L 161.376096 163.971494 
L 162.5887 163.863544 
L 162.5887 163.827317 
L 163.801304 163.721176 
L 163.801304 163.685931 
L 165.013908 163.580693 
L 165.013908 163.546022 
L 166.226512 163.442162 
L 166.226512 163.40775 
L 167.439116 163.305454 
L 167.439116 163.271373 
L 168.65172 163.17042 
L 168.65172 163.13669 
L 169.864325 163.037028 
L 169.864325 163.003928 
L 171.076929 162.905329 
L 171.076929 162.872716 
L 172.289533 162.7753 
L 172.289533 162.742952 
L 173.502137 162.646751 
L 173.502137 162.614861 
L 174.714741 162.519861 
L 174.714741 162.488146 
L 175.927345 162.394359 
L 175.927345 162.363227 
L 177.139949 162.270452 
L 177.139949 162.239711 
L 178.352553 162.147963 
L 178.352553 162.117569 
L 179.565158 162.0268 
L 179.565158 161.996763 
L 180.777762 161.907163 
L 180.777762 161.877279 
L 181.990366 161.788721 
L 181.990366 161.759342 
L 183.20297 161.671697 
L 183.20297 161.642584 
L 184.415574 161.555302 
L 184.415574 161.527085 
L 185.628178 161.441282 
L 185.628178 161.412859 
L 186.840782 161.327882 
L 186.840782 161.299765 
L 188.053386 161.215758 
L 188.053386 161.187987 
L 189.569142 161.077324 
L 189.569142 161.049898 
L 191.084897 160.940615 
L 191.084897 160.913402 
L 192.600652 160.805719 
L 192.600652 160.778701 
L 194.116407 160.67237 
L 194.116407 160.645982 
L 195.632162 160.540828 
L 195.632162 160.514755 
L 197.147917 160.410818 
L 197.147917 160.385034 
L 198.663673 160.282513 
L 198.663673 160.256983 
L 200.179428 160.155701 
L 200.179428 160.130379 
L 201.695183 160.030131 
L 201.695183 160.005475 
L 203.210938 159.906363 
L 203.210938 159.881856 
L 204.726693 159.784229 
L 204.726693 159.759871 
L 206.242448 159.663179 
L 206.242448 159.639337 
L 207.758204 159.543864 
L 207.758204 159.520094 
L 209.273959 159.425788 
L 209.273959 159.4024 
L 210.789714 159.309181 
L 210.789714 159.285972 
L 212.305469 159.193709 
L 212.305469 159.170444 
L 213.821224 159.07985 
L 213.821224 159.057212 
L 215.336979 158.96724 
L 215.336979 158.944755 
L 217.155886 158.833841 
L 217.155886 158.811641 
L 218.974792 158.702286 
L 218.974792 158.680476 
L 220.793698 158.573248 
L 220.793698 158.552023 
L 222.612604 158.448255 
L 222.612604 158.428388 
L 224.734661 158.323889 
L 224.734661 158.310062 
L 229.585078 158.199244 
L 229.585078 158.195648 
L 244.136327 158.086125 
L 244.136327 158.083877 
L 259.59703 157.973615 
L 259.59703 157.971372 
L 275.360884 157.860653 
L 275.360884 157.858252 
L 292.337342 157.747842 
L 292.337342 157.745958 
L 309.61695 157.636162 
L 309.61695 157.634225 
L 327.19971 157.52381 
L 327.19971 157.521891 
L 344.78247 157.412436 
L 344.78247 157.410565 
L 362.668381 157.301182 
L 362.668381 157.299324 
L 372.066063 157.243094 
L 372.066063 157.241244 
" style="fill:none;stroke:#1e90ff;stroke-dasharray:5.55,2.4;stroke-dashoffset:0;stroke-width:1.5;"/>
   </g>
   <g id="line2d_14">
    <path clip-path="url(#p8a2f4f47d8)" d="M 69.218182 44.443636 
L 81.647374 44.443636 
L 81.647374 121.156709 
L 122.572763 121.156709 
L 122.572763 132.783965 
L 125.301123 132.783965 
L 125.301123 142.58233 
L 130.757841 142.58233 
L 130.757841 150.612005 
L 158.041434 150.682977 
L 158.041434 154.291381 
L 168.045418 154.291381 
L 168.045418 154.59501 
L 171.076929 154.59501 
L 171.076929 156.679462 
L 191.388048 156.714281 
L 191.388048 158.870272 
L 195.935313 158.870272 
L 195.935313 160.570521 
L 205.029844 160.570521 
L 205.029844 160.819275 
L 208.061355 160.819275 
L 208.061355 165.051888 
L 222.309453 165.051888 
L 222.309453 166.900732 
L 229.888229 166.900732 
L 229.888229 169.878789 
L 243.226874 169.878789 
L 243.226874 170.607581 
L 249.593046 170.607581 
L 249.593046 178.948751 
L 265.053749 178.948751 
L 265.053749 182.302592 
L 289.00268 182.302592 
L 289.00268 185.066564 
L 289.608982 185.066564 
L 289.608982 185.879219 
L 290.215284 185.879219 
L 290.215284 189.912743 
L 294.459399 189.912743 
L 294.459399 191.452 
L 304.766534 191.452 
L 304.766534 194.346343 
L 305.675987 194.346343 
L 305.675987 200.941806 
L 310.829555 200.941806 
L 310.829555 202.46728 
L 312.951612 202.46728 
L 312.951612 203.775772 
L 325.987106 203.775772 
L 325.987106 209.65789 
L 327.806012 209.65789 
L 327.806012 207.454374 
L 332.656429 207.454374 
L 332.656429 201.243342 
L 342.357262 201.243342 
L 342.357262 199.318633 
L 342.963564 199.318633 
L 342.963564 198.887972 
L 344.176168 198.887972 
L 344.176168 198.270007 
L 345.691923 198.270007 
L 345.691923 197.532842 
L 348.420283 197.532842 
L 348.420283 196.538168 
L 349.632887 196.538168 
L 349.632887 196.419527 
L 358.121116 196.419527 
L 358.121116 195.498909 
L 369.337704 195.498909 
L 369.337704 195.030536 
L 372.066063 195.030536 
L 372.066063 195.030536 
" style="fill:none;stroke:#ff8c00;stroke-dasharray:5.55,2.4;stroke-dashoffset:0;stroke-width:1.5;"/>
   </g>
   <g id="line2d_15">
    <path clip-path="url(#p8a2f4f47d8)" d="M 69.521333 44.443636 
L 69.824484 44.443636 
L 69.824484 48.510058 
L 73.462296 48.510058 
L 73.462296 56.801393 
L 73.765447 56.801393 
L 73.765447 195.505315 
L 88.316697 195.437574 
L 88.316697 194.930738 
L 372.066063 194.930738 
L 372.066063 194.930738 
" style="fill:none;stroke:#008000;stroke-dasharray:5.55,2.4;stroke-dashoffset:0;stroke-width:1.5;"/>
   </g>
   <g id="line2d_16">
    <path clip-path="url(#p8a2f4f47d8)" d="M 69.218182 44.443636 
L 72.552843 44.443636 
L 72.552843 51.890585 
L 73.159145 51.890585 
L 73.159145 55.890587 
L 74.371749 55.890587 
L 74.371749 56.478525 
L 76.796958 56.478525 
L 76.796958 56.619946 
L 78.009562 56.619946 
L 78.009562 64.474154 
L 79.525317 64.474154 
L 79.525317 73.914742 
L 82.253676 73.914742 
L 82.253676 76.063945 
L 86.19464 76.063945 
L 86.19464 79.576304 
L 88.013546 79.576304 
L 88.013546 86.449242 
L 89.529301 86.449242 
L 89.529301 105.582324 
L 94.076566 105.582324 
L 94.076566 107.137696 
L 98.623832 107.137696 
L 98.623832 108.751671 
L 101.352191 108.751671 
L 101.352191 117.533326 
L 103.474248 117.533326 
L 103.474248 129.608166 
L 105.899457 129.608166 
L 105.899457 129.928125 
L 109.234118 129.928125 
L 109.234118 131.22993 
L 112.265628 131.22993 
L 112.265628 135.155943 
L 114.993988 135.155943 
L 114.993988 147.581985 
L 124.088519 147.581985 
L 124.088519 149.697577 
L 128.029482 149.697577 
L 128.029482 158.424251 
L 138.639768 158.424251 
L 138.639768 177.593141 
L 146.218544 177.593141 
L 146.218544 182.58004 
L 166.832814 182.58004 
L 166.832814 206.893837 
L 170.773778 206.893837 
L 170.773778 204.347567 
L 175.927345 204.347567 
L 175.927345 202.111792 
L 185.021876 202.111792 
L 185.021876 201.938734 
L 193.813256 201.938734 
L 193.813256 198.12342 
L 198.057371 198.12342 
L 198.057371 197.266566 
L 213.821224 197.266566 
L 213.821224 196.390504 
L 219.581094 196.390504 
L 219.581094 195.993658 
L 225.037812 195.993658 
L 225.037812 195.467461 
L 272.329373 195.376365 
L 272.329373 195.309354 
L 348.420283 195.207191 
L 348.420283 195.164238 
L 372.066063 195.137386 
L 372.066063 195.137386 
" style="fill:none;stroke:#ff0000;stroke-dasharray:5.55,2.4;stroke-dashoffset:0;stroke-width:1.5;"/>
   </g>
   <g id="line2d_17">
    <path clip-path="url(#p8a2f4f47d8)" d="M 69.218182 44.443636 
L 81.344223 44.443636 
L 81.344223 168.962186 
L 200.482579 168.962186 
L 200.482579 170.080374 
L 219.581094 170.080374 
L 219.581094 170.352788 
L 223.522057 170.352788 
L 223.522057 171.516354 
L 226.553568 171.516354 
L 226.553568 171.825773 
L 233.22289 171.825773 
L 233.22289 172.539124 
L 238.073307 172.539124 
L 238.073307 172.670075 
L 258.081275 172.670075 
L 258.081275 182.825698 
L 266.872655 182.825698 
L 266.872655 188.028401 
L 275.664035 188.028401 
L 275.664035 194.967439 
L 282.333357 194.967439 
L 282.333357 196.072873 
L 284.758566 196.072873 
L 284.758566 198.153704 
L 290.215284 198.153704 
L 290.215284 198.681472 
L 293.246795 198.681472 
L 293.246795 202.405643 
L 293.549946 202.405643 
L 293.549946 204.318407 
L 295.065701 204.318407 
L 295.065701 208.581809 
L 298.703513 208.581809 
L 298.703513 219.585514 
L 308.101195 219.585514 
L 308.101195 209.94675 
L 314.770518 209.94675 
L 314.770518 201.589103 
L 319.014632 201.589103 
L 319.014632 198.85536 
L 323.258747 198.85536 
L 323.258747 197.123634 
L 342.054111 197.123634 
L 342.054111 195.69827 
L 344.479319 195.598284 
L 344.479319 195.282705 
L 373.581818 195.282705 
L 373.581818 195.282705 
" style="fill:none;stroke:#9400d3;stroke-dasharray:5.55,2.4;stroke-dashoffset:0;stroke-width:1.5;"/>
   </g>
   <g id="line2d_18">
    <path clip-path="url(#p8a2f4f47d8)" d="M 69.218182 44.443636 
L 69.521333 44.443636 
L 69.521333 44.443636 
L 69.824484 44.443636 
L 69.824484 44.443636 
L 70.127635 44.443636 
L 70.127635 44.443636 
L 70.430786 44.443636 
L 70.430786 44.443636 
L 70.733937 44.443636 
L 70.733937 44.443636 
L 71.037088 44.443636 
L 71.037088 63.418609 
L 71.340239 63.418609 
L 71.340239 63.418609 
L 71.64339 63.418609 
L 71.64339 63.418609 
L 71.946541 63.418609 
L 71.946541 63.418609 
L 72.249692 63.418609 
L 72.249692 63.418609 
L 72.552843 63.418609 
L 72.552843 63.418609 
L 72.855994 63.418609 
L 72.855994 63.418609 
L 73.159145 63.418609 
L 73.159145 63.418609 
L 73.462296 63.418609 
L 73.462296 63.418609 
L 73.765447 63.418609 
L 73.765447 88.1339 
L 74.068598 88.1339 
L 74.068598 88.1339 
L 74.371749 88.1339 
L 74.371749 88.1339 
L 74.6749 88.1339 
L 74.6749 88.1339 
L 74.978051 88.1339 
L 74.978051 88.1339 
L 75.281202 88.1339 
L 75.281202 88.1339 
L 75.584353 88.1339 
L 75.584353 88.1339 
L 75.887505 88.1339 
L 75.887505 88.1339 
L 76.190656 88.1339 
L 76.190656 88.1339 
L 76.493807 88.1339 
L 76.493807 88.1339 
L 76.796958 88.1339 
L 76.796958 88.1339 
L 77.100109 88.1339 
L 77.100109 88.1339 
L 77.40326 88.1339 
L 77.40326 88.1339 
L 77.706411 88.1339 
L 77.706411 88.1339 
L 78.009562 88.1339 
L 78.009562 88.1339 
L 78.312713 88.1339 
L 78.312713 88.1339 
L 78.615864 88.1339 
L 78.615864 88.1339 
L 78.919015 88.1339 
L 78.919015 88.1339 
L 79.222166 88.1339 
L 79.222166 88.1339 
L 79.525317 88.1339 
L 79.525317 88.1339 
L 79.828468 88.1339 
L 79.828468 88.1339 
L 80.131619 88.1339 
L 80.131619 88.1339 
L 80.43477 88.1339 
L 80.43477 88.1339 
L 80.737921 88.1339 
L 80.737921 88.1339 
L 81.041072 88.1339 
L 81.041072 88.1339 
L 81.344223 88.1339 
L 81.344223 88.1339 
L 81.647374 88.1339 
L 81.647374 88.1339 
L 81.950525 88.1339 
L 81.950525 88.1339 
L 82.253676 88.1339 
L 82.253676 88.1339 
L 82.556827 88.1339 
L 82.556827 88.1339 
L 82.859978 88.1339 
L 82.859978 88.1339 
L 83.163129 88.1339 
L 83.163129 88.1339 
L 83.46628 88.1339 
L 83.46628 88.1339 
L 83.769431 88.1339 
L 83.769431 88.1339 
L 84.072582 88.1339 
L 84.072582 88.1339 
L 84.375733 88.1339 
L 84.375733 88.1339 
L 84.678884 88.1339 
L 84.678884 88.1339 
L 84.982035 88.1339 
L 84.982035 88.1339 
L 85.285187 88.1339 
L 85.285187 88.1339 
L 85.588338 88.1339 
L 85.588338 88.1339 
L 85.891489 88.1339 
L 85.891489 88.1339 
L 86.19464 88.1339 
L 86.19464 88.1339 
L 86.497791 88.1339 
L 86.497791 88.1339 
" style="fill:none;stroke:#8b4513;stroke-dasharray:5.55,2.4;stroke-dashoffset:0;stroke-width:1.5;"/>
   </g>
   <g id="patch_3">
    <path d="M 54 252 
L 54 34.56 
" style="fill:none;stroke:#000000;stroke-linecap:square;stroke-linejoin:miter;stroke-width:0.8;"/>
   </g>
   <g id="patch_4">
    <path d="M 388.8 252 
L 388.8 34.56 
" style="fill:none;stroke:#000000;stroke-linecap:square;stroke-linejoin:miter;stroke-width:0.8;"/>
   </g>
   <g id="patch_5">
    <path d="M 54 252 
L 388.8 252 
" style="fill:none;stroke:#000000;stroke-linecap:square;stroke-linejoin:miter;stroke-width:0.8;"/>
   </g>
   <g id="patch_6">
    <path d="M 54 34.56 
L 388.8 34.56 
" style="fill:none;stroke:#000000;stroke-linecap:square;stroke-linejoin:miter;stroke-width:0.8;"/>
   </g>
   <g id="legend_1">
    <g id="patch_7">
     <path d="M 279.748438 131.463125 
L 381.8 131.463125 
Q 383.8 131.463125 383.8 129.463125 
L 383.8 41.56 
Q 383.8 39.56 381.8 39.56 
L 279.748438 39.56 
Q 277.748438 39.56 277.748438 41.56 
L 277.748438 129.463125 
Q 277.748438 131.463125 279.748438 131.463125 
z
" style="fill:#ffffff;opacity:0.8;stroke:#cccccc;stroke-linejoin:miter;"/>
    </g>
    <g id="line2d_19">
     <path d="M 281.748438 47.658437 
L 301.748438 47.658437 
" style="fill:none;stroke:#1e90ff;stroke-dasharray:5.55,2.4;stroke-dashoffset:0;stroke-width:1.5;"/>
    </g>
    <g id="line2d_20"/>
    <g id="text_15">
     <!-- ADMM_Scaled -->
     <g transform="translate(309.748438 51.158437)scale(0.1 -0.1)">
      <defs>
       <path d="M 34.1875 63.1875 
L 20.796875 26.90625 
L 47.609375 26.90625 
z
M 28.609375 72.90625 
L 39.796875 72.90625 
L 67.578125 0 
L 57.328125 0 
L 50.6875 18.703125 
L 17.828125 18.703125 
L 11.1875 0 
L 0.78125 0 
z
" id="DejaVuSans-65"/>
       <path d="M 19.671875 64.796875 
L 19.671875 8.109375 
L 31.59375 8.109375 
Q 46.6875 8.109375 53.6875 14.9375 
Q 60.6875 21.78125 60.6875 36.53125 
Q 60.6875 51.171875 53.6875 57.984375 
Q 46.6875 64.796875 31.59375 64.796875 
z
M 9.8125 72.90625 
L 30.078125 72.90625 
Q 51.265625 72.90625 61.171875 64.09375 
Q 71.09375 55.28125 71.09375 36.53125 
Q 71.09375 17.671875 61.125 8.828125 
Q 51.171875 0 30.078125 0 
L 9.8125 0 
z
" id="DejaVuSans-68"/>
       <path d="M 9.8125 72.90625 
L 24.515625 72.90625 
L 43.109375 23.296875 
L 61.8125 72.90625 
L 76.515625 72.90625 
L 76.515625 0 
L 66.890625 0 
L 66.890625 64.015625 
L 48.09375 14.015625 
L 38.1875 14.015625 
L 19.390625 64.015625 
L 19.390625 0 
L 9.8125 0 
z
" id="DejaVuSans-77"/>
       <path d="M 50.984375 -16.609375 
L 50.984375 -23.578125 
L -0.984375 -23.578125 
L -0.984375 -16.609375 
z
" id="DejaVuSans-95"/>
       <path d="M 53.515625 70.515625 
L 53.515625 60.890625 
Q 47.90625 63.578125 42.921875 64.890625 
Q 37.9375 66.21875 33.296875 66.21875 
Q 25.25 66.21875 20.875 63.09375 
Q 16.5 59.96875 16.5 54.203125 
Q 16.5 49.359375 19.40625 46.890625 
Q 22.3125 44.4375 30.421875 42.921875 
L 36.375 41.703125 
Q 47.40625 39.59375 52.65625 34.296875 
Q 57.90625 29 57.90625 20.125 
Q 57.90625 9.515625 50.796875 4.046875 
Q 43.703125 -1.421875 29.984375 -1.421875 
Q 24.8125 -1.421875 18.96875 -0.25 
Q 13.140625 0.921875 6.890625 3.21875 
L 6.890625 13.375 
Q 12.890625 10.015625 18.65625 8.296875 
Q 24.421875 6.59375 29.984375 6.59375 
Q 38.421875 6.59375 43.015625 9.90625 
Q 47.609375 13.234375 47.609375 19.390625 
Q 47.609375 24.75 44.3125 27.78125 
Q 41.015625 30.8125 33.5 32.328125 
L 27.484375 33.5 
Q 16.453125 35.6875 11.515625 40.375 
Q 6.59375 45.0625 6.59375 53.421875 
Q 6.59375 63.09375 13.40625 68.65625 
Q 20.21875 74.21875 32.171875 74.21875 
Q 37.3125 74.21875 42.625 73.28125 
Q 47.953125 72.359375 53.515625 70.515625 
z
" id="DejaVuSans-83"/>
       <path d="M 45.40625 46.390625 
L 45.40625 75.984375 
L 54.390625 75.984375 
L 54.390625 0 
L 45.40625 0 
L 45.40625 8.203125 
Q 42.578125 3.328125 38.25 0.953125 
Q 33.9375 -1.421875 27.875 -1.421875 
Q 17.96875 -1.421875 11.734375 6.484375 
Q 5.515625 14.40625 5.515625 27.296875 
Q 5.515625 40.1875 11.734375 48.09375 
Q 17.96875 56 27.875 56 
Q 33.9375 56 38.25 53.625 
Q 42.578125 51.265625 45.40625 46.390625 
z
M 14.796875 27.296875 
Q 14.796875 17.390625 18.875 11.75 
Q 22.953125 6.109375 30.078125 6.109375 
Q 37.203125 6.109375 41.296875 11.75 
Q 45.40625 17.390625 45.40625 27.296875 
Q 45.40625 37.203125 41.296875 42.84375 
Q 37.203125 48.484375 30.078125 48.484375 
Q 22.953125 48.484375 18.875 42.84375 
Q 14.796875 37.203125 14.796875 27.296875 
z
" id="DejaVuSans-100"/>
      </defs>
      <use xlink:href="#DejaVuSans-65"/>
      <use x="68.408203" xlink:href="#DejaVuSans-68"/>
      <use x="145.410156" xlink:href="#DejaVuSans-77"/>
      <use x="231.689453" xlink:href="#DejaVuSans-77"/>
      <use x="317.96875" xlink:href="#DejaVuSans-95"/>
      <use x="367.96875" xlink:href="#DejaVuSans-83"/>
      <use x="431.445312" xlink:href="#DejaVuSans-99"/>
      <use x="486.425781" xlink:href="#DejaVuSans-97"/>
      <use x="547.705078" xlink:href="#DejaVuSans-108"/>
      <use x="575.488281" xlink:href="#DejaVuSans-101"/>
      <use x="637.011719" xlink:href="#DejaVuSans-100"/>
     </g>
    </g>
    <g id="line2d_21">
     <path d="M 281.748438 62.614688 
L 301.748438 62.614688 
" style="fill:none;stroke:#ff8c00;stroke-dasharray:5.55,2.4;stroke-dashoffset:0;stroke-width:1.5;"/>
    </g>
    <g id="line2d_22"/>
    <g id="text_16">
     <!-- CUATRO_1 -->
     <g transform="translate(309.748438 66.114688)scale(0.1 -0.1)">
      <defs>
       <path d="M 8.6875 72.90625 
L 18.609375 72.90625 
L 18.609375 28.609375 
Q 18.609375 16.890625 22.84375 11.734375 
Q 27.09375 6.59375 36.625 6.59375 
Q 46.09375 6.59375 50.34375 11.734375 
Q 54.59375 16.890625 54.59375 28.609375 
L 54.59375 72.90625 
L 64.5 72.90625 
L 64.5 27.390625 
Q 64.5 13.140625 57.4375 5.859375 
Q 50.390625 -1.421875 36.625 -1.421875 
Q 22.796875 -1.421875 15.734375 5.859375 
Q 8.6875 13.140625 8.6875 27.390625 
z
" id="DejaVuSans-85"/>
       <path d="M -0.296875 72.90625 
L 61.375 72.90625 
L 61.375 64.59375 
L 35.5 64.59375 
L 35.5 0 
L 25.59375 0 
L 25.59375 64.59375 
L -0.296875 64.59375 
z
" id="DejaVuSans-84"/>
       <path d="M 44.390625 34.1875 
Q 47.5625 33.109375 50.5625 29.59375 
Q 53.5625 26.078125 56.59375 19.921875 
L 66.609375 0 
L 56 0 
L 46.6875 18.703125 
Q 43.0625 26.03125 39.671875 28.421875 
Q 36.28125 30.8125 30.421875 30.8125 
L 19.671875 30.8125 
L 19.671875 0 
L 9.8125 0 
L 9.8125 72.90625 
L 32.078125 72.90625 
Q 44.578125 72.90625 50.734375 67.671875 
Q 56.890625 62.453125 56.890625 51.90625 
Q 56.890625 45.015625 53.6875 40.46875 
Q 50.484375 35.9375 44.390625 34.1875 
z
M 19.671875 64.796875 
L 19.671875 38.921875 
L 32.078125 38.921875 
Q 39.203125 38.921875 42.84375 42.21875 
Q 46.484375 45.515625 46.484375 51.90625 
Q 46.484375 58.296875 42.84375 61.546875 
Q 39.203125 64.796875 32.078125 64.796875 
z
" id="DejaVuSans-82"/>
       <path d="M 39.40625 66.21875 
Q 28.65625 66.21875 22.328125 58.203125 
Q 16.015625 50.203125 16.015625 36.375 
Q 16.015625 22.609375 22.328125 14.59375 
Q 28.65625 6.59375 39.40625 6.59375 
Q 50.140625 6.59375 56.421875 14.59375 
Q 62.703125 22.609375 62.703125 36.375 
Q 62.703125 50.203125 56.421875 58.203125 
Q 50.140625 66.21875 39.40625 66.21875 
z
M 39.40625 74.21875 
Q 54.734375 74.21875 63.90625 63.9375 
Q 73.09375 53.65625 73.09375 36.375 
Q 73.09375 19.140625 63.90625 8.859375 
Q 54.734375 -1.421875 39.40625 -1.421875 
Q 24.03125 -1.421875 14.8125 8.828125 
Q 5.609375 19.09375 5.609375 36.375 
Q 5.609375 53.65625 14.8125 63.9375 
Q 24.03125 74.21875 39.40625 74.21875 
z
" id="DejaVuSans-79"/>
      </defs>
      <use xlink:href="#DejaVuSans-67"/>
      <use x="69.824219" xlink:href="#DejaVuSans-85"/>
      <use x="143.017578" xlink:href="#DejaVuSans-65"/>
      <use x="203.675781" xlink:href="#DejaVuSans-84"/>
      <use x="264.759766" xlink:href="#DejaVuSans-82"/>
      <use x="334.242188" xlink:href="#DejaVuSans-79"/>
      <use x="412.953125" xlink:href="#DejaVuSans-95"/>
      <use x="462.953125" xlink:href="#DejaVuSans-49"/>
     </g>
    </g>
    <g id="line2d_23">
     <path d="M 281.748438 77.570937 
L 301.748438 77.570937 
" style="fill:none;stroke:#008000;stroke-dasharray:5.55,2.4;stroke-dashoffset:0;stroke-width:1.5;"/>
    </g>
    <g id="line2d_24"/>
    <g id="text_17">
     <!-- Py-BOBYQA -->
     <g transform="translate(309.748438 81.070937)scale(0.1 -0.1)">
      <defs>
       <path d="M 19.671875 64.796875 
L 19.671875 37.40625 
L 32.078125 37.40625 
Q 38.96875 37.40625 42.71875 40.96875 
Q 46.484375 44.53125 46.484375 51.125 
Q 46.484375 57.671875 42.71875 61.234375 
Q 38.96875 64.796875 32.078125 64.796875 
z
M 9.8125 72.90625 
L 32.078125 72.90625 
Q 44.34375 72.90625 50.609375 67.359375 
Q 56.890625 61.8125 56.890625 51.125 
Q 56.890625 40.328125 50.609375 34.8125 
Q 44.34375 29.296875 32.078125 29.296875 
L 19.671875 29.296875 
L 19.671875 0 
L 9.8125 0 
z
" id="DejaVuSans-80"/>
       <path d="M 32.171875 -5.078125 
Q 28.375 -14.84375 24.75 -17.8125 
Q 21.140625 -20.796875 15.09375 -20.796875 
L 7.90625 -20.796875 
L 7.90625 -13.28125 
L 13.1875 -13.28125 
Q 16.890625 -13.28125 18.9375 -11.515625 
Q 21 -9.765625 23.484375 -3.21875 
L 25.09375 0.875 
L 2.984375 54.6875 
L 12.5 54.6875 
L 29.59375 11.921875 
L 46.6875 54.6875 
L 56.203125 54.6875 
z
" id="DejaVuSans-121"/>
       <path d="M 4.890625 31.390625 
L 31.203125 31.390625 
L 31.203125 23.390625 
L 4.890625 23.390625 
z
" id="DejaVuSans-45"/>
       <path d="M 19.671875 34.8125 
L 19.671875 8.109375 
L 35.5 8.109375 
Q 43.453125 8.109375 47.28125 11.40625 
Q 51.125 14.703125 51.125 21.484375 
Q 51.125 28.328125 47.28125 31.5625 
Q 43.453125 34.8125 35.5 34.8125 
z
M 19.671875 64.796875 
L 19.671875 42.828125 
L 34.28125 42.828125 
Q 41.5 42.828125 45.03125 45.53125 
Q 48.578125 48.25 48.578125 53.8125 
Q 48.578125 59.328125 45.03125 62.0625 
Q 41.5 64.796875 34.28125 64.796875 
z
M 9.8125 72.90625 
L 35.015625 72.90625 
Q 46.296875 72.90625 52.390625 68.21875 
Q 58.5 63.53125 58.5 54.890625 
Q 58.5 48.1875 55.375 44.234375 
Q 52.25 40.28125 46.1875 39.3125 
Q 53.46875 37.75 57.5 32.78125 
Q 61.53125 27.828125 61.53125 20.40625 
Q 61.53125 10.640625 54.890625 5.3125 
Q 48.25 0 35.984375 0 
L 9.8125 0 
z
" id="DejaVuSans-66"/>
       <path d="M -0.203125 72.90625 
L 10.40625 72.90625 
L 30.609375 42.921875 
L 50.6875 72.90625 
L 61.28125 72.90625 
L 35.5 34.71875 
L 35.5 0 
L 25.59375 0 
L 25.59375 34.71875 
z
" id="DejaVuSans-89"/>
       <path d="M 39.40625 66.21875 
Q 28.65625 66.21875 22.328125 58.203125 
Q 16.015625 50.203125 16.015625 36.375 
Q 16.015625 22.609375 22.328125 14.59375 
Q 28.65625 6.59375 39.40625 6.59375 
Q 50.140625 6.59375 56.421875 14.59375 
Q 62.703125 22.609375 62.703125 36.375 
Q 62.703125 50.203125 56.421875 58.203125 
Q 50.140625 66.21875 39.40625 66.21875 
z
M 53.21875 1.3125 
L 66.21875 -12.890625 
L 54.296875 -12.890625 
L 43.5 -1.21875 
Q 41.890625 -1.3125 41.03125 -1.359375 
Q 40.1875 -1.421875 39.40625 -1.421875 
Q 24.03125 -1.421875 14.8125 8.859375 
Q 5.609375 19.140625 5.609375 36.375 
Q 5.609375 53.65625 14.8125 63.9375 
Q 24.03125 74.21875 39.40625 74.21875 
Q 54.734375 74.21875 63.90625 63.9375 
Q 73.09375 53.65625 73.09375 36.375 
Q 73.09375 23.6875 67.984375 14.640625 
Q 62.890625 5.609375 53.21875 1.3125 
z
" id="DejaVuSans-81"/>
      </defs>
      <use xlink:href="#DejaVuSans-80"/>
      <use x="60.302734" xlink:href="#DejaVuSans-121"/>
      <use x="117.732422" xlink:href="#DejaVuSans-45"/>
      <use x="150.191406" xlink:href="#DejaVuSans-66"/>
      <use x="217.044922" xlink:href="#DejaVuSans-79"/>
      <use x="295.755859" xlink:href="#DejaVuSans-66"/>
      <use x="358.859375" xlink:href="#DejaVuSans-89"/>
      <use x="419.943359" xlink:href="#DejaVuSans-81"/>
      <use x="498.654297" xlink:href="#DejaVuSans-65"/>
     </g>
    </g>
    <g id="line2d_25">
     <path d="M 281.748438 92.249062 
L 301.748438 92.249062 
" style="fill:none;stroke:#ff0000;stroke-dasharray:5.55,2.4;stroke-dashoffset:0;stroke-width:1.5;"/>
    </g>
    <g id="line2d_26"/>
    <g id="text_18">
     <!-- DIRECT-L -->
     <g transform="translate(309.748438 95.749062)scale(0.1 -0.1)">
      <defs>
       <path d="M 9.8125 72.90625 
L 19.671875 72.90625 
L 19.671875 0 
L 9.8125 0 
z
" id="DejaVuSans-73"/>
       <path d="M 9.8125 72.90625 
L 55.90625 72.90625 
L 55.90625 64.59375 
L 19.671875 64.59375 
L 19.671875 43.015625 
L 54.390625 43.015625 
L 54.390625 34.71875 
L 19.671875 34.71875 
L 19.671875 8.296875 
L 56.78125 8.296875 
L 56.78125 0 
L 9.8125 0 
z
" id="DejaVuSans-69"/>
       <path d="M 9.8125 72.90625 
L 19.671875 72.90625 
L 19.671875 8.296875 
L 55.171875 8.296875 
L 55.171875 0 
L 9.8125 0 
z
" id="DejaVuSans-76"/>
      </defs>
      <use xlink:href="#DejaVuSans-68"/>
      <use x="77.001953" xlink:href="#DejaVuSans-73"/>
      <use x="106.494141" xlink:href="#DejaVuSans-82"/>
      <use x="175.976562" xlink:href="#DejaVuSans-69"/>
      <use x="239.160156" xlink:href="#DejaVuSans-67"/>
      <use x="308.984375" xlink:href="#DejaVuSans-84"/>
      <use x="360.943359" xlink:href="#DejaVuSans-45"/>
      <use x="397.027344" xlink:href="#DejaVuSans-76"/>
     </g>
    </g>
    <g id="line2d_27">
     <path d="M 281.748438 106.927188 
L 301.748438 106.927188 
" style="fill:none;stroke:#9400d3;stroke-dasharray:5.55,2.4;stroke-dashoffset:0;stroke-width:1.5;"/>
    </g>
    <g id="line2d_28"/>
    <g id="text_19">
     <!-- CUATRO_2 -->
     <g transform="translate(309.748438 110.427188)scale(0.1 -0.1)">
      <use xlink:href="#DejaVuSans-67"/>
      <use x="69.824219" xlink:href="#DejaVuSans-85"/>
      <use x="143.017578" xlink:href="#DejaVuSans-65"/>
      <use x="203.675781" xlink:href="#DejaVuSans-84"/>
      <use x="264.759766" xlink:href="#DejaVuSans-82"/>
      <use x="334.242188" xlink:href="#DejaVuSans-79"/>
      <use x="412.953125" xlink:href="#DejaVuSans-95"/>
      <use x="462.953125" xlink:href="#DejaVuSans-50"/>
     </g>
    </g>
    <g id="line2d_29">
     <path d="M 281.748438 121.883438 
L 301.748438 121.883438 
" style="fill:none;stroke:#8b4513;stroke-dasharray:5.55,2.4;stroke-dashoffset:0;stroke-width:1.5;"/>
    </g>
    <g id="line2d_30"/>
    <g id="text_20">
     <!-- BO -->
     <g transform="translate(309.748438 125.383438)scale(0.1 -0.1)">
      <use xlink:href="#DejaVuSans-66"/>
      <use x="66.853516" xlink:href="#DejaVuSans-79"/>
     </g>
    </g>
   </g>
  </g>
 </g>
 <defs>
  <clipPath id="p8a2f4f47d8">
   <rect height="217.44" width="334.8" x="54" y="34.56"/>
  </clipPath>
 </defs>
</svg>
