<?xml version="1.0" encoding="utf-8" standalone="no"?>
<!DOCTYPE svg PUBLIC "-//W3C//DTD SVG 1.1//EN"
  "http://www.w3.org/Graphics/SVG/1.1/DTD/svg11.dtd">
<!-- Created with matplotlib (https://matplotlib.org/) -->
<svg height="288pt" version="1.1" viewBox="0 0 432 288" width="432pt" xmlns="http://www.w3.org/2000/svg" xmlns:xlink="http://www.w3.org/1999/xlink">
 <metadata>
  <rdf:RDF xmlns:cc="http://creativecommons.org/ns#" xmlns:dc="http://purl.org/dc/elements/1.1/" xmlns:rdf="http://www.w3.org/1999/02/22-rdf-syntax-ns#">
   <cc:Work>
    <dc:type rdf:resource="http://purl.org/dc/dcmitype/StillImage"/>
    <dc:date>2022-03-04T16:31:09.263722</dc:date>
    <dc:format>image/svg+xml</dc:format>
    <dc:creator>
     <cc:Agent>
      <dc:title>Matplotlib v3.3.4, https://matplotlib.org/</dc:title>
     </cc:Agent>
    </dc:creator>
   </cc:Work>
  </rdf:RDF>
 </metadata>
 <defs>
  <style type="text/css">*{stroke-linecap:butt;stroke-linejoin:round;}</style>
 </defs>
 <g id="figure_1">
  <g id="patch_1">
   <path d="M 0 288 
L 432 288 
L 432 0 
L 0 0 
z
" style="fill:#ffffff;"/>
  </g>
  <g id="axes_1">
   <g id="patch_2">
    <path d="M 54 252 
L 388.8 252 
L 388.8 34.56 
L 54 34.56 
z
" style="fill:#ffffff;"/>
   </g>
   <g id="PolyCollection_1">
    <defs>
     <path d="M 69.218182 -243.556364 
L 69.218182 -243.556364 
L 75.429685 -243.556364 
L 75.429685 -243.556364 
L 81.641187 -243.556364 
L 81.641187 -243.556364 
L 87.85269 -243.556364 
L 87.85269 -243.556364 
L 94.064193 -243.556364 
L 94.064193 -243.556364 
L 100.275696 -243.556364 
L 100.275696 -243.556364 
L 106.487199 -243.556364 
L 106.487199 -243.556364 
L 112.698701 -243.556364 
L 112.698701 -140.96818 
L 118.910204 -140.96818 
L 118.910204 -140.96818 
L 125.121707 -140.96818 
L 125.121707 -87.974552 
L 131.33321 -87.974552 
L 131.33321 -87.974552 
L 137.544712 -87.974552 
L 137.544712 -87.974552 
L 143.756215 -87.974552 
L 143.756215 -87.974552 
L 149.967718 -87.974552 
L 149.967718 -74.407576 
L 156.179221 -74.407576 
L 156.179221 -74.407576 
L 162.390724 -74.407576 
L 162.390724 -74.407576 
L 168.602226 -74.407576 
L 168.602226 -74.407576 
L 174.813729 -74.407576 
L 174.813729 -74.407576 
L 181.025232 -74.407576 
L 181.025232 -74.407576 
L 187.236735 -74.407576 
L 187.236735 -74.407576 
L 193.448237 -74.407576 
L 193.448237 -74.407576 
L 199.65974 -74.407576 
L 199.65974 -74.407576 
L 205.871243 -74.407576 
L 205.871243 -74.407576 
L 212.082746 -74.407576 
L 212.082746 -74.407576 
L 218.294249 -74.407576 
L 218.294249 -74.407576 
L 224.505751 -74.407576 
L 224.505751 -74.407576 
L 230.717254 -74.407576 
L 230.717254 -74.407576 
L 236.928757 -74.407576 
L 236.928757 -83.79335 
L 243.14026 -83.79335 
L 243.14026 -83.79335 
L 249.351763 -83.79335 
L 249.351763 -83.79335 
L 255.563265 -83.79335 
L 255.563265 -83.79335 
L 261.774768 -83.79335 
L 261.774768 -83.79335 
L 267.986271 -83.79335 
L 267.986271 -83.79335 
L 274.197774 -83.79335 
L 274.197774 -83.79335 
L 280.409276 -83.79335 
L 280.409276 -83.79335 
L 286.620779 -83.79335 
L 286.620779 -83.79335 
L 292.832282 -83.79335 
L 292.832282 -83.79335 
L 299.043785 -83.79335 
L 299.043785 -83.79335 
L 305.255288 -83.79335 
L 305.255288 -83.79335 
L 311.46679 -83.79335 
L 311.46679 -87.690565 
L 317.678293 -87.690565 
L 317.678293 -87.690565 
L 323.889796 -87.690565 
L 323.889796 -87.713302 
L 330.101299 -87.713302 
L 330.101299 -87.713302 
L 336.312801 -87.713302 
L 336.312801 -87.718102 
L 342.524304 -87.718102 
L 342.524304 -87.718102 
L 348.735807 -87.718102 
L 348.735807 -87.718102 
L 354.94731 -87.718102 
L 354.94731 -87.718102 
L 361.158813 -87.718102 
L 361.158813 -87.718102 
L 367.370315 -87.718102 
L 367.370315 -87.718102 
L 373.581818 -87.718102 
L 373.581818 -87.718102 
L 373.581818 -87.718102 
L 373.581818 -87.718102 
L 373.581818 -87.718102 
L 367.370315 -87.718102 
L 367.370315 -87.718102 
L 361.158813 -87.718102 
L 361.158813 -87.718102 
L 354.94731 -87.718102 
L 354.94731 -87.718102 
L 348.735807 -87.718102 
L 348.735807 -87.718102 
L 342.524304 -87.718102 
L 342.524304 -87.718102 
L 336.312801 -87.718102 
L 336.312801 -87.713302 
L 330.101299 -87.713302 
L 330.101299 -87.713302 
L 323.889796 -87.713302 
L 323.889796 -87.690565 
L 317.678293 -87.690565 
L 317.678293 -87.690565 
L 311.46679 -87.690565 
L 311.46679 -83.79335 
L 305.255288 -83.79335 
L 305.255288 -83.79335 
L 299.043785 -83.79335 
L 299.043785 -83.79335 
L 292.832282 -83.79335 
L 292.832282 -83.79335 
L 286.620779 -83.79335 
L 286.620779 -83.79335 
L 280.409276 -83.79335 
L 280.409276 -83.79335 
L 274.197774 -83.79335 
L 274.197774 -83.79335 
L 267.986271 -83.79335 
L 267.986271 -83.79335 
L 261.774768 -83.79335 
L 261.774768 -83.79335 
L 255.563265 -83.79335 
L 255.563265 -83.79335 
L 249.351763 -83.79335 
L 249.351763 -83.79335 
L 243.14026 -83.79335 
L 243.14026 -83.79335 
L 236.928757 -83.79335 
L 236.928757 -74.407576 
L 230.717254 -74.407576 
L 230.717254 -74.407576 
L 224.505751 -74.407576 
L 224.505751 -74.407576 
L 218.294249 -74.407576 
L 218.294249 -74.407576 
L 212.082746 -74.407576 
L 212.082746 -74.407576 
L 205.871243 -74.407576 
L 205.871243 -74.407576 
L 199.65974 -74.407576 
L 199.65974 -74.407576 
L 193.448237 -74.407576 
L 193.448237 -74.407576 
L 187.236735 -74.407576 
L 187.236735 -74.407576 
L 181.025232 -74.407576 
L 181.025232 -74.407576 
L 174.813729 -74.407576 
L 174.813729 -74.407576 
L 168.602226 -74.407576 
L 168.602226 -74.407576 
L 162.390724 -74.407576 
L 162.390724 -74.407576 
L 156.179221 -74.407576 
L 156.179221 -74.407576 
L 149.967718 -74.407576 
L 149.967718 -87.974552 
L 143.756215 -87.974552 
L 143.756215 -87.974552 
L 137.544712 -87.974552 
L 137.544712 -87.974552 
L 131.33321 -87.974552 
L 131.33321 -87.974552 
L 125.121707 -87.974552 
L 125.121707 -140.96818 
L 118.910204 -140.96818 
L 118.910204 -140.96818 
L 112.698701 -140.96818 
L 112.698701 -243.556364 
L 106.487199 -243.556364 
L 106.487199 -243.556364 
L 100.275696 -243.556364 
L 100.275696 -243.556364 
L 94.064193 -243.556364 
L 94.064193 -243.556364 
L 87.85269 -243.556364 
L 87.85269 -243.556364 
L 81.641187 -243.556364 
L 81.641187 -243.556364 
L 75.429685 -243.556364 
L 75.429685 -243.556364 
L 69.218182 -243.556364 
z
" id="mbaa6bb536c" style="stroke:#ff8c00;stroke-opacity:0.5;"/>
    </defs>
    <g clip-path="url(#p4814b9f9f2)">
     <use style="fill:#ff8c00;fill-opacity:0.5;stroke:#ff8c00;stroke-opacity:0.5;" x="0" xlink:href="#mbaa6bb536c" y="288"/>
    </g>
   </g>
   <g id="PolyCollection_2">
    <defs>
     <path d="M 69.218182 -243.556364 
L 69.218182 -243.556364 
L 75.429685 -243.556364 
L 75.429685 -243.556364 
L 81.641187 -243.556364 
L 81.641187 -229.103292 
L 87.85269 -229.103292 
L 87.85269 -229.103292 
L 94.064193 -229.103292 
L 94.064193 -229.103292 
L 100.275696 -229.103292 
L 100.275696 -192.484513 
L 106.487199 -192.484513 
L 106.487199 -192.484513 
L 112.698701 -192.484513 
L 112.698701 -192.484513 
L 118.910204 -192.484513 
L 118.910204 -192.484513 
L 125.121707 -192.484513 
L 125.121707 -192.484513 
L 131.33321 -192.484513 
L 131.33321 -192.484513 
L 137.544712 -192.484513 
L 137.544712 -192.484513 
L 143.756215 -192.484513 
L 143.756215 -192.484513 
L 149.967718 -192.484513 
L 149.967718 -192.484513 
L 156.179221 -192.484513 
L 156.179221 -158.993969 
L 162.390724 -158.993969 
L 162.390724 -158.993969 
L 168.602226 -158.993969 
L 168.602226 -158.993969 
L 174.813729 -158.993969 
L 174.813729 -158.993969 
L 181.025232 -158.993969 
L 181.025232 -158.993969 
L 187.236735 -158.993969 
L 187.236735 -158.993969 
L 193.448237 -158.993969 
L 193.448237 -158.993969 
L 199.65974 -158.993969 
L 199.65974 -117.001733 
L 205.871243 -117.001733 
L 205.871243 -117.001733 
L 212.082746 -117.001733 
L 212.082746 -117.001733 
L 218.294249 -117.001733 
L 218.294249 -117.001733 
L 224.505751 -117.001733 
L 224.505751 -117.001733 
L 230.717254 -117.001733 
L 230.717254 -117.001733 
L 236.928757 -117.001733 
L 236.928757 -117.001733 
L 243.14026 -117.001733 
L 243.14026 -117.001733 
L 249.351763 -117.001733 
L 249.351763 -117.001733 
L 255.563265 -117.001733 
L 255.563265 -117.001733 
L 261.774768 -117.001733 
L 261.774768 -107.643262 
L 267.986271 -107.643262 
L 267.986271 -107.643262 
L 274.197774 -107.643262 
L 274.197774 -107.643262 
L 280.409276 -107.643262 
L 280.409276 -97.425544 
L 286.620779 -97.425544 
L 286.620779 -97.425544 
L 292.832282 -97.425544 
L 292.832282 -97.425544 
L 299.043785 -97.425544 
L 299.043785 -97.425544 
L 305.255288 -97.425544 
L 305.255288 -97.425544 
L 311.46679 -97.425544 
L 311.46679 -97.425544 
L 317.678293 -97.425544 
L 317.678293 -77.595913 
L 323.889796 -77.595913 
L 323.889796 -77.595913 
L 330.101299 -77.595913 
L 330.101299 -77.595913 
L 336.312801 -77.595913 
L 336.312801 -77.595913 
L 342.524304 -77.595913 
L 342.524304 -77.595913 
L 348.735807 -77.595913 
L 348.735807 -77.595913 
L 354.94731 -77.595913 
L 354.94731 -77.595913 
L 361.158813 -77.595913 
L 361.158813 -77.595913 
L 367.370315 -77.595913 
L 367.370315 -77.595913 
L 373.581818 -77.595913 
L 373.581818 -77.595913 
L 373.581818 -86.241892 
L 373.581818 -86.241892 
L 373.581818 -86.241892 
L 367.370315 -86.241892 
L 367.370315 -77.595913 
L 361.158813 -77.595913 
L 361.158813 -77.595913 
L 354.94731 -77.595913 
L 354.94731 -77.595913 
L 348.735807 -77.595913 
L 348.735807 -77.595913 
L 342.524304 -77.595913 
L 342.524304 -77.595913 
L 336.312801 -77.595913 
L 336.312801 -77.595913 
L 330.101299 -77.595913 
L 330.101299 -107.643262 
L 323.889796 -107.643262 
L 323.889796 -107.643262 
L 317.678293 -107.643262 
L 317.678293 -107.643262 
L 311.46679 -107.643262 
L 311.46679 -107.643262 
L 305.255288 -107.643262 
L 305.255288 -107.643262 
L 299.043785 -107.643262 
L 299.043785 -107.643262 
L 292.832282 -107.643262 
L 292.832282 -107.643262 
L 286.620779 -107.643262 
L 286.620779 -107.643262 
L 280.409276 -107.643262 
L 280.409276 -117.001733 
L 274.197774 -117.001733 
L 274.197774 -117.001733 
L 267.986271 -117.001733 
L 267.986271 -117.001733 
L 261.774768 -117.001733 
L 261.774768 -117.001733 
L 255.563265 -117.001733 
L 255.563265 -117.001733 
L 249.351763 -117.001733 
L 249.351763 -117.001733 
L 243.14026 -117.001733 
L 243.14026 -117.001733 
L 236.928757 -117.001733 
L 236.928757 -158.993969 
L 230.717254 -158.993969 
L 230.717254 -158.993969 
L 224.505751 -158.993969 
L 224.505751 -158.993969 
L 218.294249 -158.993969 
L 218.294249 -158.993969 
L 212.082746 -158.993969 
L 212.082746 -158.993969 
L 205.871243 -158.993969 
L 205.871243 -158.993969 
L 199.65974 -158.993969 
L 199.65974 -158.993969 
L 193.448237 -158.993969 
L 193.448237 -158.993969 
L 187.236735 -158.993969 
L 187.236735 -158.993969 
L 181.025232 -158.993969 
L 181.025232 -192.484513 
L 174.813729 -192.484513 
L 174.813729 -192.484513 
L 168.602226 -192.484513 
L 168.602226 -192.484513 
L 162.390724 -192.484513 
L 162.390724 -192.484513 
L 156.179221 -192.484513 
L 156.179221 -192.484513 
L 149.967718 -192.484513 
L 149.967718 -192.484513 
L 143.756215 -192.484513 
L 143.756215 -192.484513 
L 137.544712 -192.484513 
L 137.544712 -192.484513 
L 131.33321 -192.484513 
L 131.33321 -192.484513 
L 125.121707 -192.484513 
L 125.121707 -229.103292 
L 118.910204 -229.103292 
L 118.910204 -229.103292 
L 112.698701 -229.103292 
L 112.698701 -229.103292 
L 106.487199 -229.103292 
L 106.487199 -229.103292 
L 100.275696 -229.103292 
L 100.275696 -229.103292 
L 94.064193 -229.103292 
L 94.064193 -243.556364 
L 87.85269 -243.556364 
L 87.85269 -243.556364 
L 81.641187 -243.556364 
L 81.641187 -243.556364 
L 75.429685 -243.556364 
L 75.429685 -243.556364 
L 69.218182 -243.556364 
z
" id="md70ea2def1" style="stroke:#ff0000;stroke-opacity:0.5;"/>
    </defs>
    <g clip-path="url(#p4814b9f9f2)">
     <use style="fill:#ff0000;fill-opacity:0.5;stroke:#ff0000;stroke-opacity:0.5;" x="0" xlink:href="#md70ea2def1" y="288"/>
    </g>
   </g>
   <g id="PolyCollection_3">
    <defs>
     <path d="M 69.218182 -243.556364 
L 69.218182 -243.556364 
L 75.429685 -243.556364 
L 75.429685 -243.556364 
L 81.641187 -243.556364 
L 81.641187 -241.323062 
L 87.85269 -241.323062 
L 87.85269 -241.323062 
L 94.064193 -241.323062 
L 94.064193 -241.323062 
L 100.275696 -241.323062 
L 100.275696 -241.323062 
L 106.487199 -241.323062 
L 106.487199 -189.747383 
L 112.698701 -189.747383 
L 112.698701 -189.747383 
L 118.910204 -189.747383 
L 118.910204 -189.747383 
L 125.121707 -189.747383 
L 125.121707 -189.747383 
L 131.33321 -189.747383 
L 131.33321 -53.074327 
L 137.544712 -53.074327 
L 137.544712 -52.509566 
L 143.756215 -52.509566 
L 143.756215 -52.504538 
L 149.967718 -52.504538 
L 149.967718 -52.504538 
L 156.179221 -52.504538 
L 156.179221 -52.504538 
L 162.390724 -52.504538 
L 162.390724 -52.504538 
L 168.602226 -52.504538 
L 168.602226 -85.866229 
L 174.813729 -85.866229 
L 174.813729 -87.483083 
L 181.025232 -87.483083 
L 181.025232 -87.728718 
L 187.236735 -87.728718 
L 187.236735 -87.728718 
L 193.448237 -87.728718 
L 193.448237 -87.728718 
L 199.65974 -87.728718 
L 199.65974 -87.735151 
L 205.871243 -87.735151 
L 205.871243 -87.735151 
L 212.082746 -87.735151 
L 212.082746 -87.735151 
L 218.294249 -87.735151 
L 218.294249 -87.735151 
L 224.505751 -87.735151 
L 224.505751 -87.735151 
L 230.717254 -87.735151 
L 230.717254 -87.735152 
L 236.928757 -87.735152 
L 236.928757 -87.735152 
L 243.14026 -87.735152 
L 243.14026 -87.735152 
L 249.351763 -87.735152 
L 249.351763 -87.735152 
L 255.563265 -87.735152 
L 255.563265 -87.735152 
L 261.774768 -87.735152 
L 261.774768 -87.735152 
L 267.986271 -87.735152 
L 267.986271 -87.735152 
L 274.197774 -87.735152 
L 274.197774 -87.735152 
L 280.409276 -87.735152 
L 280.409276 -87.735152 
L 286.620779 -87.735152 
L 286.620779 -87.735152 
L 292.832282 -87.735152 
L 292.832282 -87.735152 
L 299.043785 -87.735152 
L 299.043785 -87.735152 
L 305.255288 -87.735152 
L 305.255288 -87.735152 
L 311.46679 -87.735152 
L 311.46679 -87.735152 
L 317.678293 -87.735152 
L 317.678293 -87.735152 
L 323.889796 -87.735152 
L 323.889796 -87.735152 
L 330.101299 -87.735152 
L 330.101299 -87.735152 
L 336.312801 -87.735152 
L 336.312801 -87.735152 
L 342.524304 -87.735152 
L 342.524304 -87.735152 
L 348.735807 -87.735152 
L 348.735807 -87.735152 
L 354.94731 -87.735152 
L 354.94731 -87.735152 
L 361.158813 -87.735152 
L 361.158813 -87.735152 
L 367.370315 -87.735152 
L 367.370315 -87.735152 
L 373.581818 -87.735152 
L 373.581818 -87.735152 
L 373.581818 -87.735152 
L 373.581818 -87.735152 
L 373.581818 -87.735152 
L 367.370315 -87.735152 
L 367.370315 -87.735152 
L 361.158813 -87.735152 
L 361.158813 -87.735152 
L 354.94731 -87.735152 
L 354.94731 -87.735152 
L 348.735807 -87.735152 
L 348.735807 -87.735152 
L 342.524304 -87.735152 
L 342.524304 -87.735152 
L 336.312801 -87.735152 
L 336.312801 -87.735152 
L 330.101299 -87.735152 
L 330.101299 -87.735152 
L 323.889796 -87.735152 
L 323.889796 -87.735152 
L 317.678293 -87.735152 
L 317.678293 -87.735152 
L 311.46679 -87.735152 
L 311.46679 -87.735152 
L 305.255288 -87.735152 
L 305.255288 -87.735152 
L 299.043785 -87.735152 
L 299.043785 -87.735152 
L 292.832282 -87.735152 
L 292.832282 -87.735152 
L 286.620779 -87.735152 
L 286.620779 -87.735152 
L 280.409276 -87.735152 
L 280.409276 -87.735152 
L 274.197774 -87.735152 
L 274.197774 -87.735152 
L 267.986271 -87.735152 
L 267.986271 -87.735152 
L 261.774768 -87.735152 
L 261.774768 -87.735152 
L 255.563265 -87.735152 
L 255.563265 -87.735152 
L 249.351763 -87.735152 
L 249.351763 -87.735152 
L 243.14026 -87.735152 
L 243.14026 -87.735152 
L 236.928757 -87.735152 
L 236.928757 -87.735152 
L 230.717254 -87.735152 
L 230.717254 -87.735151 
L 224.505751 -87.735151 
L 224.505751 -87.735151 
L 218.294249 -87.735151 
L 218.294249 -87.735151 
L 212.082746 -87.735151 
L 212.082746 -87.735151 
L 205.871243 -87.735151 
L 205.871243 -87.735151 
L 199.65974 -87.735151 
L 199.65974 -87.728718 
L 193.448237 -87.728718 
L 193.448237 -87.728718 
L 187.236735 -87.728718 
L 187.236735 -87.728718 
L 181.025232 -87.728718 
L 181.025232 -87.483083 
L 174.813729 -87.483083 
L 174.813729 -85.866229 
L 168.602226 -85.866229 
L 168.602226 -52.504538 
L 162.390724 -52.504538 
L 162.390724 -52.504538 
L 156.179221 -52.504538 
L 156.179221 -52.504538 
L 149.967718 -52.504538 
L 149.967718 -52.504538 
L 143.756215 -52.504538 
L 143.756215 -52.509566 
L 137.544712 -52.509566 
L 137.544712 -53.074327 
L 131.33321 -53.074327 
L 131.33321 -189.747383 
L 125.121707 -189.747383 
L 125.121707 -189.747383 
L 118.910204 -189.747383 
L 118.910204 -189.747383 
L 112.698701 -189.747383 
L 112.698701 -189.747383 
L 106.487199 -189.747383 
L 106.487199 -241.323062 
L 100.275696 -241.323062 
L 100.275696 -241.323062 
L 94.064193 -241.323062 
L 94.064193 -241.323062 
L 87.85269 -241.323062 
L 87.85269 -241.323062 
L 81.641187 -241.323062 
L 81.641187 -243.556364 
L 75.429685 -243.556364 
L 75.429685 -243.556364 
L 69.218182 -243.556364 
z
" id="m4ada224001" style="stroke:#9400d3;stroke-opacity:0.5;"/>
    </defs>
    <g clip-path="url(#p4814b9f9f2)">
     <use style="fill:#9400d3;fill-opacity:0.5;stroke:#9400d3;stroke-opacity:0.5;" x="0" xlink:href="#m4ada224001" y="288"/>
    </g>
   </g>
   <g id="PolyCollection_4">
    <defs>
     <path d="M 69.218182 -243.556364 
L 69.218182 -243.556364 
L 75.429685 -243.556364 
L 75.429685 -243.556364 
L 81.641187 -243.556364 
L 81.641187 -243.556364 
L 87.85269 -243.556364 
L 87.85269 -238.063196 
L 94.064193 -238.063196 
L 94.064193 -210.257865 
L 100.275696 -210.257865 
L 100.275696 -204.251797 
L 106.487199 -204.251797 
L 106.487199 -200.106861 
L 112.698701 -200.106861 
L 112.698701 -191.025098 
L 118.910204 -191.025098 
L 118.910204 -45.883636 
L 125.121707 -45.883636 
L 125.121707 -45.883636 
L 131.33321 -45.883636 
L 131.33321 -45.883636 
L 137.544712 -45.883636 
L 137.544712 -45.883636 
L 143.756215 -45.883636 
L 143.756215 -45.883636 
L 149.967718 -45.883636 
L 149.967718 -45.883636 
L 156.179221 -45.883636 
L 156.179221 -45.883636 
L 162.390724 -45.883636 
L 162.390724 -45.883636 
L 168.602226 -45.883636 
L 168.602226 -45.883636 
L 174.813729 -45.883636 
L 174.813729 -45.883636 
L 181.025232 -45.883636 
L 181.025232 -45.883636 
L 187.236735 -45.883636 
L 187.236735 -45.883636 
L 193.448237 -45.883636 
L 193.448237 -45.883636 
L 199.65974 -45.883636 
L 199.65974 -45.883636 
L 205.871243 -45.883636 
L 205.871243 -45.883636 
L 212.082746 -45.883636 
L 212.082746 -45.883636 
L 218.294249 -45.883636 
L 218.294249 -45.883636 
L 224.505751 -45.883636 
L 224.505751 -45.883636 
L 230.717254 -45.883636 
L 230.717254 -45.883636 
L 236.928757 -45.883636 
L 236.928757 -45.883636 
L 243.14026 -45.883636 
L 243.14026 -45.883636 
L 249.351763 -45.883636 
L 249.351763 -45.883636 
L 255.563265 -45.883636 
L 255.563265 -45.883636 
L 261.774768 -45.883636 
L 261.774768 -45.883636 
L 267.986271 -45.883636 
L 267.986271 -45.883636 
L 274.197774 -45.883636 
L 274.197774 -45.883636 
L 280.409276 -45.883636 
L 280.409276 -45.883636 
L 286.620779 -45.883636 
L 286.620779 -45.883636 
L 292.832282 -45.883636 
L 292.832282 -45.883636 
L 299.043785 -45.883636 
L 299.043785 -45.883636 
L 305.255288 -45.883636 
L 305.255288 -45.883636 
L 311.46679 -45.883636 
L 311.46679 -45.883636 
L 317.678293 -45.883636 
L 317.678293 -45.883636 
L 323.889796 -45.883636 
L 323.889796 -45.883636 
L 330.101299 -45.883636 
L 330.101299 -45.883636 
L 336.312801 -45.883636 
L 336.312801 -45.883636 
L 342.524304 -45.883636 
L 342.524304 -45.883636 
L 348.735807 -45.883636 
L 348.735807 -45.883636 
L 354.94731 -45.883636 
L 354.94731 -45.883636 
L 361.158813 -45.883636 
L 361.158813 -45.883636 
L 367.370315 -45.883636 
L 367.370315 -45.883636 
L 373.581818 -45.883636 
L 373.581818 -45.883636 
L 373.581818 -163.170387 
L 373.581818 -163.170387 
L 373.581818 -163.170387 
L 367.370315 -163.170387 
L 367.370315 -163.170387 
L 361.158813 -163.170387 
L 361.158813 -163.170387 
L 354.94731 -163.170387 
L 354.94731 -163.170387 
L 348.735807 -163.170387 
L 348.735807 -163.170387 
L 342.524304 -163.170387 
L 342.524304 -163.170387 
L 336.312801 -163.170387 
L 336.312801 -163.170387 
L 330.101299 -163.170387 
L 330.101299 -163.170387 
L 323.889796 -163.170387 
L 323.889796 -163.170387 
L 317.678293 -163.170387 
L 317.678293 -163.170387 
L 311.46679 -163.170387 
L 311.46679 -163.170387 
L 305.255288 -163.170387 
L 305.255288 -163.170387 
L 299.043785 -163.170387 
L 299.043785 -163.170387 
L 292.832282 -163.170387 
L 292.832282 -163.170387 
L 286.620779 -163.170387 
L 286.620779 -163.170387 
L 280.409276 -163.170387 
L 280.409276 -163.170387 
L 274.197774 -163.170387 
L 274.197774 -163.170387 
L 267.986271 -163.170387 
L 267.986271 -163.170387 
L 261.774768 -163.170387 
L 261.774768 -163.170387 
L 255.563265 -163.170387 
L 255.563265 -163.170387 
L 249.351763 -163.170387 
L 249.351763 -163.170387 
L 243.14026 -163.170387 
L 243.14026 -163.170387 
L 236.928757 -163.170387 
L 236.928757 -163.170387 
L 230.717254 -163.170387 
L 230.717254 -163.170387 
L 224.505751 -163.170387 
L 224.505751 -163.170387 
L 218.294249 -163.170387 
L 218.294249 -163.170387 
L 212.082746 -163.170387 
L 212.082746 -163.170387 
L 205.871243 -163.170387 
L 205.871243 -163.170387 
L 199.65974 -163.170387 
L 199.65974 -163.170387 
L 193.448237 -163.170387 
L 193.448237 -163.170387 
L 187.236735 -163.170387 
L 187.236735 -163.170387 
L 181.025232 -163.170387 
L 181.025232 -163.170387 
L 174.813729 -163.170387 
L 174.813729 -163.170387 
L 168.602226 -163.170387 
L 168.602226 -163.170387 
L 162.390724 -163.170387 
L 162.390724 -163.170387 
L 156.179221 -163.170387 
L 156.179221 -163.170387 
L 149.967718 -163.170387 
L 149.967718 -170.561771 
L 143.756215 -170.561771 
L 143.756215 -175.477545 
L 137.544712 -175.477545 
L 137.544712 -175.477545 
L 131.33321 -175.477545 
L 131.33321 -188.718276 
L 125.121707 -188.718276 
L 125.121707 -215.12286 
L 118.910204 -215.12286 
L 118.910204 -215.12286 
L 112.698701 -215.12286 
L 112.698701 -215.12286 
L 106.487199 -215.12286 
L 106.487199 -234.161918 
L 100.275696 -234.161918 
L 100.275696 -243.556364 
L 94.064193 -243.556364 
L 94.064193 -243.556364 
L 87.85269 -243.556364 
L 87.85269 -243.556364 
L 81.641187 -243.556364 
L 81.641187 -243.556364 
L 75.429685 -243.556364 
L 75.429685 -243.556364 
L 69.218182 -243.556364 
z
" id="md2a065877f" style="stroke:#8b4513;stroke-opacity:0.5;"/>
    </defs>
    <g clip-path="url(#p4814b9f9f2)">
     <use style="fill:#8b4513;fill-opacity:0.5;stroke:#8b4513;stroke-opacity:0.5;" x="0" xlink:href="#md2a065877f" y="288"/>
    </g>
   </g>
   <g id="matplotlib.axis_1">
    <g id="xtick_1">
     <g id="line2d_1">
      <defs>
       <path d="M 0 0 
L 0 3.5 
" id="m70755cb1f0" style="stroke:#000000;stroke-width:0.8;"/>
      </defs>
      <g>
       <use style="stroke:#000000;stroke-width:0.8;" x="63.006679" xlink:href="#m70755cb1f0" y="252"/>
      </g>
     </g>
     <g id="text_1">
      <!-- 0 -->
      <g transform="translate(59.825429 266.598437)scale(0.1 -0.1)">
       <defs>
        <path d="M 31.78125 66.40625 
Q 24.171875 66.40625 20.328125 58.90625 
Q 16.5 51.421875 16.5 36.375 
Q 16.5 21.390625 20.328125 13.890625 
Q 24.171875 6.390625 31.78125 6.390625 
Q 39.453125 6.390625 43.28125 13.890625 
Q 47.125 21.390625 47.125 36.375 
Q 47.125 51.421875 43.28125 58.90625 
Q 39.453125 66.40625 31.78125 66.40625 
z
M 31.78125 74.21875 
Q 44.046875 74.21875 50.515625 64.515625 
Q 56.984375 54.828125 56.984375 36.375 
Q 56.984375 17.96875 50.515625 8.265625 
Q 44.046875 -1.421875 31.78125 -1.421875 
Q 19.53125 -1.421875 13.0625 8.265625 
Q 6.59375 17.96875 6.59375 36.375 
Q 6.59375 54.828125 13.0625 64.515625 
Q 19.53125 74.21875 31.78125 74.21875 
z
" id="DejaVuSans-48"/>
       </defs>
       <use xlink:href="#DejaVuSans-48"/>
      </g>
     </g>
    </g>
    <g id="xtick_2">
     <g id="line2d_2">
      <g>
       <use style="stroke:#000000;stroke-width:0.8;" x="125.121707" xlink:href="#m70755cb1f0" y="252"/>
      </g>
     </g>
     <g id="text_2">
      <!-- 10 -->
      <g transform="translate(118.759207 266.598437)scale(0.1 -0.1)">
       <defs>
        <path d="M 12.40625 8.296875 
L 28.515625 8.296875 
L 28.515625 63.921875 
L 10.984375 60.40625 
L 10.984375 69.390625 
L 28.421875 72.90625 
L 38.28125 72.90625 
L 38.28125 8.296875 
L 54.390625 8.296875 
L 54.390625 0 
L 12.40625 0 
z
" id="DejaVuSans-49"/>
       </defs>
       <use xlink:href="#DejaVuSans-49"/>
       <use x="63.623047" xlink:href="#DejaVuSans-48"/>
      </g>
     </g>
    </g>
    <g id="xtick_3">
     <g id="line2d_3">
      <g>
       <use style="stroke:#000000;stroke-width:0.8;" x="187.236735" xlink:href="#m70755cb1f0" y="252"/>
      </g>
     </g>
     <g id="text_3">
      <!-- 20 -->
      <g transform="translate(180.874235 266.598437)scale(0.1 -0.1)">
       <defs>
        <path d="M 19.1875 8.296875 
L 53.609375 8.296875 
L 53.609375 0 
L 7.328125 0 
L 7.328125 8.296875 
Q 12.9375 14.109375 22.625 23.890625 
Q 32.328125 33.6875 34.8125 36.53125 
Q 39.546875 41.84375 41.421875 45.53125 
Q 43.3125 49.21875 43.3125 52.78125 
Q 43.3125 58.59375 39.234375 62.25 
Q 35.15625 65.921875 28.609375 65.921875 
Q 23.96875 65.921875 18.8125 64.3125 
Q 13.671875 62.703125 7.8125 59.421875 
L 7.8125 69.390625 
Q 13.765625 71.78125 18.9375 73 
Q 24.125 74.21875 28.421875 74.21875 
Q 39.75 74.21875 46.484375 68.546875 
Q 53.21875 62.890625 53.21875 53.421875 
Q 53.21875 48.921875 51.53125 44.890625 
Q 49.859375 40.875 45.40625 35.40625 
Q 44.1875 33.984375 37.640625 27.21875 
Q 31.109375 20.453125 19.1875 8.296875 
z
" id="DejaVuSans-50"/>
       </defs>
       <use xlink:href="#DejaVuSans-50"/>
       <use x="63.623047" xlink:href="#DejaVuSans-48"/>
      </g>
     </g>
    </g>
    <g id="xtick_4">
     <g id="line2d_4">
      <g>
       <use style="stroke:#000000;stroke-width:0.8;" x="249.351763" xlink:href="#m70755cb1f0" y="252"/>
      </g>
     </g>
     <g id="text_4">
      <!-- 30 -->
      <g transform="translate(242.989263 266.598437)scale(0.1 -0.1)">
       <defs>
        <path d="M 40.578125 39.3125 
Q 47.65625 37.796875 51.625 33 
Q 55.609375 28.21875 55.609375 21.1875 
Q 55.609375 10.40625 48.1875 4.484375 
Q 40.765625 -1.421875 27.09375 -1.421875 
Q 22.515625 -1.421875 17.65625 -0.515625 
Q 12.796875 0.390625 7.625 2.203125 
L 7.625 11.71875 
Q 11.71875 9.328125 16.59375 8.109375 
Q 21.484375 6.890625 26.8125 6.890625 
Q 36.078125 6.890625 40.9375 10.546875 
Q 45.796875 14.203125 45.796875 21.1875 
Q 45.796875 27.640625 41.28125 31.265625 
Q 36.765625 34.90625 28.71875 34.90625 
L 20.21875 34.90625 
L 20.21875 43.015625 
L 29.109375 43.015625 
Q 36.375 43.015625 40.234375 45.921875 
Q 44.09375 48.828125 44.09375 54.296875 
Q 44.09375 59.90625 40.109375 62.90625 
Q 36.140625 65.921875 28.71875 65.921875 
Q 24.65625 65.921875 20.015625 65.03125 
Q 15.375 64.15625 9.8125 62.3125 
L 9.8125 71.09375 
Q 15.4375 72.65625 20.34375 73.4375 
Q 25.25 74.21875 29.59375 74.21875 
Q 40.828125 74.21875 47.359375 69.109375 
Q 53.90625 64.015625 53.90625 55.328125 
Q 53.90625 49.265625 50.4375 45.09375 
Q 46.96875 40.921875 40.578125 39.3125 
z
" id="DejaVuSans-51"/>
       </defs>
       <use xlink:href="#DejaVuSans-51"/>
       <use x="63.623047" xlink:href="#DejaVuSans-48"/>
      </g>
     </g>
    </g>
    <g id="xtick_5">
     <g id="line2d_5">
      <g>
       <use style="stroke:#000000;stroke-width:0.8;" x="311.46679" xlink:href="#m70755cb1f0" y="252"/>
      </g>
     </g>
     <g id="text_5">
      <!-- 40 -->
      <g transform="translate(305.10429 266.598437)scale(0.1 -0.1)">
       <defs>
        <path d="M 37.796875 64.3125 
L 12.890625 25.390625 
L 37.796875 25.390625 
z
M 35.203125 72.90625 
L 47.609375 72.90625 
L 47.609375 25.390625 
L 58.015625 25.390625 
L 58.015625 17.1875 
L 47.609375 17.1875 
L 47.609375 0 
L 37.796875 0 
L 37.796875 17.1875 
L 4.890625 17.1875 
L 4.890625 26.703125 
z
" id="DejaVuSans-52"/>
       </defs>
       <use xlink:href="#DejaVuSans-52"/>
       <use x="63.623047" xlink:href="#DejaVuSans-48"/>
      </g>
     </g>
    </g>
    <g id="xtick_6">
     <g id="line2d_6">
      <g>
       <use style="stroke:#000000;stroke-width:0.8;" x="373.581818" xlink:href="#m70755cb1f0" y="252"/>
      </g>
     </g>
     <g id="text_6">
      <!-- 50 -->
      <g transform="translate(367.219318 266.598437)scale(0.1 -0.1)">
       <defs>
        <path d="M 10.796875 72.90625 
L 49.515625 72.90625 
L 49.515625 64.59375 
L 19.828125 64.59375 
L 19.828125 46.734375 
Q 21.96875 47.46875 24.109375 47.828125 
Q 26.265625 48.1875 28.421875 48.1875 
Q 40.625 48.1875 47.75 41.5 
Q 54.890625 34.8125 54.890625 23.390625 
Q 54.890625 11.625 47.5625 5.09375 
Q 40.234375 -1.421875 26.90625 -1.421875 
Q 22.3125 -1.421875 17.546875 -0.640625 
Q 12.796875 0.140625 7.71875 1.703125 
L 7.71875 11.625 
Q 12.109375 9.234375 16.796875 8.0625 
Q 21.484375 6.890625 26.703125 6.890625 
Q 35.15625 6.890625 40.078125 11.328125 
Q 45.015625 15.765625 45.015625 23.390625 
Q 45.015625 31 40.078125 35.4375 
Q 35.15625 39.890625 26.703125 39.890625 
Q 22.75 39.890625 18.8125 39.015625 
Q 14.890625 38.140625 10.796875 36.28125 
z
" id="DejaVuSans-53"/>
       </defs>
       <use xlink:href="#DejaVuSans-53"/>
       <use x="63.623047" xlink:href="#DejaVuSans-48"/>
      </g>
     </g>
    </g>
    <g id="text_7">
     <!-- Number of function evaluations -->
     <g transform="translate(142.399219 280.276563)scale(0.1 -0.1)">
      <defs>
       <path d="M 9.8125 72.90625 
L 23.09375 72.90625 
L 55.421875 11.921875 
L 55.421875 72.90625 
L 64.984375 72.90625 
L 64.984375 0 
L 51.703125 0 
L 19.390625 60.984375 
L 19.390625 0 
L 9.8125 0 
z
" id="DejaVuSans-78"/>
       <path d="M 8.5 21.578125 
L 8.5 54.6875 
L 17.484375 54.6875 
L 17.484375 21.921875 
Q 17.484375 14.15625 20.5 10.265625 
Q 23.53125 6.390625 29.59375 6.390625 
Q 36.859375 6.390625 41.078125 11.03125 
Q 45.3125 15.671875 45.3125 23.6875 
L 45.3125 54.6875 
L 54.296875 54.6875 
L 54.296875 0 
L 45.3125 0 
L 45.3125 8.40625 
Q 42.046875 3.421875 37.71875 1 
Q 33.40625 -1.421875 27.6875 -1.421875 
Q 18.265625 -1.421875 13.375 4.4375 
Q 8.5 10.296875 8.5 21.578125 
z
M 31.109375 56 
z
" id="DejaVuSans-117"/>
       <path d="M 52 44.1875 
Q 55.375 50.25 60.0625 53.125 
Q 64.75 56 71.09375 56 
Q 79.640625 56 84.28125 50.015625 
Q 88.921875 44.046875 88.921875 33.015625 
L 88.921875 0 
L 79.890625 0 
L 79.890625 32.71875 
Q 79.890625 40.578125 77.09375 44.375 
Q 74.3125 48.1875 68.609375 48.1875 
Q 61.625 48.1875 57.5625 43.546875 
Q 53.515625 38.921875 53.515625 30.90625 
L 53.515625 0 
L 44.484375 0 
L 44.484375 32.71875 
Q 44.484375 40.625 41.703125 44.40625 
Q 38.921875 48.1875 33.109375 48.1875 
Q 26.21875 48.1875 22.15625 43.53125 
Q 18.109375 38.875 18.109375 30.90625 
L 18.109375 0 
L 9.078125 0 
L 9.078125 54.6875 
L 18.109375 54.6875 
L 18.109375 46.1875 
Q 21.1875 51.21875 25.484375 53.609375 
Q 29.78125 56 35.6875 56 
Q 41.65625 56 45.828125 52.96875 
Q 50 49.953125 52 44.1875 
z
" id="DejaVuSans-109"/>
       <path d="M 48.6875 27.296875 
Q 48.6875 37.203125 44.609375 42.84375 
Q 40.53125 48.484375 33.40625 48.484375 
Q 26.265625 48.484375 22.1875 42.84375 
Q 18.109375 37.203125 18.109375 27.296875 
Q 18.109375 17.390625 22.1875 11.75 
Q 26.265625 6.109375 33.40625 6.109375 
Q 40.53125 6.109375 44.609375 11.75 
Q 48.6875 17.390625 48.6875 27.296875 
z
M 18.109375 46.390625 
Q 20.953125 51.265625 25.265625 53.625 
Q 29.59375 56 35.59375 56 
Q 45.5625 56 51.78125 48.09375 
Q 58.015625 40.1875 58.015625 27.296875 
Q 58.015625 14.40625 51.78125 6.484375 
Q 45.5625 -1.421875 35.59375 -1.421875 
Q 29.59375 -1.421875 25.265625 0.953125 
Q 20.953125 3.328125 18.109375 8.203125 
L 18.109375 0 
L 9.078125 0 
L 9.078125 75.984375 
L 18.109375 75.984375 
z
" id="DejaVuSans-98"/>
       <path d="M 56.203125 29.59375 
L 56.203125 25.203125 
L 14.890625 25.203125 
Q 15.484375 15.921875 20.484375 11.0625 
Q 25.484375 6.203125 34.421875 6.203125 
Q 39.59375 6.203125 44.453125 7.46875 
Q 49.3125 8.734375 54.109375 11.28125 
L 54.109375 2.78125 
Q 49.265625 0.734375 44.1875 -0.34375 
Q 39.109375 -1.421875 33.890625 -1.421875 
Q 20.796875 -1.421875 13.15625 6.1875 
Q 5.515625 13.8125 5.515625 26.8125 
Q 5.515625 40.234375 12.765625 48.109375 
Q 20.015625 56 32.328125 56 
Q 43.359375 56 49.78125 48.890625 
Q 56.203125 41.796875 56.203125 29.59375 
z
M 47.21875 32.234375 
Q 47.125 39.59375 43.09375 43.984375 
Q 39.0625 48.390625 32.421875 48.390625 
Q 24.90625 48.390625 20.390625 44.140625 
Q 15.875 39.890625 15.1875 32.171875 
z
" id="DejaVuSans-101"/>
       <path d="M 41.109375 46.296875 
Q 39.59375 47.171875 37.8125 47.578125 
Q 36.03125 48 33.890625 48 
Q 26.265625 48 22.1875 43.046875 
Q 18.109375 38.09375 18.109375 28.8125 
L 18.109375 0 
L 9.078125 0 
L 9.078125 54.6875 
L 18.109375 54.6875 
L 18.109375 46.1875 
Q 20.953125 51.171875 25.484375 53.578125 
Q 30.03125 56 36.53125 56 
Q 37.453125 56 38.578125 55.875 
Q 39.703125 55.765625 41.0625 55.515625 
z
" id="DejaVuSans-114"/>
       <path id="DejaVuSans-32"/>
       <path d="M 30.609375 48.390625 
Q 23.390625 48.390625 19.1875 42.75 
Q 14.984375 37.109375 14.984375 27.296875 
Q 14.984375 17.484375 19.15625 11.84375 
Q 23.34375 6.203125 30.609375 6.203125 
Q 37.796875 6.203125 41.984375 11.859375 
Q 46.1875 17.53125 46.1875 27.296875 
Q 46.1875 37.015625 41.984375 42.703125 
Q 37.796875 48.390625 30.609375 48.390625 
z
M 30.609375 56 
Q 42.328125 56 49.015625 48.375 
Q 55.71875 40.765625 55.71875 27.296875 
Q 55.71875 13.875 49.015625 6.21875 
Q 42.328125 -1.421875 30.609375 -1.421875 
Q 18.84375 -1.421875 12.171875 6.21875 
Q 5.515625 13.875 5.515625 27.296875 
Q 5.515625 40.765625 12.171875 48.375 
Q 18.84375 56 30.609375 56 
z
" id="DejaVuSans-111"/>
       <path d="M 37.109375 75.984375 
L 37.109375 68.5 
L 28.515625 68.5 
Q 23.6875 68.5 21.796875 66.546875 
Q 19.921875 64.59375 19.921875 59.515625 
L 19.921875 54.6875 
L 34.71875 54.6875 
L 34.71875 47.703125 
L 19.921875 47.703125 
L 19.921875 0 
L 10.890625 0 
L 10.890625 47.703125 
L 2.296875 47.703125 
L 2.296875 54.6875 
L 10.890625 54.6875 
L 10.890625 58.5 
Q 10.890625 67.625 15.140625 71.796875 
Q 19.390625 75.984375 28.609375 75.984375 
z
" id="DejaVuSans-102"/>
       <path d="M 54.890625 33.015625 
L 54.890625 0 
L 45.90625 0 
L 45.90625 32.71875 
Q 45.90625 40.484375 42.875 44.328125 
Q 39.84375 48.1875 33.796875 48.1875 
Q 26.515625 48.1875 22.3125 43.546875 
Q 18.109375 38.921875 18.109375 30.90625 
L 18.109375 0 
L 9.078125 0 
L 9.078125 54.6875 
L 18.109375 54.6875 
L 18.109375 46.1875 
Q 21.34375 51.125 25.703125 53.5625 
Q 30.078125 56 35.796875 56 
Q 45.21875 56 50.046875 50.171875 
Q 54.890625 44.34375 54.890625 33.015625 
z
" id="DejaVuSans-110"/>
       <path d="M 48.78125 52.59375 
L 48.78125 44.1875 
Q 44.96875 46.296875 41.140625 47.34375 
Q 37.3125 48.390625 33.40625 48.390625 
Q 24.65625 48.390625 19.8125 42.84375 
Q 14.984375 37.3125 14.984375 27.296875 
Q 14.984375 17.28125 19.8125 11.734375 
Q 24.65625 6.203125 33.40625 6.203125 
Q 37.3125 6.203125 41.140625 7.25 
Q 44.96875 8.296875 48.78125 10.40625 
L 48.78125 2.09375 
Q 45.015625 0.34375 40.984375 -0.53125 
Q 36.96875 -1.421875 32.421875 -1.421875 
Q 20.0625 -1.421875 12.78125 6.34375 
Q 5.515625 14.109375 5.515625 27.296875 
Q 5.515625 40.671875 12.859375 48.328125 
Q 20.21875 56 33.015625 56 
Q 37.15625 56 41.109375 55.140625 
Q 45.0625 54.296875 48.78125 52.59375 
z
" id="DejaVuSans-99"/>
       <path d="M 18.3125 70.21875 
L 18.3125 54.6875 
L 36.8125 54.6875 
L 36.8125 47.703125 
L 18.3125 47.703125 
L 18.3125 18.015625 
Q 18.3125 11.328125 20.140625 9.421875 
Q 21.96875 7.515625 27.59375 7.515625 
L 36.8125 7.515625 
L 36.8125 0 
L 27.59375 0 
Q 17.1875 0 13.234375 3.875 
Q 9.28125 7.765625 9.28125 18.015625 
L 9.28125 47.703125 
L 2.6875 47.703125 
L 2.6875 54.6875 
L 9.28125 54.6875 
L 9.28125 70.21875 
z
" id="DejaVuSans-116"/>
       <path d="M 9.421875 54.6875 
L 18.40625 54.6875 
L 18.40625 0 
L 9.421875 0 
z
M 9.421875 75.984375 
L 18.40625 75.984375 
L 18.40625 64.59375 
L 9.421875 64.59375 
z
" id="DejaVuSans-105"/>
       <path d="M 2.984375 54.6875 
L 12.5 54.6875 
L 29.59375 8.796875 
L 46.6875 54.6875 
L 56.203125 54.6875 
L 35.6875 0 
L 23.484375 0 
z
" id="DejaVuSans-118"/>
       <path d="M 34.28125 27.484375 
Q 23.390625 27.484375 19.1875 25 
Q 14.984375 22.515625 14.984375 16.5 
Q 14.984375 11.71875 18.140625 8.90625 
Q 21.296875 6.109375 26.703125 6.109375 
Q 34.1875 6.109375 38.703125 11.40625 
Q 43.21875 16.703125 43.21875 25.484375 
L 43.21875 27.484375 
z
M 52.203125 31.203125 
L 52.203125 0 
L 43.21875 0 
L 43.21875 8.296875 
Q 40.140625 3.328125 35.546875 0.953125 
Q 30.953125 -1.421875 24.3125 -1.421875 
Q 15.921875 -1.421875 10.953125 3.296875 
Q 6 8.015625 6 15.921875 
Q 6 25.140625 12.171875 29.828125 
Q 18.359375 34.515625 30.609375 34.515625 
L 43.21875 34.515625 
L 43.21875 35.40625 
Q 43.21875 41.609375 39.140625 45 
Q 35.0625 48.390625 27.6875 48.390625 
Q 23 48.390625 18.546875 47.265625 
Q 14.109375 46.140625 10.015625 43.890625 
L 10.015625 52.203125 
Q 14.9375 54.109375 19.578125 55.046875 
Q 24.21875 56 28.609375 56 
Q 40.484375 56 46.34375 49.84375 
Q 52.203125 43.703125 52.203125 31.203125 
z
" id="DejaVuSans-97"/>
       <path d="M 9.421875 75.984375 
L 18.40625 75.984375 
L 18.40625 0 
L 9.421875 0 
z
" id="DejaVuSans-108"/>
       <path d="M 44.28125 53.078125 
L 44.28125 44.578125 
Q 40.484375 46.53125 36.375 47.5 
Q 32.28125 48.484375 27.875 48.484375 
Q 21.1875 48.484375 17.84375 46.4375 
Q 14.5 44.390625 14.5 40.28125 
Q 14.5 37.15625 16.890625 35.375 
Q 19.28125 33.59375 26.515625 31.984375 
L 29.59375 31.296875 
Q 39.15625 29.25 43.1875 25.515625 
Q 47.21875 21.78125 47.21875 15.09375 
Q 47.21875 7.46875 41.1875 3.015625 
Q 35.15625 -1.421875 24.609375 -1.421875 
Q 20.21875 -1.421875 15.453125 -0.5625 
Q 10.6875 0.296875 5.421875 2 
L 5.421875 11.28125 
Q 10.40625 8.6875 15.234375 7.390625 
Q 20.0625 6.109375 24.8125 6.109375 
Q 31.15625 6.109375 34.5625 8.28125 
Q 37.984375 10.453125 37.984375 14.40625 
Q 37.984375 18.0625 35.515625 20.015625 
Q 33.0625 21.96875 24.703125 23.78125 
L 21.578125 24.515625 
Q 13.234375 26.265625 9.515625 29.90625 
Q 5.8125 33.546875 5.8125 39.890625 
Q 5.8125 47.609375 11.28125 51.796875 
Q 16.75 56 26.8125 56 
Q 31.78125 56 36.171875 55.265625 
Q 40.578125 54.546875 44.28125 53.078125 
z
" id="DejaVuSans-115"/>
      </defs>
      <use xlink:href="#DejaVuSans-78"/>
      <use x="74.804688" xlink:href="#DejaVuSans-117"/>
      <use x="138.183594" xlink:href="#DejaVuSans-109"/>
      <use x="235.595703" xlink:href="#DejaVuSans-98"/>
      <use x="299.072266" xlink:href="#DejaVuSans-101"/>
      <use x="360.595703" xlink:href="#DejaVuSans-114"/>
      <use x="401.708984" xlink:href="#DejaVuSans-32"/>
      <use x="433.496094" xlink:href="#DejaVuSans-111"/>
      <use x="494.677734" xlink:href="#DejaVuSans-102"/>
      <use x="529.882812" xlink:href="#DejaVuSans-32"/>
      <use x="561.669922" xlink:href="#DejaVuSans-102"/>
      <use x="596.875" xlink:href="#DejaVuSans-117"/>
      <use x="660.253906" xlink:href="#DejaVuSans-110"/>
      <use x="723.632812" xlink:href="#DejaVuSans-99"/>
      <use x="778.613281" xlink:href="#DejaVuSans-116"/>
      <use x="817.822266" xlink:href="#DejaVuSans-105"/>
      <use x="845.605469" xlink:href="#DejaVuSans-111"/>
      <use x="906.787109" xlink:href="#DejaVuSans-110"/>
      <use x="970.166016" xlink:href="#DejaVuSans-32"/>
      <use x="1001.953125" xlink:href="#DejaVuSans-101"/>
      <use x="1063.476562" xlink:href="#DejaVuSans-118"/>
      <use x="1122.65625" xlink:href="#DejaVuSans-97"/>
      <use x="1183.935547" xlink:href="#DejaVuSans-108"/>
      <use x="1211.71875" xlink:href="#DejaVuSans-117"/>
      <use x="1275.097656" xlink:href="#DejaVuSans-97"/>
      <use x="1336.376953" xlink:href="#DejaVuSans-116"/>
      <use x="1375.585938" xlink:href="#DejaVuSans-105"/>
      <use x="1403.369141" xlink:href="#DejaVuSans-111"/>
      <use x="1464.550781" xlink:href="#DejaVuSans-110"/>
      <use x="1527.929688" xlink:href="#DejaVuSans-115"/>
     </g>
    </g>
   </g>
   <g id="matplotlib.axis_2">
    <g id="ytick_1">
     <g id="line2d_7">
      <defs>
       <path d="M 0 0 
L -3.5 0 
" id="m53c94462e6" style="stroke:#000000;stroke-width:0.8;"/>
      </defs>
      <g>
       <use style="stroke:#000000;stroke-width:0.8;" x="54" xlink:href="#m53c94462e6" y="219.34152"/>
      </g>
     </g>
     <g id="text_8">
      <!-- $\mathdefault{10^{-11}}$ -->
      <g transform="translate(19.1 223.140739)scale(0.1 -0.1)">
       <defs>
        <path d="M 10.59375 35.5 
L 73.1875 35.5 
L 73.1875 27.203125 
L 10.59375 27.203125 
z
" id="DejaVuSans-8722"/>
       </defs>
       <use transform="translate(0 0.684375)" xlink:href="#DejaVuSans-49"/>
       <use transform="translate(63.623047 0.684375)" xlink:href="#DejaVuSans-48"/>
       <use transform="translate(128.203125 38.965625)scale(0.7)" xlink:href="#DejaVuSans-8722"/>
       <use transform="translate(186.855469 38.965625)scale(0.7)" xlink:href="#DejaVuSans-49"/>
       <use transform="translate(231.391602 38.965625)scale(0.7)" xlink:href="#DejaVuSans-49"/>
      </g>
     </g>
    </g>
    <g id="ytick_2">
     <g id="line2d_8">
      <g>
       <use style="stroke:#000000;stroke-width:0.8;" x="54" xlink:href="#m53c94462e6" y="181.443243"/>
      </g>
     </g>
     <g id="text_9">
      <!-- $\mathdefault{10^{-9}}$ -->
      <g transform="translate(23.5 185.242462)scale(0.1 -0.1)">
       <defs>
        <path d="M 10.984375 1.515625 
L 10.984375 10.5 
Q 14.703125 8.734375 18.5 7.8125 
Q 22.3125 6.890625 25.984375 6.890625 
Q 35.75 6.890625 40.890625 13.453125 
Q 46.046875 20.015625 46.78125 33.40625 
Q 43.953125 29.203125 39.59375 26.953125 
Q 35.25 24.703125 29.984375 24.703125 
Q 19.046875 24.703125 12.671875 31.3125 
Q 6.296875 37.9375 6.296875 49.421875 
Q 6.296875 60.640625 12.9375 67.421875 
Q 19.578125 74.21875 30.609375 74.21875 
Q 43.265625 74.21875 49.921875 64.515625 
Q 56.59375 54.828125 56.59375 36.375 
Q 56.59375 19.140625 48.40625 8.859375 
Q 40.234375 -1.421875 26.421875 -1.421875 
Q 22.703125 -1.421875 18.890625 -0.6875 
Q 15.09375 0.046875 10.984375 1.515625 
z
M 30.609375 32.421875 
Q 37.25 32.421875 41.125 36.953125 
Q 45.015625 41.5 45.015625 49.421875 
Q 45.015625 57.28125 41.125 61.84375 
Q 37.25 66.40625 30.609375 66.40625 
Q 23.96875 66.40625 20.09375 61.84375 
Q 16.21875 57.28125 16.21875 49.421875 
Q 16.21875 41.5 20.09375 36.953125 
Q 23.96875 32.421875 30.609375 32.421875 
z
" id="DejaVuSans-57"/>
       </defs>
       <use transform="translate(0 0.765625)" xlink:href="#DejaVuSans-49"/>
       <use transform="translate(63.623047 0.765625)" xlink:href="#DejaVuSans-48"/>
       <use transform="translate(128.203125 39.046875)scale(0.7)" xlink:href="#DejaVuSans-8722"/>
       <use transform="translate(186.855469 39.046875)scale(0.7)" xlink:href="#DejaVuSans-57"/>
      </g>
     </g>
    </g>
    <g id="ytick_3">
     <g id="line2d_9">
      <g>
       <use style="stroke:#000000;stroke-width:0.8;" x="54" xlink:href="#m53c94462e6" y="143.544966"/>
      </g>
     </g>
     <g id="text_10">
      <!-- $\mathdefault{10^{-7}}$ -->
      <g transform="translate(23.5 147.344185)scale(0.1 -0.1)">
       <defs>
        <path d="M 8.203125 72.90625 
L 55.078125 72.90625 
L 55.078125 68.703125 
L 28.609375 0 
L 18.3125 0 
L 43.21875 64.59375 
L 8.203125 64.59375 
z
" id="DejaVuSans-55"/>
       </defs>
       <use transform="translate(0 0.684375)" xlink:href="#DejaVuSans-49"/>
       <use transform="translate(63.623047 0.684375)" xlink:href="#DejaVuSans-48"/>
       <use transform="translate(128.203125 38.965625)scale(0.7)" xlink:href="#DejaVuSans-8722"/>
       <use transform="translate(186.855469 38.965625)scale(0.7)" xlink:href="#DejaVuSans-55"/>
      </g>
     </g>
    </g>
    <g id="ytick_4">
     <g id="line2d_10">
      <g>
       <use style="stroke:#000000;stroke-width:0.8;" x="54" xlink:href="#m53c94462e6" y="105.646689"/>
      </g>
     </g>
     <g id="text_11">
      <!-- $\mathdefault{10^{-5}}$ -->
      <g transform="translate(23.5 109.445908)scale(0.1 -0.1)">
       <use transform="translate(0 0.684375)" xlink:href="#DejaVuSans-49"/>
       <use transform="translate(63.623047 0.684375)" xlink:href="#DejaVuSans-48"/>
       <use transform="translate(128.203125 38.965625)scale(0.7)" xlink:href="#DejaVuSans-8722"/>
       <use transform="translate(186.855469 38.965625)scale(0.7)" xlink:href="#DejaVuSans-53"/>
      </g>
     </g>
    </g>
    <g id="ytick_5">
     <g id="line2d_11">
      <g>
       <use style="stroke:#000000;stroke-width:0.8;" x="54" xlink:href="#m53c94462e6" y="67.748412"/>
      </g>
     </g>
     <g id="text_12">
      <!-- $\mathdefault{10^{-3}}$ -->
      <g transform="translate(23.5 71.547631)scale(0.1 -0.1)">
       <use transform="translate(0 0.765625)" xlink:href="#DejaVuSans-49"/>
       <use transform="translate(63.623047 0.765625)" xlink:href="#DejaVuSans-48"/>
       <use transform="translate(128.203125 39.046875)scale(0.7)" xlink:href="#DejaVuSans-8722"/>
       <use transform="translate(186.855469 39.046875)scale(0.7)" xlink:href="#DejaVuSans-51"/>
      </g>
     </g>
    </g>
    <g id="text_13">
     <!-- Convergence -->
     <g transform="translate(13.020312 176.24875)rotate(-90)scale(0.1 -0.1)">
      <defs>
       <path d="M 64.40625 67.28125 
L 64.40625 56.890625 
Q 59.421875 61.53125 53.78125 63.8125 
Q 48.140625 66.109375 41.796875 66.109375 
Q 29.296875 66.109375 22.65625 58.46875 
Q 16.015625 50.828125 16.015625 36.375 
Q 16.015625 21.96875 22.65625 14.328125 
Q 29.296875 6.6875 41.796875 6.6875 
Q 48.140625 6.6875 53.78125 8.984375 
Q 59.421875 11.28125 64.40625 15.921875 
L 64.40625 5.609375 
Q 59.234375 2.09375 53.4375 0.328125 
Q 47.65625 -1.421875 41.21875 -1.421875 
Q 24.65625 -1.421875 15.125 8.703125 
Q 5.609375 18.84375 5.609375 36.375 
Q 5.609375 53.953125 15.125 64.078125 
Q 24.65625 74.21875 41.21875 74.21875 
Q 47.75 74.21875 53.53125 72.484375 
Q 59.328125 70.75 64.40625 67.28125 
z
" id="DejaVuSans-67"/>
       <path d="M 45.40625 27.984375 
Q 45.40625 37.75 41.375 43.109375 
Q 37.359375 48.484375 30.078125 48.484375 
Q 22.859375 48.484375 18.828125 43.109375 
Q 14.796875 37.75 14.796875 27.984375 
Q 14.796875 18.265625 18.828125 12.890625 
Q 22.859375 7.515625 30.078125 7.515625 
Q 37.359375 7.515625 41.375 12.890625 
Q 45.40625 18.265625 45.40625 27.984375 
z
M 54.390625 6.78125 
Q 54.390625 -7.171875 48.1875 -13.984375 
Q 42 -20.796875 29.203125 -20.796875 
Q 24.46875 -20.796875 20.265625 -20.09375 
Q 16.0625 -19.390625 12.109375 -17.921875 
L 12.109375 -9.1875 
Q 16.0625 -11.328125 19.921875 -12.34375 
Q 23.78125 -13.375 27.78125 -13.375 
Q 36.625 -13.375 41.015625 -8.765625 
Q 45.40625 -4.15625 45.40625 5.171875 
L 45.40625 9.625 
Q 42.625 4.78125 38.28125 2.390625 
Q 33.9375 0 27.875 0 
Q 17.828125 0 11.671875 7.65625 
Q 5.515625 15.328125 5.515625 27.984375 
Q 5.515625 40.671875 11.671875 48.328125 
Q 17.828125 56 27.875 56 
Q 33.9375 56 38.28125 53.609375 
Q 42.625 51.21875 45.40625 46.390625 
L 45.40625 54.6875 
L 54.390625 54.6875 
z
" id="DejaVuSans-103"/>
      </defs>
      <use xlink:href="#DejaVuSans-67"/>
      <use x="69.824219" xlink:href="#DejaVuSans-111"/>
      <use x="131.005859" xlink:href="#DejaVuSans-110"/>
      <use x="194.384766" xlink:href="#DejaVuSans-118"/>
      <use x="253.564453" xlink:href="#DejaVuSans-101"/>
      <use x="315.087891" xlink:href="#DejaVuSans-114"/>
      <use x="354.451172" xlink:href="#DejaVuSans-103"/>
      <use x="417.927734" xlink:href="#DejaVuSans-101"/>
      <use x="479.451172" xlink:href="#DejaVuSans-110"/>
      <use x="542.830078" xlink:href="#DejaVuSans-99"/>
      <use x="597.810547" xlink:href="#DejaVuSans-101"/>
     </g>
    </g>
   </g>
   <g id="line2d_12">
    <path clip-path="url(#p4814b9f9f2)" d="M 69.218182 44.443636 
L 75.429685 44.443636 
L 75.429685 45.568177 
L 81.641187 45.568177 
L 81.641187 46.705016 
L 87.85269 46.705016 
L 87.85269 47.851203 
L 94.064193 47.851203 
L 94.064193 49.006183 
L 100.275696 49.006183 
L 100.275696 50.169505 
L 106.487199 50.169505 
L 106.487199 51.340729 
L 112.698701 51.340729 
L 112.698701 52.519427 
L 118.910204 52.519427 
L 118.910204 53.705184 
L 125.121707 53.705184 
L 125.121707 54.897596 
L 131.33321 54.897596 
L 131.33321 56.096275 
L 137.544712 56.096275 
L 137.544712 57.300847 
L 143.756215 57.300847 
L 143.756215 58.510953 
L 149.967718 58.510953 
L 149.967718 59.726248 
L 156.179221 59.726248 
L 156.179221 60.946406 
L 162.390724 60.946406 
L 162.390724 62.171112 
L 168.602226 62.171112 
L 168.602226 63.400069 
L 174.813729 63.400069 
L 174.813729 64.632995 
L 181.025232 64.632995 
L 181.025232 65.869622 
L 187.236735 65.869622 
L 187.236735 67.109696 
L 193.448237 67.109696 
L 193.448237 68.352979 
L 199.65974 68.352979 
L 199.65974 69.599244 
L 205.871243 69.599244 
L 205.871243 70.848279 
L 212.082746 70.848279 
L 212.082746 72.099884 
L 218.294249 72.099884 
L 218.294249 73.35387 
L 224.505751 73.35387 
L 224.505751 74.610061 
L 230.717254 74.610061 
L 230.717254 75.86829 
L 236.928757 75.86829 
L 236.928757 77.128401 
L 243.14026 77.128401 
L 243.14026 78.390248 
L 249.351763 78.390248 
L 249.351763 79.653694 
L 255.563265 79.653694 
L 255.563265 80.91861 
L 261.774768 80.91861 
L 261.774768 82.184875 
L 267.986271 82.184875 
L 267.986271 83.452376 
L 274.197774 83.452376 
L 274.197774 84.721008 
L 280.409276 84.721008 
L 280.409276 85.990668 
L 286.620779 85.990668 
L 286.620779 87.261265 
L 292.832282 87.261265 
L 292.832282 88.53271 
L 299.043785 88.53271 
L 299.043785 89.804918 
L 305.255288 89.804918 
L 305.255288 91.077813 
L 311.46679 91.077813 
L 311.46679 92.351318 
L 317.678293 92.351318 
L 317.678293 93.625364 
L 323.889796 93.625364 
L 323.889796 94.899883 
L 330.101299 94.899883 
L 330.101299 96.174812 
L 336.312801 96.174812 
L 336.312801 97.450088 
L 342.524304 97.450088 
L 342.524304 98.725654 
L 348.735807 98.725654 
L 348.735807 100.001452 
L 354.94731 100.001452 
L 354.94731 101.277426 
L 361.158813 101.277426 
L 361.158813 102.553524 
L 367.370315 102.553524 
L 367.370315 103.829693 
L 373.581818 103.829693 
L 373.581818 105.105881 
" style="fill:none;stroke:#1e90ff;stroke-dasharray:5.55,2.4;stroke-dashoffset:0;stroke-width:1.5;"/>
   </g>
   <g id="line2d_13">
    <path clip-path="url(#p4814b9f9f2)" d="M 69.218182 44.443636 
L 75.429685 44.443636 
L 75.429685 44.443636 
L 81.641187 44.443636 
L 81.641187 44.443636 
L 87.85269 44.443636 
L 87.85269 44.443636 
L 94.064193 44.443636 
L 94.064193 44.443636 
L 100.275696 44.443636 
L 100.275696 44.443636 
L 106.487199 44.443636 
L 106.487199 44.443636 
L 112.698701 44.443636 
L 112.698701 147.03182 
L 118.910204 147.03182 
L 118.910204 147.03182 
L 125.121707 147.03182 
L 125.121707 200.025448 
L 131.33321 200.025448 
L 131.33321 200.025448 
L 137.544712 200.025448 
L 137.544712 200.025448 
L 143.756215 200.025448 
L 143.756215 200.025448 
L 149.967718 200.025448 
L 149.967718 213.592424 
L 156.179221 213.592424 
L 156.179221 213.592424 
L 162.390724 213.592424 
L 162.390724 213.592424 
L 168.602226 213.592424 
L 168.602226 213.592424 
L 174.813729 213.592424 
L 174.813729 213.592424 
L 181.025232 213.592424 
L 181.025232 213.592424 
L 187.236735 213.592424 
L 187.236735 213.592424 
L 193.448237 213.592424 
L 193.448237 213.592424 
L 199.65974 213.592424 
L 199.65974 213.592424 
L 205.871243 213.592424 
L 205.871243 213.592424 
L 212.082746 213.592424 
L 212.082746 213.592424 
L 218.294249 213.592424 
L 218.294249 213.592424 
L 224.505751 213.592424 
L 224.505751 213.592424 
L 230.717254 213.592424 
L 230.717254 213.592424 
L 236.928757 213.592424 
L 236.928757 204.20665 
L 243.14026 204.20665 
L 243.14026 204.20665 
L 249.351763 204.20665 
L 249.351763 204.20665 
L 255.563265 204.20665 
L 255.563265 204.20665 
L 261.774768 204.20665 
L 261.774768 204.20665 
L 267.986271 204.20665 
L 267.986271 204.20665 
L 274.197774 204.20665 
L 274.197774 204.20665 
L 280.409276 204.20665 
L 280.409276 204.20665 
L 286.620779 204.20665 
L 286.620779 204.20665 
L 292.832282 204.20665 
L 292.832282 204.20665 
L 299.043785 204.20665 
L 299.043785 204.20665 
L 305.255288 204.20665 
L 305.255288 204.20665 
L 311.46679 204.20665 
L 311.46679 200.309435 
L 317.678293 200.309435 
L 317.678293 200.309435 
L 323.889796 200.309435 
L 323.889796 200.286698 
L 330.101299 200.286698 
L 330.101299 200.286698 
L 336.312801 200.286698 
L 336.312801 200.281898 
L 342.524304 200.281898 
L 342.524304 200.281898 
L 348.735807 200.281898 
L 348.735807 200.281898 
L 354.94731 200.281898 
L 354.94731 200.281898 
L 361.158813 200.281898 
L 361.158813 200.281898 
L 367.370315 200.281898 
L 367.370315 200.281898 
L 373.581818 200.281898 
L 373.581818 200.281898 
" style="fill:none;stroke:#ff8c00;stroke-dasharray:5.55,2.4;stroke-dashoffset:0;stroke-width:1.5;"/>
   </g>
   <g id="line2d_14">
    <path clip-path="url(#p4814b9f9f2)" d="M 75.429685 44.443636 
L 81.641187 44.443636 
L 81.641187 44.905471 
L 87.85269 44.905471 
L 87.85269 52.832509 
L 94.064193 52.832509 
L 94.064193 52.832509 
L 100.275696 52.832509 
L 100.275696 52.832509 
L 106.487199 52.832509 
L 106.487199 64.762021 
L 112.698701 64.762021 
L 112.698701 128.507252 
L 118.910204 128.507252 
L 118.910204 137.14114 
L 125.121707 137.14114 
L 125.121707 146.160813 
L 131.33321 146.160813 
L 131.33321 177.360265 
L 137.544712 177.360265 
L 137.544712 177.360265 
L 143.756215 177.360265 
L 143.756215 202.409684 
L 149.967718 202.409684 
L 149.967718 202.409684 
L 156.179221 202.409684 
L 156.179221 202.409684 
L 162.390724 202.409684 
L 162.390724 200.529638 
L 168.602226 200.529638 
L 168.602226 200.529638 
L 174.813729 200.529638 
L 174.813729 200.529638 
L 181.025232 200.529638 
L 181.025232 200.529638 
L 187.236735 200.529638 
L 187.236735 200.529638 
L 193.448237 200.529638 
L 193.448237 200.268838 
L 199.65974 200.268838 
L 199.65974 200.268838 
L 205.871243 200.268838 
L 205.871243 200.268838 
L 212.082746 200.268838 
L 212.082746 200.268838 
L 218.294249 200.268838 
L 218.294249 200.268838 
L 224.505751 200.268838 
L 224.505751 200.264907 
L 230.717254 200.264907 
L 230.717254 200.264907 
L 236.928757 200.264907 
L 236.928757 200.264852 
L 243.14026 200.264852 
L 243.14026 200.264852 
L 249.351763 200.264852 
L 249.351763 200.264852 
L 255.563265 200.264852 
L 255.563265 200.264848 
L 261.774768 200.264848 
L 261.774768 200.264848 
L 267.986271 200.264848 
L 267.986271 200.264848 
L 274.197774 200.264848 
L 274.197774 200.264848 
L 280.409276 200.264848 
L 280.409276 200.264848 
L 286.620779 200.264848 
L 286.620779 200.264848 
L 292.832282 200.264848 
L 292.832282 200.264848 
L 299.043785 200.264848 
L 299.043785 200.264848 
L 305.255288 200.264848 
L 305.255288 200.264848 
L 311.46679 200.264848 
L 311.46679 200.264848 
L 317.678293 200.264848 
L 317.678293 200.264848 
L 323.889796 200.264848 
L 323.889796 200.264848 
L 330.101299 200.264848 
L 330.101299 200.264848 
L 336.312801 200.264848 
L 336.312801 200.264848 
L 342.524304 200.264848 
L 342.524304 200.264848 
L 348.735807 200.264848 
L 348.735807 200.264848 
L 354.94731 200.264848 
L 354.94731 200.264848 
L 361.158813 200.264848 
L 361.158813 200.264848 
L 367.370315 200.264848 
L 367.370315 200.264848 
L 373.581818 200.264848 
L 373.581818 200.264848 
" style="fill:none;stroke:#008000;stroke-dasharray:5.55,2.4;stroke-dashoffset:0;stroke-width:1.5;"/>
   </g>
   <g id="line2d_15">
    <path clip-path="url(#p4814b9f9f2)" d="M 69.218182 44.443636 
L 75.429685 44.443636 
L 75.429685 44.443636 
L 81.641187 44.443636 
L 81.641187 58.896708 
L 87.85269 58.896708 
L 87.85269 58.896708 
L 94.064193 58.896708 
L 94.064193 58.896708 
L 100.275696 58.896708 
L 100.275696 95.515487 
L 106.487199 95.515487 
L 106.487199 95.515487 
L 112.698701 95.515487 
L 112.698701 95.515487 
L 118.910204 95.515487 
L 118.910204 95.515487 
L 125.121707 95.515487 
L 125.121707 95.515487 
L 131.33321 95.515487 
L 131.33321 95.515487 
L 137.544712 95.515487 
L 137.544712 95.515487 
L 143.756215 95.515487 
L 143.756215 95.515487 
L 149.967718 95.515487 
L 149.967718 95.515487 
L 156.179221 95.515487 
L 156.179221 95.515487 
L 162.390724 95.515487 
L 162.390724 95.515487 
L 168.602226 95.515487 
L 168.602226 95.515487 
L 174.813729 95.515487 
L 174.813729 95.515487 
L 181.025232 95.515487 
L 181.025232 129.006031 
L 187.236735 129.006031 
L 187.236735 129.006031 
L 193.448237 129.006031 
L 193.448237 129.006031 
L 199.65974 129.006031 
L 199.65974 170.998267 
L 205.871243 170.998267 
L 205.871243 170.998267 
L 212.082746 170.998267 
L 212.082746 170.998267 
L 218.294249 170.998267 
L 218.294249 170.998267 
L 224.505751 170.998267 
L 224.505751 170.998267 
L 230.717254 170.998267 
L 230.717254 170.998267 
L 236.928757 170.998267 
L 236.928757 170.998267 
L 243.14026 170.998267 
L 243.14026 170.998267 
L 249.351763 170.998267 
L 249.351763 170.998267 
L 255.563265 170.998267 
L 255.563265 170.998267 
L 261.774768 170.998267 
L 261.774768 170.998267 
L 267.986271 170.998267 
L 267.986271 170.998267 
L 274.197774 170.998267 
L 274.197774 180.356738 
L 280.409276 180.356738 
L 280.409276 180.356738 
L 286.620779 180.356738 
L 286.620779 180.356738 
L 292.832282 180.356738 
L 292.832282 180.356738 
L 299.043785 180.356738 
L 299.043785 180.356738 
L 305.255288 180.356738 
L 305.255288 180.356738 
L 311.46679 180.356738 
L 311.46679 180.356738 
L 317.678293 180.356738 
L 317.678293 180.356738 
L 323.889796 180.356738 
L 323.889796 180.356738 
L 330.101299 180.356738 
L 330.101299 210.404087 
L 336.312801 210.404087 
L 336.312801 210.404087 
L 342.524304 210.404087 
L 342.524304 210.404087 
L 348.735807 210.404087 
L 348.735807 210.404087 
L 354.94731 210.404087 
L 354.94731 210.404087 
L 361.158813 210.404087 
L 361.158813 210.404087 
L 367.370315 210.404087 
L 367.370315 210.404087 
L 373.581818 210.404087 
L 373.581818 210.404087 
" style="fill:none;stroke:#ff0000;stroke-dasharray:5.55,2.4;stroke-dashoffset:0;stroke-width:1.5;"/>
   </g>
   <g id="line2d_16">
    <path clip-path="url(#p4814b9f9f2)" d="M 69.218182 44.443636 
L 75.429685 44.443636 
L 75.429685 44.443636 
L 81.641187 44.443636 
L 81.641187 46.676938 
L 87.85269 46.676938 
L 87.85269 46.676938 
L 94.064193 46.676938 
L 94.064193 46.676938 
L 100.275696 46.676938 
L 100.275696 46.676938 
L 106.487199 46.676938 
L 106.487199 98.252617 
L 112.698701 98.252617 
L 112.698701 98.252617 
L 118.910204 98.252617 
L 118.910204 98.252617 
L 125.121707 98.252617 
L 125.121707 98.252617 
L 131.33321 98.252617 
L 131.33321 234.925673 
L 137.544712 234.925673 
L 137.544712 235.490434 
L 143.756215 235.490434 
L 143.756215 235.495462 
L 149.967718 235.495462 
L 149.967718 235.495462 
L 156.179221 235.495462 
L 156.179221 235.495462 
L 162.390724 235.495462 
L 162.390724 235.495462 
L 168.602226 235.495462 
L 168.602226 202.133771 
L 174.813729 202.133771 
L 174.813729 200.516917 
L 181.025232 200.516917 
L 181.025232 200.271282 
L 187.236735 200.271282 
L 187.236735 200.271282 
L 193.448237 200.271282 
L 193.448237 200.271282 
L 199.65974 200.271282 
L 199.65974 200.264849 
L 205.871243 200.264849 
L 205.871243 200.264849 
L 212.082746 200.264849 
L 212.082746 200.264849 
L 218.294249 200.264849 
L 218.294249 200.264849 
L 224.505751 200.264849 
L 224.505751 200.264849 
L 230.717254 200.264849 
L 230.717254 200.264848 
L 236.928757 200.264848 
L 236.928757 200.264848 
L 243.14026 200.264848 
L 243.14026 200.264848 
L 249.351763 200.264848 
L 249.351763 200.264848 
L 255.563265 200.264848 
L 255.563265 200.264848 
L 261.774768 200.264848 
L 261.774768 200.264848 
L 267.986271 200.264848 
L 267.986271 200.264848 
L 274.197774 200.264848 
L 274.197774 200.264848 
L 280.409276 200.264848 
L 280.409276 200.264848 
L 286.620779 200.264848 
L 286.620779 200.264848 
L 292.832282 200.264848 
L 292.832282 200.264848 
L 299.043785 200.264848 
L 299.043785 200.264848 
L 305.255288 200.264848 
L 305.255288 200.264848 
L 311.46679 200.264848 
L 311.46679 200.264848 
L 317.678293 200.264848 
L 317.678293 200.264848 
L 323.889796 200.264848 
L 323.889796 200.264848 
L 330.101299 200.264848 
L 330.101299 200.264848 
L 336.312801 200.264848 
L 336.312801 200.264848 
L 342.524304 200.264848 
L 342.524304 200.264848 
L 348.735807 200.264848 
L 348.735807 200.264848 
L 354.94731 200.264848 
L 354.94731 200.264848 
L 361.158813 200.264848 
L 361.158813 200.264848 
L 367.370315 200.264848 
L 367.370315 200.264848 
L 373.581818 200.264848 
L 373.581818 200.264848 
" style="fill:none;stroke:#9400d3;stroke-dasharray:5.55,2.4;stroke-dashoffset:0;stroke-width:1.5;"/>
   </g>
   <g id="line2d_17">
    <path clip-path="url(#p4814b9f9f2)" d="M 69.218182 44.443636 
L 75.429685 44.443636 
L 75.429685 44.443636 
L 81.641187 44.443636 
L 81.641187 44.443636 
L 87.85269 44.443636 
L 87.85269 46.788071 
L 94.064193 46.788071 
L 94.064193 53.838082 
L 100.275696 53.838082 
L 100.275696 72.87714 
L 106.487199 72.87714 
L 106.487199 79.095152 
L 112.698701 79.095152 
L 112.698701 83.748203 
L 118.910204 83.748203 
L 118.910204 96.974902 
L 125.121707 96.974902 
L 125.121707 117.438229 
L 131.33321 117.438229 
L 131.33321 139.922449 
L 137.544712 139.922449 
L 137.544712 139.922449 
L 143.756215 139.922449 
L 143.756215 139.922449 
L 149.967718 139.922449 
L 149.967718 139.922449 
L 156.179221 139.922449 
L 156.179221 139.922449 
L 162.390724 139.922449 
L 162.390724 139.922449 
L 168.602226 139.922449 
L 168.602226 139.922449 
L 174.813729 139.922449 
L 174.813729 139.922449 
L 181.025232 139.922449 
L 181.025232 139.922449 
L 187.236735 139.922449 
L 187.236735 139.922449 
L 193.448237 139.922449 
L 193.448237 139.922449 
L 199.65974 139.922449 
L 199.65974 139.922449 
L 205.871243 139.922449 
L 205.871243 139.922449 
L 212.082746 139.922449 
L 212.082746 139.922449 
L 218.294249 139.922449 
L 218.294249 139.922449 
L 224.505751 139.922449 
L 224.505751 139.922449 
L 230.717254 139.922449 
L 230.717254 139.922449 
L 236.928757 139.922449 
L 236.928757 139.922449 
L 243.14026 139.922449 
L 243.14026 139.922449 
L 249.351763 139.922449 
L 249.351763 139.922449 
L 255.563265 139.922449 
L 255.563265 139.922449 
L 261.774768 139.922449 
L 261.774768 139.922449 
L 267.986271 139.922449 
L 267.986271 139.922449 
L 274.197774 139.922449 
L 274.197774 139.922449 
L 280.409276 139.922449 
L 280.409276 139.922449 
L 286.620779 139.922449 
L 286.620779 139.922449 
L 292.832282 139.922449 
L 292.832282 139.922449 
L 299.043785 139.922449 
L 299.043785 139.922449 
L 305.255288 139.922449 
L 305.255288 139.922449 
L 311.46679 139.922449 
L 311.46679 139.922449 
L 317.678293 139.922449 
L 317.678293 139.922449 
L 323.889796 139.922449 
L 323.889796 139.922449 
L 330.101299 139.922449 
L 330.101299 139.922449 
L 336.312801 139.922449 
L 336.312801 139.922449 
L 342.524304 139.922449 
L 342.524304 139.922449 
L 348.735807 139.922449 
L 348.735807 139.922449 
L 354.94731 139.922449 
L 354.94731 139.922449 
L 361.158813 139.922449 
L 361.158813 139.922449 
L 367.370315 139.922449 
L 367.370315 139.922449 
L 373.581818 139.922449 
L 373.581818 139.922449 
" style="fill:none;stroke:#8b4513;stroke-dasharray:5.55,2.4;stroke-dashoffset:0;stroke-width:1.5;"/>
   </g>
   <g id="patch_3">
    <path d="M 54 252 
L 54 34.56 
" style="fill:none;stroke:#000000;stroke-linecap:square;stroke-linejoin:miter;stroke-width:0.8;"/>
   </g>
   <g id="patch_4">
    <path d="M 388.8 252 
L 388.8 34.56 
" style="fill:none;stroke:#000000;stroke-linecap:square;stroke-linejoin:miter;stroke-width:0.8;"/>
   </g>
   <g id="patch_5">
    <path d="M 54 252 
L 388.8 252 
" style="fill:none;stroke:#000000;stroke-linecap:square;stroke-linejoin:miter;stroke-width:0.8;"/>
   </g>
   <g id="patch_6">
    <path d="M 54 34.56 
L 388.8 34.56 
" style="fill:none;stroke:#000000;stroke-linecap:square;stroke-linejoin:miter;stroke-width:0.8;"/>
   </g>
   <g id="legend_1">
    <g id="patch_7">
     <path d="M 265.895312 131.185 
L 381.8 131.185 
Q 383.8 131.185 383.8 129.185 
L 383.8 41.56 
Q 383.8 39.56 381.8 39.56 
L 265.895312 39.56 
Q 263.895312 39.56 263.895312 41.56 
L 263.895312 129.185 
Q 263.895312 131.185 265.895312 131.185 
z
" style="fill:#ffffff;opacity:0.8;stroke:#cccccc;stroke-linejoin:miter;"/>
    </g>
    <g id="line2d_18">
     <path d="M 267.895312 47.658437 
L 287.895312 47.658437 
" style="fill:none;stroke:#1e90ff;stroke-dasharray:5.55,2.4;stroke-dashoffset:0;stroke-width:1.5;"/>
    </g>
    <g id="line2d_19"/>
    <g id="text_14">
     <!-- ADMM -->
     <g transform="translate(295.895312 51.158437)scale(0.1 -0.1)">
      <defs>
       <path d="M 34.1875 63.1875 
L 20.796875 26.90625 
L 47.609375 26.90625 
z
M 28.609375 72.90625 
L 39.796875 72.90625 
L 67.578125 0 
L 57.328125 0 
L 50.6875 18.703125 
L 17.828125 18.703125 
L 11.1875 0 
L 0.78125 0 
z
" id="DejaVuSans-65"/>
       <path d="M 19.671875 64.796875 
L 19.671875 8.109375 
L 31.59375 8.109375 
Q 46.6875 8.109375 53.6875 14.9375 
Q 60.6875 21.78125 60.6875 36.53125 
Q 60.6875 51.171875 53.6875 57.984375 
Q 46.6875 64.796875 31.59375 64.796875 
z
M 9.8125 72.90625 
L 30.078125 72.90625 
Q 51.265625 72.90625 61.171875 64.09375 
Q 71.09375 55.28125 71.09375 36.53125 
Q 71.09375 17.671875 61.125 8.828125 
Q 51.171875 0 30.078125 0 
L 9.8125 0 
z
" id="DejaVuSans-68"/>
       <path d="M 9.8125 72.90625 
L 24.515625 72.90625 
L 43.109375 23.296875 
L 61.8125 72.90625 
L 76.515625 72.90625 
L 76.515625 0 
L 66.890625 0 
L 66.890625 64.015625 
L 48.09375 14.015625 
L 38.1875 14.015625 
L 19.390625 64.015625 
L 19.390625 0 
L 9.8125 0 
z
" id="DejaVuSans-77"/>
      </defs>
      <use xlink:href="#DejaVuSans-65"/>
      <use x="68.408203" xlink:href="#DejaVuSans-68"/>
      <use x="145.410156" xlink:href="#DejaVuSans-77"/>
      <use x="231.689453" xlink:href="#DejaVuSans-77"/>
     </g>
    </g>
    <g id="line2d_20">
     <path d="M 267.895312 62.336562 
L 287.895312 62.336562 
" style="fill:none;stroke:#ff8c00;stroke-dasharray:5.55,2.4;stroke-dashoffset:0;stroke-width:1.5;"/>
    </g>
    <g id="line2d_21"/>
    <g id="text_15">
     <!-- ADMM_CUATRO -->
     <g transform="translate(295.895312 65.836562)scale(0.1 -0.1)">
      <defs>
       <path d="M 50.984375 -16.609375 
L 50.984375 -23.578125 
L -0.984375 -23.578125 
L -0.984375 -16.609375 
z
" id="DejaVuSans-95"/>
       <path d="M 8.6875 72.90625 
L 18.609375 72.90625 
L 18.609375 28.609375 
Q 18.609375 16.890625 22.84375 11.734375 
Q 27.09375 6.59375 36.625 6.59375 
Q 46.09375 6.59375 50.34375 11.734375 
Q 54.59375 16.890625 54.59375 28.609375 
L 54.59375 72.90625 
L 64.5 72.90625 
L 64.5 27.390625 
Q 64.5 13.140625 57.4375 5.859375 
Q 50.390625 -1.421875 36.625 -1.421875 
Q 22.796875 -1.421875 15.734375 5.859375 
Q 8.6875 13.140625 8.6875 27.390625 
z
" id="DejaVuSans-85"/>
       <path d="M -0.296875 72.90625 
L 61.375 72.90625 
L 61.375 64.59375 
L 35.5 64.59375 
L 35.5 0 
L 25.59375 0 
L 25.59375 64.59375 
L -0.296875 64.59375 
z
" id="DejaVuSans-84"/>
       <path d="M 44.390625 34.1875 
Q 47.5625 33.109375 50.5625 29.59375 
Q 53.5625 26.078125 56.59375 19.921875 
L 66.609375 0 
L 56 0 
L 46.6875 18.703125 
Q 43.0625 26.03125 39.671875 28.421875 
Q 36.28125 30.8125 30.421875 30.8125 
L 19.671875 30.8125 
L 19.671875 0 
L 9.8125 0 
L 9.8125 72.90625 
L 32.078125 72.90625 
Q 44.578125 72.90625 50.734375 67.671875 
Q 56.890625 62.453125 56.890625 51.90625 
Q 56.890625 45.015625 53.6875 40.46875 
Q 50.484375 35.9375 44.390625 34.1875 
z
M 19.671875 64.796875 
L 19.671875 38.921875 
L 32.078125 38.921875 
Q 39.203125 38.921875 42.84375 42.21875 
Q 46.484375 45.515625 46.484375 51.90625 
Q 46.484375 58.296875 42.84375 61.546875 
Q 39.203125 64.796875 32.078125 64.796875 
z
" id="DejaVuSans-82"/>
       <path d="M 39.40625 66.21875 
Q 28.65625 66.21875 22.328125 58.203125 
Q 16.015625 50.203125 16.015625 36.375 
Q 16.015625 22.609375 22.328125 14.59375 
Q 28.65625 6.59375 39.40625 6.59375 
Q 50.140625 6.59375 56.421875 14.59375 
Q 62.703125 22.609375 62.703125 36.375 
Q 62.703125 50.203125 56.421875 58.203125 
Q 50.140625 66.21875 39.40625 66.21875 
z
M 39.40625 74.21875 
Q 54.734375 74.21875 63.90625 63.9375 
Q 73.09375 53.65625 73.09375 36.375 
Q 73.09375 19.140625 63.90625 8.859375 
Q 54.734375 -1.421875 39.40625 -1.421875 
Q 24.03125 -1.421875 14.8125 8.828125 
Q 5.609375 19.09375 5.609375 36.375 
Q 5.609375 53.65625 14.8125 63.9375 
Q 24.03125 74.21875 39.40625 74.21875 
z
" id="DejaVuSans-79"/>
      </defs>
      <use xlink:href="#DejaVuSans-65"/>
      <use x="68.408203" xlink:href="#DejaVuSans-68"/>
      <use x="145.410156" xlink:href="#DejaVuSans-77"/>
      <use x="231.689453" xlink:href="#DejaVuSans-77"/>
      <use x="317.96875" xlink:href="#DejaVuSans-95"/>
      <use x="367.96875" xlink:href="#DejaVuSans-67"/>
      <use x="437.792969" xlink:href="#DejaVuSans-85"/>
      <use x="510.986328" xlink:href="#DejaVuSans-65"/>
      <use x="571.644531" xlink:href="#DejaVuSans-84"/>
      <use x="632.728516" xlink:href="#DejaVuSans-82"/>
      <use x="702.210938" xlink:href="#DejaVuSans-79"/>
     </g>
    </g>
    <g id="line2d_22">
     <path d="M 267.895312 77.292812 
L 287.895312 77.292812 
" style="fill:none;stroke:#008000;stroke-dasharray:5.55,2.4;stroke-dashoffset:0;stroke-width:1.5;"/>
    </g>
    <g id="line2d_23"/>
    <g id="text_16">
     <!-- Py-BOBYQA -->
     <g transform="translate(295.895312 80.792812)scale(0.1 -0.1)">
      <defs>
       <path d="M 19.671875 64.796875 
L 19.671875 37.40625 
L 32.078125 37.40625 
Q 38.96875 37.40625 42.71875 40.96875 
Q 46.484375 44.53125 46.484375 51.125 
Q 46.484375 57.671875 42.71875 61.234375 
Q 38.96875 64.796875 32.078125 64.796875 
z
M 9.8125 72.90625 
L 32.078125 72.90625 
Q 44.34375 72.90625 50.609375 67.359375 
Q 56.890625 61.8125 56.890625 51.125 
Q 56.890625 40.328125 50.609375 34.8125 
Q 44.34375 29.296875 32.078125 29.296875 
L 19.671875 29.296875 
L 19.671875 0 
L 9.8125 0 
z
" id="DejaVuSans-80"/>
       <path d="M 32.171875 -5.078125 
Q 28.375 -14.84375 24.75 -17.8125 
Q 21.140625 -20.796875 15.09375 -20.796875 
L 7.90625 -20.796875 
L 7.90625 -13.28125 
L 13.1875 -13.28125 
Q 16.890625 -13.28125 18.9375 -11.515625 
Q 21 -9.765625 23.484375 -3.21875 
L 25.09375 0.875 
L 2.984375 54.6875 
L 12.5 54.6875 
L 29.59375 11.921875 
L 46.6875 54.6875 
L 56.203125 54.6875 
z
" id="DejaVuSans-121"/>
       <path d="M 4.890625 31.390625 
L 31.203125 31.390625 
L 31.203125 23.390625 
L 4.890625 23.390625 
z
" id="DejaVuSans-45"/>
       <path d="M 19.671875 34.8125 
L 19.671875 8.109375 
L 35.5 8.109375 
Q 43.453125 8.109375 47.28125 11.40625 
Q 51.125 14.703125 51.125 21.484375 
Q 51.125 28.328125 47.28125 31.5625 
Q 43.453125 34.8125 35.5 34.8125 
z
M 19.671875 64.796875 
L 19.671875 42.828125 
L 34.28125 42.828125 
Q 41.5 42.828125 45.03125 45.53125 
Q 48.578125 48.25 48.578125 53.8125 
Q 48.578125 59.328125 45.03125 62.0625 
Q 41.5 64.796875 34.28125 64.796875 
z
M 9.8125 72.90625 
L 35.015625 72.90625 
Q 46.296875 72.90625 52.390625 68.21875 
Q 58.5 63.53125 58.5 54.890625 
Q 58.5 48.1875 55.375 44.234375 
Q 52.25 40.28125 46.1875 39.3125 
Q 53.46875 37.75 57.5 32.78125 
Q 61.53125 27.828125 61.53125 20.40625 
Q 61.53125 10.640625 54.890625 5.3125 
Q 48.25 0 35.984375 0 
L 9.8125 0 
z
" id="DejaVuSans-66"/>
       <path d="M -0.203125 72.90625 
L 10.40625 72.90625 
L 30.609375 42.921875 
L 50.6875 72.90625 
L 61.28125 72.90625 
L 35.5 34.71875 
L 35.5 0 
L 25.59375 0 
L 25.59375 34.71875 
z
" id="DejaVuSans-89"/>
       <path d="M 39.40625 66.21875 
Q 28.65625 66.21875 22.328125 58.203125 
Q 16.015625 50.203125 16.015625 36.375 
Q 16.015625 22.609375 22.328125 14.59375 
Q 28.65625 6.59375 39.40625 6.59375 
Q 50.140625 6.59375 56.421875 14.59375 
Q 62.703125 22.609375 62.703125 36.375 
Q 62.703125 50.203125 56.421875 58.203125 
Q 50.140625 66.21875 39.40625 66.21875 
z
M 53.21875 1.3125 
L 66.21875 -12.890625 
L 54.296875 -12.890625 
L 43.5 -1.21875 
Q 41.890625 -1.3125 41.03125 -1.359375 
Q 40.1875 -1.421875 39.40625 -1.421875 
Q 24.03125 -1.421875 14.8125 8.859375 
Q 5.609375 19.140625 5.609375 36.375 
Q 5.609375 53.65625 14.8125 63.9375 
Q 24.03125 74.21875 39.40625 74.21875 
Q 54.734375 74.21875 63.90625 63.9375 
Q 73.09375 53.65625 73.09375 36.375 
Q 73.09375 23.6875 67.984375 14.640625 
Q 62.890625 5.609375 53.21875 1.3125 
z
" id="DejaVuSans-81"/>
      </defs>
      <use xlink:href="#DejaVuSans-80"/>
      <use x="60.302734" xlink:href="#DejaVuSans-121"/>
      <use x="117.732422" xlink:href="#DejaVuSans-45"/>
      <use x="150.191406" xlink:href="#DejaVuSans-66"/>
      <use x="217.044922" xlink:href="#DejaVuSans-79"/>
      <use x="295.755859" xlink:href="#DejaVuSans-66"/>
      <use x="358.859375" xlink:href="#DejaVuSans-89"/>
      <use x="419.943359" xlink:href="#DejaVuSans-81"/>
      <use x="498.654297" xlink:href="#DejaVuSans-65"/>
     </g>
    </g>
    <g id="line2d_24">
     <path d="M 267.895312 91.970937 
L 287.895312 91.970937 
" style="fill:none;stroke:#ff0000;stroke-dasharray:5.55,2.4;stroke-dashoffset:0;stroke-width:1.5;"/>
    </g>
    <g id="line2d_25"/>
    <g id="text_17">
     <!-- DIRECT-L -->
     <g transform="translate(295.895312 95.470937)scale(0.1 -0.1)">
      <defs>
       <path d="M 9.8125 72.90625 
L 19.671875 72.90625 
L 19.671875 0 
L 9.8125 0 
z
" id="DejaVuSans-73"/>
       <path d="M 9.8125 72.90625 
L 55.90625 72.90625 
L 55.90625 64.59375 
L 19.671875 64.59375 
L 19.671875 43.015625 
L 54.390625 43.015625 
L 54.390625 34.71875 
L 19.671875 34.71875 
L 19.671875 8.296875 
L 56.78125 8.296875 
L 56.78125 0 
L 9.8125 0 
z
" id="DejaVuSans-69"/>
       <path d="M 9.8125 72.90625 
L 19.671875 72.90625 
L 19.671875 8.296875 
L 55.171875 8.296875 
L 55.171875 0 
L 9.8125 0 
z
" id="DejaVuSans-76"/>
      </defs>
      <use xlink:href="#DejaVuSans-68"/>
      <use x="77.001953" xlink:href="#DejaVuSans-73"/>
      <use x="106.494141" xlink:href="#DejaVuSans-82"/>
      <use x="175.976562" xlink:href="#DejaVuSans-69"/>
      <use x="239.160156" xlink:href="#DejaVuSans-67"/>
      <use x="308.984375" xlink:href="#DejaVuSans-84"/>
      <use x="360.943359" xlink:href="#DejaVuSans-45"/>
      <use x="397.027344" xlink:href="#DejaVuSans-76"/>
     </g>
    </g>
    <g id="line2d_26">
     <path d="M 267.895312 106.649062 
L 287.895312 106.649062 
" style="fill:none;stroke:#9400d3;stroke-dasharray:5.55,2.4;stroke-dashoffset:0;stroke-width:1.5;"/>
    </g>
    <g id="line2d_27"/>
    <g id="text_18">
     <!-- ALADIN_CUATRO -->
     <g transform="translate(295.895312 110.149062)scale(0.1 -0.1)">
      <use xlink:href="#DejaVuSans-65"/>
      <use x="68.408203" xlink:href="#DejaVuSans-76"/>
      <use x="126.371094" xlink:href="#DejaVuSans-65"/>
      <use x="194.779297" xlink:href="#DejaVuSans-68"/>
      <use x="271.78125" xlink:href="#DejaVuSans-73"/>
      <use x="301.273438" xlink:href="#DejaVuSans-78"/>
      <use x="376.078125" xlink:href="#DejaVuSans-95"/>
      <use x="426.078125" xlink:href="#DejaVuSans-67"/>
      <use x="495.902344" xlink:href="#DejaVuSans-85"/>
      <use x="569.095703" xlink:href="#DejaVuSans-65"/>
      <use x="629.753906" xlink:href="#DejaVuSans-84"/>
      <use x="690.837891" xlink:href="#DejaVuSans-82"/>
      <use x="760.320312" xlink:href="#DejaVuSans-79"/>
     </g>
    </g>
    <g id="line2d_28">
     <path d="M 267.895312 121.605312 
L 287.895312 121.605312 
" style="fill:none;stroke:#8b4513;stroke-dasharray:5.55,2.4;stroke-dashoffset:0;stroke-width:1.5;"/>
    </g>
    <g id="line2d_29"/>
    <g id="text_19">
     <!-- GPyOpt -->
     <g transform="translate(295.895312 125.105312)scale(0.1 -0.1)">
      <defs>
       <path d="M 59.515625 10.40625 
L 59.515625 29.984375 
L 43.40625 29.984375 
L 43.40625 38.09375 
L 69.28125 38.09375 
L 69.28125 6.78125 
Q 63.578125 2.734375 56.6875 0.65625 
Q 49.8125 -1.421875 42 -1.421875 
Q 24.90625 -1.421875 15.25 8.5625 
Q 5.609375 18.5625 5.609375 36.375 
Q 5.609375 54.25 15.25 64.234375 
Q 24.90625 74.21875 42 74.21875 
Q 49.125 74.21875 55.546875 72.453125 
Q 61.96875 70.703125 67.390625 67.28125 
L 67.390625 56.78125 
Q 61.921875 61.421875 55.765625 63.765625 
Q 49.609375 66.109375 42.828125 66.109375 
Q 29.4375 66.109375 22.71875 58.640625 
Q 16.015625 51.171875 16.015625 36.375 
Q 16.015625 21.625 22.71875 14.15625 
Q 29.4375 6.6875 42.828125 6.6875 
Q 48.046875 6.6875 52.140625 7.59375 
Q 56.25 8.5 59.515625 10.40625 
z
" id="DejaVuSans-71"/>
       <path d="M 18.109375 8.203125 
L 18.109375 -20.796875 
L 9.078125 -20.796875 
L 9.078125 54.6875 
L 18.109375 54.6875 
L 18.109375 46.390625 
Q 20.953125 51.265625 25.265625 53.625 
Q 29.59375 56 35.59375 56 
Q 45.5625 56 51.78125 48.09375 
Q 58.015625 40.1875 58.015625 27.296875 
Q 58.015625 14.40625 51.78125 6.484375 
Q 45.5625 -1.421875 35.59375 -1.421875 
Q 29.59375 -1.421875 25.265625 0.953125 
Q 20.953125 3.328125 18.109375 8.203125 
z
M 48.6875 27.296875 
Q 48.6875 37.203125 44.609375 42.84375 
Q 40.53125 48.484375 33.40625 48.484375 
Q 26.265625 48.484375 22.1875 42.84375 
Q 18.109375 37.203125 18.109375 27.296875 
Q 18.109375 17.390625 22.1875 11.75 
Q 26.265625 6.109375 33.40625 6.109375 
Q 40.53125 6.109375 44.609375 11.75 
Q 48.6875 17.390625 48.6875 27.296875 
z
" id="DejaVuSans-112"/>
      </defs>
      <use xlink:href="#DejaVuSans-71"/>
      <use x="77.490234" xlink:href="#DejaVuSans-80"/>
      <use x="137.792969" xlink:href="#DejaVuSans-121"/>
      <use x="196.972656" xlink:href="#DejaVuSans-79"/>
      <use x="275.683594" xlink:href="#DejaVuSans-112"/>
      <use x="339.160156" xlink:href="#DejaVuSans-116"/>
     </g>
    </g>
   </g>
  </g>
 </g>
 <defs>
  <clipPath id="p4814b9f9f2">
   <rect height="217.44" width="334.8" x="54" y="34.56"/>
  </clipPath>
 </defs>
</svg>
