<?xml version="1.0" encoding="utf-8" standalone="no"?>
<!DOCTYPE svg PUBLIC "-//W3C//DTD SVG 1.1//EN"
  "http://www.w3.org/Graphics/SVG/1.1/DTD/svg11.dtd">
<!-- Created with matplotlib (https://matplotlib.org/) -->
<svg height="288pt" version="1.1" viewBox="0 0 432 288" width="432pt" xmlns="http://www.w3.org/2000/svg" xmlns:xlink="http://www.w3.org/1999/xlink">
 <metadata>
  <rdf:RDF xmlns:cc="http://creativecommons.org/ns#" xmlns:dc="http://purl.org/dc/elements/1.1/" xmlns:rdf="http://www.w3.org/1999/02/22-rdf-syntax-ns#">
   <cc:Work>
    <dc:type rdf:resource="http://purl.org/dc/dcmitype/StillImage"/>
    <dc:date>2022-03-05T15:17:41.169176</dc:date>
    <dc:format>image/svg+xml</dc:format>
    <dc:creator>
     <cc:Agent>
      <dc:title>Matplotlib v3.3.4, https://matplotlib.org/</dc:title>
     </cc:Agent>
    </dc:creator>
   </cc:Work>
  </rdf:RDF>
 </metadata>
 <defs>
  <style type="text/css">*{stroke-linecap:butt;stroke-linejoin:round;}</style>
 </defs>
 <g id="figure_1">
  <g id="patch_1">
   <path d="M 0 288 
L 432 288 
L 432 0 
L 0 0 
z
" style="fill:#ffffff;"/>
  </g>
  <g id="axes_1">
   <g id="patch_2">
    <path d="M 54 252 
L 388.8 252 
L 388.8 34.56 
L 54 34.56 
z
" style="fill:#ffffff;"/>
   </g>
   <g id="PolyCollection_1">
    <defs>
     <path d="M 69.218182 -243.556364 
L 69.218182 -243.556364 
L 72.292562 -243.556364 
L 72.292562 -243.556364 
L 75.366942 -243.556364 
L 75.366942 -243.556364 
L 78.441322 -243.556364 
L 78.441322 -243.556364 
L 81.515702 -243.556364 
L 81.515702 -243.556364 
L 84.590083 -243.556364 
L 84.590083 -243.556364 
L 87.664463 -243.556364 
L 87.664463 -243.556364 
L 90.738843 -243.556364 
L 90.738843 -243.556364 
L 93.813223 -243.556364 
L 93.813223 -243.556364 
L 96.887603 -243.556364 
L 96.887603 -243.556364 
L 99.961983 -243.556364 
L 99.961983 -243.556364 
L 103.036364 -243.556364 
L 103.036364 -150.596937 
L 106.110744 -150.596937 
L 106.110744 -150.596937 
L 109.185124 -150.596937 
L 109.185124 -60.495503 
L 112.259504 -60.495503 
L 112.259504 -60.495503 
L 115.333884 -60.495503 
L 115.333884 -60.495503 
L 118.408264 -60.495503 
L 118.408264 -60.495503 
L 121.482645 -60.495503 
L 121.482645 -49.736296 
L 124.557025 -49.736296 
L 124.557025 -49.736296 
L 127.631405 -49.736296 
L 127.631405 -46.594098 
L 130.705785 -46.594098 
L 130.705785 -46.594098 
L 133.780165 -46.594098 
L 133.780165 -46.594098 
L 136.854545 -46.594098 
L 136.854545 -46.594098 
L 139.928926 -46.594098 
L 139.928926 -46.405473 
L 143.003306 -46.405473 
L 143.003306 -46.405473 
L 146.077686 -46.405473 
L 146.077686 -46.405473 
L 149.152066 -46.405473 
L 149.152066 -46.405473 
L 152.226446 -46.405473 
L 152.226446 -46.026128 
L 155.300826 -46.026128 
L 155.300826 -46.026128 
L 158.375207 -46.026128 
L 158.375207 -45.888671 
L 161.449587 -45.888671 
L 161.449587 -45.888671 
L 164.523967 -45.888671 
L 164.523967 -45.887386 
L 167.598347 -45.887386 
L 167.598347 -45.887386 
L 170.672727 -45.887386 
L 170.672727 -45.88532 
L 173.747107 -45.88532 
L 173.747107 -45.88532 
L 176.821488 -45.88532 
L 176.821488 -45.884588 
L 179.895868 -45.884588 
L 179.895868 -45.884588 
L 182.970248 -45.884588 
L 182.970248 -45.884178 
L 186.044628 -45.884178 
L 186.044628 -45.884178 
L 189.119008 -45.884178 
L 189.119008 -45.884178 
L 192.193388 -45.884178 
L 192.193388 -45.884178 
L 195.267769 -45.884178 
L 195.267769 -45.883774 
L 198.342149 -45.883774 
L 198.342149 -45.883774 
L 201.416529 -45.883774 
L 201.416529 -45.883774 
L 204.490909 -45.883774 
L 204.490909 -45.883774 
L 207.565289 -45.883774 
L 207.565289 -45.883675 
L 210.639669 -45.883675 
L 210.639669 -45.883675 
L 213.71405 -45.883675 
L 213.71405 -45.883658 
L 216.78843 -45.883658 
L 216.78843 -45.883658 
L 219.86281 -45.883658 
L 219.86281 -45.883658 
L 222.93719 -45.883658 
L 222.93719 -45.883658 
L 226.01157 -45.883658 
L 226.01157 -45.883658 
L 229.08595 -45.883658 
L 229.08595 -45.883658 
L 232.160331 -45.883658 
L 232.160331 -45.883637 
L 235.234711 -45.883637 
L 235.234711 -45.883637 
L 238.309091 -45.883637 
L 238.309091 -45.883637 
L 241.383471 -45.883637 
L 241.383471 -45.883637 
L 244.457851 -45.883637 
L 244.457851 -45.883637 
L 247.532231 -45.883637 
L 247.532231 -45.883637 
L 250.606612 -45.883637 
L 250.606612 -45.883637 
L 253.680992 -45.883637 
L 253.680992 -45.883637 
L 256.755372 -45.883637 
L 256.755372 -45.883637 
L 259.829752 -45.883637 
L 259.829752 -45.883637 
L 262.904132 -45.883637 
L 262.904132 -45.883637 
L 265.978512 -45.883637 
L 265.978512 -45.883637 
L 269.052893 -45.883637 
L 269.052893 -45.883637 
L 272.127273 -45.883637 
L 272.127273 -45.883637 
L 275.201653 -45.883637 
L 275.201653 -45.883637 
L 278.276033 -45.883637 
L 278.276033 -45.883637 
L 281.350413 -45.883637 
L 281.350413 -45.883637 
L 284.424793 -45.883637 
L 284.424793 -45.883637 
L 287.499174 -45.883637 
L 287.499174 -45.883637 
L 290.573554 -45.883637 
L 290.573554 -45.883637 
L 293.647934 -45.883637 
L 293.647934 -45.883637 
L 296.722314 -45.883637 
L 296.722314 -45.883637 
L 299.796694 -45.883637 
L 299.796694 -45.883637 
L 302.871074 -45.883637 
L 302.871074 -45.883637 
L 305.945455 -45.883637 
L 305.945455 -45.883637 
L 309.019835 -45.883637 
L 309.019835 -45.883637 
L 312.094215 -45.883637 
L 312.094215 -45.883637 
L 315.168595 -45.883637 
L 315.168595 -45.883637 
L 318.242975 -45.883637 
L 318.242975 -45.883637 
L 321.317355 -45.883637 
L 321.317355 -45.883637 
L 324.391736 -45.883637 
L 324.391736 -45.883637 
L 327.466116 -45.883637 
L 327.466116 -45.883637 
L 330.540496 -45.883637 
L 330.540496 -45.883637 
L 333.614876 -45.883637 
L 333.614876 -45.883637 
L 336.689256 -45.883637 
L 336.689256 -45.883637 
L 339.763636 -45.883637 
L 339.763636 -45.883637 
L 342.838017 -45.883637 
L 342.838017 -45.883637 
L 345.912397 -45.883637 
L 345.912397 -45.883637 
L 348.986777 -45.883637 
L 348.986777 -45.883637 
L 352.061157 -45.883637 
L 352.061157 -45.883637 
L 355.135537 -45.883637 
L 355.135537 -45.883637 
L 358.209917 -45.883637 
L 358.209917 -45.883637 
L 361.284298 -45.883637 
L 361.284298 -45.883637 
L 364.358678 -45.883637 
L 364.358678 -45.883637 
L 367.433058 -45.883637 
L 367.433058 -45.883637 
L 370.507438 -45.883637 
L 370.507438 -45.883637 
L 373.581818 -45.883637 
L 373.581818 -45.883637 
L 373.581818 -45.883637 
L 373.581818 -45.883637 
L 373.581818 -45.883637 
L 370.507438 -45.883637 
L 370.507438 -45.883637 
L 367.433058 -45.883637 
L 367.433058 -45.883637 
L 364.358678 -45.883637 
L 364.358678 -45.883637 
L 361.284298 -45.883637 
L 361.284298 -45.883637 
L 358.209917 -45.883637 
L 358.209917 -45.883637 
L 355.135537 -45.883637 
L 355.135537 -45.883637 
L 352.061157 -45.883637 
L 352.061157 -45.883637 
L 348.986777 -45.883637 
L 348.986777 -45.883637 
L 345.912397 -45.883637 
L 345.912397 -45.883637 
L 342.838017 -45.883637 
L 342.838017 -45.883637 
L 339.763636 -45.883637 
L 339.763636 -45.883637 
L 336.689256 -45.883637 
L 336.689256 -45.883637 
L 333.614876 -45.883637 
L 333.614876 -45.883637 
L 330.540496 -45.883637 
L 330.540496 -45.883637 
L 327.466116 -45.883637 
L 327.466116 -45.883637 
L 324.391736 -45.883637 
L 324.391736 -45.883637 
L 321.317355 -45.883637 
L 321.317355 -45.883637 
L 318.242975 -45.883637 
L 318.242975 -45.883637 
L 315.168595 -45.883637 
L 315.168595 -45.883637 
L 312.094215 -45.883637 
L 312.094215 -45.883637 
L 309.019835 -45.883637 
L 309.019835 -45.883637 
L 305.945455 -45.883637 
L 305.945455 -45.883637 
L 302.871074 -45.883637 
L 302.871074 -45.883637 
L 299.796694 -45.883637 
L 299.796694 -45.883637 
L 296.722314 -45.883637 
L 296.722314 -45.883637 
L 293.647934 -45.883637 
L 293.647934 -45.883637 
L 290.573554 -45.883637 
L 290.573554 -45.883637 
L 287.499174 -45.883637 
L 287.499174 -45.883637 
L 284.424793 -45.883637 
L 284.424793 -45.883637 
L 281.350413 -45.883637 
L 281.350413 -45.883637 
L 278.276033 -45.883637 
L 278.276033 -45.883637 
L 275.201653 -45.883637 
L 275.201653 -45.883637 
L 272.127273 -45.883637 
L 272.127273 -45.883637 
L 269.052893 -45.883637 
L 269.052893 -45.883637 
L 265.978512 -45.883637 
L 265.978512 -45.883637 
L 262.904132 -45.883637 
L 262.904132 -45.883637 
L 259.829752 -45.883637 
L 259.829752 -45.883637 
L 256.755372 -45.883637 
L 256.755372 -45.883637 
L 253.680992 -45.883637 
L 253.680992 -45.883637 
L 250.606612 -45.883637 
L 250.606612 -45.883637 
L 247.532231 -45.883637 
L 247.532231 -45.883637 
L 244.457851 -45.883637 
L 244.457851 -45.883637 
L 241.383471 -45.883637 
L 241.383471 -45.883637 
L 238.309091 -45.883637 
L 238.309091 -45.883637 
L 235.234711 -45.883637 
L 235.234711 -45.883637 
L 232.160331 -45.883637 
L 232.160331 -45.883658 
L 229.08595 -45.883658 
L 229.08595 -45.883658 
L 226.01157 -45.883658 
L 226.01157 -45.883658 
L 222.93719 -45.883658 
L 222.93719 -45.883658 
L 219.86281 -45.883658 
L 219.86281 -45.883658 
L 216.78843 -45.883658 
L 216.78843 -45.883658 
L 213.71405 -45.883658 
L 213.71405 -45.883675 
L 210.639669 -45.883675 
L 210.639669 -45.883675 
L 207.565289 -45.883675 
L 207.565289 -45.883774 
L 204.490909 -45.883774 
L 204.490909 -45.883774 
L 201.416529 -45.883774 
L 201.416529 -45.883774 
L 198.342149 -45.883774 
L 198.342149 -45.883774 
L 195.267769 -45.883774 
L 195.267769 -45.884178 
L 192.193388 -45.884178 
L 192.193388 -45.884178 
L 189.119008 -45.884178 
L 189.119008 -45.884178 
L 186.044628 -45.884178 
L 186.044628 -45.884178 
L 182.970248 -45.884178 
L 182.970248 -45.884588 
L 179.895868 -45.884588 
L 179.895868 -45.884588 
L 176.821488 -45.884588 
L 176.821488 -45.88532 
L 173.747107 -45.88532 
L 173.747107 -45.88532 
L 170.672727 -45.88532 
L 170.672727 -45.887386 
L 167.598347 -45.887386 
L 167.598347 -45.887386 
L 164.523967 -45.887386 
L 164.523967 -45.888671 
L 161.449587 -45.888671 
L 161.449587 -45.888671 
L 158.375207 -45.888671 
L 158.375207 -46.026128 
L 155.300826 -46.026128 
L 155.300826 -46.026128 
L 152.226446 -46.026128 
L 152.226446 -46.405473 
L 149.152066 -46.405473 
L 149.152066 -46.405473 
L 146.077686 -46.405473 
L 146.077686 -46.405473 
L 143.003306 -46.405473 
L 143.003306 -46.405473 
L 139.928926 -46.405473 
L 139.928926 -46.594098 
L 136.854545 -46.594098 
L 136.854545 -46.594098 
L 133.780165 -46.594098 
L 133.780165 -46.594098 
L 130.705785 -46.594098 
L 130.705785 -46.594098 
L 127.631405 -46.594098 
L 127.631405 -49.736296 
L 124.557025 -49.736296 
L 124.557025 -49.736296 
L 121.482645 -49.736296 
L 121.482645 -60.495503 
L 118.408264 -60.495503 
L 118.408264 -60.495503 
L 115.333884 -60.495503 
L 115.333884 -60.495503 
L 112.259504 -60.495503 
L 112.259504 -60.495503 
L 109.185124 -60.495503 
L 109.185124 -150.596937 
L 106.110744 -150.596937 
L 106.110744 -150.596937 
L 103.036364 -150.596937 
L 103.036364 -243.556364 
L 99.961983 -243.556364 
L 99.961983 -243.556364 
L 96.887603 -243.556364 
L 96.887603 -243.556364 
L 93.813223 -243.556364 
L 93.813223 -243.556364 
L 90.738843 -243.556364 
L 90.738843 -243.556364 
L 87.664463 -243.556364 
L 87.664463 -243.556364 
L 84.590083 -243.556364 
L 84.590083 -243.556364 
L 81.515702 -243.556364 
L 81.515702 -243.556364 
L 78.441322 -243.556364 
L 78.441322 -243.556364 
L 75.366942 -243.556364 
L 75.366942 -243.556364 
L 72.292562 -243.556364 
L 72.292562 -243.556364 
L 69.218182 -243.556364 
z
" id="mf71446095a" style="stroke:#ff8c00;stroke-opacity:0.5;"/>
    </defs>
    <g clip-path="url(#p921e64bba9)">
     <use style="fill:#ff8c00;fill-opacity:0.5;stroke:#ff8c00;stroke-opacity:0.5;" x="0" xlink:href="#mf71446095a" y="288"/>
    </g>
   </g>
   <g id="PolyCollection_2">
    <defs>
     <path d="M 69.218182 -243.556364 
L 69.218182 -243.556364 
L 72.292562 -243.556364 
L 72.292562 -243.556364 
L 75.366942 -243.556364 
L 75.366942 -243.556364 
L 78.441322 -243.556364 
L 78.441322 -243.556364 
L 81.515702 -243.556364 
L 81.515702 -243.556364 
L 84.590083 -243.556364 
L 84.590083 -243.556364 
L 87.664463 -243.556364 
L 87.664463 -243.556364 
L 90.738843 -243.556364 
L 90.738843 -243.556364 
L 93.813223 -243.556364 
L 93.813223 -243.556364 
L 96.887603 -243.556364 
L 96.887603 -243.556364 
L 99.961983 -243.556364 
L 99.961983 -243.556364 
L 103.036364 -243.556364 
L 103.036364 -243.556364 
L 106.110744 -243.556364 
L 106.110744 -243.556364 
L 109.185124 -243.556364 
L 109.185124 -243.556364 
L 112.259504 -243.556364 
L 112.259504 -184.313591 
L 115.333884 -184.313591 
L 115.333884 -184.313591 
L 118.408264 -184.313591 
L 118.408264 -184.313591 
L 121.482645 -184.313591 
L 121.482645 -184.313591 
L 124.557025 -184.313591 
L 124.557025 -184.313591 
L 127.631405 -184.313591 
L 127.631405 -184.313591 
L 130.705785 -184.313591 
L 130.705785 -184.313591 
L 133.780165 -184.313591 
L 133.780165 -184.313591 
L 136.854545 -184.313591 
L 136.854545 -184.313591 
L 139.928926 -184.313591 
L 139.928926 -184.313591 
L 143.003306 -184.313591 
L 143.003306 -184.313591 
L 146.077686 -184.313591 
L 146.077686 -184.313591 
L 149.152066 -184.313591 
L 149.152066 -184.313591 
L 152.226446 -184.313591 
L 152.226446 -184.313591 
L 155.300826 -184.313591 
L 155.300826 -184.313591 
L 158.375207 -184.313591 
L 158.375207 -184.313591 
L 161.449587 -184.313591 
L 161.449587 -150.787849 
L 164.523967 -150.787849 
L 164.523967 -150.787849 
L 167.598347 -150.787849 
L 167.598347 -150.787849 
L 170.672727 -150.787849 
L 170.672727 -150.787849 
L 173.747107 -150.787849 
L 173.747107 -150.787849 
L 176.821488 -150.787849 
L 176.821488 -150.787849 
L 179.895868 -150.787849 
L 179.895868 -150.787849 
L 182.970248 -150.787849 
L 182.970248 -150.787849 
L 186.044628 -150.787849 
L 186.044628 -148.683231 
L 189.119008 -148.683231 
L 189.119008 -148.683231 
L 192.193388 -148.683231 
L 192.193388 -148.683231 
L 195.267769 -148.683231 
L 195.267769 -148.683231 
L 198.342149 -148.683231 
L 198.342149 -148.683231 
L 201.416529 -148.683231 
L 201.416529 -135.933891 
L 204.490909 -135.933891 
L 204.490909 -123.586547 
L 207.565289 -123.586547 
L 207.565289 -123.586547 
L 210.639669 -123.586547 
L 210.639669 -123.586547 
L 213.71405 -123.586547 
L 213.71405 -123.586547 
L 216.78843 -123.586547 
L 216.78843 -123.586547 
L 219.86281 -123.586547 
L 219.86281 -106.641023 
L 222.93719 -106.641023 
L 222.93719 -106.06508 
L 226.01157 -106.06508 
L 226.01157 -106.06508 
L 229.08595 -106.06508 
L 229.08595 -106.06508 
L 232.160331 -106.06508 
L 232.160331 -106.06508 
L 235.234711 -106.06508 
L 235.234711 -106.06508 
L 238.309091 -106.06508 
L 238.309091 -77.604447 
L 241.383471 -77.604447 
L 241.383471 -77.604447 
L 244.457851 -77.604447 
L 244.457851 -77.604447 
L 247.532231 -77.604447 
L 247.532231 -77.604447 
L 250.606612 -77.604447 
L 250.606612 -77.604447 
L 253.680992 -77.604447 
L 253.680992 -77.604447 
L 256.755372 -77.604447 
L 256.755372 -77.604447 
L 259.829752 -77.604447 
L 259.829752 -75.504099 
L 262.904132 -75.504099 
L 262.904132 -75.504099 
L 265.978512 -75.504099 
L 265.978512 -75.504099 
L 269.052893 -75.504099 
L 269.052893 -75.504099 
L 272.127273 -75.504099 
L 272.127273 -75.504099 
L 275.201653 -75.504099 
L 275.201653 -75.504099 
L 278.276033 -75.504099 
L 278.276033 -75.504099 
L 281.350413 -75.504099 
L 281.350413 -75.504099 
L 284.424793 -75.504099 
L 284.424793 -75.504099 
L 287.499174 -75.504099 
L 287.499174 -75.504099 
L 290.573554 -75.504099 
L 290.573554 -75.504099 
L 293.647934 -75.504099 
L 293.647934 -65.898244 
L 296.722314 -65.898244 
L 296.722314 -65.898244 
L 299.796694 -65.898244 
L 299.796694 -65.898244 
L 302.871074 -65.898244 
L 302.871074 -65.898244 
L 305.945455 -65.898244 
L 305.945455 -65.898244 
L 309.019835 -65.898244 
L 309.019835 -65.898244 
L 312.094215 -65.898244 
L 312.094215 -65.898244 
L 315.168595 -65.898244 
L 315.168595 -65.898244 
L 318.242975 -65.898244 
L 318.242975 -65.898244 
L 321.317355 -65.898244 
L 321.317355 -65.696407 
L 324.391736 -65.696407 
L 324.391736 -65.696407 
L 327.466116 -65.696407 
L 327.466116 -65.696407 
L 330.540496 -65.696407 
L 330.540496 -65.696407 
L 333.614876 -65.696407 
L 333.614876 -65.696407 
L 336.689256 -65.696407 
L 336.689256 -65.696407 
L 339.763636 -65.696407 
L 339.763636 -65.696407 
L 342.838017 -65.696407 
L 342.838017 -62.540439 
L 345.912397 -62.540439 
L 345.912397 -60.432893 
L 348.986777 -60.432893 
L 348.986777 -60.432893 
L 352.061157 -60.432893 
L 352.061157 -60.432893 
L 355.135537 -60.432893 
L 355.135537 -60.432893 
L 358.209917 -60.432893 
L 358.209917 -60.432893 
L 361.284298 -60.432893 
L 361.284298 -60.432893 
L 364.358678 -60.432893 
L 364.358678 -60.432893 
L 367.433058 -60.432893 
L 367.433058 -56.588664 
L 370.507438 -56.588664 
L 370.507438 -56.588664 
L 373.581818 -56.588664 
L 373.581818 -56.588664 
L 373.581818 -67.429202 
L 373.581818 -67.429202 
L 373.581818 -67.429202 
L 370.507438 -67.429202 
L 370.507438 -67.429202 
L 367.433058 -67.429202 
L 367.433058 -75.331747 
L 364.358678 -75.331747 
L 364.358678 -75.331747 
L 361.284298 -75.331747 
L 361.284298 -75.331747 
L 358.209917 -75.331747 
L 358.209917 -75.331747 
L 355.135537 -75.331747 
L 355.135537 -75.331747 
L 352.061157 -75.331747 
L 352.061157 -75.331747 
L 348.986777 -75.331747 
L 348.986777 -75.331747 
L 345.912397 -75.331747 
L 345.912397 -75.331747 
L 342.838017 -75.331747 
L 342.838017 -75.331747 
L 339.763636 -75.331747 
L 339.763636 -75.331747 
L 336.689256 -75.331747 
L 336.689256 -75.331747 
L 333.614876 -75.331747 
L 333.614876 -75.331747 
L 330.540496 -75.331747 
L 330.540496 -75.331747 
L 327.466116 -75.331747 
L 327.466116 -75.331747 
L 324.391736 -75.331747 
L 324.391736 -75.331747 
L 321.317355 -75.331747 
L 321.317355 -75.504099 
L 318.242975 -75.504099 
L 318.242975 -75.504099 
L 315.168595 -75.504099 
L 315.168595 -75.504099 
L 312.094215 -75.504099 
L 312.094215 -75.504099 
L 309.019835 -75.504099 
L 309.019835 -75.504099 
L 305.945455 -75.504099 
L 305.945455 -75.504099 
L 302.871074 -75.504099 
L 302.871074 -75.504099 
L 299.796694 -75.504099 
L 299.796694 -75.504099 
L 296.722314 -75.504099 
L 296.722314 -75.504099 
L 293.647934 -75.504099 
L 293.647934 -75.504099 
L 290.573554 -75.504099 
L 290.573554 -75.504099 
L 287.499174 -75.504099 
L 287.499174 -75.504099 
L 284.424793 -75.504099 
L 284.424793 -75.504099 
L 281.350413 -75.504099 
L 281.350413 -75.504099 
L 278.276033 -75.504099 
L 278.276033 -81.027924 
L 275.201653 -81.027924 
L 275.201653 -105.250558 
L 272.127273 -105.250558 
L 272.127273 -105.250558 
L 269.052893 -105.250558 
L 269.052893 -105.250558 
L 265.978512 -105.250558 
L 265.978512 -105.250558 
L 262.904132 -105.250558 
L 262.904132 -105.250558 
L 259.829752 -105.250558 
L 259.829752 -133.248598 
L 256.755372 -133.248598 
L 256.755372 -133.248598 
L 253.680992 -133.248598 
L 253.680992 -133.248598 
L 250.606612 -133.248598 
L 250.606612 -133.248598 
L 247.532231 -133.248598 
L 247.532231 -133.248598 
L 244.457851 -133.248598 
L 244.457851 -133.248598 
L 241.383471 -133.248598 
L 241.383471 -133.248598 
L 238.309091 -133.248598 
L 238.309091 -133.248598 
L 235.234711 -133.248598 
L 235.234711 -133.248598 
L 232.160331 -133.248598 
L 232.160331 -133.248598 
L 229.08595 -133.248598 
L 229.08595 -133.248598 
L 226.01157 -133.248598 
L 226.01157 -133.248598 
L 222.93719 -133.248598 
L 222.93719 -136.89709 
L 219.86281 -136.89709 
L 219.86281 -147.891699 
L 216.78843 -147.891699 
L 216.78843 -147.891699 
L 213.71405 -147.891699 
L 213.71405 -147.891699 
L 210.639669 -147.891699 
L 210.639669 -147.891699 
L 207.565289 -147.891699 
L 207.565289 -147.891699 
L 204.490909 -147.891699 
L 204.490909 -148.683231 
L 201.416529 -148.683231 
L 201.416529 -150.787849 
L 198.342149 -150.787849 
L 198.342149 -150.787849 
L 195.267769 -150.787849 
L 195.267769 -150.787849 
L 192.193388 -150.787849 
L 192.193388 -150.787849 
L 189.119008 -150.787849 
L 189.119008 -150.787849 
L 186.044628 -150.787849 
L 186.044628 -150.787849 
L 182.970248 -150.787849 
L 182.970248 -150.787849 
L 179.895868 -150.787849 
L 179.895868 -150.787849 
L 176.821488 -150.787849 
L 176.821488 -150.787849 
L 173.747107 -150.787849 
L 173.747107 -230.642504 
L 170.672727 -230.642504 
L 170.672727 -230.642504 
L 167.598347 -230.642504 
L 167.598347 -230.642504 
L 164.523967 -230.642504 
L 164.523967 -230.642504 
L 161.449587 -230.642504 
L 161.449587 -230.642504 
L 158.375207 -230.642504 
L 158.375207 -230.642504 
L 155.300826 -230.642504 
L 155.300826 -230.642504 
L 152.226446 -230.642504 
L 152.226446 -230.642504 
L 149.152066 -230.642504 
L 149.152066 -230.642504 
L 146.077686 -230.642504 
L 146.077686 -230.642504 
L 143.003306 -230.642504 
L 143.003306 -230.642504 
L 139.928926 -230.642504 
L 139.928926 -230.642504 
L 136.854545 -230.642504 
L 136.854545 -243.556364 
L 133.780165 -243.556364 
L 133.780165 -243.556364 
L 130.705785 -243.556364 
L 130.705785 -243.556364 
L 127.631405 -243.556364 
L 127.631405 -243.556364 
L 124.557025 -243.556364 
L 124.557025 -243.556364 
L 121.482645 -243.556364 
L 121.482645 -243.556364 
L 118.408264 -243.556364 
L 118.408264 -243.556364 
L 115.333884 -243.556364 
L 115.333884 -243.556364 
L 112.259504 -243.556364 
L 112.259504 -243.556364 
L 109.185124 -243.556364 
L 109.185124 -243.556364 
L 106.110744 -243.556364 
L 106.110744 -243.556364 
L 103.036364 -243.556364 
L 103.036364 -243.556364 
L 99.961983 -243.556364 
L 99.961983 -243.556364 
L 96.887603 -243.556364 
L 96.887603 -243.556364 
L 93.813223 -243.556364 
L 93.813223 -243.556364 
L 90.738843 -243.556364 
L 90.738843 -243.556364 
L 87.664463 -243.556364 
L 87.664463 -243.556364 
L 84.590083 -243.556364 
L 84.590083 -243.556364 
L 81.515702 -243.556364 
L 81.515702 -243.556364 
L 78.441322 -243.556364 
L 78.441322 -243.556364 
L 75.366942 -243.556364 
L 75.366942 -243.556364 
L 72.292562 -243.556364 
L 72.292562 -243.556364 
L 69.218182 -243.556364 
z
" id="m4992b05fa4" style="stroke:#ff0000;stroke-opacity:0.5;"/>
    </defs>
    <g clip-path="url(#p921e64bba9)">
     <use style="fill:#ff0000;fill-opacity:0.5;stroke:#ff0000;stroke-opacity:0.5;" x="0" xlink:href="#m4992b05fa4" y="288"/>
    </g>
   </g>
   <g id="PolyCollection_3">
    <defs>
     <path d="M 69.218182 -243.556364 
L 69.218182 -243.556364 
L 72.292562 -243.556364 
L 72.292562 -243.556364 
L 75.366942 -243.556364 
L 75.366942 -243.556364 
L 78.441322 -243.556364 
L 78.441322 -243.556364 
L 81.515702 -243.556364 
L 81.515702 -243.556364 
L 84.590083 -243.556364 
L 84.590083 -243.556364 
L 87.664463 -243.556364 
L 87.664463 -243.556364 
L 90.738843 -243.556364 
L 90.738843 -243.556364 
L 93.813223 -243.556364 
L 93.813223 -243.556364 
L 96.887603 -243.556364 
L 96.887603 -243.556364 
L 99.961983 -243.556364 
L 99.961983 -243.556364 
L 103.036364 -243.556364 
L 103.036364 -243.556364 
L 106.110744 -243.556364 
L 106.110744 -243.556364 
L 109.185124 -243.556364 
L 109.185124 -243.556364 
L 112.259504 -243.556364 
L 112.259504 -243.556364 
L 115.333884 -243.556364 
L 115.333884 -243.556364 
L 118.408264 -243.556364 
L 118.408264 -243.556364 
L 121.482645 -243.556364 
L 121.482645 -243.556364 
L 124.557025 -243.556364 
L 124.557025 -243.556364 
L 127.631405 -243.556364 
L 127.631405 -243.556364 
L 130.705785 -243.556364 
L 130.705785 -230.784522 
L 133.780165 -230.784522 
L 133.780165 -230.784522 
L 136.854545 -230.784522 
L 136.854545 -230.784522 
L 139.928926 -230.784522 
L 139.928926 -230.784522 
L 143.003306 -230.784522 
L 143.003306 -230.784522 
L 146.077686 -230.784522 
L 146.077686 -230.784522 
L 149.152066 -230.784522 
L 149.152066 -230.784522 
L 152.226446 -230.784522 
L 152.226446 -230.784522 
L 155.300826 -230.784522 
L 155.300826 -230.784522 
L 158.375207 -230.784522 
L 158.375207 -224.519163 
L 161.449587 -224.519163 
L 161.449587 -224.519163 
L 164.523967 -224.519163 
L 164.523967 -224.519163 
L 167.598347 -224.519163 
L 167.598347 -224.519163 
L 170.672727 -224.519163 
L 170.672727 -224.519163 
L 173.747107 -224.519163 
L 173.747107 -224.519163 
L 176.821488 -224.519163 
L 176.821488 -222.880217 
L 179.895868 -222.880217 
L 179.895868 -222.880217 
L 182.970248 -222.880217 
L 182.970248 -222.880217 
L 186.044628 -222.880217 
L 186.044628 -218.449661 
L 189.119008 -218.449661 
L 189.119008 -218.449661 
L 192.193388 -218.449661 
L 192.193388 -218.449661 
L 195.267769 -218.449661 
L 195.267769 -218.449661 
L 198.342149 -218.449661 
L 198.342149 -218.449661 
L 201.416529 -218.449661 
L 201.416529 -218.449661 
L 204.490909 -218.449661 
L 204.490909 -208.07685 
L 207.565289 -208.07685 
L 207.565289 -208.07685 
L 210.639669 -208.07685 
L 210.639669 -208.07685 
L 213.71405 -208.07685 
L 213.71405 -208.07685 
L 216.78843 -208.07685 
L 216.78843 -208.07685 
L 219.86281 -208.07685 
L 219.86281 -208.07685 
L 222.93719 -208.07685 
L 222.93719 -208.07685 
L 226.01157 -208.07685 
L 226.01157 -208.07685 
L 229.08595 -208.07685 
L 229.08595 -208.07685 
L 232.160331 -208.07685 
L 232.160331 -208.07685 
L 235.234711 -208.07685 
L 235.234711 -208.07685 
L 238.309091 -208.07685 
L 238.309091 -208.07685 
L 241.383471 -208.07685 
L 241.383471 -208.07685 
L 244.457851 -208.07685 
L 244.457851 -208.07685 
L 247.532231 -208.07685 
L 247.532231 -208.07685 
L 250.606612 -208.07685 
L 250.606612 -208.07685 
L 253.680992 -208.07685 
L 253.680992 -208.07685 
L 256.755372 -208.07685 
L 256.755372 -208.07685 
L 259.829752 -208.07685 
L 259.829752 -208.07685 
L 262.904132 -208.07685 
L 262.904132 -208.07685 
L 265.978512 -208.07685 
L 265.978512 -208.07685 
L 269.052893 -208.07685 
L 269.052893 -208.07685 
L 272.127273 -208.07685 
L 272.127273 -208.07685 
L 275.201653 -208.07685 
L 275.201653 -208.07685 
L 278.276033 -208.07685 
L 278.276033 -208.07685 
L 281.350413 -208.07685 
L 281.350413 -208.07685 
L 284.424793 -208.07685 
L 284.424793 -208.07685 
L 287.499174 -208.07685 
L 287.499174 -208.07685 
L 290.573554 -208.07685 
L 290.573554 -208.07685 
L 293.647934 -208.07685 
L 293.647934 -208.07685 
L 296.722314 -208.07685 
L 296.722314 -208.07685 
L 299.796694 -208.07685 
L 299.796694 -208.07685 
L 302.871074 -208.07685 
L 302.871074 -208.07685 
L 305.945455 -208.07685 
L 305.945455 -208.07685 
L 309.019835 -208.07685 
L 309.019835 -208.07685 
L 312.094215 -208.07685 
L 312.094215 -208.07685 
L 315.168595 -208.07685 
L 315.168595 -208.07685 
L 318.242975 -208.07685 
L 318.242975 -208.07685 
L 321.317355 -208.07685 
L 321.317355 -208.07685 
L 324.391736 -208.07685 
L 324.391736 -208.07685 
L 327.466116 -208.07685 
L 327.466116 -208.07685 
L 330.540496 -208.07685 
L 330.540496 -208.07685 
L 333.614876 -208.07685 
L 333.614876 -208.07685 
L 336.689256 -208.07685 
L 336.689256 -208.07685 
L 339.763636 -208.07685 
L 339.763636 -208.07685 
L 342.838017 -208.07685 
L 342.838017 -208.07685 
L 345.912397 -208.07685 
L 345.912397 -208.07685 
L 348.986777 -208.07685 
L 348.986777 -208.07685 
L 352.061157 -208.07685 
L 352.061157 -208.07685 
L 355.135537 -208.07685 
L 355.135537 -208.07685 
L 358.209917 -208.07685 
L 358.209917 -208.07685 
L 361.284298 -208.07685 
L 361.284298 -208.07685 
L 364.358678 -208.07685 
L 364.358678 -208.07685 
L 367.433058 -208.07685 
L 367.433058 -208.07685 
L 370.507438 -208.07685 
L 370.507438 -208.07685 
L 373.581818 -208.07685 
L 373.581818 -208.07685 
L 373.581818 -208.07685 
L 373.581818 -208.07685 
L 373.581818 -208.07685 
L 370.507438 -208.07685 
L 370.507438 -208.07685 
L 367.433058 -208.07685 
L 367.433058 -208.07685 
L 364.358678 -208.07685 
L 364.358678 -208.07685 
L 361.284298 -208.07685 
L 361.284298 -208.07685 
L 358.209917 -208.07685 
L 358.209917 -208.07685 
L 355.135537 -208.07685 
L 355.135537 -208.07685 
L 352.061157 -208.07685 
L 352.061157 -208.07685 
L 348.986777 -208.07685 
L 348.986777 -208.07685 
L 345.912397 -208.07685 
L 345.912397 -208.07685 
L 342.838017 -208.07685 
L 342.838017 -208.07685 
L 339.763636 -208.07685 
L 339.763636 -208.07685 
L 336.689256 -208.07685 
L 336.689256 -208.07685 
L 333.614876 -208.07685 
L 333.614876 -208.07685 
L 330.540496 -208.07685 
L 330.540496 -208.07685 
L 327.466116 -208.07685 
L 327.466116 -208.07685 
L 324.391736 -208.07685 
L 324.391736 -208.07685 
L 321.317355 -208.07685 
L 321.317355 -208.07685 
L 318.242975 -208.07685 
L 318.242975 -208.07685 
L 315.168595 -208.07685 
L 315.168595 -208.07685 
L 312.094215 -208.07685 
L 312.094215 -208.07685 
L 309.019835 -208.07685 
L 309.019835 -208.07685 
L 305.945455 -208.07685 
L 305.945455 -208.07685 
L 302.871074 -208.07685 
L 302.871074 -208.07685 
L 299.796694 -208.07685 
L 299.796694 -208.07685 
L 296.722314 -208.07685 
L 296.722314 -208.07685 
L 293.647934 -208.07685 
L 293.647934 -208.07685 
L 290.573554 -208.07685 
L 290.573554 -208.07685 
L 287.499174 -208.07685 
L 287.499174 -208.07685 
L 284.424793 -208.07685 
L 284.424793 -208.07685 
L 281.350413 -208.07685 
L 281.350413 -208.07685 
L 278.276033 -208.07685 
L 278.276033 -208.07685 
L 275.201653 -208.07685 
L 275.201653 -208.07685 
L 272.127273 -208.07685 
L 272.127273 -208.07685 
L 269.052893 -208.07685 
L 269.052893 -208.07685 
L 265.978512 -208.07685 
L 265.978512 -208.07685 
L 262.904132 -208.07685 
L 262.904132 -208.07685 
L 259.829752 -208.07685 
L 259.829752 -208.07685 
L 256.755372 -208.07685 
L 256.755372 -208.07685 
L 253.680992 -208.07685 
L 253.680992 -208.07685 
L 250.606612 -208.07685 
L 250.606612 -208.07685 
L 247.532231 -208.07685 
L 247.532231 -208.07685 
L 244.457851 -208.07685 
L 244.457851 -208.07685 
L 241.383471 -208.07685 
L 241.383471 -208.07685 
L 238.309091 -208.07685 
L 238.309091 -208.07685 
L 235.234711 -208.07685 
L 235.234711 -208.07685 
L 232.160331 -208.07685 
L 232.160331 -208.07685 
L 229.08595 -208.07685 
L 229.08595 -208.07685 
L 226.01157 -208.07685 
L 226.01157 -208.07685 
L 222.93719 -208.07685 
L 222.93719 -208.07685 
L 219.86281 -208.07685 
L 219.86281 -208.07685 
L 216.78843 -208.07685 
L 216.78843 -208.07685 
L 213.71405 -208.07685 
L 213.71405 -208.07685 
L 210.639669 -208.07685 
L 210.639669 -208.07685 
L 207.565289 -208.07685 
L 207.565289 -208.07685 
L 204.490909 -208.07685 
L 204.490909 -218.449661 
L 201.416529 -218.449661 
L 201.416529 -218.449661 
L 198.342149 -218.449661 
L 198.342149 -218.449661 
L 195.267769 -218.449661 
L 195.267769 -218.449661 
L 192.193388 -218.449661 
L 192.193388 -218.449661 
L 189.119008 -218.449661 
L 189.119008 -218.449661 
L 186.044628 -218.449661 
L 186.044628 -222.880217 
L 182.970248 -222.880217 
L 182.970248 -222.880217 
L 179.895868 -222.880217 
L 179.895868 -222.880217 
L 176.821488 -222.880217 
L 176.821488 -224.519163 
L 173.747107 -224.519163 
L 173.747107 -224.519163 
L 170.672727 -224.519163 
L 170.672727 -224.519163 
L 167.598347 -224.519163 
L 167.598347 -224.519163 
L 164.523967 -224.519163 
L 164.523967 -224.519163 
L 161.449587 -224.519163 
L 161.449587 -224.519163 
L 158.375207 -224.519163 
L 158.375207 -230.784522 
L 155.300826 -230.784522 
L 155.300826 -230.784522 
L 152.226446 -230.784522 
L 152.226446 -230.784522 
L 149.152066 -230.784522 
L 149.152066 -230.784522 
L 146.077686 -230.784522 
L 146.077686 -230.784522 
L 143.003306 -230.784522 
L 143.003306 -230.784522 
L 139.928926 -230.784522 
L 139.928926 -230.784522 
L 136.854545 -230.784522 
L 136.854545 -230.784522 
L 133.780165 -230.784522 
L 133.780165 -230.784522 
L 130.705785 -230.784522 
L 130.705785 -243.556364 
L 127.631405 -243.556364 
L 127.631405 -243.556364 
L 124.557025 -243.556364 
L 124.557025 -243.556364 
L 121.482645 -243.556364 
L 121.482645 -243.556364 
L 118.408264 -243.556364 
L 118.408264 -243.556364 
L 115.333884 -243.556364 
L 115.333884 -243.556364 
L 112.259504 -243.556364 
L 112.259504 -243.556364 
L 109.185124 -243.556364 
L 109.185124 -243.556364 
L 106.110744 -243.556364 
L 106.110744 -243.556364 
L 103.036364 -243.556364 
L 103.036364 -243.556364 
L 99.961983 -243.556364 
L 99.961983 -243.556364 
L 96.887603 -243.556364 
L 96.887603 -243.556364 
L 93.813223 -243.556364 
L 93.813223 -243.556364 
L 90.738843 -243.556364 
L 90.738843 -243.556364 
L 87.664463 -243.556364 
L 87.664463 -243.556364 
L 84.590083 -243.556364 
L 84.590083 -243.556364 
L 81.515702 -243.556364 
L 81.515702 -243.556364 
L 78.441322 -243.556364 
L 78.441322 -243.556364 
L 75.366942 -243.556364 
L 75.366942 -243.556364 
L 72.292562 -243.556364 
L 72.292562 -243.556364 
L 69.218182 -243.556364 
z
" id="mcdc079e7d4" style="stroke:#9400d3;stroke-opacity:0.5;"/>
    </defs>
    <g clip-path="url(#p921e64bba9)">
     <use style="fill:#9400d3;fill-opacity:0.5;stroke:#9400d3;stroke-opacity:0.5;" x="0" xlink:href="#mcdc079e7d4" y="288"/>
    </g>
   </g>
   <g id="PolyCollection_4">
    <defs>
     <path d="M 69.218182 -243.556364 
L 69.218182 -243.556364 
L 72.292562 -243.556364 
L 72.292562 -243.556364 
L 75.366942 -243.556364 
L 75.366942 -243.556364 
L 78.441322 -243.556364 
L 78.441322 -240.730594 
L 81.515702 -240.730594 
L 81.515702 -240.730594 
L 84.590083 -240.730594 
L 84.590083 -240.730594 
L 87.664463 -240.730594 
L 87.664463 -163.785911 
L 90.738843 -163.785911 
L 90.738843 -163.785911 
L 93.813223 -163.785911 
L 93.813223 -163.785911 
L 96.887603 -163.785911 
L 96.887603 -163.785911 
L 99.961983 -163.785911 
L 99.961983 -163.785911 
L 103.036364 -163.785911 
L 103.036364 -163.785911 
L 106.110744 -163.785911 
L 106.110744 -111.167148 
L 109.185124 -111.167148 
L 109.185124 -84.913804 
L 112.259504 -84.913804 
L 112.259504 -62.567974 
L 115.333884 -62.567974 
L 115.333884 -62.567974 
L 118.408264 -62.567974 
L 118.408264 -62.567974 
L 121.482645 -62.567974 
L 121.482645 -62.567974 
L 124.557025 -62.567974 
L 124.557025 -62.567974 
L 127.631405 -62.567974 
L 127.631405 -62.567974 
L 130.705785 -62.567974 
L 130.705785 -62.567974 
L 133.780165 -62.567974 
L 133.780165 -62.567974 
L 136.854545 -62.567974 
L 136.854545 -62.567974 
L 139.928926 -62.567974 
L 139.928926 -62.567974 
L 143.003306 -62.567974 
L 143.003306 -62.567974 
L 146.077686 -62.567974 
L 146.077686 -62.567974 
L 149.152066 -62.567974 
L 149.152066 -62.567974 
L 152.226446 -62.567974 
L 152.226446 -62.567974 
L 155.300826 -62.567974 
L 155.300826 -62.567974 
L 158.375207 -62.567974 
L 158.375207 -62.567974 
L 161.449587 -62.567974 
L 161.449587 -62.567974 
L 164.523967 -62.567974 
L 164.523967 -62.567974 
L 167.598347 -62.567974 
L 167.598347 -62.567974 
L 170.672727 -62.567974 
L 170.672727 -62.567974 
L 173.747107 -62.567974 
L 173.747107 -62.567974 
L 176.821488 -62.567974 
L 176.821488 -62.567974 
L 179.895868 -62.567974 
L 179.895868 -62.567974 
L 182.970248 -62.567974 
L 182.970248 -62.567974 
L 186.044628 -62.567974 
L 186.044628 -62.567974 
L 189.119008 -62.567974 
L 189.119008 -62.567974 
L 192.193388 -62.567974 
L 192.193388 -62.567974 
L 195.267769 -62.567974 
L 195.267769 -62.567974 
L 198.342149 -62.567974 
L 198.342149 -62.567974 
L 201.416529 -62.567974 
L 201.416529 -62.567974 
L 204.490909 -62.567974 
L 204.490909 -62.567974 
L 207.565289 -62.567974 
L 207.565289 -62.567974 
L 210.639669 -62.567974 
L 210.639669 -62.567974 
L 213.71405 -62.567974 
L 213.71405 -62.567974 
L 216.78843 -62.567974 
L 216.78843 -62.567974 
L 219.86281 -62.567974 
L 219.86281 -62.567974 
L 222.93719 -62.567974 
L 222.93719 -62.567974 
L 226.01157 -62.567974 
L 226.01157 -62.567974 
L 229.08595 -62.567974 
L 229.08595 -62.567974 
L 232.160331 -62.567974 
L 232.160331 -62.567974 
L 235.234711 -62.567974 
L 235.234711 -62.567974 
L 238.309091 -62.567974 
L 238.309091 -62.567974 
L 241.383471 -62.567974 
L 241.383471 -62.567974 
L 244.457851 -62.567974 
L 244.457851 -62.567974 
L 247.532231 -62.567974 
L 247.532231 -62.567974 
L 250.606612 -62.567974 
L 250.606612 -62.567974 
L 253.680992 -62.567974 
L 253.680992 -62.567974 
L 256.755372 -62.567974 
L 256.755372 -62.567974 
L 259.829752 -62.567974 
L 259.829752 -62.567974 
L 262.904132 -62.567974 
L 262.904132 -62.567974 
L 265.978512 -62.567974 
L 265.978512 -62.567974 
L 269.052893 -62.567974 
L 269.052893 -62.567974 
L 272.127273 -62.567974 
L 272.127273 -62.567974 
L 275.201653 -62.567974 
L 275.201653 -62.567974 
L 278.276033 -62.567974 
L 278.276033 -62.567974 
L 281.350413 -62.567974 
L 281.350413 -62.567974 
L 284.424793 -62.567974 
L 284.424793 -62.567974 
L 287.499174 -62.567974 
L 287.499174 -62.567974 
L 290.573554 -62.567974 
L 290.573554 -62.567974 
L 293.647934 -62.567974 
L 293.647934 -62.567974 
L 296.722314 -62.567974 
L 296.722314 -62.567974 
L 299.796694 -62.567974 
L 299.796694 -62.567974 
L 302.871074 -62.567974 
L 302.871074 -62.567974 
L 305.945455 -62.567974 
L 305.945455 -62.567974 
L 309.019835 -62.567974 
L 309.019835 -62.567974 
L 312.094215 -62.567974 
L 312.094215 -62.567974 
L 315.168595 -62.567974 
L 315.168595 -62.567974 
L 318.242975 -62.567974 
L 318.242975 -62.567974 
L 321.317355 -62.567974 
L 321.317355 -62.567974 
L 324.391736 -62.567974 
L 324.391736 -62.567974 
L 327.466116 -62.567974 
L 327.466116 -62.567974 
L 330.540496 -62.567974 
L 330.540496 -62.567974 
L 333.614876 -62.567974 
L 333.614876 -62.567974 
L 336.689256 -62.567974 
L 336.689256 -62.567974 
L 339.763636 -62.567974 
L 339.763636 -62.567974 
L 342.838017 -62.567974 
L 342.838017 -62.567974 
L 345.912397 -62.567974 
L 345.912397 -62.567974 
L 348.986777 -62.567974 
L 348.986777 -62.567974 
L 352.061157 -62.567974 
L 352.061157 -62.567974 
L 355.135537 -62.567974 
L 355.135537 -62.567974 
L 358.209917 -62.567974 
L 358.209917 -62.567974 
L 361.284298 -62.567974 
L 361.284298 -62.567974 
L 364.358678 -62.567974 
L 364.358678 -62.567974 
L 367.433058 -62.567974 
L 367.433058 -62.567974 
L 370.507438 -62.567974 
L 370.507438 -62.567974 
L 373.581818 -62.567974 
L 373.581818 -62.567974 
L 373.581818 -111.167148 
L 373.581818 -111.167148 
L 373.581818 -111.167148 
L 370.507438 -111.167148 
L 370.507438 -111.167148 
L 367.433058 -111.167148 
L 367.433058 -111.167148 
L 364.358678 -111.167148 
L 364.358678 -111.167148 
L 361.284298 -111.167148 
L 361.284298 -111.167148 
L 358.209917 -111.167148 
L 358.209917 -111.167148 
L 355.135537 -111.167148 
L 355.135537 -111.167148 
L 352.061157 -111.167148 
L 352.061157 -111.167148 
L 348.986777 -111.167148 
L 348.986777 -111.167148 
L 345.912397 -111.167148 
L 345.912397 -111.167148 
L 342.838017 -111.167148 
L 342.838017 -111.167148 
L 339.763636 -111.167148 
L 339.763636 -111.167148 
L 336.689256 -111.167148 
L 336.689256 -111.167148 
L 333.614876 -111.167148 
L 333.614876 -111.167148 
L 330.540496 -111.167148 
L 330.540496 -111.167148 
L 327.466116 -111.167148 
L 327.466116 -111.167148 
L 324.391736 -111.167148 
L 324.391736 -111.167148 
L 321.317355 -111.167148 
L 321.317355 -111.167148 
L 318.242975 -111.167148 
L 318.242975 -111.167148 
L 315.168595 -111.167148 
L 315.168595 -111.167148 
L 312.094215 -111.167148 
L 312.094215 -111.167148 
L 309.019835 -111.167148 
L 309.019835 -111.167148 
L 305.945455 -111.167148 
L 305.945455 -111.167148 
L 302.871074 -111.167148 
L 302.871074 -111.167148 
L 299.796694 -111.167148 
L 299.796694 -111.167148 
L 296.722314 -111.167148 
L 296.722314 -111.167148 
L 293.647934 -111.167148 
L 293.647934 -111.167148 
L 290.573554 -111.167148 
L 290.573554 -111.167148 
L 287.499174 -111.167148 
L 287.499174 -111.167148 
L 284.424793 -111.167148 
L 284.424793 -111.167148 
L 281.350413 -111.167148 
L 281.350413 -111.167148 
L 278.276033 -111.167148 
L 278.276033 -111.167148 
L 275.201653 -111.167148 
L 275.201653 -111.167148 
L 272.127273 -111.167148 
L 272.127273 -111.167148 
L 269.052893 -111.167148 
L 269.052893 -111.167148 
L 265.978512 -111.167148 
L 265.978512 -111.167148 
L 262.904132 -111.167148 
L 262.904132 -111.167148 
L 259.829752 -111.167148 
L 259.829752 -111.167148 
L 256.755372 -111.167148 
L 256.755372 -111.167148 
L 253.680992 -111.167148 
L 253.680992 -111.167148 
L 250.606612 -111.167148 
L 250.606612 -111.167148 
L 247.532231 -111.167148 
L 247.532231 -111.167148 
L 244.457851 -111.167148 
L 244.457851 -111.167148 
L 241.383471 -111.167148 
L 241.383471 -111.167148 
L 238.309091 -111.167148 
L 238.309091 -111.167148 
L 235.234711 -111.167148 
L 235.234711 -111.167148 
L 232.160331 -111.167148 
L 232.160331 -111.167148 
L 229.08595 -111.167148 
L 229.08595 -111.167148 
L 226.01157 -111.167148 
L 226.01157 -111.167148 
L 222.93719 -111.167148 
L 222.93719 -111.167148 
L 219.86281 -111.167148 
L 219.86281 -111.167148 
L 216.78843 -111.167148 
L 216.78843 -111.167148 
L 213.71405 -111.167148 
L 213.71405 -111.167148 
L 210.639669 -111.167148 
L 210.639669 -111.167148 
L 207.565289 -111.167148 
L 207.565289 -111.167148 
L 204.490909 -111.167148 
L 204.490909 -111.167148 
L 201.416529 -111.167148 
L 201.416529 -111.167148 
L 198.342149 -111.167148 
L 198.342149 -111.167148 
L 195.267769 -111.167148 
L 195.267769 -111.167148 
L 192.193388 -111.167148 
L 192.193388 -111.167148 
L 189.119008 -111.167148 
L 189.119008 -111.167148 
L 186.044628 -111.167148 
L 186.044628 -111.167148 
L 182.970248 -111.167148 
L 182.970248 -111.167148 
L 179.895868 -111.167148 
L 179.895868 -111.167148 
L 176.821488 -111.167148 
L 176.821488 -111.167148 
L 173.747107 -111.167148 
L 173.747107 -111.167148 
L 170.672727 -111.167148 
L 170.672727 -111.167148 
L 167.598347 -111.167148 
L 167.598347 -111.167148 
L 164.523967 -111.167148 
L 164.523967 -111.167148 
L 161.449587 -111.167148 
L 161.449587 -111.167148 
L 158.375207 -111.167148 
L 158.375207 -111.167148 
L 155.300826 -111.167148 
L 155.300826 -111.167148 
L 152.226446 -111.167148 
L 152.226446 -125.646947 
L 149.152066 -125.646947 
L 149.152066 -133.880351 
L 146.077686 -133.880351 
L 146.077686 -133.880351 
L 143.003306 -133.880351 
L 143.003306 -133.880351 
L 139.928926 -133.880351 
L 139.928926 -133.880351 
L 136.854545 -133.880351 
L 136.854545 -133.880351 
L 133.780165 -133.880351 
L 133.780165 -133.880351 
L 130.705785 -133.880351 
L 130.705785 -133.880351 
L 127.631405 -133.880351 
L 127.631405 -163.785911 
L 124.557025 -163.785911 
L 124.557025 -163.785911 
L 121.482645 -163.785911 
L 121.482645 -163.785911 
L 118.408264 -163.785911 
L 118.408264 -163.785911 
L 115.333884 -163.785911 
L 115.333884 -243.556364 
L 112.259504 -243.556364 
L 112.259504 -243.556364 
L 109.185124 -243.556364 
L 109.185124 -243.556364 
L 106.110744 -243.556364 
L 106.110744 -243.556364 
L 103.036364 -243.556364 
L 103.036364 -243.556364 
L 99.961983 -243.556364 
L 99.961983 -243.556364 
L 96.887603 -243.556364 
L 96.887603 -243.556364 
L 93.813223 -243.556364 
L 93.813223 -243.556364 
L 90.738843 -243.556364 
L 90.738843 -243.556364 
L 87.664463 -243.556364 
L 87.664463 -243.556364 
L 84.590083 -243.556364 
L 84.590083 -243.556364 
L 81.515702 -243.556364 
L 81.515702 -243.556364 
L 78.441322 -243.556364 
L 78.441322 -243.556364 
L 75.366942 -243.556364 
L 75.366942 -243.556364 
L 72.292562 -243.556364 
L 72.292562 -243.556364 
L 69.218182 -243.556364 
z
" id="m3fdb4dd709" style="stroke:#8b4513;stroke-opacity:0.5;"/>
    </defs>
    <g clip-path="url(#p921e64bba9)">
     <use style="fill:#8b4513;fill-opacity:0.5;stroke:#8b4513;stroke-opacity:0.5;" x="0" xlink:href="#m3fdb4dd709" y="288"/>
    </g>
   </g>
   <g id="matplotlib.axis_1">
    <g id="xtick_1">
     <g id="line2d_1">
      <defs>
       <path d="M 0 0 
L 0 3.5 
" id="me6400a3bbc" style="stroke:#000000;stroke-width:0.8;"/>
      </defs>
      <g>
       <use style="stroke:#000000;stroke-width:0.8;" x="66.143802" xlink:href="#me6400a3bbc" y="252"/>
      </g>
     </g>
     <g id="text_1">
      <!-- 0 -->
      <g transform="translate(62.962552 266.598437)scale(0.1 -0.1)">
       <defs>
        <path d="M 31.78125 66.40625 
Q 24.171875 66.40625 20.328125 58.90625 
Q 16.5 51.421875 16.5 36.375 
Q 16.5 21.390625 20.328125 13.890625 
Q 24.171875 6.390625 31.78125 6.390625 
Q 39.453125 6.390625 43.28125 13.890625 
Q 47.125 21.390625 47.125 36.375 
Q 47.125 51.421875 43.28125 58.90625 
Q 39.453125 66.40625 31.78125 66.40625 
z
M 31.78125 74.21875 
Q 44.046875 74.21875 50.515625 64.515625 
Q 56.984375 54.828125 56.984375 36.375 
Q 56.984375 17.96875 50.515625 8.265625 
Q 44.046875 -1.421875 31.78125 -1.421875 
Q 19.53125 -1.421875 13.0625 8.265625 
Q 6.59375 17.96875 6.59375 36.375 
Q 6.59375 54.828125 13.0625 64.515625 
Q 19.53125 74.21875 31.78125 74.21875 
z
" id="DejaVuSans-48"/>
       </defs>
       <use xlink:href="#DejaVuSans-48"/>
      </g>
     </g>
    </g>
    <g id="xtick_2">
     <g id="line2d_2">
      <g>
       <use style="stroke:#000000;stroke-width:0.8;" x="127.631405" xlink:href="#me6400a3bbc" y="252"/>
      </g>
     </g>
     <g id="text_2">
      <!-- 20 -->
      <g transform="translate(121.268905 266.598437)scale(0.1 -0.1)">
       <defs>
        <path d="M 19.1875 8.296875 
L 53.609375 8.296875 
L 53.609375 0 
L 7.328125 0 
L 7.328125 8.296875 
Q 12.9375 14.109375 22.625 23.890625 
Q 32.328125 33.6875 34.8125 36.53125 
Q 39.546875 41.84375 41.421875 45.53125 
Q 43.3125 49.21875 43.3125 52.78125 
Q 43.3125 58.59375 39.234375 62.25 
Q 35.15625 65.921875 28.609375 65.921875 
Q 23.96875 65.921875 18.8125 64.3125 
Q 13.671875 62.703125 7.8125 59.421875 
L 7.8125 69.390625 
Q 13.765625 71.78125 18.9375 73 
Q 24.125 74.21875 28.421875 74.21875 
Q 39.75 74.21875 46.484375 68.546875 
Q 53.21875 62.890625 53.21875 53.421875 
Q 53.21875 48.921875 51.53125 44.890625 
Q 49.859375 40.875 45.40625 35.40625 
Q 44.1875 33.984375 37.640625 27.21875 
Q 31.109375 20.453125 19.1875 8.296875 
z
" id="DejaVuSans-50"/>
       </defs>
       <use xlink:href="#DejaVuSans-50"/>
       <use x="63.623047" xlink:href="#DejaVuSans-48"/>
      </g>
     </g>
    </g>
    <g id="xtick_3">
     <g id="line2d_3">
      <g>
       <use style="stroke:#000000;stroke-width:0.8;" x="189.119008" xlink:href="#me6400a3bbc" y="252"/>
      </g>
     </g>
     <g id="text_3">
      <!-- 40 -->
      <g transform="translate(182.756508 266.598437)scale(0.1 -0.1)">
       <defs>
        <path d="M 37.796875 64.3125 
L 12.890625 25.390625 
L 37.796875 25.390625 
z
M 35.203125 72.90625 
L 47.609375 72.90625 
L 47.609375 25.390625 
L 58.015625 25.390625 
L 58.015625 17.1875 
L 47.609375 17.1875 
L 47.609375 0 
L 37.796875 0 
L 37.796875 17.1875 
L 4.890625 17.1875 
L 4.890625 26.703125 
z
" id="DejaVuSans-52"/>
       </defs>
       <use xlink:href="#DejaVuSans-52"/>
       <use x="63.623047" xlink:href="#DejaVuSans-48"/>
      </g>
     </g>
    </g>
    <g id="xtick_4">
     <g id="line2d_4">
      <g>
       <use style="stroke:#000000;stroke-width:0.8;" x="250.606612" xlink:href="#me6400a3bbc" y="252"/>
      </g>
     </g>
     <g id="text_4">
      <!-- 60 -->
      <g transform="translate(244.244112 266.598437)scale(0.1 -0.1)">
       <defs>
        <path d="M 33.015625 40.375 
Q 26.375 40.375 22.484375 35.828125 
Q 18.609375 31.296875 18.609375 23.390625 
Q 18.609375 15.53125 22.484375 10.953125 
Q 26.375 6.390625 33.015625 6.390625 
Q 39.65625 6.390625 43.53125 10.953125 
Q 47.40625 15.53125 47.40625 23.390625 
Q 47.40625 31.296875 43.53125 35.828125 
Q 39.65625 40.375 33.015625 40.375 
z
M 52.59375 71.296875 
L 52.59375 62.3125 
Q 48.875 64.0625 45.09375 64.984375 
Q 41.3125 65.921875 37.59375 65.921875 
Q 27.828125 65.921875 22.671875 59.328125 
Q 17.53125 52.734375 16.796875 39.40625 
Q 19.671875 43.65625 24.015625 45.921875 
Q 28.375 48.1875 33.59375 48.1875 
Q 44.578125 48.1875 50.953125 41.515625 
Q 57.328125 34.859375 57.328125 23.390625 
Q 57.328125 12.15625 50.6875 5.359375 
Q 44.046875 -1.421875 33.015625 -1.421875 
Q 20.359375 -1.421875 13.671875 8.265625 
Q 6.984375 17.96875 6.984375 36.375 
Q 6.984375 53.65625 15.1875 63.9375 
Q 23.390625 74.21875 37.203125 74.21875 
Q 40.921875 74.21875 44.703125 73.484375 
Q 48.484375 72.75 52.59375 71.296875 
z
" id="DejaVuSans-54"/>
       </defs>
       <use xlink:href="#DejaVuSans-54"/>
       <use x="63.623047" xlink:href="#DejaVuSans-48"/>
      </g>
     </g>
    </g>
    <g id="xtick_5">
     <g id="line2d_5">
      <g>
       <use style="stroke:#000000;stroke-width:0.8;" x="312.094215" xlink:href="#me6400a3bbc" y="252"/>
      </g>
     </g>
     <g id="text_5">
      <!-- 80 -->
      <g transform="translate(305.731715 266.598437)scale(0.1 -0.1)">
       <defs>
        <path d="M 31.78125 34.625 
Q 24.75 34.625 20.71875 30.859375 
Q 16.703125 27.09375 16.703125 20.515625 
Q 16.703125 13.921875 20.71875 10.15625 
Q 24.75 6.390625 31.78125 6.390625 
Q 38.8125 6.390625 42.859375 10.171875 
Q 46.921875 13.96875 46.921875 20.515625 
Q 46.921875 27.09375 42.890625 30.859375 
Q 38.875 34.625 31.78125 34.625 
z
M 21.921875 38.8125 
Q 15.578125 40.375 12.03125 44.71875 
Q 8.5 49.078125 8.5 55.328125 
Q 8.5 64.0625 14.71875 69.140625 
Q 20.953125 74.21875 31.78125 74.21875 
Q 42.671875 74.21875 48.875 69.140625 
Q 55.078125 64.0625 55.078125 55.328125 
Q 55.078125 49.078125 51.53125 44.71875 
Q 48 40.375 41.703125 38.8125 
Q 48.828125 37.15625 52.796875 32.3125 
Q 56.78125 27.484375 56.78125 20.515625 
Q 56.78125 9.90625 50.3125 4.234375 
Q 43.84375 -1.421875 31.78125 -1.421875 
Q 19.734375 -1.421875 13.25 4.234375 
Q 6.78125 9.90625 6.78125 20.515625 
Q 6.78125 27.484375 10.78125 32.3125 
Q 14.796875 37.15625 21.921875 38.8125 
z
M 18.3125 54.390625 
Q 18.3125 48.734375 21.84375 45.5625 
Q 25.390625 42.390625 31.78125 42.390625 
Q 38.140625 42.390625 41.71875 45.5625 
Q 45.3125 48.734375 45.3125 54.390625 
Q 45.3125 60.0625 41.71875 63.234375 
Q 38.140625 66.40625 31.78125 66.40625 
Q 25.390625 66.40625 21.84375 63.234375 
Q 18.3125 60.0625 18.3125 54.390625 
z
" id="DejaVuSans-56"/>
       </defs>
       <use xlink:href="#DejaVuSans-56"/>
       <use x="63.623047" xlink:href="#DejaVuSans-48"/>
      </g>
     </g>
    </g>
    <g id="xtick_6">
     <g id="line2d_6">
      <g>
       <use style="stroke:#000000;stroke-width:0.8;" x="373.581818" xlink:href="#me6400a3bbc" y="252"/>
      </g>
     </g>
     <g id="text_6">
      <!-- 100 -->
      <g transform="translate(364.038068 266.598437)scale(0.1 -0.1)">
       <defs>
        <path d="M 12.40625 8.296875 
L 28.515625 8.296875 
L 28.515625 63.921875 
L 10.984375 60.40625 
L 10.984375 69.390625 
L 28.421875 72.90625 
L 38.28125 72.90625 
L 38.28125 8.296875 
L 54.390625 8.296875 
L 54.390625 0 
L 12.40625 0 
z
" id="DejaVuSans-49"/>
       </defs>
       <use xlink:href="#DejaVuSans-49"/>
       <use x="63.623047" xlink:href="#DejaVuSans-48"/>
       <use x="127.246094" xlink:href="#DejaVuSans-48"/>
      </g>
     </g>
    </g>
    <g id="text_7">
     <!-- Number of function evaluations -->
     <g transform="translate(142.399219 280.276563)scale(0.1 -0.1)">
      <defs>
       <path d="M 9.8125 72.90625 
L 23.09375 72.90625 
L 55.421875 11.921875 
L 55.421875 72.90625 
L 64.984375 72.90625 
L 64.984375 0 
L 51.703125 0 
L 19.390625 60.984375 
L 19.390625 0 
L 9.8125 0 
z
" id="DejaVuSans-78"/>
       <path d="M 8.5 21.578125 
L 8.5 54.6875 
L 17.484375 54.6875 
L 17.484375 21.921875 
Q 17.484375 14.15625 20.5 10.265625 
Q 23.53125 6.390625 29.59375 6.390625 
Q 36.859375 6.390625 41.078125 11.03125 
Q 45.3125 15.671875 45.3125 23.6875 
L 45.3125 54.6875 
L 54.296875 54.6875 
L 54.296875 0 
L 45.3125 0 
L 45.3125 8.40625 
Q 42.046875 3.421875 37.71875 1 
Q 33.40625 -1.421875 27.6875 -1.421875 
Q 18.265625 -1.421875 13.375 4.4375 
Q 8.5 10.296875 8.5 21.578125 
z
M 31.109375 56 
z
" id="DejaVuSans-117"/>
       <path d="M 52 44.1875 
Q 55.375 50.25 60.0625 53.125 
Q 64.75 56 71.09375 56 
Q 79.640625 56 84.28125 50.015625 
Q 88.921875 44.046875 88.921875 33.015625 
L 88.921875 0 
L 79.890625 0 
L 79.890625 32.71875 
Q 79.890625 40.578125 77.09375 44.375 
Q 74.3125 48.1875 68.609375 48.1875 
Q 61.625 48.1875 57.5625 43.546875 
Q 53.515625 38.921875 53.515625 30.90625 
L 53.515625 0 
L 44.484375 0 
L 44.484375 32.71875 
Q 44.484375 40.625 41.703125 44.40625 
Q 38.921875 48.1875 33.109375 48.1875 
Q 26.21875 48.1875 22.15625 43.53125 
Q 18.109375 38.875 18.109375 30.90625 
L 18.109375 0 
L 9.078125 0 
L 9.078125 54.6875 
L 18.109375 54.6875 
L 18.109375 46.1875 
Q 21.1875 51.21875 25.484375 53.609375 
Q 29.78125 56 35.6875 56 
Q 41.65625 56 45.828125 52.96875 
Q 50 49.953125 52 44.1875 
z
" id="DejaVuSans-109"/>
       <path d="M 48.6875 27.296875 
Q 48.6875 37.203125 44.609375 42.84375 
Q 40.53125 48.484375 33.40625 48.484375 
Q 26.265625 48.484375 22.1875 42.84375 
Q 18.109375 37.203125 18.109375 27.296875 
Q 18.109375 17.390625 22.1875 11.75 
Q 26.265625 6.109375 33.40625 6.109375 
Q 40.53125 6.109375 44.609375 11.75 
Q 48.6875 17.390625 48.6875 27.296875 
z
M 18.109375 46.390625 
Q 20.953125 51.265625 25.265625 53.625 
Q 29.59375 56 35.59375 56 
Q 45.5625 56 51.78125 48.09375 
Q 58.015625 40.1875 58.015625 27.296875 
Q 58.015625 14.40625 51.78125 6.484375 
Q 45.5625 -1.421875 35.59375 -1.421875 
Q 29.59375 -1.421875 25.265625 0.953125 
Q 20.953125 3.328125 18.109375 8.203125 
L 18.109375 0 
L 9.078125 0 
L 9.078125 75.984375 
L 18.109375 75.984375 
z
" id="DejaVuSans-98"/>
       <path d="M 56.203125 29.59375 
L 56.203125 25.203125 
L 14.890625 25.203125 
Q 15.484375 15.921875 20.484375 11.0625 
Q 25.484375 6.203125 34.421875 6.203125 
Q 39.59375 6.203125 44.453125 7.46875 
Q 49.3125 8.734375 54.109375 11.28125 
L 54.109375 2.78125 
Q 49.265625 0.734375 44.1875 -0.34375 
Q 39.109375 -1.421875 33.890625 -1.421875 
Q 20.796875 -1.421875 13.15625 6.1875 
Q 5.515625 13.8125 5.515625 26.8125 
Q 5.515625 40.234375 12.765625 48.109375 
Q 20.015625 56 32.328125 56 
Q 43.359375 56 49.78125 48.890625 
Q 56.203125 41.796875 56.203125 29.59375 
z
M 47.21875 32.234375 
Q 47.125 39.59375 43.09375 43.984375 
Q 39.0625 48.390625 32.421875 48.390625 
Q 24.90625 48.390625 20.390625 44.140625 
Q 15.875 39.890625 15.1875 32.171875 
z
" id="DejaVuSans-101"/>
       <path d="M 41.109375 46.296875 
Q 39.59375 47.171875 37.8125 47.578125 
Q 36.03125 48 33.890625 48 
Q 26.265625 48 22.1875 43.046875 
Q 18.109375 38.09375 18.109375 28.8125 
L 18.109375 0 
L 9.078125 0 
L 9.078125 54.6875 
L 18.109375 54.6875 
L 18.109375 46.1875 
Q 20.953125 51.171875 25.484375 53.578125 
Q 30.03125 56 36.53125 56 
Q 37.453125 56 38.578125 55.875 
Q 39.703125 55.765625 41.0625 55.515625 
z
" id="DejaVuSans-114"/>
       <path id="DejaVuSans-32"/>
       <path d="M 30.609375 48.390625 
Q 23.390625 48.390625 19.1875 42.75 
Q 14.984375 37.109375 14.984375 27.296875 
Q 14.984375 17.484375 19.15625 11.84375 
Q 23.34375 6.203125 30.609375 6.203125 
Q 37.796875 6.203125 41.984375 11.859375 
Q 46.1875 17.53125 46.1875 27.296875 
Q 46.1875 37.015625 41.984375 42.703125 
Q 37.796875 48.390625 30.609375 48.390625 
z
M 30.609375 56 
Q 42.328125 56 49.015625 48.375 
Q 55.71875 40.765625 55.71875 27.296875 
Q 55.71875 13.875 49.015625 6.21875 
Q 42.328125 -1.421875 30.609375 -1.421875 
Q 18.84375 -1.421875 12.171875 6.21875 
Q 5.515625 13.875 5.515625 27.296875 
Q 5.515625 40.765625 12.171875 48.375 
Q 18.84375 56 30.609375 56 
z
" id="DejaVuSans-111"/>
       <path d="M 37.109375 75.984375 
L 37.109375 68.5 
L 28.515625 68.5 
Q 23.6875 68.5 21.796875 66.546875 
Q 19.921875 64.59375 19.921875 59.515625 
L 19.921875 54.6875 
L 34.71875 54.6875 
L 34.71875 47.703125 
L 19.921875 47.703125 
L 19.921875 0 
L 10.890625 0 
L 10.890625 47.703125 
L 2.296875 47.703125 
L 2.296875 54.6875 
L 10.890625 54.6875 
L 10.890625 58.5 
Q 10.890625 67.625 15.140625 71.796875 
Q 19.390625 75.984375 28.609375 75.984375 
z
" id="DejaVuSans-102"/>
       <path d="M 54.890625 33.015625 
L 54.890625 0 
L 45.90625 0 
L 45.90625 32.71875 
Q 45.90625 40.484375 42.875 44.328125 
Q 39.84375 48.1875 33.796875 48.1875 
Q 26.515625 48.1875 22.3125 43.546875 
Q 18.109375 38.921875 18.109375 30.90625 
L 18.109375 0 
L 9.078125 0 
L 9.078125 54.6875 
L 18.109375 54.6875 
L 18.109375 46.1875 
Q 21.34375 51.125 25.703125 53.5625 
Q 30.078125 56 35.796875 56 
Q 45.21875 56 50.046875 50.171875 
Q 54.890625 44.34375 54.890625 33.015625 
z
" id="DejaVuSans-110"/>
       <path d="M 48.78125 52.59375 
L 48.78125 44.1875 
Q 44.96875 46.296875 41.140625 47.34375 
Q 37.3125 48.390625 33.40625 48.390625 
Q 24.65625 48.390625 19.8125 42.84375 
Q 14.984375 37.3125 14.984375 27.296875 
Q 14.984375 17.28125 19.8125 11.734375 
Q 24.65625 6.203125 33.40625 6.203125 
Q 37.3125 6.203125 41.140625 7.25 
Q 44.96875 8.296875 48.78125 10.40625 
L 48.78125 2.09375 
Q 45.015625 0.34375 40.984375 -0.53125 
Q 36.96875 -1.421875 32.421875 -1.421875 
Q 20.0625 -1.421875 12.78125 6.34375 
Q 5.515625 14.109375 5.515625 27.296875 
Q 5.515625 40.671875 12.859375 48.328125 
Q 20.21875 56 33.015625 56 
Q 37.15625 56 41.109375 55.140625 
Q 45.0625 54.296875 48.78125 52.59375 
z
" id="DejaVuSans-99"/>
       <path d="M 18.3125 70.21875 
L 18.3125 54.6875 
L 36.8125 54.6875 
L 36.8125 47.703125 
L 18.3125 47.703125 
L 18.3125 18.015625 
Q 18.3125 11.328125 20.140625 9.421875 
Q 21.96875 7.515625 27.59375 7.515625 
L 36.8125 7.515625 
L 36.8125 0 
L 27.59375 0 
Q 17.1875 0 13.234375 3.875 
Q 9.28125 7.765625 9.28125 18.015625 
L 9.28125 47.703125 
L 2.6875 47.703125 
L 2.6875 54.6875 
L 9.28125 54.6875 
L 9.28125 70.21875 
z
" id="DejaVuSans-116"/>
       <path d="M 9.421875 54.6875 
L 18.40625 54.6875 
L 18.40625 0 
L 9.421875 0 
z
M 9.421875 75.984375 
L 18.40625 75.984375 
L 18.40625 64.59375 
L 9.421875 64.59375 
z
" id="DejaVuSans-105"/>
       <path d="M 2.984375 54.6875 
L 12.5 54.6875 
L 29.59375 8.796875 
L 46.6875 54.6875 
L 56.203125 54.6875 
L 35.6875 0 
L 23.484375 0 
z
" id="DejaVuSans-118"/>
       <path d="M 34.28125 27.484375 
Q 23.390625 27.484375 19.1875 25 
Q 14.984375 22.515625 14.984375 16.5 
Q 14.984375 11.71875 18.140625 8.90625 
Q 21.296875 6.109375 26.703125 6.109375 
Q 34.1875 6.109375 38.703125 11.40625 
Q 43.21875 16.703125 43.21875 25.484375 
L 43.21875 27.484375 
z
M 52.203125 31.203125 
L 52.203125 0 
L 43.21875 0 
L 43.21875 8.296875 
Q 40.140625 3.328125 35.546875 0.953125 
Q 30.953125 -1.421875 24.3125 -1.421875 
Q 15.921875 -1.421875 10.953125 3.296875 
Q 6 8.015625 6 15.921875 
Q 6 25.140625 12.171875 29.828125 
Q 18.359375 34.515625 30.609375 34.515625 
L 43.21875 34.515625 
L 43.21875 35.40625 
Q 43.21875 41.609375 39.140625 45 
Q 35.0625 48.390625 27.6875 48.390625 
Q 23 48.390625 18.546875 47.265625 
Q 14.109375 46.140625 10.015625 43.890625 
L 10.015625 52.203125 
Q 14.9375 54.109375 19.578125 55.046875 
Q 24.21875 56 28.609375 56 
Q 40.484375 56 46.34375 49.84375 
Q 52.203125 43.703125 52.203125 31.203125 
z
" id="DejaVuSans-97"/>
       <path d="M 9.421875 75.984375 
L 18.40625 75.984375 
L 18.40625 0 
L 9.421875 0 
z
" id="DejaVuSans-108"/>
       <path d="M 44.28125 53.078125 
L 44.28125 44.578125 
Q 40.484375 46.53125 36.375 47.5 
Q 32.28125 48.484375 27.875 48.484375 
Q 21.1875 48.484375 17.84375 46.4375 
Q 14.5 44.390625 14.5 40.28125 
Q 14.5 37.15625 16.890625 35.375 
Q 19.28125 33.59375 26.515625 31.984375 
L 29.59375 31.296875 
Q 39.15625 29.25 43.1875 25.515625 
Q 47.21875 21.78125 47.21875 15.09375 
Q 47.21875 7.46875 41.1875 3.015625 
Q 35.15625 -1.421875 24.609375 -1.421875 
Q 20.21875 -1.421875 15.453125 -0.5625 
Q 10.6875 0.296875 5.421875 2 
L 5.421875 11.28125 
Q 10.40625 8.6875 15.234375 7.390625 
Q 20.0625 6.109375 24.8125 6.109375 
Q 31.15625 6.109375 34.5625 8.28125 
Q 37.984375 10.453125 37.984375 14.40625 
Q 37.984375 18.0625 35.515625 20.015625 
Q 33.0625 21.96875 24.703125 23.78125 
L 21.578125 24.515625 
Q 13.234375 26.265625 9.515625 29.90625 
Q 5.8125 33.546875 5.8125 39.890625 
Q 5.8125 47.609375 11.28125 51.796875 
Q 16.75 56 26.8125 56 
Q 31.78125 56 36.171875 55.265625 
Q 40.578125 54.546875 44.28125 53.078125 
z
" id="DejaVuSans-115"/>
      </defs>
      <use xlink:href="#DejaVuSans-78"/>
      <use x="74.804688" xlink:href="#DejaVuSans-117"/>
      <use x="138.183594" xlink:href="#DejaVuSans-109"/>
      <use x="235.595703" xlink:href="#DejaVuSans-98"/>
      <use x="299.072266" xlink:href="#DejaVuSans-101"/>
      <use x="360.595703" xlink:href="#DejaVuSans-114"/>
      <use x="401.708984" xlink:href="#DejaVuSans-32"/>
      <use x="433.496094" xlink:href="#DejaVuSans-111"/>
      <use x="494.677734" xlink:href="#DejaVuSans-102"/>
      <use x="529.882812" xlink:href="#DejaVuSans-32"/>
      <use x="561.669922" xlink:href="#DejaVuSans-102"/>
      <use x="596.875" xlink:href="#DejaVuSans-117"/>
      <use x="660.253906" xlink:href="#DejaVuSans-110"/>
      <use x="723.632812" xlink:href="#DejaVuSans-99"/>
      <use x="778.613281" xlink:href="#DejaVuSans-116"/>
      <use x="817.822266" xlink:href="#DejaVuSans-105"/>
      <use x="845.605469" xlink:href="#DejaVuSans-111"/>
      <use x="906.787109" xlink:href="#DejaVuSans-110"/>
      <use x="970.166016" xlink:href="#DejaVuSans-32"/>
      <use x="1001.953125" xlink:href="#DejaVuSans-101"/>
      <use x="1063.476562" xlink:href="#DejaVuSans-118"/>
      <use x="1122.65625" xlink:href="#DejaVuSans-97"/>
      <use x="1183.935547" xlink:href="#DejaVuSans-108"/>
      <use x="1211.71875" xlink:href="#DejaVuSans-117"/>
      <use x="1275.097656" xlink:href="#DejaVuSans-97"/>
      <use x="1336.376953" xlink:href="#DejaVuSans-116"/>
      <use x="1375.585938" xlink:href="#DejaVuSans-105"/>
      <use x="1403.369141" xlink:href="#DejaVuSans-111"/>
      <use x="1464.550781" xlink:href="#DejaVuSans-110"/>
      <use x="1527.929688" xlink:href="#DejaVuSans-115"/>
     </g>
    </g>
   </g>
   <g id="matplotlib.axis_2">
    <g id="ytick_1">
     <g id="line2d_7">
      <defs>
       <path d="M 0 0 
L -3.5 0 
" id="m8fadf89e30" style="stroke:#000000;stroke-width:0.8;"/>
      </defs>
      <g>
       <use style="stroke:#000000;stroke-width:0.8;" x="54" xlink:href="#m8fadf89e30" y="210.03736"/>
      </g>
     </g>
     <g id="text_8">
      <!-- $\mathdefault{10^{-4}}$ -->
      <g transform="translate(23.5 213.836579)scale(0.1 -0.1)">
       <defs>
        <path d="M 10.59375 35.5 
L 73.1875 35.5 
L 73.1875 27.203125 
L 10.59375 27.203125 
z
" id="DejaVuSans-8722"/>
       </defs>
       <use transform="translate(0 0.684375)" xlink:href="#DejaVuSans-49"/>
       <use transform="translate(63.623047 0.684375)" xlink:href="#DejaVuSans-48"/>
       <use transform="translate(128.203125 38.965625)scale(0.7)" xlink:href="#DejaVuSans-8722"/>
       <use transform="translate(186.855469 38.965625)scale(0.7)" xlink:href="#DejaVuSans-52"/>
      </g>
     </g>
    </g>
    <g id="ytick_2">
     <g id="line2d_8">
      <g>
       <use style="stroke:#000000;stroke-width:0.8;" x="54" xlink:href="#m8fadf89e30" y="127.418359"/>
      </g>
     </g>
     <g id="text_9">
      <!-- $\mathdefault{10^{-3}}$ -->
      <g transform="translate(23.5 131.217577)scale(0.1 -0.1)">
       <defs>
        <path d="M 40.578125 39.3125 
Q 47.65625 37.796875 51.625 33 
Q 55.609375 28.21875 55.609375 21.1875 
Q 55.609375 10.40625 48.1875 4.484375 
Q 40.765625 -1.421875 27.09375 -1.421875 
Q 22.515625 -1.421875 17.65625 -0.515625 
Q 12.796875 0.390625 7.625 2.203125 
L 7.625 11.71875 
Q 11.71875 9.328125 16.59375 8.109375 
Q 21.484375 6.890625 26.8125 6.890625 
Q 36.078125 6.890625 40.9375 10.546875 
Q 45.796875 14.203125 45.796875 21.1875 
Q 45.796875 27.640625 41.28125 31.265625 
Q 36.765625 34.90625 28.71875 34.90625 
L 20.21875 34.90625 
L 20.21875 43.015625 
L 29.109375 43.015625 
Q 36.375 43.015625 40.234375 45.921875 
Q 44.09375 48.828125 44.09375 54.296875 
Q 44.09375 59.90625 40.109375 62.90625 
Q 36.140625 65.921875 28.71875 65.921875 
Q 24.65625 65.921875 20.015625 65.03125 
Q 15.375 64.15625 9.8125 62.3125 
L 9.8125 71.09375 
Q 15.4375 72.65625 20.34375 73.4375 
Q 25.25 74.21875 29.59375 74.21875 
Q 40.828125 74.21875 47.359375 69.109375 
Q 53.90625 64.015625 53.90625 55.328125 
Q 53.90625 49.265625 50.4375 45.09375 
Q 46.96875 40.921875 40.578125 39.3125 
z
" id="DejaVuSans-51"/>
       </defs>
       <use transform="translate(0 0.765625)" xlink:href="#DejaVuSans-49"/>
       <use transform="translate(63.623047 0.765625)" xlink:href="#DejaVuSans-48"/>
       <use transform="translate(128.203125 39.046875)scale(0.7)" xlink:href="#DejaVuSans-8722"/>
       <use transform="translate(186.855469 39.046875)scale(0.7)" xlink:href="#DejaVuSans-51"/>
      </g>
     </g>
    </g>
    <g id="ytick_3">
     <g id="line2d_9">
      <g>
       <use style="stroke:#000000;stroke-width:0.8;" x="54" xlink:href="#m8fadf89e30" y="44.799357"/>
      </g>
     </g>
     <g id="text_10">
      <!-- $\mathdefault{10^{-2}}$ -->
      <g transform="translate(23.5 48.598576)scale(0.1 -0.1)">
       <use transform="translate(0 0.765625)" xlink:href="#DejaVuSans-49"/>
       <use transform="translate(63.623047 0.765625)" xlink:href="#DejaVuSans-48"/>
       <use transform="translate(128.203125 39.046875)scale(0.7)" xlink:href="#DejaVuSans-8722"/>
       <use transform="translate(186.855469 39.046875)scale(0.7)" xlink:href="#DejaVuSans-50"/>
      </g>
     </g>
    </g>
    <g id="ytick_4">
     <g id="line2d_10">
      <defs>
       <path d="M 0 0 
L -2 0 
" id="mf2e2db224c" style="stroke:#000000;stroke-width:0.6;"/>
      </defs>
      <g>
       <use style="stroke:#000000;stroke-width:0.6;" x="54" xlink:href="#mf2e2db224c" y="242.914766"/>
      </g>
     </g>
    </g>
    <g id="ytick_5">
     <g id="line2d_11">
      <g>
       <use style="stroke:#000000;stroke-width:0.6;" x="54" xlink:href="#mf2e2db224c" y="234.908158"/>
      </g>
     </g>
    </g>
    <g id="ytick_6">
     <g id="line2d_12">
      <g>
       <use style="stroke:#000000;stroke-width:0.6;" x="54" xlink:href="#mf2e2db224c" y="228.366282"/>
      </g>
     </g>
    </g>
    <g id="ytick_7">
     <g id="line2d_13">
      <g>
       <use style="stroke:#000000;stroke-width:0.6;" x="54" xlink:href="#mf2e2db224c" y="222.835206"/>
      </g>
     </g>
    </g>
    <g id="ytick_8">
     <g id="line2d_14">
      <g>
       <use style="stroke:#000000;stroke-width:0.6;" x="54" xlink:href="#mf2e2db224c" y="218.043969"/>
      </g>
     </g>
    </g>
    <g id="ytick_9">
     <g id="line2d_15">
      <g>
       <use style="stroke:#000000;stroke-width:0.6;" x="54" xlink:href="#mf2e2db224c" y="213.817798"/>
      </g>
     </g>
    </g>
    <g id="ytick_10">
     <g id="line2d_16">
      <g>
       <use style="stroke:#000000;stroke-width:0.6;" x="54" xlink:href="#mf2e2db224c" y="185.166563"/>
      </g>
     </g>
    </g>
    <g id="ytick_11">
     <g id="line2d_17">
      <g>
       <use style="stroke:#000000;stroke-width:0.6;" x="54" xlink:href="#mf2e2db224c" y="170.618079"/>
      </g>
     </g>
    </g>
    <g id="ytick_12">
     <g id="line2d_18">
      <g>
       <use style="stroke:#000000;stroke-width:0.6;" x="54" xlink:href="#mf2e2db224c" y="160.295765"/>
      </g>
     </g>
    </g>
    <g id="ytick_13">
     <g id="line2d_19">
      <g>
       <use style="stroke:#000000;stroke-width:0.6;" x="54" xlink:href="#mf2e2db224c" y="152.289156"/>
      </g>
     </g>
    </g>
    <g id="ytick_14">
     <g id="line2d_20">
      <g>
       <use style="stroke:#000000;stroke-width:0.6;" x="54" xlink:href="#mf2e2db224c" y="145.747281"/>
      </g>
     </g>
    </g>
    <g id="ytick_15">
     <g id="line2d_21">
      <g>
       <use style="stroke:#000000;stroke-width:0.6;" x="54" xlink:href="#mf2e2db224c" y="140.216204"/>
      </g>
     </g>
    </g>
    <g id="ytick_16">
     <g id="line2d_22">
      <g>
       <use style="stroke:#000000;stroke-width:0.6;" x="54" xlink:href="#mf2e2db224c" y="135.424967"/>
      </g>
     </g>
    </g>
    <g id="ytick_17">
     <g id="line2d_23">
      <g>
       <use style="stroke:#000000;stroke-width:0.6;" x="54" xlink:href="#mf2e2db224c" y="131.198797"/>
      </g>
     </g>
    </g>
    <g id="ytick_18">
     <g id="line2d_24">
      <g>
       <use style="stroke:#000000;stroke-width:0.6;" x="54" xlink:href="#mf2e2db224c" y="102.547561"/>
      </g>
     </g>
    </g>
    <g id="ytick_19">
     <g id="line2d_25">
      <g>
       <use style="stroke:#000000;stroke-width:0.6;" x="54" xlink:href="#mf2e2db224c" y="87.999077"/>
      </g>
     </g>
    </g>
    <g id="ytick_20">
     <g id="line2d_26">
      <g>
       <use style="stroke:#000000;stroke-width:0.6;" x="54" xlink:href="#mf2e2db224c" y="77.676763"/>
      </g>
     </g>
    </g>
    <g id="ytick_21">
     <g id="line2d_27">
      <g>
       <use style="stroke:#000000;stroke-width:0.6;" x="54" xlink:href="#mf2e2db224c" y="69.670155"/>
      </g>
     </g>
    </g>
    <g id="ytick_22">
     <g id="line2d_28">
      <g>
       <use style="stroke:#000000;stroke-width:0.6;" x="54" xlink:href="#mf2e2db224c" y="63.128279"/>
      </g>
     </g>
    </g>
    <g id="ytick_23">
     <g id="line2d_29">
      <g>
       <use style="stroke:#000000;stroke-width:0.6;" x="54" xlink:href="#mf2e2db224c" y="57.597202"/>
      </g>
     </g>
    </g>
    <g id="ytick_24">
     <g id="line2d_30">
      <g>
       <use style="stroke:#000000;stroke-width:0.6;" x="54" xlink:href="#mf2e2db224c" y="52.805965"/>
      </g>
     </g>
    </g>
    <g id="ytick_25">
     <g id="line2d_31">
      <g>
       <use style="stroke:#000000;stroke-width:0.6;" x="54" xlink:href="#mf2e2db224c" y="48.579795"/>
      </g>
     </g>
    </g>
    <g id="text_11">
     <!-- Convergence -->
     <g transform="translate(17.420312 176.24875)rotate(-90)scale(0.1 -0.1)">
      <defs>
       <path d="M 64.40625 67.28125 
L 64.40625 56.890625 
Q 59.421875 61.53125 53.78125 63.8125 
Q 48.140625 66.109375 41.796875 66.109375 
Q 29.296875 66.109375 22.65625 58.46875 
Q 16.015625 50.828125 16.015625 36.375 
Q 16.015625 21.96875 22.65625 14.328125 
Q 29.296875 6.6875 41.796875 6.6875 
Q 48.140625 6.6875 53.78125 8.984375 
Q 59.421875 11.28125 64.40625 15.921875 
L 64.40625 5.609375 
Q 59.234375 2.09375 53.4375 0.328125 
Q 47.65625 -1.421875 41.21875 -1.421875 
Q 24.65625 -1.421875 15.125 8.703125 
Q 5.609375 18.84375 5.609375 36.375 
Q 5.609375 53.953125 15.125 64.078125 
Q 24.65625 74.21875 41.21875 74.21875 
Q 47.75 74.21875 53.53125 72.484375 
Q 59.328125 70.75 64.40625 67.28125 
z
" id="DejaVuSans-67"/>
       <path d="M 45.40625 27.984375 
Q 45.40625 37.75 41.375 43.109375 
Q 37.359375 48.484375 30.078125 48.484375 
Q 22.859375 48.484375 18.828125 43.109375 
Q 14.796875 37.75 14.796875 27.984375 
Q 14.796875 18.265625 18.828125 12.890625 
Q 22.859375 7.515625 30.078125 7.515625 
Q 37.359375 7.515625 41.375 12.890625 
Q 45.40625 18.265625 45.40625 27.984375 
z
M 54.390625 6.78125 
Q 54.390625 -7.171875 48.1875 -13.984375 
Q 42 -20.796875 29.203125 -20.796875 
Q 24.46875 -20.796875 20.265625 -20.09375 
Q 16.0625 -19.390625 12.109375 -17.921875 
L 12.109375 -9.1875 
Q 16.0625 -11.328125 19.921875 -12.34375 
Q 23.78125 -13.375 27.78125 -13.375 
Q 36.625 -13.375 41.015625 -8.765625 
Q 45.40625 -4.15625 45.40625 5.171875 
L 45.40625 9.625 
Q 42.625 4.78125 38.28125 2.390625 
Q 33.9375 0 27.875 0 
Q 17.828125 0 11.671875 7.65625 
Q 5.515625 15.328125 5.515625 27.984375 
Q 5.515625 40.671875 11.671875 48.328125 
Q 17.828125 56 27.875 56 
Q 33.9375 56 38.28125 53.609375 
Q 42.625 51.21875 45.40625 46.390625 
L 45.40625 54.6875 
L 54.390625 54.6875 
z
" id="DejaVuSans-103"/>
      </defs>
      <use xlink:href="#DejaVuSans-67"/>
      <use x="69.824219" xlink:href="#DejaVuSans-111"/>
      <use x="131.005859" xlink:href="#DejaVuSans-110"/>
      <use x="194.384766" xlink:href="#DejaVuSans-118"/>
      <use x="253.564453" xlink:href="#DejaVuSans-101"/>
      <use x="315.087891" xlink:href="#DejaVuSans-114"/>
      <use x="354.451172" xlink:href="#DejaVuSans-103"/>
      <use x="417.927734" xlink:href="#DejaVuSans-101"/>
      <use x="479.451172" xlink:href="#DejaVuSans-110"/>
      <use x="542.830078" xlink:href="#DejaVuSans-99"/>
      <use x="597.810547" xlink:href="#DejaVuSans-101"/>
     </g>
    </g>
   </g>
   <g id="line2d_32">
    <path clip-path="url(#p921e64bba9)" d="M 69.218182 44.443636 
L 72.292562 44.443636 
L 72.292562 47.622899 
L 75.366942 47.622899 
L 75.366942 50.846675 
L 78.441322 50.846675 
L 78.441322 54.062921 
L 81.515702 54.062921 
L 81.515702 57.269658 
L 84.590083 57.269658 
L 84.590083 60.466178 
L 87.664463 60.466178 
L 87.664463 63.651794 
L 90.738843 63.651794 
L 90.738843 66.825819 
L 93.813223 66.825819 
L 93.813223 69.987557 
L 96.887603 69.987557 
L 96.887603 73.136306 
L 99.961983 73.136306 
L 99.961983 76.271358 
L 103.036364 76.271358 
L 103.036364 79.391996 
L 106.110744 79.391996 
L 106.110744 82.497496 
L 109.185124 82.497496 
L 109.185124 85.587127 
L 112.259504 85.587127 
L 112.259504 88.66015 
L 115.333884 88.66015 
L 115.333884 91.715815 
L 118.408264 91.715815 
L 118.408264 94.753369 
L 121.482645 94.753369 
L 121.482645 97.772047 
L 124.557025 97.772047 
L 124.557025 100.77108 
L 127.631405 100.77108 
L 127.631405 103.749689 
L 130.705785 103.749689 
L 130.705785 106.707092 
L 133.780165 106.707092 
L 133.780165 109.642496 
L 136.854545 109.642496 
L 136.854545 112.555107 
L 139.928926 112.555107 
L 139.928926 115.444124 
L 143.003306 115.444124 
L 143.003306 118.308743 
L 146.077686 118.308743 
L 146.077686 121.148159 
L 149.152066 121.148159 
L 149.152066 123.961562 
L 152.226446 123.961562 
L 152.226446 126.748145 
L 155.300826 126.748145 
L 155.300826 129.507101 
L 158.375207 129.507101 
L 158.375207 132.237626 
L 161.449587 132.237626 
L 161.449587 134.938918 
L 164.523967 134.938918 
L 164.523967 137.610185 
L 167.598347 137.610185 
L 167.598347 140.250639 
L 170.672727 140.250639 
L 170.672727 142.859505 
L 173.747107 142.859505 
L 173.747107 145.436016 
L 176.821488 145.436016 
L 176.821488 147.979422 
L 179.895868 147.979422 
L 179.895868 150.488986 
L 182.970248 150.488986 
L 182.970248 152.963992 
L 186.044628 152.963992 
L 186.044628 155.403741 
L 189.119008 155.403741 
L 189.119008 157.807558 
L 192.193388 157.807558 
L 192.193388 160.174793 
L 195.267769 160.174793 
L 195.267769 162.504822 
L 198.342149 162.504822 
L 198.342149 164.79705 
L 201.416529 164.79705 
L 201.416529 167.050915 
L 204.490909 167.050915 
L 204.490909 169.265885 
L 207.565289 169.265885 
L 207.565289 171.441467 
L 210.639669 171.441467 
L 210.639669 173.577202 
L 213.71405 173.577202 
L 213.71405 175.672674 
L 216.78843 175.672674 
L 216.78843 177.727503 
L 219.86281 177.727503 
L 219.86281 179.741357 
L 222.93719 179.741357 
L 222.93719 181.713942 
L 226.01157 181.713942 
L 226.01157 183.645015 
L 229.08595 183.645015 
L 229.08595 185.534374 
L 232.160331 185.534374 
L 232.160331 187.381866 
L 235.234711 187.381866 
L 235.234711 189.187388 
L 238.309091 189.187388 
L 238.309091 190.950881 
L 241.383471 190.950881 
L 241.383471 192.672337 
L 244.457851 192.672337 
L 244.457851 194.351795 
L 247.532231 194.351795 
L 247.532231 195.989344 
L 250.606612 195.989344 
L 250.606612 197.585118 
L 253.680992 197.585118 
L 253.680992 199.139301 
L 256.755372 199.139301 
L 256.755372 200.652122 
L 259.829752 200.652122 
L 259.829752 202.123853 
L 262.904132 202.123853 
L 262.904132 203.554814 
L 265.978512 203.554814 
L 265.978512 204.945366 
L 269.052893 204.945366 
L 269.052893 206.295909 
L 272.127273 206.295909 
L 272.127273 207.606885 
L 275.201653 207.606885 
L 275.201653 208.878772 
L 278.276033 208.878772 
L 278.276033 210.112084 
L 281.350413 210.112084 
L 281.350413 211.307368 
L 284.424793 211.307368 
L 284.424793 212.465202 
L 287.499174 212.465202 
L 287.499174 213.586194 
L 290.573554 213.586194 
L 290.573554 214.670977 
L 293.647934 214.670977 
L 293.647934 215.72021 
L 296.722314 215.72021 
L 296.722314 216.734571 
L 299.796694 216.734571 
L 299.796694 217.714761 
L 302.871074 217.714761 
L 302.871074 218.661497 
L 305.945455 218.661497 
L 305.945455 219.575509 
L 309.019835 219.575509 
L 309.019835 220.457541 
L 312.094215 220.457541 
L 312.094215 221.308349 
L 315.168595 221.308349 
L 315.168595 222.128694 
L 318.242975 222.128694 
L 318.242975 222.919345 
L 321.317355 222.919345 
L 321.317355 223.681075 
L 324.391736 223.681075 
L 324.391736 224.414659 
L 327.466116 224.414659 
L 327.466116 225.120871 
L 330.540496 225.120871 
L 330.540496 225.800484 
L 333.614876 225.800484 
L 333.614876 226.454269 
L 336.689256 226.454269 
L 336.689256 227.082993 
L 339.763636 227.082993 
L 339.763636 227.687413 
L 342.838017 227.687413 
L 342.838017 228.268282 
L 345.912397 228.268282 
L 345.912397 228.826344 
L 348.986777 228.826344 
L 348.986777 229.362332 
L 352.061157 229.362332 
L 352.061157 229.876969 
L 355.135537 229.876969 
L 355.135537 230.370967 
L 358.209917 230.370967 
L 358.209917 230.845023 
L 361.284298 230.845023 
L 361.284298 231.299823 
L 364.358678 231.299823 
L 364.358678 231.736038 
L 367.433058 231.736038 
L 367.433058 232.154327 
L 370.507438 232.154327 
L 370.507438 232.555331 
L 373.581818 232.555331 
L 373.581818 232.939677 
L 373.581818 232.939677 
" style="fill:none;stroke:#1e90ff;stroke-dasharray:5.55,2.4;stroke-dashoffset:0;stroke-width:1.5;"/>
   </g>
   <g id="line2d_33">
    <path clip-path="url(#p921e64bba9)" d="M 69.218182 44.443636 
L 103.036364 44.443636 
L 103.036364 137.403063 
L 109.185124 137.403063 
L 109.185124 227.504497 
L 121.482645 227.504497 
L 121.482645 238.263704 
L 127.631405 238.263704 
L 127.631405 241.405902 
L 139.928926 241.405902 
L 139.928926 241.594527 
L 152.226446 241.594527 
L 152.226446 241.973872 
L 158.375207 241.973872 
L 158.375207 242.111329 
L 373.581818 242.116363 
L 373.581818 242.116363 
" style="fill:none;stroke:#ff8c00;stroke-dasharray:5.55,2.4;stroke-dashoffset:0;stroke-width:1.5;"/>
   </g>
   <g id="line2d_34">
    <path clip-path="url(#p921e64bba9)" d="M 72.292562 44.443636 
L 78.441322 44.443636 
L 78.441322 77.140442 
L 112.259504 77.140442 
L 112.259504 140.345131 
L 115.333884 140.345131 
L 115.333884 228.195181 
L 118.408264 228.195181 
L 118.408264 235.866873 
L 127.631405 235.866873 
L 127.631405 240.017089 
L 133.780165 240.017089 
L 133.780165 241.812024 
L 158.375207 241.812024 
L 158.375207 242.079856 
L 373.581818 242.116364 
L 373.581818 242.116364 
" style="fill:none;stroke:#008000;stroke-dasharray:5.55,2.4;stroke-dashoffset:0;stroke-width:1.5;"/>
   </g>
   <g id="line2d_35">
    <path clip-path="url(#p921e64bba9)" d="M 69.218182 44.443636 
L 112.259504 44.443636 
L 112.259504 57.357496 
L 136.854545 57.357496 
L 136.854545 103.686409 
L 161.449587 103.686409 
L 161.449587 137.212151 
L 186.044628 137.212151 
L 186.044628 139.316769 
L 204.490909 139.316769 
L 204.490909 152.066109 
L 219.86281 152.066109 
L 219.86281 154.751402 
L 222.93719 154.751402 
L 222.93719 164.413453 
L 238.309091 164.413453 
L 238.309091 181.358977 
L 259.829752 181.358977 
L 259.829752 206.972076 
L 275.201653 206.972076 
L 275.201653 212.495901 
L 296.722314 212.495901 
L 296.722314 217.05443 
L 342.838017 217.05443 
L 342.838017 220.570798 
L 345.912397 220.570798 
L 345.912397 225.459561 
L 367.433058 225.459561 
L 367.433058 225.698377 
L 373.581818 225.698377 
L 373.581818 225.698377 
" style="fill:none;stroke:#ff0000;stroke-dasharray:5.55,2.4;stroke-dashoffset:0;stroke-width:1.5;"/>
   </g>
   <g id="line2d_36">
    <path clip-path="url(#p921e64bba9)" d="M 69.218182 44.443636 
L 130.705785 44.443636 
L 130.705785 57.215478 
L 158.375207 57.215478 
L 158.375207 63.480837 
L 176.821488 63.480837 
L 176.821488 65.119783 
L 186.044628 65.119783 
L 186.044628 69.550339 
L 204.490909 69.550339 
L 204.490909 79.92315 
L 373.581818 79.92315 
L 373.581818 79.92315 
" style="fill:none;stroke:#9400d3;stroke-dasharray:5.55,2.4;stroke-dashoffset:0;stroke-width:1.5;"/>
   </g>
   <g id="line2d_37">
    <path clip-path="url(#p921e64bba9)" d="M 69.218182 44.443636 
L 106.110744 44.443636 
L 106.110744 57.974354 
L 109.185124 57.974354 
L 109.185124 124.214089 
L 112.259504 124.214089 
L 112.259504 176.832852 
L 115.333884 176.832852 
L 115.333884 180.49313 
L 373.581818 180.49313 
L 373.581818 180.49313 
" style="fill:none;stroke:#8b4513;stroke-dasharray:5.55,2.4;stroke-dashoffset:0;stroke-width:1.5;"/>
   </g>
   <g id="patch_3">
    <path d="M 54 252 
L 54 34.56 
" style="fill:none;stroke:#000000;stroke-linecap:square;stroke-linejoin:miter;stroke-width:0.8;"/>
   </g>
   <g id="patch_4">
    <path d="M 388.8 252 
L 388.8 34.56 
" style="fill:none;stroke:#000000;stroke-linecap:square;stroke-linejoin:miter;stroke-width:0.8;"/>
   </g>
   <g id="patch_5">
    <path d="M 54 252 
L 388.8 252 
" style="fill:none;stroke:#000000;stroke-linecap:square;stroke-linejoin:miter;stroke-width:0.8;"/>
   </g>
   <g id="patch_6">
    <path d="M 54 34.56 
L 388.8 34.56 
" style="fill:none;stroke:#000000;stroke-linecap:square;stroke-linejoin:miter;stroke-width:0.8;"/>
   </g>
   <g id="legend_1">
    <g id="patch_7">
     <path d="M 265.895312 131.185 
L 381.8 131.185 
Q 383.8 131.185 383.8 129.185 
L 383.8 41.56 
Q 383.8 39.56 381.8 39.56 
L 265.895312 39.56 
Q 263.895312 39.56 263.895312 41.56 
L 263.895312 129.185 
Q 263.895312 131.185 265.895312 131.185 
z
" style="fill:#ffffff;opacity:0.8;stroke:#cccccc;stroke-linejoin:miter;"/>
    </g>
    <g id="line2d_38">
     <path d="M 267.895312 47.658437 
L 287.895312 47.658437 
" style="fill:none;stroke:#1e90ff;stroke-dasharray:5.55,2.4;stroke-dashoffset:0;stroke-width:1.5;"/>
    </g>
    <g id="line2d_39"/>
    <g id="text_12">
     <!-- ADMM -->
     <g transform="translate(295.895312 51.158437)scale(0.1 -0.1)">
      <defs>
       <path d="M 34.1875 63.1875 
L 20.796875 26.90625 
L 47.609375 26.90625 
z
M 28.609375 72.90625 
L 39.796875 72.90625 
L 67.578125 0 
L 57.328125 0 
L 50.6875 18.703125 
L 17.828125 18.703125 
L 11.1875 0 
L 0.78125 0 
z
" id="DejaVuSans-65"/>
       <path d="M 19.671875 64.796875 
L 19.671875 8.109375 
L 31.59375 8.109375 
Q 46.6875 8.109375 53.6875 14.9375 
Q 60.6875 21.78125 60.6875 36.53125 
Q 60.6875 51.171875 53.6875 57.984375 
Q 46.6875 64.796875 31.59375 64.796875 
z
M 9.8125 72.90625 
L 30.078125 72.90625 
Q 51.265625 72.90625 61.171875 64.09375 
Q 71.09375 55.28125 71.09375 36.53125 
Q 71.09375 17.671875 61.125 8.828125 
Q 51.171875 0 30.078125 0 
L 9.8125 0 
z
" id="DejaVuSans-68"/>
       <path d="M 9.8125 72.90625 
L 24.515625 72.90625 
L 43.109375 23.296875 
L 61.8125 72.90625 
L 76.515625 72.90625 
L 76.515625 0 
L 66.890625 0 
L 66.890625 64.015625 
L 48.09375 14.015625 
L 38.1875 14.015625 
L 19.390625 64.015625 
L 19.390625 0 
L 9.8125 0 
z
" id="DejaVuSans-77"/>
      </defs>
      <use xlink:href="#DejaVuSans-65"/>
      <use x="68.408203" xlink:href="#DejaVuSans-68"/>
      <use x="145.410156" xlink:href="#DejaVuSans-77"/>
      <use x="231.689453" xlink:href="#DejaVuSans-77"/>
     </g>
    </g>
    <g id="line2d_40">
     <path d="M 267.895312 62.336562 
L 287.895312 62.336562 
" style="fill:none;stroke:#ff8c00;stroke-dasharray:5.55,2.4;stroke-dashoffset:0;stroke-width:1.5;"/>
    </g>
    <g id="line2d_41"/>
    <g id="text_13">
     <!-- ADMM_CUATRO -->
     <g transform="translate(295.895312 65.836562)scale(0.1 -0.1)">
      <defs>
       <path d="M 50.984375 -16.609375 
L 50.984375 -23.578125 
L -0.984375 -23.578125 
L -0.984375 -16.609375 
z
" id="DejaVuSans-95"/>
       <path d="M 8.6875 72.90625 
L 18.609375 72.90625 
L 18.609375 28.609375 
Q 18.609375 16.890625 22.84375 11.734375 
Q 27.09375 6.59375 36.625 6.59375 
Q 46.09375 6.59375 50.34375 11.734375 
Q 54.59375 16.890625 54.59375 28.609375 
L 54.59375 72.90625 
L 64.5 72.90625 
L 64.5 27.390625 
Q 64.5 13.140625 57.4375 5.859375 
Q 50.390625 -1.421875 36.625 -1.421875 
Q 22.796875 -1.421875 15.734375 5.859375 
Q 8.6875 13.140625 8.6875 27.390625 
z
" id="DejaVuSans-85"/>
       <path d="M -0.296875 72.90625 
L 61.375 72.90625 
L 61.375 64.59375 
L 35.5 64.59375 
L 35.5 0 
L 25.59375 0 
L 25.59375 64.59375 
L -0.296875 64.59375 
z
" id="DejaVuSans-84"/>
       <path d="M 44.390625 34.1875 
Q 47.5625 33.109375 50.5625 29.59375 
Q 53.5625 26.078125 56.59375 19.921875 
L 66.609375 0 
L 56 0 
L 46.6875 18.703125 
Q 43.0625 26.03125 39.671875 28.421875 
Q 36.28125 30.8125 30.421875 30.8125 
L 19.671875 30.8125 
L 19.671875 0 
L 9.8125 0 
L 9.8125 72.90625 
L 32.078125 72.90625 
Q 44.578125 72.90625 50.734375 67.671875 
Q 56.890625 62.453125 56.890625 51.90625 
Q 56.890625 45.015625 53.6875 40.46875 
Q 50.484375 35.9375 44.390625 34.1875 
z
M 19.671875 64.796875 
L 19.671875 38.921875 
L 32.078125 38.921875 
Q 39.203125 38.921875 42.84375 42.21875 
Q 46.484375 45.515625 46.484375 51.90625 
Q 46.484375 58.296875 42.84375 61.546875 
Q 39.203125 64.796875 32.078125 64.796875 
z
" id="DejaVuSans-82"/>
       <path d="M 39.40625 66.21875 
Q 28.65625 66.21875 22.328125 58.203125 
Q 16.015625 50.203125 16.015625 36.375 
Q 16.015625 22.609375 22.328125 14.59375 
Q 28.65625 6.59375 39.40625 6.59375 
Q 50.140625 6.59375 56.421875 14.59375 
Q 62.703125 22.609375 62.703125 36.375 
Q 62.703125 50.203125 56.421875 58.203125 
Q 50.140625 66.21875 39.40625 66.21875 
z
M 39.40625 74.21875 
Q 54.734375 74.21875 63.90625 63.9375 
Q 73.09375 53.65625 73.09375 36.375 
Q 73.09375 19.140625 63.90625 8.859375 
Q 54.734375 -1.421875 39.40625 -1.421875 
Q 24.03125 -1.421875 14.8125 8.828125 
Q 5.609375 19.09375 5.609375 36.375 
Q 5.609375 53.65625 14.8125 63.9375 
Q 24.03125 74.21875 39.40625 74.21875 
z
" id="DejaVuSans-79"/>
      </defs>
      <use xlink:href="#DejaVuSans-65"/>
      <use x="68.408203" xlink:href="#DejaVuSans-68"/>
      <use x="145.410156" xlink:href="#DejaVuSans-77"/>
      <use x="231.689453" xlink:href="#DejaVuSans-77"/>
      <use x="317.96875" xlink:href="#DejaVuSans-95"/>
      <use x="367.96875" xlink:href="#DejaVuSans-67"/>
      <use x="437.792969" xlink:href="#DejaVuSans-85"/>
      <use x="510.986328" xlink:href="#DejaVuSans-65"/>
      <use x="571.644531" xlink:href="#DejaVuSans-84"/>
      <use x="632.728516" xlink:href="#DejaVuSans-82"/>
      <use x="702.210938" xlink:href="#DejaVuSans-79"/>
     </g>
    </g>
    <g id="line2d_42">
     <path d="M 267.895312 77.292812 
L 287.895312 77.292812 
" style="fill:none;stroke:#008000;stroke-dasharray:5.55,2.4;stroke-dashoffset:0;stroke-width:1.5;"/>
    </g>
    <g id="line2d_43"/>
    <g id="text_14">
     <!-- Py-BOBYQA -->
     <g transform="translate(295.895312 80.792812)scale(0.1 -0.1)">
      <defs>
       <path d="M 19.671875 64.796875 
L 19.671875 37.40625 
L 32.078125 37.40625 
Q 38.96875 37.40625 42.71875 40.96875 
Q 46.484375 44.53125 46.484375 51.125 
Q 46.484375 57.671875 42.71875 61.234375 
Q 38.96875 64.796875 32.078125 64.796875 
z
M 9.8125 72.90625 
L 32.078125 72.90625 
Q 44.34375 72.90625 50.609375 67.359375 
Q 56.890625 61.8125 56.890625 51.125 
Q 56.890625 40.328125 50.609375 34.8125 
Q 44.34375 29.296875 32.078125 29.296875 
L 19.671875 29.296875 
L 19.671875 0 
L 9.8125 0 
z
" id="DejaVuSans-80"/>
       <path d="M 32.171875 -5.078125 
Q 28.375 -14.84375 24.75 -17.8125 
Q 21.140625 -20.796875 15.09375 -20.796875 
L 7.90625 -20.796875 
L 7.90625 -13.28125 
L 13.1875 -13.28125 
Q 16.890625 -13.28125 18.9375 -11.515625 
Q 21 -9.765625 23.484375 -3.21875 
L 25.09375 0.875 
L 2.984375 54.6875 
L 12.5 54.6875 
L 29.59375 11.921875 
L 46.6875 54.6875 
L 56.203125 54.6875 
z
" id="DejaVuSans-121"/>
       <path d="M 4.890625 31.390625 
L 31.203125 31.390625 
L 31.203125 23.390625 
L 4.890625 23.390625 
z
" id="DejaVuSans-45"/>
       <path d="M 19.671875 34.8125 
L 19.671875 8.109375 
L 35.5 8.109375 
Q 43.453125 8.109375 47.28125 11.40625 
Q 51.125 14.703125 51.125 21.484375 
Q 51.125 28.328125 47.28125 31.5625 
Q 43.453125 34.8125 35.5 34.8125 
z
M 19.671875 64.796875 
L 19.671875 42.828125 
L 34.28125 42.828125 
Q 41.5 42.828125 45.03125 45.53125 
Q 48.578125 48.25 48.578125 53.8125 
Q 48.578125 59.328125 45.03125 62.0625 
Q 41.5 64.796875 34.28125 64.796875 
z
M 9.8125 72.90625 
L 35.015625 72.90625 
Q 46.296875 72.90625 52.390625 68.21875 
Q 58.5 63.53125 58.5 54.890625 
Q 58.5 48.1875 55.375 44.234375 
Q 52.25 40.28125 46.1875 39.3125 
Q 53.46875 37.75 57.5 32.78125 
Q 61.53125 27.828125 61.53125 20.40625 
Q 61.53125 10.640625 54.890625 5.3125 
Q 48.25 0 35.984375 0 
L 9.8125 0 
z
" id="DejaVuSans-66"/>
       <path d="M -0.203125 72.90625 
L 10.40625 72.90625 
L 30.609375 42.921875 
L 50.6875 72.90625 
L 61.28125 72.90625 
L 35.5 34.71875 
L 35.5 0 
L 25.59375 0 
L 25.59375 34.71875 
z
" id="DejaVuSans-89"/>
       <path d="M 39.40625 66.21875 
Q 28.65625 66.21875 22.328125 58.203125 
Q 16.015625 50.203125 16.015625 36.375 
Q 16.015625 22.609375 22.328125 14.59375 
Q 28.65625 6.59375 39.40625 6.59375 
Q 50.140625 6.59375 56.421875 14.59375 
Q 62.703125 22.609375 62.703125 36.375 
Q 62.703125 50.203125 56.421875 58.203125 
Q 50.140625 66.21875 39.40625 66.21875 
z
M 53.21875 1.3125 
L 66.21875 -12.890625 
L 54.296875 -12.890625 
L 43.5 -1.21875 
Q 41.890625 -1.3125 41.03125 -1.359375 
Q 40.1875 -1.421875 39.40625 -1.421875 
Q 24.03125 -1.421875 14.8125 8.859375 
Q 5.609375 19.140625 5.609375 36.375 
Q 5.609375 53.65625 14.8125 63.9375 
Q 24.03125 74.21875 39.40625 74.21875 
Q 54.734375 74.21875 63.90625 63.9375 
Q 73.09375 53.65625 73.09375 36.375 
Q 73.09375 23.6875 67.984375 14.640625 
Q 62.890625 5.609375 53.21875 1.3125 
z
" id="DejaVuSans-81"/>
      </defs>
      <use xlink:href="#DejaVuSans-80"/>
      <use x="60.302734" xlink:href="#DejaVuSans-121"/>
      <use x="117.732422" xlink:href="#DejaVuSans-45"/>
      <use x="150.191406" xlink:href="#DejaVuSans-66"/>
      <use x="217.044922" xlink:href="#DejaVuSans-79"/>
      <use x="295.755859" xlink:href="#DejaVuSans-66"/>
      <use x="358.859375" xlink:href="#DejaVuSans-89"/>
      <use x="419.943359" xlink:href="#DejaVuSans-81"/>
      <use x="498.654297" xlink:href="#DejaVuSans-65"/>
     </g>
    </g>
    <g id="line2d_44">
     <path d="M 267.895312 91.970937 
L 287.895312 91.970937 
" style="fill:none;stroke:#ff0000;stroke-dasharray:5.55,2.4;stroke-dashoffset:0;stroke-width:1.5;"/>
    </g>
    <g id="line2d_45"/>
    <g id="text_15">
     <!-- DIRECT-L -->
     <g transform="translate(295.895312 95.470937)scale(0.1 -0.1)">
      <defs>
       <path d="M 9.8125 72.90625 
L 19.671875 72.90625 
L 19.671875 0 
L 9.8125 0 
z
" id="DejaVuSans-73"/>
       <path d="M 9.8125 72.90625 
L 55.90625 72.90625 
L 55.90625 64.59375 
L 19.671875 64.59375 
L 19.671875 43.015625 
L 54.390625 43.015625 
L 54.390625 34.71875 
L 19.671875 34.71875 
L 19.671875 8.296875 
L 56.78125 8.296875 
L 56.78125 0 
L 9.8125 0 
z
" id="DejaVuSans-69"/>
       <path d="M 9.8125 72.90625 
L 19.671875 72.90625 
L 19.671875 8.296875 
L 55.171875 8.296875 
L 55.171875 0 
L 9.8125 0 
z
" id="DejaVuSans-76"/>
      </defs>
      <use xlink:href="#DejaVuSans-68"/>
      <use x="77.001953" xlink:href="#DejaVuSans-73"/>
      <use x="106.494141" xlink:href="#DejaVuSans-82"/>
      <use x="175.976562" xlink:href="#DejaVuSans-69"/>
      <use x="239.160156" xlink:href="#DejaVuSans-67"/>
      <use x="308.984375" xlink:href="#DejaVuSans-84"/>
      <use x="360.943359" xlink:href="#DejaVuSans-45"/>
      <use x="397.027344" xlink:href="#DejaVuSans-76"/>
     </g>
    </g>
    <g id="line2d_46">
     <path d="M 267.895312 106.649062 
L 287.895312 106.649062 
" style="fill:none;stroke:#9400d3;stroke-dasharray:5.55,2.4;stroke-dashoffset:0;stroke-width:1.5;"/>
    </g>
    <g id="line2d_47"/>
    <g id="text_16">
     <!-- ALADIN_CUATRO -->
     <g transform="translate(295.895312 110.149062)scale(0.1 -0.1)">
      <use xlink:href="#DejaVuSans-65"/>
      <use x="68.408203" xlink:href="#DejaVuSans-76"/>
      <use x="126.371094" xlink:href="#DejaVuSans-65"/>
      <use x="194.779297" xlink:href="#DejaVuSans-68"/>
      <use x="271.78125" xlink:href="#DejaVuSans-73"/>
      <use x="301.273438" xlink:href="#DejaVuSans-78"/>
      <use x="376.078125" xlink:href="#DejaVuSans-95"/>
      <use x="426.078125" xlink:href="#DejaVuSans-67"/>
      <use x="495.902344" xlink:href="#DejaVuSans-85"/>
      <use x="569.095703" xlink:href="#DejaVuSans-65"/>
      <use x="629.753906" xlink:href="#DejaVuSans-84"/>
      <use x="690.837891" xlink:href="#DejaVuSans-82"/>
      <use x="760.320312" xlink:href="#DejaVuSans-79"/>
     </g>
    </g>
    <g id="line2d_48">
     <path d="M 267.895312 121.605312 
L 287.895312 121.605312 
" style="fill:none;stroke:#8b4513;stroke-dasharray:5.55,2.4;stroke-dashoffset:0;stroke-width:1.5;"/>
    </g>
    <g id="line2d_49"/>
    <g id="text_17">
     <!-- GPyOpt -->
     <g transform="translate(295.895312 125.105312)scale(0.1 -0.1)">
      <defs>
       <path d="M 59.515625 10.40625 
L 59.515625 29.984375 
L 43.40625 29.984375 
L 43.40625 38.09375 
L 69.28125 38.09375 
L 69.28125 6.78125 
Q 63.578125 2.734375 56.6875 0.65625 
Q 49.8125 -1.421875 42 -1.421875 
Q 24.90625 -1.421875 15.25 8.5625 
Q 5.609375 18.5625 5.609375 36.375 
Q 5.609375 54.25 15.25 64.234375 
Q 24.90625 74.21875 42 74.21875 
Q 49.125 74.21875 55.546875 72.453125 
Q 61.96875 70.703125 67.390625 67.28125 
L 67.390625 56.78125 
Q 61.921875 61.421875 55.765625 63.765625 
Q 49.609375 66.109375 42.828125 66.109375 
Q 29.4375 66.109375 22.71875 58.640625 
Q 16.015625 51.171875 16.015625 36.375 
Q 16.015625 21.625 22.71875 14.15625 
Q 29.4375 6.6875 42.828125 6.6875 
Q 48.046875 6.6875 52.140625 7.59375 
Q 56.25 8.5 59.515625 10.40625 
z
" id="DejaVuSans-71"/>
       <path d="M 18.109375 8.203125 
L 18.109375 -20.796875 
L 9.078125 -20.796875 
L 9.078125 54.6875 
L 18.109375 54.6875 
L 18.109375 46.390625 
Q 20.953125 51.265625 25.265625 53.625 
Q 29.59375 56 35.59375 56 
Q 45.5625 56 51.78125 48.09375 
Q 58.015625 40.1875 58.015625 27.296875 
Q 58.015625 14.40625 51.78125 6.484375 
Q 45.5625 -1.421875 35.59375 -1.421875 
Q 29.59375 -1.421875 25.265625 0.953125 
Q 20.953125 3.328125 18.109375 8.203125 
z
M 48.6875 27.296875 
Q 48.6875 37.203125 44.609375 42.84375 
Q 40.53125 48.484375 33.40625 48.484375 
Q 26.265625 48.484375 22.1875 42.84375 
Q 18.109375 37.203125 18.109375 27.296875 
Q 18.109375 17.390625 22.1875 11.75 
Q 26.265625 6.109375 33.40625 6.109375 
Q 40.53125 6.109375 44.609375 11.75 
Q 48.6875 17.390625 48.6875 27.296875 
z
" id="DejaVuSans-112"/>
      </defs>
      <use xlink:href="#DejaVuSans-71"/>
      <use x="77.490234" xlink:href="#DejaVuSans-80"/>
      <use x="137.792969" xlink:href="#DejaVuSans-121"/>
      <use x="196.972656" xlink:href="#DejaVuSans-79"/>
      <use x="275.683594" xlink:href="#DejaVuSans-112"/>
      <use x="339.160156" xlink:href="#DejaVuSans-116"/>
     </g>
    </g>
   </g>
  </g>
 </g>
 <defs>
  <clipPath id="p921e64bba9">
   <rect height="217.44" width="334.8" x="54" y="34.56"/>
  </clipPath>
 </defs>
</svg>
