<?xml version="1.0" encoding="utf-8" standalone="no"?>
<!DOCTYPE svg PUBLIC "-//W3C//DTD SVG 1.1//EN"
  "http://www.w3.org/Graphics/SVG/1.1/DTD/svg11.dtd">
<!-- Created with matplotlib (https://matplotlib.org/) -->
<svg height="288pt" version="1.1" viewBox="0 0 432 288" width="432pt" xmlns="http://www.w3.org/2000/svg" xmlns:xlink="http://www.w3.org/1999/xlink">
 <metadata>
  <rdf:RDF xmlns:cc="http://creativecommons.org/ns#" xmlns:dc="http://purl.org/dc/elements/1.1/" xmlns:rdf="http://www.w3.org/1999/02/22-rdf-syntax-ns#">
   <cc:Work>
    <dc:type rdf:resource="http://purl.org/dc/dcmitype/StillImage"/>
    <dc:date>2022-03-04T18:13:42.162469</dc:date>
    <dc:format>image/svg+xml</dc:format>
    <dc:creator>
     <cc:Agent>
      <dc:title>Matplotlib v3.3.4, https://matplotlib.org/</dc:title>
     </cc:Agent>
    </dc:creator>
   </cc:Work>
  </rdf:RDF>
 </metadata>
 <defs>
  <style type="text/css">*{stroke-linecap:butt;stroke-linejoin:round;}</style>
 </defs>
 <g id="figure_1">
  <g id="patch_1">
   <path d="M 0 288 
L 432 288 
L 432 0 
L 0 0 
z
" style="fill:#ffffff;"/>
  </g>
  <g id="axes_1">
   <g id="patch_2">
    <path d="M 54 252 
L 388.8 252 
L 388.8 34.56 
L 54 34.56 
z
" style="fill:#ffffff;"/>
   </g>
   <g id="PolyCollection_1">
    <defs>
     <path d="M 69.218182 -243.556364 
L 69.218182 -243.556364 
L 72.292562 -243.556364 
L 72.292562 -243.556364 
L 75.366942 -243.556364 
L 75.366942 -243.556364 
L 78.441322 -243.556364 
L 78.441322 -243.556364 
L 81.515702 -243.556364 
L 81.515702 -243.556364 
L 84.590083 -243.556364 
L 84.590083 -243.556364 
L 87.664463 -243.556364 
L 87.664463 -243.556364 
L 90.738843 -243.556364 
L 90.738843 -243.556364 
L 93.813223 -243.556364 
L 93.813223 -243.556364 
L 96.887603 -243.556364 
L 96.887603 -243.556364 
L 99.961983 -243.556364 
L 99.961983 -243.556364 
L 103.036364 -243.556364 
L 103.036364 -243.556364 
L 106.110744 -243.556364 
L 106.110744 -237.289356 
L 109.185124 -237.289356 
L 109.185124 -237.289356 
L 112.259504 -237.289356 
L 112.259504 -237.289356 
L 115.333884 -237.289356 
L 115.333884 -237.289356 
L 118.408264 -237.289356 
L 118.408264 -222.571547 
L 121.482645 -222.571547 
L 121.482645 -222.571547 
L 124.557025 -222.571547 
L 124.557025 -222.571547 
L 127.631405 -222.571547 
L 127.631405 -222.571547 
L 130.705785 -222.571547 
L 130.705785 -213.421631 
L 133.780165 -213.421631 
L 133.780165 -213.421631 
L 136.854545 -213.421631 
L 136.854545 -213.421631 
L 139.928926 -213.421631 
L 139.928926 -213.421631 
L 143.003306 -213.421631 
L 143.003306 -213.421631 
L 146.077686 -213.421631 
L 146.077686 -213.421631 
L 149.152066 -213.421631 
L 149.152066 -213.421631 
L 152.226446 -213.421631 
L 152.226446 -213.421631 
L 155.300826 -213.421631 
L 155.300826 -213.421631 
L 158.375207 -213.421631 
L 158.375207 -213.421631 
L 161.449587 -213.421631 
L 161.449587 -207.456113 
L 164.523967 -207.456113 
L 164.523967 -207.456113 
L 167.598347 -207.456113 
L 167.598347 -171.719141 
L 170.672727 -171.719141 
L 170.672727 -171.719141 
L 173.747107 -171.719141 
L 173.747107 -171.719141 
L 176.821488 -171.719141 
L 176.821488 -171.719141 
L 179.895868 -171.719141 
L 179.895868 -171.719141 
L 182.970248 -171.719141 
L 182.970248 -171.719141 
L 186.044628 -171.719141 
L 186.044628 -171.719141 
L 189.119008 -171.719141 
L 189.119008 -171.719141 
L 192.193388 -171.719141 
L 192.193388 -170.917324 
L 195.267769 -170.917324 
L 195.267769 -170.917324 
L 198.342149 -170.917324 
L 198.342149 -138.378283 
L 201.416529 -138.378283 
L 201.416529 -138.378283 
L 204.490909 -138.378283 
L 204.490909 -138.378283 
L 207.565289 -138.378283 
L 207.565289 -138.378283 
L 210.639669 -138.378283 
L 210.639669 -138.378283 
L 213.71405 -138.378283 
L 213.71405 -138.378283 
L 216.78843 -138.378283 
L 216.78843 -98.541974 
L 219.86281 -98.541974 
L 219.86281 -98.541974 
L 222.93719 -98.541974 
L 222.93719 -80.677259 
L 226.01157 -80.677259 
L 226.01157 -80.677259 
L 229.08595 -80.677259 
L 229.08595 -78.36502 
L 232.160331 -78.36502 
L 232.160331 -78.36502 
L 235.234711 -78.36502 
L 235.234711 -78.36502 
L 238.309091 -78.36502 
L 238.309091 -78.36502 
L 241.383471 -78.36502 
L 241.383471 -45.883636 
L 244.457851 -45.883636 
L 244.457851 -45.883636 
L 247.532231 -45.883636 
L 247.532231 -45.883636 
L 250.606612 -45.883636 
L 250.606612 -45.883636 
L 253.680992 -45.883636 
L 253.680992 -45.883636 
L 256.755372 -45.883636 
L 256.755372 -45.883636 
L 259.829752 -45.883636 
L 259.829752 -52.791067 
L 262.904132 -52.791067 
L 262.904132 -52.791067 
L 265.978512 -52.791067 
L 265.978512 -62.859962 
L 269.052893 -62.859962 
L 269.052893 -62.859962 
L 272.127273 -62.859962 
L 272.127273 -62.859962 
L 275.201653 -62.859962 
L 275.201653 -62.859962 
L 278.276033 -62.859962 
L 278.276033 -64.394988 
L 281.350413 -64.394988 
L 281.350413 -64.394988 
L 284.424793 -64.394988 
L 284.424793 -64.412153 
L 287.499174 -64.412153 
L 287.499174 -64.412153 
L 290.573554 -64.412153 
L 290.573554 -64.497521 
L 293.647934 -64.497521 
L 293.647934 -64.497521 
L 296.722314 -64.497521 
L 296.722314 -64.497521 
L 299.796694 -64.497521 
L 299.796694 -64.497521 
L 302.871074 -64.497521 
L 302.871074 -64.583056 
L 305.945455 -64.583056 
L 305.945455 -64.583056 
L 309.019835 -64.583056 
L 309.019835 -64.587327 
L 312.094215 -64.587327 
L 312.094215 -64.587327 
L 315.168595 -64.587327 
L 315.168595 -64.594522 
L 318.242975 -64.594522 
L 318.242975 -64.594522 
L 321.317355 -64.594522 
L 321.317355 -64.59486 
L 324.391736 -64.59486 
L 324.391736 -64.59486 
L 327.466116 -64.59486 
L 327.466116 -64.59486 
L 330.540496 -64.59486 
L 330.540496 -64.59486 
L 333.614876 -64.59486 
L 333.614876 -64.59486 
L 336.689256 -64.59486 
L 336.689256 -64.59486 
L 339.763636 -64.59486 
L 339.763636 -64.595871 
L 342.838017 -64.595871 
L 342.838017 -64.595871 
L 345.912397 -64.595871 
L 345.912397 -64.595871 
L 348.986777 -64.595871 
L 348.986777 -64.595871 
L 352.061157 -64.595871 
L 352.061157 -64.595871 
L 355.135537 -64.595871 
L 355.135537 -64.595871 
L 358.209917 -64.595871 
L 358.209917 -64.595871 
L 361.284298 -64.595871 
L 361.284298 -64.595871 
L 364.358678 -64.595871 
L 364.358678 -64.595871 
L 367.433058 -64.595871 
L 367.433058 -64.595871 
L 370.507438 -64.595871 
L 370.507438 -64.595943 
L 373.581818 -64.595943 
L 373.581818 -64.595943 
L 373.581818 -64.595943 
L 373.581818 -64.595943 
L 373.581818 -64.595943 
L 370.507438 -64.595943 
L 370.507438 -64.595871 
L 367.433058 -64.595871 
L 367.433058 -64.595871 
L 364.358678 -64.595871 
L 364.358678 -64.595871 
L 361.284298 -64.595871 
L 361.284298 -64.595871 
L 358.209917 -64.595871 
L 358.209917 -64.595871 
L 355.135537 -64.595871 
L 355.135537 -64.595871 
L 352.061157 -64.595871 
L 352.061157 -64.595871 
L 348.986777 -64.595871 
L 348.986777 -64.595871 
L 345.912397 -64.595871 
L 345.912397 -64.595871 
L 342.838017 -64.595871 
L 342.838017 -64.595871 
L 339.763636 -64.595871 
L 339.763636 -64.59486 
L 336.689256 -64.59486 
L 336.689256 -64.59486 
L 333.614876 -64.59486 
L 333.614876 -64.59486 
L 330.540496 -64.59486 
L 330.540496 -64.59486 
L 327.466116 -64.59486 
L 327.466116 -64.59486 
L 324.391736 -64.59486 
L 324.391736 -64.59486 
L 321.317355 -64.59486 
L 321.317355 -64.594522 
L 318.242975 -64.594522 
L 318.242975 -64.594522 
L 315.168595 -64.594522 
L 315.168595 -64.587327 
L 312.094215 -64.587327 
L 312.094215 -64.587327 
L 309.019835 -64.587327 
L 309.019835 -64.583056 
L 305.945455 -64.583056 
L 305.945455 -64.583056 
L 302.871074 -64.583056 
L 302.871074 -64.497521 
L 299.796694 -64.497521 
L 299.796694 -64.497521 
L 296.722314 -64.497521 
L 296.722314 -64.497521 
L 293.647934 -64.497521 
L 293.647934 -64.497521 
L 290.573554 -64.497521 
L 290.573554 -64.412153 
L 287.499174 -64.412153 
L 287.499174 -64.412153 
L 284.424793 -64.412153 
L 284.424793 -64.394988 
L 281.350413 -64.394988 
L 281.350413 -64.394988 
L 278.276033 -64.394988 
L 278.276033 -62.859962 
L 275.201653 -62.859962 
L 275.201653 -62.859962 
L 272.127273 -62.859962 
L 272.127273 -62.859962 
L 269.052893 -62.859962 
L 269.052893 -62.859962 
L 265.978512 -62.859962 
L 265.978512 -52.791067 
L 262.904132 -52.791067 
L 262.904132 -52.791067 
L 259.829752 -52.791067 
L 259.829752 -45.883636 
L 256.755372 -45.883636 
L 256.755372 -45.883636 
L 253.680992 -45.883636 
L 253.680992 -45.883636 
L 250.606612 -45.883636 
L 250.606612 -45.883636 
L 247.532231 -45.883636 
L 247.532231 -45.883636 
L 244.457851 -45.883636 
L 244.457851 -45.883636 
L 241.383471 -45.883636 
L 241.383471 -78.36502 
L 238.309091 -78.36502 
L 238.309091 -78.36502 
L 235.234711 -78.36502 
L 235.234711 -78.36502 
L 232.160331 -78.36502 
L 232.160331 -78.36502 
L 229.08595 -78.36502 
L 229.08595 -80.677259 
L 226.01157 -80.677259 
L 226.01157 -80.677259 
L 222.93719 -80.677259 
L 222.93719 -98.541974 
L 219.86281 -98.541974 
L 219.86281 -98.541974 
L 216.78843 -98.541974 
L 216.78843 -138.378283 
L 213.71405 -138.378283 
L 213.71405 -138.378283 
L 210.639669 -138.378283 
L 210.639669 -138.378283 
L 207.565289 -138.378283 
L 207.565289 -138.378283 
L 204.490909 -138.378283 
L 204.490909 -138.378283 
L 201.416529 -138.378283 
L 201.416529 -138.378283 
L 198.342149 -138.378283 
L 198.342149 -170.917324 
L 195.267769 -170.917324 
L 195.267769 -170.917324 
L 192.193388 -170.917324 
L 192.193388 -171.719141 
L 189.119008 -171.719141 
L 189.119008 -171.719141 
L 186.044628 -171.719141 
L 186.044628 -171.719141 
L 182.970248 -171.719141 
L 182.970248 -171.719141 
L 179.895868 -171.719141 
L 179.895868 -171.719141 
L 176.821488 -171.719141 
L 176.821488 -171.719141 
L 173.747107 -171.719141 
L 173.747107 -171.719141 
L 170.672727 -171.719141 
L 170.672727 -171.719141 
L 167.598347 -171.719141 
L 167.598347 -207.456113 
L 164.523967 -207.456113 
L 164.523967 -207.456113 
L 161.449587 -207.456113 
L 161.449587 -213.421631 
L 158.375207 -213.421631 
L 158.375207 -213.421631 
L 155.300826 -213.421631 
L 155.300826 -213.421631 
L 152.226446 -213.421631 
L 152.226446 -213.421631 
L 149.152066 -213.421631 
L 149.152066 -213.421631 
L 146.077686 -213.421631 
L 146.077686 -213.421631 
L 143.003306 -213.421631 
L 143.003306 -213.421631 
L 139.928926 -213.421631 
L 139.928926 -213.421631 
L 136.854545 -213.421631 
L 136.854545 -213.421631 
L 133.780165 -213.421631 
L 133.780165 -213.421631 
L 130.705785 -213.421631 
L 130.705785 -222.571547 
L 127.631405 -222.571547 
L 127.631405 -222.571547 
L 124.557025 -222.571547 
L 124.557025 -222.571547 
L 121.482645 -222.571547 
L 121.482645 -222.571547 
L 118.408264 -222.571547 
L 118.408264 -237.289356 
L 115.333884 -237.289356 
L 115.333884 -237.289356 
L 112.259504 -237.289356 
L 112.259504 -237.289356 
L 109.185124 -237.289356 
L 109.185124 -237.289356 
L 106.110744 -237.289356 
L 106.110744 -243.556364 
L 103.036364 -243.556364 
L 103.036364 -243.556364 
L 99.961983 -243.556364 
L 99.961983 -243.556364 
L 96.887603 -243.556364 
L 96.887603 -243.556364 
L 93.813223 -243.556364 
L 93.813223 -243.556364 
L 90.738843 -243.556364 
L 90.738843 -243.556364 
L 87.664463 -243.556364 
L 87.664463 -243.556364 
L 84.590083 -243.556364 
L 84.590083 -243.556364 
L 81.515702 -243.556364 
L 81.515702 -243.556364 
L 78.441322 -243.556364 
L 78.441322 -243.556364 
L 75.366942 -243.556364 
L 75.366942 -243.556364 
L 72.292562 -243.556364 
L 72.292562 -243.556364 
L 69.218182 -243.556364 
z
" id="m12613fddbd" style="stroke:#ff8c00;stroke-opacity:0.5;"/>
    </defs>
    <g clip-path="url(#p8d3d297d3f)">
     <use style="fill:#ff8c00;fill-opacity:0.5;stroke:#ff8c00;stroke-opacity:0.5;" x="0" xlink:href="#m12613fddbd" y="288"/>
    </g>
   </g>
   <g id="PolyCollection_2">
    <defs>
     <path d="M 69.218182 -243.556364 
L 69.218182 -243.556364 
L 72.292562 -243.556364 
L 72.292562 -243.556364 
L 75.366942 -243.556364 
L 75.366942 -243.556364 
L 78.441322 -243.556364 
L 78.441322 -243.556364 
L 81.515702 -243.556364 
L 81.515702 -243.556364 
L 84.590083 -243.556364 
L 84.590083 -243.556364 
L 87.664463 -243.556364 
L 87.664463 -243.556364 
L 90.738843 -243.556364 
L 90.738843 -243.556364 
L 93.813223 -243.556364 
L 93.813223 -243.556364 
L 96.887603 -243.556364 
L 96.887603 -243.556364 
L 99.961983 -243.556364 
L 99.961983 -243.556364 
L 103.036364 -243.556364 
L 103.036364 -243.556364 
L 106.110744 -243.556364 
L 106.110744 -243.556364 
L 109.185124 -243.556364 
L 109.185124 -243.556364 
L 112.259504 -243.556364 
L 112.259504 -225.764392 
L 115.333884 -225.764392 
L 115.333884 -225.764392 
L 118.408264 -225.764392 
L 118.408264 -225.764392 
L 121.482645 -225.764392 
L 121.482645 -225.764392 
L 124.557025 -225.764392 
L 124.557025 -225.764392 
L 127.631405 -225.764392 
L 127.631405 -225.764392 
L 130.705785 -225.764392 
L 130.705785 -225.764392 
L 133.780165 -225.764392 
L 133.780165 -225.764392 
L 136.854545 -225.764392 
L 136.854545 -214.620223 
L 139.928926 -214.620223 
L 139.928926 -214.620223 
L 143.003306 -214.620223 
L 143.003306 -214.620223 
L 146.077686 -214.620223 
L 146.077686 -214.620223 
L 149.152066 -214.620223 
L 149.152066 -214.620223 
L 152.226446 -214.620223 
L 152.226446 -214.620223 
L 155.300826 -214.620223 
L 155.300826 -214.620223 
L 158.375207 -214.620223 
L 158.375207 -214.620223 
L 161.449587 -214.620223 
L 161.449587 -214.620223 
L 164.523967 -214.620223 
L 164.523967 -214.620223 
L 167.598347 -214.620223 
L 167.598347 -214.620223 
L 170.672727 -214.620223 
L 170.672727 -214.620223 
L 173.747107 -214.620223 
L 173.747107 -214.620223 
L 176.821488 -214.620223 
L 176.821488 -214.620223 
L 179.895868 -214.620223 
L 179.895868 -214.620223 
L 182.970248 -214.620223 
L 182.970248 -210.4839 
L 186.044628 -210.4839 
L 186.044628 -210.4839 
L 189.119008 -210.4839 
L 189.119008 -210.4839 
L 192.193388 -210.4839 
L 192.193388 -210.4839 
L 195.267769 -210.4839 
L 195.267769 -210.4839 
L 198.342149 -210.4839 
L 198.342149 -210.4839 
L 201.416529 -210.4839 
L 201.416529 -210.4839 
L 204.490909 -210.4839 
L 204.490909 -198.549079 
L 207.565289 -198.549079 
L 207.565289 -198.549079 
L 210.639669 -198.549079 
L 210.639669 -198.549079 
L 213.71405 -198.549079 
L 213.71405 -198.549079 
L 216.78843 -198.549079 
L 216.78843 -198.549079 
L 219.86281 -198.549079 
L 219.86281 -195.97473 
L 222.93719 -195.97473 
L 222.93719 -195.97473 
L 226.01157 -195.97473 
L 226.01157 -195.97473 
L 229.08595 -195.97473 
L 229.08595 -195.97473 
L 232.160331 -195.97473 
L 232.160331 -195.97473 
L 235.234711 -195.97473 
L 235.234711 -195.97473 
L 238.309091 -195.97473 
L 238.309091 -195.97473 
L 241.383471 -195.97473 
L 241.383471 -193.925295 
L 244.457851 -193.925295 
L 244.457851 -193.925295 
L 247.532231 -193.925295 
L 247.532231 -193.925295 
L 250.606612 -193.925295 
L 250.606612 -193.925295 
L 253.680992 -193.925295 
L 253.680992 -193.925295 
L 256.755372 -193.925295 
L 256.755372 -179.943721 
L 259.829752 -179.943721 
L 259.829752 -179.943721 
L 262.904132 -179.943721 
L 262.904132 -179.943721 
L 265.978512 -179.943721 
L 265.978512 -179.943721 
L 269.052893 -179.943721 
L 269.052893 -179.943721 
L 272.127273 -179.943721 
L 272.127273 -179.943721 
L 275.201653 -179.943721 
L 275.201653 -178.302874 
L 278.276033 -178.302874 
L 278.276033 -178.302874 
L 281.350413 -178.302874 
L 281.350413 -178.302874 
L 284.424793 -178.302874 
L 284.424793 -178.302874 
L 287.499174 -178.302874 
L 287.499174 -178.302874 
L 290.573554 -178.302874 
L 290.573554 -178.302874 
L 293.647934 -178.302874 
L 293.647934 -171.146971 
L 296.722314 -171.146971 
L 296.722314 -171.146971 
L 299.796694 -171.146971 
L 299.796694 -171.146971 
L 302.871074 -171.146971 
L 302.871074 -171.146971 
L 305.945455 -171.146971 
L 305.945455 -171.146971 
L 309.019835 -171.146971 
L 309.019835 -171.146971 
L 312.094215 -171.146971 
L 312.094215 -171.146971 
L 315.168595 -171.146971 
L 315.168595 -171.146971 
L 318.242975 -171.146971 
L 318.242975 -156.21215 
L 321.317355 -156.21215 
L 321.317355 -156.21215 
L 324.391736 -156.21215 
L 324.391736 -156.21215 
L 327.466116 -156.21215 
L 327.466116 -156.21215 
L 330.540496 -156.21215 
L 330.540496 -156.21215 
L 333.614876 -156.21215 
L 333.614876 -156.21215 
L 336.689256 -156.21215 
L 336.689256 -156.21215 
L 339.763636 -156.21215 
L 339.763636 -156.21215 
L 342.838017 -156.21215 
L 342.838017 -155.766223 
L 345.912397 -155.766223 
L 345.912397 -155.766223 
L 348.986777 -155.766223 
L 348.986777 -155.766223 
L 352.061157 -155.766223 
L 352.061157 -155.766223 
L 355.135537 -155.766223 
L 355.135537 -155.766223 
L 358.209917 -155.766223 
L 358.209917 -155.766223 
L 361.284298 -155.766223 
L 361.284298 -155.766223 
L 364.358678 -155.766223 
L 364.358678 -155.766223 
L 367.433058 -155.766223 
L 367.433058 -155.766223 
L 370.507438 -155.766223 
L 370.507438 -138.83192 
L 373.581818 -138.83192 
L 373.581818 -138.83192 
L 373.581818 -169.073447 
L 373.581818 -169.073447 
L 373.581818 -169.073447 
L 370.507438 -169.073447 
L 370.507438 -169.073447 
L 367.433058 -169.073447 
L 367.433058 -169.073447 
L 364.358678 -169.073447 
L 364.358678 -169.073447 
L 361.284298 -169.073447 
L 361.284298 -169.073447 
L 358.209917 -169.073447 
L 358.209917 -169.073447 
L 355.135537 -169.073447 
L 355.135537 -169.073447 
L 352.061157 -169.073447 
L 352.061157 -169.073447 
L 348.986777 -169.073447 
L 348.986777 -169.073447 
L 345.912397 -169.073447 
L 345.912397 -171.146971 
L 342.838017 -171.146971 
L 342.838017 -178.168248 
L 339.763636 -178.168248 
L 339.763636 -178.168248 
L 336.689256 -178.168248 
L 336.689256 -178.168248 
L 333.614876 -178.168248 
L 333.614876 -178.168248 
L 330.540496 -178.168248 
L 330.540496 -178.168248 
L 327.466116 -178.168248 
L 327.466116 -178.168248 
L 324.391736 -178.168248 
L 324.391736 -178.168248 
L 321.317355 -178.168248 
L 321.317355 -178.302874 
L 318.242975 -178.302874 
L 318.242975 -178.302874 
L 315.168595 -178.302874 
L 315.168595 -178.302874 
L 312.094215 -178.302874 
L 312.094215 -178.302874 
L 309.019835 -178.302874 
L 309.019835 -178.302874 
L 305.945455 -178.302874 
L 305.945455 -178.302874 
L 302.871074 -178.302874 
L 302.871074 -178.302874 
L 299.796694 -178.302874 
L 299.796694 -178.302874 
L 296.722314 -178.302874 
L 296.722314 -178.302874 
L 293.647934 -178.302874 
L 293.647934 -178.302874 
L 290.573554 -178.302874 
L 290.573554 -178.302874 
L 287.499174 -178.302874 
L 287.499174 -178.302874 
L 284.424793 -178.302874 
L 284.424793 -178.302874 
L 281.350413 -178.302874 
L 281.350413 -178.302874 
L 278.276033 -178.302874 
L 278.276033 -202.111274 
L 275.201653 -202.111274 
L 275.201653 -202.111274 
L 272.127273 -202.111274 
L 272.127273 -202.111274 
L 269.052893 -202.111274 
L 269.052893 -202.111274 
L 265.978512 -202.111274 
L 265.978512 -202.111274 
L 262.904132 -202.111274 
L 262.904132 -202.111274 
L 259.829752 -202.111274 
L 259.829752 -202.111274 
L 256.755372 -202.111274 
L 256.755372 -208.18299 
L 253.680992 -208.18299 
L 253.680992 -208.18299 
L 250.606612 -208.18299 
L 250.606612 -208.18299 
L 247.532231 -208.18299 
L 247.532231 -208.18299 
L 244.457851 -208.18299 
L 244.457851 -208.18299 
L 241.383471 -208.18299 
L 241.383471 -208.554302 
L 238.309091 -208.554302 
L 238.309091 -208.554302 
L 235.234711 -208.554302 
L 235.234711 -208.554302 
L 232.160331 -208.554302 
L 232.160331 -208.554302 
L 229.08595 -208.554302 
L 229.08595 -208.554302 
L 226.01157 -208.554302 
L 226.01157 -208.554302 
L 222.93719 -208.554302 
L 222.93719 -209.607796 
L 219.86281 -209.607796 
L 219.86281 -213.877001 
L 216.78843 -213.877001 
L 216.78843 -213.877001 
L 213.71405 -213.877001 
L 213.71405 -213.877001 
L 210.639669 -213.877001 
L 210.639669 -213.877001 
L 207.565289 -213.877001 
L 207.565289 -213.877001 
L 204.490909 -213.877001 
L 204.490909 -214.620223 
L 201.416529 -214.620223 
L 201.416529 -214.620223 
L 198.342149 -214.620223 
L 198.342149 -214.620223 
L 195.267769 -214.620223 
L 195.267769 -214.620223 
L 192.193388 -214.620223 
L 192.193388 -214.620223 
L 189.119008 -214.620223 
L 189.119008 -214.620223 
L 186.044628 -214.620223 
L 186.044628 -214.620223 
L 182.970248 -214.620223 
L 182.970248 -214.620223 
L 179.895868 -214.620223 
L 179.895868 -214.620223 
L 176.821488 -214.620223 
L 176.821488 -214.620223 
L 173.747107 -214.620223 
L 173.747107 -225.764392 
L 170.672727 -225.764392 
L 170.672727 -225.764392 
L 167.598347 -225.764392 
L 167.598347 -225.764392 
L 164.523967 -225.764392 
L 164.523967 -225.764392 
L 161.449587 -225.764392 
L 161.449587 -225.764392 
L 158.375207 -225.764392 
L 158.375207 -225.764392 
L 155.300826 -225.764392 
L 155.300826 -225.764392 
L 152.226446 -225.764392 
L 152.226446 -225.764392 
L 149.152066 -225.764392 
L 149.152066 -225.764392 
L 146.077686 -225.764392 
L 146.077686 -225.764392 
L 143.003306 -225.764392 
L 143.003306 -225.764392 
L 139.928926 -225.764392 
L 139.928926 -225.764392 
L 136.854545 -225.764392 
L 136.854545 -243.556364 
L 133.780165 -243.556364 
L 133.780165 -243.556364 
L 130.705785 -243.556364 
L 130.705785 -243.556364 
L 127.631405 -243.556364 
L 127.631405 -243.556364 
L 124.557025 -243.556364 
L 124.557025 -243.556364 
L 121.482645 -243.556364 
L 121.482645 -243.556364 
L 118.408264 -243.556364 
L 118.408264 -243.556364 
L 115.333884 -243.556364 
L 115.333884 -243.556364 
L 112.259504 -243.556364 
L 112.259504 -243.556364 
L 109.185124 -243.556364 
L 109.185124 -243.556364 
L 106.110744 -243.556364 
L 106.110744 -243.556364 
L 103.036364 -243.556364 
L 103.036364 -243.556364 
L 99.961983 -243.556364 
L 99.961983 -243.556364 
L 96.887603 -243.556364 
L 96.887603 -243.556364 
L 93.813223 -243.556364 
L 93.813223 -243.556364 
L 90.738843 -243.556364 
L 90.738843 -243.556364 
L 87.664463 -243.556364 
L 87.664463 -243.556364 
L 84.590083 -243.556364 
L 84.590083 -243.556364 
L 81.515702 -243.556364 
L 81.515702 -243.556364 
L 78.441322 -243.556364 
L 78.441322 -243.556364 
L 75.366942 -243.556364 
L 75.366942 -243.556364 
L 72.292562 -243.556364 
L 72.292562 -243.556364 
L 69.218182 -243.556364 
z
" id="m28b4cb5cd3" style="stroke:#ff0000;stroke-opacity:0.5;"/>
    </defs>
    <g clip-path="url(#p8d3d297d3f)">
     <use style="fill:#ff0000;fill-opacity:0.5;stroke:#ff0000;stroke-opacity:0.5;" x="0" xlink:href="#m28b4cb5cd3" y="288"/>
    </g>
   </g>
   <g id="PolyCollection_3">
    <defs>
     <path d="M 69.218182 -243.556364 
L 69.218182 -243.556364 
L 72.292562 -243.556364 
L 72.292562 -243.556364 
L 75.366942 -243.556364 
L 75.366942 -243.556364 
L 78.441322 -243.556364 
L 78.441322 -243.556364 
L 81.515702 -243.556364 
L 81.515702 -243.556364 
L 84.590083 -243.556364 
L 84.590083 -243.556364 
L 87.664463 -243.556364 
L 87.664463 -243.556364 
L 90.738843 -243.556364 
L 90.738843 -243.556364 
L 93.813223 -243.556364 
L 93.813223 -243.556364 
L 96.887603 -243.556364 
L 96.887603 -243.556364 
L 99.961983 -243.556364 
L 99.961983 -243.556364 
L 103.036364 -243.556364 
L 103.036364 -243.556364 
L 106.110744 -243.556364 
L 106.110744 -243.556364 
L 109.185124 -243.556364 
L 109.185124 -243.556364 
L 112.259504 -243.556364 
L 112.259504 -243.556364 
L 115.333884 -243.556364 
L 115.333884 -243.556364 
L 118.408264 -243.556364 
L 118.408264 -243.556364 
L 121.482645 -243.556364 
L 121.482645 -243.556364 
L 124.557025 -243.556364 
L 124.557025 -243.556364 
L 127.631405 -243.556364 
L 127.631405 -243.556364 
L 130.705785 -243.556364 
L 130.705785 -239.845614 
L 133.780165 -239.845614 
L 133.780165 -239.845614 
L 136.854545 -239.845614 
L 136.854545 -239.845614 
L 139.928926 -239.845614 
L 139.928926 -239.845614 
L 143.003306 -239.845614 
L 143.003306 -239.845614 
L 146.077686 -239.845614 
L 146.077686 -239.845614 
L 149.152066 -239.845614 
L 149.152066 -239.845614 
L 152.226446 -239.845614 
L 152.226446 -239.845614 
L 155.300826 -239.845614 
L 155.300826 -239.845614 
L 158.375207 -239.845614 
L 158.375207 -238.003138 
L 161.449587 -238.003138 
L 161.449587 -238.003138 
L 164.523967 -238.003138 
L 164.523967 -238.003138 
L 167.598347 -238.003138 
L 167.598347 -238.003138 
L 170.672727 -238.003138 
L 170.672727 -238.003138 
L 173.747107 -238.003138 
L 173.747107 -238.003138 
L 176.821488 -238.003138 
L 176.821488 -237.519383 
L 179.895868 -237.519383 
L 179.895868 -237.519383 
L 182.970248 -237.519383 
L 182.970248 -237.519383 
L 186.044628 -237.519383 
L 186.044628 -236.205783 
L 189.119008 -236.205783 
L 189.119008 -236.205783 
L 192.193388 -236.205783 
L 192.193388 -236.205783 
L 195.267769 -236.205783 
L 195.267769 -236.205783 
L 198.342149 -236.205783 
L 198.342149 -236.205783 
L 201.416529 -236.205783 
L 201.416529 -236.205783 
L 204.490909 -236.205783 
L 204.490909 -233.098902 
L 207.565289 -233.098902 
L 207.565289 -233.098902 
L 210.639669 -233.098902 
L 210.639669 -233.098902 
L 213.71405 -233.098902 
L 213.71405 -233.098902 
L 216.78843 -233.098902 
L 216.78843 -233.098902 
L 219.86281 -233.098902 
L 219.86281 -233.098902 
L 222.93719 -233.098902 
L 222.93719 -233.098902 
L 226.01157 -233.098902 
L 226.01157 -233.098902 
L 229.08595 -233.098902 
L 229.08595 -233.098902 
L 232.160331 -233.098902 
L 232.160331 -233.098902 
L 235.234711 -233.098902 
L 235.234711 -233.098902 
L 238.309091 -233.098902 
L 238.309091 -233.098902 
L 241.383471 -233.098902 
L 241.383471 -233.098902 
L 244.457851 -233.098902 
L 244.457851 -233.098902 
L 247.532231 -233.098902 
L 247.532231 -233.098902 
L 250.606612 -233.098902 
L 250.606612 -233.098902 
L 253.680992 -233.098902 
L 253.680992 -233.098902 
L 256.755372 -233.098902 
L 256.755372 -233.098902 
L 259.829752 -233.098902 
L 259.829752 -233.098902 
L 262.904132 -233.098902 
L 262.904132 -233.098902 
L 265.978512 -233.098902 
L 265.978512 -233.098902 
L 269.052893 -233.098902 
L 269.052893 -233.098902 
L 272.127273 -233.098902 
L 272.127273 -233.098902 
L 275.201653 -233.098902 
L 275.201653 -233.098902 
L 278.276033 -233.098902 
L 278.276033 -233.098902 
L 281.350413 -233.098902 
L 281.350413 -233.098902 
L 284.424793 -233.098902 
L 284.424793 -233.098902 
L 287.499174 -233.098902 
L 287.499174 -233.098902 
L 290.573554 -233.098902 
L 290.573554 -233.098902 
L 293.647934 -233.098902 
L 293.647934 -233.098902 
L 296.722314 -233.098902 
L 296.722314 -233.098902 
L 299.796694 -233.098902 
L 299.796694 -233.098902 
L 302.871074 -233.098902 
L 302.871074 -233.098902 
L 305.945455 -233.098902 
L 305.945455 -233.098902 
L 309.019835 -233.098902 
L 309.019835 -233.098902 
L 312.094215 -233.098902 
L 312.094215 -233.098902 
L 315.168595 -233.098902 
L 315.168595 -233.098902 
L 318.242975 -233.098902 
L 318.242975 -233.098902 
L 321.317355 -233.098902 
L 321.317355 -233.098902 
L 324.391736 -233.098902 
L 324.391736 -233.098902 
L 327.466116 -233.098902 
L 327.466116 -233.098902 
L 330.540496 -233.098902 
L 330.540496 -233.098902 
L 333.614876 -233.098902 
L 333.614876 -233.098902 
L 336.689256 -233.098902 
L 336.689256 -233.098902 
L 339.763636 -233.098902 
L 339.763636 -233.098902 
L 342.838017 -233.098902 
L 342.838017 -233.098902 
L 345.912397 -233.098902 
L 345.912397 -233.098902 
L 348.986777 -233.098902 
L 348.986777 -233.098902 
L 352.061157 -233.098902 
L 352.061157 -233.098902 
L 355.135537 -233.098902 
L 355.135537 -233.098902 
L 358.209917 -233.098902 
L 358.209917 -233.098902 
L 361.284298 -233.098902 
L 361.284298 -233.098902 
L 364.358678 -233.098902 
L 364.358678 -233.098902 
L 367.433058 -233.098902 
L 367.433058 -233.098902 
L 370.507438 -233.098902 
L 370.507438 -233.098902 
L 373.581818 -233.098902 
L 373.581818 -233.098902 
L 373.581818 -233.098902 
L 373.581818 -233.098902 
L 373.581818 -233.098902 
L 370.507438 -233.098902 
L 370.507438 -233.098902 
L 367.433058 -233.098902 
L 367.433058 -233.098902 
L 364.358678 -233.098902 
L 364.358678 -233.098902 
L 361.284298 -233.098902 
L 361.284298 -233.098902 
L 358.209917 -233.098902 
L 358.209917 -233.098902 
L 355.135537 -233.098902 
L 355.135537 -233.098902 
L 352.061157 -233.098902 
L 352.061157 -233.098902 
L 348.986777 -233.098902 
L 348.986777 -233.098902 
L 345.912397 -233.098902 
L 345.912397 -233.098902 
L 342.838017 -233.098902 
L 342.838017 -233.098902 
L 339.763636 -233.098902 
L 339.763636 -233.098902 
L 336.689256 -233.098902 
L 336.689256 -233.098902 
L 333.614876 -233.098902 
L 333.614876 -233.098902 
L 330.540496 -233.098902 
L 330.540496 -233.098902 
L 327.466116 -233.098902 
L 327.466116 -233.098902 
L 324.391736 -233.098902 
L 324.391736 -233.098902 
L 321.317355 -233.098902 
L 321.317355 -233.098902 
L 318.242975 -233.098902 
L 318.242975 -233.098902 
L 315.168595 -233.098902 
L 315.168595 -233.098902 
L 312.094215 -233.098902 
L 312.094215 -233.098902 
L 309.019835 -233.098902 
L 309.019835 -233.098902 
L 305.945455 -233.098902 
L 305.945455 -233.098902 
L 302.871074 -233.098902 
L 302.871074 -233.098902 
L 299.796694 -233.098902 
L 299.796694 -233.098902 
L 296.722314 -233.098902 
L 296.722314 -233.098902 
L 293.647934 -233.098902 
L 293.647934 -233.098902 
L 290.573554 -233.098902 
L 290.573554 -233.098902 
L 287.499174 -233.098902 
L 287.499174 -233.098902 
L 284.424793 -233.098902 
L 284.424793 -233.098902 
L 281.350413 -233.098902 
L 281.350413 -233.098902 
L 278.276033 -233.098902 
L 278.276033 -233.098902 
L 275.201653 -233.098902 
L 275.201653 -233.098902 
L 272.127273 -233.098902 
L 272.127273 -233.098902 
L 269.052893 -233.098902 
L 269.052893 -233.098902 
L 265.978512 -233.098902 
L 265.978512 -233.098902 
L 262.904132 -233.098902 
L 262.904132 -233.098902 
L 259.829752 -233.098902 
L 259.829752 -233.098902 
L 256.755372 -233.098902 
L 256.755372 -233.098902 
L 253.680992 -233.098902 
L 253.680992 -233.098902 
L 250.606612 -233.098902 
L 250.606612 -233.098902 
L 247.532231 -233.098902 
L 247.532231 -233.098902 
L 244.457851 -233.098902 
L 244.457851 -233.098902 
L 241.383471 -233.098902 
L 241.383471 -233.098902 
L 238.309091 -233.098902 
L 238.309091 -233.098902 
L 235.234711 -233.098902 
L 235.234711 -233.098902 
L 232.160331 -233.098902 
L 232.160331 -233.098902 
L 229.08595 -233.098902 
L 229.08595 -233.098902 
L 226.01157 -233.098902 
L 226.01157 -233.098902 
L 222.93719 -233.098902 
L 222.93719 -233.098902 
L 219.86281 -233.098902 
L 219.86281 -233.098902 
L 216.78843 -233.098902 
L 216.78843 -233.098902 
L 213.71405 -233.098902 
L 213.71405 -233.098902 
L 210.639669 -233.098902 
L 210.639669 -233.098902 
L 207.565289 -233.098902 
L 207.565289 -233.098902 
L 204.490909 -233.098902 
L 204.490909 -236.205783 
L 201.416529 -236.205783 
L 201.416529 -236.205783 
L 198.342149 -236.205783 
L 198.342149 -236.205783 
L 195.267769 -236.205783 
L 195.267769 -236.205783 
L 192.193388 -236.205783 
L 192.193388 -236.205783 
L 189.119008 -236.205783 
L 189.119008 -236.205783 
L 186.044628 -236.205783 
L 186.044628 -237.519383 
L 182.970248 -237.519383 
L 182.970248 -237.519383 
L 179.895868 -237.519383 
L 179.895868 -237.519383 
L 176.821488 -237.519383 
L 176.821488 -238.003138 
L 173.747107 -238.003138 
L 173.747107 -238.003138 
L 170.672727 -238.003138 
L 170.672727 -238.003138 
L 167.598347 -238.003138 
L 167.598347 -238.003138 
L 164.523967 -238.003138 
L 164.523967 -238.003138 
L 161.449587 -238.003138 
L 161.449587 -238.003138 
L 158.375207 -238.003138 
L 158.375207 -239.845614 
L 155.300826 -239.845614 
L 155.300826 -239.845614 
L 152.226446 -239.845614 
L 152.226446 -239.845614 
L 149.152066 -239.845614 
L 149.152066 -239.845614 
L 146.077686 -239.845614 
L 146.077686 -239.845614 
L 143.003306 -239.845614 
L 143.003306 -239.845614 
L 139.928926 -239.845614 
L 139.928926 -239.845614 
L 136.854545 -239.845614 
L 136.854545 -239.845614 
L 133.780165 -239.845614 
L 133.780165 -239.845614 
L 130.705785 -239.845614 
L 130.705785 -243.556364 
L 127.631405 -243.556364 
L 127.631405 -243.556364 
L 124.557025 -243.556364 
L 124.557025 -243.556364 
L 121.482645 -243.556364 
L 121.482645 -243.556364 
L 118.408264 -243.556364 
L 118.408264 -243.556364 
L 115.333884 -243.556364 
L 115.333884 -243.556364 
L 112.259504 -243.556364 
L 112.259504 -243.556364 
L 109.185124 -243.556364 
L 109.185124 -243.556364 
L 106.110744 -243.556364 
L 106.110744 -243.556364 
L 103.036364 -243.556364 
L 103.036364 -243.556364 
L 99.961983 -243.556364 
L 99.961983 -243.556364 
L 96.887603 -243.556364 
L 96.887603 -243.556364 
L 93.813223 -243.556364 
L 93.813223 -243.556364 
L 90.738843 -243.556364 
L 90.738843 -243.556364 
L 87.664463 -243.556364 
L 87.664463 -243.556364 
L 84.590083 -243.556364 
L 84.590083 -243.556364 
L 81.515702 -243.556364 
L 81.515702 -243.556364 
L 78.441322 -243.556364 
L 78.441322 -243.556364 
L 75.366942 -243.556364 
L 75.366942 -243.556364 
L 72.292562 -243.556364 
L 72.292562 -243.556364 
L 69.218182 -243.556364 
z
" id="m8a5b1909c9" style="stroke:#9400d3;stroke-opacity:0.5;"/>
    </defs>
    <g clip-path="url(#p8d3d297d3f)">
     <use style="fill:#9400d3;fill-opacity:0.5;stroke:#9400d3;stroke-opacity:0.5;" x="0" xlink:href="#m8a5b1909c9" y="288"/>
    </g>
   </g>
   <g id="PolyCollection_4">
    <defs>
     <path d="M 69.218182 -243.556364 
L 69.218182 -243.556364 
L 72.292562 -243.556364 
L 72.292562 -243.556364 
L 75.366942 -243.556364 
L 75.366942 -243.556364 
L 78.441322 -243.556364 
L 78.441322 -242.739223 
L 81.515702 -242.739223 
L 81.515702 -242.739223 
L 84.590083 -242.739223 
L 84.590083 -242.739223 
L 87.664463 -242.739223 
L 87.664463 -219.086771 
L 90.738843 -219.086771 
L 90.738843 -219.086771 
L 93.813223 -219.086771 
L 93.813223 -219.086771 
L 96.887603 -219.086771 
L 96.887603 -219.086771 
L 99.961983 -219.086771 
L 99.961983 -219.086771 
L 103.036364 -219.086771 
L 103.036364 -219.086771 
L 106.110744 -219.086771 
L 106.110744 -199.013549 
L 109.185124 -199.013549 
L 109.185124 -185.04607 
L 112.259504 -185.04607 
L 112.259504 -165.268633 
L 115.333884 -165.268633 
L 115.333884 -165.268633 
L 118.408264 -165.268633 
L 118.408264 -165.268633 
L 121.482645 -165.268633 
L 121.482645 -165.268633 
L 124.557025 -165.268633 
L 124.557025 -165.268633 
L 127.631405 -165.268633 
L 127.631405 -165.268633 
L 130.705785 -165.268633 
L 130.705785 -165.268633 
L 133.780165 -165.268633 
L 133.780165 -165.268633 
L 136.854545 -165.268633 
L 136.854545 -165.268633 
L 139.928926 -165.268633 
L 139.928926 -165.268633 
L 143.003306 -165.268633 
L 143.003306 -165.268633 
L 146.077686 -165.268633 
L 146.077686 -165.268633 
L 149.152066 -165.268633 
L 149.152066 -165.268633 
L 152.226446 -165.268633 
L 152.226446 -165.268633 
L 155.300826 -165.268633 
L 155.300826 -165.268633 
L 158.375207 -165.268633 
L 158.375207 -165.268633 
L 161.449587 -165.268633 
L 161.449587 -165.268633 
L 164.523967 -165.268633 
L 164.523967 -165.268633 
L 167.598347 -165.268633 
L 167.598347 -165.268633 
L 170.672727 -165.268633 
L 170.672727 -165.268633 
L 173.747107 -165.268633 
L 173.747107 -165.268633 
L 176.821488 -165.268633 
L 176.821488 -165.268633 
L 179.895868 -165.268633 
L 179.895868 -165.268633 
L 182.970248 -165.268633 
L 182.970248 -165.268633 
L 186.044628 -165.268633 
L 186.044628 -165.268633 
L 189.119008 -165.268633 
L 189.119008 -165.268633 
L 192.193388 -165.268633 
L 192.193388 -165.268633 
L 195.267769 -165.268633 
L 195.267769 -165.268633 
L 198.342149 -165.268633 
L 198.342149 -165.268633 
L 201.416529 -165.268633 
L 201.416529 -165.268633 
L 204.490909 -165.268633 
L 204.490909 -165.268633 
L 207.565289 -165.268633 
L 207.565289 -165.268633 
L 210.639669 -165.268633 
L 210.639669 -165.268633 
L 213.71405 -165.268633 
L 213.71405 -165.268633 
L 216.78843 -165.268633 
L 216.78843 -165.268633 
L 219.86281 -165.268633 
L 219.86281 -165.268633 
L 222.93719 -165.268633 
L 222.93719 -165.268633 
L 226.01157 -165.268633 
L 226.01157 -165.268633 
L 229.08595 -165.268633 
L 229.08595 -165.268633 
L 232.160331 -165.268633 
L 232.160331 -165.268633 
L 235.234711 -165.268633 
L 235.234711 -165.268633 
L 238.309091 -165.268633 
L 238.309091 -165.268633 
L 241.383471 -165.268633 
L 241.383471 -165.268633 
L 244.457851 -165.268633 
L 244.457851 -165.268633 
L 247.532231 -165.268633 
L 247.532231 -165.268633 
L 250.606612 -165.268633 
L 250.606612 -165.268633 
L 253.680992 -165.268633 
L 253.680992 -165.268633 
L 256.755372 -165.268633 
L 256.755372 -165.268633 
L 259.829752 -165.268633 
L 259.829752 -165.268633 
L 262.904132 -165.268633 
L 262.904132 -165.268633 
L 265.978512 -165.268633 
L 265.978512 -165.268633 
L 269.052893 -165.268633 
L 269.052893 -165.268633 
L 272.127273 -165.268633 
L 272.127273 -165.268633 
L 275.201653 -165.268633 
L 275.201653 -165.268633 
L 278.276033 -165.268633 
L 278.276033 -165.268633 
L 281.350413 -165.268633 
L 281.350413 -165.268633 
L 284.424793 -165.268633 
L 284.424793 -165.268633 
L 287.499174 -165.268633 
L 287.499174 -165.268633 
L 290.573554 -165.268633 
L 290.573554 -165.268633 
L 293.647934 -165.268633 
L 293.647934 -165.268633 
L 296.722314 -165.268633 
L 296.722314 -165.268633 
L 299.796694 -165.268633 
L 299.796694 -165.268633 
L 302.871074 -165.268633 
L 302.871074 -165.268633 
L 305.945455 -165.268633 
L 305.945455 -165.268633 
L 309.019835 -165.268633 
L 309.019835 -165.268633 
L 312.094215 -165.268633 
L 312.094215 -165.268633 
L 315.168595 -165.268633 
L 315.168595 -165.268633 
L 318.242975 -165.268633 
L 318.242975 -165.268633 
L 321.317355 -165.268633 
L 321.317355 -165.268633 
L 324.391736 -165.268633 
L 324.391736 -165.268633 
L 327.466116 -165.268633 
L 327.466116 -165.268633 
L 330.540496 -165.268633 
L 330.540496 -165.268633 
L 333.614876 -165.268633 
L 333.614876 -165.268633 
L 336.689256 -165.268633 
L 336.689256 -165.268633 
L 339.763636 -165.268633 
L 339.763636 -165.268633 
L 342.838017 -165.268633 
L 342.838017 -165.268633 
L 345.912397 -165.268633 
L 345.912397 -165.268633 
L 348.986777 -165.268633 
L 348.986777 -165.268633 
L 352.061157 -165.268633 
L 352.061157 -165.268633 
L 355.135537 -165.268633 
L 355.135537 -165.268633 
L 358.209917 -165.268633 
L 358.209917 -165.268633 
L 361.284298 -165.268633 
L 361.284298 -165.268633 
L 364.358678 -165.268633 
L 364.358678 -165.268633 
L 367.433058 -165.268633 
L 367.433058 -165.268633 
L 370.507438 -165.268633 
L 370.507438 -165.268633 
L 373.581818 -165.268633 
L 373.581818 -165.268633 
L 373.581818 -199.032169 
L 373.581818 -199.032169 
L 373.581818 -199.032169 
L 370.507438 -199.032169 
L 370.507438 -199.032169 
L 367.433058 -199.032169 
L 367.433058 -199.032169 
L 364.358678 -199.032169 
L 364.358678 -199.032169 
L 361.284298 -199.032169 
L 361.284298 -199.032169 
L 358.209917 -199.032169 
L 358.209917 -199.032169 
L 355.135537 -199.032169 
L 355.135537 -199.032169 
L 352.061157 -199.032169 
L 352.061157 -199.032169 
L 348.986777 -199.032169 
L 348.986777 -199.032169 
L 345.912397 -199.032169 
L 345.912397 -199.032169 
L 342.838017 -199.032169 
L 342.838017 -199.032169 
L 339.763636 -199.032169 
L 339.763636 -199.032169 
L 336.689256 -199.032169 
L 336.689256 -199.032169 
L 333.614876 -199.032169 
L 333.614876 -199.032169 
L 330.540496 -199.032169 
L 330.540496 -199.032169 
L 327.466116 -199.032169 
L 327.466116 -199.032169 
L 324.391736 -199.032169 
L 324.391736 -199.032169 
L 321.317355 -199.032169 
L 321.317355 -199.032169 
L 318.242975 -199.032169 
L 318.242975 -199.032169 
L 315.168595 -199.032169 
L 315.168595 -199.032169 
L 312.094215 -199.032169 
L 312.094215 -199.032169 
L 309.019835 -199.032169 
L 309.019835 -199.032169 
L 305.945455 -199.032169 
L 305.945455 -199.032169 
L 302.871074 -199.032169 
L 302.871074 -199.032169 
L 299.796694 -199.032169 
L 299.796694 -199.032169 
L 296.722314 -199.032169 
L 296.722314 -199.032169 
L 293.647934 -199.032169 
L 293.647934 -199.032169 
L 290.573554 -199.032169 
L 290.573554 -199.032169 
L 287.499174 -199.032169 
L 287.499174 -199.032169 
L 284.424793 -199.032169 
L 284.424793 -199.032169 
L 281.350413 -199.032169 
L 281.350413 -199.032169 
L 278.276033 -199.032169 
L 278.276033 -199.032169 
L 275.201653 -199.032169 
L 275.201653 -199.032169 
L 272.127273 -199.032169 
L 272.127273 -199.032169 
L 269.052893 -199.032169 
L 269.052893 -199.032169 
L 265.978512 -199.032169 
L 265.978512 -199.032169 
L 262.904132 -199.032169 
L 262.904132 -199.032169 
L 259.829752 -199.032169 
L 259.829752 -199.032169 
L 256.755372 -199.032169 
L 256.755372 -199.032169 
L 253.680992 -199.032169 
L 253.680992 -199.032169 
L 250.606612 -199.032169 
L 250.606612 -199.032169 
L 247.532231 -199.032169 
L 247.532231 -199.032169 
L 244.457851 -199.032169 
L 244.457851 -199.032169 
L 241.383471 -199.032169 
L 241.383471 -199.032169 
L 238.309091 -199.032169 
L 238.309091 -199.032169 
L 235.234711 -199.032169 
L 235.234711 -199.032169 
L 232.160331 -199.032169 
L 232.160331 -199.032169 
L 229.08595 -199.032169 
L 229.08595 -199.032169 
L 226.01157 -199.032169 
L 226.01157 -199.032169 
L 222.93719 -199.032169 
L 222.93719 -199.032169 
L 219.86281 -199.032169 
L 219.86281 -199.032169 
L 216.78843 -199.032169 
L 216.78843 -199.032169 
L 213.71405 -199.032169 
L 213.71405 -199.032169 
L 210.639669 -199.032169 
L 210.639669 -199.032169 
L 207.565289 -199.032169 
L 207.565289 -199.032169 
L 204.490909 -199.032169 
L 204.490909 -199.032169 
L 201.416529 -199.032169 
L 201.416529 -199.032169 
L 198.342149 -199.032169 
L 198.342149 -199.032169 
L 195.267769 -199.032169 
L 195.267769 -199.032169 
L 192.193388 -199.032169 
L 192.193388 -199.032169 
L 189.119008 -199.032169 
L 189.119008 -199.032169 
L 186.044628 -199.032169 
L 186.044628 -199.032169 
L 182.970248 -199.032169 
L 182.970248 -199.032169 
L 179.895868 -199.032169 
L 179.895868 -199.032169 
L 176.821488 -199.032169 
L 176.821488 -199.032169 
L 173.747107 -199.032169 
L 173.747107 -199.032169 
L 170.672727 -199.032169 
L 170.672727 -199.032169 
L 167.598347 -199.032169 
L 167.598347 -199.032169 
L 164.523967 -199.032169 
L 164.523967 -199.032169 
L 161.449587 -199.032169 
L 161.449587 -199.032169 
L 158.375207 -199.032169 
L 158.375207 -199.032169 
L 155.300826 -199.032169 
L 155.300826 -199.032169 
L 152.226446 -199.032169 
L 152.226446 -205.193738 
L 149.152066 -205.193738 
L 149.152066 -208.42568 
L 146.077686 -208.42568 
L 146.077686 -208.42568 
L 143.003306 -208.42568 
L 143.003306 -208.42568 
L 139.928926 -208.42568 
L 139.928926 -208.42568 
L 136.854545 -208.42568 
L 136.854545 -208.42568 
L 133.780165 -208.42568 
L 133.780165 -208.42568 
L 130.705785 -208.42568 
L 130.705785 -208.42568 
L 127.631405 -208.42568 
L 127.631405 -219.086771 
L 124.557025 -219.086771 
L 124.557025 -219.086771 
L 121.482645 -219.086771 
L 121.482645 -219.086771 
L 118.408264 -219.086771 
L 118.408264 -219.086771 
L 115.333884 -219.086771 
L 115.333884 -243.556364 
L 112.259504 -243.556364 
L 112.259504 -243.556364 
L 109.185124 -243.556364 
L 109.185124 -243.556364 
L 106.110744 -243.556364 
L 106.110744 -243.556364 
L 103.036364 -243.556364 
L 103.036364 -243.556364 
L 99.961983 -243.556364 
L 99.961983 -243.556364 
L 96.887603 -243.556364 
L 96.887603 -243.556364 
L 93.813223 -243.556364 
L 93.813223 -243.556364 
L 90.738843 -243.556364 
L 90.738843 -243.556364 
L 87.664463 -243.556364 
L 87.664463 -243.556364 
L 84.590083 -243.556364 
L 84.590083 -243.556364 
L 81.515702 -243.556364 
L 81.515702 -243.556364 
L 78.441322 -243.556364 
L 78.441322 -243.556364 
L 75.366942 -243.556364 
L 75.366942 -243.556364 
L 72.292562 -243.556364 
L 72.292562 -243.556364 
L 69.218182 -243.556364 
z
" id="m6353067865" style="stroke:#8b4513;stroke-opacity:0.5;"/>
    </defs>
    <g clip-path="url(#p8d3d297d3f)">
     <use style="fill:#8b4513;fill-opacity:0.5;stroke:#8b4513;stroke-opacity:0.5;" x="0" xlink:href="#m6353067865" y="288"/>
    </g>
   </g>
   <g id="matplotlib.axis_1">
    <g id="xtick_1">
     <g id="line2d_1">
      <defs>
       <path d="M 0 0 
L 0 3.5 
" id="m974db0a0ec" style="stroke:#000000;stroke-width:0.8;"/>
      </defs>
      <g>
       <use style="stroke:#000000;stroke-width:0.8;" x="66.143802" xlink:href="#m974db0a0ec" y="252"/>
      </g>
     </g>
     <g id="text_1">
      <!-- 0 -->
      <g transform="translate(62.962552 266.598437)scale(0.1 -0.1)">
       <defs>
        <path d="M 31.78125 66.40625 
Q 24.171875 66.40625 20.328125 58.90625 
Q 16.5 51.421875 16.5 36.375 
Q 16.5 21.390625 20.328125 13.890625 
Q 24.171875 6.390625 31.78125 6.390625 
Q 39.453125 6.390625 43.28125 13.890625 
Q 47.125 21.390625 47.125 36.375 
Q 47.125 51.421875 43.28125 58.90625 
Q 39.453125 66.40625 31.78125 66.40625 
z
M 31.78125 74.21875 
Q 44.046875 74.21875 50.515625 64.515625 
Q 56.984375 54.828125 56.984375 36.375 
Q 56.984375 17.96875 50.515625 8.265625 
Q 44.046875 -1.421875 31.78125 -1.421875 
Q 19.53125 -1.421875 13.0625 8.265625 
Q 6.59375 17.96875 6.59375 36.375 
Q 6.59375 54.828125 13.0625 64.515625 
Q 19.53125 74.21875 31.78125 74.21875 
z
" id="DejaVuSans-48"/>
       </defs>
       <use xlink:href="#DejaVuSans-48"/>
      </g>
     </g>
    </g>
    <g id="xtick_2">
     <g id="line2d_2">
      <g>
       <use style="stroke:#000000;stroke-width:0.8;" x="127.631405" xlink:href="#m974db0a0ec" y="252"/>
      </g>
     </g>
     <g id="text_2">
      <!-- 20 -->
      <g transform="translate(121.268905 266.598437)scale(0.1 -0.1)">
       <defs>
        <path d="M 19.1875 8.296875 
L 53.609375 8.296875 
L 53.609375 0 
L 7.328125 0 
L 7.328125 8.296875 
Q 12.9375 14.109375 22.625 23.890625 
Q 32.328125 33.6875 34.8125 36.53125 
Q 39.546875 41.84375 41.421875 45.53125 
Q 43.3125 49.21875 43.3125 52.78125 
Q 43.3125 58.59375 39.234375 62.25 
Q 35.15625 65.921875 28.609375 65.921875 
Q 23.96875 65.921875 18.8125 64.3125 
Q 13.671875 62.703125 7.8125 59.421875 
L 7.8125 69.390625 
Q 13.765625 71.78125 18.9375 73 
Q 24.125 74.21875 28.421875 74.21875 
Q 39.75 74.21875 46.484375 68.546875 
Q 53.21875 62.890625 53.21875 53.421875 
Q 53.21875 48.921875 51.53125 44.890625 
Q 49.859375 40.875 45.40625 35.40625 
Q 44.1875 33.984375 37.640625 27.21875 
Q 31.109375 20.453125 19.1875 8.296875 
z
" id="DejaVuSans-50"/>
       </defs>
       <use xlink:href="#DejaVuSans-50"/>
       <use x="63.623047" xlink:href="#DejaVuSans-48"/>
      </g>
     </g>
    </g>
    <g id="xtick_3">
     <g id="line2d_3">
      <g>
       <use style="stroke:#000000;stroke-width:0.8;" x="189.119008" xlink:href="#m974db0a0ec" y="252"/>
      </g>
     </g>
     <g id="text_3">
      <!-- 40 -->
      <g transform="translate(182.756508 266.598437)scale(0.1 -0.1)">
       <defs>
        <path d="M 37.796875 64.3125 
L 12.890625 25.390625 
L 37.796875 25.390625 
z
M 35.203125 72.90625 
L 47.609375 72.90625 
L 47.609375 25.390625 
L 58.015625 25.390625 
L 58.015625 17.1875 
L 47.609375 17.1875 
L 47.609375 0 
L 37.796875 0 
L 37.796875 17.1875 
L 4.890625 17.1875 
L 4.890625 26.703125 
z
" id="DejaVuSans-52"/>
       </defs>
       <use xlink:href="#DejaVuSans-52"/>
       <use x="63.623047" xlink:href="#DejaVuSans-48"/>
      </g>
     </g>
    </g>
    <g id="xtick_4">
     <g id="line2d_4">
      <g>
       <use style="stroke:#000000;stroke-width:0.8;" x="250.606612" xlink:href="#m974db0a0ec" y="252"/>
      </g>
     </g>
     <g id="text_4">
      <!-- 60 -->
      <g transform="translate(244.244112 266.598437)scale(0.1 -0.1)">
       <defs>
        <path d="M 33.015625 40.375 
Q 26.375 40.375 22.484375 35.828125 
Q 18.609375 31.296875 18.609375 23.390625 
Q 18.609375 15.53125 22.484375 10.953125 
Q 26.375 6.390625 33.015625 6.390625 
Q 39.65625 6.390625 43.53125 10.953125 
Q 47.40625 15.53125 47.40625 23.390625 
Q 47.40625 31.296875 43.53125 35.828125 
Q 39.65625 40.375 33.015625 40.375 
z
M 52.59375 71.296875 
L 52.59375 62.3125 
Q 48.875 64.0625 45.09375 64.984375 
Q 41.3125 65.921875 37.59375 65.921875 
Q 27.828125 65.921875 22.671875 59.328125 
Q 17.53125 52.734375 16.796875 39.40625 
Q 19.671875 43.65625 24.015625 45.921875 
Q 28.375 48.1875 33.59375 48.1875 
Q 44.578125 48.1875 50.953125 41.515625 
Q 57.328125 34.859375 57.328125 23.390625 
Q 57.328125 12.15625 50.6875 5.359375 
Q 44.046875 -1.421875 33.015625 -1.421875 
Q 20.359375 -1.421875 13.671875 8.265625 
Q 6.984375 17.96875 6.984375 36.375 
Q 6.984375 53.65625 15.1875 63.9375 
Q 23.390625 74.21875 37.203125 74.21875 
Q 40.921875 74.21875 44.703125 73.484375 
Q 48.484375 72.75 52.59375 71.296875 
z
" id="DejaVuSans-54"/>
       </defs>
       <use xlink:href="#DejaVuSans-54"/>
       <use x="63.623047" xlink:href="#DejaVuSans-48"/>
      </g>
     </g>
    </g>
    <g id="xtick_5">
     <g id="line2d_5">
      <g>
       <use style="stroke:#000000;stroke-width:0.8;" x="312.094215" xlink:href="#m974db0a0ec" y="252"/>
      </g>
     </g>
     <g id="text_5">
      <!-- 80 -->
      <g transform="translate(305.731715 266.598437)scale(0.1 -0.1)">
       <defs>
        <path d="M 31.78125 34.625 
Q 24.75 34.625 20.71875 30.859375 
Q 16.703125 27.09375 16.703125 20.515625 
Q 16.703125 13.921875 20.71875 10.15625 
Q 24.75 6.390625 31.78125 6.390625 
Q 38.8125 6.390625 42.859375 10.171875 
Q 46.921875 13.96875 46.921875 20.515625 
Q 46.921875 27.09375 42.890625 30.859375 
Q 38.875 34.625 31.78125 34.625 
z
M 21.921875 38.8125 
Q 15.578125 40.375 12.03125 44.71875 
Q 8.5 49.078125 8.5 55.328125 
Q 8.5 64.0625 14.71875 69.140625 
Q 20.953125 74.21875 31.78125 74.21875 
Q 42.671875 74.21875 48.875 69.140625 
Q 55.078125 64.0625 55.078125 55.328125 
Q 55.078125 49.078125 51.53125 44.71875 
Q 48 40.375 41.703125 38.8125 
Q 48.828125 37.15625 52.796875 32.3125 
Q 56.78125 27.484375 56.78125 20.515625 
Q 56.78125 9.90625 50.3125 4.234375 
Q 43.84375 -1.421875 31.78125 -1.421875 
Q 19.734375 -1.421875 13.25 4.234375 
Q 6.78125 9.90625 6.78125 20.515625 
Q 6.78125 27.484375 10.78125 32.3125 
Q 14.796875 37.15625 21.921875 38.8125 
z
M 18.3125 54.390625 
Q 18.3125 48.734375 21.84375 45.5625 
Q 25.390625 42.390625 31.78125 42.390625 
Q 38.140625 42.390625 41.71875 45.5625 
Q 45.3125 48.734375 45.3125 54.390625 
Q 45.3125 60.0625 41.71875 63.234375 
Q 38.140625 66.40625 31.78125 66.40625 
Q 25.390625 66.40625 21.84375 63.234375 
Q 18.3125 60.0625 18.3125 54.390625 
z
" id="DejaVuSans-56"/>
       </defs>
       <use xlink:href="#DejaVuSans-56"/>
       <use x="63.623047" xlink:href="#DejaVuSans-48"/>
      </g>
     </g>
    </g>
    <g id="xtick_6">
     <g id="line2d_6">
      <g>
       <use style="stroke:#000000;stroke-width:0.8;" x="373.581818" xlink:href="#m974db0a0ec" y="252"/>
      </g>
     </g>
     <g id="text_6">
      <!-- 100 -->
      <g transform="translate(364.038068 266.598437)scale(0.1 -0.1)">
       <defs>
        <path d="M 12.40625 8.296875 
L 28.515625 8.296875 
L 28.515625 63.921875 
L 10.984375 60.40625 
L 10.984375 69.390625 
L 28.421875 72.90625 
L 38.28125 72.90625 
L 38.28125 8.296875 
L 54.390625 8.296875 
L 54.390625 0 
L 12.40625 0 
z
" id="DejaVuSans-49"/>
       </defs>
       <use xlink:href="#DejaVuSans-49"/>
       <use x="63.623047" xlink:href="#DejaVuSans-48"/>
       <use x="127.246094" xlink:href="#DejaVuSans-48"/>
      </g>
     </g>
    </g>
    <g id="text_7">
     <!-- Number of function evaluations -->
     <g transform="translate(142.399219 280.276563)scale(0.1 -0.1)">
      <defs>
       <path d="M 9.8125 72.90625 
L 23.09375 72.90625 
L 55.421875 11.921875 
L 55.421875 72.90625 
L 64.984375 72.90625 
L 64.984375 0 
L 51.703125 0 
L 19.390625 60.984375 
L 19.390625 0 
L 9.8125 0 
z
" id="DejaVuSans-78"/>
       <path d="M 8.5 21.578125 
L 8.5 54.6875 
L 17.484375 54.6875 
L 17.484375 21.921875 
Q 17.484375 14.15625 20.5 10.265625 
Q 23.53125 6.390625 29.59375 6.390625 
Q 36.859375 6.390625 41.078125 11.03125 
Q 45.3125 15.671875 45.3125 23.6875 
L 45.3125 54.6875 
L 54.296875 54.6875 
L 54.296875 0 
L 45.3125 0 
L 45.3125 8.40625 
Q 42.046875 3.421875 37.71875 1 
Q 33.40625 -1.421875 27.6875 -1.421875 
Q 18.265625 -1.421875 13.375 4.4375 
Q 8.5 10.296875 8.5 21.578125 
z
M 31.109375 56 
z
" id="DejaVuSans-117"/>
       <path d="M 52 44.1875 
Q 55.375 50.25 60.0625 53.125 
Q 64.75 56 71.09375 56 
Q 79.640625 56 84.28125 50.015625 
Q 88.921875 44.046875 88.921875 33.015625 
L 88.921875 0 
L 79.890625 0 
L 79.890625 32.71875 
Q 79.890625 40.578125 77.09375 44.375 
Q 74.3125 48.1875 68.609375 48.1875 
Q 61.625 48.1875 57.5625 43.546875 
Q 53.515625 38.921875 53.515625 30.90625 
L 53.515625 0 
L 44.484375 0 
L 44.484375 32.71875 
Q 44.484375 40.625 41.703125 44.40625 
Q 38.921875 48.1875 33.109375 48.1875 
Q 26.21875 48.1875 22.15625 43.53125 
Q 18.109375 38.875 18.109375 30.90625 
L 18.109375 0 
L 9.078125 0 
L 9.078125 54.6875 
L 18.109375 54.6875 
L 18.109375 46.1875 
Q 21.1875 51.21875 25.484375 53.609375 
Q 29.78125 56 35.6875 56 
Q 41.65625 56 45.828125 52.96875 
Q 50 49.953125 52 44.1875 
z
" id="DejaVuSans-109"/>
       <path d="M 48.6875 27.296875 
Q 48.6875 37.203125 44.609375 42.84375 
Q 40.53125 48.484375 33.40625 48.484375 
Q 26.265625 48.484375 22.1875 42.84375 
Q 18.109375 37.203125 18.109375 27.296875 
Q 18.109375 17.390625 22.1875 11.75 
Q 26.265625 6.109375 33.40625 6.109375 
Q 40.53125 6.109375 44.609375 11.75 
Q 48.6875 17.390625 48.6875 27.296875 
z
M 18.109375 46.390625 
Q 20.953125 51.265625 25.265625 53.625 
Q 29.59375 56 35.59375 56 
Q 45.5625 56 51.78125 48.09375 
Q 58.015625 40.1875 58.015625 27.296875 
Q 58.015625 14.40625 51.78125 6.484375 
Q 45.5625 -1.421875 35.59375 -1.421875 
Q 29.59375 -1.421875 25.265625 0.953125 
Q 20.953125 3.328125 18.109375 8.203125 
L 18.109375 0 
L 9.078125 0 
L 9.078125 75.984375 
L 18.109375 75.984375 
z
" id="DejaVuSans-98"/>
       <path d="M 56.203125 29.59375 
L 56.203125 25.203125 
L 14.890625 25.203125 
Q 15.484375 15.921875 20.484375 11.0625 
Q 25.484375 6.203125 34.421875 6.203125 
Q 39.59375 6.203125 44.453125 7.46875 
Q 49.3125 8.734375 54.109375 11.28125 
L 54.109375 2.78125 
Q 49.265625 0.734375 44.1875 -0.34375 
Q 39.109375 -1.421875 33.890625 -1.421875 
Q 20.796875 -1.421875 13.15625 6.1875 
Q 5.515625 13.8125 5.515625 26.8125 
Q 5.515625 40.234375 12.765625 48.109375 
Q 20.015625 56 32.328125 56 
Q 43.359375 56 49.78125 48.890625 
Q 56.203125 41.796875 56.203125 29.59375 
z
M 47.21875 32.234375 
Q 47.125 39.59375 43.09375 43.984375 
Q 39.0625 48.390625 32.421875 48.390625 
Q 24.90625 48.390625 20.390625 44.140625 
Q 15.875 39.890625 15.1875 32.171875 
z
" id="DejaVuSans-101"/>
       <path d="M 41.109375 46.296875 
Q 39.59375 47.171875 37.8125 47.578125 
Q 36.03125 48 33.890625 48 
Q 26.265625 48 22.1875 43.046875 
Q 18.109375 38.09375 18.109375 28.8125 
L 18.109375 0 
L 9.078125 0 
L 9.078125 54.6875 
L 18.109375 54.6875 
L 18.109375 46.1875 
Q 20.953125 51.171875 25.484375 53.578125 
Q 30.03125 56 36.53125 56 
Q 37.453125 56 38.578125 55.875 
Q 39.703125 55.765625 41.0625 55.515625 
z
" id="DejaVuSans-114"/>
       <path id="DejaVuSans-32"/>
       <path d="M 30.609375 48.390625 
Q 23.390625 48.390625 19.1875 42.75 
Q 14.984375 37.109375 14.984375 27.296875 
Q 14.984375 17.484375 19.15625 11.84375 
Q 23.34375 6.203125 30.609375 6.203125 
Q 37.796875 6.203125 41.984375 11.859375 
Q 46.1875 17.53125 46.1875 27.296875 
Q 46.1875 37.015625 41.984375 42.703125 
Q 37.796875 48.390625 30.609375 48.390625 
z
M 30.609375 56 
Q 42.328125 56 49.015625 48.375 
Q 55.71875 40.765625 55.71875 27.296875 
Q 55.71875 13.875 49.015625 6.21875 
Q 42.328125 -1.421875 30.609375 -1.421875 
Q 18.84375 -1.421875 12.171875 6.21875 
Q 5.515625 13.875 5.515625 27.296875 
Q 5.515625 40.765625 12.171875 48.375 
Q 18.84375 56 30.609375 56 
z
" id="DejaVuSans-111"/>
       <path d="M 37.109375 75.984375 
L 37.109375 68.5 
L 28.515625 68.5 
Q 23.6875 68.5 21.796875 66.546875 
Q 19.921875 64.59375 19.921875 59.515625 
L 19.921875 54.6875 
L 34.71875 54.6875 
L 34.71875 47.703125 
L 19.921875 47.703125 
L 19.921875 0 
L 10.890625 0 
L 10.890625 47.703125 
L 2.296875 47.703125 
L 2.296875 54.6875 
L 10.890625 54.6875 
L 10.890625 58.5 
Q 10.890625 67.625 15.140625 71.796875 
Q 19.390625 75.984375 28.609375 75.984375 
z
" id="DejaVuSans-102"/>
       <path d="M 54.890625 33.015625 
L 54.890625 0 
L 45.90625 0 
L 45.90625 32.71875 
Q 45.90625 40.484375 42.875 44.328125 
Q 39.84375 48.1875 33.796875 48.1875 
Q 26.515625 48.1875 22.3125 43.546875 
Q 18.109375 38.921875 18.109375 30.90625 
L 18.109375 0 
L 9.078125 0 
L 9.078125 54.6875 
L 18.109375 54.6875 
L 18.109375 46.1875 
Q 21.34375 51.125 25.703125 53.5625 
Q 30.078125 56 35.796875 56 
Q 45.21875 56 50.046875 50.171875 
Q 54.890625 44.34375 54.890625 33.015625 
z
" id="DejaVuSans-110"/>
       <path d="M 48.78125 52.59375 
L 48.78125 44.1875 
Q 44.96875 46.296875 41.140625 47.34375 
Q 37.3125 48.390625 33.40625 48.390625 
Q 24.65625 48.390625 19.8125 42.84375 
Q 14.984375 37.3125 14.984375 27.296875 
Q 14.984375 17.28125 19.8125 11.734375 
Q 24.65625 6.203125 33.40625 6.203125 
Q 37.3125 6.203125 41.140625 7.25 
Q 44.96875 8.296875 48.78125 10.40625 
L 48.78125 2.09375 
Q 45.015625 0.34375 40.984375 -0.53125 
Q 36.96875 -1.421875 32.421875 -1.421875 
Q 20.0625 -1.421875 12.78125 6.34375 
Q 5.515625 14.109375 5.515625 27.296875 
Q 5.515625 40.671875 12.859375 48.328125 
Q 20.21875 56 33.015625 56 
Q 37.15625 56 41.109375 55.140625 
Q 45.0625 54.296875 48.78125 52.59375 
z
" id="DejaVuSans-99"/>
       <path d="M 18.3125 70.21875 
L 18.3125 54.6875 
L 36.8125 54.6875 
L 36.8125 47.703125 
L 18.3125 47.703125 
L 18.3125 18.015625 
Q 18.3125 11.328125 20.140625 9.421875 
Q 21.96875 7.515625 27.59375 7.515625 
L 36.8125 7.515625 
L 36.8125 0 
L 27.59375 0 
Q 17.1875 0 13.234375 3.875 
Q 9.28125 7.765625 9.28125 18.015625 
L 9.28125 47.703125 
L 2.6875 47.703125 
L 2.6875 54.6875 
L 9.28125 54.6875 
L 9.28125 70.21875 
z
" id="DejaVuSans-116"/>
       <path d="M 9.421875 54.6875 
L 18.40625 54.6875 
L 18.40625 0 
L 9.421875 0 
z
M 9.421875 75.984375 
L 18.40625 75.984375 
L 18.40625 64.59375 
L 9.421875 64.59375 
z
" id="DejaVuSans-105"/>
       <path d="M 2.984375 54.6875 
L 12.5 54.6875 
L 29.59375 8.796875 
L 46.6875 54.6875 
L 56.203125 54.6875 
L 35.6875 0 
L 23.484375 0 
z
" id="DejaVuSans-118"/>
       <path d="M 34.28125 27.484375 
Q 23.390625 27.484375 19.1875 25 
Q 14.984375 22.515625 14.984375 16.5 
Q 14.984375 11.71875 18.140625 8.90625 
Q 21.296875 6.109375 26.703125 6.109375 
Q 34.1875 6.109375 38.703125 11.40625 
Q 43.21875 16.703125 43.21875 25.484375 
L 43.21875 27.484375 
z
M 52.203125 31.203125 
L 52.203125 0 
L 43.21875 0 
L 43.21875 8.296875 
Q 40.140625 3.328125 35.546875 0.953125 
Q 30.953125 -1.421875 24.3125 -1.421875 
Q 15.921875 -1.421875 10.953125 3.296875 
Q 6 8.015625 6 15.921875 
Q 6 25.140625 12.171875 29.828125 
Q 18.359375 34.515625 30.609375 34.515625 
L 43.21875 34.515625 
L 43.21875 35.40625 
Q 43.21875 41.609375 39.140625 45 
Q 35.0625 48.390625 27.6875 48.390625 
Q 23 48.390625 18.546875 47.265625 
Q 14.109375 46.140625 10.015625 43.890625 
L 10.015625 52.203125 
Q 14.9375 54.109375 19.578125 55.046875 
Q 24.21875 56 28.609375 56 
Q 40.484375 56 46.34375 49.84375 
Q 52.203125 43.703125 52.203125 31.203125 
z
" id="DejaVuSans-97"/>
       <path d="M 9.421875 75.984375 
L 18.40625 75.984375 
L 18.40625 0 
L 9.421875 0 
z
" id="DejaVuSans-108"/>
       <path d="M 44.28125 53.078125 
L 44.28125 44.578125 
Q 40.484375 46.53125 36.375 47.5 
Q 32.28125 48.484375 27.875 48.484375 
Q 21.1875 48.484375 17.84375 46.4375 
Q 14.5 44.390625 14.5 40.28125 
Q 14.5 37.15625 16.890625 35.375 
Q 19.28125 33.59375 26.515625 31.984375 
L 29.59375 31.296875 
Q 39.15625 29.25 43.1875 25.515625 
Q 47.21875 21.78125 47.21875 15.09375 
Q 47.21875 7.46875 41.1875 3.015625 
Q 35.15625 -1.421875 24.609375 -1.421875 
Q 20.21875 -1.421875 15.453125 -0.5625 
Q 10.6875 0.296875 5.421875 2 
L 5.421875 11.28125 
Q 10.40625 8.6875 15.234375 7.390625 
Q 20.0625 6.109375 24.8125 6.109375 
Q 31.15625 6.109375 34.5625 8.28125 
Q 37.984375 10.453125 37.984375 14.40625 
Q 37.984375 18.0625 35.515625 20.015625 
Q 33.0625 21.96875 24.703125 23.78125 
L 21.578125 24.515625 
Q 13.234375 26.265625 9.515625 29.90625 
Q 5.8125 33.546875 5.8125 39.890625 
Q 5.8125 47.609375 11.28125 51.796875 
Q 16.75 56 26.8125 56 
Q 31.78125 56 36.171875 55.265625 
Q 40.578125 54.546875 44.28125 53.078125 
z
" id="DejaVuSans-115"/>
      </defs>
      <use xlink:href="#DejaVuSans-78"/>
      <use x="74.804688" xlink:href="#DejaVuSans-117"/>
      <use x="138.183594" xlink:href="#DejaVuSans-109"/>
      <use x="235.595703" xlink:href="#DejaVuSans-98"/>
      <use x="299.072266" xlink:href="#DejaVuSans-101"/>
      <use x="360.595703" xlink:href="#DejaVuSans-114"/>
      <use x="401.708984" xlink:href="#DejaVuSans-32"/>
      <use x="433.496094" xlink:href="#DejaVuSans-111"/>
      <use x="494.677734" xlink:href="#DejaVuSans-102"/>
      <use x="529.882812" xlink:href="#DejaVuSans-32"/>
      <use x="561.669922" xlink:href="#DejaVuSans-102"/>
      <use x="596.875" xlink:href="#DejaVuSans-117"/>
      <use x="660.253906" xlink:href="#DejaVuSans-110"/>
      <use x="723.632812" xlink:href="#DejaVuSans-99"/>
      <use x="778.613281" xlink:href="#DejaVuSans-116"/>
      <use x="817.822266" xlink:href="#DejaVuSans-105"/>
      <use x="845.605469" xlink:href="#DejaVuSans-111"/>
      <use x="906.787109" xlink:href="#DejaVuSans-110"/>
      <use x="970.166016" xlink:href="#DejaVuSans-32"/>
      <use x="1001.953125" xlink:href="#DejaVuSans-101"/>
      <use x="1063.476562" xlink:href="#DejaVuSans-118"/>
      <use x="1122.65625" xlink:href="#DejaVuSans-97"/>
      <use x="1183.935547" xlink:href="#DejaVuSans-108"/>
      <use x="1211.71875" xlink:href="#DejaVuSans-117"/>
      <use x="1275.097656" xlink:href="#DejaVuSans-97"/>
      <use x="1336.376953" xlink:href="#DejaVuSans-116"/>
      <use x="1375.585938" xlink:href="#DejaVuSans-105"/>
      <use x="1403.369141" xlink:href="#DejaVuSans-111"/>
      <use x="1464.550781" xlink:href="#DejaVuSans-110"/>
      <use x="1527.929688" xlink:href="#DejaVuSans-115"/>
     </g>
    </g>
   </g>
   <g id="matplotlib.axis_2">
    <g id="ytick_1">
     <g id="line2d_7">
      <defs>
       <path d="M 0 0 
L -3.5 0 
" id="mad1d407b60" style="stroke:#000000;stroke-width:0.8;"/>
      </defs>
      <g>
       <use style="stroke:#000000;stroke-width:0.8;" x="54" xlink:href="#mad1d407b60" y="208.531179"/>
      </g>
     </g>
     <g id="text_8">
      <!-- $\mathdefault{10^{-10}}$ -->
      <g transform="translate(19.1 212.330398)scale(0.1 -0.1)">
       <defs>
        <path d="M 10.59375 35.5 
L 73.1875 35.5 
L 73.1875 27.203125 
L 10.59375 27.203125 
z
" id="DejaVuSans-8722"/>
       </defs>
       <use transform="translate(0 0.765625)" xlink:href="#DejaVuSans-49"/>
       <use transform="translate(63.623047 0.765625)" xlink:href="#DejaVuSans-48"/>
       <use transform="translate(128.203125 39.046875)scale(0.7)" xlink:href="#DejaVuSans-8722"/>
       <use transform="translate(186.855469 39.046875)scale(0.7)" xlink:href="#DejaVuSans-49"/>
       <use transform="translate(231.391602 39.046875)scale(0.7)" xlink:href="#DejaVuSans-48"/>
      </g>
     </g>
    </g>
    <g id="ytick_2">
     <g id="line2d_8">
      <g>
       <use style="stroke:#000000;stroke-width:0.8;" x="54" xlink:href="#mad1d407b60" y="163.851492"/>
      </g>
     </g>
     <g id="text_9">
      <!-- $\mathdefault{10^{-8}}$ -->
      <g transform="translate(23.5 167.650711)scale(0.1 -0.1)">
       <use transform="translate(0 0.765625)" xlink:href="#DejaVuSans-49"/>
       <use transform="translate(63.623047 0.765625)" xlink:href="#DejaVuSans-48"/>
       <use transform="translate(128.203125 39.046875)scale(0.7)" xlink:href="#DejaVuSans-8722"/>
       <use transform="translate(186.855469 39.046875)scale(0.7)" xlink:href="#DejaVuSans-56"/>
      </g>
     </g>
    </g>
    <g id="ytick_3">
     <g id="line2d_9">
      <g>
       <use style="stroke:#000000;stroke-width:0.8;" x="54" xlink:href="#mad1d407b60" y="119.171804"/>
      </g>
     </g>
     <g id="text_10">
      <!-- $\mathdefault{10^{-6}}$ -->
      <g transform="translate(23.5 122.971023)scale(0.1 -0.1)">
       <use transform="translate(0 0.765625)" xlink:href="#DejaVuSans-49"/>
       <use transform="translate(63.623047 0.765625)" xlink:href="#DejaVuSans-48"/>
       <use transform="translate(128.203125 39.046875)scale(0.7)" xlink:href="#DejaVuSans-8722"/>
       <use transform="translate(186.855469 39.046875)scale(0.7)" xlink:href="#DejaVuSans-54"/>
      </g>
     </g>
    </g>
    <g id="ytick_4">
     <g id="line2d_10">
      <g>
       <use style="stroke:#000000;stroke-width:0.8;" x="54" xlink:href="#mad1d407b60" y="74.492117"/>
      </g>
     </g>
     <g id="text_11">
      <!-- $\mathdefault{10^{-4}}$ -->
      <g transform="translate(23.5 78.291336)scale(0.1 -0.1)">
       <use transform="translate(0 0.684375)" xlink:href="#DejaVuSans-49"/>
       <use transform="translate(63.623047 0.684375)" xlink:href="#DejaVuSans-48"/>
       <use transform="translate(128.203125 38.965625)scale(0.7)" xlink:href="#DejaVuSans-8722"/>
       <use transform="translate(186.855469 38.965625)scale(0.7)" xlink:href="#DejaVuSans-52"/>
      </g>
     </g>
    </g>
    <g id="text_12">
     <!-- Convergence -->
     <g transform="translate(13.020312 176.24875)rotate(-90)scale(0.1 -0.1)">
      <defs>
       <path d="M 64.40625 67.28125 
L 64.40625 56.890625 
Q 59.421875 61.53125 53.78125 63.8125 
Q 48.140625 66.109375 41.796875 66.109375 
Q 29.296875 66.109375 22.65625 58.46875 
Q 16.015625 50.828125 16.015625 36.375 
Q 16.015625 21.96875 22.65625 14.328125 
Q 29.296875 6.6875 41.796875 6.6875 
Q 48.140625 6.6875 53.78125 8.984375 
Q 59.421875 11.28125 64.40625 15.921875 
L 64.40625 5.609375 
Q 59.234375 2.09375 53.4375 0.328125 
Q 47.65625 -1.421875 41.21875 -1.421875 
Q 24.65625 -1.421875 15.125 8.703125 
Q 5.609375 18.84375 5.609375 36.375 
Q 5.609375 53.953125 15.125 64.078125 
Q 24.65625 74.21875 41.21875 74.21875 
Q 47.75 74.21875 53.53125 72.484375 
Q 59.328125 70.75 64.40625 67.28125 
z
" id="DejaVuSans-67"/>
       <path d="M 45.40625 27.984375 
Q 45.40625 37.75 41.375 43.109375 
Q 37.359375 48.484375 30.078125 48.484375 
Q 22.859375 48.484375 18.828125 43.109375 
Q 14.796875 37.75 14.796875 27.984375 
Q 14.796875 18.265625 18.828125 12.890625 
Q 22.859375 7.515625 30.078125 7.515625 
Q 37.359375 7.515625 41.375 12.890625 
Q 45.40625 18.265625 45.40625 27.984375 
z
M 54.390625 6.78125 
Q 54.390625 -7.171875 48.1875 -13.984375 
Q 42 -20.796875 29.203125 -20.796875 
Q 24.46875 -20.796875 20.265625 -20.09375 
Q 16.0625 -19.390625 12.109375 -17.921875 
L 12.109375 -9.1875 
Q 16.0625 -11.328125 19.921875 -12.34375 
Q 23.78125 -13.375 27.78125 -13.375 
Q 36.625 -13.375 41.015625 -8.765625 
Q 45.40625 -4.15625 45.40625 5.171875 
L 45.40625 9.625 
Q 42.625 4.78125 38.28125 2.390625 
Q 33.9375 0 27.875 0 
Q 17.828125 0 11.671875 7.65625 
Q 5.515625 15.328125 5.515625 27.984375 
Q 5.515625 40.671875 11.671875 48.328125 
Q 17.828125 56 27.875 56 
Q 33.9375 56 38.28125 53.609375 
Q 42.625 51.21875 45.40625 46.390625 
L 45.40625 54.6875 
L 54.390625 54.6875 
z
" id="DejaVuSans-103"/>
      </defs>
      <use xlink:href="#DejaVuSans-67"/>
      <use x="69.824219" xlink:href="#DejaVuSans-111"/>
      <use x="131.005859" xlink:href="#DejaVuSans-110"/>
      <use x="194.384766" xlink:href="#DejaVuSans-118"/>
      <use x="253.564453" xlink:href="#DejaVuSans-101"/>
      <use x="315.087891" xlink:href="#DejaVuSans-114"/>
      <use x="354.451172" xlink:href="#DejaVuSans-103"/>
      <use x="417.927734" xlink:href="#DejaVuSans-101"/>
      <use x="479.451172" xlink:href="#DejaVuSans-110"/>
      <use x="542.830078" xlink:href="#DejaVuSans-99"/>
      <use x="597.810547" xlink:href="#DejaVuSans-101"/>
     </g>
    </g>
   </g>
   <g id="line2d_11">
    <path clip-path="url(#p8d3d297d3f)" d="M 69.218182 44.443636 
L 72.292562 44.443636 
L 72.292562 45.375523 
L 75.366942 45.375523 
L 75.366942 46.311855 
L 78.441322 46.311855 
L 78.441322 47.24888 
L 81.515702 47.24888 
L 81.515702 48.186452 
L 84.590083 48.186452 
L 84.590083 49.124515 
L 87.664463 49.124515 
L 87.664463 50.063019 
L 90.738843 50.063019 
L 90.738843 51.001916 
L 93.813223 51.001916 
L 93.813223 51.941163 
L 96.887603 51.941163 
L 96.887603 52.880717 
L 99.961983 52.880717 
L 99.961983 53.820539 
L 103.036364 53.820539 
L 103.036364 54.76059 
L 106.110744 54.76059 
L 106.110744 55.700835 
L 109.185124 55.700835 
L 109.185124 56.641242 
L 112.259504 56.641242 
L 112.259504 57.581779 
L 115.333884 57.581779 
L 115.333884 58.522417 
L 118.408264 58.522417 
L 118.408264 59.463127 
L 121.482645 59.463127 
L 121.482645 60.403885 
L 124.557025 60.403885 
L 124.557025 61.344666 
L 127.631405 61.344666 
L 127.631405 62.285446 
L 130.705785 62.285446 
L 130.705785 63.226205 
L 133.780165 63.226205 
L 133.780165 64.166923 
L 136.854545 64.166923 
L 136.854545 65.107581 
L 139.928926 65.107581 
L 139.928926 66.048161 
L 143.003306 66.048161 
L 143.003306 66.988647 
L 146.077686 66.988647 
L 146.077686 67.929025 
L 149.152066 67.929025 
L 149.152066 68.869279 
L 152.226446 68.869279 
L 152.226446 69.809396 
L 155.300826 69.809396 
L 155.300826 70.749365 
L 158.375207 70.749365 
L 158.375207 71.689173 
L 161.449587 71.689173 
L 161.449587 72.628811 
L 164.523967 72.628811 
L 164.523967 73.568268 
L 167.598347 73.568268 
L 167.598347 74.507534 
L 170.672727 74.507534 
L 170.672727 75.446602 
L 173.747107 75.446602 
L 173.747107 76.385463 
L 176.821488 76.385463 
L 176.821488 77.324111 
L 179.895868 77.324111 
L 179.895868 78.262538 
L 182.970248 78.262538 
L 182.970248 79.200737 
L 186.044628 79.200737 
L 186.044628 80.138704 
L 189.119008 80.138704 
L 189.119008 81.076432 
L 192.193388 81.076432 
L 192.193388 82.013917 
L 195.267769 82.013917 
L 195.267769 82.951155 
L 198.342149 82.951155 
L 198.342149 83.888139 
L 201.416529 83.888139 
L 201.416529 84.824867 
L 204.490909 84.824867 
L 204.490909 85.761336 
L 207.565289 85.761336 
L 207.565289 86.69754 
L 210.639669 86.69754 
L 210.639669 87.633478 
L 213.71405 87.633478 
L 213.71405 88.569145 
L 216.78843 88.569145 
L 216.78843 89.50454 
L 219.86281 89.50454 
L 219.86281 90.439659 
L 222.93719 90.439659 
L 222.93719 91.3745 
L 226.01157 91.3745 
L 226.01157 92.30906 
L 229.08595 92.30906 
L 229.08595 93.243337 
L 232.160331 93.243337 
L 232.160331 94.177328 
L 235.234711 94.177328 
L 235.234711 95.111032 
L 238.309091 95.111032 
L 238.309091 96.044445 
L 241.383471 96.044445 
L 241.383471 96.977567 
L 244.457851 96.977567 
L 244.457851 97.910394 
L 247.532231 97.910394 
L 247.532231 98.842924 
L 250.606612 98.842924 
L 250.606612 99.775154 
L 253.680992 99.775154 
L 253.680992 100.707084 
L 256.755372 100.707084 
L 256.755372 101.638709 
L 259.829752 101.638709 
L 259.829752 102.570029 
L 262.904132 102.570029 
L 262.904132 103.501039 
L 265.978512 103.501039 
L 265.978512 104.431737 
L 269.052893 104.431737 
L 269.052893 105.36212 
L 272.127273 105.36212 
L 272.127273 106.292186 
L 275.201653 106.292186 
L 275.201653 107.221931 
L 278.276033 107.221931 
L 278.276033 108.151351 
L 281.350413 108.151351 
L 281.350413 109.080443 
L 284.424793 109.080443 
L 284.424793 110.009204 
L 287.499174 110.009204 
L 287.499174 110.937628 
L 290.573554 110.937628 
L 290.573554 111.865712 
L 293.647934 111.865712 
L 293.647934 112.793451 
L 296.722314 112.793451 
L 296.722314 113.72084 
L 299.796694 113.72084 
L 299.796694 114.647874 
L 302.871074 114.647874 
L 302.871074 115.574548 
L 305.945455 115.574548 
L 305.945455 116.500854 
L 309.019835 116.500854 
L 309.019835 117.426788 
L 312.094215 117.426788 
L 312.094215 118.352342 
L 315.168595 118.352342 
L 315.168595 119.277509 
L 318.242975 119.277509 
L 318.242975 120.202282 
L 321.317355 120.202282 
L 321.317355 121.126653 
L 324.391736 121.126653 
L 324.391736 122.050613 
L 327.466116 122.050613 
L 327.466116 122.974153 
L 330.540496 122.974153 
L 330.540496 123.897263 
L 333.614876 123.897263 
L 333.614876 124.819934 
L 336.689256 124.819934 
L 336.689256 125.742155 
L 339.763636 125.742155 
L 339.763636 126.663914 
L 342.838017 126.663914 
L 342.838017 127.5852 
L 345.912397 127.5852 
L 345.912397 128.506 
L 348.986777 128.506 
L 348.986777 129.426301 
L 352.061157 129.426301 
L 352.061157 130.346088 
L 355.135537 130.346088 
L 355.135537 131.265346 
L 358.209917 131.265346 
L 358.209917 132.184061 
L 361.284298 132.184061 
L 361.284298 133.102215 
L 364.358678 133.102215 
L 364.358678 134.019791 
L 367.433058 134.019791 
L 367.433058 134.936771 
L 370.507438 134.936771 
L 370.507438 135.853136 
L 373.581818 135.853136 
L 373.581818 136.768865 
L 373.581818 136.768865 
" style="fill:none;stroke:#1e90ff;stroke-dasharray:5.55,2.4;stroke-dashoffset:0;stroke-width:1.5;"/>
   </g>
   <g id="line2d_12">
    <path clip-path="url(#p8d3d297d3f)" d="M 69.218182 44.443636 
L 106.110744 44.443636 
L 106.110744 50.710644 
L 118.408264 50.710644 
L 118.408264 65.428453 
L 130.705785 65.428453 
L 130.705785 74.578369 
L 161.449587 74.578369 
L 161.449587 80.543887 
L 167.598347 80.543887 
L 167.598347 116.280859 
L 192.193388 116.280859 
L 192.193388 117.082676 
L 198.342149 117.082676 
L 198.342149 149.621717 
L 216.78843 149.621717 
L 216.78843 189.458026 
L 222.93719 189.458026 
L 222.93719 207.322741 
L 229.08595 207.322741 
L 229.08595 209.63498 
L 241.383471 209.63498 
L 241.383471 242.116364 
L 259.829752 242.116364 
L 259.829752 235.208933 
L 265.978512 235.208933 
L 265.978512 225.140038 
L 278.276033 225.140038 
L 278.276033 223.605012 
L 302.871074 223.502479 
L 302.871074 223.416944 
L 373.581818 223.404057 
L 373.581818 223.404057 
" style="fill:none;stroke:#ff8c00;stroke-dasharray:5.55,2.4;stroke-dashoffset:0;stroke-width:1.5;"/>
   </g>
   <g id="line2d_13">
    <path clip-path="url(#p8d3d297d3f)" d="M 72.292562 44.443636 
L 78.441322 44.443636 
L 78.441322 54.062141 
L 112.259504 54.062141 
L 112.259504 74.485951 
L 115.333884 74.485951 
L 115.333884 126.656537 
L 118.408264 126.656537 
L 118.408264 143.43855 
L 127.631405 143.43855 
L 127.631405 165.836591 
L 133.780165 165.836591 
L 133.780165 210.693255 
L 158.375207 210.693255 
L 158.375207 231.764317 
L 167.598347 231.764317 
L 167.598347 227.706109 
L 176.821488 227.706109 
L 176.821488 223.887582 
L 179.895868 223.887582 
L 179.895868 223.55033 
L 198.342149 223.55033 
L 198.342149 223.41329 
L 373.581818 223.403451 
L 373.581818 223.403451 
" style="fill:none;stroke:#008000;stroke-dasharray:5.55,2.4;stroke-dashoffset:0;stroke-width:1.5;"/>
   </g>
   <g id="line2d_14">
    <path clip-path="url(#p8d3d297d3f)" d="M 69.218182 44.443636 
L 124.557025 44.443636 
L 124.557025 62.235608 
L 161.449587 62.235608 
L 161.449587 73.379777 
L 186.044628 73.379777 
L 186.044628 74.122999 
L 204.490909 74.122999 
L 204.490909 82.460146 
L 219.86281 82.460146 
L 219.86281 89.450921 
L 222.93719 89.450921 
L 222.93719 91.078056 
L 241.383471 91.078056 
L 241.383471 91.743163 
L 275.201653 91.743163 
L 275.201653 109.697126 
L 296.722314 109.697126 
L 296.722314 109.831752 
L 318.242975 109.831752 
L 318.242975 116.853029 
L 342.838017 116.853029 
L 342.838017 125.692129 
L 373.581818 125.692129 
L 373.581818 125.692129 
" style="fill:none;stroke:#ff0000;stroke-dasharray:5.55,2.4;stroke-dashoffset:0;stroke-width:1.5;"/>
   </g>
   <g id="line2d_15">
    <path clip-path="url(#p8d3d297d3f)" d="M 69.218182 44.443636 
L 130.705785 44.443636 
L 130.705785 48.154386 
L 158.375207 48.154386 
L 158.375207 49.996862 
L 176.821488 49.996862 
L 176.821488 50.480617 
L 186.044628 50.480617 
L 186.044628 51.794217 
L 204.490909 51.794217 
L 204.490909 54.901098 
L 373.581818 54.901098 
L 373.581818 54.901098 
" style="fill:none;stroke:#9400d3;stroke-dasharray:5.55,2.4;stroke-dashoffset:0;stroke-width:1.5;"/>
   </g>
   <g id="line2d_16">
    <path clip-path="url(#p8d3d297d3f)" d="M 69.218182 44.443636 
L 106.110744 44.443636 
L 106.110744 48.379754 
L 109.185124 48.379754 
L 109.185124 68.913229 
L 112.259504 68.913229 
L 112.259504 88.986451 
L 115.333884 88.986451 
L 115.333884 90.669513 
L 373.581818 90.669513 
L 373.581818 90.669513 
" style="fill:none;stroke:#8b4513;stroke-dasharray:5.55,2.4;stroke-dashoffset:0;stroke-width:1.5;"/>
   </g>
   <g id="patch_3">
    <path d="M 54 252 
L 54 34.56 
" style="fill:none;stroke:#000000;stroke-linecap:square;stroke-linejoin:miter;stroke-width:0.8;"/>
   </g>
   <g id="patch_4">
    <path d="M 388.8 252 
L 388.8 34.56 
" style="fill:none;stroke:#000000;stroke-linecap:square;stroke-linejoin:miter;stroke-width:0.8;"/>
   </g>
   <g id="patch_5">
    <path d="M 54 252 
L 388.8 252 
" style="fill:none;stroke:#000000;stroke-linecap:square;stroke-linejoin:miter;stroke-width:0.8;"/>
   </g>
   <g id="patch_6">
    <path d="M 54 34.56 
L 388.8 34.56 
" style="fill:none;stroke:#000000;stroke-linecap:square;stroke-linejoin:miter;stroke-width:0.8;"/>
   </g>
   <g id="legend_1">
    <g id="patch_7">
     <path d="M 61 189.0925 
L 176.904688 189.0925 
Q 178.904688 189.0925 178.904688 187.0925 
L 178.904688 99.4675 
Q 178.904688 97.4675 176.904688 97.4675 
L 61 97.4675 
Q 59 97.4675 59 99.4675 
L 59 187.0925 
Q 59 189.0925 61 189.0925 
z
" style="fill:#ffffff;opacity:0.8;stroke:#cccccc;stroke-linejoin:miter;"/>
    </g>
    <g id="line2d_17">
     <path d="M 63 105.565938 
L 83 105.565938 
" style="fill:none;stroke:#1e90ff;stroke-dasharray:5.55,2.4;stroke-dashoffset:0;stroke-width:1.5;"/>
    </g>
    <g id="line2d_18"/>
    <g id="text_13">
     <!-- ADMM -->
     <g transform="translate(91 109.065938)scale(0.1 -0.1)">
      <defs>
       <path d="M 34.1875 63.1875 
L 20.796875 26.90625 
L 47.609375 26.90625 
z
M 28.609375 72.90625 
L 39.796875 72.90625 
L 67.578125 0 
L 57.328125 0 
L 50.6875 18.703125 
L 17.828125 18.703125 
L 11.1875 0 
L 0.78125 0 
z
" id="DejaVuSans-65"/>
       <path d="M 19.671875 64.796875 
L 19.671875 8.109375 
L 31.59375 8.109375 
Q 46.6875 8.109375 53.6875 14.9375 
Q 60.6875 21.78125 60.6875 36.53125 
Q 60.6875 51.171875 53.6875 57.984375 
Q 46.6875 64.796875 31.59375 64.796875 
z
M 9.8125 72.90625 
L 30.078125 72.90625 
Q 51.265625 72.90625 61.171875 64.09375 
Q 71.09375 55.28125 71.09375 36.53125 
Q 71.09375 17.671875 61.125 8.828125 
Q 51.171875 0 30.078125 0 
L 9.8125 0 
z
" id="DejaVuSans-68"/>
       <path d="M 9.8125 72.90625 
L 24.515625 72.90625 
L 43.109375 23.296875 
L 61.8125 72.90625 
L 76.515625 72.90625 
L 76.515625 0 
L 66.890625 0 
L 66.890625 64.015625 
L 48.09375 14.015625 
L 38.1875 14.015625 
L 19.390625 64.015625 
L 19.390625 0 
L 9.8125 0 
z
" id="DejaVuSans-77"/>
      </defs>
      <use xlink:href="#DejaVuSans-65"/>
      <use x="68.408203" xlink:href="#DejaVuSans-68"/>
      <use x="145.410156" xlink:href="#DejaVuSans-77"/>
      <use x="231.689453" xlink:href="#DejaVuSans-77"/>
     </g>
    </g>
    <g id="line2d_19">
     <path d="M 63 120.244063 
L 83 120.244063 
" style="fill:none;stroke:#ff8c00;stroke-dasharray:5.55,2.4;stroke-dashoffset:0;stroke-width:1.5;"/>
    </g>
    <g id="line2d_20"/>
    <g id="text_14">
     <!-- ADMM_CUATRO -->
     <g transform="translate(91 123.744063)scale(0.1 -0.1)">
      <defs>
       <path d="M 50.984375 -16.609375 
L 50.984375 -23.578125 
L -0.984375 -23.578125 
L -0.984375 -16.609375 
z
" id="DejaVuSans-95"/>
       <path d="M 8.6875 72.90625 
L 18.609375 72.90625 
L 18.609375 28.609375 
Q 18.609375 16.890625 22.84375 11.734375 
Q 27.09375 6.59375 36.625 6.59375 
Q 46.09375 6.59375 50.34375 11.734375 
Q 54.59375 16.890625 54.59375 28.609375 
L 54.59375 72.90625 
L 64.5 72.90625 
L 64.5 27.390625 
Q 64.5 13.140625 57.4375 5.859375 
Q 50.390625 -1.421875 36.625 -1.421875 
Q 22.796875 -1.421875 15.734375 5.859375 
Q 8.6875 13.140625 8.6875 27.390625 
z
" id="DejaVuSans-85"/>
       <path d="M -0.296875 72.90625 
L 61.375 72.90625 
L 61.375 64.59375 
L 35.5 64.59375 
L 35.5 0 
L 25.59375 0 
L 25.59375 64.59375 
L -0.296875 64.59375 
z
" id="DejaVuSans-84"/>
       <path d="M 44.390625 34.1875 
Q 47.5625 33.109375 50.5625 29.59375 
Q 53.5625 26.078125 56.59375 19.921875 
L 66.609375 0 
L 56 0 
L 46.6875 18.703125 
Q 43.0625 26.03125 39.671875 28.421875 
Q 36.28125 30.8125 30.421875 30.8125 
L 19.671875 30.8125 
L 19.671875 0 
L 9.8125 0 
L 9.8125 72.90625 
L 32.078125 72.90625 
Q 44.578125 72.90625 50.734375 67.671875 
Q 56.890625 62.453125 56.890625 51.90625 
Q 56.890625 45.015625 53.6875 40.46875 
Q 50.484375 35.9375 44.390625 34.1875 
z
M 19.671875 64.796875 
L 19.671875 38.921875 
L 32.078125 38.921875 
Q 39.203125 38.921875 42.84375 42.21875 
Q 46.484375 45.515625 46.484375 51.90625 
Q 46.484375 58.296875 42.84375 61.546875 
Q 39.203125 64.796875 32.078125 64.796875 
z
" id="DejaVuSans-82"/>
       <path d="M 39.40625 66.21875 
Q 28.65625 66.21875 22.328125 58.203125 
Q 16.015625 50.203125 16.015625 36.375 
Q 16.015625 22.609375 22.328125 14.59375 
Q 28.65625 6.59375 39.40625 6.59375 
Q 50.140625 6.59375 56.421875 14.59375 
Q 62.703125 22.609375 62.703125 36.375 
Q 62.703125 50.203125 56.421875 58.203125 
Q 50.140625 66.21875 39.40625 66.21875 
z
M 39.40625 74.21875 
Q 54.734375 74.21875 63.90625 63.9375 
Q 73.09375 53.65625 73.09375 36.375 
Q 73.09375 19.140625 63.90625 8.859375 
Q 54.734375 -1.421875 39.40625 -1.421875 
Q 24.03125 -1.421875 14.8125 8.828125 
Q 5.609375 19.09375 5.609375 36.375 
Q 5.609375 53.65625 14.8125 63.9375 
Q 24.03125 74.21875 39.40625 74.21875 
z
" id="DejaVuSans-79"/>
      </defs>
      <use xlink:href="#DejaVuSans-65"/>
      <use x="68.408203" xlink:href="#DejaVuSans-68"/>
      <use x="145.410156" xlink:href="#DejaVuSans-77"/>
      <use x="231.689453" xlink:href="#DejaVuSans-77"/>
      <use x="317.96875" xlink:href="#DejaVuSans-95"/>
      <use x="367.96875" xlink:href="#DejaVuSans-67"/>
      <use x="437.792969" xlink:href="#DejaVuSans-85"/>
      <use x="510.986328" xlink:href="#DejaVuSans-65"/>
      <use x="571.644531" xlink:href="#DejaVuSans-84"/>
      <use x="632.728516" xlink:href="#DejaVuSans-82"/>
      <use x="702.210938" xlink:href="#DejaVuSans-79"/>
     </g>
    </g>
    <g id="line2d_21">
     <path d="M 63 135.200313 
L 83 135.200313 
" style="fill:none;stroke:#008000;stroke-dasharray:5.55,2.4;stroke-dashoffset:0;stroke-width:1.5;"/>
    </g>
    <g id="line2d_22"/>
    <g id="text_15">
     <!-- Py-BOBYQA -->
     <g transform="translate(91 138.700313)scale(0.1 -0.1)">
      <defs>
       <path d="M 19.671875 64.796875 
L 19.671875 37.40625 
L 32.078125 37.40625 
Q 38.96875 37.40625 42.71875 40.96875 
Q 46.484375 44.53125 46.484375 51.125 
Q 46.484375 57.671875 42.71875 61.234375 
Q 38.96875 64.796875 32.078125 64.796875 
z
M 9.8125 72.90625 
L 32.078125 72.90625 
Q 44.34375 72.90625 50.609375 67.359375 
Q 56.890625 61.8125 56.890625 51.125 
Q 56.890625 40.328125 50.609375 34.8125 
Q 44.34375 29.296875 32.078125 29.296875 
L 19.671875 29.296875 
L 19.671875 0 
L 9.8125 0 
z
" id="DejaVuSans-80"/>
       <path d="M 32.171875 -5.078125 
Q 28.375 -14.84375 24.75 -17.8125 
Q 21.140625 -20.796875 15.09375 -20.796875 
L 7.90625 -20.796875 
L 7.90625 -13.28125 
L 13.1875 -13.28125 
Q 16.890625 -13.28125 18.9375 -11.515625 
Q 21 -9.765625 23.484375 -3.21875 
L 25.09375 0.875 
L 2.984375 54.6875 
L 12.5 54.6875 
L 29.59375 11.921875 
L 46.6875 54.6875 
L 56.203125 54.6875 
z
" id="DejaVuSans-121"/>
       <path d="M 4.890625 31.390625 
L 31.203125 31.390625 
L 31.203125 23.390625 
L 4.890625 23.390625 
z
" id="DejaVuSans-45"/>
       <path d="M 19.671875 34.8125 
L 19.671875 8.109375 
L 35.5 8.109375 
Q 43.453125 8.109375 47.28125 11.40625 
Q 51.125 14.703125 51.125 21.484375 
Q 51.125 28.328125 47.28125 31.5625 
Q 43.453125 34.8125 35.5 34.8125 
z
M 19.671875 64.796875 
L 19.671875 42.828125 
L 34.28125 42.828125 
Q 41.5 42.828125 45.03125 45.53125 
Q 48.578125 48.25 48.578125 53.8125 
Q 48.578125 59.328125 45.03125 62.0625 
Q 41.5 64.796875 34.28125 64.796875 
z
M 9.8125 72.90625 
L 35.015625 72.90625 
Q 46.296875 72.90625 52.390625 68.21875 
Q 58.5 63.53125 58.5 54.890625 
Q 58.5 48.1875 55.375 44.234375 
Q 52.25 40.28125 46.1875 39.3125 
Q 53.46875 37.75 57.5 32.78125 
Q 61.53125 27.828125 61.53125 20.40625 
Q 61.53125 10.640625 54.890625 5.3125 
Q 48.25 0 35.984375 0 
L 9.8125 0 
z
" id="DejaVuSans-66"/>
       <path d="M -0.203125 72.90625 
L 10.40625 72.90625 
L 30.609375 42.921875 
L 50.6875 72.90625 
L 61.28125 72.90625 
L 35.5 34.71875 
L 35.5 0 
L 25.59375 0 
L 25.59375 34.71875 
z
" id="DejaVuSans-89"/>
       <path d="M 39.40625 66.21875 
Q 28.65625 66.21875 22.328125 58.203125 
Q 16.015625 50.203125 16.015625 36.375 
Q 16.015625 22.609375 22.328125 14.59375 
Q 28.65625 6.59375 39.40625 6.59375 
Q 50.140625 6.59375 56.421875 14.59375 
Q 62.703125 22.609375 62.703125 36.375 
Q 62.703125 50.203125 56.421875 58.203125 
Q 50.140625 66.21875 39.40625 66.21875 
z
M 53.21875 1.3125 
L 66.21875 -12.890625 
L 54.296875 -12.890625 
L 43.5 -1.21875 
Q 41.890625 -1.3125 41.03125 -1.359375 
Q 40.1875 -1.421875 39.40625 -1.421875 
Q 24.03125 -1.421875 14.8125 8.859375 
Q 5.609375 19.140625 5.609375 36.375 
Q 5.609375 53.65625 14.8125 63.9375 
Q 24.03125 74.21875 39.40625 74.21875 
Q 54.734375 74.21875 63.90625 63.9375 
Q 73.09375 53.65625 73.09375 36.375 
Q 73.09375 23.6875 67.984375 14.640625 
Q 62.890625 5.609375 53.21875 1.3125 
z
" id="DejaVuSans-81"/>
      </defs>
      <use xlink:href="#DejaVuSans-80"/>
      <use x="60.302734" xlink:href="#DejaVuSans-121"/>
      <use x="117.732422" xlink:href="#DejaVuSans-45"/>
      <use x="150.191406" xlink:href="#DejaVuSans-66"/>
      <use x="217.044922" xlink:href="#DejaVuSans-79"/>
      <use x="295.755859" xlink:href="#DejaVuSans-66"/>
      <use x="358.859375" xlink:href="#DejaVuSans-89"/>
      <use x="419.943359" xlink:href="#DejaVuSans-81"/>
      <use x="498.654297" xlink:href="#DejaVuSans-65"/>
     </g>
    </g>
    <g id="line2d_23">
     <path d="M 63 149.878438 
L 83 149.878438 
" style="fill:none;stroke:#ff0000;stroke-dasharray:5.55,2.4;stroke-dashoffset:0;stroke-width:1.5;"/>
    </g>
    <g id="line2d_24"/>
    <g id="text_16">
     <!-- DIRECT-L -->
     <g transform="translate(91 153.378438)scale(0.1 -0.1)">
      <defs>
       <path d="M 9.8125 72.90625 
L 19.671875 72.90625 
L 19.671875 0 
L 9.8125 0 
z
" id="DejaVuSans-73"/>
       <path d="M 9.8125 72.90625 
L 55.90625 72.90625 
L 55.90625 64.59375 
L 19.671875 64.59375 
L 19.671875 43.015625 
L 54.390625 43.015625 
L 54.390625 34.71875 
L 19.671875 34.71875 
L 19.671875 8.296875 
L 56.78125 8.296875 
L 56.78125 0 
L 9.8125 0 
z
" id="DejaVuSans-69"/>
       <path d="M 9.8125 72.90625 
L 19.671875 72.90625 
L 19.671875 8.296875 
L 55.171875 8.296875 
L 55.171875 0 
L 9.8125 0 
z
" id="DejaVuSans-76"/>
      </defs>
      <use xlink:href="#DejaVuSans-68"/>
      <use x="77.001953" xlink:href="#DejaVuSans-73"/>
      <use x="106.494141" xlink:href="#DejaVuSans-82"/>
      <use x="175.976562" xlink:href="#DejaVuSans-69"/>
      <use x="239.160156" xlink:href="#DejaVuSans-67"/>
      <use x="308.984375" xlink:href="#DejaVuSans-84"/>
      <use x="360.943359" xlink:href="#DejaVuSans-45"/>
      <use x="397.027344" xlink:href="#DejaVuSans-76"/>
     </g>
    </g>
    <g id="line2d_25">
     <path d="M 63 164.556563 
L 83 164.556563 
" style="fill:none;stroke:#9400d3;stroke-dasharray:5.55,2.4;stroke-dashoffset:0;stroke-width:1.5;"/>
    </g>
    <g id="line2d_26"/>
    <g id="text_17">
     <!-- ALADIN_CUATRO -->
     <g transform="translate(91 168.056563)scale(0.1 -0.1)">
      <use xlink:href="#DejaVuSans-65"/>
      <use x="68.408203" xlink:href="#DejaVuSans-76"/>
      <use x="126.371094" xlink:href="#DejaVuSans-65"/>
      <use x="194.779297" xlink:href="#DejaVuSans-68"/>
      <use x="271.78125" xlink:href="#DejaVuSans-73"/>
      <use x="301.273438" xlink:href="#DejaVuSans-78"/>
      <use x="376.078125" xlink:href="#DejaVuSans-95"/>
      <use x="426.078125" xlink:href="#DejaVuSans-67"/>
      <use x="495.902344" xlink:href="#DejaVuSans-85"/>
      <use x="569.095703" xlink:href="#DejaVuSans-65"/>
      <use x="629.753906" xlink:href="#DejaVuSans-84"/>
      <use x="690.837891" xlink:href="#DejaVuSans-82"/>
      <use x="760.320312" xlink:href="#DejaVuSans-79"/>
     </g>
    </g>
    <g id="line2d_27">
     <path d="M 63 179.512813 
L 83 179.512813 
" style="fill:none;stroke:#8b4513;stroke-dasharray:5.55,2.4;stroke-dashoffset:0;stroke-width:1.5;"/>
    </g>
    <g id="line2d_28"/>
    <g id="text_18">
     <!-- GPyOpt -->
     <g transform="translate(91 183.012813)scale(0.1 -0.1)">
      <defs>
       <path d="M 59.515625 10.40625 
L 59.515625 29.984375 
L 43.40625 29.984375 
L 43.40625 38.09375 
L 69.28125 38.09375 
L 69.28125 6.78125 
Q 63.578125 2.734375 56.6875 0.65625 
Q 49.8125 -1.421875 42 -1.421875 
Q 24.90625 -1.421875 15.25 8.5625 
Q 5.609375 18.5625 5.609375 36.375 
Q 5.609375 54.25 15.25 64.234375 
Q 24.90625 74.21875 42 74.21875 
Q 49.125 74.21875 55.546875 72.453125 
Q 61.96875 70.703125 67.390625 67.28125 
L 67.390625 56.78125 
Q 61.921875 61.421875 55.765625 63.765625 
Q 49.609375 66.109375 42.828125 66.109375 
Q 29.4375 66.109375 22.71875 58.640625 
Q 16.015625 51.171875 16.015625 36.375 
Q 16.015625 21.625 22.71875 14.15625 
Q 29.4375 6.6875 42.828125 6.6875 
Q 48.046875 6.6875 52.140625 7.59375 
Q 56.25 8.5 59.515625 10.40625 
z
" id="DejaVuSans-71"/>
       <path d="M 18.109375 8.203125 
L 18.109375 -20.796875 
L 9.078125 -20.796875 
L 9.078125 54.6875 
L 18.109375 54.6875 
L 18.109375 46.390625 
Q 20.953125 51.265625 25.265625 53.625 
Q 29.59375 56 35.59375 56 
Q 45.5625 56 51.78125 48.09375 
Q 58.015625 40.1875 58.015625 27.296875 
Q 58.015625 14.40625 51.78125 6.484375 
Q 45.5625 -1.421875 35.59375 -1.421875 
Q 29.59375 -1.421875 25.265625 0.953125 
Q 20.953125 3.328125 18.109375 8.203125 
z
M 48.6875 27.296875 
Q 48.6875 37.203125 44.609375 42.84375 
Q 40.53125 48.484375 33.40625 48.484375 
Q 26.265625 48.484375 22.1875 42.84375 
Q 18.109375 37.203125 18.109375 27.296875 
Q 18.109375 17.390625 22.1875 11.75 
Q 26.265625 6.109375 33.40625 6.109375 
Q 40.53125 6.109375 44.609375 11.75 
Q 48.6875 17.390625 48.6875 27.296875 
z
" id="DejaVuSans-112"/>
      </defs>
      <use xlink:href="#DejaVuSans-71"/>
      <use x="77.490234" xlink:href="#DejaVuSans-80"/>
      <use x="137.792969" xlink:href="#DejaVuSans-121"/>
      <use x="196.972656" xlink:href="#DejaVuSans-79"/>
      <use x="275.683594" xlink:href="#DejaVuSans-112"/>
      <use x="339.160156" xlink:href="#DejaVuSans-116"/>
     </g>
    </g>
   </g>
  </g>
 </g>
 <defs>
  <clipPath id="p8d3d297d3f">
   <rect height="217.44" width="334.8" x="54" y="34.56"/>
  </clipPath>
 </defs>
</svg>
